M48
;GenerationSoftware,Autodesk,EAGLE,9.7.0*%
;CreationDate,2022-05-09T14:20:26Z*%
FMAT,2
ICI,OFF
METRIC,TZ,000.000
T3C0.700
T2C1.016
%
G90
M71
T2
X24588Y12651
X24588Y10111
X24588Y7571
X24588Y5031
X1854Y40589
X1854Y38049
X24588Y32971
X1854Y35509
X1854Y32969
X1854Y30429
X1854Y27889
X1854Y25349
X1854Y22809
X1854Y17729
X1854Y15189
X1854Y12649
X1854Y10109
X1854Y7569
X1854Y5029
X16117Y3433
X13577Y3433
X11037Y3433
X8497Y3433
X24588Y40591
X24588Y38051
X24588Y35511
X1854Y20269
X24588Y30431
X24588Y27891
X24588Y25351
X24588Y22811
X24588Y20271
X24588Y17731
X24588Y15191
T3
X20844Y5413
X8227Y15751
X15197Y14943
X16225Y15983
X18450Y15923
X19939Y35687
X16707Y29193
X11417Y10913
X13270Y9646
X5230Y7813
X10667Y16743
X7349Y20733
X9727Y15683
X6237Y19221
X7027Y27522
X9457Y6543
X16787Y20863
X5617Y4753
X22860Y42037
M30