M48
;GenerationSoftware,Autodesk,EAGLE,9.6.2*%
;CreationDate,2022-05-14T18:51:59Z*%
FMAT,2
ICI,OFF
METRIC,TZ,000.000
T4C0.300
T3C0.350
T2C0.650
T1C1.016
%
G90
M71
T1
X3683Y14351
X10287Y20320
X12827Y20320
X15367Y20320
X17907Y20320
X3683Y16891
X3683Y4191
X34290Y15240
X34290Y12700
X34290Y10160
X34290Y7620
X20447Y20320
X3683Y6731
X3683Y9271
X3683Y11811
X7747Y20320
T2
X40640Y14320
X40640Y8540
T3
X36576Y9017
X37465Y10160
X36195Y2540
X37338Y12954
X42037Y1270
X40640Y10795
X31115Y12065
X37465Y12065
X33020Y5080
T4
X13970Y10363
X12827Y17653
X14224Y11684
X7798Y9017
X6680Y8255
X20574Y9271
X26822Y5766
X19202Y6985
X17094Y8382
X17018Y10160
X17780Y3683
X27305Y7747
X16510Y14808
X16332Y7239
X15113Y7747
X32385Y13970
X24892Y11938
X27229Y4267
X36576Y13843
X31801Y12827
X18288Y16129
X24638Y16764
X32893Y2667
X16434Y9068
M30