G04 EAGLE Gerber X2 export*
%TF.Part,Single*%
%TF.FileFunction,Copper,L1,Top,Mixed*%
%TF.FilePolarity,Positive*%
%TF.GenerationSoftware,Autodesk,EAGLE,9.6.2*%
%TF.CreationDate,2022-05-14T18:51:59Z*%
G75*
%MOMM*%
%FSLAX46Y46*%
%LPD*%
%INTop Copper*%
%AMOC8*
5,1,8,0,0,1.08239X$1,22.5*%
G01*
%ADD10R,1.500000X1.300000*%
%ADD11R,1.300000X1.500000*%
%ADD12R,0.600000X0.300000*%
%ADD13R,0.300000X0.600000*%
%ADD14R,3.300000X3.300000*%
%ADD15R,0.435000X0.435000*%
%ADD16C,1.828800*%
%ADD17R,0.800000X0.800000*%
%ADD18R,1.000000X1.400000*%
%ADD19R,1.150000X0.600000*%
%ADD20R,1.150000X0.300000*%
%ADD21R,2.000000X2.180000*%
%ADD22C,0.508000*%
%ADD23C,0.502400*%
%ADD24C,0.254000*%
%ADD25C,0.452400*%
%ADD26C,0.609600*%

G36*
X39063331Y220303D02*
X39063331Y220303D01*
X39067128Y220091D01*
X39087925Y222300D01*
X39108725Y223991D01*
X39112409Y224903D01*
X39116191Y225306D01*
X39136350Y230841D01*
X39156613Y235866D01*
X39160103Y237363D01*
X39163769Y238369D01*
X39182778Y247088D01*
X39201959Y255313D01*
X39205159Y257350D01*
X39208619Y258938D01*
X39226016Y270638D01*
X39243572Y281822D01*
X39246391Y284341D01*
X39249559Y286472D01*
X39264822Y300809D01*
X39280366Y314697D01*
X39282753Y317653D01*
X39285522Y320253D01*
X39298197Y336766D01*
X39311372Y353075D01*
X39313263Y356397D01*
X39315563Y359394D01*
X39325409Y377741D01*
X39335778Y395956D01*
X39337100Y399519D01*
X39338897Y402866D01*
X39345675Y422619D01*
X39352947Y442213D01*
X39353678Y445944D01*
X39354909Y449534D01*
X39358416Y470147D01*
X39362425Y490634D01*
X39362544Y494425D01*
X39363181Y498175D01*
X39363316Y519116D01*
X39363969Y539950D01*
X39363475Y543703D01*
X39363500Y547516D01*
X39360259Y568169D01*
X39357538Y588866D01*
X39356438Y592513D01*
X39355850Y596259D01*
X39349338Y616069D01*
X39343297Y636106D01*
X39341625Y639522D01*
X39340441Y643128D01*
X39330800Y661656D01*
X39321619Y680428D01*
X39319419Y683528D01*
X39317666Y686900D01*
X39311900Y694134D01*
X39293075Y720675D01*
X39280928Y732978D01*
X39275072Y740325D01*
X39128000Y887394D01*
X39128000Y2315825D01*
X39130300Y2321578D01*
X39133894Y2328275D01*
X39139438Y2344441D01*
X39145797Y2360344D01*
X39147447Y2367781D01*
X39149903Y2374944D01*
X39152766Y2391772D01*
X39156478Y2408513D01*
X39156903Y2416097D01*
X39158178Y2423584D01*
X39158288Y2440709D01*
X39159247Y2457775D01*
X39158444Y2465316D01*
X39158494Y2472922D01*
X39155838Y2489847D01*
X39154031Y2506838D01*
X39152022Y2514153D01*
X39150844Y2521666D01*
X39145494Y2537934D01*
X39140969Y2554419D01*
X39137806Y2561313D01*
X39135431Y2568538D01*
X39127522Y2583738D01*
X39120400Y2599266D01*
X39116166Y2605559D01*
X39112656Y2612306D01*
X39106097Y2620534D01*
X39092866Y2640206D01*
X39076616Y2657509D01*
X39070059Y2665731D01*
X39051744Y2684047D01*
X39018313Y2741950D01*
X39001000Y2806563D01*
X39001000Y3164994D01*
X39984778Y3164994D01*
X39992356Y3165609D01*
X39999931Y3165372D01*
X40007709Y3166394D01*
X40014759Y3166175D01*
X40025219Y3164994D01*
X41008997Y3164994D01*
X41008997Y2806563D01*
X40991684Y2741950D01*
X40958253Y2684047D01*
X40939938Y2665731D01*
X40935022Y2659947D01*
X40929481Y2654744D01*
X40919066Y2641172D01*
X40907984Y2628134D01*
X40904059Y2621622D01*
X40899441Y2615603D01*
X40891366Y2600553D01*
X40882519Y2585875D01*
X40879691Y2578803D01*
X40876109Y2572128D01*
X40870569Y2555981D01*
X40864203Y2540059D01*
X40862553Y2532622D01*
X40860094Y2525459D01*
X40857225Y2508591D01*
X40853522Y2491891D01*
X40853094Y2484306D01*
X40851822Y2476819D01*
X40851713Y2459713D01*
X40850750Y2442628D01*
X40851553Y2435078D01*
X40851503Y2427481D01*
X40854156Y2410575D01*
X40855963Y2393566D01*
X40857972Y2386244D01*
X40859150Y2378738D01*
X40864500Y2362469D01*
X40869025Y2345984D01*
X40872188Y2339088D01*
X40874563Y2331866D01*
X40881997Y2317575D01*
X40881997Y1828797D01*
X40882613Y1821219D01*
X40882375Y1813644D01*
X40884603Y1796684D01*
X40885991Y1779619D01*
X40887816Y1772256D01*
X40888806Y1764728D01*
X40893750Y1748328D01*
X40897866Y1731731D01*
X40900853Y1724766D01*
X40903047Y1717488D01*
X40910572Y1702103D01*
X40917313Y1686384D01*
X40921391Y1679981D01*
X40924725Y1673166D01*
X40934638Y1659191D01*
X40943822Y1644772D01*
X40948866Y1639125D01*
X40953269Y1632919D01*
X40965322Y1620709D01*
X40976697Y1607978D01*
X40982591Y1603219D01*
X40987931Y1597806D01*
X41001772Y1587722D01*
X41015075Y1576972D01*
X41021672Y1573216D01*
X41027806Y1568747D01*
X41043081Y1561031D01*
X41057956Y1552566D01*
X41065075Y1549922D01*
X41071847Y1546503D01*
X41088147Y1541359D01*
X41104213Y1535397D01*
X41111675Y1533938D01*
X41118900Y1531656D01*
X41129338Y1530478D01*
X41152634Y1525919D01*
X41176338Y1525178D01*
X41186797Y1523997D01*
X41522128Y1523997D01*
X41533463Y1524919D01*
X41544844Y1524844D01*
X41558031Y1526913D01*
X41571306Y1527991D01*
X41582334Y1530725D01*
X41593588Y1532491D01*
X41606269Y1536659D01*
X41619194Y1539866D01*
X41629641Y1544347D01*
X41640459Y1547903D01*
X41652297Y1554063D01*
X41664541Y1559313D01*
X41674128Y1565419D01*
X41684228Y1570675D01*
X41691588Y1576544D01*
X41706153Y1585822D01*
X41730425Y1607509D01*
X41737653Y1613272D01*
X41779603Y1655222D01*
X41946606Y1724397D01*
X42127391Y1724397D01*
X42294394Y1655222D01*
X42336344Y1613272D01*
X42344984Y1605928D01*
X42353003Y1597806D01*
X42363813Y1589928D01*
X42373941Y1581322D01*
X42383659Y1575466D01*
X42392878Y1568747D01*
X42404806Y1562722D01*
X42416200Y1555856D01*
X42426753Y1551638D01*
X42436919Y1546503D01*
X42449628Y1542494D01*
X42462016Y1537541D01*
X42473144Y1535072D01*
X42483972Y1531656D01*
X42493294Y1530603D01*
X42510184Y1526859D01*
X42542688Y1525031D01*
X42551869Y1523997D01*
X42633200Y1523997D01*
X42640778Y1524613D01*
X42648353Y1524375D01*
X42665313Y1526603D01*
X42682378Y1527991D01*
X42689741Y1529816D01*
X42697269Y1530806D01*
X42713669Y1535750D01*
X42730266Y1539866D01*
X42737231Y1542853D01*
X42744509Y1545047D01*
X42759881Y1552566D01*
X42775613Y1559313D01*
X42782016Y1563391D01*
X42788831Y1566725D01*
X42802806Y1576638D01*
X42817225Y1585822D01*
X42822872Y1590866D01*
X42829078Y1595269D01*
X42841288Y1607322D01*
X42854019Y1618697D01*
X42858778Y1624591D01*
X42864191Y1629931D01*
X42874275Y1643772D01*
X42885025Y1657075D01*
X42888781Y1663672D01*
X42893250Y1669806D01*
X42900966Y1685081D01*
X42909431Y1699956D01*
X42912075Y1707075D01*
X42915494Y1713847D01*
X42920638Y1730147D01*
X42926600Y1746213D01*
X42928059Y1753675D01*
X42930341Y1760900D01*
X42931519Y1771338D01*
X42936078Y1794634D01*
X42936819Y1818338D01*
X42938000Y1828797D01*
X42938000Y2315825D01*
X42940300Y2321578D01*
X42943894Y2328275D01*
X42949438Y2344441D01*
X42955797Y2360344D01*
X42957447Y2367781D01*
X42959903Y2374944D01*
X42962766Y2391772D01*
X42966478Y2408513D01*
X42966903Y2416097D01*
X42968178Y2423584D01*
X42968288Y2440709D01*
X42969247Y2457775D01*
X42968444Y2465316D01*
X42968494Y2472922D01*
X42965838Y2489847D01*
X42964031Y2506838D01*
X42962022Y2514153D01*
X42960844Y2521666D01*
X42955494Y2537934D01*
X42950969Y2554419D01*
X42947806Y2561313D01*
X42945431Y2568538D01*
X42937522Y2583738D01*
X42930400Y2599266D01*
X42926166Y2605559D01*
X42922656Y2612306D01*
X42916097Y2620534D01*
X42902866Y2640206D01*
X42886616Y2657509D01*
X42880059Y2665731D01*
X42861744Y2684047D01*
X42828313Y2741950D01*
X42811000Y2806563D01*
X42811000Y3164994D01*
X43794778Y3164994D01*
X43802356Y3165609D01*
X43809931Y3165372D01*
X43826891Y3167600D01*
X43843956Y3168988D01*
X43851319Y3170813D01*
X43858847Y3171803D01*
X43875247Y3176747D01*
X43891844Y3180863D01*
X43898809Y3183850D01*
X43906088Y3186044D01*
X43921459Y3193563D01*
X43937191Y3200309D01*
X43943594Y3204388D01*
X43950409Y3207722D01*
X43964384Y3217634D01*
X43978803Y3226819D01*
X43984450Y3231863D01*
X43990656Y3236266D01*
X44002866Y3248319D01*
X44015597Y3259694D01*
X44020356Y3265588D01*
X44025769Y3270928D01*
X44035853Y3284769D01*
X44046603Y3298072D01*
X44050359Y3304669D01*
X44054828Y3310803D01*
X44062544Y3326078D01*
X44071009Y3340953D01*
X44073653Y3348072D01*
X44077072Y3354844D01*
X44082216Y3371144D01*
X44088178Y3387209D01*
X44089638Y3394672D01*
X44091919Y3401897D01*
X44093097Y3412334D01*
X44097656Y3435631D01*
X44098397Y3459334D01*
X44099578Y3469794D01*
X44099578Y3510200D01*
X44098963Y3517778D01*
X44099200Y3525353D01*
X44096972Y3542313D01*
X44095584Y3559378D01*
X44093759Y3566741D01*
X44092769Y3574269D01*
X44087825Y3590669D01*
X44083709Y3607266D01*
X44080722Y3614231D01*
X44078528Y3621509D01*
X44071003Y3636894D01*
X44064263Y3652613D01*
X44060184Y3659016D01*
X44056850Y3665831D01*
X44046938Y3679806D01*
X44037753Y3694225D01*
X44032709Y3699872D01*
X44028306Y3706078D01*
X44016253Y3718288D01*
X44004878Y3731019D01*
X43998984Y3735778D01*
X43993644Y3741191D01*
X43979803Y3751275D01*
X43966500Y3762025D01*
X43959903Y3765781D01*
X43953769Y3770250D01*
X43938494Y3777966D01*
X43923619Y3786431D01*
X43916500Y3789075D01*
X43909728Y3792494D01*
X43893428Y3797638D01*
X43877363Y3803600D01*
X43869900Y3805059D01*
X43862675Y3807341D01*
X43852238Y3808519D01*
X43828941Y3813078D01*
X43805238Y3813819D01*
X43794778Y3815000D01*
X42810997Y3815000D01*
X42811000Y4173431D01*
X42828313Y4238047D01*
X42861750Y4295963D01*
X42909034Y4343247D01*
X42966950Y4376684D01*
X43021325Y4391253D01*
X43039206Y4397634D01*
X43057316Y4403344D01*
X43062416Y4405919D01*
X43067794Y4407838D01*
X43084416Y4417025D01*
X43101363Y4425578D01*
X43105975Y4428938D01*
X43110978Y4431703D01*
X43125916Y4443463D01*
X43141244Y4454628D01*
X43145250Y4458684D01*
X43149744Y4462222D01*
X43162606Y4476256D01*
X43175916Y4489731D01*
X43179209Y4494372D01*
X43183081Y4498597D01*
X43193500Y4514509D01*
X43204472Y4529969D01*
X43206984Y4535100D01*
X43210109Y4539875D01*
X43217816Y4557234D01*
X43226159Y4574284D01*
X43227806Y4579738D01*
X43230128Y4584972D01*
X43234941Y4603384D01*
X43240413Y4621522D01*
X43241159Y4627181D01*
X43242603Y4632709D01*
X43244378Y4651606D01*
X43246859Y4670438D01*
X43246681Y4676150D01*
X43247216Y4681831D01*
X43245916Y4700791D01*
X43245328Y4719753D01*
X43244234Y4725347D01*
X43243844Y4731056D01*
X43239500Y4749566D01*
X43235863Y4768175D01*
X43233878Y4773528D01*
X43232572Y4779091D01*
X43225313Y4796625D01*
X43218706Y4814438D01*
X43215881Y4819406D01*
X43213697Y4824678D01*
X43203700Y4840813D01*
X43194309Y4857322D01*
X43190719Y4861769D01*
X43187713Y4866622D01*
X43175247Y4880931D01*
X43163313Y4895713D01*
X43159053Y4899522D01*
X43155303Y4903825D01*
X43140700Y4915928D01*
X43126531Y4928597D01*
X43121709Y4931672D01*
X43117319Y4935309D01*
X43100956Y4944897D01*
X43084925Y4955116D01*
X43080666Y4956788D01*
X43074747Y4960256D01*
X43028713Y4978006D01*
X43024231Y4978944D01*
X43021322Y4980084D01*
X42971953Y4993313D01*
X42914034Y5026750D01*
X42866750Y5074034D01*
X42833313Y5131950D01*
X42816000Y5196563D01*
X42816000Y5819994D01*
X43874778Y5819994D01*
X43882356Y5820609D01*
X43889931Y5820372D01*
X43906891Y5822600D01*
X43923956Y5823988D01*
X43931319Y5825813D01*
X43938847Y5826803D01*
X43955247Y5831747D01*
X43971844Y5835863D01*
X43978809Y5838850D01*
X43986088Y5841044D01*
X44001459Y5848563D01*
X44017191Y5855309D01*
X44023594Y5859388D01*
X44030409Y5862722D01*
X44044384Y5872634D01*
X44058803Y5881819D01*
X44064450Y5886863D01*
X44070656Y5891266D01*
X44082866Y5903319D01*
X44095597Y5914694D01*
X44100356Y5920588D01*
X44105769Y5925928D01*
X44115853Y5939769D01*
X44126603Y5953072D01*
X44130359Y5959669D01*
X44134828Y5965803D01*
X44142544Y5981078D01*
X44151009Y5995953D01*
X44153653Y6003072D01*
X44157072Y6009844D01*
X44162216Y6026144D01*
X44168178Y6042209D01*
X44169638Y6049672D01*
X44171919Y6056897D01*
X44173097Y6067334D01*
X44177656Y6090631D01*
X44178397Y6114334D01*
X44179578Y6124794D01*
X44179578Y6210419D01*
X44265200Y6210419D01*
X44272778Y6211034D01*
X44280353Y6210797D01*
X44297313Y6213025D01*
X44314378Y6214413D01*
X44321741Y6216238D01*
X44329269Y6217228D01*
X44345669Y6222172D01*
X44362266Y6226288D01*
X44369231Y6229275D01*
X44376509Y6231469D01*
X44391881Y6238988D01*
X44407613Y6245734D01*
X44414016Y6249813D01*
X44420831Y6253147D01*
X44434806Y6263059D01*
X44449225Y6272244D01*
X44454872Y6277288D01*
X44461078Y6281691D01*
X44473288Y6293744D01*
X44486019Y6305119D01*
X44490778Y6311013D01*
X44496191Y6316353D01*
X44506275Y6330194D01*
X44517025Y6343497D01*
X44520781Y6350094D01*
X44525250Y6356228D01*
X44532966Y6371503D01*
X44541431Y6386378D01*
X44544075Y6393497D01*
X44547494Y6400269D01*
X44552638Y6416569D01*
X44558600Y6432634D01*
X44560059Y6440097D01*
X44562341Y6447322D01*
X44563519Y6457759D01*
X44568078Y6481056D01*
X44568819Y6504759D01*
X44570000Y6515219D01*
X44570000Y7663997D01*
X44885200Y7663997D01*
X44892778Y7664613D01*
X44900353Y7664375D01*
X44917313Y7666603D01*
X44934378Y7667991D01*
X44941741Y7669816D01*
X44949269Y7670806D01*
X44965669Y7675750D01*
X44982266Y7679866D01*
X44989231Y7682853D01*
X44996509Y7685047D01*
X45011881Y7692566D01*
X45027613Y7699313D01*
X45034016Y7703391D01*
X45040831Y7706725D01*
X45054806Y7716638D01*
X45069225Y7725822D01*
X45074872Y7730866D01*
X45081078Y7735269D01*
X45093288Y7747322D01*
X45106019Y7758697D01*
X45110778Y7764591D01*
X45116191Y7769931D01*
X45126275Y7783772D01*
X45137025Y7797075D01*
X45140781Y7803672D01*
X45145250Y7809806D01*
X45152966Y7825081D01*
X45161431Y7839956D01*
X45164075Y7847075D01*
X45167494Y7853847D01*
X45172638Y7870147D01*
X45178600Y7886213D01*
X45180059Y7893675D01*
X45182341Y7900900D01*
X45183519Y7911338D01*
X45188078Y7934634D01*
X45188819Y7958338D01*
X45190000Y7968797D01*
X45190000Y14891200D01*
X45189384Y14898778D01*
X45189622Y14906353D01*
X45187394Y14923313D01*
X45186006Y14940378D01*
X45184181Y14947741D01*
X45183191Y14955269D01*
X45178247Y14971669D01*
X45174131Y14988266D01*
X45171144Y14995231D01*
X45168950Y15002509D01*
X45161425Y15017894D01*
X45154684Y15033613D01*
X45150606Y15040016D01*
X45147272Y15046831D01*
X45137359Y15060806D01*
X45128175Y15075225D01*
X45123131Y15080872D01*
X45118728Y15087078D01*
X45106675Y15099288D01*
X45095300Y15112019D01*
X45089406Y15116778D01*
X45084066Y15122191D01*
X45070225Y15132275D01*
X45056922Y15143025D01*
X45050325Y15146781D01*
X45044191Y15151250D01*
X45028916Y15158966D01*
X45014041Y15167431D01*
X45006922Y15170075D01*
X45000150Y15173494D01*
X44983850Y15178638D01*
X44967784Y15184600D01*
X44960322Y15186059D01*
X44953097Y15188341D01*
X44942659Y15189519D01*
X44919363Y15194078D01*
X44895659Y15194819D01*
X44885200Y15196000D01*
X44570000Y15196000D01*
X44570000Y16344778D01*
X44569384Y16352356D01*
X44569622Y16359931D01*
X44567394Y16376891D01*
X44566006Y16393956D01*
X44564181Y16401319D01*
X44563191Y16408847D01*
X44558247Y16425247D01*
X44554131Y16441844D01*
X44551144Y16448809D01*
X44548950Y16456088D01*
X44541425Y16471472D01*
X44534684Y16487191D01*
X44530606Y16493594D01*
X44527272Y16500409D01*
X44517363Y16514381D01*
X44508175Y16528803D01*
X44503131Y16534450D01*
X44499022Y16540241D01*
X44506275Y16550194D01*
X44517025Y16563497D01*
X44520781Y16570094D01*
X44525250Y16576228D01*
X44532966Y16591503D01*
X44541431Y16606378D01*
X44544075Y16613497D01*
X44547494Y16620269D01*
X44552638Y16636569D01*
X44558600Y16652634D01*
X44560059Y16660097D01*
X44562341Y16667322D01*
X44563519Y16677759D01*
X44568078Y16701056D01*
X44568819Y16724759D01*
X44570000Y16735219D01*
X44570000Y17883997D01*
X44885200Y17883997D01*
X44892778Y17884613D01*
X44900353Y17884375D01*
X44917313Y17886603D01*
X44934378Y17887991D01*
X44941741Y17889816D01*
X44949269Y17890806D01*
X44965669Y17895750D01*
X44982266Y17899866D01*
X44989231Y17902853D01*
X44996509Y17905047D01*
X45011881Y17912566D01*
X45027613Y17919313D01*
X45034016Y17923391D01*
X45040831Y17926725D01*
X45054806Y17936638D01*
X45069225Y17945822D01*
X45074872Y17950866D01*
X45081078Y17955269D01*
X45093288Y17967322D01*
X45106019Y17978697D01*
X45110778Y17984591D01*
X45116191Y17989931D01*
X45126275Y18003772D01*
X45137025Y18017075D01*
X45140781Y18023672D01*
X45145250Y18029806D01*
X45152966Y18045081D01*
X45161431Y18059956D01*
X45164075Y18067075D01*
X45167494Y18073847D01*
X45172638Y18090147D01*
X45178600Y18106213D01*
X45180059Y18113675D01*
X45182341Y18120900D01*
X45183519Y18131338D01*
X45188078Y18154634D01*
X45188819Y18178338D01*
X45190000Y18188797D01*
X45190000Y23625200D01*
X45189384Y23632778D01*
X45189622Y23640353D01*
X45187394Y23657313D01*
X45186006Y23674378D01*
X45184181Y23681741D01*
X45183191Y23689269D01*
X45178247Y23705669D01*
X45174131Y23722266D01*
X45171144Y23729231D01*
X45168950Y23736509D01*
X45161425Y23751894D01*
X45154684Y23767613D01*
X45150606Y23774016D01*
X45147272Y23780831D01*
X45137359Y23794806D01*
X45128175Y23809225D01*
X45123131Y23814872D01*
X45118728Y23821078D01*
X45106675Y23833288D01*
X45095300Y23846019D01*
X45089406Y23850778D01*
X45084066Y23856191D01*
X45070225Y23866275D01*
X45056922Y23877025D01*
X45050325Y23880781D01*
X45044191Y23885250D01*
X45028916Y23892966D01*
X45014041Y23901431D01*
X45006922Y23904075D01*
X45000150Y23907494D01*
X44983850Y23912638D01*
X44967784Y23918600D01*
X44960322Y23920059D01*
X44953097Y23922341D01*
X44942659Y23923519D01*
X44919363Y23928078D01*
X44895659Y23928819D01*
X44885200Y23930000D01*
X504797Y23930000D01*
X497219Y23929384D01*
X489644Y23929622D01*
X472684Y23927394D01*
X455619Y23926006D01*
X448256Y23924181D01*
X440728Y23923191D01*
X424328Y23918247D01*
X407731Y23914131D01*
X400766Y23911144D01*
X393488Y23908950D01*
X378103Y23901425D01*
X362384Y23894684D01*
X355981Y23890606D01*
X349166Y23887272D01*
X335191Y23877359D01*
X320772Y23868175D01*
X315125Y23863131D01*
X308919Y23858728D01*
X296709Y23846675D01*
X283978Y23835300D01*
X279219Y23829406D01*
X273806Y23824066D01*
X263722Y23810225D01*
X252972Y23796922D01*
X249216Y23790325D01*
X244747Y23784191D01*
X237031Y23768916D01*
X228566Y23754041D01*
X225922Y23746922D01*
X222503Y23740150D01*
X217359Y23723850D01*
X211397Y23707784D01*
X209938Y23700322D01*
X207656Y23693097D01*
X206478Y23682659D01*
X201919Y23659363D01*
X201178Y23635659D01*
X199997Y23625200D01*
X199997Y524797D01*
X200613Y517219D01*
X200375Y509644D01*
X202603Y492684D01*
X203991Y475619D01*
X205816Y468256D01*
X206806Y460728D01*
X211750Y444328D01*
X215866Y427731D01*
X218853Y420766D01*
X221047Y413488D01*
X228572Y398103D01*
X235313Y382384D01*
X239391Y375981D01*
X242725Y369166D01*
X252638Y355191D01*
X261822Y340772D01*
X266866Y335125D01*
X271269Y328919D01*
X283322Y316709D01*
X294697Y303978D01*
X300591Y299219D01*
X305931Y293806D01*
X319772Y283722D01*
X333075Y272972D01*
X339672Y269216D01*
X345806Y264747D01*
X361081Y257031D01*
X375956Y248566D01*
X383075Y245922D01*
X389847Y242503D01*
X406147Y237359D01*
X422213Y231397D01*
X429675Y229938D01*
X436900Y227656D01*
X447338Y226478D01*
X470634Y221919D01*
X494338Y221178D01*
X504797Y219997D01*
X39059547Y219997D01*
X39063331Y220303D01*
G37*
%LPC*%
G36*
X11070391Y2518000D02*
X11070391Y2518000D01*
X10996000Y2592391D01*
X10996000Y4097606D01*
X11070938Y4172544D01*
X11071778Y4172613D01*
X11079353Y4172375D01*
X11096313Y4174603D01*
X11113378Y4175991D01*
X11120741Y4177816D01*
X11128269Y4178806D01*
X11144669Y4183750D01*
X11161266Y4187866D01*
X11168231Y4190853D01*
X11175509Y4193047D01*
X11190881Y4200566D01*
X11206613Y4207313D01*
X11213016Y4211391D01*
X11219831Y4214725D01*
X11233806Y4224638D01*
X11248225Y4233822D01*
X11253872Y4238866D01*
X11260078Y4243269D01*
X11272288Y4255322D01*
X11285019Y4266697D01*
X11289778Y4272591D01*
X11295191Y4277931D01*
X11305263Y4291753D01*
X11316025Y4305075D01*
X11319781Y4311672D01*
X11324250Y4317806D01*
X11331966Y4333081D01*
X11340431Y4347956D01*
X11343075Y4355075D01*
X11346494Y4361847D01*
X11351638Y4378147D01*
X11357600Y4394213D01*
X11359056Y4401656D01*
X11361341Y4408900D01*
X11362519Y4419338D01*
X11367078Y4442634D01*
X11367819Y4466338D01*
X11369000Y4476797D01*
X11369000Y4696206D01*
X11443466Y4770672D01*
X11445931Y4773572D01*
X11448759Y4776100D01*
X11461891Y4792353D01*
X11475416Y4808269D01*
X11477372Y4811516D01*
X11479766Y4814478D01*
X11490116Y4832666D01*
X11500881Y4850528D01*
X11502291Y4854053D01*
X11504172Y4857359D01*
X11511459Y4876991D01*
X11519194Y4896344D01*
X11520013Y4900041D01*
X11521341Y4903616D01*
X11525363Y4924163D01*
X11529875Y4944513D01*
X11530088Y4948306D01*
X11530819Y4952038D01*
X11531472Y4972881D01*
X11532647Y4993775D01*
X11532244Y4997566D01*
X11532363Y5001353D01*
X11529650Y5021978D01*
X11527431Y5042838D01*
X11526428Y5046494D01*
X11525931Y5050269D01*
X11519881Y5070334D01*
X11514369Y5090419D01*
X11512791Y5093859D01*
X11511691Y5097509D01*
X11502503Y5116291D01*
X11493803Y5135266D01*
X11491678Y5138425D01*
X11490013Y5141831D01*
X11477947Y5158844D01*
X11466269Y5176209D01*
X11463666Y5178981D01*
X11461469Y5182078D01*
X11446759Y5196978D01*
X11432488Y5212172D01*
X11429488Y5214475D01*
X11426806Y5217191D01*
X11409850Y5229547D01*
X11393350Y5242213D01*
X11390016Y5244003D01*
X11386931Y5246250D01*
X11368219Y5255700D01*
X11349875Y5265547D01*
X11346291Y5266778D01*
X11342891Y5268494D01*
X11322928Y5274794D01*
X11303206Y5281559D01*
X11299466Y5282197D01*
X11295838Y5283341D01*
X11286631Y5284378D01*
X11254566Y5289834D01*
X11237284Y5289947D01*
X11227941Y5291000D01*
X8316463Y5291000D01*
X8305128Y5290078D01*
X8293747Y5290153D01*
X8280559Y5288084D01*
X8267284Y5287006D01*
X8256256Y5284272D01*
X8245003Y5282506D01*
X8232322Y5278338D01*
X8219397Y5275131D01*
X8208950Y5270650D01*
X8198131Y5267094D01*
X8186294Y5260934D01*
X8174050Y5255684D01*
X8164463Y5249578D01*
X8154363Y5244322D01*
X8147003Y5238453D01*
X8132438Y5229175D01*
X8108166Y5207488D01*
X8100938Y5201725D01*
X6836213Y3937000D01*
X5823050Y3937000D01*
X5801375Y3935241D01*
X5779553Y3933881D01*
X5776738Y3933238D01*
X5773872Y3933006D01*
X5752709Y3927759D01*
X5731450Y3922909D01*
X5728788Y3921825D01*
X5725984Y3921131D01*
X5705934Y3912531D01*
X5685744Y3904322D01*
X5683284Y3902819D01*
X5680638Y3901684D01*
X5662297Y3890000D01*
X5643638Y3878603D01*
X5641444Y3876716D01*
X5639025Y3875175D01*
X5622806Y3860684D01*
X5606234Y3846428D01*
X5604381Y3844222D01*
X5602231Y3842300D01*
X5588478Y3825275D01*
X5574509Y3808638D01*
X5573372Y3806578D01*
X5571225Y3803922D01*
X5546819Y3761041D01*
X5544006Y3753466D01*
X5541450Y3748841D01*
X5480250Y3601088D01*
X5187303Y3308141D01*
X4804550Y3149600D01*
X2561447Y3149600D01*
X2178694Y3308141D01*
X1885741Y3601094D01*
X1727200Y3983847D01*
X1727200Y4398150D01*
X1885741Y4780903D01*
X2178688Y5073850D01*
X2433509Y5179400D01*
X2436903Y5181141D01*
X2440478Y5182391D01*
X2458788Y5192359D01*
X2477416Y5201909D01*
X2480475Y5204166D01*
X2483813Y5205984D01*
X2500328Y5218822D01*
X2517116Y5231209D01*
X2519763Y5233925D01*
X2522769Y5236259D01*
X2536978Y5251572D01*
X2551569Y5266528D01*
X2553750Y5269644D01*
X2556331Y5272425D01*
X2567909Y5289863D01*
X2579869Y5306944D01*
X2581509Y5310350D01*
X2583622Y5313531D01*
X2592231Y5332606D01*
X2601281Y5351394D01*
X2602359Y5355044D01*
X2603919Y5358503D01*
X2609322Y5378659D01*
X2615238Y5398719D01*
X2615709Y5402494D01*
X2616694Y5406159D01*
X2618775Y5426931D01*
X2621378Y5447675D01*
X2621238Y5451472D01*
X2621616Y5455253D01*
X2620316Y5476131D01*
X2619538Y5496981D01*
X2618788Y5500697D01*
X2618550Y5504497D01*
X2613894Y5524906D01*
X2609766Y5545344D01*
X2608425Y5548891D01*
X2607578Y5552603D01*
X2599709Y5571950D01*
X2592322Y5591497D01*
X2590419Y5594791D01*
X2588991Y5598306D01*
X2578091Y5616153D01*
X2567656Y5634228D01*
X2565259Y5637159D01*
X2563272Y5640413D01*
X2549631Y5656272D01*
X2536422Y5672422D01*
X2533572Y5674938D01*
X2531094Y5677819D01*
X2515103Y5691244D01*
X2499434Y5705075D01*
X2496216Y5707100D01*
X2493306Y5709541D01*
X2485213Y5714016D01*
X2457663Y5731334D01*
X2441738Y5738053D01*
X2433509Y5742600D01*
X2178688Y5848147D01*
X1885741Y6141094D01*
X1727200Y6523847D01*
X1727200Y6938150D01*
X1885741Y7320903D01*
X2178688Y7613850D01*
X2433509Y7719400D01*
X2436903Y7721141D01*
X2440478Y7722391D01*
X2458788Y7732359D01*
X2477416Y7741909D01*
X2480475Y7744166D01*
X2483813Y7745984D01*
X2500328Y7758822D01*
X2517116Y7771209D01*
X2519763Y7773925D01*
X2522769Y7776259D01*
X2536978Y7791572D01*
X2551569Y7806528D01*
X2553750Y7809644D01*
X2556331Y7812425D01*
X2567909Y7829863D01*
X2579869Y7846944D01*
X2581509Y7850350D01*
X2583622Y7853531D01*
X2592197Y7872534D01*
X2601281Y7891394D01*
X2602359Y7895044D01*
X2603919Y7898503D01*
X2609322Y7918659D01*
X2615238Y7938719D01*
X2615709Y7942494D01*
X2616694Y7946159D01*
X2618775Y7966931D01*
X2621378Y7987675D01*
X2621238Y7991472D01*
X2621616Y7995253D01*
X2620316Y8016131D01*
X2619538Y8036981D01*
X2618788Y8040697D01*
X2618550Y8044497D01*
X2613894Y8064906D01*
X2609766Y8085344D01*
X2608425Y8088891D01*
X2607578Y8092603D01*
X2599709Y8111950D01*
X2592322Y8131497D01*
X2590419Y8134791D01*
X2588991Y8138306D01*
X2578091Y8156153D01*
X2567656Y8174228D01*
X2565259Y8177159D01*
X2563272Y8180413D01*
X2549631Y8196272D01*
X2536422Y8212422D01*
X2533572Y8214938D01*
X2531094Y8217819D01*
X2515100Y8231247D01*
X2499434Y8245075D01*
X2496216Y8247100D01*
X2493306Y8249541D01*
X2485213Y8254016D01*
X2457663Y8271334D01*
X2441738Y8278053D01*
X2433509Y8282600D01*
X2178688Y8388147D01*
X1885741Y8681094D01*
X1727200Y9063847D01*
X1727200Y9478150D01*
X1885741Y9860903D01*
X2178688Y10153850D01*
X2433509Y10259400D01*
X2436903Y10261141D01*
X2440478Y10262391D01*
X2458788Y10272359D01*
X2477416Y10281909D01*
X2480475Y10284166D01*
X2483813Y10285984D01*
X2500328Y10298822D01*
X2517116Y10311209D01*
X2519763Y10313925D01*
X2522769Y10316259D01*
X2536978Y10331572D01*
X2551569Y10346528D01*
X2553750Y10349644D01*
X2556331Y10352425D01*
X2567909Y10369863D01*
X2579869Y10386944D01*
X2581509Y10390350D01*
X2583622Y10393531D01*
X2592231Y10412606D01*
X2601281Y10431394D01*
X2602359Y10435044D01*
X2603919Y10438503D01*
X2609322Y10458659D01*
X2615238Y10478719D01*
X2615709Y10482494D01*
X2616694Y10486159D01*
X2618775Y10506931D01*
X2621378Y10527675D01*
X2621238Y10531472D01*
X2621616Y10535253D01*
X2620316Y10556131D01*
X2619538Y10576981D01*
X2618788Y10580697D01*
X2618550Y10584497D01*
X2613894Y10604906D01*
X2609766Y10625344D01*
X2608425Y10628891D01*
X2607578Y10632603D01*
X2599709Y10651950D01*
X2592322Y10671497D01*
X2590419Y10674791D01*
X2588991Y10678306D01*
X2578091Y10696153D01*
X2567656Y10714228D01*
X2565259Y10717159D01*
X2563272Y10720413D01*
X2549631Y10736272D01*
X2536422Y10752422D01*
X2533572Y10754938D01*
X2531094Y10757819D01*
X2515100Y10771247D01*
X2499434Y10785075D01*
X2496216Y10787100D01*
X2493306Y10789541D01*
X2485213Y10794016D01*
X2457663Y10811334D01*
X2441738Y10818053D01*
X2433509Y10822600D01*
X2178688Y10928147D01*
X1885741Y11221094D01*
X1727200Y11603847D01*
X1727200Y12018150D01*
X1885741Y12400903D01*
X2178688Y12693850D01*
X2267616Y12730684D01*
X2282328Y12738228D01*
X2297394Y12744956D01*
X2304228Y12749453D01*
X2311522Y12753194D01*
X2324819Y12763006D01*
X2338606Y12772081D01*
X2344622Y12777619D01*
X2351222Y12782491D01*
X2362769Y12794331D01*
X2374903Y12805503D01*
X2379956Y12811953D01*
X2385672Y12817813D01*
X2395125Y12831309D01*
X2405334Y12844341D01*
X2409288Y12851538D01*
X2413975Y12858228D01*
X2421141Y12873103D01*
X2429097Y12887581D01*
X2431828Y12895288D01*
X2435388Y12902678D01*
X2440059Y12918522D01*
X2445575Y12934088D01*
X2447031Y12942159D01*
X2449344Y12950003D01*
X2451397Y12966372D01*
X2454331Y12982644D01*
X2454466Y12990834D01*
X2455484Y12998959D01*
X2454869Y13015475D01*
X2455138Y13031978D01*
X2453950Y13040075D01*
X2453644Y13048266D01*
X2450372Y13064459D01*
X2447975Y13080794D01*
X2445494Y13088600D01*
X2443872Y13096628D01*
X2438034Y13112069D01*
X2433031Y13127816D01*
X2429322Y13135119D01*
X2426428Y13142778D01*
X2418175Y13157078D01*
X2410694Y13171813D01*
X2405853Y13178428D01*
X2401763Y13185513D01*
X2391316Y13198284D01*
X2381553Y13211625D01*
X2375713Y13217369D01*
X2370528Y13223706D01*
X2358144Y13234641D01*
X2346369Y13246216D01*
X2341059Y13249722D01*
X2333541Y13256359D01*
X2291769Y13282619D01*
X2290300Y13283238D01*
X2289350Y13283866D01*
X2156219Y13351700D01*
X2007428Y13459803D01*
X1877403Y13589828D01*
X1769294Y13738625D01*
X1685797Y13902494D01*
X1639109Y14046181D01*
X3682966Y14046181D01*
X3683003Y14046184D01*
X3683031Y14046181D01*
X5726888Y14046181D01*
X5680200Y13902494D01*
X5596703Y13738625D01*
X5488594Y13589828D01*
X5358569Y13459803D01*
X5209772Y13351694D01*
X5076647Y13283866D01*
X5062578Y13275197D01*
X5048075Y13267300D01*
X5041609Y13262275D01*
X5034641Y13257981D01*
X5022163Y13247159D01*
X5009119Y13237025D01*
X5003550Y13231025D01*
X4997363Y13225659D01*
X4986788Y13212959D01*
X4975556Y13200859D01*
X4971031Y13194044D01*
X4965788Y13187747D01*
X4957403Y13173516D01*
X4948266Y13159750D01*
X4944894Y13152278D01*
X4940744Y13145234D01*
X4934769Y13129847D01*
X4927969Y13114781D01*
X4925850Y13106878D01*
X4922884Y13099241D01*
X4919466Y13083059D01*
X4915194Y13067125D01*
X4914378Y13058981D01*
X4912684Y13050969D01*
X4911922Y13034484D01*
X4910272Y13018031D01*
X4910781Y13009850D01*
X4910403Y13001681D01*
X4912309Y12985300D01*
X4913338Y12968784D01*
X4915163Y12960784D01*
X4916106Y12952672D01*
X4920628Y12936816D01*
X4924309Y12920681D01*
X4927397Y12913088D01*
X4929641Y12905225D01*
X4936663Y12890306D01*
X4942897Y12874978D01*
X4947175Y12867975D01*
X4950653Y12860584D01*
X4959994Y12846984D01*
X4968616Y12832872D01*
X4973950Y12826669D01*
X4978591Y12819916D01*
X4990034Y12807975D01*
X5000794Y12795466D01*
X5007063Y12790203D01*
X5012728Y12784291D01*
X5025928Y12774366D01*
X5038581Y12763744D01*
X5044150Y12760666D01*
X5052163Y12754641D01*
X5095866Y12731738D01*
X5097394Y12731231D01*
X5098381Y12730684D01*
X5187309Y12693850D01*
X5480250Y12400909D01*
X5541450Y12253156D01*
X5551406Y12233738D01*
X5560978Y12214166D01*
X5562641Y12211819D01*
X5563959Y12209250D01*
X5576925Y12191678D01*
X5589522Y12173919D01*
X5591544Y12171872D01*
X5593256Y12169550D01*
X5608813Y12154378D01*
X5624184Y12138806D01*
X5626534Y12137094D01*
X5628578Y12135100D01*
X5646331Y12122669D01*
X5664059Y12109747D01*
X5666638Y12108444D01*
X5668991Y12106797D01*
X5688575Y12097366D01*
X5708100Y12087503D01*
X5710856Y12086634D01*
X5713444Y12085388D01*
X5734328Y12079228D01*
X5755153Y12072656D01*
X5757503Y12072391D01*
X5760769Y12071428D01*
X5809725Y12065288D01*
X5817800Y12065588D01*
X5823050Y12064997D01*
X6118534Y12064997D01*
X6129869Y12065919D01*
X6141250Y12065844D01*
X6154438Y12067913D01*
X6167713Y12068991D01*
X6178741Y12071725D01*
X6189994Y12073491D01*
X6202675Y12077659D01*
X6215600Y12080866D01*
X6226047Y12085347D01*
X6236866Y12088903D01*
X6248703Y12095063D01*
X6260947Y12100313D01*
X6270534Y12106419D01*
X6280634Y12111675D01*
X6287994Y12117544D01*
X6302559Y12126822D01*
X6326831Y12148509D01*
X6334059Y12154272D01*
X6768725Y12588938D01*
X6776069Y12597578D01*
X6784191Y12605597D01*
X6792069Y12616406D01*
X6800675Y12626534D01*
X6806531Y12636253D01*
X6813250Y12645472D01*
X6819275Y12657400D01*
X6826141Y12668794D01*
X6830359Y12679347D01*
X6835494Y12689513D01*
X6839503Y12702222D01*
X6844456Y12714609D01*
X6846925Y12725738D01*
X6850341Y12736566D01*
X6851394Y12745888D01*
X6855138Y12762778D01*
X6856963Y12795272D01*
X6858000Y12804463D01*
X6858000Y13874425D01*
X7096059Y14112484D01*
X8366513Y15382934D01*
X8366531Y15382956D01*
X8604572Y15620997D01*
X17377213Y15620997D01*
X19303997Y13694213D01*
X19303997Y11429797D01*
X19304613Y11422219D01*
X19304375Y11414644D01*
X19306606Y11397675D01*
X19307991Y11380619D01*
X19309816Y11373256D01*
X19310806Y11365728D01*
X19315750Y11349328D01*
X19319866Y11332731D01*
X19322853Y11325766D01*
X19325047Y11318488D01*
X19332572Y11303103D01*
X19339313Y11287384D01*
X19343391Y11280981D01*
X19346725Y11274166D01*
X19356638Y11260191D01*
X19365822Y11245772D01*
X19370866Y11240125D01*
X19375269Y11233919D01*
X19387322Y11221709D01*
X19398697Y11208978D01*
X19404591Y11204219D01*
X19409931Y11198806D01*
X19423772Y11188722D01*
X19437075Y11177972D01*
X19443672Y11174216D01*
X19449806Y11169747D01*
X19465081Y11162031D01*
X19479956Y11153566D01*
X19487075Y11150922D01*
X19493847Y11147503D01*
X19510147Y11142359D01*
X19526213Y11136397D01*
X19533675Y11134938D01*
X19540900Y11132656D01*
X19551338Y11131478D01*
X19574634Y11126919D01*
X19598338Y11126178D01*
X19608797Y11124997D01*
X19852606Y11124997D01*
X19926997Y11050606D01*
X19926997Y9923944D01*
X19928456Y9905988D01*
X19929128Y9887959D01*
X19930450Y9881416D01*
X19930991Y9874766D01*
X19935331Y9857263D01*
X19938900Y9839600D01*
X19941256Y9833366D01*
X19942866Y9826878D01*
X19949984Y9810281D01*
X19956347Y9793447D01*
X19959678Y9787675D01*
X19962313Y9781531D01*
X19971994Y9766334D01*
X19981009Y9750713D01*
X19985247Y9745531D01*
X19988822Y9739919D01*
X20000794Y9726519D01*
X20012244Y9712519D01*
X20017259Y9708091D01*
X20021697Y9703125D01*
X20035719Y9691797D01*
X20049234Y9679866D01*
X20054875Y9676322D01*
X20060075Y9672119D01*
X20075778Y9663181D01*
X20091006Y9653609D01*
X20097144Y9651022D01*
X20102956Y9647713D01*
X20119881Y9641431D01*
X20136469Y9634434D01*
X20142947Y9632869D01*
X20149213Y9630544D01*
X20166906Y9627081D01*
X20184428Y9622847D01*
X20191094Y9622347D01*
X20197634Y9621066D01*
X20215631Y9620503D01*
X20233628Y9619150D01*
X20240284Y9619731D01*
X20246950Y9619522D01*
X20264806Y9621869D01*
X20282781Y9623438D01*
X20287863Y9624900D01*
X20295866Y9625953D01*
X20343106Y9640194D01*
X20346175Y9641694D01*
X20348441Y9642347D01*
X20488584Y9700397D01*
X20662200Y9700397D01*
X20669778Y9701013D01*
X20677353Y9700775D01*
X20694313Y9703003D01*
X20711378Y9704391D01*
X20718741Y9706216D01*
X20726269Y9707206D01*
X20742669Y9712150D01*
X20759266Y9716266D01*
X20766231Y9719253D01*
X20773509Y9721447D01*
X20788881Y9728966D01*
X20804613Y9735713D01*
X20811016Y9739791D01*
X20817831Y9743125D01*
X20831806Y9753038D01*
X20846225Y9762222D01*
X20851872Y9767266D01*
X20858078Y9771669D01*
X20870288Y9783722D01*
X20883019Y9795097D01*
X20887778Y9800991D01*
X20893191Y9806331D01*
X20903275Y9820172D01*
X20914025Y9833475D01*
X20917781Y9840072D01*
X20922250Y9846206D01*
X20929966Y9861481D01*
X20938431Y9876356D01*
X20941075Y9883475D01*
X20944494Y9890247D01*
X20949638Y9906547D01*
X20955600Y9922613D01*
X20957059Y9930075D01*
X20959341Y9937300D01*
X20960519Y9947738D01*
X20965078Y9971034D01*
X20965819Y9994738D01*
X20967000Y10005197D01*
X20967000Y11050606D01*
X21041391Y11124997D01*
X21139200Y11124997D01*
X21146778Y11125613D01*
X21154353Y11125375D01*
X21171313Y11127603D01*
X21188378Y11128991D01*
X21195741Y11130816D01*
X21203269Y11131806D01*
X21219669Y11136750D01*
X21236266Y11140866D01*
X21243231Y11143853D01*
X21250509Y11146047D01*
X21265881Y11153566D01*
X21281613Y11160313D01*
X21288016Y11164391D01*
X21294831Y11167725D01*
X21308806Y11177638D01*
X21323225Y11186822D01*
X21328872Y11191866D01*
X21335078Y11196269D01*
X21347288Y11208322D01*
X21360019Y11219697D01*
X21364778Y11225591D01*
X21370191Y11230931D01*
X21380263Y11244753D01*
X21391025Y11258075D01*
X21394781Y11264672D01*
X21399250Y11270806D01*
X21406966Y11286081D01*
X21415431Y11300956D01*
X21418075Y11308075D01*
X21421494Y11314847D01*
X21426638Y11331147D01*
X21432600Y11347213D01*
X21434059Y11354675D01*
X21436341Y11361900D01*
X21437519Y11372338D01*
X21442078Y11395634D01*
X21442819Y11419338D01*
X21444000Y11429797D01*
X21444000Y12275600D01*
X21525869Y12357469D01*
X21530781Y12363250D01*
X21536319Y12368450D01*
X21546747Y12382034D01*
X21557819Y12395066D01*
X21561738Y12401569D01*
X21566359Y12407591D01*
X21574441Y12422650D01*
X21583284Y12437325D01*
X21586109Y12444391D01*
X21589691Y12451066D01*
X21595241Y12467238D01*
X21601597Y12483141D01*
X21603238Y12490544D01*
X21605706Y12497734D01*
X21608578Y12514631D01*
X21612278Y12531309D01*
X21612703Y12538884D01*
X21613978Y12546375D01*
X21614088Y12563488D01*
X21615050Y12580572D01*
X21614247Y12588119D01*
X21614297Y12595713D01*
X21611641Y12612647D01*
X21609834Y12629634D01*
X21607828Y12636938D01*
X21606650Y12644456D01*
X21601291Y12660750D01*
X21596772Y12677216D01*
X21593613Y12684106D01*
X21591238Y12691328D01*
X21583334Y12706519D01*
X21576206Y12722063D01*
X21571969Y12728363D01*
X21568466Y12735097D01*
X21561919Y12743306D01*
X21548672Y12763006D01*
X21532409Y12780319D01*
X21525869Y12788522D01*
X21444000Y12870391D01*
X21444000Y13332963D01*
X21443534Y13338713D01*
X21443622Y13341550D01*
X21443088Y13345609D01*
X21443153Y13355678D01*
X21441084Y13368866D01*
X21440006Y13382141D01*
X21437272Y13393169D01*
X21435506Y13404422D01*
X21431338Y13417103D01*
X21428131Y13430028D01*
X21423650Y13440475D01*
X21420094Y13451294D01*
X21413934Y13463131D01*
X21408684Y13475375D01*
X21402578Y13484963D01*
X21397322Y13495063D01*
X21391453Y13502422D01*
X21382175Y13516988D01*
X21360488Y13541259D01*
X21354725Y13548488D01*
X18482488Y16420725D01*
X18473847Y16428069D01*
X18465828Y16436191D01*
X18455019Y16444069D01*
X18444891Y16452675D01*
X18435172Y16458531D01*
X18425953Y16465250D01*
X18414025Y16471275D01*
X18402631Y16478141D01*
X18392078Y16482359D01*
X18381913Y16487494D01*
X18369203Y16491503D01*
X18356816Y16496456D01*
X18345688Y16498925D01*
X18334859Y16502341D01*
X18325538Y16503394D01*
X18308647Y16507138D01*
X18276144Y16508966D01*
X18266963Y16510000D01*
X5770447Y16510000D01*
X5748756Y16508238D01*
X5726953Y16506881D01*
X5724138Y16506241D01*
X5721269Y16506006D01*
X5700159Y16500772D01*
X5678850Y16495913D01*
X5676172Y16494822D01*
X5673381Y16494131D01*
X5653416Y16485569D01*
X5633144Y16477325D01*
X5630675Y16475816D01*
X5628034Y16474684D01*
X5609738Y16463028D01*
X5591038Y16451606D01*
X5588838Y16449716D01*
X5586422Y16448175D01*
X5570216Y16433694D01*
X5553634Y16419431D01*
X5551781Y16417225D01*
X5549628Y16415300D01*
X5535863Y16398259D01*
X5521909Y16381641D01*
X5520772Y16379584D01*
X5518622Y16376922D01*
X5494216Y16334041D01*
X5491403Y16326459D01*
X5488850Y16321844D01*
X5480253Y16301091D01*
X5187309Y16008147D01*
X5098381Y15971313D01*
X5083669Y15963769D01*
X5068603Y15957041D01*
X5061769Y15952544D01*
X5054475Y15948803D01*
X5041172Y15938988D01*
X5027391Y15929916D01*
X5021375Y15924378D01*
X5014775Y15919506D01*
X5003228Y15907666D01*
X4991094Y15896494D01*
X4986041Y15890044D01*
X4980325Y15884184D01*
X4970872Y15870688D01*
X4960663Y15857656D01*
X4956709Y15850459D01*
X4952022Y15843769D01*
X4944856Y15828894D01*
X4936900Y15814416D01*
X4934169Y15806709D01*
X4930609Y15799319D01*
X4925938Y15783475D01*
X4920422Y15767909D01*
X4918966Y15759838D01*
X4916653Y15751994D01*
X4914600Y15735625D01*
X4911666Y15719353D01*
X4911531Y15711163D01*
X4910513Y15703038D01*
X4911128Y15686522D01*
X4910859Y15670019D01*
X4912047Y15661922D01*
X4912353Y15653731D01*
X4915625Y15637538D01*
X4918022Y15621203D01*
X4920503Y15613397D01*
X4922125Y15605369D01*
X4927963Y15589928D01*
X4932966Y15574181D01*
X4936675Y15566878D01*
X4939569Y15559219D01*
X4947822Y15544919D01*
X4955303Y15530184D01*
X4960144Y15523569D01*
X4964234Y15516484D01*
X4974681Y15503713D01*
X4984444Y15490372D01*
X4990284Y15484628D01*
X4995469Y15478291D01*
X5007853Y15467356D01*
X5019628Y15455781D01*
X5024938Y15452275D01*
X5032456Y15445638D01*
X5074228Y15419378D01*
X5075697Y15418759D01*
X5076647Y15418131D01*
X5209778Y15350297D01*
X5358569Y15242194D01*
X5488594Y15112169D01*
X5596703Y14963372D01*
X5680200Y14799503D01*
X5726888Y14655813D01*
X3683031Y14655813D01*
X3682994Y14655809D01*
X3682966Y14655813D01*
X1639109Y14655813D01*
X1685797Y14799503D01*
X1769294Y14963372D01*
X1877403Y15112169D01*
X2007428Y15242194D01*
X2156219Y15350297D01*
X2289350Y15418131D01*
X2303450Y15426822D01*
X2317916Y15434697D01*
X2324369Y15439713D01*
X2331353Y15444016D01*
X2343831Y15454834D01*
X2356875Y15464972D01*
X2362456Y15470988D01*
X2368631Y15476341D01*
X2379181Y15489009D01*
X2390438Y15501138D01*
X2394972Y15507969D01*
X2400206Y15514253D01*
X2408584Y15528475D01*
X2417725Y15542244D01*
X2421097Y15549709D01*
X2425250Y15556763D01*
X2431225Y15572150D01*
X2438025Y15587216D01*
X2440147Y15595125D01*
X2443109Y15602759D01*
X2446525Y15618925D01*
X2450800Y15634872D01*
X2451616Y15643022D01*
X2453309Y15651031D01*
X2454072Y15667509D01*
X2455722Y15683966D01*
X2455213Y15692147D01*
X2455591Y15700319D01*
X2453684Y15716706D01*
X2452656Y15733209D01*
X2450834Y15741191D01*
X2449888Y15749328D01*
X2445356Y15765209D01*
X2441684Y15781313D01*
X2438600Y15788894D01*
X2436353Y15796775D01*
X2429319Y15811719D01*
X2423097Y15827019D01*
X2418825Y15834009D01*
X2415341Y15841416D01*
X2405997Y15855016D01*
X2397378Y15869125D01*
X2392031Y15875341D01*
X2387400Y15882081D01*
X2375972Y15894009D01*
X2365203Y15906528D01*
X2358944Y15911784D01*
X2353266Y15917709D01*
X2340038Y15927656D01*
X2327413Y15938253D01*
X2321850Y15941328D01*
X2313828Y15947359D01*
X2270125Y15970259D01*
X2268613Y15970763D01*
X2267616Y15971313D01*
X2178688Y16008147D01*
X1885741Y16301094D01*
X1727200Y16683847D01*
X1727200Y17098150D01*
X1885741Y17480903D01*
X2178694Y17773856D01*
X2561447Y17932397D01*
X4804550Y17932397D01*
X5187303Y17773856D01*
X5480253Y17480906D01*
X5488850Y17460153D01*
X5498772Y17440803D01*
X5508375Y17421166D01*
X5510044Y17418813D01*
X5511359Y17416247D01*
X5524303Y17398706D01*
X5536919Y17380919D01*
X5538944Y17378869D01*
X5540656Y17376547D01*
X5556209Y17361378D01*
X5571581Y17345806D01*
X5573928Y17344094D01*
X5575978Y17342097D01*
X5593725Y17329669D01*
X5611456Y17316747D01*
X5614041Y17315441D01*
X5616394Y17313794D01*
X5636003Y17304350D01*
X5655497Y17294503D01*
X5658247Y17293634D01*
X5660844Y17292384D01*
X5681763Y17286216D01*
X5702550Y17279656D01*
X5704906Y17279391D01*
X5708169Y17278428D01*
X5757125Y17272288D01*
X5765200Y17272588D01*
X5770447Y17271997D01*
X12092800Y17271997D01*
X12100378Y17272613D01*
X12107953Y17272375D01*
X12124913Y17274603D01*
X12141978Y17275991D01*
X12149341Y17277816D01*
X12156869Y17278806D01*
X12173269Y17283750D01*
X12189866Y17287866D01*
X12196831Y17290853D01*
X12204109Y17293047D01*
X12219481Y17300566D01*
X12235213Y17307313D01*
X12241616Y17311391D01*
X12248431Y17314725D01*
X12262406Y17324638D01*
X12276825Y17333822D01*
X12282472Y17338866D01*
X12288678Y17343269D01*
X12300888Y17355322D01*
X12313619Y17366697D01*
X12318378Y17372591D01*
X12323791Y17377931D01*
X12333875Y17391772D01*
X12344625Y17405075D01*
X12348381Y17411672D01*
X12352850Y17417806D01*
X12360566Y17433081D01*
X12369031Y17447956D01*
X12371675Y17455075D01*
X12375094Y17461847D01*
X12380238Y17478147D01*
X12386200Y17494213D01*
X12387659Y17501675D01*
X12389941Y17508900D01*
X12391119Y17519338D01*
X12395678Y17542634D01*
X12396419Y17566338D01*
X12397600Y17576797D01*
X12397600Y17738409D01*
X12462975Y17896238D01*
X12517263Y17950525D01*
X12528916Y17964238D01*
X12541203Y17977478D01*
X12544900Y17983047D01*
X12549213Y17988122D01*
X12558513Y18003556D01*
X12568491Y18018584D01*
X12571234Y18024659D01*
X12574681Y18030381D01*
X12581372Y18047119D01*
X12588791Y18063553D01*
X12590522Y18070006D01*
X12592994Y18076194D01*
X12596891Y18093775D01*
X12601566Y18111209D01*
X12602231Y18117859D01*
X12603675Y18124366D01*
X12604688Y18142338D01*
X12606488Y18160303D01*
X12606072Y18166972D01*
X12606447Y18173625D01*
X12604544Y18191528D01*
X12603422Y18209550D01*
X12601934Y18216069D01*
X12601231Y18222691D01*
X12596459Y18240078D01*
X12592450Y18257653D01*
X12589941Y18263819D01*
X12588172Y18270269D01*
X12580638Y18286694D01*
X12573863Y18303356D01*
X12570391Y18309041D01*
X12567603Y18315119D01*
X12557538Y18330084D01*
X12548144Y18345466D01*
X12543788Y18350528D01*
X12540069Y18356059D01*
X12527734Y18369191D01*
X12515969Y18382869D01*
X12510856Y18387163D01*
X12506291Y18392022D01*
X12492013Y18402981D01*
X12478181Y18414594D01*
X12473547Y18417156D01*
X12467150Y18422066D01*
X12423678Y18445400D01*
X12420459Y18446503D01*
X12418381Y18447653D01*
X12237088Y18522747D01*
X11944147Y18815688D01*
X11838600Y19070509D01*
X11836866Y19073891D01*
X11835613Y19077475D01*
X11825619Y19095831D01*
X11816091Y19114416D01*
X11813838Y19117469D01*
X11812019Y19120809D01*
X11799181Y19137328D01*
X11786794Y19154113D01*
X11784075Y19156763D01*
X11781741Y19159769D01*
X11766425Y19173981D01*
X11751475Y19188566D01*
X11748359Y19190747D01*
X11745575Y19193331D01*
X11728197Y19204869D01*
X11711059Y19216869D01*
X11707628Y19218522D01*
X11704469Y19220619D01*
X11685397Y19229228D01*
X11666606Y19238278D01*
X11662981Y19239347D01*
X11659500Y19240919D01*
X11639281Y19246338D01*
X11619284Y19252238D01*
X11615509Y19252709D01*
X11611844Y19253694D01*
X11591072Y19255775D01*
X11570328Y19258378D01*
X11566531Y19258238D01*
X11562750Y19258616D01*
X11541866Y19257316D01*
X11521022Y19256538D01*
X11517303Y19255788D01*
X11513503Y19255550D01*
X11493150Y19250906D01*
X11472659Y19246769D01*
X11469094Y19245419D01*
X11465400Y19244578D01*
X11446097Y19236728D01*
X11426506Y19229322D01*
X11423209Y19227419D01*
X11419697Y19225991D01*
X11401878Y19215109D01*
X11383775Y19204659D01*
X11380834Y19202256D01*
X11377588Y19200272D01*
X11361772Y19186669D01*
X11345578Y19173425D01*
X11343053Y19170566D01*
X11340184Y19168097D01*
X11326759Y19152106D01*
X11312925Y19136434D01*
X11310909Y19133228D01*
X11308459Y19130309D01*
X11303966Y19122178D01*
X11286669Y19094663D01*
X11279959Y19078759D01*
X11275400Y19070509D01*
X11169850Y18815688D01*
X10876903Y18522741D01*
X10494150Y18364200D01*
X10079847Y18364200D01*
X9697094Y18522741D01*
X9404147Y18815688D01*
X9367313Y18904616D01*
X9359769Y18919328D01*
X9353041Y18934394D01*
X9348544Y18941228D01*
X9344803Y18948522D01*
X9334988Y18961825D01*
X9325916Y18975606D01*
X9320378Y18981622D01*
X9315506Y18988222D01*
X9303666Y18999769D01*
X9292494Y19011903D01*
X9286044Y19016956D01*
X9280184Y19022672D01*
X9266688Y19032125D01*
X9253656Y19042334D01*
X9246459Y19046288D01*
X9239769Y19050975D01*
X9224894Y19058141D01*
X9210416Y19066097D01*
X9202709Y19068828D01*
X9195319Y19072388D01*
X9179475Y19077059D01*
X9163909Y19082575D01*
X9155838Y19084031D01*
X9147994Y19086344D01*
X9131625Y19088397D01*
X9115353Y19091331D01*
X9107163Y19091466D01*
X9099038Y19092484D01*
X9082522Y19091869D01*
X9066019Y19092138D01*
X9057922Y19090950D01*
X9049731Y19090644D01*
X9033538Y19087372D01*
X9017203Y19084975D01*
X9009397Y19082494D01*
X9001369Y19080872D01*
X8985928Y19075034D01*
X8970181Y19070031D01*
X8962878Y19066322D01*
X8955219Y19063428D01*
X8940919Y19055175D01*
X8926184Y19047694D01*
X8919569Y19042853D01*
X8912484Y19038763D01*
X8899713Y19028316D01*
X8886372Y19018553D01*
X8880628Y19012713D01*
X8874291Y19007528D01*
X8863356Y18995144D01*
X8851781Y18983369D01*
X8848275Y18978059D01*
X8841638Y18970541D01*
X8815378Y18928769D01*
X8814759Y18927300D01*
X8814131Y18926350D01*
X8746297Y18793219D01*
X8638194Y18644428D01*
X8508169Y18514403D01*
X8359372Y18406294D01*
X8195503Y18322797D01*
X8051813Y18276109D01*
X8051813Y20319966D01*
X8051809Y20320003D01*
X8051813Y20320031D01*
X8051813Y22363888D01*
X8195503Y22317200D01*
X8359372Y22233703D01*
X8508169Y22125594D01*
X8638194Y21995569D01*
X8746297Y21846778D01*
X8814131Y21713647D01*
X8818456Y21706628D01*
X8819172Y21705166D01*
X8820591Y21703166D01*
X8822822Y21699547D01*
X8830697Y21685081D01*
X8835713Y21678628D01*
X8840016Y21671644D01*
X8850834Y21659166D01*
X8860972Y21646122D01*
X8866988Y21640541D01*
X8872341Y21634366D01*
X8885009Y21623816D01*
X8897138Y21612559D01*
X8903969Y21608025D01*
X8910253Y21602791D01*
X8924475Y21594413D01*
X8938244Y21585272D01*
X8945709Y21581900D01*
X8952763Y21577747D01*
X8968150Y21571772D01*
X8983216Y21564972D01*
X8991125Y21562850D01*
X8998759Y21559888D01*
X9014925Y21556472D01*
X9030872Y21552197D01*
X9039022Y21551381D01*
X9047031Y21549688D01*
X9063509Y21548925D01*
X9079966Y21547275D01*
X9088147Y21547784D01*
X9096319Y21547406D01*
X9112706Y21549313D01*
X9129209Y21550341D01*
X9137203Y21552163D01*
X9145328Y21553109D01*
X9161209Y21557641D01*
X9177313Y21561313D01*
X9184894Y21564397D01*
X9192775Y21566644D01*
X9207719Y21573678D01*
X9223019Y21579900D01*
X9230009Y21584172D01*
X9237416Y21587656D01*
X9251016Y21597000D01*
X9265125Y21605619D01*
X9271341Y21610966D01*
X9278081Y21615597D01*
X9290009Y21627025D01*
X9302528Y21637794D01*
X9307784Y21644053D01*
X9313709Y21649731D01*
X9323656Y21662959D01*
X9334253Y21675584D01*
X9337328Y21681147D01*
X9343359Y21689169D01*
X9366259Y21732872D01*
X9366763Y21734384D01*
X9367313Y21735381D01*
X9404147Y21824309D01*
X9697094Y22117256D01*
X10079847Y22275797D01*
X10494150Y22275797D01*
X10876903Y22117256D01*
X11169850Y21824309D01*
X11275400Y21569488D01*
X11277141Y21566094D01*
X11278391Y21562519D01*
X11288359Y21544209D01*
X11297909Y21525581D01*
X11300166Y21522522D01*
X11301984Y21519184D01*
X11314822Y21502669D01*
X11327209Y21485881D01*
X11329925Y21483234D01*
X11332259Y21480228D01*
X11347572Y21466019D01*
X11362528Y21451428D01*
X11365644Y21449247D01*
X11368425Y21446666D01*
X11385863Y21435088D01*
X11402944Y21423128D01*
X11406350Y21421488D01*
X11409531Y21419375D01*
X11428606Y21410766D01*
X11447394Y21401716D01*
X11451044Y21400638D01*
X11454503Y21399078D01*
X11474659Y21393675D01*
X11494719Y21387759D01*
X11498494Y21387288D01*
X11502159Y21386303D01*
X11522931Y21384222D01*
X11543675Y21381619D01*
X11547472Y21381759D01*
X11551253Y21381381D01*
X11572131Y21382681D01*
X11592981Y21383459D01*
X11596697Y21384209D01*
X11600497Y21384447D01*
X11620906Y21389103D01*
X11641344Y21393231D01*
X11644891Y21394572D01*
X11648603Y21395419D01*
X11667950Y21403288D01*
X11687497Y21410675D01*
X11690791Y21412578D01*
X11694306Y21414006D01*
X11712153Y21424906D01*
X11730228Y21435341D01*
X11733159Y21437738D01*
X11736413Y21439725D01*
X11752272Y21453366D01*
X11768422Y21466575D01*
X11770938Y21469425D01*
X11773819Y21471903D01*
X11787247Y21487897D01*
X11801075Y21503563D01*
X11803100Y21506781D01*
X11805541Y21509691D01*
X11810016Y21517784D01*
X11827334Y21545334D01*
X11834053Y21561259D01*
X11838600Y21569488D01*
X11944147Y21824309D01*
X12237094Y22117256D01*
X12619847Y22275797D01*
X13034150Y22275797D01*
X13416903Y22117256D01*
X13709850Y21824309D01*
X13815400Y21569488D01*
X13817141Y21566094D01*
X13818391Y21562519D01*
X13828359Y21544209D01*
X13837909Y21525581D01*
X13840166Y21522522D01*
X13841984Y21519184D01*
X13854822Y21502669D01*
X13867209Y21485881D01*
X13869925Y21483234D01*
X13872259Y21480228D01*
X13887572Y21466019D01*
X13902528Y21451428D01*
X13905644Y21449247D01*
X13908425Y21446666D01*
X13925863Y21435088D01*
X13942944Y21423128D01*
X13946350Y21421488D01*
X13949531Y21419375D01*
X13968606Y21410766D01*
X13987394Y21401716D01*
X13991044Y21400638D01*
X13994503Y21399078D01*
X14014659Y21393675D01*
X14034719Y21387759D01*
X14038494Y21387288D01*
X14042159Y21386303D01*
X14062931Y21384222D01*
X14083675Y21381619D01*
X14087472Y21381759D01*
X14091253Y21381381D01*
X14112131Y21382681D01*
X14132981Y21383459D01*
X14136697Y21384209D01*
X14140497Y21384447D01*
X14160906Y21389103D01*
X14181344Y21393231D01*
X14184891Y21394572D01*
X14188603Y21395419D01*
X14207950Y21403288D01*
X14227497Y21410675D01*
X14230791Y21412578D01*
X14234306Y21414006D01*
X14252153Y21424906D01*
X14270228Y21435341D01*
X14273159Y21437738D01*
X14276413Y21439725D01*
X14292272Y21453366D01*
X14308422Y21466575D01*
X14310938Y21469425D01*
X14313819Y21471903D01*
X14327247Y21487897D01*
X14341075Y21503563D01*
X14343100Y21506781D01*
X14345541Y21509691D01*
X14350016Y21517784D01*
X14367334Y21545334D01*
X14374053Y21561259D01*
X14378600Y21569488D01*
X14484147Y21824309D01*
X14777094Y22117256D01*
X15159847Y22275797D01*
X15574150Y22275797D01*
X15956903Y22117256D01*
X16249850Y21824309D01*
X16355400Y21569488D01*
X16357141Y21566094D01*
X16358391Y21562519D01*
X16368359Y21544209D01*
X16377909Y21525581D01*
X16380166Y21522522D01*
X16381984Y21519184D01*
X16394822Y21502669D01*
X16407209Y21485881D01*
X16409925Y21483234D01*
X16412259Y21480228D01*
X16427572Y21466019D01*
X16442528Y21451428D01*
X16445644Y21449247D01*
X16448425Y21446666D01*
X16465863Y21435088D01*
X16482944Y21423128D01*
X16486350Y21421488D01*
X16489531Y21419375D01*
X16508606Y21410766D01*
X16527394Y21401716D01*
X16531044Y21400638D01*
X16534503Y21399078D01*
X16554659Y21393675D01*
X16574719Y21387759D01*
X16578494Y21387288D01*
X16582159Y21386303D01*
X16602931Y21384222D01*
X16623675Y21381619D01*
X16627472Y21381759D01*
X16631253Y21381381D01*
X16652131Y21382681D01*
X16672981Y21383459D01*
X16676697Y21384209D01*
X16680497Y21384447D01*
X16700906Y21389103D01*
X16721344Y21393231D01*
X16724891Y21394572D01*
X16728603Y21395419D01*
X16747950Y21403288D01*
X16767497Y21410675D01*
X16770791Y21412578D01*
X16774306Y21414006D01*
X16792153Y21424906D01*
X16810228Y21435341D01*
X16813159Y21437738D01*
X16816413Y21439725D01*
X16832272Y21453366D01*
X16848422Y21466575D01*
X16850938Y21469425D01*
X16853819Y21471903D01*
X16867247Y21487897D01*
X16881075Y21503563D01*
X16883100Y21506781D01*
X16885541Y21509691D01*
X16890016Y21517784D01*
X16907334Y21545334D01*
X16914053Y21561259D01*
X16918600Y21569488D01*
X17024147Y21824309D01*
X17317094Y22117256D01*
X17699847Y22275797D01*
X18114150Y22275797D01*
X18496903Y22117256D01*
X18789850Y21824309D01*
X18895400Y21569488D01*
X18897141Y21566094D01*
X18898391Y21562519D01*
X18908359Y21544209D01*
X18917909Y21525581D01*
X18920166Y21522522D01*
X18921984Y21519184D01*
X18934822Y21502669D01*
X18947209Y21485881D01*
X18949925Y21483234D01*
X18952259Y21480228D01*
X18967572Y21466019D01*
X18982528Y21451428D01*
X18985644Y21449247D01*
X18988425Y21446666D01*
X19005863Y21435088D01*
X19022944Y21423128D01*
X19026350Y21421488D01*
X19029531Y21419375D01*
X19048606Y21410766D01*
X19067394Y21401716D01*
X19071044Y21400638D01*
X19074503Y21399078D01*
X19094659Y21393675D01*
X19114719Y21387759D01*
X19118494Y21387288D01*
X19122159Y21386303D01*
X19142931Y21384222D01*
X19163675Y21381619D01*
X19167472Y21381759D01*
X19171253Y21381381D01*
X19192131Y21382681D01*
X19212981Y21383459D01*
X19216697Y21384209D01*
X19220497Y21384447D01*
X19240906Y21389103D01*
X19261344Y21393231D01*
X19264891Y21394572D01*
X19268603Y21395419D01*
X19287950Y21403288D01*
X19307497Y21410675D01*
X19310791Y21412578D01*
X19314306Y21414006D01*
X19332153Y21424906D01*
X19350228Y21435341D01*
X19353159Y21437738D01*
X19356413Y21439725D01*
X19372272Y21453366D01*
X19388422Y21466575D01*
X19390938Y21469425D01*
X19393819Y21471903D01*
X19407247Y21487897D01*
X19421075Y21503563D01*
X19423100Y21506781D01*
X19425541Y21509691D01*
X19430016Y21517784D01*
X19447334Y21545334D01*
X19454053Y21561259D01*
X19458600Y21569488D01*
X19564147Y21824309D01*
X19857094Y22117256D01*
X20239847Y22275797D01*
X20654150Y22275797D01*
X21036903Y22117256D01*
X21329856Y21824303D01*
X21488397Y21441550D01*
X21488397Y19198447D01*
X21329856Y18815694D01*
X21036903Y18522741D01*
X20654150Y18364200D01*
X20239847Y18364200D01*
X19857094Y18522741D01*
X19564147Y18815688D01*
X19458600Y19070509D01*
X19456866Y19073891D01*
X19455613Y19077475D01*
X19445619Y19095831D01*
X19436091Y19114416D01*
X19433838Y19117469D01*
X19432019Y19120809D01*
X19419181Y19137328D01*
X19406794Y19154113D01*
X19404075Y19156763D01*
X19401741Y19159769D01*
X19386425Y19173981D01*
X19371475Y19188566D01*
X19368359Y19190747D01*
X19365575Y19193331D01*
X19348197Y19204869D01*
X19331059Y19216869D01*
X19327628Y19218522D01*
X19324469Y19220619D01*
X19305397Y19229228D01*
X19286606Y19238278D01*
X19282981Y19239347D01*
X19279500Y19240919D01*
X19259281Y19246338D01*
X19239284Y19252238D01*
X19235509Y19252709D01*
X19231844Y19253694D01*
X19211072Y19255775D01*
X19190328Y19258378D01*
X19186531Y19258238D01*
X19182750Y19258616D01*
X19161866Y19257316D01*
X19141022Y19256538D01*
X19137303Y19255788D01*
X19133503Y19255550D01*
X19113150Y19250906D01*
X19092659Y19246769D01*
X19089094Y19245419D01*
X19085400Y19244578D01*
X19066097Y19236728D01*
X19046506Y19229322D01*
X19043209Y19227419D01*
X19039697Y19225991D01*
X19021878Y19215109D01*
X19003775Y19204659D01*
X19000834Y19202256D01*
X18997588Y19200272D01*
X18981772Y19186669D01*
X18965578Y19173425D01*
X18963053Y19170566D01*
X18960184Y19168097D01*
X18946759Y19152106D01*
X18932925Y19136434D01*
X18930909Y19133228D01*
X18928459Y19130309D01*
X18923966Y19122178D01*
X18906669Y19094663D01*
X18899959Y19078759D01*
X18895400Y19070509D01*
X18789850Y18815688D01*
X18496903Y18522741D01*
X18114150Y18364200D01*
X17699850Y18364200D01*
X17623947Y18395641D01*
X17603191Y18402328D01*
X17582566Y18409406D01*
X17579722Y18409891D01*
X17576984Y18410772D01*
X17555381Y18414028D01*
X17533925Y18417678D01*
X17531059Y18417697D01*
X17528197Y18418128D01*
X17506391Y18417856D01*
X17484588Y18417997D01*
X17481728Y18417547D01*
X17478859Y18417513D01*
X17457438Y18413738D01*
X17435844Y18410350D01*
X17433106Y18409450D01*
X17430269Y18408950D01*
X17409681Y18401747D01*
X17388972Y18394938D01*
X17386416Y18393606D01*
X17383697Y18392656D01*
X17364572Y18382244D01*
X17345203Y18372166D01*
X17343347Y18370688D01*
X17340366Y18369063D01*
X17301406Y18338788D01*
X17295903Y18332859D01*
X17291778Y18329569D01*
X16754531Y17792322D01*
X16752078Y17789434D01*
X16749238Y17786897D01*
X16736053Y17770578D01*
X16722581Y17754725D01*
X16720631Y17751491D01*
X16718231Y17748519D01*
X16707850Y17730275D01*
X16697116Y17712466D01*
X16695709Y17708950D01*
X16693825Y17705638D01*
X16686547Y17686025D01*
X16678800Y17666650D01*
X16677978Y17662941D01*
X16676656Y17659381D01*
X16672653Y17638928D01*
X16668119Y17618481D01*
X16667903Y17614672D01*
X16667178Y17610959D01*
X16666528Y17590163D01*
X16665350Y17569219D01*
X16665753Y17565428D01*
X16665634Y17561644D01*
X16668359Y17540909D01*
X16670566Y17520156D01*
X16671569Y17516497D01*
X16672066Y17512728D01*
X16678103Y17492697D01*
X16683628Y17472575D01*
X16685209Y17469128D01*
X16686306Y17465488D01*
X16695500Y17446694D01*
X16704197Y17427728D01*
X16706316Y17424578D01*
X16707984Y17421166D01*
X16720091Y17404094D01*
X16731731Y17386788D01*
X16734322Y17384028D01*
X16736528Y17380919D01*
X16751231Y17366025D01*
X16765509Y17350822D01*
X16768522Y17348509D01*
X16771191Y17345806D01*
X16788103Y17333481D01*
X16804650Y17320781D01*
X16807988Y17318991D01*
X16811066Y17316747D01*
X16829788Y17307291D01*
X16848125Y17297450D01*
X16851703Y17296222D01*
X16855106Y17294503D01*
X16875041Y17288213D01*
X16894794Y17281434D01*
X16898547Y17280797D01*
X16902159Y17279656D01*
X16911338Y17278622D01*
X16943434Y17273163D01*
X16960713Y17273050D01*
X16970056Y17271997D01*
X18626813Y17271997D01*
X18766853Y17213991D01*
X18916884Y17063959D01*
X18916897Y17063944D01*
X22041572Y13939272D01*
X22050213Y13931928D01*
X22058231Y13923806D01*
X22069041Y13915928D01*
X22079169Y13907322D01*
X22088888Y13901466D01*
X22098106Y13894747D01*
X22110034Y13888722D01*
X22121428Y13881856D01*
X22131981Y13877638D01*
X22142147Y13872503D01*
X22154856Y13868494D01*
X22167244Y13863541D01*
X22178372Y13861072D01*
X22189200Y13857656D01*
X22198522Y13856603D01*
X22215413Y13852859D01*
X22247916Y13851031D01*
X22257097Y13849997D01*
X22423606Y13849997D01*
X22532631Y13740972D01*
X22533313Y13739384D01*
X22537391Y13732981D01*
X22540725Y13726166D01*
X22550638Y13712191D01*
X22559822Y13697772D01*
X22564866Y13692125D01*
X22569269Y13685919D01*
X22581322Y13673709D01*
X22592697Y13660978D01*
X22598591Y13656219D01*
X22603931Y13650806D01*
X22617772Y13640722D01*
X22631075Y13629972D01*
X22637672Y13626216D01*
X22643806Y13621747D01*
X22659081Y13614031D01*
X22673956Y13605566D01*
X22681075Y13602922D01*
X22687847Y13599503D01*
X22704147Y13594359D01*
X22720213Y13588397D01*
X22727675Y13586938D01*
X22734900Y13584656D01*
X22745338Y13583478D01*
X22768634Y13578919D01*
X22792338Y13578178D01*
X22802797Y13576997D01*
X23171200Y13576997D01*
X23178778Y13577613D01*
X23186353Y13577375D01*
X23203313Y13579603D01*
X23220378Y13580991D01*
X23227741Y13582816D01*
X23235269Y13583806D01*
X23251669Y13588750D01*
X23268266Y13592866D01*
X23275231Y13595853D01*
X23282509Y13598047D01*
X23297881Y13605566D01*
X23313613Y13612313D01*
X23320016Y13616391D01*
X23326831Y13619725D01*
X23340806Y13629638D01*
X23355225Y13638822D01*
X23360872Y13643866D01*
X23367078Y13648269D01*
X23379288Y13660322D01*
X23392019Y13671697D01*
X23396778Y13677591D01*
X23402191Y13682931D01*
X23412275Y13696772D01*
X23423025Y13710075D01*
X23426781Y13716672D01*
X23431250Y13722806D01*
X23438966Y13738081D01*
X23439613Y13739219D01*
X23585025Y13884631D01*
X23586613Y13885313D01*
X23593016Y13889391D01*
X23599831Y13892725D01*
X23613806Y13902638D01*
X23628225Y13911822D01*
X23633872Y13916866D01*
X23640078Y13921269D01*
X23652288Y13933322D01*
X23665019Y13944697D01*
X23669778Y13950591D01*
X23675191Y13955931D01*
X23685263Y13969753D01*
X23696025Y13983075D01*
X23699781Y13989672D01*
X23704250Y13995806D01*
X23711966Y14011081D01*
X23720431Y14025956D01*
X23723075Y14033075D01*
X23726494Y14039847D01*
X23731638Y14056147D01*
X23737600Y14072213D01*
X23739059Y14079675D01*
X23741341Y14086900D01*
X23742519Y14097338D01*
X23747078Y14120634D01*
X23747819Y14144338D01*
X23749000Y14154797D01*
X23749000Y14202213D01*
X24583584Y15036797D01*
X25832000Y15036797D01*
X25839578Y15037413D01*
X25847153Y15037175D01*
X25864113Y15039403D01*
X25881178Y15040791D01*
X25888541Y15042616D01*
X25896069Y15043606D01*
X25912469Y15048550D01*
X25929066Y15052666D01*
X25936031Y15055653D01*
X25943309Y15057847D01*
X25958681Y15065366D01*
X25974413Y15072113D01*
X25980816Y15076191D01*
X25987631Y15079525D01*
X26001606Y15089438D01*
X26016025Y15098622D01*
X26021672Y15103666D01*
X26027878Y15108069D01*
X26040088Y15120122D01*
X26052819Y15131497D01*
X26057578Y15137391D01*
X26062991Y15142731D01*
X26073075Y15156572D01*
X26083825Y15169875D01*
X26087581Y15176472D01*
X26092050Y15182606D01*
X26099766Y15197881D01*
X26108231Y15212756D01*
X26110875Y15219875D01*
X26114294Y15226647D01*
X26119438Y15242947D01*
X26125400Y15259013D01*
X26126859Y15266475D01*
X26129141Y15273700D01*
X26130319Y15284138D01*
X26134878Y15307434D01*
X26135619Y15331138D01*
X26136800Y15341597D01*
X26136800Y15582200D01*
X26136184Y15589778D01*
X26136422Y15597353D01*
X26134194Y15614313D01*
X26132806Y15631378D01*
X26130981Y15638738D01*
X26129991Y15646269D01*
X26125047Y15662669D01*
X26120931Y15679266D01*
X26117944Y15686231D01*
X26115750Y15693509D01*
X26108225Y15708894D01*
X26101484Y15724613D01*
X26097406Y15731016D01*
X26094072Y15737831D01*
X26084159Y15751806D01*
X26074975Y15766225D01*
X26069931Y15771872D01*
X26065528Y15778078D01*
X26053475Y15790288D01*
X26042100Y15803019D01*
X26036206Y15807778D01*
X26030866Y15813191D01*
X26017025Y15823275D01*
X26003722Y15834025D01*
X25997125Y15837781D01*
X25990991Y15842250D01*
X25975716Y15849966D01*
X25960841Y15858431D01*
X25953722Y15861075D01*
X25946950Y15864494D01*
X25930650Y15869638D01*
X25914584Y15875600D01*
X25907122Y15877059D01*
X25899897Y15879341D01*
X25889459Y15880519D01*
X25866163Y15885078D01*
X25842459Y15885819D01*
X25832000Y15887000D01*
X25290563Y15887000D01*
X25225950Y15904313D01*
X25168034Y15937750D01*
X25120750Y15985034D01*
X25087313Y16042950D01*
X25070000Y16107563D01*
X25070000Y16565994D01*
X25953778Y16565994D01*
X25961356Y16566609D01*
X25968931Y16566372D01*
X25985891Y16568600D01*
X26002956Y16569988D01*
X26010319Y16571813D01*
X26017847Y16572803D01*
X26034247Y16577747D01*
X26050844Y16581863D01*
X26057809Y16584850D01*
X26065088Y16587044D01*
X26080459Y16594563D01*
X26096191Y16601309D01*
X26102594Y16605388D01*
X26109409Y16608722D01*
X26123384Y16618634D01*
X26137803Y16627819D01*
X26143450Y16632863D01*
X26149656Y16637266D01*
X26161866Y16649319D01*
X26174597Y16660694D01*
X26179356Y16666588D01*
X26184769Y16671928D01*
X26187781Y16676063D01*
X26190078Y16677691D01*
X26202288Y16689744D01*
X26215019Y16701119D01*
X26219778Y16707013D01*
X26225191Y16712353D01*
X26235275Y16726194D01*
X26246025Y16739497D01*
X26249781Y16746094D01*
X26254250Y16752228D01*
X26261966Y16767503D01*
X26270431Y16782378D01*
X26273075Y16789497D01*
X26276494Y16796269D01*
X26281638Y16812569D01*
X26287600Y16828634D01*
X26289059Y16836097D01*
X26291341Y16843322D01*
X26292519Y16853759D01*
X26297078Y16877056D01*
X26297819Y16900759D01*
X26299000Y16911219D01*
X26299000Y17894997D01*
X26657434Y17894997D01*
X26722047Y17877684D01*
X26779950Y17844253D01*
X26798266Y17825938D01*
X26804050Y17821022D01*
X26809253Y17815481D01*
X26822825Y17805066D01*
X26835863Y17793984D01*
X26842375Y17790059D01*
X26848394Y17785441D01*
X26863444Y17777366D01*
X26878122Y17768519D01*
X26885194Y17765691D01*
X26891869Y17762109D01*
X26908016Y17756569D01*
X26923938Y17750203D01*
X26931356Y17748556D01*
X26938538Y17746094D01*
X26955406Y17743225D01*
X26972106Y17739522D01*
X26979691Y17739094D01*
X26987178Y17737822D01*
X27004284Y17737713D01*
X27021369Y17736750D01*
X27028919Y17737553D01*
X27036516Y17737503D01*
X27053422Y17740156D01*
X27070431Y17741963D01*
X27077753Y17743972D01*
X27085259Y17745150D01*
X27101528Y17750500D01*
X27118013Y17755025D01*
X27124909Y17758188D01*
X27132131Y17760563D01*
X27146422Y17767997D01*
X28576606Y17767997D01*
X28650997Y17693606D01*
X28650997Y15964597D01*
X28651613Y15957019D01*
X28651375Y15949444D01*
X28653606Y15932475D01*
X28654991Y15915419D01*
X28656816Y15908056D01*
X28657806Y15900528D01*
X28662750Y15884128D01*
X28666866Y15867531D01*
X28669853Y15860563D01*
X28672047Y15853288D01*
X28679572Y15837903D01*
X28686313Y15822184D01*
X28690391Y15815781D01*
X28693725Y15808966D01*
X28703638Y15794991D01*
X28712822Y15780572D01*
X28717866Y15774925D01*
X28722269Y15768719D01*
X28734322Y15756509D01*
X28745697Y15743778D01*
X28751591Y15739019D01*
X28756931Y15733606D01*
X28770772Y15723522D01*
X28784075Y15712772D01*
X28790672Y15709016D01*
X28796806Y15704547D01*
X28812081Y15696831D01*
X28826956Y15688366D01*
X28834075Y15685722D01*
X28840847Y15682303D01*
X28857147Y15677159D01*
X28873213Y15671197D01*
X28880675Y15669738D01*
X28887900Y15667456D01*
X28898338Y15666278D01*
X28921634Y15661719D01*
X28945338Y15660978D01*
X28955797Y15659797D01*
X29516406Y15659797D01*
X29590797Y15585406D01*
X29590797Y13979097D01*
X29582247Y13967956D01*
X29571181Y13954934D01*
X29567266Y13948434D01*
X29562638Y13942406D01*
X29554547Y13927328D01*
X29545716Y13912675D01*
X29542894Y13905616D01*
X29539306Y13898931D01*
X29533756Y13882763D01*
X29527400Y13866859D01*
X29525756Y13859447D01*
X29523291Y13852263D01*
X29520419Y13835381D01*
X29516719Y13818691D01*
X29516294Y13811109D01*
X29515019Y13803622D01*
X29514909Y13786513D01*
X29513947Y13769428D01*
X29514750Y13761881D01*
X29514700Y13754284D01*
X29517356Y13737344D01*
X29519163Y13720366D01*
X29521166Y13713063D01*
X29522347Y13705541D01*
X29527697Y13689269D01*
X29532222Y13672784D01*
X29535388Y13665884D01*
X29537759Y13658669D01*
X29545666Y13643472D01*
X29552791Y13627938D01*
X29557022Y13621647D01*
X29560531Y13614900D01*
X29567091Y13606672D01*
X29580325Y13586994D01*
X29596581Y13569688D01*
X29603128Y13561475D01*
X29726331Y13438272D01*
X29734972Y13430928D01*
X29742991Y13422806D01*
X29753800Y13414928D01*
X29763928Y13406322D01*
X29773647Y13400466D01*
X29782866Y13393747D01*
X29794794Y13387722D01*
X29806188Y13380856D01*
X29816741Y13376638D01*
X29826906Y13371503D01*
X29839616Y13367494D01*
X29852003Y13362541D01*
X29863131Y13360072D01*
X29873959Y13356656D01*
X29883281Y13355603D01*
X29900172Y13351859D01*
X29932675Y13350031D01*
X29941856Y13348997D01*
X30060200Y13348997D01*
X30067778Y13349613D01*
X30075353Y13349375D01*
X30092313Y13351603D01*
X30109378Y13352991D01*
X30116741Y13354816D01*
X30124269Y13355806D01*
X30140669Y13360750D01*
X30157266Y13364866D01*
X30164231Y13367853D01*
X30171509Y13370047D01*
X30186881Y13377566D01*
X30202613Y13384313D01*
X30209016Y13388391D01*
X30215831Y13391725D01*
X30229806Y13401638D01*
X30244225Y13410822D01*
X30249872Y13415866D01*
X30256078Y13420269D01*
X30268288Y13432322D01*
X30281019Y13443697D01*
X30285778Y13449591D01*
X30291191Y13454931D01*
X30301275Y13468772D01*
X30312025Y13482075D01*
X30315781Y13488672D01*
X30320250Y13494806D01*
X30327966Y13510081D01*
X30336431Y13524956D01*
X30339075Y13532075D01*
X30342494Y13538847D01*
X30347638Y13555147D01*
X30353600Y13571213D01*
X30355059Y13578675D01*
X30357341Y13585900D01*
X30358519Y13596338D01*
X30363078Y13619634D01*
X30363819Y13643338D01*
X30365000Y13653797D01*
X30365000Y15015825D01*
X30367300Y15021575D01*
X30370888Y15028263D01*
X30376434Y15044428D01*
X30382791Y15060325D01*
X30384434Y15067741D01*
X30386903Y15074931D01*
X30389772Y15091794D01*
X30393475Y15108494D01*
X30393903Y15116088D01*
X30395175Y15123572D01*
X30395284Y15140669D01*
X30396247Y15157756D01*
X30395444Y15165306D01*
X30395494Y15172909D01*
X30392841Y15189828D01*
X30391034Y15206819D01*
X30389025Y15214134D01*
X30387847Y15221653D01*
X30382500Y15237916D01*
X30377975Y15254400D01*
X30374806Y15261306D01*
X30372434Y15268525D01*
X30364544Y15283691D01*
X30357409Y15299250D01*
X30353166Y15305559D01*
X30349663Y15312294D01*
X30343122Y15320497D01*
X30329875Y15340194D01*
X30321331Y15349288D01*
X30320066Y15351075D01*
X30313181Y15358050D01*
X30307066Y15365719D01*
X30288750Y15384034D01*
X30255313Y15441950D01*
X30238000Y15506563D01*
X30238000Y15864994D01*
X31221778Y15864994D01*
X31229356Y15865609D01*
X31236931Y15865372D01*
X31244709Y15866394D01*
X31251759Y15866175D01*
X31262219Y15864994D01*
X32230163Y15864994D01*
X32240738Y15865853D01*
X32251369Y15865731D01*
X32265313Y15867847D01*
X32279341Y15868988D01*
X32289644Y15871544D01*
X32300150Y15873138D01*
X32313563Y15877475D01*
X32327228Y15880863D01*
X32336981Y15885047D01*
X32347097Y15888316D01*
X32359628Y15894756D01*
X32372575Y15900309D01*
X32381538Y15906019D01*
X32390978Y15910872D01*
X32402306Y15919250D01*
X32414188Y15926819D01*
X32422100Y15933888D01*
X32430647Y15940209D01*
X32437219Y15947397D01*
X32450981Y15959694D01*
X32470119Y15983381D01*
X32476753Y15990638D01*
X32487394Y16005281D01*
X32496331Y16016344D01*
X32509838Y16032234D01*
X32511806Y16035497D01*
X32514213Y16038478D01*
X32524556Y16056653D01*
X32535309Y16074491D01*
X32536728Y16078034D01*
X32538619Y16081359D01*
X32545897Y16100972D01*
X32553628Y16120303D01*
X32554453Y16124022D01*
X32555788Y16127616D01*
X32559794Y16148091D01*
X32561866Y16157422D01*
X32565950Y16157294D01*
X32570466Y16157888D01*
X32575041Y16157881D01*
X32594900Y16161100D01*
X32614866Y16163725D01*
X32619250Y16165047D01*
X32623744Y16165775D01*
X32642763Y16172134D01*
X32662106Y16177966D01*
X32666222Y16179978D01*
X32670538Y16181422D01*
X32679075Y16186266D01*
X32706428Y16199644D01*
X32721500Y16210334D01*
X32729969Y16215138D01*
X32763231Y16239306D01*
X32927094Y16322800D01*
X33101994Y16379628D01*
X33283638Y16408397D01*
X33985181Y16408397D01*
X33985181Y15544813D01*
X32464047Y15544813D01*
X32440038Y15542863D01*
X32416231Y15541038D01*
X32415563Y15540875D01*
X32414869Y15540819D01*
X32391609Y15535050D01*
X32368291Y15529381D01*
X32367647Y15529109D01*
X32366981Y15528944D01*
X32345175Y15519594D01*
X32322856Y15510141D01*
X32322263Y15509766D01*
X32321634Y15509497D01*
X32301663Y15496772D01*
X32281122Y15483819D01*
X32280597Y15483353D01*
X32280022Y15482988D01*
X32262281Y15467134D01*
X32244184Y15451113D01*
X32243834Y15450653D01*
X32243228Y15450113D01*
X32212222Y15411734D01*
X32211713Y15410841D01*
X32206809Y15402228D01*
X32202684Y15396831D01*
X32202666Y15396800D01*
X32195653Y15382628D01*
X32187797Y15368822D01*
X32184709Y15360500D01*
X32180788Y15352575D01*
X32176153Y15337450D01*
X32170628Y15322566D01*
X32168925Y15313863D01*
X32166331Y15305400D01*
X32164194Y15289694D01*
X32161150Y15274144D01*
X32160872Y15265291D01*
X32159678Y15256513D01*
X32160103Y15240663D01*
X32159606Y15224828D01*
X32160759Y15216053D01*
X32160997Y15207191D01*
X32163972Y15191628D01*
X32166038Y15175913D01*
X32168600Y15167416D01*
X32170259Y15158728D01*
X32175697Y15143872D01*
X32180278Y15128672D01*
X32184172Y15120709D01*
X32187216Y15112394D01*
X32195000Y15098572D01*
X32201956Y15084350D01*
X32207075Y15077134D01*
X32211428Y15069403D01*
X32221334Y15057028D01*
X32230500Y15044103D01*
X32236731Y15037791D01*
X32242259Y15030884D01*
X32254006Y15020291D01*
X32265163Y15008991D01*
X32272334Y15003763D01*
X32278903Y14997841D01*
X32292216Y14989275D01*
X32305038Y14979931D01*
X32312950Y14975934D01*
X32320397Y14971144D01*
X32334928Y14964834D01*
X32349078Y14957688D01*
X32357531Y14955022D01*
X32365653Y14951494D01*
X32381022Y14947609D01*
X32396131Y14942841D01*
X32402897Y14942078D01*
X32413488Y14939400D01*
X32462647Y14935184D01*
X32463453Y14935247D01*
X32464028Y14935181D01*
X34289966Y14935181D01*
X34290003Y14935184D01*
X34290031Y14935181D01*
X36333888Y14935181D01*
X36287197Y14791488D01*
X36249741Y14717978D01*
X36247725Y14713075D01*
X36245084Y14708438D01*
X36238316Y14690203D01*
X36230972Y14672347D01*
X36229772Y14667184D01*
X36227916Y14662181D01*
X36224191Y14643150D01*
X36219809Y14624288D01*
X36219456Y14618969D01*
X36218438Y14613759D01*
X36217831Y14594425D01*
X36216550Y14575056D01*
X36217059Y14569756D01*
X36216894Y14564444D01*
X36219419Y14545241D01*
X36221275Y14525944D01*
X36222631Y14520803D01*
X36223325Y14515528D01*
X36228925Y14496956D01*
X36233863Y14478238D01*
X36236028Y14473391D01*
X36237566Y14468288D01*
X36246094Y14450850D01*
X36253984Y14433184D01*
X36256906Y14428747D01*
X36259244Y14423966D01*
X36270472Y14408131D01*
X36281109Y14391972D01*
X36284700Y14388069D01*
X36287788Y14383719D01*
X36301431Y14369897D01*
X36314528Y14355672D01*
X36318706Y14352397D01*
X36322450Y14348606D01*
X36338153Y14337163D01*
X36353366Y14325244D01*
X36358013Y14322691D01*
X36362325Y14319547D01*
X36379672Y14310784D01*
X36396606Y14301478D01*
X36401609Y14299706D01*
X36406366Y14297303D01*
X36424853Y14291469D01*
X36443113Y14285000D01*
X36448350Y14284056D01*
X36453419Y14282456D01*
X36463566Y14281313D01*
X36491669Y14276244D01*
X36511353Y14275922D01*
X36521316Y14274797D01*
X36668928Y14274797D01*
X36684222Y14269869D01*
X36685134Y14269731D01*
X36686006Y14269456D01*
X36689784Y14269031D01*
X36733009Y14262513D01*
X36746109Y14262675D01*
X36753903Y14261797D01*
X38431200Y14261797D01*
X38438778Y14262413D01*
X38446353Y14262175D01*
X38463313Y14264403D01*
X38480378Y14265791D01*
X38487741Y14267616D01*
X38495269Y14268606D01*
X38511669Y14273550D01*
X38528266Y14277666D01*
X38535231Y14280653D01*
X38542509Y14282847D01*
X38557881Y14290366D01*
X38573613Y14297113D01*
X38580016Y14301191D01*
X38586831Y14304525D01*
X38600806Y14314438D01*
X38615225Y14323622D01*
X38616969Y14325181D01*
X39564966Y14325181D01*
X39572544Y14325797D01*
X39580119Y14325559D01*
X39597078Y14327788D01*
X39614144Y14329175D01*
X39621506Y14331000D01*
X39629034Y14331991D01*
X39645434Y14336934D01*
X39662031Y14341050D01*
X39668997Y14344038D01*
X39676275Y14346231D01*
X39691647Y14353750D01*
X39707378Y14360497D01*
X39713781Y14364575D01*
X39720597Y14367909D01*
X39734572Y14377822D01*
X39748991Y14387006D01*
X39754638Y14392050D01*
X39760844Y14396453D01*
X39773053Y14408506D01*
X39785784Y14419881D01*
X39790544Y14425775D01*
X39795956Y14431116D01*
X39806041Y14444956D01*
X39816791Y14458259D01*
X39820547Y14464856D01*
X39825016Y14470991D01*
X39832731Y14486266D01*
X39841197Y14501141D01*
X39843841Y14508259D01*
X39847259Y14515031D01*
X39852403Y14531331D01*
X39858366Y14547397D01*
X39859825Y14554859D01*
X39862106Y14562084D01*
X39863284Y14572522D01*
X39867844Y14595819D01*
X39868584Y14619513D01*
X39869766Y14629981D01*
X39869766Y14630013D01*
X39869150Y14637581D01*
X39869388Y14645134D01*
X39869388Y14645166D01*
X39867159Y14662125D01*
X39865772Y14679191D01*
X39863947Y14686553D01*
X39862956Y14694081D01*
X39858013Y14710481D01*
X39853897Y14727078D01*
X39850909Y14734044D01*
X39848716Y14741322D01*
X39841191Y14756706D01*
X39834450Y14772425D01*
X39830372Y14778828D01*
X39827038Y14785644D01*
X39817125Y14799619D01*
X39807941Y14814038D01*
X39802897Y14819684D01*
X39798494Y14825891D01*
X39786441Y14838100D01*
X39775066Y14850831D01*
X39769181Y14855584D01*
X39763831Y14861003D01*
X39749991Y14871088D01*
X39736688Y14881838D01*
X39730091Y14885594D01*
X39723956Y14890063D01*
X39708681Y14897778D01*
X39693806Y14906244D01*
X39686688Y14908888D01*
X39679916Y14912306D01*
X39663616Y14917450D01*
X39647550Y14923413D01*
X39640088Y14924872D01*
X39632863Y14927153D01*
X39622425Y14928331D01*
X39599128Y14932891D01*
X39575425Y14933631D01*
X39564966Y14934813D01*
X38736000Y14934813D01*
X38736000Y14963434D01*
X38753313Y15028047D01*
X38786747Y15085959D01*
X38810450Y15109659D01*
X38811666Y15111091D01*
X38813094Y15112334D01*
X38827713Y15129972D01*
X38842403Y15147256D01*
X38843369Y15148859D01*
X38844581Y15150322D01*
X38856128Y15170031D01*
X38867869Y15189516D01*
X38868569Y15191269D01*
X38869522Y15192894D01*
X38877713Y15214141D01*
X38886184Y15235328D01*
X38886594Y15237169D01*
X38887272Y15238931D01*
X38891938Y15261269D01*
X38896866Y15283497D01*
X38896972Y15285369D01*
X38897359Y15287228D01*
X38898359Y15310041D01*
X38899638Y15332759D01*
X38899438Y15334628D01*
X38899522Y15336522D01*
X38898559Y15342922D01*
X38894425Y15381822D01*
X38890597Y15395763D01*
X38889344Y15404088D01*
X38886000Y15416566D01*
X38886000Y16039994D01*
X39639994Y16039994D01*
X39639994Y15488794D01*
X39640609Y15481222D01*
X39640372Y15473638D01*
X39642603Y15456672D01*
X39643988Y15439616D01*
X39645813Y15432259D01*
X39646803Y15424719D01*
X39651750Y15408316D01*
X39655863Y15391728D01*
X39658856Y15384750D01*
X39661047Y15377481D01*
X39668556Y15362125D01*
X39675309Y15346381D01*
X39679394Y15339969D01*
X39682725Y15333159D01*
X39692625Y15319200D01*
X39701819Y15304769D01*
X39706869Y15299119D01*
X39711269Y15292913D01*
X39723306Y15280719D01*
X39734694Y15267975D01*
X39740600Y15263203D01*
X39745931Y15257803D01*
X39759741Y15247741D01*
X39773072Y15236969D01*
X39779684Y15233206D01*
X39785806Y15228744D01*
X39801053Y15221044D01*
X39815953Y15212563D01*
X39823084Y15209916D01*
X39829847Y15206500D01*
X39846144Y15201356D01*
X39862209Y15195394D01*
X39869656Y15193938D01*
X39876900Y15191650D01*
X39887363Y15190469D01*
X39910631Y15185916D01*
X39934334Y15185175D01*
X39944797Y15183994D01*
X40173438Y15183997D01*
X40256306Y15161791D01*
X40278697Y15157697D01*
X40301038Y15153325D01*
X40302950Y15153266D01*
X40304844Y15152919D01*
X40327716Y15152491D01*
X40350353Y15151781D01*
X40352244Y15152031D01*
X40354175Y15151994D01*
X40376784Y15155256D01*
X40399269Y15158213D01*
X40401103Y15158766D01*
X40403009Y15159041D01*
X40424713Y15165881D01*
X40446509Y15172453D01*
X40448241Y15173300D01*
X40450066Y15173875D01*
X40470403Y15184141D01*
X40490831Y15194131D01*
X40492391Y15195238D01*
X40494113Y15196106D01*
X40512531Y15209522D01*
X40531078Y15222675D01*
X40532447Y15224028D01*
X40533994Y15225153D01*
X40549897Y15241250D01*
X40566191Y15257338D01*
X40567331Y15258900D01*
X40568669Y15260256D01*
X40581759Y15278700D01*
X40595250Y15297213D01*
X40596119Y15298931D01*
X40597225Y15300491D01*
X40607209Y15320894D01*
X40617494Y15341253D01*
X40618072Y15343084D01*
X40618916Y15344809D01*
X40625481Y15366566D01*
X40632341Y15388306D01*
X40632519Y15389875D01*
X40633172Y15392044D01*
X40636691Y15418753D01*
X40638078Y15425834D01*
X40638219Y15430341D01*
X40639619Y15440959D01*
X40639331Y15450266D01*
X40640000Y15456203D01*
X40640000Y16039994D01*
X41393994Y16039994D01*
X41393997Y15416563D01*
X41376684Y15351950D01*
X41343247Y15294034D01*
X41295963Y15246750D01*
X41238047Y15213313D01*
X41157347Y15191691D01*
X41144834Y15187225D01*
X41132006Y15183703D01*
X41121625Y15178941D01*
X41110878Y15175106D01*
X41099247Y15168678D01*
X41087159Y15163134D01*
X41077691Y15156766D01*
X41067694Y15151241D01*
X41057234Y15143006D01*
X41046219Y15135597D01*
X41037913Y15127794D01*
X41028928Y15120722D01*
X41019938Y15110913D01*
X41010256Y15101819D01*
X41003313Y15092772D01*
X40995591Y15084347D01*
X40988309Y15073225D01*
X40980213Y15062678D01*
X40974803Y15052600D01*
X40968563Y15043069D01*
X40963175Y15030934D01*
X40956881Y15019203D01*
X40953172Y15008394D01*
X40948547Y14997972D01*
X40945188Y14985125D01*
X40940869Y14972534D01*
X40938953Y14961275D01*
X40936069Y14950238D01*
X40934825Y14937000D01*
X40932597Y14923894D01*
X40932522Y14912475D01*
X40931456Y14901113D01*
X40932366Y14887859D01*
X40932278Y14874556D01*
X40934047Y14863281D01*
X40934828Y14851888D01*
X40937872Y14838922D01*
X40939928Y14825813D01*
X40943488Y14814994D01*
X40946100Y14803853D01*
X40951197Y14791544D01*
X40955341Y14778941D01*
X40960600Y14768831D01*
X40964975Y14758266D01*
X40971988Y14746947D01*
X40978113Y14735172D01*
X40983344Y14728609D01*
X40990956Y14716322D01*
X41016747Y14686716D01*
X41020709Y14681747D01*
X41085069Y14617388D01*
X41164997Y14424425D01*
X41164997Y14215572D01*
X41085069Y14022606D01*
X40937391Y13874928D01*
X40744425Y13795000D01*
X40571797Y13795000D01*
X40564219Y13794384D01*
X40556644Y13794622D01*
X40539684Y13792394D01*
X40522619Y13791006D01*
X40515256Y13789181D01*
X40507728Y13788191D01*
X40491328Y13783247D01*
X40474731Y13779131D01*
X40467766Y13776144D01*
X40460488Y13773950D01*
X40445103Y13766425D01*
X40429384Y13759684D01*
X40422981Y13755606D01*
X40416166Y13752272D01*
X40402191Y13742359D01*
X40387772Y13733175D01*
X40382125Y13728131D01*
X40375919Y13723728D01*
X40363709Y13711675D01*
X40350978Y13700300D01*
X40346219Y13694406D01*
X40340806Y13689066D01*
X40330722Y13675225D01*
X40319972Y13661922D01*
X40316216Y13655325D01*
X40311747Y13649191D01*
X40304031Y13633916D01*
X40295566Y13619041D01*
X40292922Y13611922D01*
X40289503Y13605150D01*
X40284359Y13588850D01*
X40278397Y13572784D01*
X40276938Y13565322D01*
X40274656Y13558097D01*
X40273478Y13547659D01*
X40268919Y13524363D01*
X40268175Y13500644D01*
X40266997Y13490200D01*
X40266997Y12238797D01*
X40267613Y12231219D01*
X40267375Y12223644D01*
X40269603Y12206684D01*
X40270991Y12189619D01*
X40272816Y12182256D01*
X40273806Y12174728D01*
X40278750Y12158328D01*
X40282866Y12141731D01*
X40285853Y12134766D01*
X40288047Y12127488D01*
X40295572Y12112103D01*
X40302313Y12096384D01*
X40306391Y12089981D01*
X40309725Y12083166D01*
X40319638Y12069191D01*
X40328822Y12054772D01*
X40333866Y12049125D01*
X40338269Y12042919D01*
X40350322Y12030709D01*
X40361697Y12017978D01*
X40367591Y12013219D01*
X40372931Y12007806D01*
X40386772Y11997722D01*
X40400075Y11986972D01*
X40406672Y11983216D01*
X40412806Y11978747D01*
X40428081Y11971031D01*
X40442956Y11962566D01*
X40450075Y11959922D01*
X40456847Y11956503D01*
X40473147Y11951359D01*
X40480625Y11948584D01*
X41020997Y11408213D01*
X41020997Y11123213D01*
X41021072Y11122294D01*
X41021003Y11121381D01*
X41023069Y11097706D01*
X41024991Y11074034D01*
X41025209Y11073147D01*
X41025291Y11072228D01*
X41026356Y11068531D01*
X41036866Y11026147D01*
X41042028Y11014106D01*
X41044200Y11006569D01*
X41094397Y10885384D01*
X41094397Y10704606D01*
X41025222Y10537603D01*
X40897394Y10409775D01*
X40730391Y10340600D01*
X40571797Y10340600D01*
X40564219Y10339984D01*
X40556644Y10340222D01*
X40539684Y10337994D01*
X40522619Y10336606D01*
X40515256Y10334781D01*
X40507728Y10333791D01*
X40491328Y10328847D01*
X40474731Y10324731D01*
X40467766Y10321744D01*
X40460488Y10319550D01*
X40445103Y10312025D01*
X40429384Y10305284D01*
X40422981Y10301206D01*
X40416166Y10297872D01*
X40402191Y10287959D01*
X40387772Y10278775D01*
X40382125Y10273731D01*
X40375919Y10269328D01*
X40363709Y10257275D01*
X40350978Y10245900D01*
X40346219Y10240006D01*
X40340806Y10234666D01*
X40330722Y10220825D01*
X40319972Y10207522D01*
X40316216Y10200925D01*
X40311747Y10194791D01*
X40304031Y10179516D01*
X40295566Y10164641D01*
X40292922Y10157522D01*
X40289503Y10150750D01*
X40284359Y10134450D01*
X40278397Y10118384D01*
X40276938Y10110922D01*
X40274656Y10103697D01*
X40273478Y10093259D01*
X40268919Y10069963D01*
X40268178Y10046259D01*
X40266997Y10035800D01*
X40266997Y9369797D01*
X40267613Y9362219D01*
X40267375Y9354644D01*
X40269603Y9337684D01*
X40270991Y9320619D01*
X40272816Y9313256D01*
X40273806Y9305728D01*
X40278750Y9289328D01*
X40282866Y9272731D01*
X40285853Y9265766D01*
X40288047Y9258488D01*
X40295572Y9243103D01*
X40302313Y9227384D01*
X40306391Y9220981D01*
X40309725Y9214166D01*
X40319638Y9200191D01*
X40328822Y9185772D01*
X40333866Y9180125D01*
X40338269Y9173919D01*
X40350322Y9161709D01*
X40361697Y9148978D01*
X40367591Y9144219D01*
X40372931Y9138806D01*
X40386772Y9128722D01*
X40400075Y9117972D01*
X40406672Y9114216D01*
X40412806Y9109747D01*
X40428081Y9102031D01*
X40442956Y9093566D01*
X40450075Y9090922D01*
X40456847Y9087503D01*
X40473147Y9082359D01*
X40489213Y9076397D01*
X40496675Y9074938D01*
X40503900Y9072656D01*
X40514338Y9071478D01*
X40537634Y9066919D01*
X40561338Y9066178D01*
X40571797Y9064997D01*
X40744425Y9064997D01*
X40937391Y8985069D01*
X41085069Y8837391D01*
X41164997Y8644425D01*
X41164997Y8435572D01*
X41085069Y8242609D01*
X41020709Y8178250D01*
X41012116Y8168138D01*
X41002756Y8158663D01*
X40996150Y8149353D01*
X40988756Y8140653D01*
X40981884Y8129250D01*
X40974203Y8118425D01*
X40969191Y8108188D01*
X40963291Y8098394D01*
X40958356Y8086050D01*
X40952513Y8074109D01*
X40949213Y8063169D01*
X40944978Y8052578D01*
X40942100Y8039606D01*
X40938259Y8026872D01*
X40936766Y8015550D01*
X40934297Y8004409D01*
X40933550Y7991144D01*
X40931813Y7977956D01*
X40932166Y7966550D01*
X40931525Y7955147D01*
X40932931Y7941916D01*
X40933344Y7928641D01*
X40935534Y7917438D01*
X40936741Y7906084D01*
X40940256Y7893275D01*
X40942809Y7880216D01*
X40946778Y7869513D01*
X40949800Y7858506D01*
X40955344Y7846416D01*
X40959966Y7833956D01*
X40965606Y7824041D01*
X40970369Y7813656D01*
X40977794Y7802616D01*
X40984363Y7791069D01*
X40991531Y7782191D01*
X40997903Y7772716D01*
X41007006Y7763022D01*
X41015356Y7752681D01*
X41023853Y7745088D01*
X41031681Y7736750D01*
X41042253Y7728634D01*
X41052141Y7719797D01*
X41061756Y7713669D01*
X41070822Y7706709D01*
X41082534Y7700422D01*
X41093747Y7693275D01*
X41101578Y7690200D01*
X41114294Y7683375D01*
X41151350Y7670663D01*
X41157347Y7668306D01*
X41238047Y7646684D01*
X41295963Y7613247D01*
X41343247Y7565963D01*
X41376684Y7508047D01*
X41393997Y7443434D01*
X41393997Y6820000D01*
X40335219Y6820000D01*
X40327641Y6819384D01*
X40320066Y6819622D01*
X40303106Y6817394D01*
X40286041Y6816006D01*
X40278678Y6814181D01*
X40271150Y6813191D01*
X40254750Y6808247D01*
X40238153Y6804131D01*
X40231188Y6801144D01*
X40223909Y6798950D01*
X40208525Y6791425D01*
X40192806Y6784684D01*
X40186403Y6780606D01*
X40179588Y6777272D01*
X40165613Y6767359D01*
X40151194Y6758175D01*
X40145547Y6753131D01*
X40139756Y6749022D01*
X40129803Y6756275D01*
X40116500Y6767025D01*
X40109903Y6770781D01*
X40103769Y6775250D01*
X40088494Y6782966D01*
X40073619Y6791431D01*
X40066500Y6794075D01*
X40059728Y6797494D01*
X40043428Y6802638D01*
X40027363Y6808600D01*
X40019900Y6810059D01*
X40012675Y6812341D01*
X40002238Y6813519D01*
X39978941Y6818078D01*
X39955238Y6818819D01*
X39944778Y6820000D01*
X38886000Y6820000D01*
X38886000Y7443431D01*
X38889344Y7455909D01*
X38889684Y7457775D01*
X38890294Y7459550D01*
X38894094Y7481897D01*
X38898216Y7504447D01*
X38898250Y7506344D01*
X38898566Y7508194D01*
X38898713Y7530956D01*
X38899141Y7553778D01*
X38898872Y7555638D01*
X38898884Y7557531D01*
X38895366Y7579947D01*
X38892094Y7602613D01*
X38891528Y7604409D01*
X38891234Y7606275D01*
X38884094Y7627988D01*
X38878969Y7644250D01*
X38878288Y7646506D01*
X38878200Y7646684D01*
X38877259Y7649669D01*
X38876413Y7651344D01*
X38875822Y7653144D01*
X38865266Y7673434D01*
X38860491Y7682894D01*
X38856609Y7690828D01*
X38856181Y7691434D01*
X38855028Y7693716D01*
X38853922Y7695238D01*
X38853047Y7696916D01*
X38849016Y7701972D01*
X38837200Y7718197D01*
X38828066Y7731075D01*
X38827128Y7732022D01*
X38825981Y7733600D01*
X38815691Y7743766D01*
X38810450Y7750338D01*
X38786747Y7774038D01*
X38753313Y7831950D01*
X38736000Y7896563D01*
X38736000Y7925181D01*
X39564966Y7925181D01*
X39572544Y7925797D01*
X39580119Y7925559D01*
X39597078Y7927788D01*
X39614144Y7929175D01*
X39621506Y7931000D01*
X39629034Y7931991D01*
X39645434Y7936934D01*
X39662031Y7941050D01*
X39668997Y7944038D01*
X39676275Y7946231D01*
X39691647Y7953750D01*
X39707378Y7960497D01*
X39713781Y7964575D01*
X39720597Y7967909D01*
X39734572Y7977822D01*
X39748991Y7987006D01*
X39754638Y7992050D01*
X39760844Y7996453D01*
X39773053Y8008506D01*
X39785784Y8019881D01*
X39790544Y8025775D01*
X39795956Y8031116D01*
X39806041Y8044956D01*
X39816791Y8058259D01*
X39820547Y8064856D01*
X39825016Y8070991D01*
X39832722Y8086250D01*
X39841197Y8101141D01*
X39843841Y8108259D01*
X39847259Y8115031D01*
X39852403Y8131331D01*
X39858366Y8147397D01*
X39859825Y8154859D01*
X39862106Y8162084D01*
X39863284Y8172522D01*
X39867844Y8195819D01*
X39868584Y8219522D01*
X39869766Y8229981D01*
X39869766Y8230013D01*
X39869150Y8237581D01*
X39869281Y8241728D01*
X39869388Y8245166D01*
X39867159Y8262125D01*
X39865772Y8279191D01*
X39863947Y8286553D01*
X39862956Y8294081D01*
X39858013Y8310481D01*
X39853897Y8327078D01*
X39850909Y8334044D01*
X39848716Y8341322D01*
X39841191Y8356706D01*
X39834450Y8372425D01*
X39830372Y8378828D01*
X39827038Y8385644D01*
X39817125Y8399619D01*
X39807941Y8414038D01*
X39802897Y8419684D01*
X39798494Y8425891D01*
X39786441Y8438100D01*
X39775066Y8450831D01*
X39769172Y8455591D01*
X39763831Y8461003D01*
X39749991Y8471088D01*
X39736688Y8481838D01*
X39730091Y8485594D01*
X39723956Y8490063D01*
X39708681Y8497778D01*
X39693806Y8506244D01*
X39686688Y8508888D01*
X39679916Y8512306D01*
X39663616Y8517450D01*
X39647550Y8523413D01*
X39640088Y8524872D01*
X39632863Y8527153D01*
X39622425Y8528331D01*
X39599128Y8532891D01*
X39575425Y8533631D01*
X39564966Y8534813D01*
X38615809Y8534813D01*
X38602922Y8545225D01*
X38596325Y8548981D01*
X38590191Y8553450D01*
X38574916Y8561166D01*
X38560041Y8569631D01*
X38552922Y8572275D01*
X38546150Y8575694D01*
X38529850Y8580838D01*
X38513784Y8586800D01*
X38506322Y8588259D01*
X38499097Y8590541D01*
X38488659Y8591719D01*
X38465363Y8596278D01*
X38441659Y8597019D01*
X38431200Y8598200D01*
X36894109Y8598200D01*
X36882775Y8597278D01*
X36871394Y8597353D01*
X36858206Y8595284D01*
X36844931Y8594206D01*
X36833903Y8591472D01*
X36822650Y8589706D01*
X36809972Y8585538D01*
X36797044Y8582331D01*
X36786591Y8577847D01*
X36775781Y8574294D01*
X36763956Y8568141D01*
X36751697Y8562884D01*
X36742106Y8556775D01*
X36732009Y8551522D01*
X36724647Y8545653D01*
X36710084Y8536375D01*
X36685841Y8514713D01*
X36678584Y8508928D01*
X36316878Y8147225D01*
X36302766Y8130616D01*
X36288325Y8114259D01*
X36286788Y8111813D01*
X36284928Y8109625D01*
X36273709Y8091009D01*
X36262066Y8072484D01*
X36260944Y8069822D01*
X36259463Y8067366D01*
X36251403Y8047200D01*
X36242894Y8027025D01*
X36242216Y8024213D01*
X36241150Y8021550D01*
X36236428Y8000269D01*
X36231306Y7979063D01*
X36231091Y7976203D01*
X36230466Y7973381D01*
X36229238Y7951531D01*
X36227609Y7929863D01*
X36227859Y7927003D01*
X36227697Y7924119D01*
X36230000Y7902444D01*
X36231897Y7880709D01*
X36232553Y7878428D01*
X36232913Y7875056D01*
X36245797Y7828128D01*
X36245797Y7412847D01*
X36087256Y7030094D01*
X35794303Y6737141D01*
X35411550Y6578600D01*
X33168447Y6578600D01*
X32785694Y6737141D01*
X32492747Y7030088D01*
X32484153Y7050834D01*
X32474234Y7070181D01*
X32464625Y7089831D01*
X32462959Y7092178D01*
X32461647Y7094741D01*
X32448713Y7112266D01*
X32436081Y7130078D01*
X32434053Y7132131D01*
X32432350Y7134441D01*
X32416806Y7149606D01*
X32401419Y7165191D01*
X32399081Y7166894D01*
X32397031Y7168894D01*
X32379263Y7181338D01*
X32361544Y7194250D01*
X32358959Y7195553D01*
X32356616Y7197197D01*
X32337013Y7206641D01*
X32317503Y7216494D01*
X32314763Y7217359D01*
X32312166Y7218609D01*
X32291188Y7224797D01*
X32270450Y7231341D01*
X32268109Y7231606D01*
X32264841Y7232569D01*
X32215884Y7238709D01*
X32207803Y7238406D01*
X32202553Y7239000D01*
X31826450Y7239000D01*
X31822666Y7238694D01*
X31818869Y7238906D01*
X31798066Y7236694D01*
X31777272Y7235006D01*
X31773591Y7234094D01*
X31769803Y7233691D01*
X31749613Y7228147D01*
X31729384Y7223131D01*
X31725900Y7221638D01*
X31722225Y7220628D01*
X31703191Y7211897D01*
X31684038Y7203684D01*
X31680838Y7201647D01*
X31677378Y7200059D01*
X31660019Y7188384D01*
X31642425Y7177175D01*
X31639591Y7174644D01*
X31636438Y7172522D01*
X31621216Y7158225D01*
X31605631Y7144300D01*
X31603241Y7141344D01*
X31600475Y7138744D01*
X31587775Y7122197D01*
X31574625Y7105922D01*
X31572741Y7102613D01*
X31570431Y7099603D01*
X31560566Y7081222D01*
X31550219Y7063041D01*
X31548894Y7059469D01*
X31547100Y7056128D01*
X31540338Y7036416D01*
X31533050Y7016784D01*
X31532319Y7013047D01*
X31531088Y7009459D01*
X31527588Y6988872D01*
X31523572Y6968363D01*
X31523453Y6964566D01*
X31522816Y6960819D01*
X31522681Y6939884D01*
X31522028Y6919047D01*
X31522522Y6915294D01*
X31522497Y6911481D01*
X31525738Y6890828D01*
X31528459Y6870131D01*
X31529559Y6866484D01*
X31530147Y6862738D01*
X31536650Y6842963D01*
X31542700Y6822891D01*
X31544375Y6819463D01*
X31545559Y6815866D01*
X31555184Y6797369D01*
X31564378Y6778569D01*
X31566578Y6775469D01*
X31568331Y6772097D01*
X31574094Y6764869D01*
X31592922Y6738322D01*
X31605084Y6726003D01*
X31610928Y6718672D01*
X31641997Y6687603D01*
X31641997Y5782391D01*
X31532972Y5673366D01*
X31531384Y5672684D01*
X31524981Y5668606D01*
X31518166Y5665272D01*
X31504191Y5655359D01*
X31489772Y5646175D01*
X31484125Y5641131D01*
X31477919Y5636728D01*
X31465709Y5624675D01*
X31452978Y5613300D01*
X31448219Y5607406D01*
X31442806Y5602066D01*
X31432722Y5588225D01*
X31421972Y5574922D01*
X31418216Y5568325D01*
X31413747Y5562191D01*
X31406031Y5546916D01*
X31397566Y5532041D01*
X31394922Y5524922D01*
X31391503Y5518150D01*
X31386359Y5501850D01*
X31380397Y5485784D01*
X31378938Y5478322D01*
X31376656Y5471097D01*
X31375478Y5460659D01*
X31370919Y5437363D01*
X31370178Y5413659D01*
X31368997Y5403200D01*
X31368997Y5118797D01*
X31369613Y5111219D01*
X31369375Y5103644D01*
X31371606Y5086675D01*
X31372991Y5069619D01*
X31374816Y5062256D01*
X31375806Y5054728D01*
X31380750Y5038328D01*
X31384866Y5021731D01*
X31387853Y5014766D01*
X31390047Y5007488D01*
X31397572Y4992103D01*
X31404313Y4976384D01*
X31408391Y4969981D01*
X31411725Y4963166D01*
X31421659Y4949156D01*
X31430822Y4934772D01*
X31435866Y4929125D01*
X31440269Y4922919D01*
X31452322Y4910709D01*
X31463697Y4897978D01*
X31469591Y4893219D01*
X31474931Y4887806D01*
X31488772Y4877722D01*
X31502075Y4866972D01*
X31508672Y4863216D01*
X31514806Y4858747D01*
X31530081Y4851031D01*
X31544956Y4842566D01*
X31552075Y4839922D01*
X31558847Y4836503D01*
X31575147Y4831359D01*
X31591213Y4825397D01*
X31598675Y4823938D01*
X31605900Y4821656D01*
X31616338Y4820478D01*
X31639634Y4815919D01*
X31663338Y4815178D01*
X31673797Y4813997D01*
X31779825Y4813997D01*
X31785578Y4811697D01*
X31792275Y4808103D01*
X31808441Y4802559D01*
X31824344Y4796200D01*
X31831781Y4794550D01*
X31838944Y4792094D01*
X31855772Y4789231D01*
X31872513Y4785519D01*
X31880097Y4785094D01*
X31887584Y4783819D01*
X31904709Y4783709D01*
X31921775Y4782750D01*
X31929316Y4783553D01*
X31936922Y4783503D01*
X31953847Y4786159D01*
X31970838Y4787966D01*
X31978153Y4789975D01*
X31985666Y4791153D01*
X32001934Y4796503D01*
X32018419Y4801028D01*
X32025313Y4804191D01*
X32032538Y4806566D01*
X32047738Y4814475D01*
X32063266Y4821597D01*
X32069559Y4825831D01*
X32076306Y4829341D01*
X32084534Y4835900D01*
X32104206Y4849131D01*
X32121509Y4865381D01*
X32129731Y4871938D01*
X32148047Y4890253D01*
X32205950Y4923684D01*
X32270563Y4940997D01*
X32628994Y4940997D01*
X32628994Y3957219D01*
X32629609Y3949641D01*
X32629372Y3942066D01*
X32630394Y3934284D01*
X32630175Y3927238D01*
X32628994Y3916778D01*
X32628994Y2932997D01*
X32270566Y2933000D01*
X32205950Y2950313D01*
X32148047Y2983744D01*
X32129731Y3002059D01*
X32123947Y3006975D01*
X32118744Y3012516D01*
X32105172Y3022931D01*
X32092134Y3034013D01*
X32085622Y3037938D01*
X32079603Y3042556D01*
X32064553Y3050631D01*
X32049875Y3059478D01*
X32042803Y3062306D01*
X32036128Y3065888D01*
X32019981Y3071428D01*
X32004059Y3077794D01*
X31996641Y3079441D01*
X31989459Y3081903D01*
X31972591Y3084772D01*
X31955891Y3088475D01*
X31948306Y3088903D01*
X31940819Y3090175D01*
X31923713Y3090284D01*
X31906628Y3091247D01*
X31899078Y3090444D01*
X31891481Y3090494D01*
X31874575Y3087841D01*
X31857566Y3086034D01*
X31850244Y3084025D01*
X31842738Y3082847D01*
X31826469Y3077497D01*
X31809984Y3072972D01*
X31803088Y3069809D01*
X31795866Y3067434D01*
X31781575Y3060000D01*
X30351391Y3060000D01*
X30277000Y3134391D01*
X30277000Y4739606D01*
X30351391Y4813997D01*
X30556200Y4813997D01*
X30563778Y4814613D01*
X30571353Y4814375D01*
X30588313Y4816603D01*
X30605378Y4817991D01*
X30612741Y4819816D01*
X30620269Y4820806D01*
X30636669Y4825750D01*
X30653266Y4829866D01*
X30660231Y4832853D01*
X30667509Y4835047D01*
X30682881Y4842566D01*
X30698613Y4849313D01*
X30705016Y4853391D01*
X30711831Y4856725D01*
X30725784Y4866622D01*
X30740225Y4875822D01*
X30745872Y4880866D01*
X30752078Y4885269D01*
X30764288Y4897322D01*
X30777019Y4908697D01*
X30781778Y4914591D01*
X30787191Y4919931D01*
X30797263Y4933753D01*
X30808025Y4947075D01*
X30811781Y4953672D01*
X30816250Y4959806D01*
X30823966Y4975081D01*
X30832431Y4989956D01*
X30835075Y4997075D01*
X30838494Y5003847D01*
X30843638Y5020147D01*
X30849600Y5036213D01*
X30851059Y5043675D01*
X30853341Y5050900D01*
X30854519Y5061338D01*
X30859078Y5084634D01*
X30859819Y5108338D01*
X30861000Y5118797D01*
X30861000Y5403200D01*
X30860422Y5410331D01*
X30860622Y5416750D01*
X30860581Y5417059D01*
X30860622Y5418353D01*
X30858394Y5435313D01*
X30857006Y5452378D01*
X30855181Y5459741D01*
X30854191Y5467269D01*
X30849247Y5483669D01*
X30845131Y5500266D01*
X30842144Y5507231D01*
X30839950Y5514509D01*
X30832425Y5529894D01*
X30825684Y5545613D01*
X30821606Y5552016D01*
X30818272Y5558831D01*
X30808359Y5572806D01*
X30799175Y5587225D01*
X30794131Y5592872D01*
X30789728Y5599078D01*
X30777675Y5611288D01*
X30766300Y5624019D01*
X30760406Y5628778D01*
X30755066Y5634191D01*
X30741225Y5644275D01*
X30727922Y5655025D01*
X30721325Y5658781D01*
X30715191Y5663250D01*
X30699916Y5670966D01*
X30698778Y5671613D01*
X30588000Y5782391D01*
X30588000Y6687600D01*
X30669869Y6769469D01*
X30674781Y6775250D01*
X30680319Y6780450D01*
X30690747Y6794034D01*
X30701819Y6807066D01*
X30705738Y6813569D01*
X30710359Y6819591D01*
X30718441Y6834650D01*
X30727284Y6849325D01*
X30730109Y6856391D01*
X30733691Y6863066D01*
X30739241Y6879238D01*
X30745597Y6895141D01*
X30747238Y6902544D01*
X30749706Y6909734D01*
X30752578Y6926631D01*
X30756278Y6943309D01*
X30756703Y6950884D01*
X30757978Y6958375D01*
X30758088Y6975488D01*
X30759050Y6992572D01*
X30758247Y7000119D01*
X30758297Y7007713D01*
X30755641Y7024647D01*
X30753834Y7041634D01*
X30751828Y7048938D01*
X30750650Y7056456D01*
X30745291Y7072750D01*
X30740772Y7089216D01*
X30737613Y7096106D01*
X30735238Y7103328D01*
X30727334Y7118519D01*
X30720206Y7134063D01*
X30715969Y7140363D01*
X30712466Y7147097D01*
X30705919Y7155306D01*
X30692672Y7175006D01*
X30676409Y7192319D01*
X30669869Y7200522D01*
X30588000Y7282391D01*
X30588000Y7916200D01*
X30587384Y7923778D01*
X30587622Y7931353D01*
X30585394Y7948313D01*
X30584006Y7965378D01*
X30582181Y7972741D01*
X30581191Y7980269D01*
X30576247Y7996669D01*
X30572131Y8013266D01*
X30569144Y8020231D01*
X30566950Y8027509D01*
X30559425Y8042894D01*
X30552684Y8058613D01*
X30548606Y8065016D01*
X30545272Y8071831D01*
X30535359Y8085806D01*
X30526175Y8100225D01*
X30521131Y8105872D01*
X30516728Y8112078D01*
X30504675Y8124288D01*
X30493300Y8137019D01*
X30487406Y8141778D01*
X30482066Y8147191D01*
X30468225Y8157275D01*
X30454922Y8168025D01*
X30448325Y8171781D01*
X30442191Y8176250D01*
X30426916Y8183966D01*
X30412041Y8192431D01*
X30404922Y8195075D01*
X30398150Y8198494D01*
X30381850Y8203638D01*
X30365784Y8209600D01*
X30358322Y8211059D01*
X30351097Y8213341D01*
X30347313Y8213769D01*
X30347313Y8387681D01*
X30572691Y8387681D01*
X30575819Y8382772D01*
X30580863Y8377125D01*
X30585266Y8370919D01*
X30597319Y8358709D01*
X30608694Y8345978D01*
X30614588Y8341219D01*
X30619928Y8335806D01*
X30633769Y8325722D01*
X30647072Y8314972D01*
X30653669Y8311216D01*
X30659803Y8306747D01*
X30675078Y8299031D01*
X30689953Y8290566D01*
X30697072Y8287922D01*
X30703844Y8284503D01*
X30720144Y8279359D01*
X30736209Y8273397D01*
X30743672Y8271938D01*
X30750897Y8269656D01*
X30761334Y8268478D01*
X30784631Y8263919D01*
X30808334Y8263178D01*
X30818794Y8261997D01*
X31567606Y8261997D01*
X31696784Y8132819D01*
X31703822Y8121772D01*
X31708866Y8116125D01*
X31713269Y8109919D01*
X31725322Y8097709D01*
X31736697Y8084978D01*
X31742591Y8080219D01*
X31747931Y8074806D01*
X31761772Y8064722D01*
X31775075Y8053972D01*
X31781672Y8050216D01*
X31787806Y8045747D01*
X31803081Y8038031D01*
X31817956Y8029566D01*
X31825075Y8026922D01*
X31831847Y8023503D01*
X31848147Y8018359D01*
X31864213Y8012397D01*
X31871675Y8010938D01*
X31878900Y8008656D01*
X31889338Y8007478D01*
X31912634Y8002919D01*
X31936338Y8002178D01*
X31946797Y8000997D01*
X32202553Y8000997D01*
X32224300Y8002763D01*
X32246056Y8004119D01*
X32248856Y8004756D01*
X32251731Y8004991D01*
X32272891Y8010238D01*
X32294159Y8015088D01*
X32296831Y8016175D01*
X32299619Y8016866D01*
X32319634Y8025450D01*
X32339866Y8033678D01*
X32342322Y8035178D01*
X32344966Y8036313D01*
X32363306Y8047997D01*
X32381969Y8059397D01*
X32384159Y8061281D01*
X32386578Y8062822D01*
X32402819Y8077331D01*
X32419375Y8091575D01*
X32421225Y8093778D01*
X32423372Y8095697D01*
X32437106Y8112697D01*
X32451097Y8129363D01*
X32452238Y8131425D01*
X32454378Y8134075D01*
X32478784Y8176956D01*
X32481603Y8184547D01*
X32484153Y8189163D01*
X32492747Y8209909D01*
X32785688Y8502850D01*
X33040506Y8608397D01*
X33043888Y8610131D01*
X33047472Y8611384D01*
X33065828Y8621378D01*
X33084413Y8630906D01*
X33087466Y8633159D01*
X33090806Y8634978D01*
X33107266Y8647769D01*
X33124113Y8660203D01*
X33126781Y8662938D01*
X33129763Y8665256D01*
X33143941Y8680531D01*
X33158563Y8695522D01*
X33160738Y8698628D01*
X33163328Y8701419D01*
X33174903Y8718856D01*
X33186866Y8735938D01*
X33188513Y8739356D01*
X33190616Y8742525D01*
X33199219Y8761584D01*
X33208275Y8780391D01*
X33209350Y8784034D01*
X33210913Y8787497D01*
X33216322Y8807669D01*
X33222234Y8827716D01*
X33222706Y8831484D01*
X33223691Y8835153D01*
X33225775Y8855941D01*
X33228375Y8876672D01*
X33228234Y8880466D01*
X33228613Y8884247D01*
X33227313Y8905125D01*
X33226534Y8925975D01*
X33225784Y8929694D01*
X33225547Y8933491D01*
X33220909Y8953831D01*
X33216766Y8974338D01*
X33215416Y8977906D01*
X33214575Y8981597D01*
X33206725Y9000900D01*
X33199319Y9020491D01*
X33197416Y9023788D01*
X33195988Y9027300D01*
X33185138Y9045063D01*
X33174656Y9063225D01*
X33172241Y9066181D01*
X33170269Y9069406D01*
X33156681Y9085203D01*
X33143419Y9101419D01*
X33140569Y9103934D01*
X33138094Y9106813D01*
X33122078Y9120259D01*
X33106431Y9134072D01*
X33103222Y9136088D01*
X33100306Y9138538D01*
X33092194Y9143022D01*
X33064659Y9160331D01*
X33048734Y9167047D01*
X33040509Y9171594D01*
X32785691Y9277144D01*
X32492747Y9570088D01*
X32429009Y9723969D01*
X32428591Y9724788D01*
X32428303Y9725659D01*
X32417275Y9746856D01*
X32406500Y9767875D01*
X32405959Y9768606D01*
X32405531Y9769431D01*
X32403116Y9772463D01*
X32377203Y9807572D01*
X32367834Y9816713D01*
X32362934Y9822856D01*
X32041725Y10144063D01*
X32041703Y10144081D01*
X31734059Y10451725D01*
X31725419Y10459069D01*
X31717400Y10467191D01*
X31706591Y10475069D01*
X31696463Y10483675D01*
X31686744Y10489531D01*
X31677525Y10496250D01*
X31665597Y10502275D01*
X31654203Y10509141D01*
X31643650Y10513359D01*
X31633484Y10518494D01*
X31620775Y10522503D01*
X31608388Y10527456D01*
X31597259Y10529925D01*
X31586431Y10533341D01*
X31577109Y10534394D01*
X31560219Y10538138D01*
X31527716Y10539966D01*
X31518534Y10541000D01*
X31098797Y10541000D01*
X31091219Y10540384D01*
X31083644Y10540622D01*
X31066684Y10538394D01*
X31049619Y10537006D01*
X31042256Y10535181D01*
X31034728Y10534191D01*
X31018328Y10529247D01*
X31001731Y10525131D01*
X30994766Y10522144D01*
X30987488Y10519950D01*
X30972103Y10512425D01*
X30956384Y10505684D01*
X30949981Y10501606D01*
X30943166Y10498272D01*
X30929191Y10488359D01*
X30914772Y10479175D01*
X30909125Y10474131D01*
X30902919Y10469728D01*
X30890709Y10457675D01*
X30877978Y10446300D01*
X30873219Y10440406D01*
X30867806Y10435066D01*
X30857722Y10421225D01*
X30846972Y10407922D01*
X30843216Y10401325D01*
X30838747Y10395191D01*
X30831031Y10379916D01*
X30822566Y10365041D01*
X30819922Y10357922D01*
X30816503Y10351150D01*
X30811359Y10334850D01*
X30805397Y10318784D01*
X30803938Y10311322D01*
X30801656Y10304097D01*
X30800478Y10293659D01*
X30795919Y10270363D01*
X30795178Y10246659D01*
X30793997Y10236200D01*
X30793997Y10111563D01*
X30776684Y10046950D01*
X30741603Y9986188D01*
X30740806Y9985400D01*
X30732928Y9974591D01*
X30724322Y9964463D01*
X30718466Y9954744D01*
X30711747Y9945525D01*
X30705722Y9933597D01*
X30698856Y9922203D01*
X30694638Y9911650D01*
X30689503Y9901484D01*
X30685494Y9888775D01*
X30680541Y9876388D01*
X30678072Y9865259D01*
X30674656Y9854431D01*
X30673603Y9845109D01*
X30669859Y9828219D01*
X30668031Y9795716D01*
X30666997Y9786534D01*
X30666997Y9092391D01*
X30603272Y9028666D01*
X30595928Y9020025D01*
X30587806Y9012006D01*
X30579928Y9001197D01*
X30576628Y8997313D01*
X30042531Y8997313D01*
X30034953Y8996697D01*
X30027378Y8996934D01*
X30010419Y8994706D01*
X29993353Y8993319D01*
X29985991Y8991494D01*
X29978463Y8990503D01*
X29962063Y8985559D01*
X29945466Y8981444D01*
X29938500Y8978456D01*
X29931222Y8976263D01*
X29915838Y8968738D01*
X29900119Y8961997D01*
X29893716Y8957919D01*
X29886900Y8954584D01*
X29872925Y8944672D01*
X29858506Y8935488D01*
X29852859Y8930444D01*
X29846653Y8926041D01*
X29846613Y8926000D01*
X29846603Y8925994D01*
X29834419Y8913966D01*
X29821713Y8902613D01*
X29821706Y8902603D01*
X29821663Y8902566D01*
X29816903Y8896672D01*
X29811491Y8891331D01*
X29801406Y8877491D01*
X29790656Y8864188D01*
X29786900Y8857591D01*
X29782431Y8851456D01*
X29774716Y8836181D01*
X29766250Y8821306D01*
X29763606Y8814188D01*
X29760188Y8807416D01*
X29755044Y8791116D01*
X29749081Y8775050D01*
X29747622Y8767588D01*
X29745341Y8760363D01*
X29744163Y8749925D01*
X29739603Y8726628D01*
X29738863Y8702925D01*
X29737681Y8692466D01*
X29737681Y8073081D01*
X29731031Y8059916D01*
X29722566Y8045041D01*
X29719922Y8037922D01*
X29716503Y8031150D01*
X29711959Y8016747D01*
X29172272Y7477059D01*
X29164928Y7468419D01*
X29156806Y7460400D01*
X29148928Y7449591D01*
X29140322Y7439463D01*
X29134466Y7429744D01*
X29127747Y7420525D01*
X29121722Y7408597D01*
X29114856Y7397203D01*
X29110638Y7386650D01*
X29105503Y7376484D01*
X29101494Y7363775D01*
X29096541Y7351388D01*
X29094072Y7340259D01*
X29090656Y7329431D01*
X29089603Y7320109D01*
X29085859Y7303219D01*
X29084031Y7270703D01*
X29082997Y7261534D01*
X29082997Y5609784D01*
X28844950Y5371738D01*
X28844934Y5371725D01*
X28045213Y4572000D01*
X27962997Y4572000D01*
X27955419Y4571384D01*
X27947844Y4571622D01*
X27930884Y4569394D01*
X27913819Y4568006D01*
X27906456Y4566181D01*
X27898928Y4565191D01*
X27882528Y4560247D01*
X27865931Y4556131D01*
X27858966Y4553144D01*
X27851688Y4550950D01*
X27836303Y4543425D01*
X27820584Y4536684D01*
X27814181Y4532606D01*
X27807366Y4529272D01*
X27793391Y4519359D01*
X27778972Y4510175D01*
X27773325Y4505131D01*
X27767119Y4500728D01*
X27754909Y4488675D01*
X27742178Y4477300D01*
X27737419Y4471406D01*
X27732006Y4466066D01*
X27721922Y4452225D01*
X27711172Y4438922D01*
X27707416Y4432325D01*
X27702947Y4426191D01*
X27695231Y4410916D01*
X27686766Y4396041D01*
X27684122Y4388922D01*
X27680703Y4382150D01*
X27675559Y4365850D01*
X27669597Y4349784D01*
X27668138Y4342322D01*
X27665856Y4335097D01*
X27664678Y4324659D01*
X27660119Y4301363D01*
X27659378Y4277659D01*
X27658197Y4267200D01*
X27658197Y4181788D01*
X27592822Y4023956D01*
X27472041Y3903175D01*
X27314209Y3837800D01*
X27284863Y3837800D01*
X27273528Y3836878D01*
X27262147Y3836953D01*
X27248959Y3834884D01*
X27235684Y3833806D01*
X27224656Y3831072D01*
X27213403Y3829306D01*
X27200722Y3825138D01*
X27187797Y3821931D01*
X27177350Y3817450D01*
X27166531Y3813894D01*
X27154694Y3807734D01*
X27142450Y3802484D01*
X27132863Y3796378D01*
X27122763Y3791122D01*
X27115403Y3785253D01*
X27100838Y3775975D01*
X27076566Y3754288D01*
X27069338Y3748525D01*
X26114813Y2794000D01*
X21230784Y2794000D01*
X17780322Y6244466D01*
X17777434Y6246919D01*
X17774897Y6249759D01*
X17758578Y6262944D01*
X17742725Y6276416D01*
X17739491Y6278366D01*
X17736519Y6280766D01*
X17718275Y6291147D01*
X17700466Y6301881D01*
X17696950Y6303288D01*
X17693638Y6305172D01*
X17674025Y6312450D01*
X17654650Y6320197D01*
X17650941Y6321019D01*
X17647381Y6322341D01*
X17626928Y6326344D01*
X17606481Y6330878D01*
X17602672Y6331094D01*
X17598959Y6331819D01*
X17578163Y6332469D01*
X17557219Y6333647D01*
X17553428Y6333244D01*
X17549644Y6333363D01*
X17528950Y6330641D01*
X17508156Y6328431D01*
X17504497Y6327428D01*
X17500728Y6326931D01*
X17480697Y6320894D01*
X17460575Y6315369D01*
X17457128Y6313788D01*
X17453488Y6312691D01*
X17434694Y6303497D01*
X17415728Y6294800D01*
X17412578Y6292681D01*
X17409166Y6291013D01*
X17392094Y6278906D01*
X17374788Y6267266D01*
X17372028Y6264675D01*
X17368919Y6262469D01*
X17354025Y6247766D01*
X17338822Y6233488D01*
X17336509Y6230475D01*
X17333806Y6227806D01*
X17321481Y6210894D01*
X17308781Y6194347D01*
X17306991Y6191009D01*
X17304747Y6187931D01*
X17295291Y6169209D01*
X17285450Y6150872D01*
X17284222Y6147294D01*
X17282503Y6143891D01*
X17276213Y6123956D01*
X17269434Y6104203D01*
X17268797Y6100450D01*
X17267656Y6096838D01*
X17266622Y6087659D01*
X17261163Y6055563D01*
X17261050Y6038284D01*
X17259997Y6028941D01*
X17259997Y4819391D01*
X17228128Y4787522D01*
X17223219Y4781744D01*
X17217678Y4776541D01*
X17207241Y4762941D01*
X17196178Y4749925D01*
X17192269Y4743438D01*
X17187634Y4737400D01*
X17179528Y4722294D01*
X17170713Y4707666D01*
X17167897Y4700619D01*
X17164303Y4693925D01*
X17158753Y4677753D01*
X17152397Y4661850D01*
X17150750Y4654425D01*
X17148291Y4647256D01*
X17145428Y4630422D01*
X17141716Y4613681D01*
X17141288Y4606081D01*
X17140019Y4598616D01*
X17139909Y4581525D01*
X17138947Y4564419D01*
X17139750Y4556872D01*
X17139700Y4549278D01*
X17142353Y4532366D01*
X17144163Y4515356D01*
X17146172Y4508031D01*
X17147350Y4500534D01*
X17152691Y4484297D01*
X17157225Y4467775D01*
X17160394Y4460866D01*
X17162763Y4453663D01*
X17170656Y4438491D01*
X17177794Y4422928D01*
X17182031Y4416628D01*
X17185534Y4409894D01*
X17192088Y4401675D01*
X17205328Y4381988D01*
X17221591Y4364672D01*
X17228131Y4356469D01*
X17269750Y4314853D01*
X17271900Y4304206D01*
X17274259Y4297969D01*
X17275866Y4291484D01*
X17282966Y4274928D01*
X17289344Y4258053D01*
X17292684Y4252266D01*
X17295313Y4246138D01*
X17304994Y4230938D01*
X17314009Y4215322D01*
X17318238Y4210153D01*
X17321822Y4204525D01*
X17333825Y4191091D01*
X17345244Y4177128D01*
X17350250Y4172709D01*
X17354697Y4167731D01*
X17368734Y4156391D01*
X17382231Y4144475D01*
X17387869Y4140931D01*
X17393075Y4136725D01*
X17408784Y4127784D01*
X17424006Y4118216D01*
X17430144Y4115625D01*
X17435956Y4112319D01*
X17452866Y4106044D01*
X17469466Y4099041D01*
X17475953Y4097472D01*
X17482213Y4095150D01*
X17499891Y4091691D01*
X17517425Y4087453D01*
X17524094Y4086953D01*
X17530634Y4085672D01*
X17548631Y4085109D01*
X17566628Y4083756D01*
X17573284Y4084338D01*
X17579950Y4084128D01*
X17597806Y4086475D01*
X17615781Y4088044D01*
X17620863Y4089506D01*
X17628866Y4090559D01*
X17676106Y4104800D01*
X17679175Y4106300D01*
X17681441Y4106953D01*
X17694584Y4112397D01*
X17865409Y4112397D01*
X18023241Y4047022D01*
X18144022Y3926241D01*
X18209397Y3768409D01*
X18209397Y3597588D01*
X18144022Y3439756D01*
X18023241Y3318975D01*
X17865409Y3253600D01*
X17694584Y3253600D01*
X17681441Y3259044D01*
X17664316Y3264563D01*
X17647381Y3270847D01*
X17640825Y3272131D01*
X17634478Y3274175D01*
X17616634Y3276866D01*
X17598959Y3280325D01*
X17592306Y3280534D01*
X17585688Y3281531D01*
X17567625Y3281306D01*
X17549644Y3281869D01*
X17543028Y3281000D01*
X17536353Y3280916D01*
X17518625Y3277791D01*
X17500728Y3275438D01*
X17494322Y3273506D01*
X17487763Y3272350D01*
X17470781Y3266409D01*
X17453488Y3261197D01*
X17447484Y3258263D01*
X17441191Y3256059D01*
X17425347Y3247434D01*
X17409166Y3239519D01*
X17403728Y3235663D01*
X17397856Y3232466D01*
X17383628Y3221409D01*
X17368919Y3210975D01*
X17364153Y3206269D01*
X17358900Y3202188D01*
X17346672Y3189013D01*
X17333806Y3176313D01*
X17329872Y3170913D01*
X17325334Y3166025D01*
X17315369Y3151013D01*
X17304747Y3136438D01*
X17301734Y3130475D01*
X17298047Y3124919D01*
X17290628Y3108484D01*
X17282503Y3092397D01*
X17280497Y3086041D01*
X17277747Y3079947D01*
X17273072Y3062506D01*
X17267656Y3045344D01*
X17267066Y3040097D01*
X17264972Y3032291D01*
X17260050Y2983197D01*
X17260263Y2979794D01*
X17259997Y2977447D01*
X17259997Y2919391D01*
X17185606Y2845000D01*
X15580391Y2845000D01*
X15423666Y3001725D01*
X15415025Y3009069D01*
X15407006Y3017191D01*
X15396197Y3025069D01*
X15386069Y3033675D01*
X15376350Y3039531D01*
X15367131Y3046250D01*
X15355203Y3052275D01*
X15343809Y3059141D01*
X15333256Y3063359D01*
X15323091Y3068494D01*
X15310381Y3072503D01*
X15297994Y3077456D01*
X15286866Y3079925D01*
X15276038Y3083341D01*
X15266716Y3084394D01*
X15249825Y3088138D01*
X15217322Y3089966D01*
X15208141Y3091000D01*
X14454797Y3091000D01*
X14447219Y3090384D01*
X14439644Y3090622D01*
X14422684Y3088394D01*
X14405619Y3087006D01*
X14398256Y3085181D01*
X14390728Y3084191D01*
X14374328Y3079247D01*
X14357731Y3075131D01*
X14350766Y3072144D01*
X14343488Y3069950D01*
X14328103Y3062425D01*
X14312384Y3055684D01*
X14305981Y3051606D01*
X14299166Y3048272D01*
X14285191Y3038359D01*
X14270772Y3029175D01*
X14265125Y3024131D01*
X14258919Y3019728D01*
X14246709Y3007675D01*
X14233978Y2996300D01*
X14229219Y2990406D01*
X14223806Y2985066D01*
X14213722Y2971225D01*
X14202972Y2957922D01*
X14199216Y2951325D01*
X14194747Y2945191D01*
X14187031Y2929916D01*
X14178566Y2915041D01*
X14175922Y2907922D01*
X14172503Y2901150D01*
X14167359Y2884850D01*
X14161397Y2868784D01*
X14159938Y2861322D01*
X14157656Y2854097D01*
X14156478Y2843659D01*
X14151919Y2820363D01*
X14151178Y2796659D01*
X14149997Y2786200D01*
X14149997Y2592391D01*
X14075606Y2518000D01*
X12970391Y2518000D01*
X12896000Y2592391D01*
X12896000Y4032200D01*
X12895384Y4039778D01*
X12895622Y4047353D01*
X12893394Y4064313D01*
X12892006Y4081378D01*
X12890181Y4088741D01*
X12889191Y4096269D01*
X12884250Y4112656D01*
X12880131Y4129266D01*
X12877144Y4136231D01*
X12874950Y4143509D01*
X12867425Y4158894D01*
X12860684Y4174613D01*
X12856606Y4181016D01*
X12853272Y4187831D01*
X12843359Y4201806D01*
X12834175Y4216225D01*
X12829131Y4221872D01*
X12824728Y4228078D01*
X12812675Y4240288D01*
X12801300Y4253019D01*
X12795406Y4257778D01*
X12790066Y4263191D01*
X12776225Y4273275D01*
X12762922Y4284025D01*
X12756325Y4287781D01*
X12750191Y4292250D01*
X12734916Y4299966D01*
X12720041Y4308431D01*
X12712922Y4311075D01*
X12706150Y4314494D01*
X12689850Y4319638D01*
X12673784Y4325600D01*
X12666322Y4327059D01*
X12659097Y4329341D01*
X12648659Y4330519D01*
X12625363Y4335078D01*
X12601659Y4335819D01*
X12591200Y4337000D01*
X12554797Y4337000D01*
X12547219Y4336384D01*
X12539644Y4336622D01*
X12522684Y4334394D01*
X12505619Y4333006D01*
X12498256Y4331181D01*
X12490728Y4330191D01*
X12474328Y4325247D01*
X12457731Y4321131D01*
X12450766Y4318144D01*
X12443488Y4315950D01*
X12428103Y4308425D01*
X12412384Y4301684D01*
X12405981Y4297606D01*
X12399166Y4294272D01*
X12385191Y4284359D01*
X12370772Y4275175D01*
X12365125Y4270131D01*
X12358919Y4265728D01*
X12346709Y4253675D01*
X12333978Y4242300D01*
X12329219Y4236406D01*
X12323806Y4231066D01*
X12313722Y4217225D01*
X12302972Y4203922D01*
X12299216Y4197325D01*
X12294747Y4191191D01*
X12287031Y4175916D01*
X12278566Y4161041D01*
X12275922Y4153922D01*
X12272503Y4147150D01*
X12267359Y4130850D01*
X12261397Y4114784D01*
X12259938Y4107322D01*
X12257656Y4100097D01*
X12256478Y4089659D01*
X12251919Y4066363D01*
X12251178Y4042659D01*
X12249997Y4032200D01*
X12249997Y2592391D01*
X12175606Y2518000D01*
X11070391Y2518000D01*
G37*
%LPD*%
%LPC*%
G36*
X34249391Y2083000D02*
X34249391Y2083000D01*
X34175000Y2157391D01*
X34175000Y2695447D01*
X34173922Y2708706D01*
X34173841Y2721994D01*
X34171931Y2733244D01*
X34171006Y2744625D01*
X34167809Y2757522D01*
X34165581Y2770638D01*
X34161875Y2781444D01*
X34159131Y2792513D01*
X34153891Y2804734D01*
X34149578Y2817309D01*
X34144188Y2827359D01*
X34139684Y2837859D01*
X34132538Y2849081D01*
X34126256Y2860788D01*
X34119306Y2869844D01*
X34113175Y2879472D01*
X34104319Y2889384D01*
X34096225Y2899934D01*
X34087906Y2907753D01*
X34080300Y2916266D01*
X34069963Y2924619D01*
X34060272Y2933725D01*
X34050809Y2940091D01*
X34041922Y2947272D01*
X34030341Y2953863D01*
X34019334Y2961269D01*
X34008978Y2966022D01*
X33999041Y2971678D01*
X33986575Y2976306D01*
X33974494Y2981850D01*
X33963484Y2984875D01*
X33952784Y2988847D01*
X33939747Y2991400D01*
X33926916Y2994925D01*
X33915547Y2996134D01*
X33904363Y2998325D01*
X33891091Y2998741D01*
X33877856Y3000150D01*
X33866450Y2999513D01*
X33855047Y2999869D01*
X33841872Y2998138D01*
X33828594Y2997394D01*
X33817447Y2994925D01*
X33806131Y2993438D01*
X33793400Y2989600D01*
X33780419Y2986725D01*
X33772713Y2983363D01*
X33758891Y2979197D01*
X33723681Y2961975D01*
X33717791Y2959406D01*
X33702038Y2950309D01*
X33637434Y2933000D01*
X33279000Y2933000D01*
X33279000Y3916778D01*
X33278384Y3924356D01*
X33278622Y3931931D01*
X33277600Y3939709D01*
X33277819Y3946759D01*
X33279000Y3957219D01*
X33279000Y4940997D01*
X33637441Y4940997D01*
X33664309Y4933797D01*
X33686672Y4929709D01*
X33709038Y4925331D01*
X33710950Y4925272D01*
X33712844Y4924925D01*
X33735716Y4924497D01*
X33758353Y4923788D01*
X33760244Y4924038D01*
X33762175Y4924000D01*
X33784784Y4927263D01*
X33807269Y4930219D01*
X33809103Y4930772D01*
X33811009Y4931047D01*
X33832713Y4937888D01*
X33854509Y4944459D01*
X33856241Y4945306D01*
X33858066Y4945881D01*
X33878403Y4956147D01*
X33898831Y4966138D01*
X33900391Y4967244D01*
X33902113Y4968113D01*
X33920509Y4981513D01*
X33939078Y4994681D01*
X33940450Y4996038D01*
X33941997Y4997163D01*
X33957897Y5013259D01*
X33974191Y5029344D01*
X33975331Y5030906D01*
X33976669Y5032263D01*
X33989719Y5050650D01*
X34003250Y5069219D01*
X34004122Y5070947D01*
X34005225Y5072500D01*
X34015163Y5092803D01*
X34025494Y5113259D01*
X34026072Y5115091D01*
X34026916Y5116816D01*
X34033513Y5138672D01*
X34040341Y5160313D01*
X34040519Y5161881D01*
X34041172Y5164050D01*
X34047619Y5212969D01*
X34047331Y5222275D01*
X34048000Y5228209D01*
X34048000Y5443434D01*
X34065313Y5508047D01*
X34098750Y5565963D01*
X34146034Y5613247D01*
X34203950Y5646684D01*
X34268563Y5663997D01*
X34726994Y5663997D01*
X34726994Y4780219D01*
X34727609Y4772641D01*
X34727372Y4765066D01*
X34729600Y4748106D01*
X34730988Y4731041D01*
X34732813Y4723678D01*
X34733803Y4716150D01*
X34738747Y4699750D01*
X34742863Y4683153D01*
X34745850Y4676188D01*
X34748044Y4668909D01*
X34755569Y4653525D01*
X34762309Y4637806D01*
X34766388Y4631403D01*
X34769722Y4624588D01*
X34779634Y4610613D01*
X34788819Y4596194D01*
X34793863Y4590547D01*
X34798266Y4584341D01*
X34810319Y4572131D01*
X34821694Y4559400D01*
X34827588Y4554641D01*
X34832928Y4549228D01*
X34837056Y4546219D01*
X34838691Y4543916D01*
X34850744Y4531706D01*
X34862119Y4518975D01*
X34868013Y4514216D01*
X34873353Y4508803D01*
X34887194Y4498719D01*
X34900497Y4487969D01*
X34907094Y4484213D01*
X34913228Y4479744D01*
X34928503Y4472028D01*
X34943378Y4463563D01*
X34950497Y4460919D01*
X34957269Y4457500D01*
X34973569Y4452356D01*
X34989634Y4446394D01*
X34997097Y4444934D01*
X35004322Y4442653D01*
X35014759Y4441475D01*
X35038056Y4436916D01*
X35061759Y4436175D01*
X35072219Y4434994D01*
X37444778Y4434994D01*
X37452356Y4435609D01*
X37459931Y4435372D01*
X37467709Y4436394D01*
X37474759Y4436175D01*
X37485219Y4434994D01*
X38468997Y4434994D01*
X38468997Y4424128D01*
X38470534Y4405200D01*
X38471363Y4386234D01*
X38472528Y4380647D01*
X38472991Y4374950D01*
X38477572Y4356472D01*
X38481438Y4337934D01*
X38483491Y4332600D01*
X38484866Y4327063D01*
X38492347Y4309619D01*
X38499175Y4291894D01*
X38502063Y4286966D01*
X38504313Y4281716D01*
X38514503Y4265716D01*
X38524109Y4249316D01*
X38527763Y4244906D01*
X38530822Y4240103D01*
X38543447Y4225975D01*
X38555584Y4211322D01*
X38559894Y4207566D01*
X38563697Y4203309D01*
X38578475Y4191369D01*
X38592778Y4178903D01*
X38597622Y4175900D01*
X38602075Y4172303D01*
X38618609Y4162894D01*
X38634716Y4152909D01*
X38639988Y4150725D01*
X38644956Y4147897D01*
X38662775Y4141281D01*
X38680300Y4134022D01*
X38685853Y4132716D01*
X38691213Y4130728D01*
X38691903Y4130594D01*
X38686744Y4130109D01*
X38681050Y4130288D01*
X38662250Y4127816D01*
X38643325Y4126044D01*
X38637800Y4124600D01*
X38632131Y4123856D01*
X38613959Y4118378D01*
X38595584Y4113581D01*
X38590356Y4111263D01*
X38584894Y4109616D01*
X38567875Y4101291D01*
X38550481Y4093578D01*
X38545688Y4090441D01*
X38540569Y4087938D01*
X38525125Y4076981D01*
X38509197Y4066559D01*
X38504972Y4062691D01*
X38500325Y4059394D01*
X38486850Y4046094D01*
X38472813Y4033234D01*
X38470091Y4029547D01*
X38465213Y4024731D01*
X38436153Y3984859D01*
X38434091Y3980778D01*
X38432234Y3978263D01*
X38418253Y3954047D01*
X38399938Y3935731D01*
X38395022Y3929947D01*
X38389481Y3924744D01*
X38379066Y3911172D01*
X38367984Y3898134D01*
X38364059Y3891622D01*
X38359441Y3885603D01*
X38351366Y3870553D01*
X38342519Y3855875D01*
X38339691Y3848803D01*
X38336109Y3842128D01*
X38330556Y3825950D01*
X38324203Y3810059D01*
X38322556Y3802641D01*
X38320094Y3795459D01*
X38317225Y3778591D01*
X38313522Y3761891D01*
X38313094Y3754306D01*
X38311822Y3746819D01*
X38311713Y3729713D01*
X38310750Y3712628D01*
X38311553Y3705078D01*
X38311503Y3697481D01*
X38314156Y3680575D01*
X38315963Y3663566D01*
X38317972Y3656244D01*
X38319150Y3648738D01*
X38324500Y3632469D01*
X38329025Y3615984D01*
X38332188Y3609088D01*
X38334563Y3601866D01*
X38341997Y3587575D01*
X38341997Y2157391D01*
X38267606Y2083000D01*
X36656784Y2083000D01*
X36656550Y2083200D01*
X36637903Y2094434D01*
X36619403Y2106066D01*
X36616744Y2107188D01*
X36614291Y2108666D01*
X36594059Y2116753D01*
X36573944Y2125238D01*
X36571153Y2125913D01*
X36568478Y2126981D01*
X36547169Y2131706D01*
X36525981Y2136825D01*
X36523109Y2137041D01*
X36520306Y2137663D01*
X36498519Y2138888D01*
X36476781Y2140522D01*
X36473922Y2140272D01*
X36471047Y2140434D01*
X36449334Y2138128D01*
X36427628Y2136234D01*
X36425359Y2135581D01*
X36421981Y2135222D01*
X36374403Y2122159D01*
X36367053Y2118791D01*
X36361969Y2117325D01*
X36285381Y2085600D01*
X36100844Y2085600D01*
X36097091Y2086809D01*
X36076425Y2093900D01*
X36073600Y2094381D01*
X36070881Y2095256D01*
X36049344Y2098503D01*
X36027784Y2102169D01*
X36024916Y2102188D01*
X36022094Y2102613D01*
X36000272Y2102344D01*
X35978444Y2102481D01*
X35975622Y2102038D01*
X35972756Y2102003D01*
X35951238Y2098213D01*
X35929703Y2094831D01*
X35926988Y2093938D01*
X35924166Y2093441D01*
X35903569Y2086238D01*
X35893731Y2083000D01*
X34249391Y2083000D01*
G37*
%LPD*%
%LPC*%
G36*
X39001000Y3815000D02*
X39001000Y3815000D01*
X39001000Y3825863D01*
X38999466Y3844744D01*
X38998638Y3863753D01*
X38997469Y3869359D01*
X38997006Y3875041D01*
X38992441Y3893453D01*
X38988559Y3912053D01*
X38986506Y3917384D01*
X38985131Y3922928D01*
X38977656Y3940356D01*
X38970825Y3958094D01*
X38967931Y3963034D01*
X38965684Y3968275D01*
X38955484Y3984288D01*
X38945891Y4000672D01*
X38942253Y4005066D01*
X38939178Y4009891D01*
X38926519Y4024059D01*
X38914416Y4038669D01*
X38910106Y4042425D01*
X38906303Y4046681D01*
X38891538Y4058609D01*
X38877222Y4071088D01*
X38872366Y4074097D01*
X38867922Y4077688D01*
X38851438Y4087072D01*
X38835288Y4097081D01*
X38830003Y4099272D01*
X38825044Y4102094D01*
X38807272Y4108691D01*
X38789706Y4115969D01*
X38784134Y4117278D01*
X38778788Y4119263D01*
X38778084Y4119400D01*
X38783259Y4119884D01*
X38788950Y4119706D01*
X38807741Y4122178D01*
X38826678Y4123950D01*
X38832206Y4125394D01*
X38837866Y4126138D01*
X38856053Y4131622D01*
X38874419Y4136416D01*
X38879631Y4138728D01*
X38885106Y4140378D01*
X38902169Y4148725D01*
X38919519Y4156419D01*
X38924300Y4159550D01*
X38929428Y4162056D01*
X38944909Y4173034D01*
X38960803Y4183438D01*
X38965013Y4187294D01*
X38969675Y4190600D01*
X38983219Y4203972D01*
X38997188Y4216766D01*
X38999894Y4220431D01*
X39004788Y4225263D01*
X39033847Y4265138D01*
X39035913Y4269228D01*
X39037766Y4271738D01*
X39051753Y4295966D01*
X39099034Y4343247D01*
X39156947Y4376681D01*
X39157319Y4376781D01*
X39166284Y4379981D01*
X39175513Y4382269D01*
X39189459Y4388250D01*
X39203788Y4393363D01*
X39212122Y4397969D01*
X39220859Y4401716D01*
X39233672Y4409878D01*
X39246972Y4417228D01*
X39254453Y4423116D01*
X39262472Y4428225D01*
X39273784Y4438334D01*
X39285741Y4447744D01*
X39292175Y4454766D01*
X39299266Y4461100D01*
X39308819Y4472925D01*
X39319078Y4484119D01*
X39324281Y4492063D01*
X39330272Y4499478D01*
X39337803Y4512713D01*
X39346109Y4525394D01*
X39349963Y4534075D01*
X39354678Y4542359D01*
X39359972Y4556625D01*
X39366128Y4570491D01*
X39368531Y4579684D01*
X39371847Y4588616D01*
X39374763Y4603519D01*
X39378609Y4618225D01*
X39379500Y4627716D01*
X39381325Y4637038D01*
X39381800Y4652203D01*
X39383222Y4667350D01*
X39382572Y4676847D01*
X39382869Y4686353D01*
X39380888Y4701419D01*
X39379850Y4716572D01*
X39377678Y4725828D01*
X39376438Y4735269D01*
X39372050Y4749828D01*
X39368581Y4764609D01*
X39364944Y4773394D01*
X39362197Y4782509D01*
X39355519Y4796159D01*
X39349709Y4810197D01*
X39344697Y4818291D01*
X39340519Y4826831D01*
X39331725Y4839231D01*
X39323728Y4852141D01*
X39317488Y4859306D01*
X39311975Y4867078D01*
X39301294Y4877900D01*
X39291322Y4889347D01*
X39284003Y4895416D01*
X39277313Y4902191D01*
X39265013Y4911153D01*
X39253334Y4920834D01*
X39245141Y4925638D01*
X39237438Y4931250D01*
X39223859Y4938109D01*
X39210766Y4945781D01*
X39201894Y4949203D01*
X39193397Y4953494D01*
X39178900Y4958069D01*
X39164731Y4963531D01*
X39155416Y4965478D01*
X39146344Y4968341D01*
X39136297Y4969475D01*
X39116434Y4973625D01*
X39115228Y4973678D01*
X39041950Y4993313D01*
X38983594Y5027003D01*
X38967641Y5039894D01*
X38951741Y5053406D01*
X38948491Y5055366D01*
X38945519Y5057766D01*
X38927309Y5068128D01*
X38909484Y5078872D01*
X38905959Y5080281D01*
X38902638Y5082172D01*
X38883022Y5089453D01*
X38863669Y5097191D01*
X38859953Y5098016D01*
X38856381Y5099341D01*
X38835916Y5103347D01*
X38815500Y5107875D01*
X38811684Y5108091D01*
X38807959Y5108819D01*
X38787156Y5109469D01*
X38766241Y5110647D01*
X38762444Y5110244D01*
X38758644Y5110363D01*
X38737938Y5107641D01*
X38717175Y5105434D01*
X38713509Y5104428D01*
X38709728Y5103931D01*
X38689669Y5097884D01*
X38669597Y5092375D01*
X38666150Y5090794D01*
X38662488Y5089691D01*
X38652897Y5085000D01*
X37790000Y5085000D01*
X37790000Y5663994D01*
X38248434Y5663997D01*
X38313047Y5646684D01*
X38371403Y5612994D01*
X38387356Y5600103D01*
X38403256Y5586591D01*
X38406506Y5584631D01*
X38409478Y5582231D01*
X38427688Y5571869D01*
X38445513Y5561125D01*
X38449038Y5559716D01*
X38452359Y5557825D01*
X38471975Y5550544D01*
X38491328Y5542806D01*
X38495044Y5541981D01*
X38498616Y5540656D01*
X38519081Y5536650D01*
X38539497Y5532122D01*
X38543313Y5531906D01*
X38547038Y5531178D01*
X38567841Y5530528D01*
X38588756Y5529350D01*
X38592553Y5529753D01*
X38596353Y5529634D01*
X38617059Y5532356D01*
X38637822Y5534563D01*
X38641488Y5535569D01*
X38645269Y5536066D01*
X38665328Y5542113D01*
X38685400Y5547622D01*
X38688847Y5549203D01*
X38692509Y5550306D01*
X38711341Y5559516D01*
X38730250Y5568188D01*
X38733403Y5570306D01*
X38736831Y5571984D01*
X38753909Y5584097D01*
X38771194Y5595719D01*
X38773959Y5598319D01*
X38777078Y5600528D01*
X38791978Y5615238D01*
X38807159Y5629494D01*
X38809475Y5632509D01*
X38812191Y5635191D01*
X38824525Y5652116D01*
X38837203Y5668631D01*
X38839000Y5671978D01*
X38841250Y5675066D01*
X38850688Y5693750D01*
X38860541Y5712106D01*
X38861775Y5715703D01*
X38863494Y5719106D01*
X38869775Y5739013D01*
X38876556Y5758772D01*
X38877197Y5762534D01*
X38878341Y5766159D01*
X38879378Y5775347D01*
X38884834Y5807413D01*
X38884916Y5819994D01*
X39639994Y5819994D01*
X39639994Y4698797D01*
X39640609Y4691219D01*
X39640372Y4683644D01*
X39642600Y4666684D01*
X39643988Y4649619D01*
X39645813Y4642256D01*
X39646803Y4634728D01*
X39651747Y4618328D01*
X39655863Y4601731D01*
X39658850Y4594766D01*
X39661044Y4587488D01*
X39668569Y4572103D01*
X39675309Y4556384D01*
X39679388Y4549981D01*
X39679994Y4548744D01*
X39679994Y3815000D01*
X39001000Y3815000D01*
G37*
%LPD*%
%LPC*%
G36*
X34594813Y15544813D02*
X34594813Y15544813D01*
X34594813Y16408397D01*
X35296359Y16408397D01*
X35478003Y16379628D01*
X35652903Y16322800D01*
X35816772Y16239303D01*
X35965569Y16131194D01*
X36095594Y16001169D01*
X36203703Y15852372D01*
X36287200Y15688503D01*
X36333888Y15544813D01*
X34594813Y15544813D01*
G37*
%LPD*%
%LPC*%
G36*
X6578600Y20624813D02*
X6578600Y20624813D01*
X6578600Y21326359D01*
X6607369Y21508003D01*
X6664197Y21682903D01*
X6747694Y21846772D01*
X6855803Y21995569D01*
X6985828Y22125594D01*
X7134625Y22233703D01*
X7298494Y22317200D01*
X7442181Y22363888D01*
X7442181Y20624813D01*
X6578600Y20624813D01*
G37*
%LPD*%
%LPC*%
G36*
X7298494Y18322797D02*
X7298494Y18322797D01*
X7134625Y18406294D01*
X6985828Y18514403D01*
X6855803Y18644428D01*
X6747694Y18793225D01*
X6664197Y18957094D01*
X6607369Y19131994D01*
X6578600Y19313638D01*
X6578600Y20015181D01*
X7442181Y20015181D01*
X7442181Y18276109D01*
X7298494Y18322797D01*
G37*
%LPD*%
%LPC*%
G36*
X35377000Y5085000D02*
X35377000Y5085000D01*
X35377000Y5663994D01*
X35835434Y5663997D01*
X35900047Y5646684D01*
X35957963Y5613247D01*
X36008409Y5562800D01*
X36008828Y5562084D01*
X36016103Y5553306D01*
X36022588Y5543919D01*
X36031816Y5534338D01*
X36040306Y5524091D01*
X36048903Y5516597D01*
X36056819Y5508381D01*
X36067481Y5500409D01*
X36077503Y5491675D01*
X36087194Y5485669D01*
X36096331Y5478838D01*
X36108134Y5472694D01*
X36119444Y5465684D01*
X36129981Y5461319D01*
X36140097Y5456053D01*
X36152741Y5451891D01*
X36165025Y5446803D01*
X36176113Y5444200D01*
X36186963Y5440628D01*
X36200122Y5438559D01*
X36213059Y5435522D01*
X36224428Y5434741D01*
X36235706Y5432969D01*
X36249022Y5433050D01*
X36262281Y5432141D01*
X36273631Y5433203D01*
X36285044Y5433275D01*
X36298166Y5435503D01*
X36311406Y5436744D01*
X36322428Y5439622D01*
X36333688Y5441534D01*
X36346294Y5445856D01*
X36359144Y5449213D01*
X36369553Y5453831D01*
X36380359Y5457534D01*
X36392091Y5463828D01*
X36404247Y5469219D01*
X36413791Y5475466D01*
X36423841Y5480856D01*
X36434397Y5488953D01*
X36445528Y5496241D01*
X36453938Y5503944D01*
X36462988Y5510888D01*
X36472100Y5520584D01*
X36481909Y5529572D01*
X36486903Y5536341D01*
X36496775Y5546844D01*
X36505300Y5559513D01*
X36559034Y5613247D01*
X36616950Y5646684D01*
X36681563Y5663997D01*
X37139994Y5663997D01*
X37139994Y5085000D01*
X35377000Y5085000D01*
G37*
%LPD*%
%LPC*%
G36*
X36840000Y20010000D02*
X36840000Y20010000D01*
X36840000Y20688997D01*
X37198434Y20688997D01*
X37263034Y20671688D01*
X37312591Y20643075D01*
X37314294Y20642266D01*
X37315853Y20641219D01*
X37336563Y20631716D01*
X37357178Y20621944D01*
X37358984Y20621422D01*
X37360697Y20620638D01*
X37382709Y20614588D01*
X37404588Y20608284D01*
X37406453Y20608063D01*
X37408272Y20607563D01*
X37430891Y20605153D01*
X37453581Y20602450D01*
X37455472Y20602531D01*
X37457331Y20602334D01*
X37479966Y20603600D01*
X37502875Y20604600D01*
X37504725Y20604988D01*
X37506594Y20605091D01*
X37528863Y20610022D01*
X37551175Y20614675D01*
X37552919Y20615347D01*
X37554769Y20615756D01*
X37560709Y20618347D01*
X37597219Y20632409D01*
X37609678Y20639706D01*
X37617397Y20643072D01*
X37666956Y20671684D01*
X37731563Y20688997D01*
X38089994Y20688997D01*
X38089994Y20010000D01*
X36840000Y20010000D01*
G37*
%LPD*%
%LPC*%
G36*
X41285000Y20010000D02*
X41285000Y20010000D01*
X41285000Y20688997D01*
X41643434Y20688997D01*
X41708034Y20671688D01*
X41757591Y20643075D01*
X41759294Y20642266D01*
X41760853Y20641219D01*
X41781563Y20631716D01*
X41802178Y20621944D01*
X41803984Y20621422D01*
X41805697Y20620638D01*
X41827709Y20614588D01*
X41849588Y20608284D01*
X41851453Y20608063D01*
X41853272Y20607563D01*
X41875891Y20605153D01*
X41898581Y20602450D01*
X41900472Y20602531D01*
X41902331Y20602334D01*
X41924966Y20603600D01*
X41947875Y20604600D01*
X41949725Y20604988D01*
X41951594Y20605091D01*
X41973863Y20610022D01*
X41996175Y20614675D01*
X41997919Y20615347D01*
X41999769Y20615756D01*
X42005709Y20618347D01*
X42042219Y20632409D01*
X42054678Y20639706D01*
X42062397Y20643072D01*
X42111956Y20671684D01*
X42176563Y20688997D01*
X42534994Y20688997D01*
X42534994Y20010000D01*
X41285000Y20010000D01*
G37*
%LPD*%
%LPC*%
G36*
X37731566Y18681000D02*
X37731566Y18681000D01*
X37666956Y18698313D01*
X37617397Y18726925D01*
X37615703Y18727728D01*
X37614138Y18728781D01*
X37593369Y18738313D01*
X37572813Y18748053D01*
X37571006Y18748575D01*
X37569294Y18749359D01*
X37547372Y18755384D01*
X37525400Y18761716D01*
X37523519Y18761941D01*
X37521719Y18762434D01*
X37499197Y18764834D01*
X37476406Y18767547D01*
X37474516Y18767466D01*
X37472656Y18767663D01*
X37450016Y18766397D01*
X37427116Y18765397D01*
X37425266Y18765013D01*
X37423394Y18764906D01*
X37401238Y18760000D01*
X37378813Y18755322D01*
X37377047Y18754641D01*
X37375222Y18754238D01*
X37369347Y18751675D01*
X37332772Y18737584D01*
X37320319Y18730291D01*
X37312591Y18726922D01*
X37263034Y18698309D01*
X37198434Y18681000D01*
X36840000Y18681000D01*
X36840000Y19359994D01*
X38089994Y19359994D01*
X38089994Y18680997D01*
X37731566Y18681000D01*
G37*
%LPD*%
%LPC*%
G36*
X42176566Y18681000D02*
X42176566Y18681000D01*
X42111956Y18698313D01*
X42062397Y18726925D01*
X42060703Y18727728D01*
X42059138Y18728781D01*
X42038369Y18738313D01*
X42017813Y18748053D01*
X42016006Y18748575D01*
X42014294Y18749359D01*
X41992372Y18755384D01*
X41970400Y18761716D01*
X41968519Y18761941D01*
X41966719Y18762434D01*
X41944197Y18764834D01*
X41921406Y18767547D01*
X41919516Y18767466D01*
X41917656Y18767663D01*
X41895016Y18766397D01*
X41872116Y18765397D01*
X41870266Y18765013D01*
X41868394Y18764906D01*
X41846238Y18760000D01*
X41823813Y18755322D01*
X41822047Y18754641D01*
X41820222Y18754238D01*
X41814347Y18751675D01*
X41777772Y18737584D01*
X41765319Y18730291D01*
X41757591Y18726922D01*
X41708034Y18698309D01*
X41643434Y18681000D01*
X41285000Y18681000D01*
X41285000Y19359994D01*
X42534994Y19359994D01*
X42534994Y18680997D01*
X42176566Y18681000D01*
G37*
%LPD*%
%LPC*%
G36*
X40640000Y5819994D02*
X40640000Y5819994D01*
X41393994Y5819994D01*
X41393997Y5196563D01*
X41376684Y5131950D01*
X41343247Y5074034D01*
X41295963Y5026750D01*
X41238047Y4993313D01*
X41173434Y4976000D01*
X40931547Y4976000D01*
X40922053Y4975228D01*
X40912544Y4975406D01*
X40897513Y4973238D01*
X40882369Y4972006D01*
X40873138Y4969716D01*
X40863713Y4968356D01*
X40849213Y4963784D01*
X40834481Y4960131D01*
X40825744Y4956384D01*
X40816656Y4953519D01*
X40803084Y4946666D01*
X40789134Y4940684D01*
X40781113Y4935575D01*
X40772609Y4931281D01*
X40760313Y4922322D01*
X40747522Y4914175D01*
X40740438Y4907844D01*
X40732731Y4902231D01*
X40722050Y4891416D01*
X40710728Y4881300D01*
X40704744Y4873894D01*
X40698059Y4867125D01*
X40689278Y4854750D01*
X40679722Y4842922D01*
X40675009Y4834644D01*
X40669506Y4826888D01*
X40662831Y4813247D01*
X40655316Y4800041D01*
X40652000Y4791109D01*
X40647822Y4782569D01*
X40643438Y4768041D01*
X40640000Y4758778D01*
X40640000Y5819994D01*
G37*
%LPD*%
%LPC*%
G36*
X40640000Y17040000D02*
X40640000Y17040000D01*
X40640000Y17883997D01*
X41173434Y17883997D01*
X41238047Y17866684D01*
X41295963Y17833247D01*
X41343247Y17785963D01*
X41376684Y17728047D01*
X41393997Y17663434D01*
X41393997Y17040000D01*
X40640000Y17040000D01*
G37*
%LPD*%
%LPC*%
G36*
X42816000Y17040000D02*
X42816000Y17040000D01*
X42816000Y17663434D01*
X42833313Y17728047D01*
X42866750Y17785963D01*
X42914034Y17833247D01*
X42971950Y17866684D01*
X43036563Y17883997D01*
X43569994Y17883997D01*
X43569994Y17040000D01*
X42816000Y17040000D01*
G37*
%LPD*%
%LPC*%
G36*
X38886000Y17040000D02*
X38886000Y17040000D01*
X38886000Y17663434D01*
X38903313Y17728047D01*
X38936750Y17785963D01*
X38984034Y17833247D01*
X39041950Y17866684D01*
X39106563Y17883997D01*
X39639994Y17883997D01*
X39639994Y17040000D01*
X38886000Y17040000D01*
G37*
%LPD*%
%LPC*%
G36*
X42816000Y6820000D02*
X42816000Y6820000D01*
X42816000Y7443434D01*
X42833313Y7508047D01*
X42866750Y7565963D01*
X42914034Y7613247D01*
X42971950Y7646684D01*
X43036563Y7663997D01*
X43569994Y7663997D01*
X43569994Y6820000D01*
X42816000Y6820000D01*
G37*
%LPD*%
%LPC*%
G36*
X43036563Y15196000D02*
X43036563Y15196000D01*
X42971950Y15213313D01*
X42914034Y15246750D01*
X42866750Y15294034D01*
X42833313Y15351950D01*
X42816000Y15416563D01*
X42816000Y16039994D01*
X43569994Y16039994D01*
X43569994Y15196000D01*
X43036563Y15196000D01*
G37*
%LPD*%
%LPC*%
G36*
X40330000Y3815000D02*
X40330000Y3815000D01*
X40330000Y4393994D01*
X40335200Y4393994D01*
X40342778Y4394609D01*
X40350353Y4394372D01*
X40367313Y4396600D01*
X40384378Y4397988D01*
X40391741Y4399813D01*
X40399269Y4400803D01*
X40415669Y4405747D01*
X40432266Y4409863D01*
X40439231Y4412850D01*
X40446509Y4415044D01*
X40461881Y4422563D01*
X40477613Y4429309D01*
X40484016Y4433388D01*
X40490831Y4436722D01*
X40504806Y4446634D01*
X40519225Y4455819D01*
X40524872Y4460863D01*
X40531078Y4465266D01*
X40543288Y4477319D01*
X40556019Y4488694D01*
X40560778Y4494588D01*
X40566191Y4499928D01*
X40576275Y4513769D01*
X40587025Y4527072D01*
X40590781Y4533669D01*
X40595250Y4539803D01*
X40602966Y4555078D01*
X40611431Y4569953D01*
X40614075Y4577072D01*
X40617494Y4583844D01*
X40622638Y4600144D01*
X40628600Y4616209D01*
X40630059Y4623672D01*
X40630816Y4626069D01*
X40631578Y4622181D01*
X40633556Y4607131D01*
X40636303Y4598016D01*
X40638131Y4588675D01*
X40643409Y4574447D01*
X40647797Y4559891D01*
X40651984Y4551331D01*
X40655291Y4542416D01*
X40662800Y4529213D01*
X40669475Y4515569D01*
X40674978Y4507809D01*
X40679688Y4499531D01*
X40689234Y4487709D01*
X40698019Y4475322D01*
X40704706Y4468550D01*
X40710684Y4461144D01*
X40721997Y4451031D01*
X40732681Y4440209D01*
X40740394Y4434588D01*
X40747472Y4428263D01*
X40760253Y4420116D01*
X40772556Y4411150D01*
X40781056Y4406856D01*
X40789078Y4401744D01*
X40798509Y4398041D01*
X40816597Y4388906D01*
X40843041Y4380563D01*
X40852681Y4376778D01*
X40853059Y4376678D01*
X40910963Y4343247D01*
X40958247Y4295963D01*
X40991684Y4238047D01*
X41008997Y4173434D01*
X41008997Y3815000D01*
X40330000Y3815000D01*
G37*
%LPD*%
%LPC*%
G36*
X43185000Y20010000D02*
X43185000Y20010000D01*
X43185000Y20688997D01*
X43543434Y20688997D01*
X43608047Y20671684D01*
X43665963Y20638247D01*
X43713247Y20590963D01*
X43746684Y20533047D01*
X43763997Y20468434D01*
X43763997Y20010000D01*
X43185000Y20010000D01*
G37*
%LPD*%
%LPC*%
G36*
X38740000Y20010000D02*
X38740000Y20010000D01*
X38740000Y20688997D01*
X39098434Y20688997D01*
X39163047Y20671684D01*
X39220963Y20638247D01*
X39268247Y20590963D01*
X39301684Y20533047D01*
X39318997Y20468434D01*
X39318997Y20010000D01*
X38740000Y20010000D01*
G37*
%LPD*%
%LPC*%
G36*
X31567000Y16515000D02*
X31567000Y16515000D01*
X31567000Y17093997D01*
X32025434Y17093997D01*
X32090047Y17076684D01*
X32147963Y17043247D01*
X32195247Y16995963D01*
X32228684Y16938047D01*
X32245997Y16873434D01*
X32245997Y16515000D01*
X31567000Y16515000D01*
G37*
%LPD*%
%LPC*%
G36*
X30237997Y16515000D02*
X30237997Y16515000D01*
X30238000Y16873431D01*
X30255313Y16938047D01*
X30288750Y16995963D01*
X30336034Y17043247D01*
X30393950Y17076684D01*
X30458563Y17093997D01*
X30916994Y17093997D01*
X30916994Y16515000D01*
X30237997Y16515000D01*
G37*
%LPD*%
%LPC*%
G36*
X43185000Y18681000D02*
X43185000Y18681000D01*
X43185000Y19359994D01*
X43763997Y19359994D01*
X43763997Y18901563D01*
X43746684Y18836950D01*
X43713247Y18779034D01*
X43665963Y18731750D01*
X43608047Y18698313D01*
X43543434Y18681000D01*
X43185000Y18681000D01*
G37*
%LPD*%
%LPC*%
G36*
X38740000Y18681000D02*
X38740000Y18681000D01*
X38740000Y19359994D01*
X39318997Y19359994D01*
X39318997Y18901563D01*
X39301684Y18836950D01*
X39268247Y18779034D01*
X39220963Y18731750D01*
X39163047Y18698313D01*
X39098434Y18681000D01*
X38740000Y18681000D01*
G37*
%LPD*%
%LPC*%
G36*
X40056000Y20010000D02*
X40056000Y20010000D01*
X40056000Y20468434D01*
X40073313Y20533047D01*
X40106750Y20590963D01*
X40154034Y20638247D01*
X40211950Y20671684D01*
X40276563Y20688997D01*
X40634994Y20688997D01*
X40634994Y20010000D01*
X40056000Y20010000D01*
G37*
%LPD*%
%LPC*%
G36*
X35611000Y20010000D02*
X35611000Y20010000D01*
X35611000Y20468434D01*
X35628313Y20533047D01*
X35661750Y20590963D01*
X35709034Y20638247D01*
X35766950Y20671684D01*
X35831563Y20688997D01*
X36189994Y20688997D01*
X36189994Y20010000D01*
X35611000Y20010000D01*
G37*
%LPD*%
%LPC*%
G36*
X25070000Y17216000D02*
X25070000Y17216000D01*
X25070000Y17674434D01*
X25087313Y17739047D01*
X25120750Y17796963D01*
X25168034Y17844247D01*
X25225950Y17877684D01*
X25290563Y17894997D01*
X25648994Y17894997D01*
X25648994Y17216000D01*
X25070000Y17216000D01*
G37*
%LPD*%
%LPC*%
G36*
X35831566Y18681000D02*
X35831566Y18681000D01*
X35766950Y18698313D01*
X35709034Y18731750D01*
X35661750Y18779034D01*
X35628313Y18836950D01*
X35611000Y18901563D01*
X35611000Y19359994D01*
X36189994Y19359994D01*
X36189994Y18680997D01*
X35831566Y18681000D01*
G37*
%LPD*%
%LPC*%
G36*
X40276566Y18681000D02*
X40276566Y18681000D01*
X40211950Y18698313D01*
X40154034Y18731750D01*
X40106750Y18779034D01*
X40073313Y18836950D01*
X40056000Y18901563D01*
X40056000Y19359994D01*
X40634994Y19359994D01*
X40634994Y18680997D01*
X40276566Y18681000D01*
G37*
%LPD*%
D10*
X31242000Y14290000D03*
X31242000Y16190000D03*
D11*
X40960000Y19685000D03*
X42860000Y19685000D03*
D12*
X30240000Y9295000D03*
X30240000Y9795000D03*
X30240000Y10295000D03*
X30240000Y10795000D03*
X30240000Y11295000D03*
X30240000Y11795000D03*
X30240000Y12295000D03*
D13*
X29440000Y13095000D03*
X28940000Y13095000D03*
X28440000Y13095000D03*
X27940000Y13095000D03*
X27440000Y13095000D03*
X26940000Y13095000D03*
X26440000Y13095000D03*
D12*
X25640000Y12295000D03*
X25640000Y11795000D03*
X25640000Y11295000D03*
X25640000Y10795000D03*
X25640000Y10295000D03*
X25640000Y9795000D03*
X25640000Y9295000D03*
D13*
X26440000Y8495000D03*
X26940000Y8495000D03*
X27440000Y8495000D03*
X27940000Y8495000D03*
X28440000Y8495000D03*
X28940000Y8495000D03*
X29440000Y8495000D03*
D14*
X27940000Y10795000D03*
D15*
X30042500Y8692500D03*
D16*
X33375600Y7620000D02*
X35204400Y7620000D01*
X35204400Y10160000D02*
X33375600Y10160000D01*
X33375600Y12700000D02*
X35204400Y12700000D01*
X35204400Y15240000D02*
X33375600Y15240000D01*
X4597400Y16891000D02*
X2768600Y16891000D01*
X2768600Y14351000D02*
X4597400Y14351000D01*
X4597400Y11811000D02*
X2768600Y11811000D01*
X2768600Y9271000D02*
X4597400Y9271000D01*
X4597400Y6731000D02*
X2768600Y6731000D01*
X2768600Y4191000D02*
X4597400Y4191000D01*
X20447000Y19405600D02*
X20447000Y21234400D01*
X17907000Y21234400D02*
X17907000Y19405600D01*
X15367000Y19405600D02*
X15367000Y21234400D01*
X12827000Y21234400D02*
X12827000Y19405600D01*
X10287000Y19405600D02*
X10287000Y21234400D01*
X7747000Y21234400D02*
X7747000Y19405600D01*
D17*
X31115000Y6235000D03*
X31115000Y7735000D03*
X21971000Y11823000D03*
X21971000Y13323000D03*
X24003000Y11823000D03*
X24003000Y13323000D03*
D18*
X12573000Y11346000D03*
X11623000Y13546000D03*
X13523000Y13546000D03*
X12573000Y5545000D03*
X13523000Y3345000D03*
X11623000Y3345000D03*
D10*
X35052000Y4760000D03*
X35052000Y2860000D03*
D11*
X31054000Y3937000D03*
X32954000Y3937000D03*
D10*
X21844000Y8448000D03*
X21844000Y10348000D03*
X24003000Y8448000D03*
X24003000Y10348000D03*
D11*
X25974000Y16891000D03*
X27874000Y16891000D03*
D10*
X19050000Y8448000D03*
X19050000Y10348000D03*
D11*
X13904000Y9017000D03*
X12004000Y9017000D03*
X28813800Y14782800D03*
X26913800Y14782800D03*
X36515000Y19685000D03*
X38415000Y19685000D03*
D10*
X16256000Y13396000D03*
X16256000Y11496000D03*
X16383000Y3622000D03*
X16383000Y5522000D03*
X40005000Y3490000D03*
X40005000Y1590000D03*
X43815000Y3490000D03*
X43815000Y1590000D03*
X37465000Y4760000D03*
X37465000Y2860000D03*
D19*
X39565000Y8230000D03*
X39565000Y9030000D03*
X39565000Y13830000D03*
X39565000Y14630000D03*
D20*
X39565000Y9680000D03*
X39565000Y13180000D03*
X39565000Y10180000D03*
X39565000Y12680000D03*
X39565000Y10680000D03*
X39565000Y12180000D03*
X39565000Y11180000D03*
X39565000Y11680000D03*
D21*
X40140000Y6320000D03*
X40140000Y16540000D03*
X44070000Y6320000D03*
X44070000Y16540000D03*
D22*
X42860000Y19685000D02*
X42860000Y20640000D01*
X42545000Y20955000D01*
X36830000Y20955000D01*
X36515000Y20640000D01*
X36515000Y19685000D01*
X36515000Y15240000D01*
X40005000Y3490000D02*
X43815000Y3490000D01*
X40005000Y3490000D02*
X39370000Y3490000D01*
X38100000Y4760000D01*
X37465000Y4760000D01*
X35052000Y4760000D01*
X37465000Y4760000D02*
X37465000Y6595000D01*
X39075000Y8205000D01*
D23*
X33020000Y5080000D03*
D22*
X34732000Y5080000D02*
X35052000Y4760000D01*
D24*
X30980000Y10295000D02*
X30240000Y10295000D01*
X30042500Y8692500D02*
X30042500Y7422500D01*
X30480000Y6985000D01*
X32358231Y6985000D01*
X32891631Y6451600D01*
X32918400Y6451600D01*
X33655000Y5715000D01*
X34290000Y5715000D01*
X35052000Y4953000D01*
X35052000Y4760000D01*
X31750000Y9525000D02*
X30980000Y10295000D01*
X31750000Y9525000D02*
X31750000Y8890000D01*
X31249000Y8389000D01*
X30346000Y8389000D02*
X30042500Y8692500D01*
X30346000Y8389000D02*
X31249000Y8389000D01*
X32954000Y5014000D02*
X32954000Y3937000D01*
X32954000Y5014000D02*
X33020000Y5080000D01*
X33777000Y4760000D02*
X32954000Y3937000D01*
X33777000Y4760000D02*
X35052000Y4760000D01*
D25*
X32893000Y2667000D03*
D22*
X32893000Y3876000D01*
X32954000Y3937000D01*
D24*
X25974000Y16891000D02*
X24765000Y16891000D01*
X24638000Y16764000D01*
D25*
X24638000Y16764000D03*
X18288000Y16129000D03*
D22*
X6403975Y15595600D02*
X4927600Y15595600D01*
X6403975Y15595600D02*
X6937375Y16129000D01*
X18288000Y16129000D01*
X38415000Y19685000D02*
X40005000Y19685000D01*
X40960000Y19685000D01*
X40005000Y19685000D02*
X40005000Y16103000D01*
X42860000Y19685000D02*
X44070000Y18475000D01*
X44070000Y16540000D01*
X39565000Y14630000D02*
X38075000Y14630000D01*
X37465000Y15240000D01*
X36515000Y15240000D01*
X39565000Y15965000D02*
X40140000Y16540000D01*
X39565000Y15965000D02*
X39565000Y14630000D01*
X43815000Y6065000D02*
X43815000Y3490000D01*
X43815000Y6065000D02*
X44070000Y6320000D01*
X39565000Y8230000D02*
X39540000Y8205000D01*
X39075000Y8205000D01*
X39565000Y8230000D02*
X39565000Y6545000D01*
X39370000Y6350000D01*
X39400000Y6320000D01*
X40140000Y6320000D01*
D26*
X40140000Y16540000D02*
X40140000Y19550000D01*
X40005000Y19685000D01*
D22*
X31943000Y16190000D02*
X31242000Y16190000D01*
X31943000Y16190000D02*
X32893000Y15240000D01*
X34290000Y15240000D01*
D24*
X30240000Y10295000D02*
X28440000Y10295000D01*
X27940000Y10795000D01*
D26*
X44070000Y6320000D02*
X44070000Y16540000D01*
X36515000Y15240000D02*
X34290000Y15240000D01*
D22*
X4927600Y15595600D02*
X3683000Y14351000D01*
D24*
X29440000Y13095000D02*
X31532800Y13095000D01*
X31800800Y12827000D01*
D25*
X31800800Y12827000D03*
D23*
X36576000Y9017000D03*
D26*
X36589000Y9030000D02*
X39565000Y9030000D01*
X36589000Y9030000D02*
X36576000Y9017000D01*
X36589000Y13830000D02*
X39565000Y13830000D01*
X36589000Y13830000D02*
X36576000Y13843000D01*
D25*
X36576000Y13843000D03*
D26*
X36576000Y9017000D02*
X35179000Y7620000D01*
D22*
X34290000Y7620000D01*
X31230000Y7620000D01*
X31115000Y7735000D01*
D23*
X37465000Y10160000D03*
X36195000Y2540000D03*
D24*
X36195000Y2860000D02*
X37465000Y2860000D01*
X36195000Y2860000D02*
X35052000Y2860000D01*
X36195000Y2860000D02*
X36195000Y2540000D01*
X37465000Y10160000D02*
X37485000Y10180000D01*
X39565000Y10180000D01*
X37338000Y12954000D02*
X37564000Y13180000D01*
D23*
X37338000Y12954000D03*
X42037000Y1270000D03*
D24*
X43495000Y1270000D02*
X43815000Y1590000D01*
X43495000Y1270000D02*
X42037000Y1270000D01*
X40325000Y1270000D02*
X40005000Y1590000D01*
X40325000Y1270000D02*
X42037000Y1270000D01*
X39565000Y13180000D02*
X37564000Y13180000D01*
X37465000Y11680000D02*
X36580000Y11680000D01*
X35560000Y12700000D01*
D23*
X40640000Y10795000D03*
X37465000Y12065000D03*
D24*
X37465000Y11680000D01*
X31615000Y11295000D02*
X30240000Y11295000D01*
X31615000Y11295000D02*
X33020000Y12700000D01*
X40525000Y10680000D02*
X40640000Y10795000D01*
X40525000Y10680000D02*
X39565000Y10680000D01*
X39565000Y11680000D02*
X40390000Y11680000D01*
X40767000Y11303000D01*
X40767000Y10922000D01*
X40640000Y10795000D01*
X35560000Y12700000D02*
X34290000Y12700000D01*
X33020000Y12700000D01*
X35560000Y10160000D02*
X36580000Y11180000D01*
X35560000Y10160000D02*
X34290000Y10160000D01*
X32385000Y10160000D02*
X31750000Y10795000D01*
X32385000Y10160000D02*
X34290000Y10160000D01*
X36580000Y11180000D02*
X38100000Y11180000D01*
X39565000Y11180000D01*
X39565000Y12180000D02*
X38342000Y12180000D01*
X38100000Y11938000D01*
X38100000Y11180000D01*
X31750000Y10795000D02*
X30240000Y10795000D01*
X31115000Y6235000D02*
X31115000Y3998000D01*
X31054000Y3937000D01*
X30845000Y11795000D02*
X30240000Y11795000D01*
X30845000Y11795000D02*
X31115000Y12065000D01*
X30885000Y12295000D02*
X30240000Y12295000D01*
X30885000Y12295000D02*
X31115000Y12065000D01*
D23*
X31115000Y12065000D03*
D24*
X24892000Y11938000D02*
X24892000Y13208000D01*
D25*
X24892000Y11938000D03*
D24*
X24892000Y13208000D02*
X24777000Y13323000D01*
X24003000Y13323000D01*
X21971000Y13323000D01*
D22*
X21971000Y13471031D01*
X18551031Y16891000D01*
D24*
X24688800Y14782800D02*
X26913800Y14782800D01*
X24688800Y14782800D02*
X24003000Y14097000D01*
X24003000Y13323000D01*
D25*
X32385000Y13970000D03*
D24*
X31562000Y13970000D01*
X31242000Y14290000D01*
D22*
X18551031Y16891000D02*
X3683000Y16891000D01*
D24*
X11623000Y4591000D02*
X11623000Y3345000D01*
X11623000Y4591000D02*
X13178213Y4591000D01*
X15748000Y7160788D01*
X15748000Y10988000D02*
X16256000Y11496000D01*
X15748000Y10988000D02*
X15748000Y7160788D01*
X15113000Y11956000D02*
X13523000Y13546000D01*
X15113000Y11956000D02*
X15113000Y7747000D01*
D25*
X15113000Y7747000D03*
X16332200Y7239000D03*
D24*
X16332200Y5572800D01*
X16383000Y5522000D01*
X20574000Y4826000D02*
X27940000Y4826000D01*
X28829000Y5715000D01*
X29440000Y8104000D02*
X29440000Y8495000D01*
X11623000Y13546000D02*
X11623000Y14732000D01*
X16256000Y14351000D02*
X16256000Y13396000D01*
X15875000Y14732000D02*
X11623000Y14732000D01*
X15875000Y14732000D02*
X16256000Y14351000D01*
X17653000Y7747000D02*
X20574000Y4826000D01*
X17653000Y7747000D02*
X17653000Y11999000D01*
X16256000Y13396000D01*
D25*
X16510000Y14808200D03*
D24*
X16510000Y13650000D01*
X16256000Y13396000D01*
X28829000Y7493000D02*
X28829000Y5715000D01*
X28829000Y7493000D02*
X29440000Y8104000D01*
X27440000Y7882000D02*
X27440000Y8495000D01*
X27440000Y7882000D02*
X27305000Y7747000D01*
D25*
X27305000Y7747000D03*
D24*
X16383000Y3622000D02*
X16106000Y3345000D01*
X13523000Y3345000D01*
D25*
X17780000Y3683000D03*
D24*
X17719000Y3622000D01*
X16383000Y3622000D01*
X21844000Y10348000D02*
X21971000Y10475000D01*
X21971000Y11823000D01*
X24003000Y11823000D02*
X24003000Y10348000D01*
X28940000Y13095000D02*
X28940000Y14656600D01*
X28813800Y14782800D01*
X12573000Y5545000D02*
X8085000Y5545000D01*
X6731000Y4191000D02*
X3683000Y4191000D01*
X6731000Y4191000D02*
X8085000Y5545000D01*
X9398000Y11346000D02*
X12573000Y11346000D01*
X9398000Y11346000D02*
X8466000Y10414000D01*
X7620000Y10414000D01*
X7239000Y10033000D01*
X6985000Y6731000D02*
X3683000Y6731000D01*
X7239000Y6985000D02*
X7239000Y10033000D01*
X7239000Y6985000D02*
X6985000Y6731000D01*
X27874000Y13161000D02*
X27874000Y16891000D01*
X27874000Y13161000D02*
X27940000Y13095000D01*
X28440000Y8495000D02*
X28344000Y8399000D01*
X28344000Y5834181D01*
X27716819Y5207000D01*
X24130000Y5207000D01*
X21844000Y7493000D02*
X21844000Y8448000D01*
X21844000Y7493000D02*
X24130000Y5207000D01*
X21844000Y8448000D02*
X19050000Y8448000D01*
D25*
X17018000Y10160000D03*
D24*
X17094200Y10083800D01*
X17094200Y8382000D01*
D25*
X17094200Y8382000D03*
X19202400Y6985000D03*
D24*
X19050000Y7137400D01*
X19050000Y8448000D01*
X27559000Y7112000D02*
X27940000Y7493000D01*
X27559000Y7112000D02*
X26822400Y7112000D01*
X24765000Y7112000D01*
X24003000Y7874000D01*
X24003000Y8448000D01*
X27940000Y8495000D02*
X27940000Y7493000D01*
X26822400Y7112000D02*
X26822400Y5765800D01*
D25*
X26822400Y5765800D03*
X27228800Y4267200D03*
D24*
X26009600Y3048000D01*
X21336000Y3048000D01*
X16433800Y7950200D02*
X16433800Y9067800D01*
X16433800Y7950200D02*
X21336000Y3048000D01*
D25*
X16433800Y9067800D03*
X13970000Y10363200D03*
D24*
X13970000Y9083000D01*
X13904000Y9017000D01*
X17907000Y19304000D02*
X17907000Y20320000D01*
X17907000Y19304000D02*
X16256000Y17653000D01*
D25*
X12827000Y17653000D03*
X14224000Y11684000D03*
D24*
X14224000Y10617200D01*
X13970000Y10363200D01*
X12827000Y17653000D02*
X16256000Y17653000D01*
X8709788Y15367000D02*
X7112000Y13769213D01*
X7112000Y12573000D01*
X6350000Y11811000D01*
X3683000Y11811000D01*
X19050000Y10348000D02*
X19050000Y13589000D01*
X17272000Y15367000D01*
X8709788Y15367000D01*
X7797800Y9017000D02*
X12004000Y9017000D01*
D25*
X7797800Y9017000D03*
X6680200Y8255000D03*
D24*
X5664200Y9271000D01*
X3683000Y9271000D01*
X25781000Y7874000D02*
X26628213Y7874000D01*
X25781000Y7874000D02*
X25086000Y8569000D01*
X25086000Y9144000D01*
X24786000Y9444000D01*
X20747000Y9444000D02*
X20574000Y9271000D01*
X20747000Y9444000D02*
X24786000Y9444000D01*
X26628213Y7874000D02*
X26940000Y8185788D01*
X26940000Y8495000D01*
D25*
X20574000Y9271000D03*
M02*
