G04 EAGLE Gerber X2 export*
%TF.Part,Single*%
%TF.FileFunction,Copper,L2,Bot,Mixed*%
%TF.FilePolarity,Positive*%
%TF.GenerationSoftware,Autodesk,EAGLE,9.6.2*%
%TF.CreationDate,2022-05-14T18:51:59Z*%
G75*
%MOMM*%
%FSLAX46Y46*%
%LPD*%
%INBottom Copper*%
%AMOC8*
5,1,8,0,0,1.08239X$1,22.5*%
G01*
%ADD10R,1.500000X1.300000*%
%ADD11R,1.300000X1.500000*%
%ADD12R,2.235200X1.219200*%
%ADD13R,2.200000X3.600000*%
%ADD14C,1.828800*%
%ADD15C,0.508000*%
%ADD16C,0.502400*%
%ADD17C,0.452400*%
%ADD18C,0.254000*%

G36*
X41866403Y221150D02*
X41866403Y221150D01*
X41880647Y221328D01*
X41890944Y223144D01*
X41901378Y223991D01*
X41915216Y227422D01*
X41929238Y229894D01*
X41939106Y233347D01*
X41949266Y235866D01*
X41962372Y241488D01*
X41975809Y246188D01*
X41984991Y251184D01*
X41994613Y255313D01*
X42006628Y262966D01*
X42019144Y269781D01*
X42027416Y276209D01*
X42036225Y281822D01*
X42037100Y282603D01*
X42039231Y280722D01*
X42051263Y273159D01*
X42062806Y264747D01*
X42072172Y260016D01*
X42081003Y254466D01*
X42094100Y248941D01*
X42106847Y242503D01*
X42116834Y239350D01*
X42126463Y235291D01*
X42140316Y231944D01*
X42153900Y227656D01*
X42161688Y226778D01*
X42174422Y223700D01*
X42217984Y220428D01*
X42221797Y219997D01*
X44885200Y219997D01*
X44892778Y220613D01*
X44900353Y220375D01*
X44917313Y222603D01*
X44934378Y223991D01*
X44941741Y225816D01*
X44949269Y226806D01*
X44965669Y231750D01*
X44982266Y235866D01*
X44989231Y238853D01*
X44996509Y241047D01*
X45011881Y248566D01*
X45027613Y255313D01*
X45034016Y259391D01*
X45040831Y262725D01*
X45054806Y272638D01*
X45069225Y281822D01*
X45074872Y286866D01*
X45081078Y291269D01*
X45093288Y303322D01*
X45106019Y314697D01*
X45110778Y320591D01*
X45116191Y325931D01*
X45126275Y339772D01*
X45137025Y353075D01*
X45140781Y359672D01*
X45145250Y365806D01*
X45152966Y381081D01*
X45161431Y395956D01*
X45164075Y403075D01*
X45167494Y409847D01*
X45172638Y426147D01*
X45178600Y442213D01*
X45180059Y449675D01*
X45182341Y456900D01*
X45183519Y467338D01*
X45188078Y490634D01*
X45188819Y514338D01*
X45190000Y524797D01*
X45190000Y23625200D01*
X45189384Y23632778D01*
X45189622Y23640353D01*
X45187394Y23657313D01*
X45186006Y23674378D01*
X45184181Y23681741D01*
X45183191Y23689269D01*
X45178247Y23705669D01*
X45174131Y23722266D01*
X45171144Y23729231D01*
X45168950Y23736509D01*
X45161425Y23751894D01*
X45154684Y23767613D01*
X45150606Y23774016D01*
X45147272Y23780831D01*
X45137359Y23794806D01*
X45128175Y23809225D01*
X45123131Y23814872D01*
X45118728Y23821078D01*
X45106675Y23833288D01*
X45095300Y23846019D01*
X45089406Y23850778D01*
X45084066Y23856191D01*
X45070225Y23866275D01*
X45056922Y23877025D01*
X45050325Y23880781D01*
X45044191Y23885250D01*
X45028916Y23892966D01*
X45014041Y23901431D01*
X45006922Y23904075D01*
X45000150Y23907494D01*
X44983850Y23912638D01*
X44967784Y23918600D01*
X44960322Y23920059D01*
X44953097Y23922341D01*
X44942659Y23923519D01*
X44919363Y23928078D01*
X44895659Y23928819D01*
X44885200Y23930000D01*
X504797Y23930000D01*
X497219Y23929384D01*
X489644Y23929622D01*
X472684Y23927394D01*
X455619Y23926006D01*
X448256Y23924181D01*
X440728Y23923191D01*
X424328Y23918247D01*
X407731Y23914131D01*
X400766Y23911144D01*
X393488Y23908950D01*
X378103Y23901425D01*
X362384Y23894684D01*
X355981Y23890606D01*
X349166Y23887272D01*
X335191Y23877359D01*
X320772Y23868175D01*
X315125Y23863131D01*
X308919Y23858728D01*
X296709Y23846675D01*
X283978Y23835300D01*
X279219Y23829406D01*
X273806Y23824066D01*
X263722Y23810225D01*
X252972Y23796922D01*
X249216Y23790325D01*
X244747Y23784191D01*
X237031Y23768916D01*
X228566Y23754041D01*
X225922Y23746922D01*
X222503Y23740150D01*
X217359Y23723850D01*
X211397Y23707784D01*
X209938Y23700322D01*
X207656Y23693097D01*
X206478Y23682659D01*
X201919Y23659363D01*
X201178Y23635659D01*
X199997Y23625200D01*
X199997Y524797D01*
X200613Y517219D01*
X200375Y509644D01*
X202603Y492684D01*
X203991Y475619D01*
X205816Y468256D01*
X206806Y460728D01*
X211750Y444328D01*
X215866Y427731D01*
X218853Y420766D01*
X221047Y413488D01*
X228572Y398103D01*
X235313Y382384D01*
X239391Y375981D01*
X242725Y369166D01*
X252638Y355191D01*
X261822Y340772D01*
X266866Y335125D01*
X271269Y328919D01*
X283322Y316709D01*
X294697Y303978D01*
X300591Y299219D01*
X305931Y293806D01*
X319772Y283722D01*
X333075Y272972D01*
X339672Y269216D01*
X345806Y264747D01*
X361081Y257031D01*
X375956Y248566D01*
X383075Y245922D01*
X389847Y242503D01*
X406147Y237359D01*
X422213Y231397D01*
X429675Y229938D01*
X436900Y227656D01*
X447338Y226478D01*
X470634Y221919D01*
X494338Y221178D01*
X504797Y219997D01*
X41852200Y219997D01*
X41866403Y221150D01*
G37*
%LPC*%
G36*
X42028638Y773338D02*
X42028638Y773338D01*
X42021784Y777125D01*
X42011191Y784847D01*
X41972191Y804544D01*
X41968841Y806397D01*
X41779597Y884781D01*
X41651775Y1012603D01*
X41582600Y1179606D01*
X41582600Y1360391D01*
X41651775Y1527394D01*
X41693725Y1569344D01*
X41701069Y1577984D01*
X41709191Y1586003D01*
X41717069Y1596813D01*
X41725675Y1606941D01*
X41731531Y1616659D01*
X41738250Y1625878D01*
X41744275Y1637806D01*
X41751141Y1649200D01*
X41755359Y1659753D01*
X41760494Y1669919D01*
X41764503Y1682628D01*
X41769456Y1695016D01*
X41771925Y1706144D01*
X41775341Y1716972D01*
X41776394Y1726294D01*
X41780138Y1743184D01*
X41781966Y1775688D01*
X41783000Y1784869D01*
X41783000Y10436534D01*
X41782078Y10447869D01*
X41782153Y10459247D01*
X41780084Y10472431D01*
X41779006Y10485713D01*
X41776272Y10496744D01*
X41774506Y10507991D01*
X41770341Y10520659D01*
X41767131Y10533600D01*
X41762644Y10544066D01*
X41759094Y10554859D01*
X41752950Y10566672D01*
X41747684Y10578947D01*
X41741566Y10588550D01*
X41736322Y10598631D01*
X41730463Y10605981D01*
X41721175Y10620559D01*
X41699491Y10644831D01*
X41693728Y10652056D01*
X41577103Y10768684D01*
X41563378Y10780350D01*
X41550150Y10792625D01*
X41544597Y10796313D01*
X41539506Y10800638D01*
X41524041Y10809956D01*
X41509044Y10819913D01*
X41502972Y10822653D01*
X41497247Y10826103D01*
X41480503Y10832797D01*
X41464072Y10840213D01*
X41457619Y10841941D01*
X41451431Y10844416D01*
X41433844Y10848316D01*
X41416416Y10852988D01*
X41409772Y10853653D01*
X41403263Y10855097D01*
X41385288Y10856109D01*
X41367322Y10857909D01*
X41360653Y10857494D01*
X41354000Y10857869D01*
X41336097Y10855966D01*
X41318078Y10854844D01*
X41311559Y10853356D01*
X41304938Y10852653D01*
X41287584Y10847888D01*
X41269972Y10843872D01*
X41263778Y10841353D01*
X41257359Y10839591D01*
X41240997Y10832088D01*
X41224269Y10825284D01*
X41218572Y10821806D01*
X41212509Y10819025D01*
X41197553Y10808966D01*
X41182163Y10799566D01*
X41177100Y10795209D01*
X41171569Y10791491D01*
X41158419Y10779141D01*
X41144756Y10767388D01*
X41140478Y10762291D01*
X41135603Y10757713D01*
X41124606Y10743388D01*
X41113034Y10729600D01*
X41110478Y10724978D01*
X41105563Y10718572D01*
X41082228Y10675100D01*
X41081125Y10671881D01*
X41079975Y10669803D01*
X41025216Y10537597D01*
X40897394Y10409775D01*
X40730391Y10340600D01*
X40549606Y10340600D01*
X40382603Y10409775D01*
X40254775Y10537603D01*
X40185600Y10704606D01*
X40185600Y10763934D01*
X40184678Y10775269D01*
X40184753Y10786650D01*
X40182684Y10799838D01*
X40181606Y10813113D01*
X40178872Y10824141D01*
X40177106Y10835394D01*
X40172938Y10848075D01*
X40169731Y10861000D01*
X40165250Y10871447D01*
X40161694Y10882266D01*
X40155534Y10894103D01*
X40150284Y10906347D01*
X40144178Y10915934D01*
X40138922Y10926034D01*
X40133053Y10933394D01*
X40123775Y10947959D01*
X40102088Y10972231D01*
X40096325Y10979459D01*
X39354059Y11721725D01*
X39346103Y11728488D01*
X39346003Y11728588D01*
X39345869Y11728684D01*
X39345419Y11729069D01*
X39337400Y11737191D01*
X39326591Y11745069D01*
X39316463Y11753675D01*
X39306744Y11759531D01*
X39297525Y11766250D01*
X39285597Y11772275D01*
X39274203Y11779141D01*
X39263650Y11783359D01*
X39253484Y11788494D01*
X39240775Y11792503D01*
X39228388Y11797456D01*
X39217259Y11799925D01*
X39206431Y11803341D01*
X39197109Y11804394D01*
X39180219Y11808138D01*
X39147716Y11809966D01*
X39138534Y11811000D01*
X37979869Y11811000D01*
X37968534Y11810078D01*
X37957153Y11810153D01*
X37943966Y11808084D01*
X37930691Y11807006D01*
X37919663Y11804272D01*
X37908409Y11802506D01*
X37895728Y11798338D01*
X37882803Y11795131D01*
X37872356Y11790650D01*
X37861538Y11787094D01*
X37849700Y11780934D01*
X37837456Y11775684D01*
X37827869Y11769578D01*
X37817769Y11764322D01*
X37810409Y11758453D01*
X37795844Y11749175D01*
X37771572Y11727488D01*
X37764344Y11721725D01*
X37722394Y11679775D01*
X37555391Y11610600D01*
X37373519Y11610600D01*
X37361338Y11614525D01*
X37344381Y11620819D01*
X37337816Y11622103D01*
X37331484Y11624144D01*
X37313678Y11626828D01*
X37295959Y11630297D01*
X37289291Y11630506D01*
X37282697Y11631500D01*
X37264647Y11631278D01*
X37246644Y11631841D01*
X37240047Y11630972D01*
X37233363Y11630891D01*
X37215594Y11627759D01*
X37197728Y11625409D01*
X37191334Y11623481D01*
X37184772Y11622325D01*
X37167784Y11616384D01*
X37150488Y11611169D01*
X37144484Y11608231D01*
X37138200Y11606034D01*
X37122381Y11597422D01*
X37106166Y11589491D01*
X37100719Y11585628D01*
X37094866Y11582441D01*
X37080659Y11571403D01*
X37065919Y11560947D01*
X37061156Y11556244D01*
X37055906Y11552166D01*
X37043675Y11538991D01*
X37030806Y11526284D01*
X37026869Y11520881D01*
X37022341Y11516003D01*
X37012381Y11501000D01*
X37001747Y11486409D01*
X36998738Y11480450D01*
X36995050Y11474897D01*
X36987628Y11458453D01*
X36979503Y11442369D01*
X36977500Y11436019D01*
X36974750Y11429928D01*
X36970069Y11412469D01*
X36964656Y11395316D01*
X36964066Y11390081D01*
X36961972Y11382272D01*
X36957050Y11333178D01*
X36957263Y11329769D01*
X36956997Y11327419D01*
X36956997Y10897578D01*
X36958456Y10879628D01*
X36959128Y10861588D01*
X36960450Y10855041D01*
X36960991Y10848400D01*
X36965331Y10830891D01*
X36968903Y10813225D01*
X36971259Y10806997D01*
X36972866Y10800513D01*
X36979978Y10783925D01*
X36986350Y10767072D01*
X36989681Y10761300D01*
X36992313Y10755166D01*
X37002003Y10739953D01*
X37011016Y10724341D01*
X37015241Y10719172D01*
X37018822Y10713553D01*
X37030809Y10700138D01*
X37042250Y10686147D01*
X37047263Y10681722D01*
X37051697Y10676759D01*
X37065734Y10665419D01*
X37079241Y10653497D01*
X37084869Y10649959D01*
X37090075Y10645753D01*
X37105794Y10636806D01*
X37121013Y10627241D01*
X37127147Y10624653D01*
X37132956Y10621347D01*
X37149872Y10615069D01*
X37166475Y10608066D01*
X37172956Y10606500D01*
X37179213Y10604178D01*
X37196913Y10600713D01*
X37214434Y10596481D01*
X37221088Y10595981D01*
X37227634Y10594700D01*
X37245647Y10594138D01*
X37263638Y10592784D01*
X37270288Y10593366D01*
X37276950Y10593156D01*
X37294834Y10595506D01*
X37312791Y10597075D01*
X37317859Y10598534D01*
X37325866Y10599588D01*
X37373106Y10613828D01*
X37374269Y10614397D01*
X37555391Y10614397D01*
X37722394Y10545222D01*
X37850222Y10417394D01*
X37919397Y10250391D01*
X37919397Y10069606D01*
X37850222Y9902603D01*
X37808272Y9860653D01*
X37800928Y9852013D01*
X37792806Y9843994D01*
X37784928Y9833184D01*
X37776322Y9823056D01*
X37770466Y9813338D01*
X37763747Y9804119D01*
X37757722Y9792191D01*
X37750856Y9780797D01*
X37746638Y9770244D01*
X37741503Y9760078D01*
X37737494Y9747369D01*
X37732541Y9734981D01*
X37730072Y9723853D01*
X37726656Y9713025D01*
X37725603Y9703703D01*
X37721859Y9686813D01*
X37720031Y9654309D01*
X37718997Y9645128D01*
X37718997Y7514784D01*
X36538272Y6334059D01*
X36530928Y6325419D01*
X36522806Y6317400D01*
X36514928Y6306591D01*
X36506322Y6296463D01*
X36500466Y6286744D01*
X36493747Y6277525D01*
X36487722Y6265597D01*
X36480856Y6254203D01*
X36476638Y6243650D01*
X36471503Y6233484D01*
X36467494Y6220775D01*
X36462541Y6208388D01*
X36460072Y6197259D01*
X36456656Y6186431D01*
X36455603Y6177109D01*
X36451859Y6160219D01*
X36450031Y6127716D01*
X36448997Y6118534D01*
X36448997Y3054869D01*
X36449919Y3043534D01*
X36449844Y3032153D01*
X36451913Y3018966D01*
X36452991Y3005691D01*
X36455725Y2994663D01*
X36457491Y2983409D01*
X36461659Y2970728D01*
X36464866Y2957803D01*
X36469356Y2947328D01*
X36472903Y2936538D01*
X36479063Y2924700D01*
X36484313Y2912456D01*
X36490419Y2902869D01*
X36495675Y2892769D01*
X36501544Y2885409D01*
X36510822Y2870844D01*
X36532509Y2846572D01*
X36538272Y2839344D01*
X36580222Y2797394D01*
X36649397Y2630391D01*
X36649397Y2449606D01*
X36580222Y2282603D01*
X36452394Y2154775D01*
X36285391Y2085600D01*
X36104606Y2085600D01*
X35937603Y2154775D01*
X35809775Y2282603D01*
X35740600Y2449606D01*
X35740600Y2630391D01*
X35809775Y2797394D01*
X35851725Y2839344D01*
X35859069Y2847984D01*
X35867191Y2856003D01*
X35875069Y2866813D01*
X35883675Y2876941D01*
X35889531Y2886659D01*
X35896250Y2895878D01*
X35902275Y2907806D01*
X35909141Y2919200D01*
X35913359Y2929753D01*
X35918494Y2939919D01*
X35922503Y2952628D01*
X35927456Y2965016D01*
X35929925Y2976144D01*
X35933341Y2986972D01*
X35934394Y2996294D01*
X35938138Y3013184D01*
X35939966Y3045688D01*
X35941000Y3054869D01*
X35941000Y6341744D01*
X35939541Y6359700D01*
X35938869Y6377728D01*
X35937547Y6384275D01*
X35937006Y6390922D01*
X35932669Y6408416D01*
X35929097Y6426091D01*
X35926738Y6432331D01*
X35925131Y6438809D01*
X35918025Y6455381D01*
X35911650Y6472244D01*
X35908316Y6478022D01*
X35905684Y6484156D01*
X35896013Y6499341D01*
X35886988Y6514975D01*
X35882753Y6520153D01*
X35879175Y6525769D01*
X35867178Y6539194D01*
X35855750Y6553169D01*
X35850747Y6557584D01*
X35846300Y6562563D01*
X35832266Y6573900D01*
X35818763Y6585822D01*
X35813125Y6589366D01*
X35807922Y6593569D01*
X35792197Y6602519D01*
X35776988Y6612078D01*
X35770859Y6614663D01*
X35765041Y6617975D01*
X35748103Y6624263D01*
X35731528Y6631253D01*
X35725050Y6632819D01*
X35718784Y6635144D01*
X35701091Y6638606D01*
X35683569Y6642841D01*
X35676903Y6643341D01*
X35670363Y6644622D01*
X35652363Y6645184D01*
X35634366Y6646538D01*
X35627709Y6645956D01*
X35621047Y6646166D01*
X35603197Y6643819D01*
X35585213Y6642250D01*
X35580128Y6640784D01*
X35572131Y6639734D01*
X35524891Y6625494D01*
X35521828Y6623997D01*
X35519553Y6623341D01*
X35411544Y6578600D01*
X33168447Y6578600D01*
X32785694Y6737141D01*
X32492741Y7030094D01*
X32334200Y7412847D01*
X32334200Y7640731D01*
X32333278Y7652066D01*
X32333353Y7663447D01*
X32331284Y7676634D01*
X32330206Y7689909D01*
X32327472Y7700938D01*
X32325706Y7712191D01*
X32321538Y7724872D01*
X32318331Y7737797D01*
X32313850Y7748244D01*
X32310294Y7759063D01*
X32304134Y7770900D01*
X32298884Y7783144D01*
X32292778Y7792731D01*
X32287522Y7802831D01*
X32281653Y7810191D01*
X32272375Y7824756D01*
X32250688Y7849028D01*
X32244925Y7856256D01*
X32087856Y8013325D01*
X32079216Y8020669D01*
X32071197Y8028791D01*
X32060388Y8036669D01*
X32050259Y8045275D01*
X32040541Y8051131D01*
X32031322Y8057850D01*
X32019394Y8063875D01*
X32008000Y8070741D01*
X31997447Y8074959D01*
X31987281Y8080094D01*
X31974572Y8084103D01*
X31962184Y8089056D01*
X31951056Y8091525D01*
X31940228Y8094941D01*
X31930906Y8095994D01*
X31914016Y8099738D01*
X31881513Y8101566D01*
X31872331Y8102600D01*
X29693016Y8102600D01*
X29552975Y8160606D01*
X29420856Y8292725D01*
X29412216Y8300069D01*
X29404197Y8308191D01*
X29393388Y8316069D01*
X29383259Y8324675D01*
X29373541Y8330531D01*
X29364322Y8337250D01*
X29352394Y8343275D01*
X29341000Y8350141D01*
X29330447Y8354359D01*
X29320281Y8359494D01*
X29307572Y8363503D01*
X29295184Y8368456D01*
X29284056Y8370925D01*
X29273228Y8374341D01*
X29263906Y8375394D01*
X29247016Y8379138D01*
X29214513Y8380966D01*
X29205331Y8382000D01*
X29062266Y8382000D01*
X29050931Y8381078D01*
X29039550Y8381153D01*
X29026363Y8379084D01*
X29013088Y8378006D01*
X29002059Y8375272D01*
X28990806Y8373506D01*
X28978125Y8369338D01*
X28965200Y8366131D01*
X28954753Y8361650D01*
X28943934Y8358094D01*
X28932097Y8351934D01*
X28919853Y8346684D01*
X28910266Y8340578D01*
X28900166Y8335322D01*
X28892806Y8329453D01*
X28878241Y8320175D01*
X28853969Y8298488D01*
X28846741Y8292725D01*
X28730272Y8176256D01*
X28722925Y8167613D01*
X28714806Y8159597D01*
X28706928Y8148788D01*
X28698322Y8138659D01*
X28692456Y8128928D01*
X28685747Y8119722D01*
X28679722Y8107794D01*
X28672856Y8096400D01*
X28668638Y8085847D01*
X28663503Y8075681D01*
X28659494Y8062972D01*
X28654541Y8050584D01*
X28652072Y8039456D01*
X28648656Y8028628D01*
X28647603Y8019306D01*
X28643859Y8002416D01*
X28642031Y7969913D01*
X28640997Y7960731D01*
X28640997Y7531797D01*
X28641534Y7525166D01*
X28641375Y7520044D01*
X28641463Y7519391D01*
X28641375Y7516644D01*
X28643603Y7499684D01*
X28644991Y7482619D01*
X28646816Y7475256D01*
X28647806Y7467728D01*
X28652750Y7451328D01*
X28656866Y7434731D01*
X28659853Y7427766D01*
X28662047Y7420488D01*
X28669572Y7405103D01*
X28676313Y7389384D01*
X28680391Y7382981D01*
X28683725Y7376166D01*
X28693638Y7362191D01*
X28702822Y7347772D01*
X28707866Y7342125D01*
X28712269Y7335919D01*
X28724322Y7323709D01*
X28735697Y7310978D01*
X28741591Y7306219D01*
X28746931Y7300806D01*
X28760781Y7290713D01*
X28774075Y7279972D01*
X28780672Y7276216D01*
X28786806Y7271747D01*
X28802081Y7264031D01*
X28816956Y7255566D01*
X28824075Y7252922D01*
X28830847Y7249503D01*
X28847147Y7244359D01*
X28863213Y7238397D01*
X28870675Y7236938D01*
X28877900Y7234656D01*
X28888338Y7233478D01*
X28911634Y7228919D01*
X28935338Y7228178D01*
X28945797Y7226997D01*
X28985825Y7226997D01*
X28991575Y7224697D01*
X28998263Y7221109D01*
X29014428Y7215563D01*
X29030325Y7209206D01*
X29037741Y7207563D01*
X29044931Y7205094D01*
X29061794Y7202225D01*
X29078494Y7198522D01*
X29086088Y7198094D01*
X29093572Y7196822D01*
X29110669Y7196713D01*
X29127756Y7195750D01*
X29135306Y7196553D01*
X29142909Y7196503D01*
X29159828Y7199156D01*
X29176819Y7200963D01*
X29184134Y7202972D01*
X29191653Y7204150D01*
X29207916Y7209497D01*
X29224400Y7214022D01*
X29231306Y7217191D01*
X29238525Y7219563D01*
X29253691Y7227453D01*
X29269250Y7234588D01*
X29275559Y7238831D01*
X29282294Y7242334D01*
X29290503Y7248881D01*
X29310194Y7262122D01*
X29327509Y7278384D01*
X29335719Y7284931D01*
X29354034Y7303247D01*
X29411950Y7336684D01*
X29476563Y7353997D01*
X29834994Y7353997D01*
X29834994Y6370219D01*
X29835609Y6362641D01*
X29835372Y6355066D01*
X29836394Y6347288D01*
X29836175Y6340238D01*
X29834994Y6329778D01*
X29834994Y5345997D01*
X29476566Y5346000D01*
X29411950Y5363313D01*
X29354034Y5396750D01*
X29335719Y5415066D01*
X29329941Y5419975D01*
X29324728Y5425525D01*
X29311125Y5435966D01*
X29298122Y5447016D01*
X29291631Y5450925D01*
X29285588Y5455566D01*
X29270488Y5463669D01*
X29255863Y5472481D01*
X29248806Y5475303D01*
X29242113Y5478894D01*
X29225950Y5484438D01*
X29210047Y5490797D01*
X29202622Y5492444D01*
X29195444Y5494906D01*
X29178591Y5497772D01*
X29161878Y5501478D01*
X29154288Y5501903D01*
X29146800Y5503178D01*
X29129703Y5503288D01*
X29112616Y5504247D01*
X29105050Y5503444D01*
X29097463Y5503491D01*
X29080584Y5500841D01*
X29063553Y5499031D01*
X29056219Y5497019D01*
X29048719Y5495841D01*
X29032481Y5490500D01*
X29015972Y5485969D01*
X29009063Y5482800D01*
X29001850Y5480428D01*
X28987575Y5473000D01*
X27787597Y5473000D01*
X27780019Y5472384D01*
X27772444Y5472622D01*
X27755484Y5470394D01*
X27738419Y5469006D01*
X27731056Y5467181D01*
X27723528Y5466191D01*
X27707128Y5461247D01*
X27690531Y5457131D01*
X27683566Y5454144D01*
X27676288Y5451950D01*
X27660903Y5444425D01*
X27645184Y5437684D01*
X27638781Y5433606D01*
X27631966Y5430272D01*
X27617991Y5420359D01*
X27603572Y5411175D01*
X27597925Y5406131D01*
X27591719Y5401728D01*
X27579509Y5389675D01*
X27566778Y5378300D01*
X27562019Y5372406D01*
X27556606Y5367066D01*
X27546522Y5353225D01*
X27535772Y5339922D01*
X27532016Y5333325D01*
X27527547Y5327191D01*
X27519831Y5311916D01*
X27511366Y5297041D01*
X27508722Y5289922D01*
X27505303Y5283150D01*
X27500159Y5266850D01*
X27494197Y5250784D01*
X27492738Y5243322D01*
X27490456Y5236097D01*
X27489275Y5225638D01*
X27484719Y5202363D01*
X27483978Y5178659D01*
X27482797Y5168200D01*
X27482797Y4746716D01*
X27483719Y4735381D01*
X27483644Y4724000D01*
X27485713Y4710813D01*
X27486791Y4697538D01*
X27489525Y4686509D01*
X27491291Y4675256D01*
X27495459Y4662575D01*
X27498666Y4649650D01*
X27503147Y4639203D01*
X27506703Y4628384D01*
X27512863Y4616547D01*
X27518113Y4604303D01*
X27524219Y4594716D01*
X27529475Y4584616D01*
X27535344Y4577256D01*
X27544622Y4562691D01*
X27566309Y4538419D01*
X27572072Y4531191D01*
X27592822Y4510441D01*
X27658197Y4352609D01*
X27658197Y4181788D01*
X27592822Y4023956D01*
X27472041Y3903175D01*
X27314209Y3837800D01*
X27143388Y3837800D01*
X26985556Y3903175D01*
X26845119Y4043613D01*
X26827888Y4058256D01*
X26810609Y4073316D01*
X26808972Y4074331D01*
X26807522Y4075563D01*
X26788075Y4087281D01*
X26768672Y4099306D01*
X26766906Y4100038D01*
X26765263Y4101028D01*
X26744091Y4109491D01*
X26723091Y4118194D01*
X26721231Y4118631D01*
X26719447Y4119344D01*
X26697134Y4124291D01*
X26675056Y4129478D01*
X26673153Y4129609D01*
X26671278Y4130025D01*
X26648541Y4131303D01*
X26625834Y4132866D01*
X26623922Y4132688D01*
X26622016Y4132794D01*
X26599459Y4130397D01*
X26576709Y4128266D01*
X26574847Y4127778D01*
X26572953Y4127578D01*
X26551063Y4121569D01*
X26528972Y4115800D01*
X26527222Y4115022D01*
X26525372Y4114516D01*
X26504647Y4105009D01*
X26483869Y4095794D01*
X26482269Y4094747D01*
X26480525Y4093947D01*
X26461650Y4081253D01*
X26442584Y4068775D01*
X26441169Y4067478D01*
X26439584Y4066413D01*
X26423025Y4050859D01*
X26406200Y4035450D01*
X26405259Y4034175D01*
X26403619Y4032634D01*
X26373578Y3993494D01*
X26369175Y3985288D01*
X26365622Y3980475D01*
X26353241Y3959028D01*
X26305963Y3911750D01*
X26248047Y3878313D01*
X26183434Y3861000D01*
X25725000Y3861000D01*
X25725000Y4439994D01*
X26668078Y4439994D01*
X26679413Y4440916D01*
X26690794Y4440841D01*
X26703981Y4442909D01*
X26717256Y4443988D01*
X26728284Y4446722D01*
X26739538Y4448488D01*
X26752219Y4452656D01*
X26765144Y4455863D01*
X26775591Y4460344D01*
X26786409Y4463900D01*
X26798247Y4470059D01*
X26810491Y4475309D01*
X26820078Y4481416D01*
X26830178Y4486672D01*
X26837538Y4492541D01*
X26852103Y4501819D01*
X26860781Y4509572D01*
X26865878Y4513188D01*
X26875903Y4523084D01*
X26876375Y4523506D01*
X26883603Y4529269D01*
X26885525Y4531191D01*
X26887256Y4533228D01*
X26888897Y4534694D01*
X26893756Y4540709D01*
X26900991Y4547850D01*
X26908869Y4558659D01*
X26917475Y4568788D01*
X26923331Y4578506D01*
X26930050Y4587725D01*
X26936075Y4599653D01*
X26942941Y4611047D01*
X26947159Y4621600D01*
X26952294Y4631766D01*
X26956303Y4644475D01*
X26961256Y4656863D01*
X26963725Y4667991D01*
X26967141Y4678819D01*
X26968191Y4688138D01*
X26971938Y4705031D01*
X26973766Y4737534D01*
X26974800Y4746716D01*
X26974800Y4785200D01*
X26974184Y4792778D01*
X26974422Y4800353D01*
X26972194Y4817313D01*
X26970806Y4834378D01*
X26968981Y4841741D01*
X26967991Y4849269D01*
X26963050Y4865656D01*
X26958931Y4882266D01*
X26955944Y4889231D01*
X26953750Y4896509D01*
X26946225Y4911894D01*
X26939484Y4927613D01*
X26935406Y4934016D01*
X26932072Y4940831D01*
X26922159Y4954806D01*
X26912975Y4969225D01*
X26907931Y4974872D01*
X26903528Y4981078D01*
X26891475Y4993288D01*
X26880100Y5006019D01*
X26874206Y5010778D01*
X26868866Y5016191D01*
X26855025Y5026275D01*
X26841722Y5037025D01*
X26835125Y5040781D01*
X26828991Y5045250D01*
X26813716Y5052966D01*
X26798841Y5061431D01*
X26791722Y5064075D01*
X26784950Y5067494D01*
X26768650Y5072638D01*
X26752584Y5078600D01*
X26745122Y5080059D01*
X26737897Y5082341D01*
X26727459Y5083519D01*
X26704163Y5088078D01*
X26680459Y5088819D01*
X26670000Y5090000D01*
X25420219Y5090000D01*
X25412641Y5089384D01*
X25405066Y5089622D01*
X25397288Y5088600D01*
X25390238Y5088819D01*
X25379778Y5090000D01*
X24396000Y5090000D01*
X24396000Y5100863D01*
X24395478Y5107309D01*
X24395622Y5111950D01*
X24394403Y5121219D01*
X24393638Y5138753D01*
X24392469Y5144359D01*
X24392006Y5150041D01*
X24387441Y5168453D01*
X24383559Y5187053D01*
X24381506Y5192384D01*
X24380131Y5197928D01*
X24372656Y5215356D01*
X24365825Y5233094D01*
X24362931Y5238034D01*
X24360684Y5243275D01*
X24350484Y5259288D01*
X24340891Y5275672D01*
X24337253Y5280066D01*
X24334178Y5284891D01*
X24321519Y5299059D01*
X24309416Y5313669D01*
X24305106Y5317425D01*
X24301303Y5321681D01*
X24286538Y5333609D01*
X24272222Y5346088D01*
X24267366Y5349097D01*
X24262922Y5352688D01*
X24246438Y5362072D01*
X24230288Y5372081D01*
X24225003Y5374272D01*
X24220044Y5377094D01*
X24202272Y5383691D01*
X24184706Y5390969D01*
X24179134Y5392278D01*
X24173788Y5394263D01*
X24173084Y5394400D01*
X24178259Y5394884D01*
X24183950Y5394706D01*
X24202741Y5397178D01*
X24221678Y5398950D01*
X24227206Y5400394D01*
X24232866Y5401138D01*
X24251053Y5406622D01*
X24269419Y5411416D01*
X24274631Y5413728D01*
X24280106Y5415378D01*
X24297169Y5423725D01*
X24314519Y5431419D01*
X24319300Y5434550D01*
X24324428Y5437056D01*
X24339909Y5448034D01*
X24355803Y5458438D01*
X24360013Y5462294D01*
X24364675Y5465600D01*
X24378219Y5478972D01*
X24392188Y5491766D01*
X24394894Y5495431D01*
X24399788Y5500263D01*
X24428847Y5540138D01*
X24430913Y5544228D01*
X24432766Y5546738D01*
X24446753Y5570966D01*
X24465066Y5589278D01*
X24469975Y5595056D01*
X24475525Y5600269D01*
X24485966Y5613872D01*
X24497016Y5626875D01*
X24500925Y5633366D01*
X24505566Y5639409D01*
X24513669Y5654509D01*
X24522481Y5669134D01*
X24525303Y5676191D01*
X24528894Y5682884D01*
X24534438Y5699047D01*
X24540797Y5714950D01*
X24542444Y5722375D01*
X24544906Y5729553D01*
X24547772Y5746406D01*
X24551478Y5763119D01*
X24551903Y5770709D01*
X24553178Y5778197D01*
X24553288Y5795294D01*
X24554247Y5812381D01*
X24553444Y5819947D01*
X24553491Y5827534D01*
X24550841Y5844413D01*
X24549031Y5861444D01*
X24547019Y5868778D01*
X24545841Y5876278D01*
X24540500Y5892516D01*
X24535969Y5909025D01*
X24532800Y5915934D01*
X24530428Y5923147D01*
X24523000Y5937422D01*
X24523000Y6663941D01*
X24522694Y6667725D01*
X24522906Y6671528D01*
X24520694Y6692347D01*
X24519006Y6713119D01*
X24518094Y6716800D01*
X24517691Y6720591D01*
X24512153Y6740759D01*
X24507131Y6761006D01*
X24505631Y6764503D01*
X24504625Y6768169D01*
X24495913Y6787163D01*
X24487684Y6806353D01*
X24485644Y6809553D01*
X24484056Y6813019D01*
X24472366Y6830400D01*
X24461175Y6847966D01*
X24458647Y6850794D01*
X24456519Y6853959D01*
X24442197Y6869206D01*
X24428300Y6884759D01*
X24425341Y6887150D01*
X24422738Y6889922D01*
X24406194Y6902619D01*
X24389922Y6915766D01*
X24386606Y6917653D01*
X24383597Y6919963D01*
X24365206Y6929831D01*
X24347041Y6940172D01*
X24343478Y6941494D01*
X24340125Y6943294D01*
X24320406Y6950059D01*
X24300784Y6957341D01*
X24297034Y6958075D01*
X24293453Y6959303D01*
X24272913Y6962797D01*
X24252363Y6966819D01*
X24248559Y6966938D01*
X24244813Y6967575D01*
X24223884Y6967709D01*
X24203047Y6968363D01*
X24199294Y6967869D01*
X24195475Y6967894D01*
X24174791Y6964647D01*
X24154131Y6961931D01*
X24150491Y6960834D01*
X24146731Y6960244D01*
X24126903Y6953722D01*
X24106891Y6947691D01*
X24103469Y6946019D01*
X24099863Y6944831D01*
X24081334Y6935191D01*
X24062569Y6926013D01*
X24059469Y6923813D01*
X24056091Y6922056D01*
X24048847Y6916281D01*
X24022322Y6897469D01*
X24010013Y6885319D01*
X24002666Y6879459D01*
X23953263Y6830053D01*
X23945909Y6821397D01*
X23937806Y6813400D01*
X23929941Y6802606D01*
X23921316Y6792456D01*
X23915453Y6782728D01*
X23908747Y6773525D01*
X23902719Y6761591D01*
X23895850Y6750194D01*
X23891631Y6739641D01*
X23886503Y6729484D01*
X23882484Y6716753D01*
X23877541Y6704378D01*
X23875081Y6693281D01*
X23871656Y6682431D01*
X23870600Y6673078D01*
X23866859Y6656209D01*
X23865034Y6623725D01*
X23863997Y6614534D01*
X23863997Y6360000D01*
X22880219Y6360000D01*
X22872641Y6359384D01*
X22865066Y6359622D01*
X22857288Y6358600D01*
X22850238Y6358819D01*
X22839778Y6360000D01*
X21856000Y6360000D01*
X21856000Y6426197D01*
X21855384Y6433775D01*
X21855622Y6441353D01*
X21853391Y6458316D01*
X21852006Y6475375D01*
X21850181Y6482738D01*
X21849191Y6490269D01*
X21844247Y6506672D01*
X21840131Y6523266D01*
X21837144Y6530231D01*
X21834950Y6537509D01*
X21827419Y6552909D01*
X21820684Y6568609D01*
X21816609Y6575006D01*
X21813272Y6581831D01*
X21803372Y6595788D01*
X21794178Y6610225D01*
X21789119Y6615884D01*
X21784728Y6622078D01*
X21772691Y6634272D01*
X21761303Y6647016D01*
X21755413Y6651775D01*
X21750066Y6657191D01*
X21736197Y6667297D01*
X21722922Y6678022D01*
X21716344Y6681766D01*
X21710191Y6686250D01*
X21694884Y6693981D01*
X21680044Y6702428D01*
X21672938Y6705066D01*
X21666150Y6708494D01*
X21649816Y6713647D01*
X21633788Y6719597D01*
X21626341Y6721056D01*
X21619097Y6723341D01*
X21608647Y6724519D01*
X21585366Y6729078D01*
X21561659Y6729819D01*
X21551200Y6731000D01*
X21313463Y6731000D01*
X21302128Y6730078D01*
X21290747Y6730153D01*
X21277559Y6728084D01*
X21264284Y6727006D01*
X21253256Y6724272D01*
X21242003Y6722506D01*
X21229322Y6718338D01*
X21216397Y6715131D01*
X21205950Y6710650D01*
X21195131Y6707094D01*
X21183294Y6700934D01*
X21171050Y6695684D01*
X21161463Y6689578D01*
X21151363Y6684322D01*
X21144003Y6678453D01*
X21129438Y6669175D01*
X21105166Y6647488D01*
X21097938Y6641725D01*
X18298672Y3842459D01*
X18291328Y3833819D01*
X18283206Y3825800D01*
X18275328Y3814991D01*
X18266722Y3804863D01*
X18260866Y3795144D01*
X18254147Y3785925D01*
X18248122Y3773997D01*
X18241256Y3762603D01*
X18237038Y3752050D01*
X18231903Y3741884D01*
X18227894Y3729175D01*
X18222941Y3716788D01*
X18220472Y3705659D01*
X18217056Y3694831D01*
X18216003Y3685509D01*
X18212259Y3668619D01*
X18210431Y3636116D01*
X18209397Y3626934D01*
X18209397Y3597588D01*
X18144022Y3439756D01*
X18023241Y3318975D01*
X17865409Y3253600D01*
X17694588Y3253600D01*
X17536756Y3318975D01*
X17415975Y3439756D01*
X17350600Y3597588D01*
X17350600Y3768409D01*
X17415975Y3926241D01*
X17536756Y4047022D01*
X17694588Y4112397D01*
X17723934Y4112397D01*
X17735269Y4113319D01*
X17746650Y4113244D01*
X17759838Y4115313D01*
X17773113Y4116391D01*
X17784141Y4119125D01*
X17795394Y4120891D01*
X17808075Y4125059D01*
X17821000Y4128266D01*
X17831447Y4132747D01*
X17842266Y4136303D01*
X17854103Y4142463D01*
X17866347Y4147713D01*
X17875934Y4153819D01*
X17886034Y4159075D01*
X17893394Y4164944D01*
X17907959Y4174222D01*
X17932231Y4195909D01*
X17939459Y4201672D01*
X20976784Y7238997D01*
X21678200Y7238997D01*
X21685778Y7239613D01*
X21693353Y7239375D01*
X21710313Y7241603D01*
X21727378Y7242991D01*
X21734741Y7244816D01*
X21742269Y7245806D01*
X21758669Y7250750D01*
X21775266Y7254866D01*
X21782231Y7257853D01*
X21789509Y7260047D01*
X21804881Y7267566D01*
X21820613Y7274313D01*
X21827016Y7278391D01*
X21833831Y7281725D01*
X21847806Y7291638D01*
X21862225Y7300822D01*
X21867872Y7305866D01*
X21874078Y7310269D01*
X21886288Y7322322D01*
X21899019Y7333697D01*
X21903778Y7339591D01*
X21909191Y7344931D01*
X21919275Y7358772D01*
X21930025Y7372075D01*
X21933781Y7378672D01*
X21938250Y7384806D01*
X21945966Y7400081D01*
X21954431Y7414956D01*
X21957075Y7422075D01*
X21960494Y7428847D01*
X21965638Y7445147D01*
X21971600Y7461213D01*
X21973059Y7468675D01*
X21975341Y7475900D01*
X21976519Y7486338D01*
X21981078Y7509634D01*
X21981819Y7533338D01*
X21983000Y7543797D01*
X21983000Y8637606D01*
X22057391Y8711997D01*
X22174200Y8711997D01*
X22181778Y8712613D01*
X22189353Y8712375D01*
X22206313Y8714603D01*
X22223378Y8715991D01*
X22230741Y8717816D01*
X22238269Y8718806D01*
X22254669Y8723750D01*
X22271266Y8727866D01*
X22278231Y8730853D01*
X22285509Y8733047D01*
X22300881Y8740566D01*
X22316613Y8747313D01*
X22323016Y8751391D01*
X22329831Y8754725D01*
X22343806Y8764638D01*
X22358225Y8773822D01*
X22363872Y8778866D01*
X22370078Y8783269D01*
X22382288Y8795322D01*
X22395019Y8806697D01*
X22399778Y8812591D01*
X22405191Y8817931D01*
X22415263Y8831753D01*
X22426025Y8845075D01*
X22429781Y8851672D01*
X22434250Y8857806D01*
X22441966Y8873081D01*
X22450431Y8887956D01*
X22453075Y8895075D01*
X22456494Y8901847D01*
X22461638Y8918147D01*
X22467600Y8934213D01*
X22469059Y8941675D01*
X22471341Y8948900D01*
X22472516Y8959328D01*
X22477078Y8982634D01*
X22477819Y9006338D01*
X22479000Y9016797D01*
X22479000Y9198200D01*
X22478384Y9205778D01*
X22478622Y9213353D01*
X22476394Y9230313D01*
X22475006Y9247378D01*
X22473181Y9254741D01*
X22472191Y9262269D01*
X22467250Y9278656D01*
X22463131Y9295266D01*
X22460144Y9302231D01*
X22457950Y9309509D01*
X22450425Y9324894D01*
X22443684Y9340613D01*
X22439606Y9347016D01*
X22436272Y9353831D01*
X22426359Y9367806D01*
X22417175Y9382225D01*
X22412131Y9387872D01*
X22407728Y9394078D01*
X22395675Y9406288D01*
X22384300Y9419019D01*
X22378406Y9423778D01*
X22373066Y9429191D01*
X22359231Y9439272D01*
X22345922Y9450025D01*
X22339325Y9453781D01*
X22333191Y9458250D01*
X22317916Y9465966D01*
X22303041Y9474431D01*
X22295922Y9477075D01*
X22289150Y9480494D01*
X22272850Y9485638D01*
X22256784Y9491600D01*
X22249322Y9493059D01*
X22242097Y9495341D01*
X22231659Y9496519D01*
X22208363Y9501078D01*
X22184659Y9501819D01*
X22174200Y9503000D01*
X21783391Y9503000D01*
X21709000Y9577391D01*
X21709000Y11473931D01*
X21708078Y11485266D01*
X21708153Y11496647D01*
X21706084Y11509834D01*
X21705006Y11523109D01*
X21702272Y11534138D01*
X21700506Y11545391D01*
X21696338Y11558072D01*
X21693131Y11570997D01*
X21688650Y11581444D01*
X21685094Y11592263D01*
X21678934Y11604100D01*
X21673684Y11616344D01*
X21667578Y11625931D01*
X21662322Y11636031D01*
X21656453Y11643391D01*
X21647175Y11657956D01*
X21625488Y11682228D01*
X21619725Y11689456D01*
X20774456Y12534725D01*
X20765816Y12542069D01*
X20757797Y12550191D01*
X20746988Y12558069D01*
X20736859Y12566675D01*
X20727141Y12572531D01*
X20717922Y12579250D01*
X20705994Y12585275D01*
X20694600Y12592141D01*
X20684047Y12596359D01*
X20673881Y12601494D01*
X20661172Y12605503D01*
X20648784Y12610456D01*
X20637656Y12612925D01*
X20626828Y12616341D01*
X20617506Y12617394D01*
X20600616Y12621138D01*
X20568113Y12622966D01*
X20558931Y12624000D01*
X20335066Y12624000D01*
X20323731Y12623078D01*
X20312350Y12623153D01*
X20299163Y12621084D01*
X20285888Y12620006D01*
X20274859Y12617272D01*
X20263606Y12615506D01*
X20250925Y12611338D01*
X20238000Y12608131D01*
X20227553Y12603650D01*
X20216734Y12600094D01*
X20204897Y12593934D01*
X20192653Y12588684D01*
X20183066Y12582578D01*
X20172966Y12577322D01*
X20165606Y12571453D01*
X20151041Y12562175D01*
X20126769Y12540488D01*
X20119541Y12534725D01*
X20027822Y12443006D01*
X19887781Y12385000D01*
X19596797Y12385000D01*
X19589219Y12384384D01*
X19581644Y12384622D01*
X19564684Y12382394D01*
X19547619Y12381006D01*
X19540256Y12379181D01*
X19532728Y12378191D01*
X19516328Y12373247D01*
X19499731Y12369131D01*
X19492766Y12366144D01*
X19485488Y12363950D01*
X19470103Y12356425D01*
X19454384Y12349684D01*
X19447981Y12345606D01*
X19441166Y12342272D01*
X19427191Y12332359D01*
X19412772Y12323175D01*
X19407125Y12318131D01*
X19400919Y12313728D01*
X19388709Y12301675D01*
X19375978Y12290300D01*
X19371219Y12284406D01*
X19365806Y12279066D01*
X19355722Y12265225D01*
X19344972Y12251922D01*
X19341216Y12245325D01*
X19336747Y12239191D01*
X19329031Y12223916D01*
X19320566Y12209041D01*
X19317919Y12201913D01*
X19314503Y12195150D01*
X19309359Y12178850D01*
X19303397Y12162784D01*
X19301938Y12155322D01*
X19299656Y12148097D01*
X19298478Y12137659D01*
X19293919Y12114363D01*
X19293178Y12090659D01*
X19291997Y12080200D01*
X19291997Y12063391D01*
X19217606Y11989000D01*
X17612391Y11989000D01*
X17538000Y12063391D01*
X17538000Y13491825D01*
X17540300Y13497578D01*
X17543894Y13504275D01*
X17549438Y13520441D01*
X17555797Y13536344D01*
X17557447Y13543781D01*
X17559903Y13550944D01*
X17562766Y13567772D01*
X17566478Y13584513D01*
X17566903Y13592097D01*
X17568178Y13599584D01*
X17568288Y13616709D01*
X17569247Y13633775D01*
X17568444Y13641316D01*
X17568494Y13648922D01*
X17565838Y13665847D01*
X17564031Y13682838D01*
X17562022Y13690153D01*
X17560844Y13697666D01*
X17555494Y13713934D01*
X17550969Y13730419D01*
X17547806Y13737313D01*
X17545431Y13744538D01*
X17537522Y13759738D01*
X17530400Y13775266D01*
X17526166Y13781559D01*
X17522656Y13788306D01*
X17516097Y13796534D01*
X17502866Y13816206D01*
X17494322Y13825303D01*
X17493066Y13827075D01*
X17486200Y13834031D01*
X17480059Y13841731D01*
X17461744Y13860047D01*
X17428313Y13917950D01*
X17411000Y13982563D01*
X17411000Y14366088D01*
X17410694Y14369872D01*
X17410906Y14373669D01*
X17408697Y14394466D01*
X17407006Y14415266D01*
X17406094Y14418950D01*
X17405691Y14422731D01*
X17400156Y14442891D01*
X17395131Y14463153D01*
X17393634Y14466644D01*
X17392628Y14470309D01*
X17383944Y14489244D01*
X17375684Y14508500D01*
X17373647Y14511700D01*
X17372059Y14515159D01*
X17360359Y14532556D01*
X17349175Y14550113D01*
X17346656Y14552931D01*
X17344525Y14556100D01*
X17330188Y14571363D01*
X17316300Y14586906D01*
X17313344Y14589294D01*
X17310744Y14592063D01*
X17294231Y14604738D01*
X17277922Y14617913D01*
X17274600Y14619803D01*
X17271603Y14622103D01*
X17253256Y14631950D01*
X17235041Y14642319D01*
X17231478Y14643641D01*
X17228131Y14645438D01*
X17208378Y14652216D01*
X17188784Y14659488D01*
X17185053Y14660219D01*
X17181463Y14661450D01*
X17160859Y14664953D01*
X17140363Y14668966D01*
X17136569Y14669084D01*
X17132819Y14669722D01*
X17111884Y14669856D01*
X17091047Y14670509D01*
X17087294Y14670016D01*
X17083481Y14670041D01*
X17062828Y14666800D01*
X17042131Y14664078D01*
X17038484Y14662978D01*
X17034738Y14662391D01*
X17014928Y14655878D01*
X16994891Y14649838D01*
X16991475Y14648166D01*
X16987869Y14646981D01*
X16969341Y14637341D01*
X16950569Y14628159D01*
X16947469Y14625959D01*
X16944097Y14624206D01*
X16936863Y14618441D01*
X16910322Y14599616D01*
X16898019Y14587469D01*
X16890672Y14581613D01*
X16753234Y14444172D01*
X16595409Y14378800D01*
X16424588Y14378800D01*
X16266763Y14444172D01*
X16141325Y14569613D01*
X16138425Y14572078D01*
X16135897Y14574906D01*
X16119644Y14588038D01*
X16103728Y14601563D01*
X16100481Y14603519D01*
X16097519Y14605913D01*
X16079331Y14616263D01*
X16061469Y14627028D01*
X16057944Y14628438D01*
X16054638Y14630319D01*
X16035006Y14637606D01*
X16015653Y14645341D01*
X16011956Y14646159D01*
X16008381Y14647488D01*
X15987834Y14651509D01*
X15967484Y14656022D01*
X15963691Y14656234D01*
X15959959Y14656966D01*
X15939116Y14657619D01*
X15918222Y14658794D01*
X15914431Y14658391D01*
X15910644Y14658509D01*
X15889938Y14655788D01*
X15869159Y14653578D01*
X15865503Y14652575D01*
X15861728Y14652078D01*
X15841663Y14646028D01*
X15821578Y14640516D01*
X15818138Y14638938D01*
X15814488Y14637838D01*
X15795706Y14628650D01*
X15776731Y14619950D01*
X15773572Y14617825D01*
X15770166Y14616159D01*
X15753153Y14604094D01*
X15735788Y14592416D01*
X15733016Y14589813D01*
X15729919Y14587616D01*
X15715019Y14572906D01*
X15699825Y14558634D01*
X15697522Y14555634D01*
X15694806Y14552953D01*
X15682450Y14535997D01*
X15669784Y14519497D01*
X15667994Y14516163D01*
X15665747Y14513078D01*
X15656297Y14494366D01*
X15646450Y14476022D01*
X15645219Y14472438D01*
X15643503Y14469038D01*
X15637203Y14449075D01*
X15630438Y14429353D01*
X15629800Y14425613D01*
X15628656Y14421984D01*
X15627619Y14412778D01*
X15622163Y14380713D01*
X15622050Y14363431D01*
X15620997Y14354088D01*
X15620997Y12042463D01*
X15621919Y12031128D01*
X15621844Y12019747D01*
X15623913Y12006559D01*
X15624991Y11993284D01*
X15627725Y11982256D01*
X15629491Y11971003D01*
X15633659Y11958322D01*
X15636866Y11945397D01*
X15641347Y11934950D01*
X15644903Y11924131D01*
X15651063Y11912294D01*
X15656313Y11900050D01*
X15662419Y11890463D01*
X15667675Y11880363D01*
X15673544Y11873003D01*
X15682822Y11858438D01*
X15704509Y11834166D01*
X15710272Y11826938D01*
X16858538Y10678672D01*
X16867178Y10671328D01*
X16875197Y10663206D01*
X16886006Y10655328D01*
X16896134Y10646722D01*
X16905853Y10640866D01*
X16915072Y10634147D01*
X16927000Y10628122D01*
X16938394Y10621256D01*
X16948947Y10617038D01*
X16959113Y10611903D01*
X16971822Y10607894D01*
X16984209Y10602941D01*
X16995338Y10600472D01*
X17006166Y10597056D01*
X17015488Y10596003D01*
X17032378Y10592259D01*
X17064881Y10590431D01*
X17074063Y10589397D01*
X17103409Y10589397D01*
X17261241Y10524022D01*
X17382022Y10403241D01*
X17447397Y10245409D01*
X17447397Y10074588D01*
X17394316Y9946438D01*
X17388794Y9929297D01*
X17382516Y9912381D01*
X17381231Y9905819D01*
X17379188Y9899475D01*
X17376497Y9881641D01*
X17373038Y9863959D01*
X17372828Y9857306D01*
X17371831Y9850688D01*
X17372056Y9832625D01*
X17371494Y9814644D01*
X17372363Y9808028D01*
X17372447Y9801353D01*
X17375572Y9783625D01*
X17377925Y9765728D01*
X17379856Y9759322D01*
X17381013Y9752763D01*
X17386953Y9735781D01*
X17392166Y9718488D01*
X17395100Y9712484D01*
X17397303Y9706191D01*
X17405928Y9690347D01*
X17413844Y9674166D01*
X17417700Y9668728D01*
X17420897Y9662856D01*
X17431963Y9648616D01*
X17442388Y9633919D01*
X17447081Y9629163D01*
X17451175Y9623897D01*
X17464363Y9611659D01*
X17477050Y9598806D01*
X17482459Y9594863D01*
X17487341Y9590334D01*
X17502316Y9580394D01*
X17516925Y9569747D01*
X17522900Y9566728D01*
X17528447Y9563047D01*
X17544863Y9555638D01*
X17560966Y9547503D01*
X17567325Y9545497D01*
X17573416Y9542747D01*
X17590856Y9538072D01*
X17608019Y9532656D01*
X17613266Y9532066D01*
X17621072Y9529972D01*
X17670166Y9525050D01*
X17673569Y9525263D01*
X17675916Y9524997D01*
X20094481Y9524997D01*
X20105816Y9525919D01*
X20117197Y9525844D01*
X20130384Y9527913D01*
X20143659Y9528991D01*
X20154688Y9531725D01*
X20165941Y9533491D01*
X20178622Y9537659D01*
X20191547Y9540866D01*
X20201994Y9545347D01*
X20212813Y9548903D01*
X20224650Y9555063D01*
X20236894Y9560313D01*
X20246481Y9566419D01*
X20256581Y9571675D01*
X20263941Y9577544D01*
X20278506Y9586822D01*
X20302778Y9608509D01*
X20310006Y9614272D01*
X20330756Y9635022D01*
X20488588Y9700397D01*
X20659409Y9700397D01*
X20817241Y9635022D01*
X20938022Y9514241D01*
X21003397Y9356409D01*
X21003397Y9185588D01*
X20938022Y9027756D01*
X20817241Y8906975D01*
X20659409Y8841600D01*
X20488588Y8841600D01*
X20330756Y8906975D01*
X20310006Y8927725D01*
X20301366Y8935069D01*
X20293347Y8943191D01*
X20282538Y8951069D01*
X20272409Y8959675D01*
X20262691Y8965531D01*
X20253472Y8972250D01*
X20241544Y8978275D01*
X20230150Y8985141D01*
X20219597Y8989359D01*
X20209431Y8994494D01*
X20196722Y8998503D01*
X20184334Y9003456D01*
X20173206Y9005925D01*
X20162378Y9009341D01*
X20153056Y9010394D01*
X20136166Y9014138D01*
X20103663Y9015966D01*
X20094481Y9017000D01*
X17752116Y9017000D01*
X17734156Y9015541D01*
X17716134Y9014869D01*
X17709591Y9013547D01*
X17702938Y9013006D01*
X17685431Y9008666D01*
X17667772Y9005097D01*
X17661534Y9002738D01*
X17655050Y9001131D01*
X17638494Y8994031D01*
X17621619Y8987653D01*
X17615831Y8984313D01*
X17609703Y8981684D01*
X17594503Y8972003D01*
X17578888Y8962988D01*
X17573719Y8958759D01*
X17568091Y8955175D01*
X17554656Y8943172D01*
X17540694Y8931753D01*
X17536275Y8926747D01*
X17531297Y8922300D01*
X17519956Y8908263D01*
X17508041Y8894766D01*
X17504497Y8889128D01*
X17500291Y8883922D01*
X17491359Y8868231D01*
X17481781Y8852994D01*
X17479188Y8846844D01*
X17475884Y8841041D01*
X17469613Y8824141D01*
X17462606Y8807531D01*
X17461038Y8801044D01*
X17458716Y8794784D01*
X17455256Y8777106D01*
X17451019Y8759572D01*
X17450519Y8752903D01*
X17449238Y8746363D01*
X17448675Y8728372D01*
X17447322Y8710372D01*
X17447903Y8703716D01*
X17447694Y8697047D01*
X17450044Y8679184D01*
X17451609Y8661219D01*
X17453072Y8656138D01*
X17454125Y8648131D01*
X17468366Y8600891D01*
X17469859Y8597834D01*
X17470516Y8595559D01*
X17523597Y8467409D01*
X17523597Y8438063D01*
X17524519Y8426728D01*
X17524444Y8415347D01*
X17526513Y8402159D01*
X17527591Y8388884D01*
X17530325Y8377856D01*
X17532091Y8366603D01*
X17536259Y8353922D01*
X17539466Y8340997D01*
X17543947Y8330550D01*
X17547503Y8319731D01*
X17553663Y8307894D01*
X17558913Y8295650D01*
X17565019Y8286063D01*
X17570275Y8275963D01*
X17576144Y8268603D01*
X17585422Y8254038D01*
X17607109Y8229766D01*
X17612872Y8222538D01*
X18507138Y7328272D01*
X18513984Y7322453D01*
X18518334Y7317822D01*
X18520444Y7316203D01*
X18523797Y7312806D01*
X18534606Y7304928D01*
X18544734Y7296322D01*
X18552241Y7291797D01*
X18557475Y7287781D01*
X18559981Y7286434D01*
X18563672Y7283747D01*
X18575600Y7277722D01*
X18586994Y7270856D01*
X18594909Y7267691D01*
X18600950Y7264450D01*
X18603844Y7263456D01*
X18607713Y7261503D01*
X18620422Y7257494D01*
X18632809Y7252541D01*
X18640847Y7250759D01*
X18647619Y7248434D01*
X18650897Y7247878D01*
X18654766Y7246656D01*
X18664088Y7245603D01*
X18680978Y7241859D01*
X18688900Y7241416D01*
X18696259Y7240163D01*
X18713106Y7240053D01*
X18713481Y7240031D01*
X18722663Y7238997D01*
X18722881Y7238997D01*
X18726575Y7239297D01*
X18730241Y7239091D01*
X18737800Y7239894D01*
X18745597Y7239844D01*
X18758784Y7241913D01*
X18772059Y7242991D01*
X18775909Y7243947D01*
X18779303Y7244306D01*
X18786319Y7246231D01*
X18794341Y7247491D01*
X18807022Y7251659D01*
X18819947Y7254866D01*
X18823825Y7256528D01*
X18826884Y7257369D01*
X18833225Y7260275D01*
X18841213Y7262903D01*
X18853050Y7269063D01*
X18865294Y7274313D01*
X18869063Y7276713D01*
X18871731Y7277938D01*
X18877272Y7281666D01*
X18884981Y7285675D01*
X18892341Y7291544D01*
X18906906Y7300822D01*
X18910403Y7303944D01*
X18912672Y7305472D01*
X18923650Y7315784D01*
X18931178Y7322509D01*
X18938406Y7328272D01*
X18959156Y7349022D01*
X19116988Y7414397D01*
X19287809Y7414397D01*
X19445641Y7349022D01*
X19566422Y7228241D01*
X19631797Y7070409D01*
X19631797Y6899588D01*
X19566422Y6741756D01*
X19445641Y6620975D01*
X19287809Y6555600D01*
X19116988Y6555600D01*
X18959156Y6620975D01*
X18938406Y6641725D01*
X18929766Y6649069D01*
X18921747Y6657191D01*
X18910938Y6665069D01*
X18900809Y6673675D01*
X18891091Y6679531D01*
X18881872Y6686250D01*
X18869944Y6692275D01*
X18858550Y6699141D01*
X18847997Y6703359D01*
X18837831Y6708494D01*
X18825122Y6712503D01*
X18812734Y6717456D01*
X18801606Y6719925D01*
X18790778Y6723341D01*
X18781456Y6724394D01*
X18764566Y6728138D01*
X18732063Y6729966D01*
X18722881Y6731000D01*
X18385984Y6731000D01*
X17253659Y7863325D01*
X17245031Y7870656D01*
X17237000Y7878791D01*
X17226191Y7886669D01*
X17216063Y7895275D01*
X17206344Y7901131D01*
X17197125Y7907850D01*
X17185197Y7913875D01*
X17173803Y7920741D01*
X17163250Y7924959D01*
X17153084Y7930094D01*
X17140375Y7934103D01*
X17127988Y7939056D01*
X17116859Y7941525D01*
X17106031Y7944941D01*
X17096709Y7945994D01*
X17079819Y7949738D01*
X17047316Y7951566D01*
X17038134Y7952600D01*
X16957556Y7952600D01*
X16939600Y7951141D01*
X16921572Y7950469D01*
X16915025Y7949147D01*
X16908378Y7948606D01*
X16890884Y7944269D01*
X16873209Y7940697D01*
X16866969Y7938338D01*
X16860491Y7936731D01*
X16843903Y7929619D01*
X16827059Y7923250D01*
X16821288Y7919919D01*
X16815144Y7917284D01*
X16799947Y7907603D01*
X16784325Y7898588D01*
X16779147Y7894353D01*
X16773531Y7890775D01*
X16760106Y7878778D01*
X16758013Y7877066D01*
X16758350Y7877869D01*
X16759916Y7884347D01*
X16762241Y7890613D01*
X16765703Y7908306D01*
X16769938Y7925828D01*
X16770438Y7932494D01*
X16771719Y7939034D01*
X16772281Y7957031D01*
X16773634Y7975028D01*
X16773053Y7981684D01*
X16773263Y7988350D01*
X16770916Y8006206D01*
X16769347Y8024181D01*
X16767884Y8029263D01*
X16766831Y8037266D01*
X16752591Y8084506D01*
X16751091Y8087575D01*
X16750438Y8089841D01*
X16664800Y8296584D01*
X16664800Y8333600D01*
X16664184Y8341169D01*
X16664422Y8348753D01*
X16662194Y8365713D01*
X16660806Y8382778D01*
X16658981Y8390141D01*
X16657991Y8397669D01*
X16653047Y8414069D01*
X16648931Y8430666D01*
X16645944Y8437631D01*
X16643750Y8444909D01*
X16636225Y8460294D01*
X16629484Y8476013D01*
X16625406Y8482416D01*
X16622072Y8489231D01*
X16612159Y8503206D01*
X16602975Y8517625D01*
X16597931Y8523272D01*
X16593528Y8529478D01*
X16581475Y8541688D01*
X16570100Y8554419D01*
X16564206Y8559178D01*
X16558866Y8564591D01*
X16545025Y8574675D01*
X16531722Y8585425D01*
X16525125Y8589181D01*
X16518991Y8593650D01*
X16503716Y8601366D01*
X16488841Y8609831D01*
X16481722Y8612475D01*
X16474950Y8615894D01*
X16458650Y8621038D01*
X16442584Y8627000D01*
X16435122Y8628459D01*
X16427897Y8630741D01*
X16417459Y8631919D01*
X16394163Y8636478D01*
X16370459Y8637219D01*
X16360000Y8638400D01*
X16348388Y8638400D01*
X16190556Y8703775D01*
X16169806Y8724525D01*
X16161166Y8731869D01*
X16153147Y8739991D01*
X16142338Y8747869D01*
X16132209Y8756475D01*
X16122491Y8762331D01*
X16113272Y8769050D01*
X16101344Y8775075D01*
X16089950Y8781941D01*
X16079397Y8786159D01*
X16069231Y8791294D01*
X16056522Y8795303D01*
X16044134Y8800256D01*
X16033006Y8802725D01*
X16022178Y8806141D01*
X16012856Y8807194D01*
X15995966Y8810938D01*
X15963463Y8812766D01*
X15954281Y8813800D01*
X15160184Y8813800D01*
X14129459Y9844525D01*
X14120819Y9851869D01*
X14112800Y9859991D01*
X14101991Y9867869D01*
X14091863Y9876475D01*
X14082144Y9882331D01*
X14072925Y9889050D01*
X14060997Y9895075D01*
X14049603Y9901941D01*
X14039050Y9906159D01*
X14028884Y9911294D01*
X14016175Y9915303D01*
X14003788Y9920256D01*
X13992659Y9922725D01*
X13981831Y9926141D01*
X13972509Y9927194D01*
X13955619Y9930938D01*
X13923116Y9932766D01*
X13913934Y9933800D01*
X13884588Y9933800D01*
X13726756Y9999175D01*
X13605975Y10119956D01*
X13540600Y10277788D01*
X13540600Y10363200D01*
X13539984Y10370778D01*
X13540222Y10378353D01*
X13537994Y10395313D01*
X13536606Y10412378D01*
X13534781Y10419741D01*
X13533791Y10427269D01*
X13528847Y10443669D01*
X13524731Y10460266D01*
X13521744Y10467231D01*
X13519550Y10474509D01*
X13512025Y10489894D01*
X13505284Y10505613D01*
X13501206Y10512016D01*
X13497872Y10518831D01*
X13487959Y10532806D01*
X13478775Y10547225D01*
X13473731Y10552872D01*
X13469328Y10559078D01*
X13457275Y10571288D01*
X13445900Y10584019D01*
X13440006Y10588778D01*
X13434666Y10594191D01*
X13420825Y10604275D01*
X13407522Y10615025D01*
X13400925Y10618781D01*
X13394791Y10623250D01*
X13379516Y10630966D01*
X13364641Y10639431D01*
X13357522Y10642075D01*
X13350750Y10645494D01*
X13334450Y10650638D01*
X13318384Y10656600D01*
X13310922Y10658059D01*
X13303697Y10660341D01*
X13293259Y10661519D01*
X13269963Y10666078D01*
X13246259Y10666819D01*
X13235800Y10668000D01*
X12467784Y10668000D01*
X10033000Y13102784D01*
X10033000Y18179947D01*
X10031241Y18201622D01*
X10029881Y18223444D01*
X10029238Y18226259D01*
X10029006Y18229125D01*
X10023759Y18250288D01*
X10018909Y18271547D01*
X10017825Y18274209D01*
X10017131Y18277013D01*
X10008531Y18297063D01*
X10000322Y18317253D01*
X9998819Y18319713D01*
X9997684Y18322359D01*
X9986000Y18340700D01*
X9974603Y18359359D01*
X9972716Y18361553D01*
X9971175Y18363972D01*
X9956684Y18380191D01*
X9942428Y18396763D01*
X9940222Y18398616D01*
X9938300Y18400766D01*
X9921275Y18414519D01*
X9904638Y18428488D01*
X9902578Y18429625D01*
X9899922Y18431772D01*
X9857041Y18456178D01*
X9849466Y18458991D01*
X9844841Y18461547D01*
X9697088Y18522747D01*
X9404147Y18815688D01*
X9367313Y18904616D01*
X9359769Y18919328D01*
X9353041Y18934394D01*
X9348544Y18941228D01*
X9344803Y18948522D01*
X9334988Y18961825D01*
X9325916Y18975606D01*
X9320378Y18981622D01*
X9315506Y18988222D01*
X9303666Y18999769D01*
X9292494Y19011903D01*
X9286044Y19016956D01*
X9280184Y19022672D01*
X9266688Y19032125D01*
X9253656Y19042334D01*
X9246459Y19046288D01*
X9239769Y19050975D01*
X9224894Y19058141D01*
X9210416Y19066097D01*
X9202709Y19068828D01*
X9195319Y19072388D01*
X9179475Y19077059D01*
X9163909Y19082575D01*
X9155838Y19084031D01*
X9147994Y19086344D01*
X9131625Y19088397D01*
X9115353Y19091331D01*
X9107163Y19091466D01*
X9099038Y19092484D01*
X9082522Y19091869D01*
X9066019Y19092138D01*
X9057922Y19090950D01*
X9049731Y19090644D01*
X9033538Y19087372D01*
X9017203Y19084975D01*
X9009397Y19082494D01*
X9001369Y19080872D01*
X8985928Y19075034D01*
X8970181Y19070031D01*
X8962878Y19066322D01*
X8955219Y19063428D01*
X8940919Y19055175D01*
X8926184Y19047694D01*
X8919569Y19042853D01*
X8912484Y19038763D01*
X8899713Y19028316D01*
X8886372Y19018553D01*
X8880628Y19012713D01*
X8874291Y19007528D01*
X8863356Y18995144D01*
X8851781Y18983369D01*
X8848275Y18978059D01*
X8841638Y18970541D01*
X8815378Y18928769D01*
X8814759Y18927300D01*
X8814131Y18926350D01*
X8746297Y18793219D01*
X8638194Y18644428D01*
X8508169Y18514403D01*
X8359372Y18406294D01*
X8195503Y18322797D01*
X8051813Y18276109D01*
X8051813Y20319966D01*
X8051809Y20320003D01*
X8051813Y20320031D01*
X8051813Y22363888D01*
X8195503Y22317200D01*
X8359372Y22233703D01*
X8508169Y22125594D01*
X8638194Y21995569D01*
X8746297Y21846778D01*
X8814131Y21713647D01*
X8818456Y21706628D01*
X8819172Y21705166D01*
X8820591Y21703166D01*
X8822822Y21699547D01*
X8830697Y21685081D01*
X8835713Y21678628D01*
X8840016Y21671644D01*
X8850834Y21659166D01*
X8860972Y21646122D01*
X8866988Y21640541D01*
X8872341Y21634366D01*
X8885009Y21623816D01*
X8897138Y21612559D01*
X8903969Y21608025D01*
X8910253Y21602791D01*
X8924475Y21594413D01*
X8938244Y21585272D01*
X8945709Y21581900D01*
X8952763Y21577747D01*
X8968150Y21571772D01*
X8983216Y21564972D01*
X8991125Y21562850D01*
X8998759Y21559888D01*
X9014925Y21556472D01*
X9030872Y21552197D01*
X9039022Y21551381D01*
X9047031Y21549688D01*
X9063509Y21548925D01*
X9079966Y21547275D01*
X9088147Y21547784D01*
X9096319Y21547406D01*
X9112706Y21549313D01*
X9129209Y21550341D01*
X9137203Y21552163D01*
X9145328Y21553109D01*
X9161209Y21557641D01*
X9177313Y21561313D01*
X9184894Y21564397D01*
X9192775Y21566644D01*
X9207719Y21573678D01*
X9223019Y21579900D01*
X9230009Y21584172D01*
X9237416Y21587656D01*
X9251016Y21597000D01*
X9265125Y21605619D01*
X9271341Y21610966D01*
X9278081Y21615597D01*
X9290009Y21627025D01*
X9302528Y21637794D01*
X9307784Y21644053D01*
X9313709Y21649731D01*
X9323656Y21662959D01*
X9334253Y21675584D01*
X9337328Y21681147D01*
X9343359Y21689169D01*
X9366259Y21732872D01*
X9366763Y21734384D01*
X9367313Y21735381D01*
X9404147Y21824309D01*
X9697094Y22117256D01*
X10079847Y22275797D01*
X10494150Y22275797D01*
X10876903Y22117256D01*
X11169850Y21824309D01*
X11275400Y21569488D01*
X11277141Y21566094D01*
X11278391Y21562519D01*
X11288359Y21544209D01*
X11297909Y21525581D01*
X11300166Y21522522D01*
X11301984Y21519184D01*
X11314822Y21502669D01*
X11327209Y21485881D01*
X11329925Y21483234D01*
X11332259Y21480228D01*
X11347572Y21466019D01*
X11362528Y21451428D01*
X11365644Y21449247D01*
X11368425Y21446666D01*
X11385863Y21435088D01*
X11402944Y21423128D01*
X11406350Y21421488D01*
X11409531Y21419375D01*
X11428606Y21410766D01*
X11447394Y21401716D01*
X11451044Y21400638D01*
X11454503Y21399078D01*
X11474659Y21393675D01*
X11494719Y21387759D01*
X11498494Y21387288D01*
X11502159Y21386303D01*
X11522931Y21384222D01*
X11543675Y21381619D01*
X11547472Y21381759D01*
X11551253Y21381381D01*
X11572131Y21382681D01*
X11592981Y21383459D01*
X11596697Y21384209D01*
X11600497Y21384447D01*
X11620906Y21389103D01*
X11641344Y21393231D01*
X11644891Y21394572D01*
X11648603Y21395419D01*
X11667950Y21403288D01*
X11687497Y21410675D01*
X11690791Y21412578D01*
X11694306Y21414006D01*
X11712153Y21424906D01*
X11730228Y21435341D01*
X11733159Y21437738D01*
X11736413Y21439725D01*
X11752272Y21453366D01*
X11768422Y21466575D01*
X11770938Y21469425D01*
X11773819Y21471903D01*
X11787247Y21487897D01*
X11801075Y21503563D01*
X11803100Y21506781D01*
X11805541Y21509691D01*
X11810016Y21517784D01*
X11827334Y21545334D01*
X11834053Y21561259D01*
X11838600Y21569488D01*
X11944147Y21824309D01*
X12237088Y22117250D01*
X12257834Y22125844D01*
X12277181Y22135763D01*
X12296831Y22145372D01*
X12299178Y22147038D01*
X12301741Y22148350D01*
X12319266Y22161284D01*
X12337078Y22173916D01*
X12339131Y22175944D01*
X12341441Y22177647D01*
X12356606Y22193191D01*
X12372191Y22208578D01*
X12373894Y22210916D01*
X12375894Y22212966D01*
X12388338Y22230734D01*
X12401250Y22248453D01*
X12402553Y22251038D01*
X12404197Y22253381D01*
X12413641Y22272984D01*
X12423494Y22292494D01*
X12424359Y22295234D01*
X12425609Y22297831D01*
X12431797Y22318809D01*
X12438341Y22339547D01*
X12438606Y22341888D01*
X12439569Y22345156D01*
X12445709Y22394113D01*
X12445406Y22402194D01*
X12446000Y22407444D01*
X12446000Y22427781D01*
X12504006Y22567822D01*
X12992175Y23055991D01*
X13132216Y23113997D01*
X29666781Y23113997D01*
X29806822Y23055991D01*
X36898991Y15963822D01*
X36956997Y15823781D01*
X36956997Y14105888D01*
X36957072Y14104969D01*
X36957003Y14104056D01*
X36959094Y14080081D01*
X36960991Y14056709D01*
X36961209Y14055822D01*
X36961291Y14054903D01*
X36962356Y14051206D01*
X36972866Y14008822D01*
X36978028Y13996781D01*
X36980200Y13989244D01*
X37005397Y13928413D01*
X37005397Y13713197D01*
X37006013Y13705619D01*
X37005775Y13698044D01*
X37008003Y13681084D01*
X37009391Y13664019D01*
X37011216Y13656656D01*
X37012206Y13649128D01*
X37017150Y13632728D01*
X37021266Y13616131D01*
X37024253Y13609166D01*
X37026447Y13601888D01*
X37033972Y13586503D01*
X37040713Y13570784D01*
X37044791Y13564381D01*
X37048125Y13557566D01*
X37058038Y13543591D01*
X37067222Y13529172D01*
X37072266Y13523525D01*
X37076669Y13517319D01*
X37088722Y13505109D01*
X37100097Y13492378D01*
X37105991Y13487619D01*
X37111331Y13482206D01*
X37125172Y13472122D01*
X37138475Y13461372D01*
X37145072Y13457616D01*
X37151206Y13453147D01*
X37166481Y13445431D01*
X37181356Y13436966D01*
X37188475Y13434322D01*
X37195247Y13430903D01*
X37211547Y13425759D01*
X37227613Y13419797D01*
X37235075Y13418338D01*
X37242300Y13416056D01*
X37252738Y13414878D01*
X37276034Y13410319D01*
X37299738Y13409578D01*
X37310197Y13408397D01*
X37428391Y13408397D01*
X37595394Y13339222D01*
X37637344Y13297272D01*
X37645984Y13289928D01*
X37654003Y13281806D01*
X37664813Y13273928D01*
X37674941Y13265322D01*
X37684659Y13259466D01*
X37693878Y13252747D01*
X37705806Y13246722D01*
X37717200Y13239856D01*
X37727753Y13235638D01*
X37737919Y13230503D01*
X37750628Y13226494D01*
X37763016Y13221541D01*
X37774144Y13219072D01*
X37784972Y13215656D01*
X37794294Y13214603D01*
X37811184Y13210859D01*
X37843688Y13209031D01*
X37852869Y13207997D01*
X39856213Y13207997D01*
X42290997Y10773213D01*
X42290997Y1784869D01*
X42291919Y1773534D01*
X42291844Y1762153D01*
X42293913Y1748966D01*
X42294991Y1735691D01*
X42297725Y1724663D01*
X42299491Y1713409D01*
X42303659Y1700728D01*
X42306866Y1687803D01*
X42311347Y1677356D01*
X42314903Y1666538D01*
X42321063Y1654700D01*
X42326313Y1642456D01*
X42332419Y1632869D01*
X42337675Y1622769D01*
X42343544Y1615409D01*
X42352822Y1600844D01*
X42374509Y1576572D01*
X42380272Y1569344D01*
X42422222Y1527394D01*
X42491397Y1360391D01*
X42491397Y1179606D01*
X42422222Y1012603D01*
X42294400Y884781D01*
X42105156Y806397D01*
X42092469Y799894D01*
X42079384Y794281D01*
X42070566Y788663D01*
X42061250Y783888D01*
X42049772Y775416D01*
X42037772Y767772D01*
X42036559Y766688D01*
X42028638Y773338D01*
G37*
%LPD*%
G36*
X27591978Y11811613D02*
X27591978Y11811613D01*
X27599553Y11811375D01*
X27616513Y11813603D01*
X27633578Y11814991D01*
X27640941Y11816816D01*
X27648469Y11817806D01*
X27664869Y11822750D01*
X27681466Y11826866D01*
X27688431Y11829853D01*
X27695709Y11832047D01*
X27711081Y11839566D01*
X27726813Y11846313D01*
X27733216Y11850391D01*
X27740031Y11853725D01*
X27754006Y11863638D01*
X27768425Y11872822D01*
X27774072Y11877866D01*
X27780278Y11882269D01*
X27792488Y11894322D01*
X27805219Y11905697D01*
X27809978Y11911591D01*
X27815391Y11916931D01*
X27825475Y11930772D01*
X27836225Y11944075D01*
X27839981Y11950672D01*
X27844450Y11956806D01*
X27852166Y11972081D01*
X27860631Y11986956D01*
X27863275Y11994075D01*
X27866694Y12000847D01*
X27871838Y12017147D01*
X27877800Y12033213D01*
X27879259Y12040675D01*
X27881541Y12047900D01*
X27882719Y12058338D01*
X27887278Y12081634D01*
X27887556Y12090563D01*
X27963591Y12166597D01*
X30340156Y12166597D01*
X30349919Y12162191D01*
X30356366Y12160463D01*
X30362556Y12157988D01*
X30380163Y12154084D01*
X30397575Y12149416D01*
X30404209Y12148750D01*
X30410725Y12147306D01*
X30428728Y12146294D01*
X30446669Y12144497D01*
X30453328Y12144913D01*
X30459988Y12144538D01*
X30477928Y12146444D01*
X30495916Y12147566D01*
X30502413Y12149047D01*
X30509050Y12149753D01*
X30526456Y12154531D01*
X30544019Y12158538D01*
X30550191Y12161047D01*
X30556631Y12162816D01*
X30573022Y12170334D01*
X30589722Y12177125D01*
X30595419Y12180606D01*
X30601478Y12183384D01*
X30616434Y12193444D01*
X30631828Y12202847D01*
X30636884Y12207197D01*
X30642419Y12210919D01*
X30655572Y12223272D01*
X30669231Y12235022D01*
X30673513Y12240119D01*
X30678384Y12244697D01*
X30689375Y12259019D01*
X30700956Y12272813D01*
X30703513Y12277438D01*
X30708425Y12283838D01*
X30728353Y12320972D01*
X30898725Y12491344D01*
X30906069Y12499984D01*
X30914191Y12508003D01*
X30922053Y12518794D01*
X30930675Y12528941D01*
X30936531Y12538659D01*
X30943250Y12547878D01*
X30949275Y12559806D01*
X30956141Y12571200D01*
X30960359Y12581753D01*
X30965494Y12591919D01*
X30969503Y12604628D01*
X30974456Y12617016D01*
X30976925Y12628144D01*
X30980341Y12638972D01*
X30981394Y12648294D01*
X30985138Y12665184D01*
X30986966Y12697688D01*
X30988000Y12706869D01*
X30988000Y12773341D01*
X30987694Y12777125D01*
X30987906Y12780925D01*
X30985694Y12801731D01*
X30984006Y12822519D01*
X30983094Y12826200D01*
X30982691Y12829988D01*
X30977159Y12850128D01*
X30972131Y12870406D01*
X30970628Y12873909D01*
X30969625Y12877566D01*
X30960944Y12896494D01*
X30952684Y12915753D01*
X30950634Y12918969D01*
X30949056Y12922413D01*
X30937400Y12939744D01*
X30926175Y12957366D01*
X30923650Y12960191D01*
X30921522Y12963356D01*
X30907194Y12978609D01*
X30893300Y12994159D01*
X30890344Y12996550D01*
X30887741Y12999319D01*
X30871188Y13012025D01*
X30854922Y13025166D01*
X30851613Y13027047D01*
X30848603Y13029359D01*
X30830222Y13039225D01*
X30812041Y13049572D01*
X30808469Y13050897D01*
X30805128Y13052691D01*
X30785416Y13059453D01*
X30765784Y13066741D01*
X30762047Y13067472D01*
X30758459Y13068703D01*
X30737872Y13072203D01*
X30717363Y13076219D01*
X30713566Y13076338D01*
X30709819Y13076975D01*
X30688884Y13077109D01*
X30668047Y13077763D01*
X30664294Y13077269D01*
X30660478Y13077294D01*
X30639809Y13074050D01*
X30619131Y13071331D01*
X30615488Y13070231D01*
X30611734Y13069644D01*
X30591941Y13063134D01*
X30571891Y13057091D01*
X30568463Y13055416D01*
X30564866Y13054231D01*
X30546344Y13044597D01*
X30527569Y13035413D01*
X30524475Y13033219D01*
X30521094Y13031459D01*
X30513841Y13025675D01*
X30487322Y13006869D01*
X30475016Y12994722D01*
X30467669Y12988863D01*
X30407353Y12928544D01*
X30349447Y12895113D01*
X30284834Y12877800D01*
X29438613Y12877800D01*
X29438613Y13741366D01*
X29438609Y13741403D01*
X29438613Y13741431D01*
X29438613Y14604997D01*
X29990631Y14604997D01*
X30003891Y14606075D01*
X30017178Y14606156D01*
X30028428Y14608066D01*
X30039809Y14608991D01*
X30052706Y14612188D01*
X30065822Y14614416D01*
X30076628Y14618122D01*
X30087697Y14620866D01*
X30099919Y14626106D01*
X30112494Y14630419D01*
X30122547Y14635813D01*
X30133044Y14640313D01*
X30144253Y14647453D01*
X30155975Y14653741D01*
X30165047Y14660700D01*
X30174656Y14666822D01*
X30184550Y14675659D01*
X30195122Y14683772D01*
X30202947Y14692100D01*
X30211450Y14699697D01*
X30219813Y14710047D01*
X30228909Y14719728D01*
X30235266Y14729175D01*
X30242456Y14738075D01*
X30249050Y14749663D01*
X30256453Y14760663D01*
X30261206Y14771019D01*
X30266863Y14780956D01*
X30271491Y14793422D01*
X30277034Y14805503D01*
X30280059Y14816513D01*
X30284031Y14827213D01*
X30286584Y14840250D01*
X30290109Y14853081D01*
X30291316Y14864422D01*
X30293509Y14875634D01*
X30293925Y14888909D01*
X30295334Y14902144D01*
X30294697Y14913550D01*
X30295053Y14924950D01*
X30293322Y14938122D01*
X30292578Y14951406D01*
X30290109Y14962556D01*
X30288622Y14973866D01*
X30284784Y14986594D01*
X30281909Y14999578D01*
X30278547Y15007284D01*
X30274381Y15021106D01*
X30257159Y15056316D01*
X30255591Y15059913D01*
X30238000Y15125563D01*
X30238000Y15483994D01*
X31221778Y15483994D01*
X31229356Y15484609D01*
X31236931Y15484372D01*
X31253891Y15486600D01*
X31270956Y15487988D01*
X31278319Y15489813D01*
X31285847Y15490803D01*
X31302247Y15495747D01*
X31318844Y15499863D01*
X31325809Y15502850D01*
X31333088Y15505044D01*
X31348459Y15512563D01*
X31364191Y15519309D01*
X31370594Y15523388D01*
X31377409Y15526722D01*
X31391384Y15536634D01*
X31405803Y15545819D01*
X31411450Y15550863D01*
X31417656Y15555266D01*
X31429866Y15567319D01*
X31442597Y15578694D01*
X31447356Y15584588D01*
X31452769Y15589928D01*
X31455781Y15594063D01*
X31458078Y15595691D01*
X31470288Y15607744D01*
X31483019Y15619119D01*
X31487778Y15625013D01*
X31493191Y15630353D01*
X31503275Y15644194D01*
X31514025Y15657497D01*
X31517781Y15664094D01*
X31522250Y15670228D01*
X31529966Y15685503D01*
X31538431Y15700378D01*
X31541075Y15707497D01*
X31544494Y15714269D01*
X31549638Y15730569D01*
X31555600Y15746634D01*
X31557059Y15754097D01*
X31559341Y15761322D01*
X31560519Y15771759D01*
X31565078Y15795056D01*
X31565819Y15818759D01*
X31567000Y15829219D01*
X31567000Y16712997D01*
X32025434Y16712997D01*
X32090047Y16695684D01*
X32147963Y16662247D01*
X32195247Y16614963D01*
X32228684Y16557047D01*
X32245997Y16492434D01*
X32245997Y16461716D01*
X32246369Y16457156D01*
X32246134Y16452606D01*
X32248359Y16432613D01*
X32249991Y16412538D01*
X32251088Y16408113D01*
X32251594Y16403569D01*
X32257025Y16384175D01*
X32261866Y16364650D01*
X32263666Y16360450D01*
X32264897Y16356056D01*
X32273369Y16337825D01*
X32281313Y16319303D01*
X32283769Y16315447D01*
X32285691Y16311313D01*
X32297003Y16294675D01*
X32307822Y16277691D01*
X32310863Y16274288D01*
X32313431Y16270509D01*
X32327288Y16255903D01*
X32340697Y16240897D01*
X32344250Y16238028D01*
X32347391Y16234716D01*
X32363384Y16222569D01*
X32379075Y16209891D01*
X32383059Y16207622D01*
X32386681Y16204872D01*
X32404406Y16195472D01*
X32421956Y16185484D01*
X32426247Y16183891D01*
X32430269Y16181759D01*
X32449306Y16175331D01*
X32468213Y16168316D01*
X32472691Y16167438D01*
X32477019Y16165978D01*
X32496928Y16162694D01*
X32516634Y16158838D01*
X32521181Y16158694D01*
X32525700Y16157950D01*
X32545884Y16157922D01*
X32565950Y16157294D01*
X32570466Y16157888D01*
X32575041Y16157881D01*
X32594900Y16161100D01*
X32614866Y16163725D01*
X32619250Y16165047D01*
X32623744Y16165775D01*
X32642763Y16172134D01*
X32662106Y16177966D01*
X32666222Y16179978D01*
X32670538Y16181422D01*
X32679075Y16186266D01*
X32706428Y16199644D01*
X32721500Y16210334D01*
X32729969Y16215138D01*
X32763231Y16239306D01*
X32927094Y16322800D01*
X33101994Y16379628D01*
X33283638Y16408397D01*
X33985181Y16408397D01*
X33985181Y15240031D01*
X33985797Y15232453D01*
X33985559Y15224878D01*
X33987788Y15207919D01*
X33989175Y15190853D01*
X33991000Y15183491D01*
X33991991Y15175963D01*
X33996934Y15159563D01*
X34001050Y15142966D01*
X34004038Y15136000D01*
X34006231Y15128722D01*
X34013756Y15113338D01*
X34020497Y15097619D01*
X34024575Y15091216D01*
X34027909Y15084400D01*
X34037822Y15070425D01*
X34047006Y15056006D01*
X34052050Y15050359D01*
X34056453Y15044153D01*
X34068506Y15031944D01*
X34079881Y15019213D01*
X34085775Y15014453D01*
X34091116Y15009041D01*
X34104956Y14998956D01*
X34118259Y14988206D01*
X34124869Y14984444D01*
X34130991Y14979981D01*
X34146266Y14972266D01*
X34161141Y14963800D01*
X34168259Y14961156D01*
X34175031Y14957738D01*
X34191331Y14952594D01*
X34207397Y14946631D01*
X34214859Y14945172D01*
X34222084Y14942891D01*
X34232522Y14941713D01*
X34255819Y14937153D01*
X34279522Y14936413D01*
X34289981Y14935231D01*
X34290013Y14935231D01*
X34297581Y14935847D01*
X34305134Y14935609D01*
X34305166Y14935609D01*
X34322125Y14937838D01*
X34339191Y14939225D01*
X34346553Y14941050D01*
X34354081Y14942041D01*
X34370481Y14946984D01*
X34387078Y14951100D01*
X34394044Y14954088D01*
X34401322Y14956281D01*
X34416694Y14963800D01*
X34432425Y14970547D01*
X34438828Y14974625D01*
X34445644Y14977959D01*
X34459619Y14987872D01*
X34474038Y14997056D01*
X34479684Y15002100D01*
X34485891Y15006503D01*
X34498100Y15018556D01*
X34510831Y15029931D01*
X34515591Y15035825D01*
X34521003Y15041166D01*
X34531088Y15055006D01*
X34541838Y15068309D01*
X34545594Y15074906D01*
X34550063Y15081041D01*
X34557778Y15096316D01*
X34566244Y15111191D01*
X34568888Y15118309D01*
X34572306Y15125081D01*
X34577450Y15141381D01*
X34583413Y15157447D01*
X34584872Y15164909D01*
X34587153Y15172134D01*
X34588331Y15182572D01*
X34592891Y15205869D01*
X34593631Y15229572D01*
X34594813Y15240031D01*
X34594813Y16408397D01*
X34640938Y16408397D01*
X34644719Y16408703D01*
X34648516Y16408491D01*
X34669303Y16410700D01*
X34690116Y16412391D01*
X34693803Y16413306D01*
X34697578Y16413706D01*
X34717722Y16419238D01*
X34738003Y16424266D01*
X34741494Y16425763D01*
X34745159Y16426769D01*
X34764147Y16435478D01*
X34783350Y16443713D01*
X34786556Y16445756D01*
X34790006Y16447338D01*
X34807347Y16459000D01*
X34824963Y16470222D01*
X34827794Y16472750D01*
X34830947Y16474872D01*
X34846203Y16489200D01*
X34861756Y16503097D01*
X34864134Y16506044D01*
X34866913Y16508650D01*
X34879634Y16525225D01*
X34892763Y16541475D01*
X34894647Y16544784D01*
X34896953Y16547791D01*
X34906794Y16566131D01*
X34917169Y16584356D01*
X34918497Y16587934D01*
X34920284Y16591266D01*
X34927041Y16610956D01*
X34934338Y16630613D01*
X34935069Y16634344D01*
X34936300Y16637934D01*
X34939806Y16658547D01*
X34943816Y16679034D01*
X34943934Y16682825D01*
X34944572Y16686575D01*
X34944706Y16707516D01*
X34945359Y16728350D01*
X34944866Y16732103D01*
X34944891Y16735913D01*
X34941644Y16756600D01*
X34938928Y16777266D01*
X34937834Y16780897D01*
X34937244Y16784656D01*
X34930716Y16804513D01*
X34924688Y16824506D01*
X34923019Y16827922D01*
X34921831Y16831528D01*
X34912191Y16850059D01*
X34903009Y16868828D01*
X34900816Y16871922D01*
X34899059Y16875297D01*
X34893288Y16882534D01*
X34874466Y16909075D01*
X34862309Y16921391D01*
X34856463Y16928722D01*
X29522456Y22262725D01*
X29513816Y22270069D01*
X29505797Y22278191D01*
X29494988Y22286069D01*
X29484859Y22294675D01*
X29475141Y22300531D01*
X29465922Y22307250D01*
X29453994Y22313275D01*
X29442600Y22320141D01*
X29432047Y22324359D01*
X29421881Y22329494D01*
X29409172Y22333503D01*
X29396784Y22338456D01*
X29385656Y22340925D01*
X29374828Y22344341D01*
X29365506Y22345394D01*
X29348616Y22349138D01*
X29316113Y22350966D01*
X29306931Y22352000D01*
X21538006Y22352000D01*
X21534222Y22351694D01*
X21530419Y22351906D01*
X21509600Y22349694D01*
X21488828Y22348006D01*
X21485147Y22347094D01*
X21481356Y22346691D01*
X21461188Y22341153D01*
X21440941Y22336131D01*
X21437444Y22334631D01*
X21433778Y22333625D01*
X21414784Y22324913D01*
X21395594Y22316684D01*
X21392394Y22314644D01*
X21388928Y22313056D01*
X21371547Y22301366D01*
X21353981Y22290175D01*
X21351153Y22287647D01*
X21347988Y22285519D01*
X21332741Y22271197D01*
X21317188Y22257300D01*
X21314797Y22254341D01*
X21312025Y22251738D01*
X21299328Y22235194D01*
X21286181Y22218922D01*
X21284294Y22215606D01*
X21281984Y22212597D01*
X21272116Y22194206D01*
X21261775Y22176041D01*
X21260453Y22172478D01*
X21258653Y22169125D01*
X21251888Y22149406D01*
X21244606Y22129784D01*
X21243872Y22126034D01*
X21242644Y22122453D01*
X21239150Y22101913D01*
X21235128Y22081363D01*
X21235009Y22077559D01*
X21234372Y22073813D01*
X21234238Y22052884D01*
X21233584Y22032047D01*
X21234078Y22028294D01*
X21234053Y22024475D01*
X21237300Y22003791D01*
X21240016Y21983131D01*
X21241113Y21979491D01*
X21241703Y21975731D01*
X21248225Y21955903D01*
X21254256Y21935891D01*
X21255928Y21932469D01*
X21257116Y21928863D01*
X21266756Y21910334D01*
X21275934Y21891569D01*
X21278134Y21888469D01*
X21279891Y21885091D01*
X21285666Y21877847D01*
X21304478Y21851322D01*
X21316628Y21839013D01*
X21322488Y21831666D01*
X21329859Y21824294D01*
X21488397Y21441550D01*
X21488397Y19198447D01*
X21329856Y18815694D01*
X21036909Y18522747D01*
X20883028Y18459009D01*
X20882209Y18458591D01*
X20881338Y18458303D01*
X20860244Y18447328D01*
X20839122Y18436500D01*
X20838384Y18435956D01*
X20837569Y18435531D01*
X20834575Y18433144D01*
X20799425Y18407203D01*
X20790275Y18397822D01*
X20784144Y18392934D01*
X20044213Y17653000D01*
X17376463Y17653000D01*
X17365128Y17652078D01*
X17353747Y17652153D01*
X17340559Y17650084D01*
X17327284Y17649006D01*
X17316256Y17646272D01*
X17305003Y17644506D01*
X17292322Y17640338D01*
X17279397Y17637131D01*
X17268950Y17632650D01*
X17258131Y17629094D01*
X17246294Y17622934D01*
X17234050Y17617684D01*
X17224463Y17611578D01*
X17214363Y17606322D01*
X17207003Y17600453D01*
X17192438Y17591175D01*
X17168166Y17569488D01*
X17160938Y17563725D01*
X16853272Y17256059D01*
X16845928Y17247419D01*
X16837806Y17239400D01*
X16829928Y17228591D01*
X16821322Y17218463D01*
X16815466Y17208744D01*
X16808747Y17199525D01*
X16802722Y17187597D01*
X16795856Y17176203D01*
X16791638Y17165650D01*
X16786503Y17155484D01*
X16782494Y17142775D01*
X16777541Y17130388D01*
X16775072Y17119259D01*
X16771656Y17108431D01*
X16770603Y17099109D01*
X16766859Y17082219D01*
X16765031Y17049716D01*
X16763997Y17040534D01*
X16763997Y15287716D01*
X16764919Y15276384D01*
X16764844Y15265013D01*
X16766913Y15251828D01*
X16767991Y15238538D01*
X16770725Y15227516D01*
X16772488Y15216269D01*
X16776656Y15203588D01*
X16779866Y15190650D01*
X16784350Y15180194D01*
X16787900Y15169397D01*
X16794050Y15157572D01*
X16799313Y15145303D01*
X16805419Y15135719D01*
X16810669Y15125625D01*
X16816541Y15118263D01*
X16825822Y15103691D01*
X16847497Y15079434D01*
X16853263Y15072200D01*
X16890666Y15034794D01*
X16893559Y15032334D01*
X16896100Y15029491D01*
X16912409Y15016316D01*
X16928263Y15002841D01*
X16931506Y15000888D01*
X16934478Y14998484D01*
X16952653Y14988141D01*
X16970519Y14977372D01*
X16974056Y14975956D01*
X16977359Y14974078D01*
X16996969Y14966800D01*
X17016334Y14959059D01*
X17020034Y14958238D01*
X17023616Y14956909D01*
X17044134Y14952894D01*
X17064503Y14948375D01*
X17068309Y14948159D01*
X17072038Y14947431D01*
X17092859Y14946778D01*
X17113766Y14945603D01*
X17117559Y14946006D01*
X17121353Y14945888D01*
X17142028Y14948606D01*
X17162828Y14950816D01*
X17166497Y14951822D01*
X17170269Y14952319D01*
X17190313Y14958363D01*
X17210409Y14963878D01*
X17213853Y14965456D01*
X17217509Y14966559D01*
X17236328Y14975766D01*
X17255256Y14984444D01*
X17258409Y14986563D01*
X17261831Y14988238D01*
X17278866Y15000319D01*
X17296200Y15011975D01*
X17298972Y15014578D01*
X17302078Y15016781D01*
X17316959Y15031472D01*
X17332166Y15045753D01*
X17334478Y15048766D01*
X17337191Y15051444D01*
X17349522Y15068366D01*
X17362209Y15084894D01*
X17364003Y15088234D01*
X17366250Y15091319D01*
X17375678Y15109984D01*
X17385544Y15128366D01*
X17386778Y15131963D01*
X17388494Y15135359D01*
X17394753Y15155197D01*
X17401559Y15175034D01*
X17402200Y15178794D01*
X17403341Y15182413D01*
X17404375Y15191591D01*
X17409834Y15223675D01*
X17409947Y15240966D01*
X17411000Y15250309D01*
X17411000Y15349434D01*
X17428313Y15414047D01*
X17461750Y15471963D01*
X17509034Y15519247D01*
X17566950Y15552684D01*
X17631563Y15569997D01*
X18089994Y15569997D01*
X18089994Y14686219D01*
X18090609Y14678641D01*
X18090372Y14671066D01*
X18092600Y14654106D01*
X18093988Y14637041D01*
X18095813Y14629678D01*
X18096803Y14622150D01*
X18101747Y14605750D01*
X18105863Y14589153D01*
X18108850Y14582188D01*
X18111044Y14574909D01*
X18118569Y14559525D01*
X18125309Y14543806D01*
X18129388Y14537403D01*
X18132722Y14530588D01*
X18142634Y14516613D01*
X18151819Y14502194D01*
X18156863Y14496547D01*
X18161266Y14490341D01*
X18173319Y14478131D01*
X18184694Y14465400D01*
X18190588Y14460641D01*
X18195928Y14455228D01*
X18209769Y14445144D01*
X18223072Y14434394D01*
X18229669Y14430638D01*
X18235803Y14426169D01*
X18251078Y14418453D01*
X18265953Y14409988D01*
X18273072Y14407344D01*
X18279844Y14403925D01*
X18296144Y14398781D01*
X18312209Y14392819D01*
X18319672Y14391359D01*
X18326897Y14389078D01*
X18337334Y14387900D01*
X18360631Y14383341D01*
X18384334Y14382600D01*
X18394794Y14381419D01*
X18435200Y14381419D01*
X18442778Y14382034D01*
X18450353Y14381797D01*
X18467313Y14384025D01*
X18484378Y14385413D01*
X18491741Y14387238D01*
X18499269Y14388228D01*
X18515669Y14393172D01*
X18532266Y14397288D01*
X18539231Y14400275D01*
X18546509Y14402469D01*
X18561881Y14409988D01*
X18577613Y14416734D01*
X18584016Y14420813D01*
X18590831Y14424147D01*
X18604806Y14434059D01*
X18619225Y14443244D01*
X18624872Y14448288D01*
X18631078Y14452691D01*
X18643288Y14464744D01*
X18656019Y14476119D01*
X18660778Y14482013D01*
X18666191Y14487353D01*
X18676275Y14501194D01*
X18687025Y14514497D01*
X18690781Y14521094D01*
X18695250Y14527228D01*
X18702966Y14542503D01*
X18711431Y14557378D01*
X18714075Y14564497D01*
X18717494Y14571269D01*
X18722638Y14587569D01*
X18728600Y14603634D01*
X18730059Y14611097D01*
X18732341Y14618322D01*
X18733519Y14628759D01*
X18738078Y14652056D01*
X18738819Y14675759D01*
X18740000Y14686219D01*
X18740000Y15569997D01*
X19138200Y15569997D01*
X19145778Y15570613D01*
X19153353Y15570375D01*
X19170313Y15572603D01*
X19187378Y15573991D01*
X19194741Y15575816D01*
X19202269Y15576806D01*
X19218669Y15581750D01*
X19235266Y15585866D01*
X19242231Y15588853D01*
X19249509Y15591047D01*
X19264881Y15598566D01*
X19280613Y15605313D01*
X19287016Y15609391D01*
X19293831Y15612725D01*
X19307806Y15622638D01*
X19322225Y15631822D01*
X19327872Y15636866D01*
X19334078Y15641269D01*
X19346288Y15653322D01*
X19359019Y15664697D01*
X19363778Y15670591D01*
X19369191Y15675931D01*
X19379275Y15689772D01*
X19390025Y15703075D01*
X19393781Y15709672D01*
X19398250Y15715806D01*
X19405966Y15731081D01*
X19414431Y15745956D01*
X19417075Y15753075D01*
X19420494Y15759847D01*
X19425638Y15776147D01*
X19431600Y15792213D01*
X19433059Y15799675D01*
X19435341Y15806900D01*
X19436519Y15817338D01*
X19441078Y15840634D01*
X19441819Y15864338D01*
X19443000Y15874797D01*
X19443000Y15984434D01*
X19460313Y16049047D01*
X19493750Y16106963D01*
X19541034Y16154247D01*
X19598950Y16187684D01*
X19663563Y16204997D01*
X20121994Y16204997D01*
X20121994Y15321219D01*
X20122609Y15313641D01*
X20122372Y15306066D01*
X20124600Y15289106D01*
X20125988Y15272041D01*
X20127813Y15264678D01*
X20128803Y15257150D01*
X20133747Y15240750D01*
X20137863Y15224153D01*
X20140850Y15217188D01*
X20143044Y15209909D01*
X20150569Y15194525D01*
X20157309Y15178806D01*
X20161388Y15172403D01*
X20164722Y15165588D01*
X20174634Y15151613D01*
X20183819Y15137194D01*
X20188863Y15131547D01*
X20193266Y15125341D01*
X20205319Y15113131D01*
X20216694Y15100400D01*
X20222588Y15095641D01*
X20227928Y15090228D01*
X20241769Y15080144D01*
X20255072Y15069394D01*
X20261669Y15065638D01*
X20267803Y15061169D01*
X20283078Y15053453D01*
X20297953Y15044988D01*
X20305072Y15042344D01*
X20311844Y15038925D01*
X20328144Y15033781D01*
X20344209Y15027819D01*
X20351672Y15026359D01*
X20358897Y15024078D01*
X20369334Y15022900D01*
X20392631Y15018341D01*
X20416334Y15017600D01*
X20426794Y15016419D01*
X20467200Y15016419D01*
X20474778Y15017034D01*
X20482353Y15016797D01*
X20499313Y15019025D01*
X20516378Y15020413D01*
X20523741Y15022238D01*
X20531269Y15023228D01*
X20547669Y15028172D01*
X20564266Y15032288D01*
X20571231Y15035275D01*
X20578509Y15037469D01*
X20593881Y15044988D01*
X20609613Y15051734D01*
X20616016Y15055813D01*
X20622831Y15059147D01*
X20636806Y15069059D01*
X20651225Y15078244D01*
X20656872Y15083288D01*
X20663078Y15087691D01*
X20675288Y15099744D01*
X20688019Y15111119D01*
X20692778Y15117013D01*
X20698191Y15122353D01*
X20708275Y15136194D01*
X20719025Y15149497D01*
X20722781Y15156094D01*
X20727250Y15162228D01*
X20734966Y15177503D01*
X20743431Y15192378D01*
X20746075Y15199497D01*
X20749494Y15206269D01*
X20754638Y15222569D01*
X20760600Y15238634D01*
X20762059Y15246097D01*
X20764341Y15253322D01*
X20765519Y15263759D01*
X20770078Y15287056D01*
X20770819Y15310756D01*
X20772000Y15321219D01*
X20772000Y16204997D01*
X21230434Y16204997D01*
X21295047Y16187684D01*
X21362472Y16148756D01*
X21373238Y16139606D01*
X21376488Y16137647D01*
X21379478Y16135231D01*
X21397706Y16124856D01*
X21415494Y16114134D01*
X21419028Y16112722D01*
X21422359Y16110825D01*
X21441953Y16103553D01*
X21461306Y16095813D01*
X21465034Y16094984D01*
X21468616Y16093656D01*
X21489066Y16089653D01*
X21509475Y16085125D01*
X21513300Y16084909D01*
X21517038Y16084178D01*
X21537847Y16083528D01*
X21558734Y16082350D01*
X21562541Y16082753D01*
X21566353Y16082634D01*
X21587009Y16085350D01*
X21607800Y16087556D01*
X21611491Y16088569D01*
X21615269Y16089066D01*
X21635234Y16095084D01*
X21655381Y16100613D01*
X21658853Y16102203D01*
X21662509Y16103306D01*
X21681256Y16112475D01*
X21700231Y16121175D01*
X21703403Y16123309D01*
X21706831Y16124984D01*
X21723831Y16137041D01*
X21741178Y16148703D01*
X21743966Y16151319D01*
X21747078Y16153528D01*
X21761938Y16168197D01*
X21777144Y16182478D01*
X21779459Y16185494D01*
X21782191Y16188191D01*
X21794531Y16205125D01*
X21807191Y16221613D01*
X21808991Y16224966D01*
X21811250Y16228066D01*
X21820681Y16246741D01*
X21830531Y16265084D01*
X21831772Y16268694D01*
X21833494Y16272106D01*
X21839775Y16292016D01*
X21846550Y16311750D01*
X21847191Y16315516D01*
X21848341Y16319159D01*
X21849381Y16328372D01*
X21854831Y16360391D01*
X21854944Y16377697D01*
X21856000Y16387056D01*
X21856000Y16499994D01*
X22839778Y16499994D01*
X22847356Y16500609D01*
X22854931Y16500372D01*
X22862709Y16501394D01*
X22869759Y16501175D01*
X22880219Y16499994D01*
X23863997Y16499994D01*
X23863997Y16141563D01*
X23846684Y16076950D01*
X23813247Y16019034D01*
X23794931Y16000719D01*
X23790022Y15994941D01*
X23784472Y15989728D01*
X23774031Y15976125D01*
X23762981Y15963122D01*
X23759072Y15956631D01*
X23754431Y15950588D01*
X23746328Y15935488D01*
X23737516Y15920863D01*
X23734694Y15913806D01*
X23731103Y15907113D01*
X23725556Y15890944D01*
X23719200Y15875047D01*
X23717553Y15867622D01*
X23715091Y15860444D01*
X23712225Y15843591D01*
X23708519Y15826878D01*
X23708094Y15819288D01*
X23706819Y15811800D01*
X23706709Y15794703D01*
X23705750Y15777616D01*
X23706553Y15770050D01*
X23706506Y15762463D01*
X23709156Y15745584D01*
X23710966Y15728553D01*
X23712978Y15721219D01*
X23714156Y15713719D01*
X23719497Y15697481D01*
X23724028Y15680972D01*
X23727197Y15674063D01*
X23729569Y15666850D01*
X23736997Y15652575D01*
X23736997Y14222391D01*
X23662606Y14148000D01*
X23621797Y14148000D01*
X23614219Y14147384D01*
X23606644Y14147622D01*
X23589684Y14145394D01*
X23572619Y14144006D01*
X23565256Y14142181D01*
X23557728Y14141191D01*
X23541328Y14136247D01*
X23524731Y14132131D01*
X23517766Y14129144D01*
X23510488Y14126950D01*
X23495103Y14119425D01*
X23479384Y14112684D01*
X23472981Y14108606D01*
X23466166Y14105272D01*
X23452191Y14095359D01*
X23437772Y14086175D01*
X23432125Y14081131D01*
X23425919Y14076728D01*
X23413709Y14064675D01*
X23400978Y14053300D01*
X23396219Y14047406D01*
X23390806Y14042066D01*
X23380722Y14028225D01*
X23369972Y14014922D01*
X23366216Y14008325D01*
X23361747Y14002191D01*
X23354031Y13986916D01*
X23345566Y13972041D01*
X23342922Y13964922D01*
X23339503Y13958150D01*
X23334359Y13941850D01*
X23328397Y13925784D01*
X23326938Y13918322D01*
X23324656Y13911097D01*
X23323478Y13900659D01*
X23318919Y13877363D01*
X23318178Y13853659D01*
X23316997Y13843200D01*
X23316997Y13661797D01*
X23317613Y13654219D01*
X23317375Y13646644D01*
X23319606Y13629675D01*
X23320991Y13612619D01*
X23322816Y13605256D01*
X23323806Y13597728D01*
X23328750Y13581328D01*
X23332866Y13564731D01*
X23335853Y13557766D01*
X23338047Y13550488D01*
X23345572Y13535103D01*
X23352313Y13519384D01*
X23356391Y13512981D01*
X23359725Y13506166D01*
X23369638Y13492191D01*
X23378822Y13477772D01*
X23383866Y13472125D01*
X23388269Y13465919D01*
X23400322Y13453709D01*
X23411697Y13440978D01*
X23417591Y13436219D01*
X23422931Y13430806D01*
X23436772Y13420722D01*
X23450075Y13409972D01*
X23456672Y13406216D01*
X23462806Y13401747D01*
X23478081Y13394031D01*
X23492956Y13385566D01*
X23500075Y13382922D01*
X23506847Y13379503D01*
X23523147Y13374359D01*
X23539213Y13368397D01*
X23546675Y13366938D01*
X23553900Y13364656D01*
X23564338Y13363478D01*
X23587634Y13358919D01*
X23611338Y13358178D01*
X23621797Y13356997D01*
X24088606Y13356997D01*
X24162997Y13282606D01*
X24162997Y12552109D01*
X24163306Y12548288D01*
X24163094Y12544475D01*
X24165300Y12523734D01*
X24166991Y12502931D01*
X24167909Y12499225D01*
X24168316Y12495413D01*
X24173853Y12475259D01*
X24178866Y12455044D01*
X24180372Y12451531D01*
X24181388Y12447834D01*
X24190094Y12428863D01*
X24198313Y12409697D01*
X24200372Y12406466D01*
X24201966Y12402991D01*
X24213634Y12385647D01*
X24224822Y12368084D01*
X24227359Y12365244D01*
X24229506Y12362053D01*
X24243850Y12346788D01*
X24257697Y12331291D01*
X24260672Y12328888D01*
X24263294Y12326097D01*
X24279831Y12313406D01*
X24296075Y12300284D01*
X24299406Y12298388D01*
X24302438Y12296063D01*
X24320816Y12286203D01*
X24338956Y12275878D01*
X24342544Y12274547D01*
X24345916Y12272738D01*
X24365631Y12265978D01*
X24385213Y12258709D01*
X24388975Y12257972D01*
X24392588Y12256734D01*
X24413169Y12253238D01*
X24433634Y12249231D01*
X24437447Y12249113D01*
X24441231Y12248469D01*
X24462138Y12248338D01*
X24482950Y12247688D01*
X24486744Y12248188D01*
X24490569Y12248163D01*
X24511147Y12251394D01*
X24531866Y12254119D01*
X24535538Y12255225D01*
X24539313Y12255819D01*
X24559106Y12262331D01*
X24579106Y12268359D01*
X24582544Y12270041D01*
X24586181Y12271238D01*
X24604713Y12280884D01*
X24623428Y12290038D01*
X24626544Y12292247D01*
X24629947Y12294019D01*
X24630500Y12294459D01*
X24806588Y12367397D01*
X24977409Y12367397D01*
X25135241Y12302022D01*
X25256028Y12181234D01*
X25331447Y11999156D01*
X25341363Y11979813D01*
X25350972Y11960166D01*
X25352638Y11957819D01*
X25353953Y11955250D01*
X25366884Y11937728D01*
X25379516Y11919919D01*
X25381550Y11917859D01*
X25383253Y11915550D01*
X25398797Y11900388D01*
X25414178Y11884806D01*
X25416516Y11883103D01*
X25418572Y11881097D01*
X25436350Y11868647D01*
X25454053Y11855747D01*
X25456641Y11854441D01*
X25458988Y11852797D01*
X25478563Y11843369D01*
X25498094Y11833503D01*
X25500844Y11832634D01*
X25503441Y11831384D01*
X25524381Y11825209D01*
X25545147Y11818656D01*
X25547497Y11818391D01*
X25550763Y11817428D01*
X25599719Y11811288D01*
X25607794Y11811588D01*
X25613044Y11810997D01*
X27584400Y11810997D01*
X27591978Y11811613D01*
G37*
%LPC*%
G36*
X2561447Y3149600D02*
X2561447Y3149600D01*
X2178694Y3308141D01*
X1885741Y3601094D01*
X1727200Y3983847D01*
X1727200Y4398150D01*
X1885741Y4780903D01*
X2178688Y5073850D01*
X2433509Y5179400D01*
X2436903Y5181141D01*
X2440478Y5182391D01*
X2458788Y5192359D01*
X2477416Y5201909D01*
X2480475Y5204166D01*
X2483813Y5205984D01*
X2500328Y5218822D01*
X2517116Y5231209D01*
X2519763Y5233925D01*
X2522769Y5236259D01*
X2536978Y5251572D01*
X2551569Y5266528D01*
X2553750Y5269644D01*
X2556331Y5272425D01*
X2567909Y5289863D01*
X2579869Y5306944D01*
X2581509Y5310350D01*
X2583622Y5313531D01*
X2592231Y5332606D01*
X2601281Y5351394D01*
X2602359Y5355044D01*
X2603919Y5358503D01*
X2609322Y5378659D01*
X2615238Y5398719D01*
X2615709Y5402494D01*
X2616694Y5406159D01*
X2618775Y5426931D01*
X2621378Y5447675D01*
X2621238Y5451472D01*
X2621616Y5455253D01*
X2620316Y5476131D01*
X2619538Y5496981D01*
X2618788Y5500697D01*
X2618550Y5504497D01*
X2613894Y5524906D01*
X2609766Y5545344D01*
X2608425Y5548891D01*
X2607578Y5552603D01*
X2599709Y5571950D01*
X2592322Y5591497D01*
X2590419Y5594791D01*
X2588991Y5598306D01*
X2578091Y5616153D01*
X2567656Y5634228D01*
X2565259Y5637159D01*
X2563272Y5640413D01*
X2549631Y5656272D01*
X2536422Y5672422D01*
X2533572Y5674938D01*
X2531094Y5677819D01*
X2515103Y5691244D01*
X2499434Y5705075D01*
X2496216Y5707100D01*
X2493306Y5709541D01*
X2485213Y5714016D01*
X2457663Y5731334D01*
X2441738Y5738053D01*
X2433509Y5742600D01*
X2178688Y5848147D01*
X1885741Y6141094D01*
X1727200Y6523847D01*
X1727200Y6938150D01*
X1885741Y7320903D01*
X2178688Y7613850D01*
X2433509Y7719400D01*
X2436903Y7721141D01*
X2440478Y7722391D01*
X2458788Y7732359D01*
X2477416Y7741909D01*
X2480475Y7744166D01*
X2483813Y7745984D01*
X2500328Y7758822D01*
X2517116Y7771209D01*
X2519763Y7773925D01*
X2522769Y7776259D01*
X2536978Y7791572D01*
X2551569Y7806528D01*
X2553750Y7809644D01*
X2556331Y7812425D01*
X2567909Y7829863D01*
X2579869Y7846944D01*
X2581509Y7850350D01*
X2583622Y7853531D01*
X2592231Y7872606D01*
X2601281Y7891394D01*
X2602359Y7895044D01*
X2603919Y7898503D01*
X2609322Y7918659D01*
X2615238Y7938719D01*
X2615709Y7942494D01*
X2616694Y7946159D01*
X2618775Y7966931D01*
X2621378Y7987675D01*
X2621238Y7991472D01*
X2621616Y7995253D01*
X2620316Y8016131D01*
X2619538Y8036981D01*
X2618788Y8040697D01*
X2618550Y8044497D01*
X2613894Y8064906D01*
X2609766Y8085344D01*
X2608425Y8088891D01*
X2607578Y8092603D01*
X2599725Y8111909D01*
X2592322Y8131497D01*
X2590419Y8134791D01*
X2588991Y8138306D01*
X2578091Y8156153D01*
X2567656Y8174228D01*
X2565259Y8177159D01*
X2563272Y8180413D01*
X2549631Y8196272D01*
X2536422Y8212422D01*
X2533572Y8214938D01*
X2531094Y8217819D01*
X2515100Y8231247D01*
X2499434Y8245075D01*
X2496216Y8247100D01*
X2493306Y8249541D01*
X2485213Y8254016D01*
X2457663Y8271334D01*
X2441738Y8278053D01*
X2433509Y8282600D01*
X2178688Y8388147D01*
X1885741Y8681094D01*
X1727200Y9063847D01*
X1727200Y9478150D01*
X1885741Y9860903D01*
X2178688Y10153850D01*
X2433509Y10259400D01*
X2436903Y10261141D01*
X2440478Y10262391D01*
X2458788Y10272359D01*
X2477416Y10281909D01*
X2480475Y10284166D01*
X2483813Y10285984D01*
X2500294Y10298794D01*
X2517116Y10311209D01*
X2519763Y10313925D01*
X2522769Y10316259D01*
X2536978Y10331572D01*
X2551569Y10346528D01*
X2553750Y10349644D01*
X2556331Y10352425D01*
X2567909Y10369863D01*
X2579869Y10386944D01*
X2581509Y10390350D01*
X2583622Y10393531D01*
X2592231Y10412606D01*
X2601281Y10431394D01*
X2602359Y10435044D01*
X2603919Y10438503D01*
X2609322Y10458659D01*
X2615238Y10478719D01*
X2615709Y10482494D01*
X2616694Y10486159D01*
X2618772Y10506888D01*
X2621378Y10527675D01*
X2621238Y10531472D01*
X2621616Y10535253D01*
X2620316Y10556131D01*
X2619538Y10576981D01*
X2618788Y10580697D01*
X2618550Y10584497D01*
X2613894Y10604906D01*
X2609766Y10625344D01*
X2608425Y10628891D01*
X2607578Y10632603D01*
X2599709Y10651950D01*
X2592322Y10671497D01*
X2590419Y10674791D01*
X2588991Y10678306D01*
X2578091Y10696153D01*
X2567656Y10714228D01*
X2565259Y10717159D01*
X2563272Y10720413D01*
X2549631Y10736272D01*
X2536422Y10752422D01*
X2533572Y10754938D01*
X2531094Y10757819D01*
X2515100Y10771247D01*
X2499434Y10785075D01*
X2496216Y10787100D01*
X2493306Y10789541D01*
X2485213Y10794016D01*
X2457663Y10811334D01*
X2441738Y10818053D01*
X2433509Y10822600D01*
X2178688Y10928147D01*
X1885741Y11221094D01*
X1727200Y11603847D01*
X1727200Y12018150D01*
X1885741Y12400903D01*
X2178688Y12693850D01*
X2267616Y12730684D01*
X2282328Y12738228D01*
X2297394Y12744956D01*
X2304228Y12749453D01*
X2311522Y12753194D01*
X2324825Y12763009D01*
X2338606Y12772081D01*
X2344622Y12777619D01*
X2351222Y12782491D01*
X2362769Y12794331D01*
X2374903Y12805503D01*
X2379956Y12811953D01*
X2385672Y12817813D01*
X2395125Y12831309D01*
X2405334Y12844341D01*
X2409288Y12851538D01*
X2413975Y12858228D01*
X2421141Y12873103D01*
X2429097Y12887581D01*
X2431828Y12895288D01*
X2435388Y12902678D01*
X2440059Y12918522D01*
X2445575Y12934088D01*
X2447031Y12942159D01*
X2449344Y12950003D01*
X2451397Y12966372D01*
X2454331Y12982644D01*
X2454466Y12990834D01*
X2455484Y12998959D01*
X2454869Y13015475D01*
X2455138Y13031978D01*
X2453950Y13040075D01*
X2453644Y13048266D01*
X2450372Y13064459D01*
X2447975Y13080794D01*
X2445494Y13088600D01*
X2443872Y13096628D01*
X2438034Y13112069D01*
X2433031Y13127816D01*
X2429322Y13135119D01*
X2426428Y13142778D01*
X2418175Y13157078D01*
X2410694Y13171813D01*
X2405853Y13178428D01*
X2401763Y13185513D01*
X2391316Y13198284D01*
X2381553Y13211625D01*
X2375713Y13217369D01*
X2370528Y13223706D01*
X2358144Y13234641D01*
X2346369Y13246216D01*
X2341059Y13249722D01*
X2333541Y13256359D01*
X2291769Y13282619D01*
X2290300Y13283238D01*
X2289350Y13283866D01*
X2156219Y13351700D01*
X2007428Y13459803D01*
X1877403Y13589828D01*
X1769294Y13738625D01*
X1685797Y13902494D01*
X1639109Y14046181D01*
X3682966Y14046181D01*
X3683003Y14046184D01*
X3683031Y14046181D01*
X5726888Y14046181D01*
X5680200Y13902494D01*
X5596703Y13738625D01*
X5488594Y13589828D01*
X5358569Y13459803D01*
X5209778Y13351700D01*
X5076647Y13283866D01*
X5062547Y13275175D01*
X5048081Y13267300D01*
X5041628Y13262284D01*
X5034644Y13257981D01*
X5022166Y13247163D01*
X5009122Y13237025D01*
X5003541Y13231009D01*
X4997366Y13225656D01*
X4986816Y13212988D01*
X4975559Y13200859D01*
X4971025Y13194028D01*
X4965791Y13187744D01*
X4957413Y13173522D01*
X4948272Y13159753D01*
X4944900Y13152288D01*
X4940747Y13145234D01*
X4934772Y13129847D01*
X4927972Y13114781D01*
X4925850Y13106872D01*
X4922888Y13099238D01*
X4919472Y13083072D01*
X4915197Y13067125D01*
X4914381Y13058975D01*
X4912688Y13050966D01*
X4911925Y13034488D01*
X4910275Y13018031D01*
X4910784Y13009850D01*
X4910406Y13001678D01*
X4912313Y12985291D01*
X4913341Y12968788D01*
X4915163Y12960794D01*
X4916109Y12952669D01*
X4920641Y12936788D01*
X4924313Y12920684D01*
X4927397Y12913103D01*
X4929644Y12905222D01*
X4936678Y12890278D01*
X4942900Y12874978D01*
X4947172Y12867988D01*
X4950656Y12860581D01*
X4960000Y12846981D01*
X4968619Y12832872D01*
X4973966Y12826656D01*
X4978597Y12819916D01*
X4990025Y12807988D01*
X5000794Y12795469D01*
X5007053Y12790213D01*
X5012731Y12784288D01*
X5025959Y12774341D01*
X5038584Y12763744D01*
X5044147Y12760669D01*
X5052169Y12754638D01*
X5095872Y12731738D01*
X5097384Y12731234D01*
X5098381Y12730684D01*
X5187309Y12693850D01*
X5480256Y12400903D01*
X5638797Y12018150D01*
X5638797Y11603847D01*
X5480256Y11221094D01*
X5187309Y10928147D01*
X4932488Y10822600D01*
X4929106Y10820866D01*
X4925522Y10819613D01*
X4907138Y10809603D01*
X4888581Y10800091D01*
X4885528Y10797838D01*
X4882188Y10796019D01*
X4865669Y10783181D01*
X4848884Y10770794D01*
X4846234Y10768075D01*
X4843228Y10765741D01*
X4829016Y10750425D01*
X4814431Y10735475D01*
X4812250Y10732359D01*
X4809666Y10729575D01*
X4798128Y10712197D01*
X4786128Y10695059D01*
X4784475Y10691628D01*
X4782378Y10688469D01*
X4773769Y10669397D01*
X4764719Y10650606D01*
X4763650Y10646981D01*
X4762078Y10643500D01*
X4756650Y10623250D01*
X4750759Y10603284D01*
X4750288Y10599509D01*
X4749303Y10595844D01*
X4747222Y10575072D01*
X4744619Y10554328D01*
X4744759Y10550531D01*
X4744381Y10546750D01*
X4745681Y10525866D01*
X4746459Y10505022D01*
X4747209Y10501303D01*
X4747447Y10497503D01*
X4752091Y10477150D01*
X4756228Y10456659D01*
X4757578Y10453094D01*
X4758419Y10449400D01*
X4766269Y10430097D01*
X4773675Y10410506D01*
X4775578Y10407209D01*
X4777006Y10403697D01*
X4787916Y10385834D01*
X4798338Y10367775D01*
X4800741Y10364834D01*
X4802725Y10361588D01*
X4816328Y10345772D01*
X4829572Y10329578D01*
X4832431Y10327053D01*
X4834900Y10324184D01*
X4850891Y10310759D01*
X4866563Y10296925D01*
X4869769Y10294909D01*
X4872688Y10292459D01*
X4880819Y10287966D01*
X4908334Y10270669D01*
X4924238Y10263959D01*
X4932488Y10259400D01*
X5187309Y10153850D01*
X5480256Y9860903D01*
X5638797Y9478150D01*
X5638797Y9063847D01*
X5480256Y8681094D01*
X5187309Y8388147D01*
X4932488Y8282600D01*
X4929106Y8280866D01*
X4925522Y8279613D01*
X4907166Y8269619D01*
X4888581Y8260091D01*
X4885528Y8257838D01*
X4882188Y8256019D01*
X4865616Y8243141D01*
X4848884Y8230794D01*
X4846234Y8228075D01*
X4843228Y8225741D01*
X4829016Y8210425D01*
X4814431Y8195475D01*
X4812250Y8192359D01*
X4809666Y8189575D01*
X4798128Y8172197D01*
X4786128Y8155059D01*
X4784475Y8151628D01*
X4782378Y8148469D01*
X4773769Y8129397D01*
X4764719Y8110606D01*
X4763650Y8106981D01*
X4762078Y8103500D01*
X4756659Y8083281D01*
X4750759Y8063284D01*
X4750288Y8059509D01*
X4749303Y8055844D01*
X4747222Y8035072D01*
X4744619Y8014328D01*
X4744759Y8010531D01*
X4744381Y8006750D01*
X4745681Y7985866D01*
X4746459Y7965022D01*
X4747209Y7961303D01*
X4747447Y7957503D01*
X4752091Y7937150D01*
X4756228Y7916659D01*
X4757581Y7913078D01*
X4758419Y7909400D01*
X4766272Y7890088D01*
X4773675Y7870506D01*
X4775578Y7867209D01*
X4777006Y7863697D01*
X4787888Y7845878D01*
X4798338Y7827775D01*
X4800741Y7824834D01*
X4802725Y7821588D01*
X4816328Y7805772D01*
X4829572Y7789578D01*
X4832431Y7787053D01*
X4834900Y7784184D01*
X4850934Y7770722D01*
X4866563Y7756925D01*
X4869769Y7754909D01*
X4872688Y7752459D01*
X4880819Y7747966D01*
X4908334Y7730669D01*
X4924238Y7723959D01*
X4932488Y7719400D01*
X5187309Y7613850D01*
X5480256Y7320903D01*
X5638797Y6938150D01*
X5638797Y6523847D01*
X5480256Y6141094D01*
X5187309Y5848147D01*
X4932488Y5742600D01*
X4929106Y5740866D01*
X4925522Y5739613D01*
X4907166Y5729619D01*
X4888581Y5720091D01*
X4885528Y5717838D01*
X4882188Y5716019D01*
X4865669Y5703181D01*
X4848884Y5690794D01*
X4846234Y5688075D01*
X4843228Y5685741D01*
X4829016Y5670425D01*
X4814431Y5655475D01*
X4812250Y5652359D01*
X4809666Y5649575D01*
X4798128Y5632197D01*
X4786128Y5615059D01*
X4784475Y5611628D01*
X4782378Y5608469D01*
X4773769Y5589397D01*
X4764719Y5570606D01*
X4763650Y5566981D01*
X4762078Y5563500D01*
X4756659Y5543281D01*
X4750759Y5523284D01*
X4750288Y5519509D01*
X4749303Y5515844D01*
X4747222Y5495072D01*
X4744619Y5474328D01*
X4744759Y5470531D01*
X4744381Y5466750D01*
X4745681Y5445866D01*
X4746459Y5425022D01*
X4747209Y5421303D01*
X4747447Y5417503D01*
X4752091Y5397150D01*
X4756228Y5376659D01*
X4757578Y5373094D01*
X4758419Y5369400D01*
X4766269Y5350097D01*
X4773675Y5330506D01*
X4775578Y5327209D01*
X4777006Y5323697D01*
X4787888Y5305878D01*
X4798338Y5287775D01*
X4800741Y5284834D01*
X4802725Y5281588D01*
X4816328Y5265772D01*
X4829572Y5249578D01*
X4832431Y5247053D01*
X4834900Y5244184D01*
X4850891Y5230759D01*
X4866563Y5216925D01*
X4869769Y5214909D01*
X4872688Y5212459D01*
X4880819Y5207966D01*
X4908334Y5190669D01*
X4924238Y5183959D01*
X4932488Y5179400D01*
X5187309Y5073850D01*
X5480250Y4780909D01*
X5541450Y4633156D01*
X5551406Y4613738D01*
X5560978Y4594166D01*
X5562641Y4591819D01*
X5563959Y4589250D01*
X5576925Y4571678D01*
X5589522Y4553919D01*
X5591544Y4551872D01*
X5593256Y4549550D01*
X5608813Y4534378D01*
X5624184Y4518806D01*
X5626534Y4517094D01*
X5628578Y4515100D01*
X5646331Y4502669D01*
X5664059Y4489747D01*
X5666638Y4488444D01*
X5668991Y4486797D01*
X5688575Y4477366D01*
X5708100Y4467503D01*
X5710856Y4466634D01*
X5713444Y4465388D01*
X5734328Y4459228D01*
X5755153Y4452656D01*
X5757503Y4452391D01*
X5760769Y4451428D01*
X5809725Y4445288D01*
X5817800Y4445588D01*
X5823050Y4444997D01*
X6946200Y4444997D01*
X6953778Y4445613D01*
X6961353Y4445375D01*
X6978313Y4447603D01*
X6995378Y4448991D01*
X7002741Y4450816D01*
X7010269Y4451806D01*
X7026669Y4456750D01*
X7043266Y4460866D01*
X7050231Y4463853D01*
X7057509Y4466047D01*
X7072881Y4473566D01*
X7088613Y4480313D01*
X7095016Y4484391D01*
X7101831Y4487725D01*
X7115806Y4497638D01*
X7130225Y4506822D01*
X7135872Y4511866D01*
X7142078Y4516269D01*
X7154288Y4528322D01*
X7167019Y4539697D01*
X7171778Y4545591D01*
X7177191Y4550931D01*
X7187275Y4564772D01*
X7198025Y4578075D01*
X7201781Y4584672D01*
X7206250Y4590806D01*
X7213966Y4606081D01*
X7222431Y4620956D01*
X7225075Y4628075D01*
X7228494Y4634847D01*
X7233638Y4651147D01*
X7239600Y4667213D01*
X7241059Y4674675D01*
X7243341Y4681900D01*
X7244519Y4692338D01*
X7249078Y4715634D01*
X7249819Y4739338D01*
X7251000Y4749797D01*
X7251000Y4982825D01*
X7253300Y4988575D01*
X7256888Y4995263D01*
X7262434Y5011428D01*
X7268791Y5027325D01*
X7270434Y5034741D01*
X7272903Y5041931D01*
X7275772Y5058794D01*
X7279475Y5075494D01*
X7279903Y5083088D01*
X7281175Y5090572D01*
X7281284Y5107669D01*
X7282247Y5124756D01*
X7281444Y5132306D01*
X7281494Y5139909D01*
X7278841Y5156828D01*
X7277034Y5173819D01*
X7275025Y5181134D01*
X7273847Y5188653D01*
X7268500Y5204916D01*
X7263975Y5221400D01*
X7260806Y5228306D01*
X7258434Y5235525D01*
X7250544Y5250691D01*
X7243409Y5266250D01*
X7239166Y5272559D01*
X7235663Y5279294D01*
X7229116Y5287503D01*
X7215875Y5307194D01*
X7199613Y5324509D01*
X7193066Y5332719D01*
X7174750Y5351034D01*
X7141313Y5408950D01*
X7124000Y5473563D01*
X7124000Y5831994D01*
X8107778Y5831994D01*
X8115356Y5832609D01*
X8122931Y5832372D01*
X8130709Y5833394D01*
X8137759Y5833175D01*
X8148219Y5831994D01*
X9131997Y5831994D01*
X9131997Y5473563D01*
X9114684Y5408950D01*
X9081247Y5351034D01*
X9062931Y5332719D01*
X9058022Y5326941D01*
X9052472Y5321728D01*
X9042031Y5308125D01*
X9030981Y5295122D01*
X9027072Y5288631D01*
X9022431Y5282588D01*
X9014328Y5267488D01*
X9005516Y5252863D01*
X9002694Y5245806D01*
X8999103Y5239113D01*
X8993556Y5222944D01*
X8987200Y5207047D01*
X8985553Y5199622D01*
X8983091Y5192444D01*
X8980219Y5175563D01*
X8976519Y5158878D01*
X8976094Y5151288D01*
X8974819Y5143800D01*
X8974709Y5126703D01*
X8973750Y5109616D01*
X8974553Y5102050D01*
X8974506Y5094463D01*
X8977156Y5077584D01*
X8978966Y5060553D01*
X8980978Y5053219D01*
X8982156Y5045719D01*
X8987497Y5029481D01*
X8992028Y5012972D01*
X8995197Y5006063D01*
X8997569Y4998850D01*
X9004997Y4984575D01*
X9004997Y3554391D01*
X8930606Y3480000D01*
X7325391Y3480000D01*
X7251000Y3554391D01*
X7251000Y3632200D01*
X7250384Y3639778D01*
X7250622Y3647353D01*
X7248394Y3664313D01*
X7247006Y3681378D01*
X7245181Y3688741D01*
X7244191Y3696269D01*
X7239247Y3712669D01*
X7235131Y3729266D01*
X7232144Y3736231D01*
X7229950Y3743509D01*
X7222425Y3758894D01*
X7215684Y3774613D01*
X7211606Y3781016D01*
X7208272Y3787831D01*
X7198359Y3801806D01*
X7189175Y3816225D01*
X7184131Y3821872D01*
X7179728Y3828078D01*
X7167675Y3840288D01*
X7156300Y3853019D01*
X7150406Y3857778D01*
X7145066Y3863191D01*
X7131225Y3873275D01*
X7117922Y3884025D01*
X7111325Y3887781D01*
X7105191Y3892250D01*
X7089916Y3899966D01*
X7075041Y3908431D01*
X7067922Y3911075D01*
X7061150Y3914494D01*
X7044850Y3919638D01*
X7028784Y3925600D01*
X7021322Y3927059D01*
X7014097Y3929341D01*
X7003659Y3930519D01*
X6980363Y3935078D01*
X6956659Y3935819D01*
X6946200Y3937000D01*
X5823050Y3937000D01*
X5801375Y3935241D01*
X5779553Y3933881D01*
X5776738Y3933238D01*
X5773872Y3933006D01*
X5752709Y3927759D01*
X5731450Y3922909D01*
X5728788Y3921825D01*
X5725984Y3921131D01*
X5705934Y3912531D01*
X5685744Y3904322D01*
X5683284Y3902819D01*
X5680638Y3901684D01*
X5662297Y3890000D01*
X5643638Y3878603D01*
X5641444Y3876716D01*
X5639025Y3875175D01*
X5622806Y3860684D01*
X5606234Y3846428D01*
X5604381Y3844222D01*
X5602231Y3842300D01*
X5588478Y3825275D01*
X5574509Y3808638D01*
X5573372Y3806578D01*
X5571225Y3803922D01*
X5546819Y3761041D01*
X5544006Y3753466D01*
X5541450Y3748841D01*
X5480250Y3601088D01*
X5187303Y3308141D01*
X4804550Y3149600D01*
X2561447Y3149600D01*
G37*
%LPD*%
%LPC*%
G36*
X3682966Y14655813D02*
X3682966Y14655813D01*
X1639109Y14655813D01*
X1685797Y14799503D01*
X1769294Y14963372D01*
X1877403Y15112169D01*
X2007428Y15242194D01*
X2156219Y15350297D01*
X2289350Y15418131D01*
X2303450Y15426822D01*
X2317916Y15434697D01*
X2324369Y15439713D01*
X2331353Y15444016D01*
X2343831Y15454834D01*
X2356875Y15464972D01*
X2362456Y15470988D01*
X2368631Y15476341D01*
X2379181Y15489009D01*
X2390438Y15501138D01*
X2394972Y15507969D01*
X2400206Y15514253D01*
X2408584Y15528475D01*
X2417725Y15542244D01*
X2421097Y15549709D01*
X2425250Y15556763D01*
X2431225Y15572150D01*
X2438025Y15587216D01*
X2440147Y15595125D01*
X2443109Y15602759D01*
X2446525Y15618925D01*
X2450800Y15634872D01*
X2451616Y15643022D01*
X2453309Y15651031D01*
X2454072Y15667509D01*
X2455722Y15683966D01*
X2455213Y15692147D01*
X2455591Y15700319D01*
X2453684Y15716706D01*
X2452656Y15733209D01*
X2450834Y15741203D01*
X2449888Y15749328D01*
X2445356Y15765209D01*
X2441684Y15781313D01*
X2438600Y15788894D01*
X2436353Y15796775D01*
X2429319Y15811719D01*
X2423097Y15827019D01*
X2418825Y15834009D01*
X2415341Y15841416D01*
X2405997Y15855016D01*
X2397378Y15869125D01*
X2392031Y15875341D01*
X2387400Y15882081D01*
X2375972Y15894009D01*
X2365203Y15906528D01*
X2358944Y15911784D01*
X2353266Y15917709D01*
X2340038Y15927656D01*
X2327413Y15938253D01*
X2321850Y15941328D01*
X2313828Y15947359D01*
X2270125Y15970259D01*
X2268613Y15970763D01*
X2267616Y15971313D01*
X2178688Y16008147D01*
X1885741Y16301094D01*
X1727200Y16683847D01*
X1727200Y17098150D01*
X1885741Y17480903D01*
X2178694Y17773856D01*
X2561447Y17932397D01*
X4804550Y17932397D01*
X5187303Y17773856D01*
X5480256Y17480903D01*
X5638797Y17098150D01*
X5638797Y16683847D01*
X5480256Y16301094D01*
X5187309Y16008147D01*
X5098381Y15971313D01*
X5083669Y15963769D01*
X5068603Y15957041D01*
X5061769Y15952544D01*
X5054475Y15948803D01*
X5041172Y15938988D01*
X5027391Y15929916D01*
X5021375Y15924378D01*
X5014775Y15919506D01*
X5003228Y15907666D01*
X4991094Y15896494D01*
X4986041Y15890044D01*
X4980325Y15884184D01*
X4970872Y15870688D01*
X4960663Y15857656D01*
X4956709Y15850459D01*
X4952022Y15843769D01*
X4944856Y15828894D01*
X4936900Y15814416D01*
X4934169Y15806709D01*
X4930609Y15799319D01*
X4925938Y15783475D01*
X4920422Y15767909D01*
X4918966Y15759838D01*
X4916653Y15751994D01*
X4914600Y15735625D01*
X4911666Y15719353D01*
X4911531Y15711163D01*
X4910513Y15703038D01*
X4911128Y15686522D01*
X4910859Y15670019D01*
X4912047Y15661922D01*
X4912353Y15653731D01*
X4915625Y15637538D01*
X4918022Y15621203D01*
X4920503Y15613397D01*
X4922125Y15605369D01*
X4927963Y15589928D01*
X4932966Y15574181D01*
X4936675Y15566878D01*
X4939569Y15559219D01*
X4947822Y15544919D01*
X4955303Y15530184D01*
X4960144Y15523569D01*
X4964234Y15516484D01*
X4974681Y15503713D01*
X4984444Y15490372D01*
X4990284Y15484628D01*
X4995469Y15478291D01*
X5007853Y15467356D01*
X5019628Y15455781D01*
X5024938Y15452275D01*
X5032456Y15445638D01*
X5074228Y15419378D01*
X5075697Y15418759D01*
X5076647Y15418131D01*
X5209778Y15350297D01*
X5358569Y15242194D01*
X5488594Y15112169D01*
X5596703Y14963372D01*
X5680200Y14799503D01*
X5726888Y14655813D01*
X3683031Y14655813D01*
X3682994Y14655809D01*
X3682966Y14655813D01*
G37*
%LPD*%
%LPC*%
G36*
X16246788Y6809600D02*
X16246788Y6809600D01*
X16088956Y6874975D01*
X16068206Y6895725D01*
X16059566Y6903069D01*
X16051547Y6911191D01*
X16040738Y6919069D01*
X16030609Y6927675D01*
X16020891Y6933531D01*
X16011672Y6940250D01*
X15999744Y6946275D01*
X15988350Y6953141D01*
X15977797Y6957359D01*
X15967631Y6962494D01*
X15954922Y6966503D01*
X15942534Y6971456D01*
X15931406Y6973925D01*
X15920578Y6977341D01*
X15911256Y6978394D01*
X15894366Y6982138D01*
X15861863Y6983966D01*
X15852681Y6985000D01*
X15515784Y6985000D01*
X15272459Y7228325D01*
X15263819Y7235669D01*
X15255800Y7243791D01*
X15244991Y7251669D01*
X15234863Y7260275D01*
X15225144Y7266131D01*
X15215925Y7272850D01*
X15203997Y7278875D01*
X15192603Y7285741D01*
X15182050Y7289959D01*
X15171884Y7295094D01*
X15159175Y7299103D01*
X15146788Y7304056D01*
X15135659Y7306525D01*
X15124831Y7309941D01*
X15115509Y7310994D01*
X15098619Y7314738D01*
X15066116Y7316566D01*
X15056934Y7317600D01*
X15027588Y7317600D01*
X14869756Y7382975D01*
X14748975Y7503756D01*
X14683600Y7661588D01*
X14683600Y7832406D01*
X14748975Y7990241D01*
X14869756Y8111022D01*
X15027588Y8176397D01*
X15198409Y8176397D01*
X15356241Y8111022D01*
X15477022Y7990241D01*
X15542397Y7832406D01*
X15542397Y7803063D01*
X15543319Y7791728D01*
X15543244Y7780347D01*
X15545313Y7767159D01*
X15546391Y7753884D01*
X15549125Y7742856D01*
X15550891Y7731603D01*
X15555059Y7718922D01*
X15558266Y7705997D01*
X15562747Y7695550D01*
X15566303Y7684731D01*
X15572463Y7672894D01*
X15577713Y7660650D01*
X15583819Y7651063D01*
X15589075Y7640963D01*
X15594944Y7633603D01*
X15604222Y7619038D01*
X15616691Y7605081D01*
X15618934Y7601919D01*
X15625078Y7595697D01*
X15625909Y7594766D01*
X15631672Y7587538D01*
X15636938Y7582272D01*
X15643784Y7576453D01*
X15648134Y7571822D01*
X15650244Y7570203D01*
X15653597Y7566806D01*
X15664406Y7558928D01*
X15674534Y7550322D01*
X15682041Y7545797D01*
X15687275Y7541781D01*
X15689781Y7540434D01*
X15693472Y7537747D01*
X15705400Y7531722D01*
X15716794Y7524856D01*
X15724709Y7521691D01*
X15730750Y7518450D01*
X15733644Y7517456D01*
X15737513Y7515503D01*
X15750222Y7511494D01*
X15762609Y7506541D01*
X15770647Y7504759D01*
X15777419Y7502434D01*
X15780697Y7501878D01*
X15784566Y7500656D01*
X15793888Y7499603D01*
X15810778Y7495859D01*
X15818700Y7495416D01*
X15826059Y7494163D01*
X15842906Y7494053D01*
X15843281Y7494031D01*
X15852463Y7492997D01*
X15852681Y7492997D01*
X15856375Y7493297D01*
X15860041Y7493091D01*
X15867600Y7493894D01*
X15875397Y7493844D01*
X15888584Y7495913D01*
X15901859Y7496991D01*
X15905709Y7497947D01*
X15909103Y7498306D01*
X15916119Y7500231D01*
X15924141Y7501491D01*
X15936822Y7505659D01*
X15949747Y7508866D01*
X15953625Y7510528D01*
X15956684Y7511369D01*
X15963025Y7514275D01*
X15971013Y7516903D01*
X15982850Y7523063D01*
X15995094Y7528313D01*
X15998863Y7530713D01*
X16001531Y7531938D01*
X16007072Y7535666D01*
X16014781Y7539675D01*
X16022141Y7545544D01*
X16036706Y7554822D01*
X16040203Y7557944D01*
X16042472Y7559472D01*
X16053450Y7569784D01*
X16060978Y7576509D01*
X16068206Y7582272D01*
X16088956Y7603022D01*
X16246788Y7668397D01*
X16468841Y7668397D01*
X16486797Y7669856D01*
X16504825Y7670528D01*
X16511372Y7671850D01*
X16518019Y7672391D01*
X16535513Y7676728D01*
X16553188Y7680300D01*
X16559428Y7682659D01*
X16565906Y7684266D01*
X16582494Y7691378D01*
X16599338Y7697747D01*
X16605109Y7701078D01*
X16611253Y7703713D01*
X16626450Y7713394D01*
X16642072Y7722409D01*
X16647250Y7726644D01*
X16652866Y7730222D01*
X16666278Y7742206D01*
X16668384Y7743931D01*
X16668047Y7743128D01*
X16666481Y7736650D01*
X16664156Y7730384D01*
X16660694Y7712691D01*
X16656459Y7695169D01*
X16655959Y7688503D01*
X16654678Y7681963D01*
X16654116Y7663966D01*
X16652763Y7645969D01*
X16653344Y7639313D01*
X16653134Y7632647D01*
X16655481Y7614791D01*
X16657050Y7596816D01*
X16658513Y7591734D01*
X16659566Y7583731D01*
X16673806Y7536491D01*
X16675306Y7533422D01*
X16675959Y7531156D01*
X16761597Y7324413D01*
X16761597Y7153588D01*
X16696222Y6995756D01*
X16575441Y6874975D01*
X16417609Y6809600D01*
X16246788Y6809600D01*
G37*
%LPD*%
%LPC*%
G36*
X6594788Y7825600D02*
X6594788Y7825600D01*
X6436956Y7890975D01*
X6316175Y8011756D01*
X6250800Y8169588D01*
X6250800Y8340409D01*
X6316175Y8498241D01*
X6436956Y8619022D01*
X6594788Y8684397D01*
X6624134Y8684397D01*
X6635469Y8685319D01*
X6646850Y8685244D01*
X6660038Y8687313D01*
X6673313Y8688391D01*
X6684341Y8691125D01*
X6695594Y8692891D01*
X6708275Y8697059D01*
X6721200Y8700266D01*
X6731647Y8704747D01*
X6742466Y8708303D01*
X6754303Y8714463D01*
X6766547Y8719713D01*
X6776134Y8725819D01*
X6786234Y8731075D01*
X6793594Y8736944D01*
X6808159Y8746222D01*
X6832431Y8767909D01*
X6839659Y8773672D01*
X7337853Y9271866D01*
X7340997Y9271844D01*
X7354184Y9273913D01*
X7367459Y9274991D01*
X7378488Y9277725D01*
X7389741Y9279491D01*
X7402422Y9283659D01*
X7415347Y9286866D01*
X7425794Y9291347D01*
X7436613Y9294903D01*
X7448450Y9301063D01*
X7460694Y9306313D01*
X7470281Y9312419D01*
X7480381Y9317675D01*
X7487741Y9323544D01*
X7502306Y9332822D01*
X7526578Y9354509D01*
X7533806Y9360272D01*
X7554556Y9381022D01*
X7712388Y9446397D01*
X7883209Y9446397D01*
X8041041Y9381022D01*
X8161822Y9260241D01*
X8227197Y9102409D01*
X8227197Y8931588D01*
X8161822Y8773756D01*
X8041041Y8652975D01*
X7883209Y8587600D01*
X7712388Y8587600D01*
X7659866Y8609356D01*
X7639072Y8616056D01*
X7618478Y8623122D01*
X7615647Y8623603D01*
X7612903Y8624488D01*
X7591256Y8627750D01*
X7569838Y8631394D01*
X7566975Y8631413D01*
X7564113Y8631844D01*
X7542306Y8631572D01*
X7520500Y8631713D01*
X7517641Y8631263D01*
X7514778Y8631228D01*
X7493319Y8627447D01*
X7471756Y8624063D01*
X7469034Y8623166D01*
X7466188Y8622666D01*
X7445550Y8615444D01*
X7424884Y8608650D01*
X7422334Y8607322D01*
X7419616Y8606372D01*
X7400450Y8595938D01*
X7381116Y8585878D01*
X7379266Y8584403D01*
X7376281Y8582778D01*
X7337322Y8552503D01*
X7331825Y8546581D01*
X7327691Y8543284D01*
X7198869Y8414459D01*
X7191513Y8405803D01*
X7183406Y8397800D01*
X7175534Y8386997D01*
X7166919Y8376859D01*
X7161059Y8367134D01*
X7154347Y8357925D01*
X7148328Y8346013D01*
X7141453Y8334600D01*
X7137231Y8324038D01*
X7132103Y8313884D01*
X7128091Y8301172D01*
X7123141Y8288784D01*
X7120675Y8277669D01*
X7117256Y8266831D01*
X7116203Y8257503D01*
X7112459Y8240616D01*
X7110634Y8208119D01*
X7109597Y8198934D01*
X7109597Y8169588D01*
X7044222Y8011756D01*
X6923441Y7890975D01*
X6765609Y7825600D01*
X6594788Y7825600D01*
G37*
%LPD*%
%LPC*%
G36*
X6578600Y20624813D02*
X6578600Y20624813D01*
X6578600Y21326359D01*
X6607369Y21508003D01*
X6664197Y21682903D01*
X6747694Y21846772D01*
X6855803Y21995569D01*
X6985828Y22125594D01*
X7134625Y22233703D01*
X7298494Y22317200D01*
X7442181Y22363888D01*
X7442181Y20624813D01*
X6578600Y20624813D01*
G37*
%LPD*%
%LPC*%
G36*
X7298494Y18322797D02*
X7298494Y18322797D01*
X7134625Y18406294D01*
X6985828Y18514403D01*
X6855803Y18644428D01*
X6747694Y18793225D01*
X6664197Y18957094D01*
X6607369Y19131994D01*
X6578600Y19313638D01*
X6578600Y20015181D01*
X7442181Y20015181D01*
X7442181Y18276109D01*
X7298494Y18322797D01*
G37*
%LPD*%
%LPC*%
G36*
X40535572Y13795000D02*
X40535572Y13795000D01*
X40342606Y13874928D01*
X40194928Y14022606D01*
X40115000Y14215572D01*
X40115000Y14424425D01*
X40194928Y14617391D01*
X40342606Y14765069D01*
X40535572Y14844997D01*
X40744425Y14844997D01*
X40937391Y14765069D01*
X41085069Y14617391D01*
X41164997Y14424425D01*
X41164997Y14215572D01*
X41085069Y14022606D01*
X40937391Y13874928D01*
X40744425Y13795000D01*
X40535572Y13795000D01*
G37*
%LPD*%
%LPC*%
G36*
X40535572Y8015000D02*
X40535572Y8015000D01*
X40342606Y8094928D01*
X40194928Y8242606D01*
X40115000Y8435572D01*
X40115000Y8644425D01*
X40194928Y8837391D01*
X40342606Y8985069D01*
X40535572Y9064997D01*
X40744425Y9064997D01*
X40937391Y8985069D01*
X41085069Y8837391D01*
X41164997Y8644425D01*
X41164997Y8435572D01*
X41085069Y8242606D01*
X40937391Y8094928D01*
X40744425Y8015000D01*
X40535572Y8015000D01*
G37*
%LPD*%
%LPC*%
G36*
X27762200Y14046213D02*
X27762200Y14046213D01*
X27762200Y14384434D01*
X27779513Y14449047D01*
X27812950Y14506963D01*
X27860234Y14554247D01*
X27918150Y14587684D01*
X27982763Y14604997D01*
X28828981Y14604997D01*
X28828981Y14046213D01*
X27762200Y14046213D01*
G37*
%LPD*%
%LPC*%
G36*
X27982763Y12877800D02*
X27982763Y12877800D01*
X27918150Y12895113D01*
X27860234Y12928550D01*
X27812950Y12975834D01*
X27779513Y13033750D01*
X27762200Y13098363D01*
X27762200Y13436581D01*
X28828981Y13436581D01*
X28828981Y12877800D01*
X27982763Y12877800D01*
G37*
%LPD*%
%LPC*%
G36*
X23185000Y5131000D02*
X23185000Y5131000D01*
X23185000Y5709994D01*
X23863997Y5709994D01*
X23863997Y5699128D01*
X23864447Y5693575D01*
X23864375Y5691244D01*
X23865059Y5686028D01*
X23865534Y5680200D01*
X23866363Y5661234D01*
X23867528Y5655647D01*
X23867991Y5649950D01*
X23872559Y5631525D01*
X23876438Y5612934D01*
X23878491Y5607600D01*
X23879866Y5602063D01*
X23887347Y5584619D01*
X23894175Y5566894D01*
X23897063Y5561966D01*
X23899313Y5556716D01*
X23909503Y5540716D01*
X23919109Y5524316D01*
X23922763Y5519906D01*
X23925822Y5515103D01*
X23938447Y5500975D01*
X23950584Y5486322D01*
X23954894Y5482566D01*
X23958697Y5478309D01*
X23973475Y5466369D01*
X23987778Y5453903D01*
X23992622Y5450900D01*
X23997075Y5447303D01*
X24013609Y5437894D01*
X24029716Y5427909D01*
X24034988Y5425725D01*
X24039956Y5422897D01*
X24057775Y5416281D01*
X24075300Y5409022D01*
X24080853Y5407716D01*
X24086213Y5405728D01*
X24086903Y5405594D01*
X24081744Y5405109D01*
X24076050Y5405288D01*
X24057250Y5402816D01*
X24038325Y5401044D01*
X24032800Y5399600D01*
X24027131Y5398856D01*
X24008959Y5393378D01*
X23990584Y5388581D01*
X23985356Y5386263D01*
X23979894Y5384616D01*
X23962875Y5376291D01*
X23945481Y5368578D01*
X23940688Y5365441D01*
X23935569Y5362938D01*
X23920125Y5351981D01*
X23904197Y5341559D01*
X23899972Y5337691D01*
X23895325Y5334394D01*
X23881850Y5321094D01*
X23867813Y5308234D01*
X23865091Y5304547D01*
X23860213Y5299731D01*
X23841513Y5274072D01*
X23837025Y5268519D01*
X23835459Y5265769D01*
X23831153Y5259859D01*
X23829091Y5255778D01*
X23827234Y5253263D01*
X23813247Y5229034D01*
X23765963Y5181750D01*
X23708047Y5148313D01*
X23643434Y5131000D01*
X23185000Y5131000D01*
G37*
%LPD*%
%LPC*%
G36*
X23185000Y17150000D02*
X23185000Y17150000D01*
X23185000Y17728997D01*
X23643434Y17728997D01*
X23708047Y17711684D01*
X23765963Y17678247D01*
X23813247Y17630963D01*
X23846684Y17573047D01*
X23863997Y17508434D01*
X23863997Y17150000D01*
X23185000Y17150000D01*
G37*
%LPD*%
%LPC*%
G36*
X30485000Y6675000D02*
X30485000Y6675000D01*
X30485000Y7353997D01*
X30843434Y7353997D01*
X30908047Y7336684D01*
X30965963Y7303247D01*
X31013247Y7255963D01*
X31046684Y7198047D01*
X31063997Y7133434D01*
X31063997Y6675000D01*
X30485000Y6675000D01*
G37*
%LPD*%
%LPC*%
G36*
X8453000Y6482000D02*
X8453000Y6482000D01*
X8453000Y7060997D01*
X8911434Y7060997D01*
X8976047Y7043684D01*
X9033963Y7010247D01*
X9081247Y6962963D01*
X9114684Y6905047D01*
X9131997Y6840434D01*
X9131997Y6482000D01*
X8453000Y6482000D01*
G37*
%LPD*%
%LPC*%
G36*
X21855997Y17150000D02*
X21855997Y17150000D01*
X21856000Y17508431D01*
X21873313Y17573047D01*
X21906750Y17630963D01*
X21954034Y17678247D01*
X22011950Y17711684D01*
X22076563Y17728997D01*
X22534994Y17728997D01*
X22534994Y17150000D01*
X21855997Y17150000D01*
G37*
%LPD*%
%LPC*%
G36*
X30237997Y16134000D02*
X30237997Y16134000D01*
X30238000Y16492431D01*
X30255313Y16557047D01*
X30288750Y16614963D01*
X30336034Y16662247D01*
X30393950Y16695684D01*
X30458563Y16712997D01*
X30916994Y16712997D01*
X30916994Y16134000D01*
X30237997Y16134000D01*
G37*
%LPD*%
%LPC*%
G36*
X7123997Y6482000D02*
X7123997Y6482000D01*
X7124000Y6840431D01*
X7141313Y6905047D01*
X7174750Y6962963D01*
X7222034Y7010247D01*
X7279950Y7043684D01*
X7344563Y7060997D01*
X7802994Y7060997D01*
X7802994Y6482000D01*
X7123997Y6482000D01*
G37*
%LPD*%
%LPC*%
G36*
X30485000Y5346000D02*
X30485000Y5346000D01*
X30485000Y6024994D01*
X31063997Y6024994D01*
X31063997Y5566563D01*
X31046684Y5501950D01*
X31013247Y5444034D01*
X30965963Y5396750D01*
X30908047Y5363313D01*
X30843434Y5346000D01*
X30485000Y5346000D01*
G37*
%LPD*%
%LPC*%
G36*
X22076563Y5131000D02*
X22076563Y5131000D01*
X22011950Y5148313D01*
X21954034Y5181750D01*
X21906750Y5229034D01*
X21873313Y5286950D01*
X21856000Y5351563D01*
X21856000Y5709994D01*
X22534994Y5709994D01*
X22534994Y5131000D01*
X22076563Y5131000D01*
G37*
%LPD*%
%LPC*%
G36*
X24616563Y3861000D02*
X24616563Y3861000D01*
X24551950Y3878313D01*
X24494034Y3911750D01*
X24446750Y3959034D01*
X24413313Y4016950D01*
X24396000Y4081563D01*
X24396000Y4439994D01*
X25074994Y4439994D01*
X25074994Y3861000D01*
X24616563Y3861000D01*
G37*
%LPD*%
D10*
X22860000Y14925000D03*
X22860000Y16825000D03*
X31242000Y13909000D03*
X31242000Y15809000D03*
X18415000Y14666000D03*
X18415000Y12766000D03*
X20447000Y13401000D03*
X20447000Y15301000D03*
X8128000Y4257000D03*
X8128000Y6157000D03*
X25400000Y6665000D03*
X25400000Y4765000D03*
X22860000Y7935000D03*
X22860000Y6035000D03*
D11*
X28260000Y6350000D03*
X30160000Y6350000D03*
D12*
X29133800Y13741400D03*
X29133800Y11430000D03*
X29133800Y9118600D03*
D13*
X22936000Y11430000D03*
D14*
X33375600Y7620000D02*
X35204400Y7620000D01*
X35204400Y10160000D02*
X33375600Y10160000D01*
X33375600Y12700000D02*
X35204400Y12700000D01*
X35204400Y15240000D02*
X33375600Y15240000D01*
X4597400Y16891000D02*
X2768600Y16891000D01*
X2768600Y14351000D02*
X4597400Y14351000D01*
X4597400Y11811000D02*
X2768600Y11811000D01*
X2768600Y9271000D02*
X4597400Y9271000D01*
X4597400Y6731000D02*
X2768600Y6731000D01*
X2768600Y4191000D02*
X4597400Y4191000D01*
X20447000Y19405600D02*
X20447000Y21234400D01*
X17907000Y21234400D02*
X17907000Y19405600D01*
X15367000Y19405600D02*
X15367000Y21234400D01*
X12827000Y21234400D02*
X12827000Y19405600D01*
X10287000Y19405600D02*
X10287000Y21234400D01*
X7747000Y21234400D02*
X7747000Y19405600D01*
D15*
X22987000Y16952000D02*
X29337000Y16952000D01*
X22987000Y16952000D02*
X22860000Y16825000D01*
X31115000Y16952000D02*
X32578000Y16952000D01*
X31115000Y16952000D02*
X29337000Y16952000D01*
X29133800Y16748800D02*
X29133800Y13741400D01*
X29133800Y16748800D02*
X29337000Y16952000D01*
X25400000Y4765000D02*
X23175000Y4765000D01*
X22860000Y5080000D01*
X22860000Y6035000D01*
X30160000Y6350000D02*
X31750000Y6350000D01*
X33020000Y5080000D01*
D16*
X33020000Y5080000D03*
D15*
X30160000Y6350000D02*
X30160000Y2733000D01*
D17*
X32893000Y2667000D03*
D18*
X30226000Y2667000D02*
X30099000Y2667000D01*
D15*
X30160000Y2733000D02*
X30226000Y2667000D01*
X32893000Y2667000D01*
X25745288Y4765000D02*
X25400000Y4765000D01*
X27843288Y2667000D02*
X30099000Y2667000D01*
X27843288Y2667000D02*
X25745288Y4765000D01*
D17*
X24638000Y16764000D03*
X18288000Y16129000D03*
D15*
X18984000Y16825000D01*
X20574000Y16825000D01*
X22860000Y16825000D01*
D18*
X31115000Y15936000D02*
X31242000Y15809000D01*
X31115000Y15936000D02*
X31115000Y16952000D01*
D15*
X20447000Y16698000D02*
X20447000Y15301000D01*
X20447000Y16698000D02*
X20574000Y16825000D01*
X20447000Y15301000D02*
X19812000Y14666000D01*
X18415000Y14666000D01*
X7747000Y14351000D02*
X7747000Y20320000D01*
X7747000Y14351000D02*
X7747000Y10414000D01*
X8763000Y9398000D01*
X8763000Y8255000D01*
X8128000Y7620000D01*
X22921000Y16764000D02*
X24638000Y16764000D01*
X22921000Y16764000D02*
X22860000Y16825000D01*
X32578000Y16952000D02*
X34290000Y15240000D01*
X7747000Y14351000D02*
X3683000Y14351000D01*
X8128000Y7620000D02*
X8128000Y6157000D01*
X28260000Y6350000D02*
X28260000Y8244800D01*
X29133800Y9118600D01*
X28107600Y6502400D02*
X28260000Y6350000D01*
X28107600Y6502400D02*
X25562600Y6502400D01*
X25400000Y6665000D01*
X31800800Y8483600D02*
X32156400Y8483600D01*
X31800800Y8483600D02*
X29768800Y8483600D01*
X29133800Y9118600D01*
X32156400Y8483600D02*
X32753300Y7886700D01*
D17*
X31800800Y12827000D03*
D18*
X31800800Y8483600D01*
D15*
X13208000Y22733000D02*
X12827000Y22352000D01*
D16*
X36576000Y9017000D03*
D15*
X36576000Y13843000D01*
X36576000Y15748000D01*
X29591000Y22733000D02*
X13208000Y22733000D01*
X29591000Y22733000D02*
X36576000Y15748000D01*
D17*
X36576000Y13843000D03*
D15*
X12827000Y20320000D02*
X12827000Y22352000D01*
X33020000Y7620000D02*
X34290000Y7620000D01*
X33020000Y7620000D02*
X32753300Y7886700D01*
D16*
X37465000Y10160000D03*
D18*
X37465000Y7620000D01*
X36195000Y6350000D01*
X36195000Y2540000D01*
D16*
X36195000Y2540000D03*
X37338000Y12954000D03*
D18*
X39751000Y12954000D01*
X42037000Y10668000D01*
X42037000Y1270000D01*
D16*
X42037000Y1270000D03*
X40640000Y10795000D03*
D18*
X39370000Y12065000D02*
X37465000Y12065000D01*
X39370000Y12065000D02*
X40640000Y10795000D01*
D16*
X37465000Y12065000D03*
D15*
X29133800Y11430000D02*
X24892000Y11430000D01*
X22936000Y11430000D01*
X22936000Y14849000D02*
X22860000Y14925000D01*
X22936000Y14849000D02*
X22936000Y11557000D01*
X22936000Y11430000D01*
X22860000Y11354000D02*
X22860000Y7935000D01*
X22860000Y11354000D02*
X22936000Y11430000D01*
D16*
X31115000Y12065000D03*
D15*
X30480000Y11430000D01*
X29133800Y11430000D01*
D17*
X24892000Y11938000D03*
D18*
X24892000Y11430000D01*
X31242000Y12192000D02*
X31242000Y13909000D01*
X31242000Y12192000D02*
X31115000Y12065000D01*
X31242000Y13909000D02*
X31303000Y13970000D01*
X32385000Y13970000D01*
D17*
X32385000Y13970000D03*
D15*
X22291000Y11557000D02*
X20447000Y13401000D01*
X22291000Y11557000D02*
X22936000Y11557000D01*
X20447000Y13401000D02*
X19812000Y12766000D01*
X18415000Y12766000D01*
D17*
X15113000Y7747000D03*
D18*
X15621000Y7239000D01*
X16332200Y7239000D01*
D17*
X16332200Y7239000D03*
D18*
X20447000Y18415000D02*
X20447000Y20320000D01*
X19939000Y17907000D02*
X17145000Y17907000D01*
X16510000Y17272000D01*
X16510000Y14808200D01*
X16510000Y14681200D01*
X19939000Y17907000D02*
X20447000Y18415000D01*
D17*
X16510000Y14808200D03*
X27305000Y7747000D03*
D18*
X24384000Y7747000D01*
X24130000Y7493000D01*
X24130000Y7366000D01*
X23749000Y6985000D01*
X21082000Y6985000D01*
D17*
X17780000Y3683000D03*
D18*
X21082000Y6985000D01*
X8128000Y4257000D02*
X8062000Y4191000D01*
X3683000Y4191000D01*
X15367000Y11811000D02*
X15367000Y20320000D01*
X15367000Y11811000D02*
X17018000Y10160000D01*
D17*
X17018000Y10160000D03*
X17094200Y8382000D03*
D18*
X18491200Y6985000D01*
X19202400Y6985000D01*
D17*
X19202400Y6985000D03*
X26822400Y5765800D03*
D18*
X27228800Y5359400D01*
X27228800Y4267200D01*
D17*
X27228800Y4267200D03*
X16433800Y9067800D03*
D18*
X15265400Y9067800D01*
X13970000Y10363200D01*
D17*
X13970000Y10363200D03*
X12827000Y17653000D03*
D18*
X12827000Y13081000D01*
X14224000Y11684000D01*
D17*
X14224000Y11684000D03*
X7797800Y9017000D03*
D18*
X7442200Y9017000D01*
X6680200Y8255000D01*
D17*
X6680200Y8255000D03*
D18*
X10287000Y13208000D02*
X10287000Y20320000D01*
X12573000Y10922000D02*
X14859000Y10922000D01*
X17062106Y9271000D02*
X20574000Y9271000D01*
X16708906Y9624200D02*
X16156800Y9624200D01*
X16708906Y9624200D02*
X17062106Y9271000D01*
X12573000Y10922000D02*
X10287000Y13208000D01*
X14859000Y10922000D02*
X16156800Y9624200D01*
D17*
X20574000Y9271000D03*
M02*
