G04 EAGLE Gerber X2 export*
%TF.Part,Single*%
%TF.FileFunction,Paste,Top*%
%TF.FilePolarity,Positive*%
%TF.GenerationSoftware,Autodesk,EAGLE,9.6.2*%
%TF.CreationDate,2022-05-14T18:51:59Z*%
G75*
%MOMM*%
%FSLAX46Y46*%
%LPD*%
%INSolderpaste Top*%
%AMOC8*
5,1,8,0,0,1.08239X$1,22.5*%
G01*
%ADD10R,0.200000X0.000000*%
%ADD11R,0.000000X0.200000*%
%ADD12R,0.560000X0.260000*%
%ADD13R,0.260000X0.560000*%
%ADD14R,0.400000X0.400000*%
%ADD15R,0.000000X0.000000*%
%ADD16R,0.000000X0.400000*%
%ADD17R,0.550000X0.000000*%
%ADD18R,0.642000X0.208000*%
%ADD19R,0.000000X0.180000*%


D10*
X31242000Y14290000D03*
X31242000Y16190000D03*
D11*
X40960000Y19685000D03*
X42860000Y19685000D03*
D12*
X30240000Y9295000D03*
X30240000Y9795000D03*
X30240000Y10295000D03*
X30240000Y10795000D03*
X30240000Y11295000D03*
X30240000Y11795000D03*
X30240000Y12295000D03*
D13*
X29440000Y13095000D03*
X28940000Y13095000D03*
X28440000Y13095000D03*
X27940000Y13095000D03*
X27440000Y13095000D03*
X26940000Y13095000D03*
X26440000Y13095000D03*
D12*
X25640000Y12295000D03*
X25640000Y11795000D03*
X25640000Y11295000D03*
X25640000Y10795000D03*
X25640000Y10295000D03*
X25640000Y9795000D03*
X25640000Y9295000D03*
D13*
X26440000Y8495000D03*
X26940000Y8495000D03*
X27440000Y8495000D03*
X27940000Y8495000D03*
X28440000Y8495000D03*
X28940000Y8495000D03*
X29440000Y8495000D03*
D12*
X28940000Y9545000D03*
X27940000Y9545000D03*
X26940000Y9545000D03*
X28940000Y10045000D03*
X27940000Y10045000D03*
X26940000Y10045000D03*
X28940000Y10545000D03*
X27940000Y10545000D03*
X26940000Y10545000D03*
X28940000Y11045000D03*
X27940000Y11045000D03*
X26940000Y11045000D03*
X28940000Y11545000D03*
X27940000Y11545000D03*
X26940000Y11545000D03*
X28940000Y12045000D03*
X27940000Y12045000D03*
X26940000Y12045000D03*
D14*
X30040000Y8695000D03*
D15*
X31115000Y6235000D03*
X31115000Y7735000D03*
X21971000Y11823000D03*
X21971000Y13323000D03*
X24003000Y11823000D03*
X24003000Y13323000D03*
D16*
X12573000Y11346000D03*
X11623000Y13546000D03*
X13523000Y13546000D03*
X12573000Y5545000D03*
X13523000Y3345000D03*
X11623000Y3345000D03*
D10*
X35052000Y4760000D03*
X35052000Y2860000D03*
D11*
X31054000Y3937000D03*
X32954000Y3937000D03*
D10*
X21844000Y8448000D03*
X21844000Y10348000D03*
X24003000Y8448000D03*
X24003000Y10348000D03*
D11*
X25974000Y16891000D03*
X27874000Y16891000D03*
D10*
X19050000Y8448000D03*
X19050000Y10348000D03*
D11*
X13904000Y9017000D03*
X12004000Y9017000D03*
X28813800Y14782800D03*
X26913800Y14782800D03*
X36515000Y19685000D03*
X38415000Y19685000D03*
D10*
X16256000Y13396000D03*
X16256000Y11496000D03*
X16383000Y3622000D03*
X16383000Y5522000D03*
X40005000Y3490000D03*
X40005000Y1590000D03*
X43815000Y3490000D03*
X43815000Y1590000D03*
X37465000Y4760000D03*
X37465000Y2860000D03*
D17*
X39565000Y8230000D03*
X39565000Y9030000D03*
X39565000Y13830000D03*
X39565000Y14630000D03*
D18*
X39565000Y9680000D03*
X39565000Y13180000D03*
X39565000Y10180000D03*
X39565000Y12680000D03*
X39565000Y10680000D03*
X39565000Y12180000D03*
X39565000Y11180000D03*
X39565000Y11680000D03*
D19*
X40140000Y6320000D03*
X40140000Y16540000D03*
X44070000Y6320000D03*
X44070000Y16540000D03*
M02*
