G04 EAGLE Gerber X2 export*
%TF.Part,Single*%
%TF.FileFunction,Soldermask,Top,1*%
%TF.FilePolarity,Positive*%
%TF.GenerationSoftware,Autodesk,EAGLE,9.6.2*%
%TF.CreationDate,2022-05-14T18:51:59Z*%
G75*
%MOMM*%
%FSLAX46Y46*%
%LPD*%
%INSoldermask Top*%
%AMOC8*
5,1,8,0,0,1.08239X$1,22.5*%
G01*
%ADD10R,1.703200X1.503200*%
%ADD11R,1.503200X1.703200*%
%ADD12R,0.600000X0.300000*%
%ADD13R,0.300000X0.600000*%
%ADD14R,0.500000X0.500000*%
%ADD15C,2.032000*%
%ADD16R,1.003200X1.003200*%
%ADD17R,1.203200X1.603200*%
%ADD18R,1.353200X0.803200*%
%ADD19R,1.353200X0.503200*%
%ADD20R,2.203200X2.383200*%
%ADD21C,0.853200*%
%ADD22C,0.705600*%
%ADD23C,0.655600*%


D10*
X31242000Y14290000D03*
X31242000Y16190000D03*
D11*
X40960000Y19685000D03*
X42860000Y19685000D03*
D12*
X30240000Y9295000D03*
X30240000Y9795000D03*
X30240000Y10295000D03*
X30240000Y10795000D03*
X30240000Y11295000D03*
X30240000Y11795000D03*
X30240000Y12295000D03*
D13*
X29440000Y13095000D03*
X28940000Y13095000D03*
X28440000Y13095000D03*
X27940000Y13095000D03*
X27440000Y13095000D03*
X26940000Y13095000D03*
X26440000Y13095000D03*
D12*
X25640000Y12295000D03*
X25640000Y11795000D03*
X25640000Y11295000D03*
X25640000Y10795000D03*
X25640000Y10295000D03*
X25640000Y9795000D03*
X25640000Y9295000D03*
D13*
X26440000Y8495000D03*
X26940000Y8495000D03*
X27440000Y8495000D03*
X27940000Y8495000D03*
X28440000Y8495000D03*
X28940000Y8495000D03*
X29440000Y8495000D03*
D14*
X30042500Y8692500D03*
D12*
X28940000Y9545000D03*
X27940000Y9545000D03*
X26940000Y9545000D03*
X28940000Y10045000D03*
X27940000Y10045000D03*
X26940000Y10045000D03*
X28940000Y10545000D03*
X27940000Y10545000D03*
X26940000Y10545000D03*
X28940000Y11045000D03*
X27940000Y11045000D03*
X26940000Y11045000D03*
X28940000Y11545000D03*
X27940000Y11545000D03*
X26940000Y11545000D03*
X28940000Y12045000D03*
X27940000Y12045000D03*
X26940000Y12045000D03*
D15*
X33375600Y7620000D02*
X35204400Y7620000D01*
X35204400Y10160000D02*
X33375600Y10160000D01*
X33375600Y12700000D02*
X35204400Y12700000D01*
X35204400Y15240000D02*
X33375600Y15240000D01*
X4597400Y16891000D02*
X2768600Y16891000D01*
X2768600Y14351000D02*
X4597400Y14351000D01*
X4597400Y11811000D02*
X2768600Y11811000D01*
X2768600Y9271000D02*
X4597400Y9271000D01*
X4597400Y6731000D02*
X2768600Y6731000D01*
X2768600Y4191000D02*
X4597400Y4191000D01*
X20447000Y19405600D02*
X20447000Y21234400D01*
X17907000Y21234400D02*
X17907000Y19405600D01*
X15367000Y19405600D02*
X15367000Y21234400D01*
X12827000Y21234400D02*
X12827000Y19405600D01*
X10287000Y19405600D02*
X10287000Y21234400D01*
X7747000Y21234400D02*
X7747000Y19405600D01*
D16*
X31115000Y6235000D03*
X31115000Y7735000D03*
X21971000Y11823000D03*
X21971000Y13323000D03*
X24003000Y11823000D03*
X24003000Y13323000D03*
D17*
X12573000Y11346000D03*
X11623000Y13546000D03*
X13523000Y13546000D03*
X12573000Y5545000D03*
X13523000Y3345000D03*
X11623000Y3345000D03*
D10*
X35052000Y4760000D03*
X35052000Y2860000D03*
D11*
X31054000Y3937000D03*
X32954000Y3937000D03*
D10*
X21844000Y8448000D03*
X21844000Y10348000D03*
X24003000Y8448000D03*
X24003000Y10348000D03*
D11*
X25974000Y16891000D03*
X27874000Y16891000D03*
D10*
X19050000Y8448000D03*
X19050000Y10348000D03*
D11*
X13904000Y9017000D03*
X12004000Y9017000D03*
X28813800Y14782800D03*
X26913800Y14782800D03*
X36515000Y19685000D03*
X38415000Y19685000D03*
D10*
X16256000Y13396000D03*
X16256000Y11496000D03*
X16383000Y3622000D03*
X16383000Y5522000D03*
X40005000Y3490000D03*
X40005000Y1590000D03*
X43815000Y3490000D03*
X43815000Y1590000D03*
X37465000Y4760000D03*
X37465000Y2860000D03*
D18*
X39565000Y8230000D03*
X39565000Y9030000D03*
X39565000Y13830000D03*
X39565000Y14630000D03*
D19*
X39565000Y9680000D03*
X39565000Y13180000D03*
X39565000Y10180000D03*
X39565000Y12680000D03*
X39565000Y10680000D03*
X39565000Y12180000D03*
X39565000Y11180000D03*
X39565000Y11680000D03*
D20*
X40140000Y6320000D03*
X40140000Y16540000D03*
X44070000Y6320000D03*
X44070000Y16540000D03*
D21*
X40640000Y8540000D03*
X40640000Y14320000D03*
D22*
X33020000Y5080000D03*
D23*
X32893000Y2667000D03*
X24638000Y16764000D03*
X18288000Y16129000D03*
X31800800Y12827000D03*
D22*
X36576000Y9017000D03*
D23*
X36576000Y13843000D03*
D22*
X37465000Y10160000D03*
X36195000Y2540000D03*
X37338000Y12954000D03*
X42037000Y1270000D03*
X40640000Y10795000D03*
X37465000Y12065000D03*
X31115000Y12065000D03*
D23*
X24892000Y11938000D03*
X32385000Y13970000D03*
X15113000Y7747000D03*
X16332200Y7239000D03*
X16510000Y14808200D03*
X27305000Y7747000D03*
X17780000Y3683000D03*
X17018000Y10160000D03*
X17094200Y8382000D03*
X19202400Y6985000D03*
X26822400Y5765800D03*
X27228800Y4267200D03*
X16433800Y9067800D03*
X13970000Y10363200D03*
X12827000Y17653000D03*
X14224000Y11684000D03*
X7797800Y9017000D03*
X6680200Y8255000D03*
X20574000Y9271000D03*
M02*
