G04 EAGLE Gerber X2 export*
%TF.Part,Single*%
%TF.FileFunction,Soldermask,Bot,1*%
%TF.FilePolarity,Positive*%
%TF.GenerationSoftware,Autodesk,EAGLE,9.6.2*%
%TF.CreationDate,2022-05-14T18:51:59Z*%
G75*
%MOMM*%
%FSLAX46Y46*%
%LPD*%
%INSoldermask Bottom*%
%AMOC8*
5,1,8,0,0,1.08239X$1,22.5*%
G01*
%ADD10R,1.703200X1.503200*%
%ADD11R,1.503200X1.703200*%
%ADD12R,2.438400X1.422400*%
%ADD13R,2.403200X3.803200*%
%ADD14C,2.032000*%
%ADD15C,0.853200*%
%ADD16C,0.705600*%
%ADD17C,0.655600*%


D10*
X22860000Y14925000D03*
X22860000Y16825000D03*
X31242000Y13909000D03*
X31242000Y15809000D03*
X18415000Y14666000D03*
X18415000Y12766000D03*
X20447000Y13401000D03*
X20447000Y15301000D03*
X8128000Y4257000D03*
X8128000Y6157000D03*
X25400000Y6665000D03*
X25400000Y4765000D03*
X22860000Y7935000D03*
X22860000Y6035000D03*
D11*
X28260000Y6350000D03*
X30160000Y6350000D03*
D12*
X29133800Y13741400D03*
X29133800Y11430000D03*
X29133800Y9118600D03*
D13*
X22936000Y11430000D03*
D14*
X33375600Y7620000D02*
X35204400Y7620000D01*
X35204400Y10160000D02*
X33375600Y10160000D01*
X33375600Y12700000D02*
X35204400Y12700000D01*
X35204400Y15240000D02*
X33375600Y15240000D01*
X4597400Y16891000D02*
X2768600Y16891000D01*
X2768600Y14351000D02*
X4597400Y14351000D01*
X4597400Y11811000D02*
X2768600Y11811000D01*
X2768600Y9271000D02*
X4597400Y9271000D01*
X4597400Y6731000D02*
X2768600Y6731000D01*
X2768600Y4191000D02*
X4597400Y4191000D01*
X20447000Y19405600D02*
X20447000Y21234400D01*
X17907000Y21234400D02*
X17907000Y19405600D01*
X15367000Y19405600D02*
X15367000Y21234400D01*
X12827000Y21234400D02*
X12827000Y19405600D01*
X10287000Y19405600D02*
X10287000Y21234400D01*
X7747000Y21234400D02*
X7747000Y19405600D01*
D15*
X40640000Y8540000D03*
X40640000Y14320000D03*
D16*
X33020000Y5080000D03*
D17*
X32893000Y2667000D03*
X24638000Y16764000D03*
X18288000Y16129000D03*
X31800800Y12827000D03*
D16*
X36576000Y9017000D03*
D17*
X36576000Y13843000D03*
D16*
X37465000Y10160000D03*
X36195000Y2540000D03*
X37338000Y12954000D03*
X42037000Y1270000D03*
X40640000Y10795000D03*
X37465000Y12065000D03*
X31115000Y12065000D03*
D17*
X24892000Y11938000D03*
X32385000Y13970000D03*
X15113000Y7747000D03*
X16332200Y7239000D03*
X16510000Y14808200D03*
X27305000Y7747000D03*
X17780000Y3683000D03*
X17018000Y10160000D03*
X17094200Y8382000D03*
X19202400Y6985000D03*
X26822400Y5765800D03*
X27228800Y4267200D03*
X16433800Y9067800D03*
X13970000Y10363200D03*
X12827000Y17653000D03*
X14224000Y11684000D03*
X7797800Y9017000D03*
X6680200Y8255000D03*
X20574000Y9271000D03*
M02*
