%TF.GenerationSoftware,KiCad,Pcbnew,(6.0.2)*%
%TF.CreationDate,2022-05-10T14:08:14+02:00*%
%TF.ProjectId,shake-it-machine_pcb,7368616b-652d-4697-942d-6d616368696e,rev?*%
%TF.SameCoordinates,PXfad696c0PYf0f76bc2*%
%TF.FileFunction,Paste,Bot*%
%TF.FilePolarity,Positive*%
%FSLAX46Y46*%
G04 Gerber Fmt 4.6, Leading zero omitted, Abs format (unit mm)*
G04 Created by KiCad (PCBNEW (6.0.2)) date 2022-05-10 14:08:14*
%MOMM*%
%LPD*%
G01*
G04 APERTURE LIST*
G04 Aperture macros list*
%AMRoundRect*
0 Rectangle with rounded corners*
0 $1 Rounding radius*
0 $2 $3 $4 $5 $6 $7 $8 $9 X,Y pos of 4 corners*
0 Add a 4 corners polygon primitive as box body*
4,1,4,$2,$3,$4,$5,$6,$7,$8,$9,$2,$3,0*
0 Add four circle primitives for the rounded corners*
1,1,$1+$1,$2,$3*
1,1,$1+$1,$4,$5*
1,1,$1+$1,$6,$7*
1,1,$1+$1,$8,$9*
0 Add four rect primitives between the rounded corners*
20,1,$1+$1,$2,$3,$4,$5,0*
20,1,$1+$1,$4,$5,$6,$7,0*
20,1,$1+$1,$6,$7,$8,$9,0*
20,1,$1+$1,$8,$9,$2,$3,0*%
G04 Aperture macros list end*
%ADD10R,2.500000X1.800000*%
%ADD11R,1.700000X1.300000*%
%ADD12R,1.600000X0.800000*%
%ADD13RoundRect,0.250000X0.337500X0.475000X-0.337500X0.475000X-0.337500X-0.475000X0.337500X-0.475000X0*%
%ADD14RoundRect,0.249999X0.450001X-0.350001X0.450001X0.350001X-0.450001X0.350001X-0.450001X-0.350001X0*%
%ADD15RoundRect,0.249999X-0.350001X-0.450001X0.350001X-0.450001X0.350001X0.450001X-0.350001X0.450001X0*%
%ADD16RoundRect,0.249999X-0.450001X0.350001X-0.450001X-0.350001X0.450001X-0.350001X0.450001X0.350001X0*%
%ADD17R,0.800000X1.600000*%
%ADD18RoundRect,0.250000X0.475000X-0.337500X0.475000X0.337500X-0.475000X0.337500X-0.475000X-0.337500X0*%
%ADD19RoundRect,0.250000X-0.337500X-0.475000X0.337500X-0.475000X0.337500X0.475000X-0.337500X0.475000X0*%
%ADD20RoundRect,0.250000X0.500000X0.925000X-0.500000X0.925000X-0.500000X-0.925000X0.500000X-0.925000X0*%
%ADD21R,1.500000X2.000000*%
%ADD22R,3.800000X2.000000*%
G04 APERTURE END LIST*
D10*
%TO.C,D8*%
X41102000Y95759522D03*
X37102000Y95759522D03*
%TD*%
D11*
%TO.C,D7*%
X33971200Y70737922D03*
X33971200Y67237922D03*
%TD*%
%TO.C,D9*%
X14641800Y75919522D03*
X14641800Y72419522D03*
%TD*%
D12*
%TO.C,Q17*%
X24928800Y76150722D03*
X24928800Y74220322D03*
X22792000Y75185522D03*
%TD*%
%TO.C,Q18*%
X20356800Y76150722D03*
X20356800Y74220322D03*
X18220000Y75185522D03*
%TD*%
D13*
%TO.C,C24*%
X20327500Y72137522D03*
X18252500Y72137522D03*
%TD*%
%TO.C,C23*%
X39631500Y67311522D03*
X37556500Y67311522D03*
%TD*%
D14*
%TO.C,R17*%
X54342000Y63009522D03*
X54342000Y65009522D03*
%TD*%
D15*
%TO.C,R13*%
X62232000Y65025522D03*
X64232000Y65025522D03*
%TD*%
D14*
%TO.C,R10*%
X59422000Y56643522D03*
X59422000Y58643522D03*
%TD*%
D16*
%TO.C,R8*%
X63994000Y56881522D03*
X63994000Y54881522D03*
%TD*%
D12*
%TO.C,Q8*%
X58456800Y75896722D03*
X58456800Y73966322D03*
X56320000Y74931522D03*
%TD*%
D17*
%TO.C,Q4*%
X58355200Y62942722D03*
X56424800Y62942722D03*
X57390000Y65079522D03*
%TD*%
D13*
%TO.C,C22*%
X58427500Y71883522D03*
X56352500Y71883522D03*
%TD*%
D11*
%TO.C,D4*%
X52462400Y75665522D03*
X52462400Y72165522D03*
%TD*%
D13*
%TO.C,C9*%
X16238100Y3989322D03*
X14163100Y3989322D03*
%TD*%
D18*
%TO.C,C10*%
X14108400Y6482422D03*
X14108400Y8557422D03*
%TD*%
D19*
%TO.C,C14*%
X20944900Y16079722D03*
X23019900Y16079722D03*
%TD*%
D20*
%TO.C,C15*%
X18781400Y16079722D03*
X15531400Y16079722D03*
%TD*%
D13*
%TO.C,C21*%
X77223500Y67311522D03*
X75148500Y67311522D03*
%TD*%
D11*
%TO.C,D3*%
X71791800Y70839522D03*
X71791800Y67339522D03*
%TD*%
D10*
%TO.C,D5*%
X78795600Y96521522D03*
X74795600Y96521522D03*
%TD*%
%TO.C,D6*%
X59669400Y96013522D03*
X55669400Y96013522D03*
%TD*%
%TO.C,D10*%
X22814000Y95505522D03*
X18814000Y95505522D03*
%TD*%
D17*
%TO.C,Q1*%
X82993200Y56030722D03*
X81062800Y56030722D03*
X82028000Y58167522D03*
%TD*%
%TO.C,Q2*%
X64197200Y60402722D03*
X62266800Y60402722D03*
X63232000Y62539522D03*
%TD*%
%TO.C,Q3*%
X76897200Y58370722D03*
X74966800Y58370722D03*
X75932000Y60507522D03*
%TD*%
D12*
%TO.C,Q5*%
X82078800Y71070722D03*
X82078800Y69140322D03*
X79942000Y70105522D03*
%TD*%
%TO.C,Q6*%
X77252800Y71070722D03*
X77252800Y69140322D03*
X75116000Y70105522D03*
%TD*%
%TO.C,Q7*%
X63282800Y75896722D03*
X63282800Y73966322D03*
X61146000Y74931522D03*
%TD*%
D17*
%TO.C,Q11*%
X45401200Y55776722D03*
X43470800Y55776722D03*
X44436000Y57913522D03*
%TD*%
%TO.C,Q12*%
X25335200Y60856722D03*
X23404800Y60856722D03*
X24370000Y62993522D03*
%TD*%
%TO.C,Q13*%
X39559200Y58370722D03*
X37628800Y58370722D03*
X38594000Y60507522D03*
%TD*%
%TO.C,Q14*%
X19493200Y63196722D03*
X17562800Y63196722D03*
X18528000Y65333522D03*
%TD*%
D12*
%TO.C,Q15*%
X44994800Y71070722D03*
X44994800Y69140322D03*
X42858000Y70105522D03*
%TD*%
%TO.C,Q16*%
X39660800Y71070722D03*
X39660800Y69140322D03*
X37524000Y70105522D03*
%TD*%
D16*
%TO.C,R7*%
X83044000Y53071522D03*
X83044000Y51071522D03*
%TD*%
D14*
%TO.C,R9*%
X78218000Y53103522D03*
X78218000Y55103522D03*
%TD*%
D15*
%TO.C,R11*%
X81028000Y60707522D03*
X83028000Y60707522D03*
%TD*%
D16*
%TO.C,R14*%
X78726000Y60691522D03*
X78726000Y58691522D03*
%TD*%
%TO.C,R15*%
X60184000Y65009522D03*
X60184000Y63009522D03*
%TD*%
D14*
%TO.C,R16*%
X72884000Y58691522D03*
X72884000Y60691522D03*
%TD*%
D16*
%TO.C,R22*%
X45452000Y53325522D03*
X45452000Y51325522D03*
%TD*%
D14*
%TO.C,R23*%
X41134000Y53357522D03*
X41134000Y55357522D03*
%TD*%
D16*
%TO.C,R26*%
X25386000Y57135522D03*
X25386000Y55135522D03*
%TD*%
D14*
%TO.C,R27*%
X21322000Y57167522D03*
X21322000Y59167522D03*
%TD*%
D15*
%TO.C,R28*%
X43436000Y60453522D03*
X45436000Y60453522D03*
%TD*%
D16*
%TO.C,R29*%
X41388000Y60183522D03*
X41388000Y58183522D03*
%TD*%
D15*
%TO.C,R30*%
X23624000Y65279522D03*
X25624000Y65279522D03*
%TD*%
D16*
%TO.C,R31*%
X21322000Y65263522D03*
X21322000Y63263522D03*
%TD*%
D14*
%TO.C,R32*%
X35546000Y58183522D03*
X35546000Y60183522D03*
%TD*%
D16*
%TO.C,R33*%
X15226000Y65263522D03*
X15226000Y63263522D03*
%TD*%
D21*
%TO.C,U3*%
X21056600Y6579722D03*
X18756600Y6579722D03*
D22*
X18756600Y12879722D03*
D21*
X16456600Y6579722D03*
%TD*%
M02*
