%TF.GenerationSoftware,KiCad,Pcbnew,(6.0.2)*%
%TF.CreationDate,2022-05-10T14:08:15+02:00*%
%TF.ProjectId,shake-it-machine_pcb,7368616b-652d-4697-942d-6d616368696e,rev?*%
%TF.SameCoordinates,PXfad696c0PYf0f76bc2*%
%TF.FileFunction,Soldermask,Top*%
%TF.FilePolarity,Negative*%
%FSLAX46Y46*%
G04 Gerber Fmt 4.6, Leading zero omitted, Abs format (unit mm)*
G04 Created by KiCad (PCBNEW (6.0.2)) date 2022-05-10 14:08:15*
%MOMM*%
%LPD*%
G01*
G04 APERTURE LIST*
G04 Aperture macros list*
%AMRoundRect*
0 Rectangle with rounded corners*
0 $1 Rounding radius*
0 $2 $3 $4 $5 $6 $7 $8 $9 X,Y pos of 4 corners*
0 Add a 4 corners polygon primitive as box body*
4,1,4,$2,$3,$4,$5,$6,$7,$8,$9,$2,$3,0*
0 Add four circle primitives for the rounded corners*
1,1,$1+$1,$2,$3*
1,1,$1+$1,$4,$5*
1,1,$1+$1,$6,$7*
1,1,$1+$1,$8,$9*
0 Add four rect primitives between the rounded corners*
20,1,$1+$1,$2,$3,$4,$5,0*
20,1,$1+$1,$4,$5,$6,$7,0*
20,1,$1+$1,$6,$7,$8,$9,0*
20,1,$1+$1,$8,$9,$2,$3,0*%
G04 Aperture macros list end*
%ADD10R,1.248000X1.248000*%
%ADD11C,1.248000*%
%ADD12RoundRect,0.250000X0.600000X0.750000X-0.600000X0.750000X-0.600000X-0.750000X0.600000X-0.750000X0*%
%ADD13O,1.700000X2.000000*%
%ADD14RoundRect,0.250000X-0.337500X-0.475000X0.337500X-0.475000X0.337500X0.475000X-0.337500X0.475000X0*%
%ADD15RoundRect,0.249999X0.400001X-0.412501X0.400001X0.412501X-0.400001X0.412501X-0.400001X-0.412501X0*%
%ADD16RoundRect,0.249999X0.450001X-0.350001X0.450001X0.350001X-0.450001X0.350001X-0.450001X-0.350001X0*%
%ADD17R,3.000000X2.000000*%
%ADD18O,3.000000X2.000000*%
%ADD19R,2.000000X1.905000*%
%ADD20O,2.000000X1.905000*%
%ADD21R,1.600000X1.600000*%
%ADD22C,1.600000*%
%ADD23RoundRect,0.250000X-0.475000X0.337500X-0.475000X-0.337500X0.475000X-0.337500X0.475000X0.337500X0*%
%ADD24RoundRect,0.250000X-0.925000X0.500000X-0.925000X-0.500000X0.925000X-0.500000X0.925000X0.500000X0*%
%ADD25RoundRect,0.250000X0.475000X-0.337500X0.475000X0.337500X-0.475000X0.337500X-0.475000X-0.337500X0*%
%ADD26RoundRect,0.250000X-0.725000X0.600000X-0.725000X-0.600000X0.725000X-0.600000X0.725000X0.600000X0*%
%ADD27O,1.950000X1.700000*%
%ADD28RoundRect,0.150000X-0.625000X0.150000X-0.625000X-0.150000X0.625000X-0.150000X0.625000X0.150000X0*%
%ADD29RoundRect,0.249999X-0.650001X0.350001X-0.650001X-0.350001X0.650001X-0.350001X0.650001X0.350001X0*%
%ADD30RoundRect,0.249600X-0.650400X0.350400X-0.650400X-0.350400X0.650400X-0.350400X0.650400X0.350400X0*%
%ADD31RoundRect,0.249999X0.350001X0.450001X-0.350001X0.450001X-0.350001X-0.450001X0.350001X-0.450001X0*%
%ADD32RoundRect,0.249999X-0.450001X0.350001X-0.450001X-0.350001X0.450001X-0.350001X0.450001X0.350001X0*%
%ADD33RoundRect,0.249999X-0.350001X-0.450001X0.350001X-0.450001X0.350001X0.450001X-0.350001X0.450001X0*%
%ADD34R,1.600000X1.400000*%
%ADD35RoundRect,0.213900X0.251100X-0.511100X0.251100X0.511100X-0.251100X0.511100X-0.251100X-0.511100X0*%
%ADD36R,4.000000X4.000000*%
%ADD37RoundRect,0.249999X0.412501X0.400001X-0.412501X0.400001X-0.412501X-0.400001X0.412501X-0.400001X0*%
%ADD38R,3.000000X3.000000*%
%ADD39C,3.000000*%
%ADD40R,1.500000X1.000000*%
%ADD41O,1.500000X1.000000*%
%ADD42C,0.800000*%
%ADD43C,6.400000*%
%ADD44C,2.400000*%
%ADD45O,2.400000X2.400000*%
G04 APERTURE END LIST*
D10*
%TO.C,U1*%
X67296000Y35942522D03*
D11*
X64756000Y35942522D03*
X62216000Y35942522D03*
X59676000Y35942522D03*
X57136000Y35942522D03*
X54596000Y35942522D03*
X52056000Y35942522D03*
X49516000Y35942522D03*
X49516000Y28322522D03*
X52056000Y28322522D03*
X54596000Y28322522D03*
X57136000Y28322522D03*
X59676000Y28322522D03*
X62216000Y28322522D03*
X64756000Y28322522D03*
X67296000Y28322522D03*
%TD*%
D12*
%TO.C,J9*%
X77964000Y93473522D03*
D13*
X75464000Y93473522D03*
%TD*%
D14*
%TO.C,C7*%
X69763700Y8764522D03*
X71838700Y8764522D03*
%TD*%
D15*
%TO.C,D11*%
X75424000Y87230522D03*
X75424000Y89155522D03*
%TD*%
%TO.C,D12*%
X56120000Y86923022D03*
X56120000Y88848022D03*
%TD*%
%TO.C,D13*%
X38086000Y87177022D03*
X38086000Y89102022D03*
%TD*%
%TO.C,D14*%
X19290000Y86669022D03*
X19290000Y88594022D03*
%TD*%
D16*
%TO.C,R38*%
X73138000Y87139522D03*
X73138000Y89139522D03*
%TD*%
%TO.C,R39*%
X54088000Y86885522D03*
X54088000Y88885522D03*
%TD*%
%TO.C,R40*%
X36054000Y87139522D03*
X36054000Y89139522D03*
%TD*%
%TO.C,R41*%
X17258000Y86631522D03*
X17258000Y88631522D03*
%TD*%
D17*
%TO.C,F1*%
X78091000Y49785522D03*
D18*
X78091000Y83803522D03*
%TD*%
D17*
%TO.C,F2*%
X58914000Y49785522D03*
D18*
X58914000Y83803522D03*
%TD*%
D17*
%TO.C,F3*%
X40245000Y49912522D03*
D18*
X40245000Y83930522D03*
%TD*%
D17*
%TO.C,F4*%
X20179000Y49404522D03*
D18*
X20179000Y83422522D03*
%TD*%
D19*
%TO.C,Q20*%
X14210000Y88393522D03*
D20*
X14210000Y90933522D03*
X14210000Y93473522D03*
%TD*%
D12*
%TO.C,J8*%
X58914000Y93219522D03*
D13*
X56414000Y93219522D03*
%TD*%
D16*
%TO.C,R4*%
X30847000Y31996122D03*
X30847000Y33996122D03*
%TD*%
D14*
%TO.C,C1*%
X69585900Y28093922D03*
X71660900Y28093922D03*
%TD*%
D21*
%TO.C,C2*%
X44893200Y16054322D03*
D22*
X44893200Y13554322D03*
%TD*%
D23*
%TO.C,C3*%
X39965600Y35583022D03*
X39965600Y33508022D03*
%TD*%
D14*
%TO.C,C4*%
X69585900Y30202122D03*
X71660900Y30202122D03*
%TD*%
%TO.C,C5*%
X69763700Y10796522D03*
X71838700Y10796522D03*
%TD*%
D23*
%TO.C,C6*%
X40346600Y17015622D03*
X40346600Y14940622D03*
%TD*%
D21*
%TO.C,C8*%
X44613800Y35180522D03*
D22*
X44613800Y32680522D03*
%TD*%
D14*
%TO.C,C17*%
X7635300Y5335522D03*
X9710300Y5335522D03*
%TD*%
D24*
%TO.C,C18*%
X1764000Y18644522D03*
X1764000Y15394522D03*
%TD*%
D14*
%TO.C,C19*%
X4688900Y15368522D03*
X6763900Y15368522D03*
%TD*%
D25*
%TO.C,C20*%
X6844000Y17252022D03*
X6844000Y19327022D03*
%TD*%
D26*
%TO.C,J2*%
X89648000Y39371522D03*
D27*
X89648000Y36871522D03*
X89648000Y34371522D03*
X89648000Y31871522D03*
%TD*%
D26*
%TO.C,J3*%
X89648000Y17527522D03*
D27*
X89648000Y15027522D03*
X89648000Y12527522D03*
X89648000Y10027522D03*
%TD*%
D12*
%TO.C,J5*%
X22084000Y92457522D03*
D13*
X19584000Y92457522D03*
%TD*%
D28*
%TO.C,J6*%
X5288000Y11899522D03*
X5288000Y10899522D03*
X5288000Y9899522D03*
X5288000Y8899522D03*
X5288000Y7899522D03*
X5288000Y6899522D03*
D29*
X1413000Y5599522D03*
D30*
X1413000Y13199522D03*
%TD*%
D12*
%TO.C,J7*%
X40372000Y93219522D03*
D13*
X37872000Y93219522D03*
%TD*%
D19*
%TO.C,Q9*%
X69836000Y89155522D03*
D20*
X69836000Y91695522D03*
X69836000Y94235522D03*
%TD*%
D19*
%TO.C,Q10*%
X50786000Y88901522D03*
D20*
X50786000Y91441522D03*
X50786000Y93981522D03*
%TD*%
D19*
%TO.C,Q19*%
X32498000Y88901522D03*
D20*
X32498000Y91441522D03*
X32498000Y93981522D03*
%TD*%
D31*
%TO.C,R1*%
X71521800Y36018722D03*
X69521800Y36018722D03*
%TD*%
D32*
%TO.C,R2*%
X11619200Y43165522D03*
X11619200Y41165522D03*
%TD*%
D16*
%TO.C,R5*%
X4812000Y17289522D03*
X4812000Y19289522D03*
%TD*%
D32*
%TO.C,R6*%
X17639000Y43276522D03*
X17639000Y41276522D03*
%TD*%
D33*
%TO.C,R12*%
X45315600Y28017722D03*
X47315600Y28017722D03*
%TD*%
D31*
%TO.C,R24*%
X71674200Y16994122D03*
X69674200Y16994122D03*
%TD*%
D33*
%TO.C,R25*%
X45442600Y8739122D03*
X47442600Y8739122D03*
%TD*%
D10*
%TO.C,U2*%
X67473800Y16740122D03*
D11*
X64933800Y16740122D03*
X62393800Y16740122D03*
X59853800Y16740122D03*
X57313800Y16740122D03*
X54773800Y16740122D03*
X52233800Y16740122D03*
X49693800Y16740122D03*
X49693800Y9120122D03*
X52233800Y9120122D03*
X54773800Y9120122D03*
X57313800Y9120122D03*
X59853800Y9120122D03*
X62393800Y9120122D03*
X64933800Y9120122D03*
X67473800Y9120122D03*
%TD*%
D34*
%TO.C,SW1*%
X9320000Y41439522D03*
X1320000Y41439522D03*
X9320000Y45939522D03*
X1320000Y45939522D03*
%TD*%
D32*
%TO.C,R3*%
X30897800Y27544522D03*
X30897800Y25544522D03*
%TD*%
D35*
%TO.C,A1*%
X1124000Y21417522D03*
X2394000Y21417522D03*
X3664000Y21417522D03*
X4934000Y21417522D03*
X6204000Y21417522D03*
X7474000Y21417522D03*
X8744000Y21417522D03*
X10014000Y21417522D03*
X11284000Y21417522D03*
X12554000Y21417522D03*
X13824000Y21417522D03*
X15094000Y21417522D03*
X16364000Y21417522D03*
X17634000Y21417522D03*
X18904000Y21417522D03*
X20174000Y21417522D03*
X21444000Y21417522D03*
X22714000Y21417522D03*
X23984000Y21417522D03*
X23984000Y39037522D03*
X22714000Y39037522D03*
X21444000Y39037522D03*
X20174000Y39037522D03*
X18904000Y39037522D03*
X17634000Y39037522D03*
X16364000Y39037522D03*
X15094000Y39037522D03*
X13824000Y39037522D03*
X12554000Y39037522D03*
X11284000Y39037522D03*
X10014000Y39037522D03*
X8744000Y39037522D03*
X7474000Y39037522D03*
X6204000Y39037522D03*
X4934000Y39037522D03*
X3664000Y39037522D03*
X2394000Y39037522D03*
X1124000Y39037522D03*
D36*
X8914000Y28847522D03*
%TD*%
D37*
%TO.C,D1*%
X28761500Y27484322D03*
X26836500Y27484322D03*
%TD*%
%TO.C,D2*%
X28685300Y32005522D03*
X26760300Y32005522D03*
%TD*%
D38*
%TO.C,J1*%
X4075400Y75922122D03*
D39*
X4075400Y70842122D03*
%TD*%
D25*
%TO.C,C12*%
X30847000Y48671822D03*
X30847000Y50746822D03*
%TD*%
D21*
%TO.C,C16*%
X3923000Y81205322D03*
D22*
X3923000Y83705322D03*
%TD*%
D25*
%TO.C,C13*%
X50862200Y48544822D03*
X50862200Y50619822D03*
%TD*%
%TO.C,C11*%
X69836000Y48240022D03*
X69836000Y50315022D03*
%TD*%
D40*
%TO.C,J10*%
X4761200Y59241322D03*
D41*
X4761200Y57741322D03*
X4761200Y56241322D03*
X4761200Y54741322D03*
X4761200Y53241322D03*
X4761200Y51741322D03*
%TD*%
D38*
%TO.C,J4*%
X27418000Y4319522D03*
D39*
X32498000Y4319522D03*
%TD*%
D42*
%TO.C,H2*%
X86359000Y95494000D03*
D43*
X88759000Y95494000D03*
D42*
X90456056Y93796944D03*
X87061944Y97191056D03*
X88759000Y93094000D03*
X87061944Y93796944D03*
X88759000Y97894000D03*
X90456056Y97191056D03*
X91159000Y95494000D03*
%TD*%
%TO.C,H3*%
X6001056Y96937056D03*
X2606944Y93542944D03*
X4304000Y97640000D03*
X1904000Y95240000D03*
D43*
X4304000Y95240000D03*
D42*
X2606944Y96937056D03*
X4304000Y92840000D03*
X6704000Y95240000D03*
X6001056Y93542944D03*
%TD*%
%TO.C,H4*%
X81266000Y1273000D03*
X81266000Y6073000D03*
X82963056Y5370056D03*
X79568944Y5370056D03*
X82963056Y1975944D03*
X78866000Y3673000D03*
X79568944Y1975944D03*
D43*
X81266000Y3673000D03*
D42*
X83666000Y3673000D03*
%TD*%
D44*
%TO.C,R18*%
X67804000Y64009522D03*
D45*
X88124000Y64009522D03*
%TD*%
D44*
%TO.C,R20*%
X67550000Y73915522D03*
D45*
X87870000Y73915522D03*
%TD*%
D44*
%TO.C,R34*%
X49008000Y64009522D03*
D45*
X28688000Y64009522D03*
%TD*%
D44*
%TO.C,R36*%
X28688000Y74169522D03*
D45*
X49008000Y74169522D03*
%TD*%
D44*
%TO.C,R37*%
X10146000Y79503522D03*
D45*
X30466000Y79503522D03*
%TD*%
D44*
%TO.C,R35*%
X30466000Y68835522D03*
D45*
X10146000Y68835522D03*
%TD*%
D44*
%TO.C,R21*%
X48500000Y78995522D03*
D45*
X68820000Y78995522D03*
%TD*%
D44*
%TO.C,R19*%
X48500000Y68581522D03*
D45*
X68820000Y68581522D03*
%TD*%
M02*
