%TF.GenerationSoftware,KiCad,Pcbnew,(6.0.2)*%
%TF.CreationDate,2022-05-10T14:08:14+02:00*%
%TF.ProjectId,shake-it-machine_pcb,7368616b-652d-4697-942d-6d616368696e,rev?*%
%TF.SameCoordinates,PXfad696c0PYf0f76bc2*%
%TF.FileFunction,Paste,Top*%
%TF.FilePolarity,Positive*%
%FSLAX46Y46*%
G04 Gerber Fmt 4.6, Leading zero omitted, Abs format (unit mm)*
G04 Created by KiCad (PCBNEW (6.0.2)) date 2022-05-10 14:08:14*
%MOMM*%
%LPD*%
G01*
G04 APERTURE LIST*
G04 Aperture macros list*
%AMRoundRect*
0 Rectangle with rounded corners*
0 $1 Rounding radius*
0 $2 $3 $4 $5 $6 $7 $8 $9 X,Y pos of 4 corners*
0 Add a 4 corners polygon primitive as box body*
4,1,4,$2,$3,$4,$5,$6,$7,$8,$9,$2,$3,0*
0 Add four circle primitives for the rounded corners*
1,1,$1+$1,$2,$3*
1,1,$1+$1,$4,$5*
1,1,$1+$1,$6,$7*
1,1,$1+$1,$8,$9*
0 Add four rect primitives between the rounded corners*
20,1,$1+$1,$2,$3,$4,$5,0*
20,1,$1+$1,$4,$5,$6,$7,0*
20,1,$1+$1,$6,$7,$8,$9,0*
20,1,$1+$1,$8,$9,$2,$3,0*%
G04 Aperture macros list end*
%ADD10C,0.010000*%
%ADD11RoundRect,0.250000X-0.337500X-0.475000X0.337500X-0.475000X0.337500X0.475000X-0.337500X0.475000X0*%
%ADD12RoundRect,0.249999X0.400001X-0.412501X0.400001X0.412501X-0.400001X0.412501X-0.400001X-0.412501X0*%
%ADD13RoundRect,0.249999X0.450001X-0.350001X0.450001X0.350001X-0.450001X0.350001X-0.450001X-0.350001X0*%
%ADD14RoundRect,0.250000X-0.475000X0.337500X-0.475000X-0.337500X0.475000X-0.337500X0.475000X0.337500X0*%
%ADD15RoundRect,0.250000X-0.925000X0.500000X-0.925000X-0.500000X0.925000X-0.500000X0.925000X0.500000X0*%
%ADD16RoundRect,0.250000X0.475000X-0.337500X0.475000X0.337500X-0.475000X0.337500X-0.475000X-0.337500X0*%
%ADD17RoundRect,0.150000X-0.625000X0.150000X-0.625000X-0.150000X0.625000X-0.150000X0.625000X0.150000X0*%
%ADD18RoundRect,0.249999X-0.650001X0.350001X-0.650001X-0.350001X0.650001X-0.350001X0.650001X0.350001X0*%
%ADD19RoundRect,0.249600X-0.650400X0.350400X-0.650400X-0.350400X0.650400X-0.350400X0.650400X0.350400X0*%
%ADD20RoundRect,0.249999X0.350001X0.450001X-0.350001X0.450001X-0.350001X-0.450001X0.350001X-0.450001X0*%
%ADD21RoundRect,0.249999X-0.450001X0.350001X-0.450001X-0.350001X0.450001X-0.350001X0.450001X0.350001X0*%
%ADD22RoundRect,0.249999X-0.350001X-0.450001X0.350001X-0.450001X0.350001X0.450001X-0.350001X0.450001X0*%
%ADD23R,1.600000X1.400000*%
%ADD24RoundRect,0.213900X0.251100X-0.511100X0.251100X0.511100X-0.251100X0.511100X-0.251100X-0.511100X0*%
%ADD25RoundRect,0.249999X0.412501X0.400001X-0.412501X0.400001X-0.412501X-0.400001X0.412501X-0.400001X0*%
G04 APERTURE END LIST*
D10*
%TO.C,A1*%
X7649000Y27579052D02*
X7649000Y30112522D01*
X7649000Y30112522D02*
X10180044Y30112522D01*
X10180044Y30112522D02*
X10180044Y27579052D01*
X10180044Y27579052D02*
X7649000Y27579052D01*
G36*
X10180044Y27579052D02*
G01*
X7649000Y27579052D01*
X7649000Y30112522D01*
X10180044Y30112522D01*
X10180044Y27579052D01*
G37*
X10180044Y27579052D02*
X7649000Y27579052D01*
X7649000Y30112522D01*
X10180044Y30112522D01*
X10180044Y27579052D01*
%TD*%
D11*
%TO.C,C7*%
X69763700Y8764522D03*
X71838700Y8764522D03*
%TD*%
D12*
%TO.C,D11*%
X75424000Y87230522D03*
X75424000Y89155522D03*
%TD*%
%TO.C,D12*%
X56120000Y86923022D03*
X56120000Y88848022D03*
%TD*%
%TO.C,D13*%
X38086000Y87177022D03*
X38086000Y89102022D03*
%TD*%
%TO.C,D14*%
X19290000Y86669022D03*
X19290000Y88594022D03*
%TD*%
D13*
%TO.C,R38*%
X73138000Y87139522D03*
X73138000Y89139522D03*
%TD*%
%TO.C,R39*%
X54088000Y86885522D03*
X54088000Y88885522D03*
%TD*%
%TO.C,R40*%
X36054000Y87139522D03*
X36054000Y89139522D03*
%TD*%
%TO.C,R41*%
X17258000Y86631522D03*
X17258000Y88631522D03*
%TD*%
%TO.C,R4*%
X30847000Y31996122D03*
X30847000Y33996122D03*
%TD*%
D11*
%TO.C,C1*%
X69585900Y28093922D03*
X71660900Y28093922D03*
%TD*%
D14*
%TO.C,C3*%
X39965600Y35583022D03*
X39965600Y33508022D03*
%TD*%
D11*
%TO.C,C4*%
X69585900Y30202122D03*
X71660900Y30202122D03*
%TD*%
%TO.C,C5*%
X69763700Y10796522D03*
X71838700Y10796522D03*
%TD*%
D14*
%TO.C,C6*%
X40346600Y17015622D03*
X40346600Y14940622D03*
%TD*%
D11*
%TO.C,C17*%
X7635300Y5335522D03*
X9710300Y5335522D03*
%TD*%
D15*
%TO.C,C18*%
X1764000Y18644522D03*
X1764000Y15394522D03*
%TD*%
D11*
%TO.C,C19*%
X4688900Y15368522D03*
X6763900Y15368522D03*
%TD*%
D16*
%TO.C,C20*%
X6844000Y17252022D03*
X6844000Y19327022D03*
%TD*%
D17*
%TO.C,J6*%
X5288000Y11899522D03*
X5288000Y10899522D03*
X5288000Y9899522D03*
X5288000Y8899522D03*
X5288000Y7899522D03*
X5288000Y6899522D03*
D18*
X1413000Y5599522D03*
D19*
X1413000Y13199522D03*
%TD*%
D20*
%TO.C,R1*%
X71521800Y36018722D03*
X69521800Y36018722D03*
%TD*%
D21*
%TO.C,R2*%
X11619200Y43165522D03*
X11619200Y41165522D03*
%TD*%
D13*
%TO.C,R5*%
X4812000Y17289522D03*
X4812000Y19289522D03*
%TD*%
D21*
%TO.C,R6*%
X17639000Y43276522D03*
X17639000Y41276522D03*
%TD*%
D22*
%TO.C,R12*%
X45315600Y28017722D03*
X47315600Y28017722D03*
%TD*%
D20*
%TO.C,R24*%
X71674200Y16994122D03*
X69674200Y16994122D03*
%TD*%
D22*
%TO.C,R25*%
X45442600Y8739122D03*
X47442600Y8739122D03*
%TD*%
D23*
%TO.C,SW1*%
X9320000Y41439522D03*
X1320000Y41439522D03*
X9320000Y45939522D03*
X1320000Y45939522D03*
%TD*%
D21*
%TO.C,R3*%
X30897800Y27544522D03*
X30897800Y25544522D03*
%TD*%
D24*
%TO.C,A1*%
X1124000Y21417522D03*
X2394000Y21417522D03*
X3664000Y21417522D03*
X4934000Y21417522D03*
X6204000Y21417522D03*
X7474000Y21417522D03*
X8744000Y21417522D03*
X10014000Y21417522D03*
X11284000Y21417522D03*
X12554000Y21417522D03*
X13824000Y21417522D03*
X15094000Y21417522D03*
X16364000Y21417522D03*
X17634000Y21417522D03*
X18904000Y21417522D03*
X20174000Y21417522D03*
X21444000Y21417522D03*
X22714000Y21417522D03*
X23984000Y21417522D03*
X23984000Y39037522D03*
X22714000Y39037522D03*
X21444000Y39037522D03*
X20174000Y39037522D03*
X18904000Y39037522D03*
X17634000Y39037522D03*
X16364000Y39037522D03*
X15094000Y39037522D03*
X13824000Y39037522D03*
X12554000Y39037522D03*
X11284000Y39037522D03*
X10014000Y39037522D03*
X8744000Y39037522D03*
X7474000Y39037522D03*
X6204000Y39037522D03*
X4934000Y39037522D03*
X3664000Y39037522D03*
X2394000Y39037522D03*
X1124000Y39037522D03*
%TD*%
D25*
%TO.C,D1*%
X28761500Y27484322D03*
X26836500Y27484322D03*
%TD*%
%TO.C,D2*%
X28685300Y32005522D03*
X26760300Y32005522D03*
%TD*%
D16*
%TO.C,C12*%
X30847000Y48671822D03*
X30847000Y50746822D03*
%TD*%
%TO.C,C13*%
X50862200Y48544822D03*
X50862200Y50619822D03*
%TD*%
%TO.C,C11*%
X69836000Y48240022D03*
X69836000Y50315022D03*
%TD*%
M02*
