%TF.GenerationSoftware,KiCad,Pcbnew,(6.0.2)*%
%TF.CreationDate,2022-05-10T14:08:15+02:00*%
%TF.ProjectId,shake-it-machine_pcb,7368616b-652d-4697-942d-6d616368696e,rev?*%
%TF.SameCoordinates,PXfad696c0PYf0f76bc2*%
%TF.FileFunction,Legend,Bot*%
%TF.FilePolarity,Positive*%
%FSLAX46Y46*%
G04 Gerber Fmt 4.6, Leading zero omitted, Abs format (unit mm)*
G04 Created by KiCad (PCBNEW (6.0.2)) date 2022-05-10 14:08:15*
%MOMM*%
%LPD*%
G01*
G04 APERTURE LIST*
G04 Aperture macros list*
%AMRoundRect*
0 Rectangle with rounded corners*
0 $1 Rounding radius*
0 $2 $3 $4 $5 $6 $7 $8 $9 X,Y pos of 4 corners*
0 Add a 4 corners polygon primitive as box body*
4,1,4,$2,$3,$4,$5,$6,$7,$8,$9,$2,$3,0*
0 Add four circle primitives for the rounded corners*
1,1,$1+$1,$2,$3*
1,1,$1+$1,$4,$5*
1,1,$1+$1,$6,$7*
1,1,$1+$1,$8,$9*
0 Add four rect primitives between the rounded corners*
20,1,$1+$1,$2,$3,$4,$5,0*
20,1,$1+$1,$4,$5,$6,$7,0*
20,1,$1+$1,$6,$7,$8,$9,0*
20,1,$1+$1,$8,$9,$2,$3,0*%
G04 Aperture macros list end*
%ADD10C,0.150000*%
%ADD11C,0.120000*%
%ADD12C,0.152400*%
%ADD13C,0.100000*%
%ADD14R,1.248000X1.248000*%
%ADD15C,1.248000*%
%ADD16RoundRect,0.250000X0.600000X0.750000X-0.600000X0.750000X-0.600000X-0.750000X0.600000X-0.750000X0*%
%ADD17O,1.700000X2.000000*%
%ADD18R,3.000000X2.000000*%
%ADD19O,3.000000X2.000000*%
%ADD20R,2.000000X1.905000*%
%ADD21O,2.000000X1.905000*%
%ADD22R,1.600000X1.600000*%
%ADD23C,1.600000*%
%ADD24RoundRect,0.250000X-0.725000X0.600000X-0.725000X-0.600000X0.725000X-0.600000X0.725000X0.600000X0*%
%ADD25O,1.950000X1.700000*%
%ADD26R,3.000000X3.000000*%
%ADD27C,3.000000*%
%ADD28R,1.500000X1.000000*%
%ADD29O,1.500000X1.000000*%
%ADD30C,0.800000*%
%ADD31C,6.400000*%
%ADD32R,2.500000X1.800000*%
%ADD33R,1.700000X1.300000*%
%ADD34C,2.400000*%
%ADD35O,2.400000X2.400000*%
%ADD36R,1.600000X0.800000*%
%ADD37RoundRect,0.250000X0.337500X0.475000X-0.337500X0.475000X-0.337500X-0.475000X0.337500X-0.475000X0*%
%ADD38RoundRect,0.249999X0.450001X-0.350001X0.450001X0.350001X-0.450001X0.350001X-0.450001X-0.350001X0*%
%ADD39RoundRect,0.249999X-0.350001X-0.450001X0.350001X-0.450001X0.350001X0.450001X-0.350001X0.450001X0*%
%ADD40RoundRect,0.249999X-0.450001X0.350001X-0.450001X-0.350001X0.450001X-0.350001X0.450001X0.350001X0*%
%ADD41R,0.800000X1.600000*%
%ADD42RoundRect,0.250000X0.475000X-0.337500X0.475000X0.337500X-0.475000X0.337500X-0.475000X-0.337500X0*%
%ADD43RoundRect,0.250000X-0.337500X-0.475000X0.337500X-0.475000X0.337500X0.475000X-0.337500X0.475000X0*%
%ADD44RoundRect,0.250000X0.500000X0.925000X-0.500000X0.925000X-0.500000X-0.925000X0.500000X-0.925000X0*%
%ADD45R,1.500000X2.000000*%
%ADD46R,3.800000X2.000000*%
G04 APERTURE END LIST*
D10*
X19010648Y18284750D02*
X19772553Y18284750D01*
X19391600Y18665702D02*
X19391600Y17903798D01*
X16886496Y95262655D02*
X16410305Y95262655D01*
X16981734Y94976941D02*
X16648400Y95976941D01*
X16315067Y94976941D01*
X53818096Y95770655D02*
X53341905Y95770655D01*
X53913334Y95484941D02*
X53580000Y96484941D01*
X53246667Y95484941D01*
X72969696Y96278655D02*
X72493505Y96278655D01*
X73064934Y95992941D02*
X72731600Y96992941D01*
X72398267Y95992941D01*
X12620934Y72553417D02*
X12620934Y72077226D01*
X12335220Y72648655D02*
X13335220Y72315322D01*
X12335220Y71981988D01*
X69720134Y66990817D02*
X69720134Y66514626D01*
X69434420Y67086055D02*
X70434420Y66752722D01*
X69434420Y66419388D01*
X79931239Y22481617D02*
X79883620Y22624474D01*
X79883620Y22862569D01*
X79931239Y22957807D01*
X79978858Y23005426D01*
X80074096Y23053045D01*
X80169334Y23053045D01*
X80264572Y23005426D01*
X80312191Y22957807D01*
X80359810Y22862569D01*
X80407429Y22672093D01*
X80455048Y22576855D01*
X80502667Y22529236D01*
X80597905Y22481617D01*
X80693143Y22481617D01*
X80788381Y22529236D01*
X80836000Y22576855D01*
X80883620Y22672093D01*
X80883620Y22910188D01*
X80836000Y23053045D01*
X79883620Y23481617D02*
X80883620Y23481617D01*
X79883620Y23910188D02*
X80407429Y23910188D01*
X80502667Y23862569D01*
X80550286Y23767331D01*
X80550286Y23624474D01*
X80502667Y23529236D01*
X80455048Y23481617D01*
X79883620Y24814950D02*
X80407429Y24814950D01*
X80502667Y24767331D01*
X80550286Y24672093D01*
X80550286Y24481617D01*
X80502667Y24386379D01*
X79931239Y24814950D02*
X79883620Y24719712D01*
X79883620Y24481617D01*
X79931239Y24386379D01*
X80026477Y24338760D01*
X80121715Y24338760D01*
X80216953Y24386379D01*
X80264572Y24481617D01*
X80264572Y24719712D01*
X80312191Y24814950D01*
X79883620Y25291141D02*
X80883620Y25291141D01*
X80264572Y25386379D02*
X79883620Y25672093D01*
X80550286Y25672093D02*
X80169334Y25291141D01*
X79931239Y26481617D02*
X79883620Y26386379D01*
X79883620Y26195902D01*
X79931239Y26100664D01*
X80026477Y26053045D01*
X80407429Y26053045D01*
X80502667Y26100664D01*
X80550286Y26195902D01*
X80550286Y26386379D01*
X80502667Y26481617D01*
X80407429Y26529236D01*
X80312191Y26529236D01*
X80216953Y26053045D01*
X79883620Y27719712D02*
X80550286Y27719712D01*
X80883620Y27719712D02*
X80836000Y27672093D01*
X80788381Y27719712D01*
X80836000Y27767331D01*
X80883620Y27719712D01*
X80788381Y27719712D01*
X80550286Y28053045D02*
X80550286Y28433998D01*
X80883620Y28195902D02*
X80026477Y28195902D01*
X79931239Y28243522D01*
X79883620Y28338760D01*
X79883620Y28433998D01*
X80264572Y29529236D02*
X80264572Y30291141D01*
X79883620Y31529236D02*
X80883620Y31529236D01*
X80169334Y31862569D01*
X80883620Y32195902D01*
X79883620Y32195902D01*
X79883620Y33100664D02*
X80407429Y33100664D01*
X80502667Y33053045D01*
X80550286Y32957807D01*
X80550286Y32767331D01*
X80502667Y32672093D01*
X79931239Y33100664D02*
X79883620Y33005426D01*
X79883620Y32767331D01*
X79931239Y32672093D01*
X80026477Y32624474D01*
X80121715Y32624474D01*
X80216953Y32672093D01*
X80264572Y32767331D01*
X80264572Y33005426D01*
X80312191Y33100664D01*
X79883620Y33576855D02*
X80550286Y33576855D01*
X80883620Y33576855D02*
X80836000Y33529236D01*
X80788381Y33576855D01*
X80836000Y33624474D01*
X80883620Y33576855D01*
X80788381Y33576855D01*
X80550286Y34053045D02*
X79883620Y34053045D01*
X80455048Y34053045D02*
X80502667Y34100664D01*
X80550286Y34195902D01*
X80550286Y34338760D01*
X80502667Y34433998D01*
X80407429Y34481617D01*
X79883620Y34481617D01*
X80264572Y34957807D02*
X80264572Y35719712D01*
X79883620Y36195902D02*
X80883620Y36195902D01*
X80502667Y36195902D02*
X80550286Y36291141D01*
X80550286Y36481617D01*
X80502667Y36576855D01*
X80455048Y36624474D01*
X80359810Y36672093D01*
X80074096Y36672093D01*
X79978858Y36624474D01*
X79931239Y36576855D01*
X79883620Y36481617D01*
X79883620Y36291141D01*
X79931239Y36195902D01*
X79883620Y37243522D02*
X79931239Y37148283D01*
X79978858Y37100664D01*
X80074096Y37053045D01*
X80359810Y37053045D01*
X80455048Y37100664D01*
X80502667Y37148283D01*
X80550286Y37243522D01*
X80550286Y37386379D01*
X80502667Y37481617D01*
X80455048Y37529236D01*
X80359810Y37576855D01*
X80074096Y37576855D01*
X79978858Y37529236D01*
X79931239Y37481617D01*
X79883620Y37386379D01*
X79883620Y37243522D01*
X79883620Y38433998D02*
X80407429Y38433998D01*
X80502667Y38386379D01*
X80550286Y38291141D01*
X80550286Y38100664D01*
X80502667Y38005426D01*
X79931239Y38433998D02*
X79883620Y38338760D01*
X79883620Y38100664D01*
X79931239Y38005426D01*
X80026477Y37957807D01*
X80121715Y37957807D01*
X80216953Y38005426D01*
X80264572Y38100664D01*
X80264572Y38338760D01*
X80312191Y38433998D01*
X79883620Y38910188D02*
X80550286Y38910188D01*
X80359810Y38910188D02*
X80455048Y38957807D01*
X80502667Y39005426D01*
X80550286Y39100664D01*
X80550286Y39195902D01*
X79883620Y39957807D02*
X80883620Y39957807D01*
X79931239Y39957807D02*
X79883620Y39862569D01*
X79883620Y39672093D01*
X79931239Y39576855D01*
X79978858Y39529236D01*
X80074096Y39481617D01*
X80359810Y39481617D01*
X80455048Y39529236D01*
X80502667Y39576855D01*
X80550286Y39672093D01*
X80550286Y39862569D01*
X80502667Y39957807D01*
X78797429Y23505426D02*
X78749810Y23648283D01*
X78702191Y23695902D01*
X78606953Y23743522D01*
X78464096Y23743522D01*
X78368858Y23695902D01*
X78321239Y23648283D01*
X78273620Y23553045D01*
X78273620Y23172093D01*
X79273620Y23172093D01*
X79273620Y23505426D01*
X79226000Y23600664D01*
X79178381Y23648283D01*
X79083143Y23695902D01*
X78987905Y23695902D01*
X78892667Y23648283D01*
X78845048Y23600664D01*
X78797429Y23505426D01*
X78797429Y23172093D01*
X78940286Y24076855D02*
X78273620Y24314950D01*
X78940286Y24553045D02*
X78273620Y24314950D01*
X78035524Y24219712D01*
X77987905Y24172093D01*
X77940286Y24076855D01*
X78797429Y26029236D02*
X78797429Y25695902D01*
X78273620Y25695902D02*
X79273620Y25695902D01*
X79273620Y26172093D01*
X78321239Y26933998D02*
X78273620Y26838760D01*
X78273620Y26648283D01*
X78321239Y26553045D01*
X78416477Y26505426D01*
X78797429Y26505426D01*
X78892667Y26553045D01*
X78940286Y26648283D01*
X78940286Y26838760D01*
X78892667Y26933998D01*
X78797429Y26981617D01*
X78702191Y26981617D01*
X78606953Y26505426D01*
X78273620Y27410188D02*
X78940286Y27410188D01*
X78749810Y27410188D02*
X78845048Y27457807D01*
X78892667Y27505426D01*
X78940286Y27600664D01*
X78940286Y27695902D01*
X78940286Y28029236D02*
X78273620Y28029236D01*
X78845048Y28029236D02*
X78892667Y28076855D01*
X78940286Y28172093D01*
X78940286Y28314950D01*
X78892667Y28410188D01*
X78797429Y28457807D01*
X78273620Y28457807D01*
X78273620Y29362569D02*
X78797429Y29362569D01*
X78892667Y29314950D01*
X78940286Y29219712D01*
X78940286Y29029236D01*
X78892667Y28933998D01*
X78321239Y29362569D02*
X78273620Y29267331D01*
X78273620Y29029236D01*
X78321239Y28933998D01*
X78416477Y28886379D01*
X78511715Y28886379D01*
X78606953Y28933998D01*
X78654572Y29029236D01*
X78654572Y29267331D01*
X78702191Y29362569D01*
X78940286Y29838760D02*
X78273620Y29838760D01*
X78845048Y29838760D02*
X78892667Y29886379D01*
X78940286Y29981617D01*
X78940286Y30124474D01*
X78892667Y30219712D01*
X78797429Y30267331D01*
X78273620Y30267331D01*
X78273620Y31172093D02*
X79273620Y31172093D01*
X78321239Y31172093D02*
X78273620Y31076855D01*
X78273620Y30886379D01*
X78321239Y30791141D01*
X78368858Y30743522D01*
X78464096Y30695902D01*
X78749810Y30695902D01*
X78845048Y30743522D01*
X78892667Y30791141D01*
X78940286Y30886379D01*
X78940286Y31076855D01*
X78892667Y31172093D01*
X78273620Y31791141D02*
X78321239Y31695902D01*
X78368858Y31648283D01*
X78464096Y31600664D01*
X78749810Y31600664D01*
X78845048Y31648283D01*
X78892667Y31695902D01*
X78940286Y31791141D01*
X78940286Y31933998D01*
X78892667Y32029236D01*
X78845048Y32076855D01*
X78749810Y32124474D01*
X78464096Y32124474D01*
X78368858Y32076855D01*
X78321239Y32029236D01*
X78273620Y31933998D01*
X78273620Y31791141D01*
X78273620Y33314950D02*
X79273620Y33314950D01*
X79273620Y33553045D01*
X79226000Y33695902D01*
X79130762Y33791141D01*
X79035524Y33838760D01*
X78845048Y33886379D01*
X78702191Y33886379D01*
X78511715Y33838760D01*
X78416477Y33791141D01*
X78321239Y33695902D01*
X78273620Y33553045D01*
X78273620Y33314950D01*
X78321239Y34695902D02*
X78273620Y34600664D01*
X78273620Y34410188D01*
X78321239Y34314950D01*
X78416477Y34267331D01*
X78797429Y34267331D01*
X78892667Y34314950D01*
X78940286Y34410188D01*
X78940286Y34600664D01*
X78892667Y34695902D01*
X78797429Y34743522D01*
X78702191Y34743522D01*
X78606953Y34267331D01*
X78321239Y35600664D02*
X78273620Y35505426D01*
X78273620Y35314950D01*
X78321239Y35219712D01*
X78368858Y35172093D01*
X78464096Y35124474D01*
X78749810Y35124474D01*
X78845048Y35172093D01*
X78892667Y35219712D01*
X78940286Y35314950D01*
X78940286Y35505426D01*
X78892667Y35600664D01*
X78273620Y36172093D02*
X78321239Y36076855D01*
X78416477Y36029236D01*
X79273620Y36029236D01*
X78321239Y36933998D02*
X78273620Y36838760D01*
X78273620Y36648283D01*
X78321239Y36553045D01*
X78416477Y36505426D01*
X78797429Y36505426D01*
X78892667Y36553045D01*
X78940286Y36648283D01*
X78940286Y36838760D01*
X78892667Y36933998D01*
X78797429Y36981617D01*
X78702191Y36981617D01*
X78606953Y36505426D01*
X78273620Y37410188D02*
X78940286Y37410188D01*
X78749810Y37410188D02*
X78845048Y37457807D01*
X78892667Y37505426D01*
X78940286Y37600664D01*
X78940286Y37695902D01*
X78321239Y38457807D02*
X78273620Y38362569D01*
X78273620Y38172093D01*
X78321239Y38076855D01*
X78368858Y38029236D01*
X78464096Y37981617D01*
X78749810Y37981617D01*
X78845048Y38029236D01*
X78892667Y38076855D01*
X78940286Y38172093D01*
X78940286Y38362569D01*
X78892667Y38457807D01*
X78940286Y39314950D02*
X77940286Y39314950D01*
X78321239Y39314950D02*
X78273620Y39219712D01*
X78273620Y39029236D01*
X78321239Y38933998D01*
X78368858Y38886379D01*
X78464096Y38838760D01*
X78749810Y38838760D01*
X78845048Y38886379D01*
X78892667Y38933998D01*
X78940286Y39029236D01*
X78940286Y39219712D01*
X78892667Y39314950D01*
X77330286Y29814950D02*
X76663620Y30053045D01*
X77330286Y30291141D01*
X76663620Y31195902D02*
X76663620Y30624474D01*
X76663620Y30910188D02*
X77663620Y30910188D01*
X77520762Y30814950D01*
X77425524Y30719712D01*
X77377905Y30624474D01*
X76758858Y31624474D02*
X76711239Y31672093D01*
X76663620Y31624474D01*
X76711239Y31576855D01*
X76758858Y31624474D01*
X76663620Y31624474D01*
X77568381Y32053045D02*
X77616000Y32100664D01*
X77663620Y32195902D01*
X77663620Y32433998D01*
X77616000Y32529236D01*
X77568381Y32576855D01*
X77473143Y32624474D01*
X77377905Y32624474D01*
X77235048Y32576855D01*
X76663620Y32005426D01*
X76663620Y32624474D01*
X27489429Y11701236D02*
X27489429Y10939331D01*
X27870381Y11320283D02*
X27108477Y11320283D01*
X26870381Y9986950D02*
X26870381Y10463141D01*
X27346572Y10510760D01*
X27298953Y10463141D01*
X27251334Y10367902D01*
X27251334Y10129807D01*
X27298953Y10034569D01*
X27346572Y9986950D01*
X27441810Y9939331D01*
X27679905Y9939331D01*
X27775143Y9986950D01*
X27822762Y10034569D01*
X27870381Y10129807D01*
X27870381Y10367902D01*
X27822762Y10463141D01*
X27775143Y10510760D01*
X26870381Y9653617D02*
X27870381Y9320283D01*
X26870381Y8986950D01*
X84344172Y36928350D02*
X84201315Y36880731D01*
X84153696Y36833112D01*
X84106077Y36737874D01*
X84106077Y36595017D01*
X84153696Y36499779D01*
X84201315Y36452160D01*
X84296553Y36404541D01*
X84677505Y36404541D01*
X84677505Y37404541D01*
X84344172Y37404541D01*
X84248934Y37356922D01*
X84201315Y37309302D01*
X84153696Y37214064D01*
X84153696Y37118826D01*
X84201315Y37023588D01*
X84248934Y36975969D01*
X84344172Y36928350D01*
X84677505Y36928350D01*
X84626705Y31426141D02*
X84626705Y32426141D01*
X84388610Y32426141D01*
X84245753Y32378522D01*
X84150515Y32283283D01*
X84102896Y32188045D01*
X84055277Y31997569D01*
X84055277Y31854712D01*
X84102896Y31664236D01*
X84150515Y31568998D01*
X84245753Y31473760D01*
X84388610Y31426141D01*
X84626705Y31426141D01*
X84080677Y33985179D02*
X84128296Y33937560D01*
X84271153Y33889941D01*
X84366391Y33889941D01*
X84509248Y33937560D01*
X84604486Y34032798D01*
X84652105Y34128036D01*
X84699724Y34318512D01*
X84699724Y34461369D01*
X84652105Y34651845D01*
X84604486Y34747083D01*
X84509248Y34842322D01*
X84366391Y34889941D01*
X84271153Y34889941D01*
X84128296Y34842322D01*
X84080677Y34794702D01*
X84653696Y39154055D02*
X84177505Y39154055D01*
X84748934Y38868341D02*
X84415600Y39868341D01*
X84082267Y38868341D01*
X92052571Y43030760D02*
X91909714Y42983141D01*
X91671619Y42983141D01*
X91576380Y43030760D01*
X91528761Y43078379D01*
X91481142Y43173617D01*
X91481142Y43268855D01*
X91528761Y43364093D01*
X91576380Y43411712D01*
X91671619Y43459331D01*
X91862095Y43506950D01*
X91957333Y43554569D01*
X92004952Y43602188D01*
X92052571Y43697426D01*
X92052571Y43792664D01*
X92004952Y43887902D01*
X91957333Y43935522D01*
X91862095Y43983141D01*
X91623999Y43983141D01*
X91481142Y43935522D01*
X91195428Y43983141D02*
X90623999Y43983141D01*
X90909714Y42983141D02*
X90909714Y43983141D01*
X90290666Y43506950D02*
X89957333Y43506950D01*
X89814476Y42983141D02*
X90290666Y42983141D01*
X90290666Y43983141D01*
X89814476Y43983141D01*
X89385904Y42983141D02*
X89385904Y43983141D01*
X89004952Y43983141D01*
X88909714Y43935522D01*
X88862095Y43887902D01*
X88814476Y43792664D01*
X88814476Y43649807D01*
X88862095Y43554569D01*
X88909714Y43506950D01*
X89004952Y43459331D01*
X89385904Y43459331D01*
X88385904Y42983141D02*
X88385904Y43983141D01*
X88004952Y43983141D01*
X87909714Y43935522D01*
X87862095Y43887902D01*
X87814476Y43792664D01*
X87814476Y43649807D01*
X87862095Y43554569D01*
X87909714Y43506950D01*
X88004952Y43459331D01*
X88385904Y43459331D01*
X87385904Y43506950D02*
X87052571Y43506950D01*
X86909714Y42983141D02*
X87385904Y42983141D01*
X87385904Y43983141D01*
X86909714Y43983141D01*
X85909715Y42983141D02*
X86243048Y43459331D01*
X86481143Y42983141D02*
X86481143Y43983141D01*
X86100191Y43983141D01*
X86004953Y43935522D01*
X85957334Y43887902D01*
X85909715Y43792664D01*
X85909715Y43649807D01*
X85957334Y43554569D01*
X86004953Y43506950D01*
X86100191Y43459331D01*
X86481143Y43459331D01*
X84195429Y42983141D02*
X84766858Y42983141D01*
X84481143Y42983141D02*
X84481143Y43983141D01*
X84576381Y43840283D01*
X84671620Y43745045D01*
X84766858Y43697426D01*
X11773096Y13788950D02*
X11439762Y13788950D01*
X11296905Y13265141D02*
X11773096Y13265141D01*
X11773096Y14265141D01*
X11296905Y14265141D01*
X10868334Y13265141D02*
X10868334Y14265141D01*
X10296905Y13265141D01*
X10296905Y14265141D01*
X11201667Y10598141D02*
X11535000Y11074331D01*
X11773096Y10598141D02*
X11773096Y11598141D01*
X11392143Y11598141D01*
X11296905Y11550522D01*
X11249286Y11502902D01*
X11201667Y11407664D01*
X11201667Y11264807D01*
X11249286Y11169569D01*
X11296905Y11121950D01*
X11392143Y11074331D01*
X11773096Y11074331D01*
X10868334Y11598141D02*
X10201667Y10598141D01*
X10201667Y11598141D02*
X10868334Y10598141D01*
X11503143Y12518950D02*
X11360286Y12471331D01*
X11312667Y12423712D01*
X11265048Y12328474D01*
X11265048Y12185617D01*
X11312667Y12090379D01*
X11360286Y12042760D01*
X11455524Y11995141D01*
X11836477Y11995141D01*
X11836477Y12995141D01*
X11503143Y12995141D01*
X11407905Y12947522D01*
X11360286Y12899902D01*
X11312667Y12804664D01*
X11312667Y12709426D01*
X11360286Y12614188D01*
X11407905Y12566569D01*
X11503143Y12518950D01*
X11836477Y12518950D01*
X10646000Y12995141D02*
X10455524Y12995141D01*
X10360286Y12947522D01*
X10265048Y12852283D01*
X10217429Y12661807D01*
X10217429Y12328474D01*
X10265048Y12137998D01*
X10360286Y12042760D01*
X10455524Y11995141D01*
X10646000Y11995141D01*
X10741239Y12042760D01*
X10836477Y12137998D01*
X10884096Y12328474D01*
X10884096Y12661807D01*
X10836477Y12852283D01*
X10741239Y12947522D01*
X10646000Y12995141D01*
X9598381Y12995141D02*
X9407905Y12995141D01*
X9312667Y12947522D01*
X9217429Y12852283D01*
X9169810Y12661807D01*
X9169810Y12328474D01*
X9217429Y12137998D01*
X9312667Y12042760D01*
X9407905Y11995141D01*
X9598381Y11995141D01*
X9693620Y12042760D01*
X9788858Y12137998D01*
X9836477Y12328474D01*
X9836477Y12661807D01*
X9788858Y12852283D01*
X9693620Y12947522D01*
X9598381Y12995141D01*
X8884096Y12995141D02*
X8312667Y12995141D01*
X8598381Y11995141D02*
X8598381Y12995141D01*
X11796905Y10201141D02*
X11225477Y10201141D01*
X11511191Y9201141D02*
X11511191Y10201141D01*
X10987381Y10201141D02*
X10320715Y9201141D01*
X10320715Y10201141D02*
X10987381Y9201141D01*
X11780905Y6915093D02*
X11019000Y6915093D01*
X11399953Y6534141D02*
X11399953Y7296045D01*
X10638048Y7534141D02*
X10019000Y7534141D01*
X10352334Y7153188D01*
X10209477Y7153188D01*
X10114239Y7105569D01*
X10066620Y7057950D01*
X10019000Y6962712D01*
X10019000Y6724617D01*
X10066620Y6629379D01*
X10114239Y6581760D01*
X10209477Y6534141D01*
X10495191Y6534141D01*
X10590429Y6581760D01*
X10638048Y6629379D01*
X9733286Y7534141D02*
X9399953Y6534141D01*
X9066620Y7534141D01*
X8828524Y7534141D02*
X8209477Y7534141D01*
X8542810Y7153188D01*
X8399953Y7153188D01*
X8304715Y7105569D01*
X8257096Y7057950D01*
X8209477Y6962712D01*
X8209477Y6724617D01*
X8257096Y6629379D01*
X8304715Y6581760D01*
X8399953Y6534141D01*
X8685667Y6534141D01*
X8780905Y6581760D01*
X8828524Y6629379D01*
X11288905Y8883522D02*
X11384143Y8931141D01*
X11527000Y8931141D01*
X11669858Y8883522D01*
X11765096Y8788283D01*
X11812715Y8693045D01*
X11860334Y8502569D01*
X11860334Y8359712D01*
X11812715Y8169236D01*
X11765096Y8073998D01*
X11669858Y7978760D01*
X11527000Y7931141D01*
X11431762Y7931141D01*
X11288905Y7978760D01*
X11241286Y8026379D01*
X11241286Y8359712D01*
X11431762Y8359712D01*
X10812715Y7931141D02*
X10812715Y8931141D01*
X10241286Y7931141D01*
X10241286Y8931141D01*
X9765096Y7931141D02*
X9765096Y8931141D01*
X9527000Y8931141D01*
X9384143Y8883522D01*
X9288905Y8788283D01*
X9241286Y8693045D01*
X9193667Y8502569D01*
X9193667Y8359712D01*
X9241286Y8169236D01*
X9288905Y8073998D01*
X9384143Y7978760D01*
X9527000Y7931141D01*
X9765096Y7931141D01*
X10399905Y52825522D02*
X10495143Y52873141D01*
X10638000Y52873141D01*
X10780858Y52825522D01*
X10876096Y52730283D01*
X10923715Y52635045D01*
X10971334Y52444569D01*
X10971334Y52301712D01*
X10923715Y52111236D01*
X10876096Y52015998D01*
X10780858Y51920760D01*
X10638000Y51873141D01*
X10542762Y51873141D01*
X10399905Y51920760D01*
X10352286Y51968379D01*
X10352286Y52301712D01*
X10542762Y52301712D01*
X9923715Y51873141D02*
X9923715Y52873141D01*
X9352286Y51873141D01*
X9352286Y52873141D01*
X8876096Y51873141D02*
X8876096Y52873141D01*
X8638000Y52873141D01*
X8495143Y52825522D01*
X8399905Y52730283D01*
X8352286Y52635045D01*
X8304667Y52444569D01*
X8304667Y52301712D01*
X8352286Y52111236D01*
X8399905Y52015998D01*
X8495143Y51920760D01*
X8638000Y51873141D01*
X8876096Y51873141D01*
X10399905Y55159141D02*
X9828477Y55159141D01*
X10114191Y54159141D02*
X10114191Y55159141D01*
X9590381Y55159141D02*
X8923715Y54159141D01*
X8923715Y55159141D02*
X9590381Y54159141D01*
X9804667Y55683141D02*
X10138000Y56159331D01*
X10376096Y55683141D02*
X10376096Y56683141D01*
X9995143Y56683141D01*
X9899905Y56635522D01*
X9852286Y56587902D01*
X9804667Y56492664D01*
X9804667Y56349807D01*
X9852286Y56254569D01*
X9899905Y56206950D01*
X9995143Y56159331D01*
X10376096Y56159331D01*
X9471334Y56683141D02*
X8804667Y55683141D01*
X8804667Y56683141D02*
X9471334Y55683141D01*
X11177715Y58350093D02*
X10415810Y58350093D01*
X10796762Y57969141D02*
X10796762Y58731045D01*
X9463429Y58969141D02*
X9939620Y58969141D01*
X9987239Y58492950D01*
X9939620Y58540569D01*
X9844381Y58588188D01*
X9606286Y58588188D01*
X9511048Y58540569D01*
X9463429Y58492950D01*
X9415810Y58397712D01*
X9415810Y58159617D01*
X9463429Y58064379D01*
X9511048Y58016760D01*
X9606286Y57969141D01*
X9844381Y57969141D01*
X9939620Y58016760D01*
X9987239Y58064379D01*
X9130096Y58969141D02*
X8796762Y57969141D01*
X8463429Y58969141D01*
X31998000Y11177426D02*
X31950381Y11272664D01*
X31950381Y11415522D01*
X31998000Y11558379D01*
X32093239Y11653617D01*
X32188477Y11701236D01*
X32378953Y11748855D01*
X32521810Y11748855D01*
X32712286Y11701236D01*
X32807524Y11653617D01*
X32902762Y11558379D01*
X32950381Y11415522D01*
X32950381Y11320283D01*
X32902762Y11177426D01*
X32855143Y11129807D01*
X32521810Y11129807D01*
X32521810Y11320283D01*
X32950381Y10701236D02*
X31950381Y10701236D01*
X32950381Y10129807D01*
X31950381Y10129807D01*
X32950381Y9653617D02*
X31950381Y9653617D01*
X31950381Y9415522D01*
X31998000Y9272664D01*
X32093239Y9177426D01*
X32188477Y9129807D01*
X32378953Y9082188D01*
X32521810Y9082188D01*
X32712286Y9129807D01*
X32807524Y9177426D01*
X32902762Y9272664D01*
X32950381Y9415522D01*
X32950381Y9653617D01*
X50289134Y72477217D02*
X50289134Y72001026D01*
X50003420Y72572455D02*
X51003420Y72239122D01*
X50003420Y71905788D01*
X91544571Y21567760D02*
X91401714Y21520141D01*
X91163619Y21520141D01*
X91068380Y21567760D01*
X91020761Y21615379D01*
X90973142Y21710617D01*
X90973142Y21805855D01*
X91020761Y21901093D01*
X91068380Y21948712D01*
X91163619Y21996331D01*
X91354095Y22043950D01*
X91449333Y22091569D01*
X91496952Y22139188D01*
X91544571Y22234426D01*
X91544571Y22329664D01*
X91496952Y22424902D01*
X91449333Y22472522D01*
X91354095Y22520141D01*
X91115999Y22520141D01*
X90973142Y22472522D01*
X90687428Y22520141D02*
X90115999Y22520141D01*
X90401714Y21520141D02*
X90401714Y22520141D01*
X89782666Y22043950D02*
X89449333Y22043950D01*
X89306476Y21520141D02*
X89782666Y21520141D01*
X89782666Y22520141D01*
X89306476Y22520141D01*
X88877904Y21520141D02*
X88877904Y22520141D01*
X88496952Y22520141D01*
X88401714Y22472522D01*
X88354095Y22424902D01*
X88306476Y22329664D01*
X88306476Y22186807D01*
X88354095Y22091569D01*
X88401714Y22043950D01*
X88496952Y21996331D01*
X88877904Y21996331D01*
X87877904Y21520141D02*
X87877904Y22520141D01*
X87496952Y22520141D01*
X87401714Y22472522D01*
X87354095Y22424902D01*
X87306476Y22329664D01*
X87306476Y22186807D01*
X87354095Y22091569D01*
X87401714Y22043950D01*
X87496952Y21996331D01*
X87877904Y21996331D01*
X86877904Y22043950D02*
X86544572Y22043950D01*
X86401715Y21520141D02*
X86877904Y21520141D01*
X86877904Y22520141D01*
X86401715Y22520141D01*
X85401715Y21520141D02*
X85735048Y21996331D01*
X85973143Y21520141D02*
X85973143Y22520141D01*
X85592191Y22520141D01*
X85496953Y22472522D01*
X85449334Y22424902D01*
X85401715Y22329664D01*
X85401715Y22186807D01*
X85449334Y22091569D01*
X85496953Y22043950D01*
X85592191Y21996331D01*
X85973143Y21996331D01*
X84258858Y22424902D02*
X84211239Y22472522D01*
X84116000Y22520141D01*
X83877905Y22520141D01*
X83782667Y22472522D01*
X83735048Y22424902D01*
X83687429Y22329664D01*
X83687429Y22234426D01*
X83735048Y22091569D01*
X84306477Y21520141D01*
X83687429Y21520141D01*
X31924934Y67194017D02*
X31924934Y66717826D01*
X31639220Y67289255D02*
X32639220Y66955922D01*
X31639220Y66622588D01*
X84461677Y12141179D02*
X84509296Y12093560D01*
X84652153Y12045941D01*
X84747391Y12045941D01*
X84890248Y12093560D01*
X84985486Y12188798D01*
X85033105Y12284036D01*
X85080724Y12474512D01*
X85080724Y12617369D01*
X85033105Y12807845D01*
X84985486Y12903083D01*
X84890248Y12998322D01*
X84747391Y13045941D01*
X84652153Y13045941D01*
X84509296Y12998322D01*
X84461677Y12950702D01*
X85034696Y17310055D02*
X84558505Y17310055D01*
X85129934Y17024341D02*
X84796600Y18024341D01*
X84463267Y17024341D01*
X35174496Y95465855D02*
X34698305Y95465855D01*
X35269734Y95180141D02*
X34936400Y96180141D01*
X34603067Y95180141D01*
X85007705Y9582141D02*
X85007705Y10582141D01*
X84769610Y10582141D01*
X84626753Y10534522D01*
X84531515Y10439283D01*
X84483896Y10344045D01*
X84436277Y10153569D01*
X84436277Y10010712D01*
X84483896Y9820236D01*
X84531515Y9724998D01*
X84626753Y9629760D01*
X84769610Y9582141D01*
X85007705Y9582141D01*
X84725172Y15084350D02*
X84582315Y15036731D01*
X84534696Y14989112D01*
X84487077Y14893874D01*
X84487077Y14751017D01*
X84534696Y14655779D01*
X84582315Y14608160D01*
X84677553Y14560541D01*
X85058505Y14560541D01*
X85058505Y15560541D01*
X84725172Y15560541D01*
X84629934Y15512922D01*
X84582315Y15465302D01*
X84534696Y15370064D01*
X84534696Y15274826D01*
X84582315Y15179588D01*
X84629934Y15131969D01*
X84725172Y15084350D01*
X85058505Y15084350D01*
%TO.C,D8*%
X43846981Y96548417D02*
X42846981Y96548417D01*
X42846981Y96310322D01*
X42894600Y96167464D01*
X42989839Y96072226D01*
X43085077Y96024607D01*
X43275553Y95976988D01*
X43418410Y95976988D01*
X43608886Y96024607D01*
X43704124Y96072226D01*
X43799362Y96167464D01*
X43846981Y96310322D01*
X43846981Y96548417D01*
X43275553Y95405560D02*
X43227934Y95500798D01*
X43180315Y95548417D01*
X43085077Y95596036D01*
X43037458Y95596036D01*
X42942220Y95548417D01*
X42894600Y95500798D01*
X42846981Y95405560D01*
X42846981Y95215083D01*
X42894600Y95119845D01*
X42942220Y95072226D01*
X43037458Y95024607D01*
X43085077Y95024607D01*
X43180315Y95072226D01*
X43227934Y95119845D01*
X43275553Y95215083D01*
X43275553Y95405560D01*
X43323172Y95500798D01*
X43370791Y95548417D01*
X43466029Y95596036D01*
X43656505Y95596036D01*
X43751743Y95548417D01*
X43799362Y95500798D01*
X43846981Y95405560D01*
X43846981Y95215083D01*
X43799362Y95119845D01*
X43751743Y95072226D01*
X43656505Y95024607D01*
X43466029Y95024607D01*
X43370791Y95072226D01*
X43323172Y95119845D01*
X43275553Y95215083D01*
%TO.C,D7*%
X34448981Y69726017D02*
X33448981Y69726017D01*
X33448981Y69487922D01*
X33496600Y69345064D01*
X33591839Y69249826D01*
X33687077Y69202207D01*
X33877553Y69154588D01*
X34020410Y69154588D01*
X34210886Y69202207D01*
X34306124Y69249826D01*
X34401362Y69345064D01*
X34448981Y69487922D01*
X34448981Y69726017D01*
X33448981Y68821255D02*
X33448981Y68154588D01*
X34448981Y68583160D01*
%TO.C,R18*%
X78556058Y63557141D02*
X78889391Y64033331D01*
X79127486Y63557141D02*
X79127486Y64557141D01*
X78746534Y64557141D01*
X78651296Y64509522D01*
X78603677Y64461902D01*
X78556058Y64366664D01*
X78556058Y64223807D01*
X78603677Y64128569D01*
X78651296Y64080950D01*
X78746534Y64033331D01*
X79127486Y64033331D01*
X77603677Y63557141D02*
X78175105Y63557141D01*
X77889391Y63557141D02*
X77889391Y64557141D01*
X77984629Y64414283D01*
X78079867Y64319045D01*
X78175105Y64271426D01*
X77032248Y64128569D02*
X77127486Y64176188D01*
X77175105Y64223807D01*
X77222724Y64319045D01*
X77222724Y64366664D01*
X77175105Y64461902D01*
X77127486Y64509522D01*
X77032248Y64557141D01*
X76841772Y64557141D01*
X76746534Y64509522D01*
X76698915Y64461902D01*
X76651296Y64366664D01*
X76651296Y64319045D01*
X76698915Y64223807D01*
X76746534Y64176188D01*
X76841772Y64128569D01*
X77032248Y64128569D01*
X77127486Y64080950D01*
X77175105Y64033331D01*
X77222724Y63938093D01*
X77222724Y63747617D01*
X77175105Y63652379D01*
X77127486Y63604760D01*
X77032248Y63557141D01*
X76841772Y63557141D01*
X76746534Y63604760D01*
X76698915Y63652379D01*
X76651296Y63747617D01*
X76651296Y63938093D01*
X76698915Y64033331D01*
X76746534Y64080950D01*
X76841772Y64128569D01*
%TO.C,R20*%
X78251258Y73488541D02*
X78584591Y73964731D01*
X78822686Y73488541D02*
X78822686Y74488541D01*
X78441734Y74488541D01*
X78346496Y74440922D01*
X78298877Y74393302D01*
X78251258Y74298064D01*
X78251258Y74155207D01*
X78298877Y74059969D01*
X78346496Y74012350D01*
X78441734Y73964731D01*
X78822686Y73964731D01*
X77870305Y74393302D02*
X77822686Y74440922D01*
X77727448Y74488541D01*
X77489353Y74488541D01*
X77394115Y74440922D01*
X77346496Y74393302D01*
X77298877Y74298064D01*
X77298877Y74202826D01*
X77346496Y74059969D01*
X77917924Y73488541D01*
X77298877Y73488541D01*
X76679829Y74488541D02*
X76584591Y74488541D01*
X76489353Y74440922D01*
X76441734Y74393302D01*
X76394115Y74298064D01*
X76346496Y74107588D01*
X76346496Y73869493D01*
X76394115Y73679017D01*
X76441734Y73583779D01*
X76489353Y73536160D01*
X76584591Y73488541D01*
X76679829Y73488541D01*
X76775067Y73536160D01*
X76822686Y73583779D01*
X76870305Y73679017D01*
X76917924Y73869493D01*
X76917924Y74107588D01*
X76870305Y74298064D01*
X76822686Y74393302D01*
X76775067Y74440922D01*
X76679829Y74488541D01*
%TO.C,R34*%
X39236858Y63633341D02*
X39570191Y64109531D01*
X39808286Y63633341D02*
X39808286Y64633341D01*
X39427334Y64633341D01*
X39332096Y64585722D01*
X39284477Y64538102D01*
X39236858Y64442864D01*
X39236858Y64300007D01*
X39284477Y64204769D01*
X39332096Y64157150D01*
X39427334Y64109531D01*
X39808286Y64109531D01*
X38903524Y64633341D02*
X38284477Y64633341D01*
X38617810Y64252388D01*
X38474953Y64252388D01*
X38379715Y64204769D01*
X38332096Y64157150D01*
X38284477Y64061912D01*
X38284477Y63823817D01*
X38332096Y63728579D01*
X38379715Y63680960D01*
X38474953Y63633341D01*
X38760667Y63633341D01*
X38855905Y63680960D01*
X38903524Y63728579D01*
X37427334Y64300007D02*
X37427334Y63633341D01*
X37665429Y64680960D02*
X37903524Y63966674D01*
X37284477Y63966674D01*
%TO.C,R36*%
X39389258Y74047341D02*
X39722591Y74523531D01*
X39960686Y74047341D02*
X39960686Y75047341D01*
X39579734Y75047341D01*
X39484496Y74999722D01*
X39436877Y74952102D01*
X39389258Y74856864D01*
X39389258Y74714007D01*
X39436877Y74618769D01*
X39484496Y74571150D01*
X39579734Y74523531D01*
X39960686Y74523531D01*
X39055924Y75047341D02*
X38436877Y75047341D01*
X38770210Y74666388D01*
X38627353Y74666388D01*
X38532115Y74618769D01*
X38484496Y74571150D01*
X38436877Y74475912D01*
X38436877Y74237817D01*
X38484496Y74142579D01*
X38532115Y74094960D01*
X38627353Y74047341D01*
X38913067Y74047341D01*
X39008305Y74094960D01*
X39055924Y74142579D01*
X37579734Y75047341D02*
X37770210Y75047341D01*
X37865448Y74999722D01*
X37913067Y74952102D01*
X38008305Y74809245D01*
X38055924Y74618769D01*
X38055924Y74237817D01*
X38008305Y74142579D01*
X37960686Y74094960D01*
X37865448Y74047341D01*
X37674972Y74047341D01*
X37579734Y74094960D01*
X37532115Y74142579D01*
X37484496Y74237817D01*
X37484496Y74475912D01*
X37532115Y74571150D01*
X37579734Y74618769D01*
X37674972Y74666388D01*
X37865448Y74666388D01*
X37960686Y74618769D01*
X38008305Y74571150D01*
X38055924Y74475912D01*
%TO.C,R37*%
X20745658Y79000341D02*
X21078991Y79476531D01*
X21317086Y79000341D02*
X21317086Y80000341D01*
X20936134Y80000341D01*
X20840896Y79952722D01*
X20793277Y79905102D01*
X20745658Y79809864D01*
X20745658Y79667007D01*
X20793277Y79571769D01*
X20840896Y79524150D01*
X20936134Y79476531D01*
X21317086Y79476531D01*
X20412324Y80000341D02*
X19793277Y80000341D01*
X20126610Y79619388D01*
X19983753Y79619388D01*
X19888515Y79571769D01*
X19840896Y79524150D01*
X19793277Y79428912D01*
X19793277Y79190817D01*
X19840896Y79095579D01*
X19888515Y79047960D01*
X19983753Y79000341D01*
X20269467Y79000341D01*
X20364705Y79047960D01*
X20412324Y79095579D01*
X19459943Y80000341D02*
X18793277Y80000341D01*
X19221848Y79000341D01*
%TO.C,D9*%
X15119581Y74907617D02*
X14119581Y74907617D01*
X14119581Y74669522D01*
X14167200Y74526664D01*
X14262439Y74431426D01*
X14357677Y74383807D01*
X14548153Y74336188D01*
X14691010Y74336188D01*
X14881486Y74383807D01*
X14976724Y74431426D01*
X15071962Y74526664D01*
X15119581Y74669522D01*
X15119581Y74907617D01*
X15119581Y73859998D02*
X15119581Y73669522D01*
X15071962Y73574283D01*
X15024343Y73526664D01*
X14881486Y73431426D01*
X14691010Y73383807D01*
X14310058Y73383807D01*
X14214820Y73431426D01*
X14167200Y73479045D01*
X14119581Y73574283D01*
X14119581Y73764760D01*
X14167200Y73859998D01*
X14214820Y73907617D01*
X14310058Y73955236D01*
X14548153Y73955236D01*
X14643391Y73907617D01*
X14691010Y73859998D01*
X14738629Y73764760D01*
X14738629Y73574283D01*
X14691010Y73479045D01*
X14643391Y73431426D01*
X14548153Y73383807D01*
%TO.C,Q17*%
X27254420Y76341150D02*
X27206800Y76436388D01*
X27111562Y76531626D01*
X26968705Y76674483D01*
X26921086Y76769722D01*
X26921086Y76864960D01*
X27159181Y76817341D02*
X27111562Y76912579D01*
X27016324Y77007817D01*
X26825848Y77055436D01*
X26492515Y77055436D01*
X26302039Y77007817D01*
X26206800Y76912579D01*
X26159181Y76817341D01*
X26159181Y76626864D01*
X26206800Y76531626D01*
X26302039Y76436388D01*
X26492515Y76388769D01*
X26825848Y76388769D01*
X27016324Y76436388D01*
X27111562Y76531626D01*
X27159181Y76626864D01*
X27159181Y76817341D01*
X27159181Y75436388D02*
X27159181Y76007817D01*
X27159181Y75722102D02*
X26159181Y75722102D01*
X26302039Y75817341D01*
X26397277Y75912579D01*
X26444896Y76007817D01*
X26159181Y75103055D02*
X26159181Y74436388D01*
X27159181Y74864960D01*
%TO.C,Q18*%
X17486543Y76017426D02*
X17562734Y76055522D01*
X17638924Y76131712D01*
X17753210Y76245998D01*
X17829400Y76284093D01*
X17905591Y76284093D01*
X17867496Y76093617D02*
X17943686Y76131712D01*
X18019877Y76207902D01*
X18057972Y76360283D01*
X18057972Y76626950D01*
X18019877Y76779331D01*
X17943686Y76855522D01*
X17867496Y76893617D01*
X17715115Y76893617D01*
X17638924Y76855522D01*
X17562734Y76779331D01*
X17524639Y76626950D01*
X17524639Y76360283D01*
X17562734Y76207902D01*
X17638924Y76131712D01*
X17715115Y76093617D01*
X17867496Y76093617D01*
X16762734Y76093617D02*
X17219877Y76093617D01*
X16991305Y76093617D02*
X16991305Y76893617D01*
X17067496Y76779331D01*
X17143686Y76703141D01*
X17219877Y76665045D01*
X16305591Y76550760D02*
X16381781Y76588855D01*
X16419877Y76626950D01*
X16457972Y76703141D01*
X16457972Y76741236D01*
X16419877Y76817426D01*
X16381781Y76855522D01*
X16305591Y76893617D01*
X16153210Y76893617D01*
X16077020Y76855522D01*
X16038924Y76817426D01*
X16000829Y76741236D01*
X16000829Y76703141D01*
X16038924Y76626950D01*
X16077020Y76588855D01*
X16153210Y76550760D01*
X16305591Y76550760D01*
X16381781Y76512664D01*
X16419877Y76474569D01*
X16457972Y76398379D01*
X16457972Y76245998D01*
X16419877Y76169807D01*
X16381781Y76131712D01*
X16305591Y76093617D01*
X16153210Y76093617D01*
X16077020Y76131712D01*
X16038924Y76169807D01*
X16000829Y76245998D01*
X16000829Y76398379D01*
X16038924Y76474569D01*
X16077020Y76512664D01*
X16153210Y76550760D01*
%TO.C,C24*%
X23488858Y71805779D02*
X23536477Y71758160D01*
X23679334Y71710541D01*
X23774572Y71710541D01*
X23917429Y71758160D01*
X24012667Y71853398D01*
X24060286Y71948636D01*
X24107905Y72139112D01*
X24107905Y72281969D01*
X24060286Y72472445D01*
X24012667Y72567683D01*
X23917429Y72662922D01*
X23774572Y72710541D01*
X23679334Y72710541D01*
X23536477Y72662922D01*
X23488858Y72615302D01*
X23107905Y72615302D02*
X23060286Y72662922D01*
X22965048Y72710541D01*
X22726953Y72710541D01*
X22631715Y72662922D01*
X22584096Y72615302D01*
X22536477Y72520064D01*
X22536477Y72424826D01*
X22584096Y72281969D01*
X23155524Y71710541D01*
X22536477Y71710541D01*
X21679334Y72377207D02*
X21679334Y71710541D01*
X21917429Y72758160D02*
X22155524Y72043874D01*
X21536477Y72043874D01*
%TO.C,R35*%
X20796458Y68459341D02*
X21129791Y68935531D01*
X21367886Y68459341D02*
X21367886Y69459341D01*
X20986934Y69459341D01*
X20891696Y69411722D01*
X20844077Y69364102D01*
X20796458Y69268864D01*
X20796458Y69126007D01*
X20844077Y69030769D01*
X20891696Y68983150D01*
X20986934Y68935531D01*
X21367886Y68935531D01*
X20463124Y69459341D02*
X19844077Y69459341D01*
X20177410Y69078388D01*
X20034553Y69078388D01*
X19939315Y69030769D01*
X19891696Y68983150D01*
X19844077Y68887912D01*
X19844077Y68649817D01*
X19891696Y68554579D01*
X19939315Y68506960D01*
X20034553Y68459341D01*
X20320267Y68459341D01*
X20415505Y68506960D01*
X20463124Y68554579D01*
X18939315Y69459341D02*
X19415505Y69459341D01*
X19463124Y68983150D01*
X19415505Y69030769D01*
X19320267Y69078388D01*
X19082172Y69078388D01*
X18986934Y69030769D01*
X18939315Y68983150D01*
X18891696Y68887912D01*
X18891696Y68649817D01*
X18939315Y68554579D01*
X18986934Y68506960D01*
X19082172Y68459341D01*
X19320267Y68459341D01*
X19415505Y68506960D01*
X19463124Y68554579D01*
%TO.C,C23*%
X36360343Y68208379D02*
X36407962Y68255998D01*
X36455581Y68398855D01*
X36455581Y68494093D01*
X36407962Y68636950D01*
X36312724Y68732188D01*
X36217486Y68779807D01*
X36027010Y68827426D01*
X35884153Y68827426D01*
X35693677Y68779807D01*
X35598439Y68732188D01*
X35503200Y68636950D01*
X35455581Y68494093D01*
X35455581Y68398855D01*
X35503200Y68255998D01*
X35550820Y68208379D01*
X35550820Y67827426D02*
X35503200Y67779807D01*
X35455581Y67684569D01*
X35455581Y67446474D01*
X35503200Y67351236D01*
X35550820Y67303617D01*
X35646058Y67255998D01*
X35741296Y67255998D01*
X35884153Y67303617D01*
X36455581Y67875045D01*
X36455581Y67255998D01*
X35455581Y66922664D02*
X35455581Y66303617D01*
X35836534Y66636950D01*
X35836534Y66494093D01*
X35884153Y66398855D01*
X35931772Y66351236D01*
X36027010Y66303617D01*
X36265105Y66303617D01*
X36360343Y66351236D01*
X36407962Y66398855D01*
X36455581Y66494093D01*
X36455581Y66779807D01*
X36407962Y66875045D01*
X36360343Y66922664D01*
%TO.C,R21*%
X59099658Y78619341D02*
X59432991Y79095531D01*
X59671086Y78619341D02*
X59671086Y79619341D01*
X59290134Y79619341D01*
X59194896Y79571722D01*
X59147277Y79524102D01*
X59099658Y79428864D01*
X59099658Y79286007D01*
X59147277Y79190769D01*
X59194896Y79143150D01*
X59290134Y79095531D01*
X59671086Y79095531D01*
X58718705Y79524102D02*
X58671086Y79571722D01*
X58575848Y79619341D01*
X58337753Y79619341D01*
X58242515Y79571722D01*
X58194896Y79524102D01*
X58147277Y79428864D01*
X58147277Y79333626D01*
X58194896Y79190769D01*
X58766324Y78619341D01*
X58147277Y78619341D01*
X57194896Y78619341D02*
X57766324Y78619341D01*
X57480610Y78619341D02*
X57480610Y79619341D01*
X57575848Y79476483D01*
X57671086Y79381245D01*
X57766324Y79333626D01*
%TO.C,R19*%
X59099658Y68129141D02*
X59432991Y68605331D01*
X59671086Y68129141D02*
X59671086Y69129141D01*
X59290134Y69129141D01*
X59194896Y69081522D01*
X59147277Y69033902D01*
X59099658Y68938664D01*
X59099658Y68795807D01*
X59147277Y68700569D01*
X59194896Y68652950D01*
X59290134Y68605331D01*
X59671086Y68605331D01*
X58147277Y68129141D02*
X58718705Y68129141D01*
X58432991Y68129141D02*
X58432991Y69129141D01*
X58528229Y68986283D01*
X58623467Y68891045D01*
X58718705Y68843426D01*
X57671086Y68129141D02*
X57480610Y68129141D01*
X57385372Y68176760D01*
X57337753Y68224379D01*
X57242515Y68367236D01*
X57194896Y68557712D01*
X57194896Y68938664D01*
X57242515Y69033902D01*
X57290134Y69081522D01*
X57385372Y69129141D01*
X57575848Y69129141D01*
X57671086Y69081522D01*
X57718705Y69033902D01*
X57766324Y68938664D01*
X57766324Y68700569D01*
X57718705Y68605331D01*
X57671086Y68557712D01*
X57575848Y68510093D01*
X57385372Y68510093D01*
X57290134Y68557712D01*
X57242515Y68605331D01*
X57194896Y68700569D01*
%TO.C,R17*%
X53016381Y64703179D02*
X52540191Y65036512D01*
X53016381Y65274607D02*
X52016381Y65274607D01*
X52016381Y64893655D01*
X52064000Y64798417D01*
X52111620Y64750798D01*
X52206858Y64703179D01*
X52349715Y64703179D01*
X52444953Y64750798D01*
X52492572Y64798417D01*
X52540191Y64893655D01*
X52540191Y65274607D01*
X53016381Y63750798D02*
X53016381Y64322226D01*
X53016381Y64036512D02*
X52016381Y64036512D01*
X52159239Y64131750D01*
X52254477Y64226988D01*
X52302096Y64322226D01*
X52016381Y63417464D02*
X52016381Y62750798D01*
X53016381Y63179369D01*
%TO.C,R13*%
X66376781Y66608179D02*
X65900591Y66941512D01*
X66376781Y67179607D02*
X65376781Y67179607D01*
X65376781Y66798655D01*
X65424400Y66703417D01*
X65472020Y66655798D01*
X65567258Y66608179D01*
X65710115Y66608179D01*
X65805353Y66655798D01*
X65852972Y66703417D01*
X65900591Y66798655D01*
X65900591Y67179607D01*
X66376781Y65655798D02*
X66376781Y66227226D01*
X66376781Y65941512D02*
X65376781Y65941512D01*
X65519639Y66036750D01*
X65614877Y66131988D01*
X65662496Y66227226D01*
X65376781Y65322464D02*
X65376781Y64703417D01*
X65757734Y65036750D01*
X65757734Y64893893D01*
X65805353Y64798655D01*
X65852972Y64751036D01*
X65948210Y64703417D01*
X66186305Y64703417D01*
X66281543Y64751036D01*
X66329162Y64798655D01*
X66376781Y64893893D01*
X66376781Y65179607D01*
X66329162Y65274845D01*
X66281543Y65322464D01*
%TO.C,R10*%
X58121781Y58149979D02*
X57645591Y58483312D01*
X58121781Y58721407D02*
X57121781Y58721407D01*
X57121781Y58340455D01*
X57169400Y58245217D01*
X57217020Y58197598D01*
X57312258Y58149979D01*
X57455115Y58149979D01*
X57550353Y58197598D01*
X57597972Y58245217D01*
X57645591Y58340455D01*
X57645591Y58721407D01*
X58121781Y57197598D02*
X58121781Y57769026D01*
X58121781Y57483312D02*
X57121781Y57483312D01*
X57264639Y57578550D01*
X57359877Y57673788D01*
X57407496Y57769026D01*
X57121781Y56578550D02*
X57121781Y56483312D01*
X57169400Y56388074D01*
X57217020Y56340455D01*
X57312258Y56292836D01*
X57502734Y56245217D01*
X57740829Y56245217D01*
X57931305Y56292836D01*
X58026543Y56340455D01*
X58074162Y56388074D01*
X58121781Y56483312D01*
X58121781Y56578550D01*
X58074162Y56673788D01*
X58026543Y56721407D01*
X57931305Y56769026D01*
X57740829Y56816645D01*
X57502734Y56816645D01*
X57312258Y56769026D01*
X57217020Y56721407D01*
X57169400Y56673788D01*
X57121781Y56578550D01*
%TO.C,R8*%
X62796381Y56048188D02*
X62320191Y56381522D01*
X62796381Y56619617D02*
X61796381Y56619617D01*
X61796381Y56238664D01*
X61844000Y56143426D01*
X61891620Y56095807D01*
X61986858Y56048188D01*
X62129715Y56048188D01*
X62224953Y56095807D01*
X62272572Y56143426D01*
X62320191Y56238664D01*
X62320191Y56619617D01*
X62224953Y55476760D02*
X62177334Y55571998D01*
X62129715Y55619617D01*
X62034477Y55667236D01*
X61986858Y55667236D01*
X61891620Y55619617D01*
X61844000Y55571998D01*
X61796381Y55476760D01*
X61796381Y55286283D01*
X61844000Y55191045D01*
X61891620Y55143426D01*
X61986858Y55095807D01*
X62034477Y55095807D01*
X62129715Y55143426D01*
X62177334Y55191045D01*
X62224953Y55286283D01*
X62224953Y55476760D01*
X62272572Y55571998D01*
X62320191Y55619617D01*
X62415429Y55667236D01*
X62605905Y55667236D01*
X62701143Y55619617D01*
X62748762Y55571998D01*
X62796381Y55476760D01*
X62796381Y55286283D01*
X62748762Y55191045D01*
X62701143Y55143426D01*
X62605905Y55095807D01*
X62415429Y55095807D01*
X62320191Y55143426D01*
X62272572Y55191045D01*
X62224953Y55286283D01*
%TO.C,Q8*%
X55250039Y75679302D02*
X55345277Y75726922D01*
X55440515Y75822160D01*
X55583372Y75965017D01*
X55678610Y76012636D01*
X55773848Y76012636D01*
X55726229Y75774541D02*
X55821467Y75822160D01*
X55916705Y75917398D01*
X55964324Y76107874D01*
X55964324Y76441207D01*
X55916705Y76631683D01*
X55821467Y76726922D01*
X55726229Y76774541D01*
X55535753Y76774541D01*
X55440515Y76726922D01*
X55345277Y76631683D01*
X55297658Y76441207D01*
X55297658Y76107874D01*
X55345277Y75917398D01*
X55440515Y75822160D01*
X55535753Y75774541D01*
X55726229Y75774541D01*
X54726229Y76345969D02*
X54821467Y76393588D01*
X54869086Y76441207D01*
X54916705Y76536445D01*
X54916705Y76584064D01*
X54869086Y76679302D01*
X54821467Y76726922D01*
X54726229Y76774541D01*
X54535753Y76774541D01*
X54440515Y76726922D01*
X54392896Y76679302D01*
X54345277Y76584064D01*
X54345277Y76536445D01*
X54392896Y76441207D01*
X54440515Y76393588D01*
X54535753Y76345969D01*
X54726229Y76345969D01*
X54821467Y76298350D01*
X54869086Y76250731D01*
X54916705Y76155493D01*
X54916705Y75965017D01*
X54869086Y75869779D01*
X54821467Y75822160D01*
X54726229Y75774541D01*
X54535753Y75774541D01*
X54440515Y75822160D01*
X54392896Y75869779D01*
X54345277Y75965017D01*
X54345277Y76155493D01*
X54392896Y76250731D01*
X54440515Y76298350D01*
X54535753Y76345969D01*
%TO.C,Q4*%
X56469239Y60667902D02*
X56564477Y60715522D01*
X56659715Y60810760D01*
X56802572Y60953617D01*
X56897810Y61001236D01*
X56993048Y61001236D01*
X56945429Y60763141D02*
X57040667Y60810760D01*
X57135905Y60905998D01*
X57183524Y61096474D01*
X57183524Y61429807D01*
X57135905Y61620283D01*
X57040667Y61715522D01*
X56945429Y61763141D01*
X56754953Y61763141D01*
X56659715Y61715522D01*
X56564477Y61620283D01*
X56516858Y61429807D01*
X56516858Y61096474D01*
X56564477Y60905998D01*
X56659715Y60810760D01*
X56754953Y60763141D01*
X56945429Y60763141D01*
X55659715Y61429807D02*
X55659715Y60763141D01*
X55897810Y61810760D02*
X56135905Y61096474D01*
X55516858Y61096474D01*
%TO.C,C22*%
X61487258Y71424779D02*
X61534877Y71377160D01*
X61677734Y71329541D01*
X61772972Y71329541D01*
X61915829Y71377160D01*
X62011067Y71472398D01*
X62058686Y71567636D01*
X62106305Y71758112D01*
X62106305Y71900969D01*
X62058686Y72091445D01*
X62011067Y72186683D01*
X61915829Y72281922D01*
X61772972Y72329541D01*
X61677734Y72329541D01*
X61534877Y72281922D01*
X61487258Y72234302D01*
X61106305Y72234302D02*
X61058686Y72281922D01*
X60963448Y72329541D01*
X60725353Y72329541D01*
X60630115Y72281922D01*
X60582496Y72234302D01*
X60534877Y72139064D01*
X60534877Y72043826D01*
X60582496Y71900969D01*
X61153924Y71329541D01*
X60534877Y71329541D01*
X60153924Y72234302D02*
X60106305Y72281922D01*
X60011067Y72329541D01*
X59772972Y72329541D01*
X59677734Y72281922D01*
X59630115Y72234302D01*
X59582496Y72139064D01*
X59582496Y72043826D01*
X59630115Y71900969D01*
X60201543Y71329541D01*
X59582496Y71329541D01*
%TO.C,D4*%
X52914781Y74653617D02*
X51914781Y74653617D01*
X51914781Y74415522D01*
X51962400Y74272664D01*
X52057639Y74177426D01*
X52152877Y74129807D01*
X52343353Y74082188D01*
X52486210Y74082188D01*
X52676686Y74129807D01*
X52771924Y74177426D01*
X52867162Y74272664D01*
X52914781Y74415522D01*
X52914781Y74653617D01*
X52248115Y73225045D02*
X52914781Y73225045D01*
X51867162Y73463141D02*
X52581448Y73701236D01*
X52581448Y73082188D01*
%TO.C,C9*%
X18516867Y3530579D02*
X18564486Y3482960D01*
X18707343Y3435341D01*
X18802581Y3435341D01*
X18945439Y3482960D01*
X19040677Y3578198D01*
X19088296Y3673436D01*
X19135915Y3863912D01*
X19135915Y4006769D01*
X19088296Y4197245D01*
X19040677Y4292483D01*
X18945439Y4387722D01*
X18802581Y4435341D01*
X18707343Y4435341D01*
X18564486Y4387722D01*
X18516867Y4340102D01*
X18040677Y3435341D02*
X17850200Y3435341D01*
X17754962Y3482960D01*
X17707343Y3530579D01*
X17612105Y3673436D01*
X17564486Y3863912D01*
X17564486Y4244864D01*
X17612105Y4340102D01*
X17659724Y4387722D01*
X17754962Y4435341D01*
X17945439Y4435341D01*
X18040677Y4387722D01*
X18088296Y4340102D01*
X18135915Y4244864D01*
X18135915Y4006769D01*
X18088296Y3911531D01*
X18040677Y3863912D01*
X17945439Y3816293D01*
X17754962Y3816293D01*
X17659724Y3863912D01*
X17612105Y3911531D01*
X17564486Y4006769D01*
%TO.C,C10*%
X14567143Y11566379D02*
X14614762Y11613998D01*
X14662381Y11756855D01*
X14662381Y11852093D01*
X14614762Y11994950D01*
X14519524Y12090188D01*
X14424286Y12137807D01*
X14233810Y12185426D01*
X14090953Y12185426D01*
X13900477Y12137807D01*
X13805239Y12090188D01*
X13710000Y11994950D01*
X13662381Y11852093D01*
X13662381Y11756855D01*
X13710000Y11613998D01*
X13757620Y11566379D01*
X14662381Y10613998D02*
X14662381Y11185426D01*
X14662381Y10899712D02*
X13662381Y10899712D01*
X13805239Y10994950D01*
X13900477Y11090188D01*
X13948096Y11185426D01*
X13662381Y9994950D02*
X13662381Y9899712D01*
X13710000Y9804474D01*
X13757620Y9756855D01*
X13852858Y9709236D01*
X14043334Y9661617D01*
X14281429Y9661617D01*
X14471905Y9709236D01*
X14567143Y9756855D01*
X14614762Y9804474D01*
X14662381Y9899712D01*
X14662381Y9994950D01*
X14614762Y10090188D01*
X14567143Y10137807D01*
X14471905Y10185426D01*
X14281429Y10233045D01*
X14043334Y10233045D01*
X13852858Y10185426D01*
X13757620Y10137807D01*
X13710000Y10090188D01*
X13662381Y9994950D01*
%TO.C,C14*%
X22701458Y17424379D02*
X22749077Y17376760D01*
X22891934Y17329141D01*
X22987172Y17329141D01*
X23130029Y17376760D01*
X23225267Y17471998D01*
X23272886Y17567236D01*
X23320505Y17757712D01*
X23320505Y17900569D01*
X23272886Y18091045D01*
X23225267Y18186283D01*
X23130029Y18281522D01*
X22987172Y18329141D01*
X22891934Y18329141D01*
X22749077Y18281522D01*
X22701458Y18233902D01*
X21749077Y17329141D02*
X22320505Y17329141D01*
X22034791Y17329141D02*
X22034791Y18329141D01*
X22130029Y18186283D01*
X22225267Y18091045D01*
X22320505Y18043426D01*
X20891934Y17995807D02*
X20891934Y17329141D01*
X21130029Y18376760D02*
X21368124Y17662474D01*
X20749077Y17662474D01*
%TO.C,C15*%
X17799258Y18072579D02*
X17846877Y18024960D01*
X17989734Y17977341D01*
X18084972Y17977341D01*
X18227829Y18024960D01*
X18323067Y18120198D01*
X18370686Y18215436D01*
X18418305Y18405912D01*
X18418305Y18548769D01*
X18370686Y18739245D01*
X18323067Y18834483D01*
X18227829Y18929722D01*
X18084972Y18977341D01*
X17989734Y18977341D01*
X17846877Y18929722D01*
X17799258Y18882102D01*
X16846877Y17977341D02*
X17418305Y17977341D01*
X17132591Y17977341D02*
X17132591Y18977341D01*
X17227829Y18834483D01*
X17323067Y18739245D01*
X17418305Y18691626D01*
X15942115Y18977341D02*
X16418305Y18977341D01*
X16465924Y18501150D01*
X16418305Y18548769D01*
X16323067Y18596388D01*
X16084972Y18596388D01*
X15989734Y18548769D01*
X15942115Y18501150D01*
X15894496Y18405912D01*
X15894496Y18167817D01*
X15942115Y18072579D01*
X15989734Y18024960D01*
X16084972Y17977341D01*
X16323067Y17977341D01*
X16418305Y18024960D01*
X16465924Y18072579D01*
%TO.C,C21*%
X80130858Y66954379D02*
X80178477Y66906760D01*
X80321334Y66859141D01*
X80416572Y66859141D01*
X80559429Y66906760D01*
X80654667Y67001998D01*
X80702286Y67097236D01*
X80749905Y67287712D01*
X80749905Y67430569D01*
X80702286Y67621045D01*
X80654667Y67716283D01*
X80559429Y67811522D01*
X80416572Y67859141D01*
X80321334Y67859141D01*
X80178477Y67811522D01*
X80130858Y67763902D01*
X79749905Y67763902D02*
X79702286Y67811522D01*
X79607048Y67859141D01*
X79368953Y67859141D01*
X79273715Y67811522D01*
X79226096Y67763902D01*
X79178477Y67668664D01*
X79178477Y67573426D01*
X79226096Y67430569D01*
X79797524Y66859141D01*
X79178477Y66859141D01*
X78226096Y66859141D02*
X78797524Y66859141D01*
X78511810Y66859141D02*
X78511810Y67859141D01*
X78607048Y67716283D01*
X78702286Y67621045D01*
X78797524Y67573426D01*
%TO.C,D3*%
X72294981Y69853017D02*
X71294981Y69853017D01*
X71294981Y69614922D01*
X71342600Y69472064D01*
X71437839Y69376826D01*
X71533077Y69329207D01*
X71723553Y69281588D01*
X71866410Y69281588D01*
X72056886Y69329207D01*
X72152124Y69376826D01*
X72247362Y69472064D01*
X72294981Y69614922D01*
X72294981Y69853017D01*
X71294981Y68948255D02*
X71294981Y68329207D01*
X71675934Y68662541D01*
X71675934Y68519683D01*
X71723553Y68424445D01*
X71771172Y68376826D01*
X71866410Y68329207D01*
X72104505Y68329207D01*
X72199743Y68376826D01*
X72247362Y68424445D01*
X72294981Y68519683D01*
X72294981Y68805398D01*
X72247362Y68900636D01*
X72199743Y68948255D01*
%TO.C,D5*%
X81667581Y97335817D02*
X80667581Y97335817D01*
X80667581Y97097722D01*
X80715200Y96954864D01*
X80810439Y96859626D01*
X80905677Y96812007D01*
X81096153Y96764388D01*
X81239010Y96764388D01*
X81429486Y96812007D01*
X81524724Y96859626D01*
X81619962Y96954864D01*
X81667581Y97097722D01*
X81667581Y97335817D01*
X80667581Y95859626D02*
X80667581Y96335817D01*
X81143772Y96383436D01*
X81096153Y96335817D01*
X81048534Y96240579D01*
X81048534Y96002483D01*
X81096153Y95907245D01*
X81143772Y95859626D01*
X81239010Y95812007D01*
X81477105Y95812007D01*
X81572343Y95859626D01*
X81619962Y95907245D01*
X81667581Y96002483D01*
X81667581Y96240579D01*
X81619962Y96335817D01*
X81572343Y96383436D01*
%TO.C,D6*%
X62490581Y96751617D02*
X61490581Y96751617D01*
X61490581Y96513522D01*
X61538200Y96370664D01*
X61633439Y96275426D01*
X61728677Y96227807D01*
X61919153Y96180188D01*
X62062010Y96180188D01*
X62252486Y96227807D01*
X62347724Y96275426D01*
X62442962Y96370664D01*
X62490581Y96513522D01*
X62490581Y96751617D01*
X61490581Y95323045D02*
X61490581Y95513522D01*
X61538200Y95608760D01*
X61585820Y95656379D01*
X61728677Y95751617D01*
X61919153Y95799236D01*
X62300105Y95799236D01*
X62395343Y95751617D01*
X62442962Y95703998D01*
X62490581Y95608760D01*
X62490581Y95418283D01*
X62442962Y95323045D01*
X62395343Y95275426D01*
X62300105Y95227807D01*
X62062010Y95227807D01*
X61966772Y95275426D01*
X61919153Y95323045D01*
X61871534Y95418283D01*
X61871534Y95608760D01*
X61919153Y95703998D01*
X61966772Y95751617D01*
X62062010Y95799236D01*
%TO.C,D10*%
X25584381Y96618207D02*
X24584381Y96618207D01*
X24584381Y96380112D01*
X24632000Y96237255D01*
X24727239Y96142017D01*
X24822477Y96094398D01*
X25012953Y96046779D01*
X25155810Y96046779D01*
X25346286Y96094398D01*
X25441524Y96142017D01*
X25536762Y96237255D01*
X25584381Y96380112D01*
X25584381Y96618207D01*
X25584381Y95094398D02*
X25584381Y95665826D01*
X25584381Y95380112D02*
X24584381Y95380112D01*
X24727239Y95475350D01*
X24822477Y95570588D01*
X24870096Y95665826D01*
X24584381Y94475350D02*
X24584381Y94380112D01*
X24632000Y94284874D01*
X24679620Y94237255D01*
X24774858Y94189636D01*
X24965334Y94142017D01*
X25203429Y94142017D01*
X25393905Y94189636D01*
X25489143Y94237255D01*
X25536762Y94284874D01*
X25584381Y94380112D01*
X25584381Y94475350D01*
X25536762Y94570588D01*
X25489143Y94618207D01*
X25393905Y94665826D01*
X25203429Y94713445D01*
X24965334Y94713445D01*
X24774858Y94665826D01*
X24679620Y94618207D01*
X24632000Y94570588D01*
X24584381Y94475350D01*
%TO.C,Q1*%
X85014020Y57145160D02*
X84966400Y57240398D01*
X84871162Y57335636D01*
X84728305Y57478493D01*
X84680686Y57573731D01*
X84680686Y57668969D01*
X84918781Y57621350D02*
X84871162Y57716588D01*
X84775924Y57811826D01*
X84585448Y57859445D01*
X84252115Y57859445D01*
X84061639Y57811826D01*
X83966400Y57716588D01*
X83918781Y57621350D01*
X83918781Y57430874D01*
X83966400Y57335636D01*
X84061639Y57240398D01*
X84252115Y57192779D01*
X84585448Y57192779D01*
X84775924Y57240398D01*
X84871162Y57335636D01*
X84918781Y57430874D01*
X84918781Y57621350D01*
X84918781Y56240398D02*
X84918781Y56811826D01*
X84918781Y56526112D02*
X83918781Y56526112D01*
X84061639Y56621350D01*
X84156877Y56716588D01*
X84204496Y56811826D01*
%TO.C,Q2*%
X66319620Y61793360D02*
X66272000Y61888598D01*
X66176762Y61983836D01*
X66033905Y62126693D01*
X65986286Y62221931D01*
X65986286Y62317169D01*
X66224381Y62269550D02*
X66176762Y62364788D01*
X66081524Y62460026D01*
X65891048Y62507645D01*
X65557715Y62507645D01*
X65367239Y62460026D01*
X65272000Y62364788D01*
X65224381Y62269550D01*
X65224381Y62079074D01*
X65272000Y61983836D01*
X65367239Y61888598D01*
X65557715Y61840979D01*
X65891048Y61840979D01*
X66081524Y61888598D01*
X66176762Y61983836D01*
X66224381Y62079074D01*
X66224381Y62269550D01*
X65319620Y61460026D02*
X65272000Y61412407D01*
X65224381Y61317169D01*
X65224381Y61079074D01*
X65272000Y60983836D01*
X65319620Y60936217D01*
X65414858Y60888598D01*
X65510096Y60888598D01*
X65652953Y60936217D01*
X66224381Y61507645D01*
X66224381Y60888598D01*
%TO.C,Q3*%
X75036639Y56070502D02*
X75131877Y56118122D01*
X75227115Y56213360D01*
X75369972Y56356217D01*
X75465210Y56403836D01*
X75560448Y56403836D01*
X75512829Y56165741D02*
X75608067Y56213360D01*
X75703305Y56308598D01*
X75750924Y56499074D01*
X75750924Y56832407D01*
X75703305Y57022883D01*
X75608067Y57118122D01*
X75512829Y57165741D01*
X75322353Y57165741D01*
X75227115Y57118122D01*
X75131877Y57022883D01*
X75084258Y56832407D01*
X75084258Y56499074D01*
X75131877Y56308598D01*
X75227115Y56213360D01*
X75322353Y56165741D01*
X75512829Y56165741D01*
X74750924Y57165741D02*
X74131877Y57165741D01*
X74465210Y56784788D01*
X74322353Y56784788D01*
X74227115Y56737169D01*
X74179496Y56689550D01*
X74131877Y56594312D01*
X74131877Y56356217D01*
X74179496Y56260979D01*
X74227115Y56213360D01*
X74322353Y56165741D01*
X74608067Y56165741D01*
X74703305Y56213360D01*
X74750924Y56260979D01*
%TO.C,Q5*%
X84404420Y70327760D02*
X84356800Y70422998D01*
X84261562Y70518236D01*
X84118705Y70661093D01*
X84071086Y70756331D01*
X84071086Y70851569D01*
X84309181Y70803950D02*
X84261562Y70899188D01*
X84166324Y70994426D01*
X83975848Y71042045D01*
X83642515Y71042045D01*
X83452039Y70994426D01*
X83356800Y70899188D01*
X83309181Y70803950D01*
X83309181Y70613474D01*
X83356800Y70518236D01*
X83452039Y70422998D01*
X83642515Y70375379D01*
X83975848Y70375379D01*
X84166324Y70422998D01*
X84261562Y70518236D01*
X84309181Y70613474D01*
X84309181Y70803950D01*
X83309181Y69470617D02*
X83309181Y69946807D01*
X83785372Y69994426D01*
X83737753Y69946807D01*
X83690134Y69851569D01*
X83690134Y69613474D01*
X83737753Y69518236D01*
X83785372Y69470617D01*
X83880610Y69422998D01*
X84118705Y69422998D01*
X84213943Y69470617D01*
X84261562Y69518236D01*
X84309181Y69613474D01*
X84309181Y69851569D01*
X84261562Y69946807D01*
X84213943Y69994426D01*
%TO.C,Q6*%
X74122239Y70599302D02*
X74217477Y70646922D01*
X74312715Y70742160D01*
X74455572Y70885017D01*
X74550810Y70932636D01*
X74646048Y70932636D01*
X74598429Y70694541D02*
X74693667Y70742160D01*
X74788905Y70837398D01*
X74836524Y71027874D01*
X74836524Y71361207D01*
X74788905Y71551683D01*
X74693667Y71646922D01*
X74598429Y71694541D01*
X74407953Y71694541D01*
X74312715Y71646922D01*
X74217477Y71551683D01*
X74169858Y71361207D01*
X74169858Y71027874D01*
X74217477Y70837398D01*
X74312715Y70742160D01*
X74407953Y70694541D01*
X74598429Y70694541D01*
X73312715Y71694541D02*
X73503191Y71694541D01*
X73598429Y71646922D01*
X73646048Y71599302D01*
X73741286Y71456445D01*
X73788905Y71265969D01*
X73788905Y70885017D01*
X73741286Y70789779D01*
X73693667Y70742160D01*
X73598429Y70694541D01*
X73407953Y70694541D01*
X73312715Y70742160D01*
X73265096Y70789779D01*
X73217477Y70885017D01*
X73217477Y71123112D01*
X73265096Y71218350D01*
X73312715Y71265969D01*
X73407953Y71313588D01*
X73598429Y71313588D01*
X73693667Y71265969D01*
X73741286Y71218350D01*
X73788905Y71123112D01*
%TO.C,Q7*%
X65710020Y75788760D02*
X65662400Y75883998D01*
X65567162Y75979236D01*
X65424305Y76122093D01*
X65376686Y76217331D01*
X65376686Y76312569D01*
X65614781Y76264950D02*
X65567162Y76360188D01*
X65471924Y76455426D01*
X65281448Y76503045D01*
X64948115Y76503045D01*
X64757639Y76455426D01*
X64662400Y76360188D01*
X64614781Y76264950D01*
X64614781Y76074474D01*
X64662400Y75979236D01*
X64757639Y75883998D01*
X64948115Y75836379D01*
X65281448Y75836379D01*
X65471924Y75883998D01*
X65567162Y75979236D01*
X65614781Y76074474D01*
X65614781Y76264950D01*
X64614781Y75503045D02*
X64614781Y74836379D01*
X65614781Y75264950D01*
%TO.C,Q11*%
X47472820Y57240350D02*
X47425200Y57335588D01*
X47329962Y57430826D01*
X47187105Y57573683D01*
X47139486Y57668922D01*
X47139486Y57764160D01*
X47377581Y57716541D02*
X47329962Y57811779D01*
X47234724Y57907017D01*
X47044248Y57954636D01*
X46710915Y57954636D01*
X46520439Y57907017D01*
X46425200Y57811779D01*
X46377581Y57716541D01*
X46377581Y57526064D01*
X46425200Y57430826D01*
X46520439Y57335588D01*
X46710915Y57287969D01*
X47044248Y57287969D01*
X47234724Y57335588D01*
X47329962Y57430826D01*
X47377581Y57526064D01*
X47377581Y57716541D01*
X47377581Y56335588D02*
X47377581Y56907017D01*
X47377581Y56621302D02*
X46377581Y56621302D01*
X46520439Y56716541D01*
X46615677Y56811779D01*
X46663296Y56907017D01*
X47377581Y55383207D02*
X47377581Y55954636D01*
X47377581Y55668922D02*
X46377581Y55668922D01*
X46520439Y55764160D01*
X46615677Y55859398D01*
X46663296Y55954636D01*
%TO.C,Q12*%
X28218029Y61150502D02*
X28313267Y61198122D01*
X28408505Y61293360D01*
X28551362Y61436217D01*
X28646600Y61483836D01*
X28741839Y61483836D01*
X28694220Y61245741D02*
X28789458Y61293360D01*
X28884696Y61388598D01*
X28932315Y61579074D01*
X28932315Y61912407D01*
X28884696Y62102883D01*
X28789458Y62198122D01*
X28694220Y62245741D01*
X28503743Y62245741D01*
X28408505Y62198122D01*
X28313267Y62102883D01*
X28265648Y61912407D01*
X28265648Y61579074D01*
X28313267Y61388598D01*
X28408505Y61293360D01*
X28503743Y61245741D01*
X28694220Y61245741D01*
X27313267Y61245741D02*
X27884696Y61245741D01*
X27598981Y61245741D02*
X27598981Y62245741D01*
X27694220Y62102883D01*
X27789458Y62007645D01*
X27884696Y61960026D01*
X26932315Y62150502D02*
X26884696Y62198122D01*
X26789458Y62245741D01*
X26551362Y62245741D01*
X26456124Y62198122D01*
X26408505Y62150502D01*
X26360886Y62055264D01*
X26360886Y61960026D01*
X26408505Y61817169D01*
X26979934Y61245741D01*
X26360886Y61245741D01*
%TO.C,Q13*%
X39140029Y56146702D02*
X39235267Y56194322D01*
X39330505Y56289560D01*
X39473362Y56432417D01*
X39568600Y56480036D01*
X39663839Y56480036D01*
X39616220Y56241941D02*
X39711458Y56289560D01*
X39806696Y56384798D01*
X39854315Y56575274D01*
X39854315Y56908607D01*
X39806696Y57099083D01*
X39711458Y57194322D01*
X39616220Y57241941D01*
X39425743Y57241941D01*
X39330505Y57194322D01*
X39235267Y57099083D01*
X39187648Y56908607D01*
X39187648Y56575274D01*
X39235267Y56384798D01*
X39330505Y56289560D01*
X39425743Y56241941D01*
X39616220Y56241941D01*
X38235267Y56241941D02*
X38806696Y56241941D01*
X38520981Y56241941D02*
X38520981Y57241941D01*
X38616220Y57099083D01*
X38711458Y57003845D01*
X38806696Y56956226D01*
X37901934Y57241941D02*
X37282886Y57241941D01*
X37616220Y56860988D01*
X37473362Y56860988D01*
X37378124Y56813369D01*
X37330505Y56765750D01*
X37282886Y56670512D01*
X37282886Y56432417D01*
X37330505Y56337179D01*
X37378124Y56289560D01*
X37473362Y56241941D01*
X37759077Y56241941D01*
X37854315Y56289560D01*
X37901934Y56337179D01*
%TO.C,Q14*%
X19099429Y60947302D02*
X19194667Y60994922D01*
X19289905Y61090160D01*
X19432762Y61233017D01*
X19528000Y61280636D01*
X19623239Y61280636D01*
X19575620Y61042541D02*
X19670858Y61090160D01*
X19766096Y61185398D01*
X19813715Y61375874D01*
X19813715Y61709207D01*
X19766096Y61899683D01*
X19670858Y61994922D01*
X19575620Y62042541D01*
X19385143Y62042541D01*
X19289905Y61994922D01*
X19194667Y61899683D01*
X19147048Y61709207D01*
X19147048Y61375874D01*
X19194667Y61185398D01*
X19289905Y61090160D01*
X19385143Y61042541D01*
X19575620Y61042541D01*
X18194667Y61042541D02*
X18766096Y61042541D01*
X18480381Y61042541D02*
X18480381Y62042541D01*
X18575620Y61899683D01*
X18670858Y61804445D01*
X18766096Y61756826D01*
X17337524Y61709207D02*
X17337524Y61042541D01*
X17575620Y62090160D02*
X17813715Y61375874D01*
X17194667Y61375874D01*
%TO.C,Q15*%
X48106229Y70802502D02*
X48201467Y70850122D01*
X48296705Y70945360D01*
X48439562Y71088217D01*
X48534800Y71135836D01*
X48630039Y71135836D01*
X48582420Y70897741D02*
X48677658Y70945360D01*
X48772896Y71040598D01*
X48820515Y71231074D01*
X48820515Y71564407D01*
X48772896Y71754883D01*
X48677658Y71850122D01*
X48582420Y71897741D01*
X48391943Y71897741D01*
X48296705Y71850122D01*
X48201467Y71754883D01*
X48153848Y71564407D01*
X48153848Y71231074D01*
X48201467Y71040598D01*
X48296705Y70945360D01*
X48391943Y70897741D01*
X48582420Y70897741D01*
X47201467Y70897741D02*
X47772896Y70897741D01*
X47487181Y70897741D02*
X47487181Y71897741D01*
X47582420Y71754883D01*
X47677658Y71659645D01*
X47772896Y71612026D01*
X46296705Y71897741D02*
X46772896Y71897741D01*
X46820515Y71421550D01*
X46772896Y71469169D01*
X46677658Y71516788D01*
X46439562Y71516788D01*
X46344324Y71469169D01*
X46296705Y71421550D01*
X46249086Y71326312D01*
X46249086Y71088217D01*
X46296705Y70992979D01*
X46344324Y70945360D01*
X46439562Y70897741D01*
X46677658Y70897741D01*
X46772896Y70945360D01*
X46820515Y70992979D01*
%TO.C,Q16*%
X36815943Y70886626D02*
X36892134Y70924722D01*
X36968324Y71000912D01*
X37082610Y71115198D01*
X37158800Y71153293D01*
X37234991Y71153293D01*
X37196896Y70962817D02*
X37273086Y71000912D01*
X37349277Y71077102D01*
X37387372Y71229483D01*
X37387372Y71496150D01*
X37349277Y71648531D01*
X37273086Y71724722D01*
X37196896Y71762817D01*
X37044515Y71762817D01*
X36968324Y71724722D01*
X36892134Y71648531D01*
X36854039Y71496150D01*
X36854039Y71229483D01*
X36892134Y71077102D01*
X36968324Y71000912D01*
X37044515Y70962817D01*
X37196896Y70962817D01*
X36092134Y70962817D02*
X36549277Y70962817D01*
X36320705Y70962817D02*
X36320705Y71762817D01*
X36396896Y71648531D01*
X36473086Y71572341D01*
X36549277Y71534245D01*
X35406420Y71762817D02*
X35558800Y71762817D01*
X35634991Y71724722D01*
X35673086Y71686626D01*
X35749277Y71572341D01*
X35787372Y71419960D01*
X35787372Y71115198D01*
X35749277Y71039007D01*
X35711181Y71000912D01*
X35634991Y70962817D01*
X35482610Y70962817D01*
X35406420Y71000912D01*
X35368324Y71039007D01*
X35330229Y71115198D01*
X35330229Y71305674D01*
X35368324Y71381864D01*
X35406420Y71419960D01*
X35482610Y71458055D01*
X35634991Y71458055D01*
X35711181Y71419960D01*
X35749277Y71381864D01*
X35787372Y71305674D01*
%TO.C,R7*%
X81846381Y52238188D02*
X81370191Y52571522D01*
X81846381Y52809617D02*
X80846381Y52809617D01*
X80846381Y52428664D01*
X80894000Y52333426D01*
X80941620Y52285807D01*
X81036858Y52238188D01*
X81179715Y52238188D01*
X81274953Y52285807D01*
X81322572Y52333426D01*
X81370191Y52428664D01*
X81370191Y52809617D01*
X80846381Y51904855D02*
X80846381Y51238188D01*
X81846381Y51666760D01*
%TO.C,R9*%
X77044781Y54092388D02*
X76568591Y54425722D01*
X77044781Y54663817D02*
X76044781Y54663817D01*
X76044781Y54282864D01*
X76092400Y54187626D01*
X76140020Y54140007D01*
X76235258Y54092388D01*
X76378115Y54092388D01*
X76473353Y54140007D01*
X76520972Y54187626D01*
X76568591Y54282864D01*
X76568591Y54663817D01*
X77044781Y53616198D02*
X77044781Y53425722D01*
X76997162Y53330483D01*
X76949543Y53282864D01*
X76806686Y53187626D01*
X76616210Y53140007D01*
X76235258Y53140007D01*
X76140020Y53187626D01*
X76092400Y53235245D01*
X76044781Y53330483D01*
X76044781Y53520960D01*
X76092400Y53616198D01*
X76140020Y53663817D01*
X76235258Y53711436D01*
X76473353Y53711436D01*
X76568591Y53663817D01*
X76616210Y53616198D01*
X76663829Y53520960D01*
X76663829Y53330483D01*
X76616210Y53235245D01*
X76568591Y53187626D01*
X76473353Y53140007D01*
%TO.C,R11*%
X85147381Y61147179D02*
X84671191Y61480512D01*
X85147381Y61718607D02*
X84147381Y61718607D01*
X84147381Y61337655D01*
X84195000Y61242417D01*
X84242620Y61194798D01*
X84337858Y61147179D01*
X84480715Y61147179D01*
X84575953Y61194798D01*
X84623572Y61242417D01*
X84671191Y61337655D01*
X84671191Y61718607D01*
X85147381Y60194798D02*
X85147381Y60766226D01*
X85147381Y60480512D02*
X84147381Y60480512D01*
X84290239Y60575750D01*
X84385477Y60670988D01*
X84433096Y60766226D01*
X85147381Y59242417D02*
X85147381Y59813845D01*
X85147381Y59528131D02*
X84147381Y59528131D01*
X84290239Y59623369D01*
X84385477Y59718607D01*
X84433096Y59813845D01*
%TO.C,R14*%
X79419658Y56521341D02*
X79752991Y56997531D01*
X79991086Y56521341D02*
X79991086Y57521341D01*
X79610134Y57521341D01*
X79514896Y57473722D01*
X79467277Y57426102D01*
X79419658Y57330864D01*
X79419658Y57188007D01*
X79467277Y57092769D01*
X79514896Y57045150D01*
X79610134Y56997531D01*
X79991086Y56997531D01*
X78467277Y56521341D02*
X79038705Y56521341D01*
X78752991Y56521341D02*
X78752991Y57521341D01*
X78848229Y57378483D01*
X78943467Y57283245D01*
X79038705Y57235626D01*
X77610134Y57188007D02*
X77610134Y56521341D01*
X77848229Y57568960D02*
X78086324Y56854674D01*
X77467277Y56854674D01*
%TO.C,R15*%
X60598258Y60915541D02*
X60931591Y61391731D01*
X61169686Y60915541D02*
X61169686Y61915541D01*
X60788734Y61915541D01*
X60693496Y61867922D01*
X60645877Y61820302D01*
X60598258Y61725064D01*
X60598258Y61582207D01*
X60645877Y61486969D01*
X60693496Y61439350D01*
X60788734Y61391731D01*
X61169686Y61391731D01*
X59645877Y60915541D02*
X60217305Y60915541D01*
X59931591Y60915541D02*
X59931591Y61915541D01*
X60026829Y61772683D01*
X60122067Y61677445D01*
X60217305Y61629826D01*
X58741115Y61915541D02*
X59217305Y61915541D01*
X59264924Y61439350D01*
X59217305Y61486969D01*
X59122067Y61534588D01*
X58883972Y61534588D01*
X58788734Y61486969D01*
X58741115Y61439350D01*
X58693496Y61344112D01*
X58693496Y61106017D01*
X58741115Y61010779D01*
X58788734Y60963160D01*
X58883972Y60915541D01*
X59122067Y60915541D01*
X59217305Y60963160D01*
X59264924Y61010779D01*
%TO.C,R16*%
X71659981Y60308979D02*
X71183791Y60642312D01*
X71659981Y60880407D02*
X70659981Y60880407D01*
X70659981Y60499455D01*
X70707600Y60404217D01*
X70755220Y60356598D01*
X70850458Y60308979D01*
X70993315Y60308979D01*
X71088553Y60356598D01*
X71136172Y60404217D01*
X71183791Y60499455D01*
X71183791Y60880407D01*
X71659981Y59356598D02*
X71659981Y59928026D01*
X71659981Y59642312D02*
X70659981Y59642312D01*
X70802839Y59737550D01*
X70898077Y59832788D01*
X70945696Y59928026D01*
X70659981Y58499455D02*
X70659981Y58689931D01*
X70707600Y58785169D01*
X70755220Y58832788D01*
X70898077Y58928026D01*
X71088553Y58975645D01*
X71469505Y58975645D01*
X71564743Y58928026D01*
X71612362Y58880407D01*
X71659981Y58785169D01*
X71659981Y58594693D01*
X71612362Y58499455D01*
X71564743Y58451836D01*
X71469505Y58404217D01*
X71231410Y58404217D01*
X71136172Y58451836D01*
X71088553Y58499455D01*
X71040934Y58594693D01*
X71040934Y58785169D01*
X71088553Y58880407D01*
X71136172Y58928026D01*
X71231410Y58975645D01*
%TO.C,R22*%
X44254381Y52968379D02*
X43778191Y53301712D01*
X44254381Y53539807D02*
X43254381Y53539807D01*
X43254381Y53158855D01*
X43302000Y53063617D01*
X43349620Y53015998D01*
X43444858Y52968379D01*
X43587715Y52968379D01*
X43682953Y53015998D01*
X43730572Y53063617D01*
X43778191Y53158855D01*
X43778191Y53539807D01*
X43349620Y52587426D02*
X43302000Y52539807D01*
X43254381Y52444569D01*
X43254381Y52206474D01*
X43302000Y52111236D01*
X43349620Y52063617D01*
X43444858Y52015998D01*
X43540096Y52015998D01*
X43682953Y52063617D01*
X44254381Y52635045D01*
X44254381Y52015998D01*
X43349620Y51635045D02*
X43302000Y51587426D01*
X43254381Y51492188D01*
X43254381Y51254093D01*
X43302000Y51158855D01*
X43349620Y51111236D01*
X43444858Y51063617D01*
X43540096Y51063617D01*
X43682953Y51111236D01*
X44254381Y51682664D01*
X44254381Y51063617D01*
%TO.C,R23*%
X39909981Y54212979D02*
X39433791Y54546312D01*
X39909981Y54784407D02*
X38909981Y54784407D01*
X38909981Y54403455D01*
X38957600Y54308217D01*
X39005220Y54260598D01*
X39100458Y54212979D01*
X39243315Y54212979D01*
X39338553Y54260598D01*
X39386172Y54308217D01*
X39433791Y54403455D01*
X39433791Y54784407D01*
X39005220Y53832026D02*
X38957600Y53784407D01*
X38909981Y53689169D01*
X38909981Y53451074D01*
X38957600Y53355836D01*
X39005220Y53308217D01*
X39100458Y53260598D01*
X39195696Y53260598D01*
X39338553Y53308217D01*
X39909981Y53879645D01*
X39909981Y53260598D01*
X38909981Y52927264D02*
X38909981Y52308217D01*
X39290934Y52641550D01*
X39290934Y52498693D01*
X39338553Y52403455D01*
X39386172Y52355836D01*
X39481410Y52308217D01*
X39719505Y52308217D01*
X39814743Y52355836D01*
X39862362Y52403455D01*
X39909981Y52498693D01*
X39909981Y52784407D01*
X39862362Y52879645D01*
X39814743Y52927264D01*
%TO.C,R26*%
X24188381Y56778379D02*
X23712191Y57111712D01*
X24188381Y57349807D02*
X23188381Y57349807D01*
X23188381Y56968855D01*
X23236000Y56873617D01*
X23283620Y56825998D01*
X23378858Y56778379D01*
X23521715Y56778379D01*
X23616953Y56825998D01*
X23664572Y56873617D01*
X23712191Y56968855D01*
X23712191Y57349807D01*
X23283620Y56397426D02*
X23236000Y56349807D01*
X23188381Y56254569D01*
X23188381Y56016474D01*
X23236000Y55921236D01*
X23283620Y55873617D01*
X23378858Y55825998D01*
X23474096Y55825998D01*
X23616953Y55873617D01*
X24188381Y56445045D01*
X24188381Y55825998D01*
X23188381Y54968855D02*
X23188381Y55159331D01*
X23236000Y55254569D01*
X23283620Y55302188D01*
X23426477Y55397426D01*
X23616953Y55445045D01*
X23997905Y55445045D01*
X24093143Y55397426D01*
X24140762Y55349807D01*
X24188381Y55254569D01*
X24188381Y55064093D01*
X24140762Y54968855D01*
X24093143Y54921236D01*
X23997905Y54873617D01*
X23759810Y54873617D01*
X23664572Y54921236D01*
X23616953Y54968855D01*
X23569334Y55064093D01*
X23569334Y55254569D01*
X23616953Y55349807D01*
X23664572Y55397426D01*
X23759810Y55445045D01*
%TO.C,R27*%
X20072581Y57921379D02*
X19596391Y58254712D01*
X20072581Y58492807D02*
X19072581Y58492807D01*
X19072581Y58111855D01*
X19120200Y58016617D01*
X19167820Y57968998D01*
X19263058Y57921379D01*
X19405915Y57921379D01*
X19501153Y57968998D01*
X19548772Y58016617D01*
X19596391Y58111855D01*
X19596391Y58492807D01*
X19167820Y57540426D02*
X19120200Y57492807D01*
X19072581Y57397569D01*
X19072581Y57159474D01*
X19120200Y57064236D01*
X19167820Y57016617D01*
X19263058Y56968998D01*
X19358296Y56968998D01*
X19501153Y57016617D01*
X20072581Y57588045D01*
X20072581Y56968998D01*
X19072581Y56635664D02*
X19072581Y55968998D01*
X20072581Y56397569D01*
%TO.C,R28*%
X47580781Y61197979D02*
X47104591Y61531312D01*
X47580781Y61769407D02*
X46580781Y61769407D01*
X46580781Y61388455D01*
X46628400Y61293217D01*
X46676020Y61245598D01*
X46771258Y61197979D01*
X46914115Y61197979D01*
X47009353Y61245598D01*
X47056972Y61293217D01*
X47104591Y61388455D01*
X47104591Y61769407D01*
X46676020Y60817026D02*
X46628400Y60769407D01*
X46580781Y60674169D01*
X46580781Y60436074D01*
X46628400Y60340836D01*
X46676020Y60293217D01*
X46771258Y60245598D01*
X46866496Y60245598D01*
X47009353Y60293217D01*
X47580781Y60864645D01*
X47580781Y60245598D01*
X47009353Y59674169D02*
X46961734Y59769407D01*
X46914115Y59817026D01*
X46818877Y59864645D01*
X46771258Y59864645D01*
X46676020Y59817026D01*
X46628400Y59769407D01*
X46580781Y59674169D01*
X46580781Y59483693D01*
X46628400Y59388455D01*
X46676020Y59340836D01*
X46771258Y59293217D01*
X46818877Y59293217D01*
X46914115Y59340836D01*
X46961734Y59388455D01*
X47009353Y59483693D01*
X47009353Y59674169D01*
X47056972Y59769407D01*
X47104591Y59817026D01*
X47199829Y59864645D01*
X47390305Y59864645D01*
X47485543Y59817026D01*
X47533162Y59769407D01*
X47580781Y59674169D01*
X47580781Y59483693D01*
X47533162Y59388455D01*
X47485543Y59340836D01*
X47390305Y59293217D01*
X47199829Y59293217D01*
X47104591Y59340836D01*
X47056972Y59388455D01*
X47009353Y59483693D01*
%TO.C,R29*%
X41038686Y61082217D02*
X41305353Y61463169D01*
X41495829Y61082217D02*
X41495829Y61882217D01*
X41191067Y61882217D01*
X41114877Y61844122D01*
X41076781Y61806026D01*
X41038686Y61729836D01*
X41038686Y61615550D01*
X41076781Y61539360D01*
X41114877Y61501264D01*
X41191067Y61463169D01*
X41495829Y61463169D01*
X40733924Y61806026D02*
X40695829Y61844122D01*
X40619639Y61882217D01*
X40429162Y61882217D01*
X40352972Y61844122D01*
X40314877Y61806026D01*
X40276781Y61729836D01*
X40276781Y61653645D01*
X40314877Y61539360D01*
X40772020Y61082217D01*
X40276781Y61082217D01*
X39895829Y61082217D02*
X39743448Y61082217D01*
X39667258Y61120312D01*
X39629162Y61158407D01*
X39552972Y61272693D01*
X39514877Y61425074D01*
X39514877Y61729836D01*
X39552972Y61806026D01*
X39591067Y61844122D01*
X39667258Y61882217D01*
X39819639Y61882217D01*
X39895829Y61844122D01*
X39933924Y61806026D01*
X39972020Y61729836D01*
X39972020Y61539360D01*
X39933924Y61463169D01*
X39895829Y61425074D01*
X39819639Y61386979D01*
X39667258Y61386979D01*
X39591067Y61425074D01*
X39552972Y61463169D01*
X39514877Y61539360D01*
%TO.C,R30*%
X27717981Y67217779D02*
X27241791Y67551112D01*
X27717981Y67789207D02*
X26717981Y67789207D01*
X26717981Y67408255D01*
X26765600Y67313017D01*
X26813220Y67265398D01*
X26908458Y67217779D01*
X27051315Y67217779D01*
X27146553Y67265398D01*
X27194172Y67313017D01*
X27241791Y67408255D01*
X27241791Y67789207D01*
X26717981Y66884445D02*
X26717981Y66265398D01*
X27098934Y66598731D01*
X27098934Y66455874D01*
X27146553Y66360636D01*
X27194172Y66313017D01*
X27289410Y66265398D01*
X27527505Y66265398D01*
X27622743Y66313017D01*
X27670362Y66360636D01*
X27717981Y66455874D01*
X27717981Y66741588D01*
X27670362Y66836826D01*
X27622743Y66884445D01*
X26717981Y65646350D02*
X26717981Y65551112D01*
X26765600Y65455874D01*
X26813220Y65408255D01*
X26908458Y65360636D01*
X27098934Y65313017D01*
X27337029Y65313017D01*
X27527505Y65360636D01*
X27622743Y65408255D01*
X27670362Y65455874D01*
X27717981Y65551112D01*
X27717981Y65646350D01*
X27670362Y65741588D01*
X27622743Y65789207D01*
X27527505Y65836826D01*
X27337029Y65884445D01*
X27098934Y65884445D01*
X26908458Y65836826D01*
X26813220Y65789207D01*
X26765600Y65741588D01*
X26717981Y65646350D01*
%TO.C,R31*%
X21734705Y61679007D02*
X21353753Y61945674D01*
X21734705Y62136150D02*
X20934705Y62136150D01*
X20934705Y61831388D01*
X20972800Y61755198D01*
X21010896Y61717102D01*
X21087086Y61679007D01*
X21201372Y61679007D01*
X21277562Y61717102D01*
X21315658Y61755198D01*
X21353753Y61831388D01*
X21353753Y62136150D01*
X20934705Y61412341D02*
X20934705Y60917102D01*
X21239467Y61183769D01*
X21239467Y61069483D01*
X21277562Y60993293D01*
X21315658Y60955198D01*
X21391848Y60917102D01*
X21582324Y60917102D01*
X21658515Y60955198D01*
X21696610Y60993293D01*
X21734705Y61069483D01*
X21734705Y61298055D01*
X21696610Y61374245D01*
X21658515Y61412341D01*
X21734705Y60155198D02*
X21734705Y60612341D01*
X21734705Y60383769D02*
X20934705Y60383769D01*
X21048991Y60459960D01*
X21125181Y60536150D01*
X21163277Y60612341D01*
%TO.C,R32*%
X34245781Y60410579D02*
X33769591Y60743912D01*
X34245781Y60982007D02*
X33245781Y60982007D01*
X33245781Y60601055D01*
X33293400Y60505817D01*
X33341020Y60458198D01*
X33436258Y60410579D01*
X33579115Y60410579D01*
X33674353Y60458198D01*
X33721972Y60505817D01*
X33769591Y60601055D01*
X33769591Y60982007D01*
X33245781Y60077245D02*
X33245781Y59458198D01*
X33626734Y59791531D01*
X33626734Y59648674D01*
X33674353Y59553436D01*
X33721972Y59505817D01*
X33817210Y59458198D01*
X34055305Y59458198D01*
X34150543Y59505817D01*
X34198162Y59553436D01*
X34245781Y59648674D01*
X34245781Y59934388D01*
X34198162Y60029626D01*
X34150543Y60077245D01*
X33341020Y59077245D02*
X33293400Y59029626D01*
X33245781Y58934388D01*
X33245781Y58696293D01*
X33293400Y58601055D01*
X33341020Y58553436D01*
X33436258Y58505817D01*
X33531496Y58505817D01*
X33674353Y58553436D01*
X34245781Y59124864D01*
X34245781Y58505817D01*
%TO.C,R33*%
X14028381Y64906379D02*
X13552191Y65239712D01*
X14028381Y65477807D02*
X13028381Y65477807D01*
X13028381Y65096855D01*
X13076000Y65001617D01*
X13123620Y64953998D01*
X13218858Y64906379D01*
X13361715Y64906379D01*
X13456953Y64953998D01*
X13504572Y65001617D01*
X13552191Y65096855D01*
X13552191Y65477807D01*
X13028381Y64573045D02*
X13028381Y63953998D01*
X13409334Y64287331D01*
X13409334Y64144474D01*
X13456953Y64049236D01*
X13504572Y64001617D01*
X13599810Y63953998D01*
X13837905Y63953998D01*
X13933143Y64001617D01*
X13980762Y64049236D01*
X14028381Y64144474D01*
X14028381Y64430188D01*
X13980762Y64525426D01*
X13933143Y64573045D01*
X13028381Y63620664D02*
X13028381Y63001617D01*
X13409334Y63334950D01*
X13409334Y63192093D01*
X13456953Y63096855D01*
X13504572Y63049236D01*
X13599810Y63001617D01*
X13837905Y63001617D01*
X13933143Y63049236D01*
X13980762Y63096855D01*
X14028381Y63192093D01*
X14028381Y63477807D01*
X13980762Y63573045D01*
X13933143Y63620664D01*
%TO.C,U3*%
X20799781Y10237626D02*
X21609305Y10237626D01*
X21704543Y10190007D01*
X21752162Y10142388D01*
X21799781Y10047150D01*
X21799781Y9856674D01*
X21752162Y9761436D01*
X21704543Y9713817D01*
X21609305Y9666198D01*
X20799781Y9666198D01*
X20799781Y9285245D02*
X20799781Y8666198D01*
X21180734Y8999531D01*
X21180734Y8856674D01*
X21228353Y8761436D01*
X21275972Y8713817D01*
X21371210Y8666198D01*
X21609305Y8666198D01*
X21704543Y8713817D01*
X21752162Y8761436D01*
X21799781Y8856674D01*
X21799781Y9142388D01*
X21752162Y9237626D01*
X21704543Y9285245D01*
D11*
%TO.C,D8*%
X42502000Y97409522D02*
X37102000Y97409522D01*
X42502000Y97409522D02*
X42502000Y94109522D01*
X42502000Y94109522D02*
X37102000Y94109522D01*
%TO.C,D7*%
X32971200Y67237922D02*
X32971200Y71537922D01*
X34971200Y71537922D02*
X34971200Y67237922D01*
X32971200Y71537922D02*
X34971200Y71537922D01*
%TO.C,R18*%
X72894000Y65929522D02*
X83034000Y65929522D01*
X83034000Y62089522D02*
X72894000Y62089522D01*
X83034000Y65929522D02*
X83034000Y62089522D01*
X69244000Y64009522D02*
X72894000Y64009522D01*
X72894000Y62089522D02*
X72894000Y65929522D01*
X86684000Y64009522D02*
X83034000Y64009522D01*
%TO.C,R20*%
X82780000Y71995522D02*
X72640000Y71995522D01*
X82780000Y75835522D02*
X82780000Y71995522D01*
X86430000Y73915522D02*
X82780000Y73915522D01*
X68990000Y73915522D02*
X72640000Y73915522D01*
X72640000Y71995522D02*
X72640000Y75835522D01*
X72640000Y75835522D02*
X82780000Y75835522D01*
%TO.C,R34*%
X33778000Y62089522D02*
X33778000Y65929522D01*
X43918000Y65929522D02*
X43918000Y62089522D01*
X30128000Y64009522D02*
X33778000Y64009522D01*
X43918000Y62089522D02*
X33778000Y62089522D01*
X33778000Y65929522D02*
X43918000Y65929522D01*
X47568000Y64009522D02*
X43918000Y64009522D01*
%TO.C,R36*%
X47568000Y74169522D02*
X43918000Y74169522D01*
X30128000Y74169522D02*
X33778000Y74169522D01*
X43918000Y72249522D02*
X33778000Y72249522D01*
X33778000Y72249522D02*
X33778000Y76089522D01*
X43918000Y76089522D02*
X43918000Y72249522D01*
X33778000Y76089522D02*
X43918000Y76089522D01*
%TO.C,R37*%
X25376000Y77583522D02*
X15236000Y77583522D01*
X15236000Y77583522D02*
X15236000Y81423522D01*
X15236000Y81423522D02*
X25376000Y81423522D01*
X29026000Y79503522D02*
X25376000Y79503522D01*
X11586000Y79503522D02*
X15236000Y79503522D01*
X25376000Y81423522D02*
X25376000Y77583522D01*
%TO.C,D9*%
X15641800Y76719522D02*
X15641800Y72419522D01*
X13641800Y72419522D02*
X13641800Y76719522D01*
X13641800Y76719522D02*
X15641800Y76719522D01*
D12*
%TO.C,Q17*%
X23074600Y76760322D02*
X24649400Y76760322D01*
X23074600Y75820522D02*
X23074600Y76760322D01*
X24649400Y76760322D02*
X24649400Y76607922D01*
X23074600Y73610722D02*
X23074600Y74550522D01*
X24649400Y73610722D02*
X23074600Y73610722D01*
X24649400Y73763122D02*
X24649400Y73610722D01*
X25233600Y76709522D02*
G75*
G03*
X25233600Y76963522I0J127000D01*
G01*
X25233600Y76963522D02*
G75*
G03*
X25233600Y76709522I0J-127000D01*
G01*
%TO.C,Q18*%
X20077400Y73610722D02*
X18502600Y73610722D01*
X18502600Y75820522D02*
X18502600Y76760322D01*
X20077400Y73763122D02*
X20077400Y73610722D01*
X18502600Y73610722D02*
X18502600Y74550522D01*
X18502600Y76760322D02*
X20077400Y76760322D01*
X20077400Y76760322D02*
X20077400Y76607922D01*
X20661600Y76963522D02*
G75*
G03*
X20661600Y76709522I0J-127000D01*
G01*
X20661600Y76709522D02*
G75*
G03*
X20661600Y76963522I0J127000D01*
G01*
D11*
%TO.C,C24*%
X19551252Y72872522D02*
X19028748Y72872522D01*
X19551252Y71402522D02*
X19028748Y71402522D01*
%TO.C,R35*%
X25376000Y66915522D02*
X15236000Y66915522D01*
X15236000Y66915522D02*
X15236000Y70755522D01*
X15236000Y70755522D02*
X25376000Y70755522D01*
X25376000Y70755522D02*
X25376000Y66915522D01*
X29026000Y68835522D02*
X25376000Y68835522D01*
X11586000Y68835522D02*
X15236000Y68835522D01*
%TO.C,C23*%
X38855252Y66576522D02*
X38332748Y66576522D01*
X38855252Y68046522D02*
X38332748Y68046522D01*
%TO.C,R21*%
X53590000Y80915522D02*
X63730000Y80915522D01*
X49940000Y78995522D02*
X53590000Y78995522D01*
X63730000Y80915522D02*
X63730000Y77075522D01*
X63730000Y77075522D02*
X53590000Y77075522D01*
X53590000Y77075522D02*
X53590000Y80915522D01*
X67380000Y78995522D02*
X63730000Y78995522D01*
%TO.C,R19*%
X63730000Y70501522D02*
X63730000Y66661522D01*
X67380000Y68581522D02*
X63730000Y68581522D01*
X49940000Y68581522D02*
X53590000Y68581522D01*
X53590000Y66661522D02*
X53590000Y70501522D01*
X63730000Y66661522D02*
X53590000Y66661522D01*
X53590000Y70501522D02*
X63730000Y70501522D01*
%TO.C,R17*%
X53607000Y63782458D02*
X53607000Y64236586D01*
X55077000Y63782458D02*
X55077000Y64236586D01*
%TO.C,R13*%
X63004936Y64290522D02*
X63459064Y64290522D01*
X63004936Y65760522D02*
X63459064Y65760522D01*
%TO.C,R10*%
X58687000Y57416458D02*
X58687000Y57870586D01*
X60157000Y57416458D02*
X60157000Y57870586D01*
%TO.C,R8*%
X63259000Y56108586D02*
X63259000Y55654458D01*
X64729000Y56108586D02*
X64729000Y55654458D01*
D12*
%TO.C,Q8*%
X58177400Y73356722D02*
X56602600Y73356722D01*
X56602600Y75566522D02*
X56602600Y76506322D01*
X58177400Y73509122D02*
X58177400Y73356722D01*
X56602600Y73356722D02*
X56602600Y74296522D01*
X56602600Y76506322D02*
X58177400Y76506322D01*
X58177400Y76506322D02*
X58177400Y76353922D01*
X58761600Y76709522D02*
G75*
G03*
X58761600Y76455522I0J-127000D01*
G01*
X58761600Y76455522D02*
G75*
G03*
X58761600Y76709522I0J127000D01*
G01*
%TO.C,Q4*%
X58964800Y63222122D02*
X58812400Y63222122D01*
X55967600Y63222122D02*
X55815200Y63222122D01*
X55815200Y64796922D02*
X56755000Y64796922D01*
X58025000Y64796922D02*
X58964800Y64796922D01*
X55815200Y63222122D02*
X55815200Y64796922D01*
X58964800Y64796922D02*
X58964800Y63222122D01*
X58914000Y62637922D02*
G75*
G03*
X59168000Y62637922I127000J0D01*
G01*
X59168000Y62637922D02*
G75*
G03*
X58914000Y62637922I-127000J0D01*
G01*
D11*
%TO.C,C22*%
X57651252Y71148522D02*
X57128748Y71148522D01*
X57651252Y72618522D02*
X57128748Y72618522D01*
%TO.C,D4*%
X51462400Y76465522D02*
X53462400Y76465522D01*
X51462400Y72165522D02*
X51462400Y76465522D01*
X53462400Y76465522D02*
X53462400Y72165522D01*
%TO.C,C9*%
X15461852Y3254322D02*
X14939348Y3254322D01*
X15461852Y4724322D02*
X14939348Y4724322D01*
%TO.C,C10*%
X14843400Y7258670D02*
X14843400Y7781174D01*
X13373400Y7258670D02*
X13373400Y7781174D01*
%TO.C,C14*%
X21721148Y16814722D02*
X22243652Y16814722D01*
X21721148Y15344722D02*
X22243652Y15344722D01*
%TO.C,C15*%
X19791400Y17589722D02*
X19791400Y14569722D01*
X19791400Y14569722D02*
X15406400Y14569722D01*
X15406400Y17589722D02*
X19791400Y17589722D01*
%TO.C,C21*%
X76447252Y66576522D02*
X75924748Y66576522D01*
X76447252Y68046522D02*
X75924748Y68046522D01*
%TO.C,D3*%
X72791800Y71639522D02*
X72791800Y67339522D01*
X70791800Y67339522D02*
X70791800Y71639522D01*
X70791800Y71639522D02*
X72791800Y71639522D01*
%TO.C,D5*%
X80195600Y98171522D02*
X80195600Y94871522D01*
X80195600Y98171522D02*
X74795600Y98171522D01*
X80195600Y94871522D02*
X74795600Y94871522D01*
%TO.C,D6*%
X61069400Y97663522D02*
X61069400Y94363522D01*
X61069400Y94363522D02*
X55669400Y94363522D01*
X61069400Y97663522D02*
X55669400Y97663522D01*
%TO.C,D10*%
X24214000Y93855522D02*
X18814000Y93855522D01*
X24214000Y97155522D02*
X24214000Y93855522D01*
X24214000Y97155522D02*
X18814000Y97155522D01*
D12*
%TO.C,Q1*%
X82663000Y57884922D02*
X83602800Y57884922D01*
X80453200Y57884922D02*
X81393000Y57884922D01*
X80453200Y56310122D02*
X80453200Y57884922D01*
X83602800Y57884922D02*
X83602800Y56310122D01*
X83602800Y56310122D02*
X83450400Y56310122D01*
X80605600Y56310122D02*
X80453200Y56310122D01*
X83552000Y55725922D02*
G75*
G03*
X83806000Y55725922I127000J0D01*
G01*
X83806000Y55725922D02*
G75*
G03*
X83552000Y55725922I-127000J0D01*
G01*
%TO.C,Q2*%
X63867000Y62256922D02*
X64806800Y62256922D01*
X64806800Y60682122D02*
X64654400Y60682122D01*
X61657200Y60682122D02*
X61657200Y62256922D01*
X61809600Y60682122D02*
X61657200Y60682122D01*
X61657200Y62256922D02*
X62597000Y62256922D01*
X64806800Y62256922D02*
X64806800Y60682122D01*
X65010000Y60097922D02*
G75*
G03*
X64756000Y60097922I-127000J0D01*
G01*
X64756000Y60097922D02*
G75*
G03*
X65010000Y60097922I127000J0D01*
G01*
%TO.C,Q3*%
X77506800Y60224922D02*
X77506800Y58650122D01*
X74357200Y60224922D02*
X75297000Y60224922D01*
X77506800Y58650122D02*
X77354400Y58650122D01*
X76567000Y60224922D02*
X77506800Y60224922D01*
X74509600Y58650122D02*
X74357200Y58650122D01*
X74357200Y58650122D02*
X74357200Y60224922D01*
X77456000Y58065922D02*
G75*
G03*
X77710000Y58065922I127000J0D01*
G01*
X77710000Y58065922D02*
G75*
G03*
X77456000Y58065922I-127000J0D01*
G01*
%TO.C,Q5*%
X81799400Y71680322D02*
X81799400Y71527922D01*
X81799400Y68530722D02*
X80224600Y68530722D01*
X80224600Y71680322D02*
X81799400Y71680322D01*
X81799400Y68683122D02*
X81799400Y68530722D01*
X80224600Y70740522D02*
X80224600Y71680322D01*
X80224600Y68530722D02*
X80224600Y69470522D01*
X82383600Y71629522D02*
G75*
G03*
X82383600Y71883522I0J127000D01*
G01*
X82383600Y71883522D02*
G75*
G03*
X82383600Y71629522I0J-127000D01*
G01*
%TO.C,Q6*%
X75398600Y71680322D02*
X76973400Y71680322D01*
X76973400Y71680322D02*
X76973400Y71527922D01*
X76973400Y68683122D02*
X76973400Y68530722D01*
X76973400Y68530722D02*
X75398600Y68530722D01*
X75398600Y70740522D02*
X75398600Y71680322D01*
X75398600Y68530722D02*
X75398600Y69470522D01*
X77557600Y71629522D02*
G75*
G03*
X77557600Y71883522I0J127000D01*
G01*
X77557600Y71883522D02*
G75*
G03*
X77557600Y71629522I0J-127000D01*
G01*
%TO.C,Q7*%
X63003400Y73356722D02*
X61428600Y73356722D01*
X61428600Y75566522D02*
X61428600Y76506322D01*
X63003400Y73509122D02*
X63003400Y73356722D01*
X61428600Y73356722D02*
X61428600Y74296522D01*
X61428600Y76506322D02*
X63003400Y76506322D01*
X63003400Y76506322D02*
X63003400Y76353922D01*
X63587600Y76455522D02*
G75*
G03*
X63587600Y76709522I0J127000D01*
G01*
X63587600Y76709522D02*
G75*
G03*
X63587600Y76455522I0J-127000D01*
G01*
%TO.C,Q11*%
X42861200Y57630922D02*
X43801000Y57630922D01*
X46010800Y56056122D02*
X45858400Y56056122D01*
X42861200Y56056122D02*
X42861200Y57630922D01*
X43013600Y56056122D02*
X42861200Y56056122D01*
X45071000Y57630922D02*
X46010800Y57630922D01*
X46010800Y57630922D02*
X46010800Y56056122D01*
X46214000Y55471922D02*
G75*
G03*
X45960000Y55471922I-127000J0D01*
G01*
X45960000Y55471922D02*
G75*
G03*
X46214000Y55471922I127000J0D01*
G01*
%TO.C,Q12*%
X22947600Y61136122D02*
X22795200Y61136122D01*
X22795200Y62710922D02*
X23735000Y62710922D01*
X25005000Y62710922D02*
X25944800Y62710922D01*
X22795200Y61136122D02*
X22795200Y62710922D01*
X25944800Y62710922D02*
X25944800Y61136122D01*
X25944800Y61136122D02*
X25792400Y61136122D01*
X25894000Y60551922D02*
G75*
G03*
X26148000Y60551922I127000J0D01*
G01*
X26148000Y60551922D02*
G75*
G03*
X25894000Y60551922I-127000J0D01*
G01*
%TO.C,Q13*%
X40168800Y60224922D02*
X40168800Y58650122D01*
X37019200Y58650122D02*
X37019200Y60224922D01*
X37019200Y60224922D02*
X37959000Y60224922D01*
X37171600Y58650122D02*
X37019200Y58650122D01*
X39229000Y60224922D02*
X40168800Y60224922D01*
X40168800Y58650122D02*
X40016400Y58650122D01*
X40372000Y58065922D02*
G75*
G03*
X40118000Y58065922I-127000J0D01*
G01*
X40118000Y58065922D02*
G75*
G03*
X40372000Y58065922I127000J0D01*
G01*
%TO.C,Q14*%
X16953200Y63476122D02*
X16953200Y65050922D01*
X20102800Y65050922D02*
X20102800Y63476122D01*
X19163000Y65050922D02*
X20102800Y65050922D01*
X16953200Y65050922D02*
X17893000Y65050922D01*
X17105600Y63476122D02*
X16953200Y63476122D01*
X20102800Y63476122D02*
X19950400Y63476122D01*
X20306000Y62891922D02*
G75*
G03*
X20052000Y62891922I-127000J0D01*
G01*
X20052000Y62891922D02*
G75*
G03*
X20306000Y62891922I127000J0D01*
G01*
%TO.C,Q15*%
X44715400Y71680322D02*
X44715400Y71527922D01*
X43140600Y70740522D02*
X43140600Y71680322D01*
X44715400Y68683122D02*
X44715400Y68530722D01*
X43140600Y71680322D02*
X44715400Y71680322D01*
X44715400Y68530722D02*
X43140600Y68530722D01*
X43140600Y68530722D02*
X43140600Y69470522D01*
X45299600Y71629522D02*
G75*
G03*
X45299600Y71883522I0J127000D01*
G01*
X45299600Y71883522D02*
G75*
G03*
X45299600Y71629522I0J-127000D01*
G01*
%TO.C,Q16*%
X39381400Y68683122D02*
X39381400Y68530722D01*
X37806600Y68530722D02*
X37806600Y69470522D01*
X37806600Y71680322D02*
X39381400Y71680322D01*
X39381400Y68530722D02*
X37806600Y68530722D01*
X39381400Y71680322D02*
X39381400Y71527922D01*
X37806600Y70740522D02*
X37806600Y71680322D01*
X39965600Y71629522D02*
G75*
G03*
X39965600Y71883522I0J127000D01*
G01*
X39965600Y71883522D02*
G75*
G03*
X39965600Y71629522I0J-127000D01*
G01*
D11*
%TO.C,R7*%
X82309000Y52298586D02*
X82309000Y51844458D01*
X83779000Y52298586D02*
X83779000Y51844458D01*
%TO.C,R9*%
X78953000Y53876458D02*
X78953000Y54330586D01*
X77483000Y53876458D02*
X77483000Y54330586D01*
%TO.C,R11*%
X81800936Y61442522D02*
X82255064Y61442522D01*
X81800936Y59972522D02*
X82255064Y59972522D01*
%TO.C,R14*%
X77991000Y59918586D02*
X77991000Y59464458D01*
X79461000Y59918586D02*
X79461000Y59464458D01*
%TO.C,R15*%
X60919000Y64236586D02*
X60919000Y63782458D01*
X59449000Y64236586D02*
X59449000Y63782458D01*
%TO.C,R16*%
X72149000Y59464458D02*
X72149000Y59918586D01*
X73619000Y59464458D02*
X73619000Y59918586D01*
%TO.C,R22*%
X44717000Y52552586D02*
X44717000Y52098458D01*
X46187000Y52552586D02*
X46187000Y52098458D01*
%TO.C,R23*%
X40399000Y54130458D02*
X40399000Y54584586D01*
X41869000Y54130458D02*
X41869000Y54584586D01*
%TO.C,R26*%
X24651000Y56362586D02*
X24651000Y55908458D01*
X26121000Y56362586D02*
X26121000Y55908458D01*
%TO.C,R27*%
X22057000Y57940458D02*
X22057000Y58394586D01*
X20587000Y57940458D02*
X20587000Y58394586D01*
%TO.C,R28*%
X44208936Y59718522D02*
X44663064Y59718522D01*
X44208936Y61188522D02*
X44663064Y61188522D01*
%TO.C,R29*%
X42123000Y59410586D02*
X42123000Y58956458D01*
X40653000Y59410586D02*
X40653000Y58956458D01*
%TO.C,R30*%
X24396936Y64544522D02*
X24851064Y64544522D01*
X24396936Y66014522D02*
X24851064Y66014522D01*
%TO.C,R31*%
X20587000Y64490586D02*
X20587000Y64036458D01*
X22057000Y64490586D02*
X22057000Y64036458D01*
%TO.C,R32*%
X36281000Y58956458D02*
X36281000Y59410586D01*
X34811000Y58956458D02*
X34811000Y59410586D01*
%TO.C,R33*%
X15961000Y64490586D02*
X15961000Y64036458D01*
X14491000Y64490586D02*
X14491000Y64036458D01*
%TO.C,U3*%
X15346600Y11639722D02*
X16606600Y11639722D01*
X22166600Y5629722D02*
X22166600Y11639722D01*
X15346600Y7879722D02*
X15346600Y11639722D01*
X22166600Y11639722D02*
X20906600Y11639722D01*
%TD*%
%LPC*%
D13*
X11416000Y26417522D02*
X6336000Y26417522D01*
X6336000Y26417522D02*
X6336000Y31243522D01*
X6336000Y31243522D02*
X11416000Y31243522D01*
X11416000Y31243522D02*
X11416000Y26417522D01*
G36*
X11416000Y26417522D02*
G01*
X6336000Y26417522D01*
X6336000Y31243522D01*
X11416000Y31243522D01*
X11416000Y26417522D01*
G37*
X11416000Y26417522D02*
X6336000Y26417522D01*
X6336000Y31243522D01*
X11416000Y31243522D01*
X11416000Y26417522D01*
D14*
%TO.C,U1*%
X67296000Y35942522D03*
D15*
X64756000Y35942522D03*
X62216000Y35942522D03*
X59676000Y35942522D03*
X57136000Y35942522D03*
X54596000Y35942522D03*
X52056000Y35942522D03*
X49516000Y35942522D03*
X49516000Y28322522D03*
X52056000Y28322522D03*
X54596000Y28322522D03*
X57136000Y28322522D03*
X59676000Y28322522D03*
X62216000Y28322522D03*
X64756000Y28322522D03*
X67296000Y28322522D03*
%TD*%
D16*
%TO.C,J9*%
X77964000Y93473522D03*
D17*
X75464000Y93473522D03*
%TD*%
D18*
%TO.C,F1*%
X78091000Y49785522D03*
D19*
X78091000Y83803522D03*
%TD*%
D18*
%TO.C,F2*%
X58914000Y49785522D03*
D19*
X58914000Y83803522D03*
%TD*%
D18*
%TO.C,F3*%
X40245000Y49912522D03*
D19*
X40245000Y83930522D03*
%TD*%
D18*
%TO.C,F4*%
X20179000Y49404522D03*
D19*
X20179000Y83422522D03*
%TD*%
D20*
%TO.C,Q20*%
X14210000Y88393522D03*
D21*
X14210000Y90933522D03*
X14210000Y93473522D03*
%TD*%
D16*
%TO.C,J8*%
X58914000Y93219522D03*
D17*
X56414000Y93219522D03*
%TD*%
D22*
%TO.C,C2*%
X44893200Y16054322D03*
D23*
X44893200Y13554322D03*
%TD*%
D22*
%TO.C,C8*%
X44613800Y35180522D03*
D23*
X44613800Y32680522D03*
%TD*%
D24*
%TO.C,J2*%
X89648000Y39371522D03*
D25*
X89648000Y36871522D03*
X89648000Y34371522D03*
X89648000Y31871522D03*
%TD*%
D24*
%TO.C,J3*%
X89648000Y17527522D03*
D25*
X89648000Y15027522D03*
X89648000Y12527522D03*
X89648000Y10027522D03*
%TD*%
D16*
%TO.C,J5*%
X22084000Y92457522D03*
D17*
X19584000Y92457522D03*
%TD*%
D16*
%TO.C,J7*%
X40372000Y93219522D03*
D17*
X37872000Y93219522D03*
%TD*%
D20*
%TO.C,Q9*%
X69836000Y89155522D03*
D21*
X69836000Y91695522D03*
X69836000Y94235522D03*
%TD*%
D20*
%TO.C,Q10*%
X50786000Y88901522D03*
D21*
X50786000Y91441522D03*
X50786000Y93981522D03*
%TD*%
D20*
%TO.C,Q19*%
X32498000Y88901522D03*
D21*
X32498000Y91441522D03*
X32498000Y93981522D03*
%TD*%
D14*
%TO.C,U2*%
X67473800Y16740122D03*
D15*
X64933800Y16740122D03*
X62393800Y16740122D03*
X59853800Y16740122D03*
X57313800Y16740122D03*
X54773800Y16740122D03*
X52233800Y16740122D03*
X49693800Y16740122D03*
X49693800Y9120122D03*
X52233800Y9120122D03*
X54773800Y9120122D03*
X57313800Y9120122D03*
X59853800Y9120122D03*
X62393800Y9120122D03*
X64933800Y9120122D03*
X67473800Y9120122D03*
%TD*%
D26*
%TO.C,J1*%
X4075400Y75922122D03*
D27*
X4075400Y70842122D03*
%TD*%
D22*
%TO.C,C16*%
X3923000Y81205322D03*
D23*
X3923000Y83705322D03*
%TD*%
D28*
%TO.C,J10*%
X4761200Y59241322D03*
D29*
X4761200Y57741322D03*
X4761200Y56241322D03*
X4761200Y54741322D03*
X4761200Y53241322D03*
X4761200Y51741322D03*
%TD*%
D26*
%TO.C,J4*%
X27418000Y4319522D03*
D27*
X32498000Y4319522D03*
%TD*%
D30*
%TO.C,H2*%
X86359000Y95494000D03*
D31*
X88759000Y95494000D03*
D30*
X90456056Y93796944D03*
X87061944Y97191056D03*
X88759000Y93094000D03*
X87061944Y93796944D03*
X88759000Y97894000D03*
X90456056Y97191056D03*
X91159000Y95494000D03*
%TD*%
%TO.C,H3*%
X6001056Y96937056D03*
X2606944Y93542944D03*
X4304000Y97640000D03*
X1904000Y95240000D03*
D31*
X4304000Y95240000D03*
D30*
X2606944Y96937056D03*
X4304000Y92840000D03*
X6704000Y95240000D03*
X6001056Y93542944D03*
%TD*%
%TO.C,H4*%
X81266000Y1273000D03*
X81266000Y6073000D03*
X82963056Y5370056D03*
X79568944Y5370056D03*
X82963056Y1975944D03*
X78866000Y3673000D03*
X79568944Y1975944D03*
D31*
X81266000Y3673000D03*
D30*
X83666000Y3673000D03*
%TD*%
D32*
%TO.C,D8*%
X41102000Y95759522D03*
X37102000Y95759522D03*
%TD*%
D33*
%TO.C,D7*%
X33971200Y70737922D03*
X33971200Y67237922D03*
%TD*%
D34*
%TO.C,R18*%
X67804000Y64009522D03*
D35*
X88124000Y64009522D03*
%TD*%
D34*
%TO.C,R20*%
X67550000Y73915522D03*
D35*
X87870000Y73915522D03*
%TD*%
D34*
%TO.C,R34*%
X49008000Y64009522D03*
D35*
X28688000Y64009522D03*
%TD*%
D34*
%TO.C,R36*%
X28688000Y74169522D03*
D35*
X49008000Y74169522D03*
%TD*%
D34*
%TO.C,R37*%
X10146000Y79503522D03*
D35*
X30466000Y79503522D03*
%TD*%
D33*
%TO.C,D9*%
X14641800Y75919522D03*
X14641800Y72419522D03*
%TD*%
D36*
%TO.C,Q17*%
X24928800Y76150722D03*
X24928800Y74220322D03*
X22792000Y75185522D03*
%TD*%
%TO.C,Q18*%
X20356800Y76150722D03*
X20356800Y74220322D03*
X18220000Y75185522D03*
%TD*%
D37*
%TO.C,C24*%
X20327500Y72137522D03*
X18252500Y72137522D03*
%TD*%
D34*
%TO.C,R35*%
X30466000Y68835522D03*
D35*
X10146000Y68835522D03*
%TD*%
D37*
%TO.C,C23*%
X39631500Y67311522D03*
X37556500Y67311522D03*
%TD*%
D34*
%TO.C,R21*%
X48500000Y78995522D03*
D35*
X68820000Y78995522D03*
%TD*%
D34*
%TO.C,R19*%
X48500000Y68581522D03*
D35*
X68820000Y68581522D03*
%TD*%
D38*
%TO.C,R17*%
X54342000Y63009522D03*
X54342000Y65009522D03*
%TD*%
D39*
%TO.C,R13*%
X62232000Y65025522D03*
X64232000Y65025522D03*
%TD*%
D38*
%TO.C,R10*%
X59422000Y56643522D03*
X59422000Y58643522D03*
%TD*%
D40*
%TO.C,R8*%
X63994000Y56881522D03*
X63994000Y54881522D03*
%TD*%
D36*
%TO.C,Q8*%
X58456800Y75896722D03*
X58456800Y73966322D03*
X56320000Y74931522D03*
%TD*%
D41*
%TO.C,Q4*%
X58355200Y62942722D03*
X56424800Y62942722D03*
X57390000Y65079522D03*
%TD*%
D37*
%TO.C,C22*%
X58427500Y71883522D03*
X56352500Y71883522D03*
%TD*%
D33*
%TO.C,D4*%
X52462400Y75665522D03*
X52462400Y72165522D03*
%TD*%
D37*
%TO.C,C9*%
X16238100Y3989322D03*
X14163100Y3989322D03*
%TD*%
D42*
%TO.C,C10*%
X14108400Y6482422D03*
X14108400Y8557422D03*
%TD*%
D43*
%TO.C,C14*%
X20944900Y16079722D03*
X23019900Y16079722D03*
%TD*%
D44*
%TO.C,C15*%
X18781400Y16079722D03*
X15531400Y16079722D03*
%TD*%
D37*
%TO.C,C21*%
X77223500Y67311522D03*
X75148500Y67311522D03*
%TD*%
D33*
%TO.C,D3*%
X71791800Y70839522D03*
X71791800Y67339522D03*
%TD*%
D32*
%TO.C,D5*%
X78795600Y96521522D03*
X74795600Y96521522D03*
%TD*%
%TO.C,D6*%
X59669400Y96013522D03*
X55669400Y96013522D03*
%TD*%
%TO.C,D10*%
X22814000Y95505522D03*
X18814000Y95505522D03*
%TD*%
D41*
%TO.C,Q1*%
X82993200Y56030722D03*
X81062800Y56030722D03*
X82028000Y58167522D03*
%TD*%
%TO.C,Q2*%
X64197200Y60402722D03*
X62266800Y60402722D03*
X63232000Y62539522D03*
%TD*%
%TO.C,Q3*%
X76897200Y58370722D03*
X74966800Y58370722D03*
X75932000Y60507522D03*
%TD*%
D36*
%TO.C,Q5*%
X82078800Y71070722D03*
X82078800Y69140322D03*
X79942000Y70105522D03*
%TD*%
%TO.C,Q6*%
X77252800Y71070722D03*
X77252800Y69140322D03*
X75116000Y70105522D03*
%TD*%
%TO.C,Q7*%
X63282800Y75896722D03*
X63282800Y73966322D03*
X61146000Y74931522D03*
%TD*%
D41*
%TO.C,Q11*%
X45401200Y55776722D03*
X43470800Y55776722D03*
X44436000Y57913522D03*
%TD*%
%TO.C,Q12*%
X25335200Y60856722D03*
X23404800Y60856722D03*
X24370000Y62993522D03*
%TD*%
%TO.C,Q13*%
X39559200Y58370722D03*
X37628800Y58370722D03*
X38594000Y60507522D03*
%TD*%
%TO.C,Q14*%
X19493200Y63196722D03*
X17562800Y63196722D03*
X18528000Y65333522D03*
%TD*%
D36*
%TO.C,Q15*%
X44994800Y71070722D03*
X44994800Y69140322D03*
X42858000Y70105522D03*
%TD*%
%TO.C,Q16*%
X39660800Y71070722D03*
X39660800Y69140322D03*
X37524000Y70105522D03*
%TD*%
D40*
%TO.C,R7*%
X83044000Y53071522D03*
X83044000Y51071522D03*
%TD*%
D38*
%TO.C,R9*%
X78218000Y53103522D03*
X78218000Y55103522D03*
%TD*%
D39*
%TO.C,R11*%
X81028000Y60707522D03*
X83028000Y60707522D03*
%TD*%
D40*
%TO.C,R14*%
X78726000Y60691522D03*
X78726000Y58691522D03*
%TD*%
%TO.C,R15*%
X60184000Y65009522D03*
X60184000Y63009522D03*
%TD*%
D38*
%TO.C,R16*%
X72884000Y58691522D03*
X72884000Y60691522D03*
%TD*%
D40*
%TO.C,R22*%
X45452000Y53325522D03*
X45452000Y51325522D03*
%TD*%
D38*
%TO.C,R23*%
X41134000Y53357522D03*
X41134000Y55357522D03*
%TD*%
D40*
%TO.C,R26*%
X25386000Y57135522D03*
X25386000Y55135522D03*
%TD*%
D38*
%TO.C,R27*%
X21322000Y57167522D03*
X21322000Y59167522D03*
%TD*%
D39*
%TO.C,R28*%
X43436000Y60453522D03*
X45436000Y60453522D03*
%TD*%
D40*
%TO.C,R29*%
X41388000Y60183522D03*
X41388000Y58183522D03*
%TD*%
D39*
%TO.C,R30*%
X23624000Y65279522D03*
X25624000Y65279522D03*
%TD*%
D40*
%TO.C,R31*%
X21322000Y65263522D03*
X21322000Y63263522D03*
%TD*%
D38*
%TO.C,R32*%
X35546000Y58183522D03*
X35546000Y60183522D03*
%TD*%
D40*
%TO.C,R33*%
X15226000Y65263522D03*
X15226000Y63263522D03*
%TD*%
D45*
%TO.C,U3*%
X21056600Y6579722D03*
X18756600Y6579722D03*
D46*
X18756600Y12879722D03*
D45*
X16456600Y6579722D03*
%TD*%
M02*
