%TF.GenerationSoftware,KiCad,Pcbnew,(6.0.2)*%
%TF.CreationDate,2022-05-10T14:08:14+02:00*%
%TF.ProjectId,shake-it-machine_pcb,7368616b-652d-4697-942d-6d616368696e,rev?*%
%TF.SameCoordinates,PXfad696c0PYf0f76bc2*%
%TF.FileFunction,Copper,L1,Top*%
%TF.FilePolarity,Positive*%
%FSLAX46Y46*%
G04 Gerber Fmt 4.6, Leading zero omitted, Abs format (unit mm)*
G04 Created by KiCad (PCBNEW (6.0.2)) date 2022-05-10 14:08:14*
%MOMM*%
%LPD*%
G01*
G04 APERTURE LIST*
G04 Aperture macros list*
%AMRoundRect*
0 Rectangle with rounded corners*
0 $1 Rounding radius*
0 $2 $3 $4 $5 $6 $7 $8 $9 X,Y pos of 4 corners*
0 Add a 4 corners polygon primitive as box body*
4,1,4,$2,$3,$4,$5,$6,$7,$8,$9,$2,$3,0*
0 Add four circle primitives for the rounded corners*
1,1,$1+$1,$2,$3*
1,1,$1+$1,$4,$5*
1,1,$1+$1,$6,$7*
1,1,$1+$1,$8,$9*
0 Add four rect primitives between the rounded corners*
20,1,$1+$1,$2,$3,$4,$5,0*
20,1,$1+$1,$4,$5,$6,$7,0*
20,1,$1+$1,$6,$7,$8,$9,0*
20,1,$1+$1,$8,$9,$2,$3,0*%
G04 Aperture macros list end*
%TA.AperFunction,ComponentPad*%
%ADD10R,1.248000X1.248000*%
%TD*%
%TA.AperFunction,ComponentPad*%
%ADD11C,1.248000*%
%TD*%
%TA.AperFunction,ComponentPad*%
%ADD12RoundRect,0.250000X0.600000X0.750000X-0.600000X0.750000X-0.600000X-0.750000X0.600000X-0.750000X0*%
%TD*%
%TA.AperFunction,ComponentPad*%
%ADD13O,1.700000X2.000000*%
%TD*%
%TA.AperFunction,SMDPad,CuDef*%
%ADD14RoundRect,0.250000X-0.337500X-0.475000X0.337500X-0.475000X0.337500X0.475000X-0.337500X0.475000X0*%
%TD*%
%TA.AperFunction,SMDPad,CuDef*%
%ADD15RoundRect,0.249999X0.400001X-0.412501X0.400001X0.412501X-0.400001X0.412501X-0.400001X-0.412501X0*%
%TD*%
%TA.AperFunction,SMDPad,CuDef*%
%ADD16RoundRect,0.249999X0.450001X-0.350001X0.450001X0.350001X-0.450001X0.350001X-0.450001X-0.350001X0*%
%TD*%
%TA.AperFunction,ComponentPad*%
%ADD17R,3.000000X2.000000*%
%TD*%
%TA.AperFunction,ComponentPad*%
%ADD18O,3.000000X2.000000*%
%TD*%
%TA.AperFunction,ComponentPad*%
%ADD19R,2.000000X1.905000*%
%TD*%
%TA.AperFunction,ComponentPad*%
%ADD20O,2.000000X1.905000*%
%TD*%
%TA.AperFunction,ComponentPad*%
%ADD21R,1.600000X1.600000*%
%TD*%
%TA.AperFunction,ComponentPad*%
%ADD22C,1.600000*%
%TD*%
%TA.AperFunction,SMDPad,CuDef*%
%ADD23RoundRect,0.250000X-0.475000X0.337500X-0.475000X-0.337500X0.475000X-0.337500X0.475000X0.337500X0*%
%TD*%
%TA.AperFunction,SMDPad,CuDef*%
%ADD24RoundRect,0.250000X-0.925000X0.500000X-0.925000X-0.500000X0.925000X-0.500000X0.925000X0.500000X0*%
%TD*%
%TA.AperFunction,SMDPad,CuDef*%
%ADD25RoundRect,0.250000X0.475000X-0.337500X0.475000X0.337500X-0.475000X0.337500X-0.475000X-0.337500X0*%
%TD*%
%TA.AperFunction,ComponentPad*%
%ADD26RoundRect,0.250000X-0.725000X0.600000X-0.725000X-0.600000X0.725000X-0.600000X0.725000X0.600000X0*%
%TD*%
%TA.AperFunction,ComponentPad*%
%ADD27O,1.950000X1.700000*%
%TD*%
%TA.AperFunction,SMDPad,CuDef*%
%ADD28RoundRect,0.150000X-0.625000X0.150000X-0.625000X-0.150000X0.625000X-0.150000X0.625000X0.150000X0*%
%TD*%
%TA.AperFunction,SMDPad,CuDef*%
%ADD29RoundRect,0.249999X-0.650001X0.350001X-0.650001X-0.350001X0.650001X-0.350001X0.650001X0.350001X0*%
%TD*%
%TA.AperFunction,SMDPad,CuDef*%
%ADD30RoundRect,0.249600X-0.650400X0.350400X-0.650400X-0.350400X0.650400X-0.350400X0.650400X0.350400X0*%
%TD*%
%TA.AperFunction,SMDPad,CuDef*%
%ADD31RoundRect,0.249999X0.350001X0.450001X-0.350001X0.450001X-0.350001X-0.450001X0.350001X-0.450001X0*%
%TD*%
%TA.AperFunction,SMDPad,CuDef*%
%ADD32RoundRect,0.249999X-0.450001X0.350001X-0.450001X-0.350001X0.450001X-0.350001X0.450001X0.350001X0*%
%TD*%
%TA.AperFunction,SMDPad,CuDef*%
%ADD33RoundRect,0.249999X-0.350001X-0.450001X0.350001X-0.450001X0.350001X0.450001X-0.350001X0.450001X0*%
%TD*%
%TA.AperFunction,SMDPad,CuDef*%
%ADD34R,1.600000X1.400000*%
%TD*%
%TA.AperFunction,SMDPad,CuDef*%
%ADD35RoundRect,0.213900X0.251100X-0.511100X0.251100X0.511100X-0.251100X0.511100X-0.251100X-0.511100X0*%
%TD*%
%TA.AperFunction,SMDPad,CuDef*%
%ADD36R,4.000000X4.000000*%
%TD*%
%TA.AperFunction,SMDPad,CuDef*%
%ADD37RoundRect,0.249999X0.412501X0.400001X-0.412501X0.400001X-0.412501X-0.400001X0.412501X-0.400001X0*%
%TD*%
%TA.AperFunction,ComponentPad*%
%ADD38R,3.000000X3.000000*%
%TD*%
%TA.AperFunction,ComponentPad*%
%ADD39C,3.000000*%
%TD*%
%TA.AperFunction,ComponentPad*%
%ADD40R,1.500000X1.000000*%
%TD*%
%TA.AperFunction,ComponentPad*%
%ADD41O,1.500000X1.000000*%
%TD*%
%TA.AperFunction,ComponentPad*%
%ADD42C,0.800000*%
%TD*%
%TA.AperFunction,ComponentPad*%
%ADD43C,6.400000*%
%TD*%
%TA.AperFunction,ComponentPad*%
%ADD44C,2.400000*%
%TD*%
%TA.AperFunction,ComponentPad*%
%ADD45O,2.400000X2.400000*%
%TD*%
%TA.AperFunction,ViaPad*%
%ADD46C,1.000000*%
%TD*%
%TA.AperFunction,ViaPad*%
%ADD47C,0.800000*%
%TD*%
%TA.AperFunction,Conductor*%
%ADD48C,0.500000*%
%TD*%
%TA.AperFunction,Conductor*%
%ADD49C,0.250000*%
%TD*%
%TA.AperFunction,Conductor*%
%ADD50C,0.700000*%
%TD*%
%TA.AperFunction,Conductor*%
%ADD51C,1.250000*%
%TD*%
%TA.AperFunction,Conductor*%
%ADD52C,1.000000*%
%TD*%
G04 APERTURE END LIST*
D10*
%TO.P,U1,1*%
%TO.N,Net-(R1-Pad2)*%
X67296000Y35942522D03*
D11*
%TO.P,U1,2*%
%TO.N,STEPPER_1_A*%
X64756000Y35942522D03*
%TO.P,U1,3*%
%TO.N,STEPPER_1_A_OUT*%
X62216000Y35942522D03*
%TO.P,U1,4*%
%TO.N,GND*%
X59676000Y35942522D03*
%TO.P,U1,5*%
X57136000Y35942522D03*
%TO.P,U1,6*%
%TO.N,STEPPER_1_B_OUT*%
X54596000Y35942522D03*
%TO.P,U1,7*%
%TO.N,STEPPER_1_B*%
X52056000Y35942522D03*
%TO.P,U1,8*%
%TO.N,+5V*%
X49516000Y35942522D03*
%TO.P,U1,9*%
%TO.N,Net-(R12-Pad2)*%
X49516000Y28322522D03*
%TO.P,U1,10*%
%TO.N,STEPPER_1_C*%
X52056000Y28322522D03*
%TO.P,U1,11*%
%TO.N,STEPPER_1_C_OUT*%
X54596000Y28322522D03*
%TO.P,U1,12*%
%TO.N,GND*%
X57136000Y28322522D03*
%TO.P,U1,13*%
X59676000Y28322522D03*
%TO.P,U1,14*%
%TO.N,STEPPER_1_D_OUT*%
X62216000Y28322522D03*
%TO.P,U1,15*%
%TO.N,STEPPER_1_D*%
X64756000Y28322522D03*
%TO.P,U1,16*%
%TO.N,+5V*%
X67296000Y28322522D03*
%TD*%
D12*
%TO.P,J9,1*%
%TO.N,MOTOR_4+*%
X77964000Y93473522D03*
D13*
%TO.P,J9,2*%
%TO.N,MOTOR_4-*%
X75464000Y93473522D03*
%TD*%
D14*
%TO.P,C7,1*%
%TO.N,+5V*%
X69763700Y8764522D03*
%TO.P,C7,2*%
%TO.N,GND*%
X71838700Y8764522D03*
%TD*%
D15*
%TO.P,D11,1*%
%TO.N,Net-(D11-Pad1)*%
X75424000Y87230522D03*
%TO.P,D11,2*%
%TO.N,+12V*%
X75424000Y89155522D03*
%TD*%
%TO.P,D12,1*%
%TO.N,Net-(D12-Pad1)*%
X56120000Y86923022D03*
%TO.P,D12,2*%
%TO.N,+12V*%
X56120000Y88848022D03*
%TD*%
%TO.P,D13,1*%
%TO.N,Net-(D13-Pad1)*%
X38086000Y87177022D03*
%TO.P,D13,2*%
%TO.N,+12V*%
X38086000Y89102022D03*
%TD*%
%TO.P,D14,1*%
%TO.N,Net-(D14-Pad1)*%
X19290000Y86669022D03*
%TO.P,D14,2*%
%TO.N,+12V*%
X19290000Y88594022D03*
%TD*%
D16*
%TO.P,R38,1*%
%TO.N,Net-(D11-Pad1)*%
X73138000Y87139522D03*
%TO.P,R38,2*%
%TO.N,MOTOR_4-*%
X73138000Y89139522D03*
%TD*%
%TO.P,R39,1*%
%TO.N,Net-(D12-Pad1)*%
X54088000Y86885522D03*
%TO.P,R39,2*%
%TO.N,MOTOR_3-*%
X54088000Y88885522D03*
%TD*%
%TO.P,R40,1*%
%TO.N,Net-(D13-Pad1)*%
X36054000Y87139522D03*
%TO.P,R40,2*%
%TO.N,MOTOR_2-*%
X36054000Y89139522D03*
%TD*%
%TO.P,R41,1*%
%TO.N,Net-(D14-Pad1)*%
X17258000Y86631522D03*
%TO.P,R41,2*%
%TO.N,MOTOR_1-*%
X17258000Y88631522D03*
%TD*%
D17*
%TO.P,F1,1*%
%TO.N,+12V*%
X78091000Y49785522D03*
D18*
%TO.P,F1,2*%
%TO.N,MOTOR_4+*%
X78091000Y83803522D03*
%TD*%
D17*
%TO.P,F2,1*%
%TO.N,+12V*%
X58914000Y49785522D03*
D18*
%TO.P,F2,2*%
%TO.N,MOTOR_3+*%
X58914000Y83803522D03*
%TD*%
D17*
%TO.P,F3,1*%
%TO.N,+12V*%
X40245000Y49912522D03*
D18*
%TO.P,F3,2*%
%TO.N,MOTOR_2+*%
X40245000Y83930522D03*
%TD*%
D17*
%TO.P,F4,1*%
%TO.N,+12V*%
X20179000Y49404522D03*
D18*
%TO.P,F4,2*%
%TO.N,MOTOR_1+*%
X20179000Y83422522D03*
%TD*%
D19*
%TO.P,Q20,1*%
%TO.N,Net-(D9-Pad1)*%
X14210000Y88393522D03*
D20*
%TO.P,Q20,2*%
%TO.N,MOTOR_1-*%
X14210000Y90933522D03*
%TO.P,Q20,3*%
%TO.N,GND*%
X14210000Y93473522D03*
%TD*%
D12*
%TO.P,J8,1*%
%TO.N,MOTOR_3+*%
X58914000Y93219522D03*
D13*
%TO.P,J8,2*%
%TO.N,MOTOR_3-*%
X56414000Y93219522D03*
%TD*%
D16*
%TO.P,R4,1*%
%TO.N,Net-(D2-Pad1)*%
X30847000Y31996122D03*
%TO.P,R4,2*%
%TO.N,GND*%
X30847000Y33996122D03*
%TD*%
D14*
%TO.P,C1,1*%
%TO.N,+5V*%
X69585900Y28093922D03*
%TO.P,C1,2*%
%TO.N,GND*%
X71660900Y28093922D03*
%TD*%
D21*
%TO.P,C2,1*%
%TO.N,+5V*%
X44893200Y16054322D03*
D22*
%TO.P,C2,2*%
%TO.N,GND*%
X44893200Y13554322D03*
%TD*%
D23*
%TO.P,C3,1*%
%TO.N,+5V*%
X39965600Y35583022D03*
%TO.P,C3,2*%
%TO.N,GND*%
X39965600Y33508022D03*
%TD*%
D14*
%TO.P,C4,1*%
%TO.N,+5V*%
X69585900Y30202122D03*
%TO.P,C4,2*%
%TO.N,GND*%
X71660900Y30202122D03*
%TD*%
%TO.P,C5,1*%
%TO.N,+5V*%
X69763700Y10796522D03*
%TO.P,C5,2*%
%TO.N,GND*%
X71838700Y10796522D03*
%TD*%
D23*
%TO.P,C6,1*%
%TO.N,+5V*%
X40346600Y17015622D03*
%TO.P,C6,2*%
%TO.N,GND*%
X40346600Y14940622D03*
%TD*%
D21*
%TO.P,C8,1*%
%TO.N,+5V*%
X44613800Y35180522D03*
D22*
%TO.P,C8,2*%
%TO.N,GND*%
X44613800Y32680522D03*
%TD*%
D14*
%TO.P,C17,1*%
%TO.N,+3V3*%
X7635300Y5335522D03*
%TO.P,C17,2*%
%TO.N,GND*%
X9710300Y5335522D03*
%TD*%
D24*
%TO.P,C18,1*%
%TO.N,+3V3*%
X1764000Y18644522D03*
%TO.P,C18,2*%
%TO.N,GND*%
X1764000Y15394522D03*
%TD*%
D14*
%TO.P,C19,1*%
%TO.N,+3V3*%
X4688900Y15368522D03*
%TO.P,C19,2*%
%TO.N,GND*%
X6763900Y15368522D03*
%TD*%
D25*
%TO.P,C20,1*%
%TO.N,GND*%
X6844000Y17252022D03*
%TO.P,C20,2*%
%TO.N,ESP_EN*%
X6844000Y19327022D03*
%TD*%
D26*
%TO.P,J2,1*%
%TO.N,STEPPER_1_A_OUT*%
X89648000Y39371522D03*
D27*
%TO.P,J2,2*%
%TO.N,STEPPER_1_B_OUT*%
X89648000Y36871522D03*
%TO.P,J2,3*%
%TO.N,STEPPER_1_C_OUT*%
X89648000Y34371522D03*
%TO.P,J2,4*%
%TO.N,STEPPER_1_D_OUT*%
X89648000Y31871522D03*
%TD*%
D26*
%TO.P,J3,1*%
%TO.N,STEPPER_2_A_OUT*%
X89648000Y17527522D03*
D27*
%TO.P,J3,2*%
%TO.N,STEPPER_2_B_OUT*%
X89648000Y15027522D03*
%TO.P,J3,3*%
%TO.N,STEPPER_2_C_OUT*%
X89648000Y12527522D03*
%TO.P,J3,4*%
%TO.N,STEPPER_2_D_OUT*%
X89648000Y10027522D03*
%TD*%
D12*
%TO.P,J5,1*%
%TO.N,MOTOR_1+*%
X22084000Y92457522D03*
D13*
%TO.P,J5,2*%
%TO.N,MOTOR_1-*%
X19584000Y92457522D03*
%TD*%
D28*
%TO.P,J6,1*%
%TO.N,ESP_EN*%
X5288000Y11899522D03*
%TO.P,J6,2*%
%TO.N,ESP_BOOT*%
X5288000Y10899522D03*
%TO.P,J6,3*%
%TO.N,ESP_RX*%
X5288000Y9899522D03*
%TO.P,J6,4*%
%TO.N,ESP_TX*%
X5288000Y8899522D03*
%TO.P,J6,5*%
%TO.N,GND*%
X5288000Y7899522D03*
%TO.P,J6,6*%
%TO.N,+3V3*%
X5288000Y6899522D03*
D29*
%TO.P,J6,MP*%
%TO.N,N/C*%
X1413000Y5599522D03*
D30*
X1413000Y13199522D03*
%TD*%
D12*
%TO.P,J7,1*%
%TO.N,MOTOR_2+*%
X40372000Y93219522D03*
D13*
%TO.P,J7,2*%
%TO.N,MOTOR_2-*%
X37872000Y93219522D03*
%TD*%
D19*
%TO.P,Q9,1*%
%TO.N,Net-(D3-Pad1)*%
X69836000Y89155522D03*
D20*
%TO.P,Q9,2*%
%TO.N,MOTOR_4-*%
X69836000Y91695522D03*
%TO.P,Q9,3*%
%TO.N,GND*%
X69836000Y94235522D03*
%TD*%
D19*
%TO.P,Q10,1*%
%TO.N,Net-(D4-Pad1)*%
X50786000Y88901522D03*
D20*
%TO.P,Q10,2*%
%TO.N,MOTOR_3-*%
X50786000Y91441522D03*
%TO.P,Q10,3*%
%TO.N,GND*%
X50786000Y93981522D03*
%TD*%
D19*
%TO.P,Q19,1*%
%TO.N,Net-(D7-Pad1)*%
X32498000Y88901522D03*
D20*
%TO.P,Q19,2*%
%TO.N,MOTOR_2-*%
X32498000Y91441522D03*
%TO.P,Q19,3*%
%TO.N,GND*%
X32498000Y93981522D03*
%TD*%
D31*
%TO.P,R1,1*%
%TO.N,+5V*%
X71521800Y36018722D03*
%TO.P,R1,2*%
%TO.N,Net-(R1-Pad2)*%
X69521800Y36018722D03*
%TD*%
D32*
%TO.P,R2,1*%
%TO.N,+3V3*%
X11619200Y43165522D03*
%TO.P,R2,2*%
%TO.N,RESET_RESET-CONFIG*%
X11619200Y41165522D03*
%TD*%
D16*
%TO.P,R5,1*%
%TO.N,+3V3*%
X4812000Y17289522D03*
%TO.P,R5,2*%
%TO.N,ESP_EN*%
X4812000Y19289522D03*
%TD*%
D32*
%TO.P,R6,1*%
%TO.N,+3V3*%
X17639000Y43276522D03*
%TO.P,R6,2*%
%TO.N,ESP_BOOT*%
X17639000Y41276522D03*
%TD*%
D33*
%TO.P,R12,1*%
%TO.N,+5V*%
X45315600Y28017722D03*
%TO.P,R12,2*%
%TO.N,Net-(R12-Pad2)*%
X47315600Y28017722D03*
%TD*%
D31*
%TO.P,R24,1*%
%TO.N,+5V*%
X71674200Y16994122D03*
%TO.P,R24,2*%
%TO.N,Net-(R24-Pad2)*%
X69674200Y16994122D03*
%TD*%
D33*
%TO.P,R25,1*%
%TO.N,+5V*%
X45442600Y8739122D03*
%TO.P,R25,2*%
%TO.N,Net-(R25-Pad2)*%
X47442600Y8739122D03*
%TD*%
D10*
%TO.P,U2,1*%
%TO.N,Net-(R24-Pad2)*%
X67473800Y16740122D03*
D11*
%TO.P,U2,2*%
%TO.N,STEPPER_2_A*%
X64933800Y16740122D03*
%TO.P,U2,3*%
%TO.N,STEPPER_2_A_OUT*%
X62393800Y16740122D03*
%TO.P,U2,4*%
%TO.N,GND*%
X59853800Y16740122D03*
%TO.P,U2,5*%
X57313800Y16740122D03*
%TO.P,U2,6*%
%TO.N,STEPPER_2_B_OUT*%
X54773800Y16740122D03*
%TO.P,U2,7*%
%TO.N,STEPPER_2_B*%
X52233800Y16740122D03*
%TO.P,U2,8*%
%TO.N,+5V*%
X49693800Y16740122D03*
%TO.P,U2,9*%
%TO.N,Net-(R25-Pad2)*%
X49693800Y9120122D03*
%TO.P,U2,10*%
%TO.N,STEPPER_2_C*%
X52233800Y9120122D03*
%TO.P,U2,11*%
%TO.N,STEPPER_2_C_OUT*%
X54773800Y9120122D03*
%TO.P,U2,12*%
%TO.N,GND*%
X57313800Y9120122D03*
%TO.P,U2,13*%
X59853800Y9120122D03*
%TO.P,U2,14*%
%TO.N,STEPPER_2_D_OUT*%
X62393800Y9120122D03*
%TO.P,U2,15*%
%TO.N,STEPPER_2_D*%
X64933800Y9120122D03*
%TO.P,U2,16*%
%TO.N,+5V*%
X67473800Y9120122D03*
%TD*%
D34*
%TO.P,SW1,1*%
%TO.N,RESET_RESET-CONFIG*%
X9320000Y41439522D03*
%TO.P,SW1,2*%
X1320000Y41439522D03*
%TO.P,SW1,3*%
%TO.N,GND*%
X9320000Y45939522D03*
%TO.P,SW1,4*%
X1320000Y45939522D03*
%TD*%
D32*
%TO.P,R3,1*%
%TO.N,Net-(D1-Pad1)*%
X30897800Y27544522D03*
%TO.P,R3,2*%
%TO.N,GND*%
X30897800Y25544522D03*
%TD*%
D35*
%TO.P,A1,1*%
%TO.N,GND*%
X1124000Y21417522D03*
%TO.P,A1,2*%
%TO.N,+3V3*%
X2394000Y21417522D03*
%TO.P,A1,3*%
%TO.N,ESP_EN*%
X3664000Y21417522D03*
%TO.P,A1,4*%
%TO.N,Net-(A1-Pad4)*%
X4934000Y21417522D03*
%TO.P,A1,5*%
%TO.N,Net-(A1-Pad5)*%
X6204000Y21417522D03*
%TO.P,A1,6*%
%TO.N,RESET_RESET-CONFIG*%
X7474000Y21417522D03*
%TO.P,A1,7*%
%TO.N,TS_RX*%
X8744000Y21417522D03*
%TO.P,A1,8*%
%TO.N,STEPPER_2_C*%
X10014000Y21417522D03*
%TO.P,A1,9*%
%TO.N,STEPPER_2_D*%
X11284000Y21417522D03*
%TO.P,A1,10*%
%TO.N,STEPPER_2_B*%
X12554000Y21417522D03*
%TO.P,A1,11*%
%TO.N,MOTOR_2*%
X13824000Y21417522D03*
%TO.P,A1,12*%
%TO.N,MOTOR_1*%
X15094000Y21417522D03*
%TO.P,A1,13*%
%TO.N,STATUS_0*%
X16364000Y21417522D03*
%TO.P,A1,14*%
%TO.N,Net-(A1-Pad14)*%
X17634000Y21417522D03*
%TO.P,A1,15*%
%TO.N,GND*%
X18904000Y21417522D03*
%TO.P,A1,16*%
%TO.N,STEPPER_1_A*%
X20174000Y21417522D03*
%TO.P,A1,17*%
%TO.N,Net-(A1-Pad17)*%
X21444000Y21417522D03*
%TO.P,A1,18*%
%TO.N,Net-(A1-Pad18)*%
X22714000Y21417522D03*
%TO.P,A1,19*%
%TO.N,Net-(A1-Pad19)*%
X23984000Y21417522D03*
%TO.P,A1,20*%
%TO.N,Net-(A1-Pad20)*%
X23984000Y39037522D03*
%TO.P,A1,21*%
%TO.N,Net-(A1-Pad21)*%
X22714000Y39037522D03*
%TO.P,A1,22*%
%TO.N,Net-(A1-Pad22)*%
X21444000Y39037522D03*
%TO.P,A1,23*%
%TO.N,STATUS_1*%
X20174000Y39037522D03*
%TO.P,A1,24*%
%TO.N,MOTOR_3*%
X18904000Y39037522D03*
%TO.P,A1,25*%
%TO.N,ESP_BOOT*%
X17634000Y39037522D03*
%TO.P,A1,26*%
%TO.N,MOTOR_4*%
X16364000Y39037522D03*
%TO.P,A1,27*%
%TO.N,N/C*%
X15094000Y39037522D03*
%TO.P,A1,28*%
X13824000Y39037522D03*
%TO.P,A1,29*%
%TO.N,Net-(A1-Pad29)*%
X12554000Y39037522D03*
%TO.P,A1,30*%
%TO.N,STEPPER_1_B*%
X11284000Y39037522D03*
%TO.P,A1,31*%
%TO.N,STEPPER_1_C*%
X10014000Y39037522D03*
%TO.P,A1,32*%
%TO.N,N/C*%
X8744000Y39037522D03*
%TO.P,A1,33*%
%TO.N,STEPPER_1_D*%
X7474000Y39037522D03*
%TO.P,A1,34*%
%TO.N,ESP_RX*%
X6204000Y39037522D03*
%TO.P,A1,35*%
%TO.N,ESP_TX*%
X4934000Y39037522D03*
%TO.P,A1,36*%
%TO.N,STEPPER_2_A*%
X3664000Y39037522D03*
%TO.P,A1,37*%
%TO.N,TS_TX*%
X2394000Y39037522D03*
%TO.P,A1,38*%
%TO.N,GND*%
X1124000Y39037522D03*
D36*
%TO.P,A1,39*%
X8914000Y28847522D03*
%TD*%
D37*
%TO.P,D1,1*%
%TO.N,Net-(D1-Pad1)*%
X28761500Y27484322D03*
%TO.P,D1,2*%
%TO.N,STATUS_0*%
X26836500Y27484322D03*
%TD*%
%TO.P,D2,1*%
%TO.N,Net-(D2-Pad1)*%
X28685300Y32005522D03*
%TO.P,D2,2*%
%TO.N,STATUS_1*%
X26760300Y32005522D03*
%TD*%
D38*
%TO.P,J1,1*%
%TO.N,+12V*%
X4075400Y75922122D03*
D39*
%TO.P,J1,2*%
%TO.N,GND*%
X4075400Y70842122D03*
%TD*%
D25*
%TO.P,C12,1*%
%TO.N,+12V*%
X30847000Y48671822D03*
%TO.P,C12,2*%
%TO.N,GND*%
X30847000Y50746822D03*
%TD*%
D21*
%TO.P,C16,1*%
%TO.N,+12V*%
X3923000Y81205322D03*
D22*
%TO.P,C16,2*%
%TO.N,GND*%
X3923000Y83705322D03*
%TD*%
D25*
%TO.P,C13,1*%
%TO.N,+12V*%
X50862200Y48544822D03*
%TO.P,C13,2*%
%TO.N,GND*%
X50862200Y50619822D03*
%TD*%
%TO.P,C11,1*%
%TO.N,+12V*%
X69836000Y48240022D03*
%TO.P,C11,2*%
%TO.N,GND*%
X69836000Y50315022D03*
%TD*%
D40*
%TO.P,J10,1*%
%TO.N,+5V*%
X4761200Y59241322D03*
D41*
%TO.P,J10,2*%
X4761200Y57741322D03*
%TO.P,J10,3*%
%TO.N,TS_RX*%
X4761200Y56241322D03*
%TO.P,J10,4*%
%TO.N,TS_TX*%
X4761200Y54741322D03*
%TO.P,J10,5*%
%TO.N,GND*%
X4761200Y53241322D03*
%TO.P,J10,6*%
X4761200Y51741322D03*
%TD*%
D38*
%TO.P,J4,1*%
%TO.N,+5V*%
X27418000Y4319522D03*
D39*
%TO.P,J4,2*%
%TO.N,GND*%
X32498000Y4319522D03*
%TD*%
D42*
%TO.P,H2,1*%
%TO.N,GND*%
X86359000Y95494000D03*
D43*
X88759000Y95494000D03*
D42*
X90456056Y93796944D03*
X87061944Y97191056D03*
X88759000Y93094000D03*
X87061944Y93796944D03*
X88759000Y97894000D03*
X90456056Y97191056D03*
X91159000Y95494000D03*
%TD*%
%TO.P,H3,1*%
%TO.N,GND*%
X6001056Y96937056D03*
X2606944Y93542944D03*
X4304000Y97640000D03*
X1904000Y95240000D03*
D43*
X4304000Y95240000D03*
D42*
X2606944Y96937056D03*
X4304000Y92840000D03*
X6704000Y95240000D03*
X6001056Y93542944D03*
%TD*%
%TO.P,H4,1*%
%TO.N,GND*%
X81266000Y1273000D03*
X81266000Y6073000D03*
X82963056Y5370056D03*
X79568944Y5370056D03*
X82963056Y1975944D03*
X78866000Y3673000D03*
X79568944Y1975944D03*
D43*
X81266000Y3673000D03*
D42*
X83666000Y3673000D03*
%TD*%
D44*
%TO.P,R18,1*%
%TO.N,Net-(Q5-Pad1)*%
X67804000Y64009522D03*
D45*
%TO.P,R18,2*%
%TO.N,Net-(Q3-Pad3)*%
X88124000Y64009522D03*
%TD*%
D44*
%TO.P,R20,1*%
%TO.N,Net-(D3-Pad1)*%
X67550000Y73915522D03*
D45*
%TO.P,R20,2*%
%TO.N,Net-(Q5-Pad2)*%
X87870000Y73915522D03*
%TD*%
D44*
%TO.P,R34,1*%
%TO.N,Net-(Q15-Pad1)*%
X49008000Y64009522D03*
D45*
%TO.P,R34,2*%
%TO.N,Net-(Q13-Pad3)*%
X28688000Y64009522D03*
%TD*%
D44*
%TO.P,R36,1*%
%TO.N,Net-(D7-Pad1)*%
X28688000Y74169522D03*
D45*
%TO.P,R36,2*%
%TO.N,Net-(Q15-Pad2)*%
X49008000Y74169522D03*
%TD*%
D44*
%TO.P,R37,1*%
%TO.N,Net-(D9-Pad1)*%
X10146000Y79503522D03*
D45*
%TO.P,R37,2*%
%TO.N,Net-(Q17-Pad2)*%
X30466000Y79503522D03*
%TD*%
D44*
%TO.P,R35,1*%
%TO.N,Net-(Q17-Pad1)*%
X30466000Y68835522D03*
D45*
%TO.P,R35,2*%
%TO.N,Net-(Q14-Pad3)*%
X10146000Y68835522D03*
%TD*%
D44*
%TO.P,R21,1*%
%TO.N,Net-(D4-Pad1)*%
X48500000Y78995522D03*
D45*
%TO.P,R21,2*%
%TO.N,Net-(Q7-Pad2)*%
X68820000Y78995522D03*
%TD*%
D44*
%TO.P,R19,1*%
%TO.N,Net-(Q7-Pad1)*%
X48500000Y68581522D03*
D45*
%TO.P,R19,2*%
%TO.N,Net-(Q4-Pad3)*%
X68820000Y68581522D03*
%TD*%
D46*
%TO.N,GND*%
X8090000Y31116522D03*
X9590000Y31116522D03*
X11090000Y31116522D03*
X6590000Y29616522D03*
X8090000Y29616522D03*
X9590000Y29616522D03*
X11090000Y29616522D03*
X6590000Y28116522D03*
X8090000Y28116522D03*
X9590000Y28116522D03*
X11090000Y28116522D03*
X6590000Y26616522D03*
X8090000Y26616522D03*
X9590000Y26616522D03*
X11090000Y26616522D03*
X41084600Y44451522D03*
X42584600Y44451522D03*
X44084600Y44451522D03*
X45584600Y44451522D03*
X47084600Y44451522D03*
X48584600Y44451522D03*
X50084600Y44451522D03*
X51584600Y44451522D03*
X53084600Y44451522D03*
X54584600Y44451522D03*
X56084600Y44451522D03*
X57584600Y44451522D03*
X59084600Y44451522D03*
X60584600Y44451522D03*
X62084600Y44451522D03*
X63584600Y44451522D03*
X65084600Y44451522D03*
X66584600Y44451522D03*
X68084600Y44451522D03*
X69584600Y44451522D03*
X71084600Y44451522D03*
X72584600Y44451522D03*
X74084600Y44451522D03*
X39584600Y42951522D03*
X41084600Y42951522D03*
X42584600Y42951522D03*
X44084600Y42951522D03*
X45584600Y42951522D03*
X47084600Y42951522D03*
X48584600Y42951522D03*
X50084600Y42951522D03*
X51584600Y42951522D03*
X53084600Y42951522D03*
X54584600Y42951522D03*
X56084600Y42951522D03*
X57584600Y42951522D03*
X59084600Y42951522D03*
X60584600Y42951522D03*
X62084600Y42951522D03*
X63584600Y42951522D03*
X65084600Y42951522D03*
X66584600Y42951522D03*
X68084600Y42951522D03*
X69584600Y42951522D03*
X71084600Y42951522D03*
X72584600Y42951522D03*
X74084600Y42951522D03*
X39584600Y41451522D03*
X41084600Y41451522D03*
X42584600Y41451522D03*
X44084600Y41451522D03*
X45584600Y41451522D03*
X47084600Y41451522D03*
X48584600Y41451522D03*
X50084600Y41451522D03*
X51584600Y41451522D03*
X53084600Y41451522D03*
X54584600Y41451522D03*
X56084600Y41451522D03*
X57584600Y41451522D03*
X59084600Y41451522D03*
X60584600Y41451522D03*
X62084600Y41451522D03*
X63584600Y41451522D03*
X65084600Y41451522D03*
X66584600Y41451522D03*
X68084600Y41451522D03*
X69584600Y41451522D03*
X71084600Y41451522D03*
X72584600Y41451522D03*
X74084600Y41451522D03*
X39584600Y39951522D03*
X41084600Y39951522D03*
X42584600Y39951522D03*
X44084600Y39951522D03*
X45584600Y39951522D03*
X47084600Y39951522D03*
X48584600Y39951522D03*
X50084600Y39951522D03*
X51584600Y39951522D03*
X53084600Y39951522D03*
X54584600Y39951522D03*
X56084600Y39951522D03*
X57584600Y39951522D03*
X59084600Y39951522D03*
X60584600Y39951522D03*
X62084600Y39951522D03*
X63584600Y39951522D03*
X65084600Y39951522D03*
X66584600Y39951522D03*
X68084600Y39951522D03*
X69584600Y39951522D03*
X71084600Y39951522D03*
X72584600Y39951522D03*
X74084600Y39951522D03*
X39584600Y38451522D03*
X41084600Y38451522D03*
X42584600Y38451522D03*
X44084600Y38451522D03*
X45584600Y38451522D03*
X47084600Y38451522D03*
X48584600Y38451522D03*
X50084600Y38451522D03*
X51584600Y38451522D03*
X53084600Y38451522D03*
X54584600Y38451522D03*
X56084600Y38451522D03*
X57584600Y38451522D03*
X59084600Y38451522D03*
X60584600Y38451522D03*
X62084600Y38451522D03*
X63584600Y38451522D03*
X65084600Y38451522D03*
X66584600Y38451522D03*
X68084600Y38451522D03*
X69584600Y38451522D03*
X71084600Y38451522D03*
X72584600Y38451522D03*
X74084600Y38451522D03*
X74135400Y23417522D03*
X39635400Y21917522D03*
X41135400Y21917522D03*
X48635400Y21917522D03*
X53135400Y21917522D03*
X54635400Y21917522D03*
X56135400Y21917522D03*
X72635400Y23417522D03*
X44135400Y21917522D03*
X47135400Y21917522D03*
X51635400Y21917522D03*
X57635400Y21917522D03*
X42635400Y21917522D03*
X50135400Y21917522D03*
X59135400Y21917522D03*
X71135400Y23417522D03*
X45635400Y21917522D03*
X45635400Y26417522D03*
X66635400Y26417522D03*
X44135400Y26417522D03*
X44135400Y24917522D03*
X47135400Y24917522D03*
X69635400Y26417522D03*
X50135400Y26417522D03*
X53135400Y24917522D03*
X56135400Y24917522D03*
X74135400Y26417522D03*
X51635400Y26417522D03*
X62135400Y24917522D03*
X65135400Y26417522D03*
X65135400Y24917522D03*
X66635400Y24917522D03*
X68135400Y24917522D03*
X69635400Y24917522D03*
X72635400Y24917522D03*
X57635400Y26417522D03*
X74135400Y24917522D03*
X41135400Y23417522D03*
X42635400Y23417522D03*
X47135400Y23417522D03*
X68135400Y26417522D03*
X51635400Y24917522D03*
X45635400Y24917522D03*
X44135400Y23417522D03*
X50135400Y23417522D03*
X54635400Y24917522D03*
X48635400Y23417522D03*
X48635400Y26417522D03*
X45635400Y23417522D03*
X57635400Y24917522D03*
X71135400Y26417522D03*
X60635400Y26417522D03*
X71135400Y24917522D03*
X39635400Y23417522D03*
X51635400Y23417522D03*
X42635400Y24917522D03*
X41135400Y26417522D03*
X62135400Y26417522D03*
X72635400Y26417522D03*
X39635400Y24917522D03*
X48635400Y24917522D03*
X59135400Y26417522D03*
X42635400Y26417522D03*
X41135400Y24917522D03*
X56135400Y26417522D03*
X54635400Y26417522D03*
X50135400Y24917522D03*
X60635400Y24917522D03*
X47135400Y26417522D03*
X53135400Y26417522D03*
X59135400Y24917522D03*
X63635400Y24917522D03*
X63635400Y26417522D03*
X53135400Y23417522D03*
X57635400Y23417522D03*
X56135400Y23417522D03*
X63635400Y23417522D03*
X69635400Y23417522D03*
X68135400Y23417522D03*
X60635400Y23417522D03*
X54635400Y23417522D03*
X65135400Y23417522D03*
X66635400Y23417522D03*
X62135400Y23417522D03*
X59135400Y23417522D03*
X39635400Y26417522D03*
X57635400Y20417522D03*
X65135400Y20417522D03*
X66635400Y20417522D03*
X54635400Y20417522D03*
X65135400Y21917522D03*
X62135400Y20417522D03*
X44135400Y20417522D03*
X51635400Y20417522D03*
X53135400Y20417522D03*
X66635400Y21917522D03*
X71135400Y21917522D03*
X63635400Y21917522D03*
X60635400Y20417522D03*
X63635400Y20417522D03*
X68135400Y20417522D03*
X62135400Y21917522D03*
X39635400Y20417522D03*
X59135400Y20417522D03*
X74135400Y21917522D03*
X41135400Y20417522D03*
X45635400Y20417522D03*
X48635400Y20417522D03*
X71135400Y20417522D03*
X72635400Y20417522D03*
X56135400Y20417522D03*
X47135400Y20417522D03*
X74135400Y20417522D03*
X72635400Y21917522D03*
X42635400Y20417522D03*
X69635400Y20417522D03*
X50135400Y20417522D03*
X69635400Y21917522D03*
X60635400Y21917522D03*
X68135400Y21917522D03*
X60686200Y19071322D03*
X59186200Y19071322D03*
X41186200Y19071322D03*
X39686200Y19071322D03*
X57686200Y19071322D03*
X62186200Y19071322D03*
X63686200Y19071322D03*
X51686200Y19071322D03*
X44186200Y19071322D03*
X53186200Y19071322D03*
X68186200Y19071322D03*
X66686200Y19071322D03*
X54686200Y19071322D03*
X65186200Y19071322D03*
X45686200Y19071322D03*
X47186200Y19071322D03*
X48686200Y19071322D03*
X74186200Y19071322D03*
X71186200Y19071322D03*
X69686200Y19071322D03*
X50186200Y19071322D03*
X72686200Y19071322D03*
X56186200Y19071322D03*
X42686200Y19071322D03*
X57711600Y34793922D03*
X60711600Y34793922D03*
X59211600Y34793922D03*
X56211600Y34793922D03*
X57737000Y10282922D03*
X56237000Y10282922D03*
X59237000Y10282922D03*
X60686200Y15489922D03*
X59186200Y15489922D03*
X57686200Y15489922D03*
X60737000Y10282922D03*
X56186200Y15489922D03*
D47*
X6513800Y7875522D03*
D46*
X74084600Y2613522D03*
X71084600Y7113522D03*
X60584600Y1113522D03*
X62084600Y5613522D03*
D47*
X1230600Y47067722D03*
D46*
X47084600Y5613522D03*
X51584600Y4113522D03*
X59262400Y29586922D03*
X41084600Y5613522D03*
D47*
X1103600Y37898322D03*
D46*
X72584600Y7113522D03*
X41084600Y1113522D03*
X59084600Y1113522D03*
D47*
X41134000Y56389522D03*
D46*
X57762400Y29586922D03*
X65084600Y5613522D03*
D47*
X7809200Y16511522D03*
D46*
X45584600Y4113522D03*
X54584600Y5613522D03*
X62084600Y7113522D03*
X53084600Y5613522D03*
X62084600Y2613522D03*
X63584600Y1113522D03*
X56262400Y29586922D03*
X50084600Y2613522D03*
X48584600Y7113522D03*
D47*
X72630000Y27941522D03*
D46*
X53084600Y2613522D03*
X45584600Y2613522D03*
X71084600Y4113522D03*
X65084600Y7113522D03*
X59084600Y7113522D03*
D47*
X41311800Y72747122D03*
D46*
X68084600Y4113522D03*
X42584600Y1113522D03*
X47084600Y2613522D03*
X60762400Y29586922D03*
D47*
X31939200Y34037522D03*
D46*
X39584600Y4113522D03*
X62084600Y4113522D03*
X72584600Y4113522D03*
D47*
X10704800Y5386322D03*
D46*
X56084600Y5613522D03*
X56084600Y4113522D03*
X54584600Y4113522D03*
X50084600Y7113522D03*
X50084600Y5613522D03*
D47*
X78649800Y72493122D03*
D46*
X69584600Y1113522D03*
X47084600Y7113522D03*
D47*
X41311800Y70105522D03*
D46*
X56084600Y7113522D03*
X65084600Y4113522D03*
X57584600Y2613522D03*
X39584600Y5613522D03*
X51584600Y1113522D03*
X57584600Y7113522D03*
X53084600Y1113522D03*
D47*
X18883600Y22556722D03*
D46*
X50084600Y4113522D03*
X44084600Y2613522D03*
X66584600Y1113522D03*
X48584600Y1113522D03*
X60584600Y2613522D03*
X63584600Y4113522D03*
D47*
X21525200Y78081122D03*
D46*
X51584600Y2613522D03*
X57584600Y5613522D03*
X57584600Y1113522D03*
X50084600Y1113522D03*
X54584600Y1113522D03*
X60584600Y5613522D03*
X72960200Y9043922D03*
D47*
X21525200Y75185522D03*
X7606000Y14504922D03*
X30872400Y51842922D03*
D46*
X68084600Y2613522D03*
X71084600Y1113522D03*
X68084600Y1113522D03*
X66584600Y4113522D03*
D47*
X78649800Y70130922D03*
D46*
X54584600Y2613522D03*
X48584600Y5613522D03*
X65084600Y1113522D03*
X48584600Y4113522D03*
X42584600Y5613522D03*
X44084600Y7113522D03*
X44084600Y4113522D03*
X45584600Y1113522D03*
X47084600Y4113522D03*
X47084600Y1113522D03*
D47*
X72630000Y30227522D03*
X2907000Y14276322D03*
D46*
X69584600Y7113522D03*
X39584600Y1113522D03*
X69584600Y2613522D03*
D47*
X69836000Y51385722D03*
D46*
X42584600Y4113522D03*
X41084600Y2613522D03*
X45584600Y7113522D03*
D47*
X43420000Y54611522D03*
D46*
X71084600Y2613522D03*
X59084600Y5613522D03*
X56084600Y2613522D03*
X63584600Y2613522D03*
X69584600Y5613522D03*
X72934800Y10161522D03*
X44084600Y5613522D03*
X54584600Y7113522D03*
X72584600Y1113522D03*
X41084600Y7113522D03*
X42584600Y2613522D03*
X41084600Y4113522D03*
X63584600Y7113522D03*
X74084600Y4113522D03*
X44084600Y1113522D03*
X72584600Y5613522D03*
D47*
X1154400Y22556722D03*
D46*
X39584600Y44451522D03*
X66584600Y7113522D03*
X71084600Y5613522D03*
X56084600Y1113522D03*
X60584600Y7113522D03*
X69584600Y4113522D03*
D47*
X50862200Y51715922D03*
D46*
X66584600Y5613522D03*
X62084600Y1113522D03*
X53084600Y4113522D03*
X65084600Y2613522D03*
X39584600Y2613522D03*
X74084600Y7113522D03*
X57584600Y4113522D03*
X48584600Y2613522D03*
D47*
X32015400Y25553922D03*
D46*
X59084600Y4113522D03*
D47*
X59879200Y77623922D03*
D46*
X74084600Y5613522D03*
X60584600Y4113522D03*
X42584600Y7113522D03*
X74084600Y1113522D03*
X59084600Y2613522D03*
X45584600Y5613522D03*
X68084600Y7113522D03*
X53084600Y7113522D03*
X51584600Y5613522D03*
X39584600Y7113522D03*
X51584600Y7113522D03*
X6590000Y31116522D03*
X72584600Y2613522D03*
X68084600Y5613522D03*
X63584600Y5613522D03*
X66584600Y2613522D03*
D47*
X59879200Y74906122D03*
%TO.N,RESET_RESET-CONFIG*%
X10527000Y34328522D03*
X9384000Y42800522D03*
X7479000Y32296522D03*
X7479000Y33746522D03*
%TO.N,STEPPER_2_A*%
X16242000Y29211522D03*
X14718000Y30227522D03*
X26402000Y19813522D03*
X6082000Y33021522D03*
X26402000Y17203132D03*
X3796000Y33021522D03*
%TO.N,ESP_TX*%
X3719800Y9424922D03*
X3923000Y23267922D03*
%TO.N,ESP_RX*%
X4354800Y12904722D03*
X5218400Y23293322D03*
%TO.N,STEPPER_1_D*%
X16750000Y35053522D03*
X18528000Y35053522D03*
X40884653Y29996523D03*
X38594000Y29973522D03*
%TO.N,STEPPER_1_C*%
X18528000Y36069522D03*
X16750000Y36069522D03*
%TO.N,STEPPER_1_B*%
X18528000Y37085522D03*
X16750000Y37085522D03*
%TO.N,STATUS_1*%
X24370000Y32259522D03*
X20128200Y37872922D03*
%TO.N,ESP_BOOT*%
X8368000Y23166322D03*
X8317200Y20052022D03*
%TO.N,STATUS_0*%
X22058600Y25604722D03*
X23557200Y26646122D03*
%TO.N,MOTOR_4*%
X80250000Y51055522D03*
X15226000Y44197522D03*
X15226000Y41911522D03*
%TO.N,STEPPER_1_A*%
X39864000Y31243522D03*
X36562000Y30227522D03*
%TO.N,MOTOR_3*%
X24116000Y45721522D03*
X63994000Y53087522D03*
X36054000Y45721522D03*
%TO.N,MOTOR_1*%
X17766000Y28195522D03*
X25386000Y37847522D03*
X21576000Y34037522D03*
X17766000Y29973522D03*
X25386000Y53849522D03*
%TO.N,MOTOR_2*%
X14718000Y26925522D03*
X45452000Y49785522D03*
X21830000Y28957522D03*
X23608000Y34037522D03*
X26910000Y37847522D03*
%TO.N,+3V3*%
X7656800Y7164322D03*
X2703800Y43689522D03*
X2424400Y37390322D03*
%TO.N,+5V*%
X56323200Y69978522D03*
X35571400Y61240922D03*
X25817800Y66422522D03*
D46*
X72757000Y17502122D03*
D47*
X17258000Y72137522D03*
X72350600Y61698122D03*
X64222600Y63831722D03*
X74484200Y65431922D03*
X14362400Y62282322D03*
X83628200Y62383922D03*
D46*
X44182000Y27662122D03*
X72630000Y36221922D03*
D47*
X54316600Y66117722D03*
X37425600Y65939922D03*
D46*
X44334400Y9120122D03*
D47*
X45502800Y61596522D03*
%TO.N,+12V*%
X39483000Y88393522D03*
X76821000Y88520522D03*
X57517000Y88266522D03*
X20687000Y88266522D03*
%TO.N,Net-(Q15-Pad1)*%
X45274200Y72467722D03*
X45299600Y67794122D03*
%TO.N,Net-(Q17-Pad1)*%
X25182800Y76963522D03*
X25944800Y72848722D03*
%TO.N,TS_TX*%
X4126200Y46664522D03*
X4075400Y40714522D03*
%TO.N,TS_RX*%
X5320000Y46686722D03*
X12406600Y23166322D03*
%TD*%
D48*
%TO.N,GND*%
X1154400Y22556722D02*
X1154400Y21447922D01*
D49*
X42658000Y56389522D02*
X43420000Y55627522D01*
D50*
X42069900Y14940622D02*
X43456200Y13554322D01*
D48*
X1124000Y37918722D02*
X1103600Y37898322D01*
D50*
X71813300Y27941522D02*
X71660900Y28093922D01*
D48*
X30847000Y51817522D02*
X30872400Y51842922D01*
X18883600Y22556722D02*
X18883600Y21437922D01*
D49*
X1320000Y46978322D02*
X1230600Y47067722D01*
D50*
X72680800Y8764522D02*
X72960200Y9043922D01*
D48*
X7584500Y16511522D02*
X6844000Y17252022D01*
D50*
X72299800Y10796522D02*
X72934800Y10161522D01*
D48*
X78649800Y70130922D02*
X78649800Y72493122D01*
D50*
X42019100Y33508022D02*
X42846600Y32680522D01*
X43456200Y13554322D02*
X44893200Y13554322D01*
D49*
X9710300Y5335522D02*
X10654000Y5335522D01*
D50*
X40346600Y14940622D02*
X42069900Y14940622D01*
D49*
X6489800Y7899522D02*
X6513800Y7875522D01*
X43420000Y55627522D02*
X43420000Y54611522D01*
D48*
X7606000Y14504922D02*
X7606000Y14526422D01*
X1154400Y21447922D02*
X1124000Y21417522D01*
X2882200Y14276322D02*
X1764000Y15394522D01*
D49*
X10654000Y5335522D02*
X10704800Y5386322D01*
D50*
X72630000Y30227522D02*
X71686300Y30227522D01*
X72630000Y27941522D02*
X71813300Y27941522D01*
X42846600Y32680522D02*
X44613800Y32680522D01*
X39965600Y33508022D02*
X42019100Y33508022D01*
D48*
X21525200Y75185522D02*
X21525200Y78081122D01*
D51*
X50862200Y50619822D02*
X50862200Y51715922D01*
D49*
X41134000Y56389522D02*
X42658000Y56389522D01*
X5288000Y7899522D02*
X6489800Y7899522D01*
D48*
X59879200Y74906122D02*
X59879200Y77623922D01*
D49*
X30897800Y25544522D02*
X32006000Y25544522D01*
X31897800Y33996122D02*
X31939200Y34037522D01*
D48*
X2907000Y14276322D02*
X2882200Y14276322D01*
X1124000Y39037522D02*
X1124000Y37918722D01*
X30847000Y50746822D02*
X30847000Y51817522D01*
X41311800Y70105522D02*
X41311800Y72747122D01*
X7809200Y16511522D02*
X7584500Y16511522D01*
D49*
X32006000Y25544522D02*
X32015400Y25553922D01*
D50*
X71686300Y30227522D02*
X71660900Y30202122D01*
D49*
X30847000Y33996122D02*
X31897800Y33996122D01*
D50*
X71838700Y8764522D02*
X72680800Y8764522D01*
D51*
X69836000Y50315022D02*
X69836000Y51385722D01*
D49*
X1320000Y45939522D02*
X1320000Y46978322D01*
X1320000Y45939522D02*
X9320000Y45939522D01*
D48*
X7606000Y14526422D02*
X6763900Y15368522D01*
X18883600Y21437922D02*
X18904000Y21417522D01*
D50*
X71838700Y10796522D02*
X72299800Y10796522D01*
D49*
%TO.N,RESET_RESET-CONFIG*%
X9384000Y41503522D02*
X9320000Y41439522D01*
X6548998Y32296522D02*
X7479000Y32296522D01*
X7474000Y24511520D02*
X5764999Y26220521D01*
X1320000Y41439522D02*
X9320000Y41439522D01*
X9320000Y41439522D02*
X11345200Y41439522D01*
X11345200Y41439522D02*
X11619200Y41165522D01*
X5764999Y31512523D02*
X6548998Y32296522D01*
X5764999Y26220521D02*
X5764999Y31512523D01*
X9384000Y42800522D02*
X9384000Y41503522D01*
X7474000Y21417522D02*
X7474000Y24511520D01*
X7479000Y33746522D02*
X9945000Y33746522D01*
X9945000Y33746522D02*
X10527000Y34328522D01*
%TO.N,STEPPER_2_A*%
X26402000Y22607522D02*
X19798000Y29211522D01*
X43833199Y14929321D02*
X42659408Y16103112D01*
X26402000Y20523856D02*
X26402000Y22607522D01*
X26402000Y19813522D02*
X26402000Y20523856D01*
X27502020Y16103112D02*
X26402000Y17203132D01*
X14718000Y30227522D02*
X11924000Y33021522D01*
X42659408Y16103112D02*
X27502020Y16103112D01*
X54006290Y18019132D02*
X53182801Y17195643D01*
X53182801Y17195643D02*
X53182801Y16284601D01*
X63654790Y18019132D02*
X54006290Y18019132D01*
X11924000Y33021522D02*
X6082000Y33021522D01*
X3796000Y38905522D02*
X3664000Y39037522D01*
X3796000Y33021522D02*
X3796000Y38905522D01*
X51827521Y14929321D02*
X43833199Y14929321D01*
X19798000Y29211522D02*
X16242000Y29211522D01*
X53182801Y16284601D02*
X51827521Y14929321D01*
X64933800Y16740122D02*
X63654790Y18019132D01*
%TO.N,ESP_TX*%
X4735800Y24868122D02*
X4735800Y26036522D01*
X5288000Y8899522D02*
X4245200Y8899522D01*
X4934000Y37690122D02*
X4934000Y39037522D01*
X4710400Y37466522D02*
X4934000Y37690122D01*
X3923000Y24055322D02*
X4735800Y24868122D01*
X3923000Y23267922D02*
X3923000Y24055322D01*
X4245200Y8899522D02*
X3719800Y9424922D01*
X4735800Y26036522D02*
X4710400Y26061922D01*
X4710400Y26061922D02*
X4710400Y37466522D01*
%TO.N,ESP_RX*%
X4187990Y10224532D02*
X4187990Y12737912D01*
X6204000Y37563122D02*
X6204000Y39037522D01*
X5288000Y9899522D02*
X4513000Y9899522D01*
X5218400Y36577522D02*
X6204000Y37563122D01*
X4513000Y9899522D02*
X4187990Y10224532D01*
X5218400Y23293322D02*
X5218400Y36577522D01*
X4187990Y12737912D02*
X4354800Y12904722D01*
%TO.N,STEPPER_1_D*%
X16750000Y35053522D02*
X9130000Y35053522D01*
X7474000Y36709522D02*
X7474000Y39037522D01*
X33514000Y35053522D02*
X18528000Y35053522D01*
X51786521Y29996523D02*
X40884653Y29996523D01*
X64756000Y28322522D02*
X63806999Y27373521D01*
X9130000Y35053522D02*
X7474000Y36709522D01*
X53326000Y28188000D02*
X53326000Y28457044D01*
X53326000Y28457044D02*
X51786521Y29996523D01*
X54140479Y27373521D02*
X53326000Y28188000D01*
X38594000Y29973522D02*
X33514000Y35053522D01*
X63806999Y27373521D02*
X54140479Y27373521D01*
%TO.N,STEPPER_1_C*%
X10908000Y36069522D02*
X10014000Y36963522D01*
X18528000Y36069522D02*
X33768000Y36069522D01*
X33768000Y36069522D02*
X40565999Y29271523D01*
X10014000Y36963522D02*
X10014000Y39037522D01*
X16750000Y36069522D02*
X10908000Y36069522D01*
X40565999Y29271523D02*
X51106999Y29271523D01*
X51106999Y29271523D02*
X52056000Y28322522D01*
%TO.N,STEPPER_1_B*%
X16750000Y37085522D02*
X11670000Y37085522D01*
X11670000Y37085522D02*
X11284000Y37471522D01*
X11284000Y37471522D02*
X11284000Y39037522D01*
X52056000Y35942522D02*
X50913000Y37085522D01*
X50913000Y37085522D02*
X18528000Y37085522D01*
%TO.N,STATUS_1*%
X24624000Y32005522D02*
X24370000Y32259522D01*
X20128200Y37872922D02*
X20128200Y38991722D01*
X20128200Y38991722D02*
X20174000Y39037522D01*
X26760300Y32005522D02*
X24624000Y32005522D01*
D48*
%TO.N,ESP_BOOT*%
X17639000Y39042522D02*
X17634000Y39037522D01*
D49*
X8933685Y23166322D02*
X17634000Y31866637D01*
X9199009Y19187123D02*
X8334110Y20052022D01*
X17634000Y31866637D02*
X17634000Y39037522D01*
D48*
X17639000Y41276522D02*
X17639000Y39042522D01*
D49*
X8368000Y23166322D02*
X8933685Y23166322D01*
X5288000Y10899522D02*
X6063000Y10899522D01*
X8334110Y20052022D02*
X8317200Y20052022D01*
X6063000Y10899522D02*
X9199009Y14035531D01*
X9199009Y14035531D02*
X9199009Y19187123D01*
%TO.N,STATUS_0*%
X18810200Y24588722D02*
X16364000Y22142522D01*
X26836500Y27484322D02*
X24395400Y27484322D01*
X22058600Y25604722D02*
X21042600Y24588722D01*
X24395400Y27484322D02*
X23557200Y26646122D01*
X21042600Y24588722D02*
X18810200Y24588722D01*
X16364000Y22142522D02*
X16364000Y21417522D01*
%TO.N,MOTOR_4*%
X73936999Y53812523D02*
X29667001Y53812523D01*
X23100000Y52636524D02*
X23100000Y49240520D01*
X15226000Y41911522D02*
X16364000Y40773522D01*
X16364000Y40773522D02*
X16364000Y39037522D01*
X79906002Y51055522D02*
X79372602Y51588922D01*
X80250000Y51055522D02*
X79906002Y51055522D01*
X19073002Y45213522D02*
X16242000Y45213522D01*
X28905001Y54574523D02*
X25037999Y54574523D01*
X25037999Y54574523D02*
X23100000Y52636524D01*
X29667001Y53812523D02*
X28905001Y54574523D01*
X76160600Y51588922D02*
X73936999Y53812523D01*
X23100000Y49240520D02*
X19073002Y45213522D01*
X79372602Y51588922D02*
X76160600Y51588922D01*
X16242000Y45213522D02*
X15226000Y44197522D01*
%TO.N,STEPPER_1_A*%
X50024000Y31243522D02*
X39864000Y31243522D01*
X54140479Y36891523D02*
X53326000Y36077044D01*
X20174000Y19183522D02*
X20174000Y21417522D01*
X36562000Y26925522D02*
X28434000Y18797522D01*
X53326000Y34545522D02*
X50024000Y31243522D01*
X36562000Y30227522D02*
X36562000Y26925522D01*
X64756000Y35942522D02*
X63806999Y36891523D01*
X53326000Y36077044D02*
X53326000Y34545522D01*
X20560000Y18797522D02*
X20174000Y19183522D01*
X63806999Y36891523D02*
X54140479Y36891523D01*
X28434000Y18797522D02*
X20560000Y18797522D01*
%TO.N,MOTOR_3*%
X24116000Y45721522D02*
X18904000Y40509522D01*
X63994000Y53087522D02*
X49827002Y53087522D01*
X49827002Y53087522D02*
X42461002Y45721522D01*
X18904000Y40509522D02*
X18904000Y39037522D01*
X42461002Y45721522D02*
X36054000Y45721522D01*
%TO.N,MOTOR_1*%
X25386000Y53849522D02*
X25386000Y37847522D01*
X15094000Y25523522D02*
X15094000Y21417522D01*
X17766000Y28195522D02*
X15094000Y25523522D01*
X21576000Y34037522D02*
X17766000Y30227522D01*
X17766000Y30227522D02*
X17766000Y29973522D01*
%TO.N,MOTOR_2*%
X36784290Y47721812D02*
X26910000Y37847522D01*
X13824000Y26031522D02*
X13824000Y21417522D01*
X43388290Y47721812D02*
X36784290Y47721812D01*
X23608000Y34037522D02*
X23608000Y30735522D01*
X23608000Y30735522D02*
X21830000Y28957522D01*
X45452000Y49785522D02*
X43388290Y47721812D01*
X14718000Y26925522D02*
X13824000Y26031522D01*
%TO.N,STEPPER_2_B*%
X51045790Y17928132D02*
X14571390Y17928132D01*
X52233800Y16740122D02*
X51045790Y17928132D01*
X14571390Y17928132D02*
X12554000Y19945522D01*
X12554000Y19945522D02*
X12554000Y21417522D01*
%TO.N,STEPPER_2_D*%
X53182801Y8664601D02*
X53182801Y9575643D01*
X63984799Y8171121D02*
X53676281Y8171121D01*
X11284000Y20579112D02*
X11284000Y21417522D01*
X52239311Y10519133D02*
X21343979Y10519133D01*
X64933800Y9120122D02*
X63984799Y8171121D01*
X53182801Y9575643D02*
X52239311Y10519133D01*
X53676281Y8171121D02*
X53182801Y8664601D01*
X21343979Y10519133D02*
X11284000Y20579112D01*
%TO.N,STEPPER_2_C*%
X51284799Y10069123D02*
X20637399Y10069123D01*
X20637399Y10069123D02*
X10014000Y20692522D01*
X10014000Y20692522D02*
X10014000Y21417522D01*
X52233800Y9120122D02*
X51284799Y10069123D01*
D48*
%TO.N,ESP_EN*%
X4849500Y19327022D02*
X4812000Y19289522D01*
X6844000Y19327022D02*
X4849500Y19327022D01*
X4812000Y19289522D02*
X3664000Y20437522D01*
D49*
X8749000Y19000722D02*
X8422700Y19327022D01*
X8749000Y14574920D02*
X8749000Y19000722D01*
X6073602Y11899522D02*
X8749000Y14574920D01*
X8422700Y19327022D02*
X6844000Y19327022D01*
D48*
X3664000Y20437522D02*
X3664000Y21417522D01*
D49*
X5288000Y11899522D02*
X6073602Y11899522D01*
D48*
%TO.N,+3V3*%
X3119000Y17289522D02*
X1764000Y18644522D01*
X1764000Y18644522D02*
X2394000Y19274522D01*
X4812000Y17289522D02*
X3119000Y17289522D01*
X17528000Y43165522D02*
X17639000Y43276522D01*
X2394000Y37359922D02*
X2424400Y37390322D01*
X11619200Y43165522D02*
X17528000Y43165522D01*
X10222200Y43689522D02*
X11095200Y43689522D01*
D49*
X6209000Y5335522D02*
X7635300Y5335522D01*
D48*
X4688900Y17166422D02*
X4812000Y17289522D01*
D49*
X4688900Y14712022D02*
X4688900Y15368522D01*
X2856200Y8556322D02*
X2856200Y12879322D01*
D50*
X7656800Y5357022D02*
X7635300Y5335522D01*
D48*
X11095200Y43689522D02*
X11619200Y43165522D01*
D49*
X5288000Y6899522D02*
X5288000Y6256522D01*
X2856200Y12879322D02*
X4688900Y14712022D01*
D48*
X4688900Y15368522D02*
X4688900Y17166422D01*
X2394000Y21417522D02*
X2394000Y37359922D01*
X2394000Y19274522D02*
X2394000Y21417522D01*
D49*
X5288000Y6256522D02*
X6209000Y5335522D01*
D50*
X7656800Y7164322D02*
X7656800Y5357022D01*
D49*
X5288000Y6899522D02*
X4513000Y6899522D01*
X4513000Y6899522D02*
X2856200Y8556322D01*
D48*
X2703800Y43689522D02*
X10222200Y43689522D01*
D50*
%TO.N,+5V*%
X44211300Y35583022D02*
X44613800Y35180522D01*
X47814200Y16740122D02*
X49693800Y16740122D01*
X45442600Y8739122D02*
X44715400Y8739122D01*
X69408100Y9120122D02*
X69763700Y8764522D01*
X44715400Y8739122D02*
X44334400Y9120122D01*
X44960000Y27662122D02*
X45315600Y28017722D01*
X69585900Y30202122D02*
X69585900Y28093922D01*
X39965600Y35583022D02*
X44211300Y35583022D01*
X69357300Y28322522D02*
X69585900Y28093922D01*
X47128400Y16054322D02*
X47814200Y16740122D01*
X40346600Y17015622D02*
X43931900Y17015622D01*
X69763700Y10796522D02*
X69763700Y8764522D01*
X67473800Y9120122D02*
X69408100Y9120122D01*
X44182000Y27662122D02*
X44960000Y27662122D01*
X44613800Y35180522D02*
X48754000Y35180522D01*
X72182200Y17502122D02*
X71674200Y16994122D01*
X72757000Y17502122D02*
X72182200Y17502122D01*
X43931900Y17015622D02*
X44893200Y16054322D01*
X48754000Y35180522D02*
X49516000Y35942522D01*
X72630000Y36221922D02*
X71979000Y36221922D01*
X67296000Y28322522D02*
X69357300Y28322522D01*
X71979000Y36221922D02*
X71521800Y35764722D01*
X44893200Y16054322D02*
X47128400Y16054322D01*
D49*
%TO.N,+12V*%
X75424000Y89155522D02*
X76186000Y89155522D01*
X38794500Y88393522D02*
X38086000Y89102022D01*
D51*
X30847000Y48671822D02*
X39512300Y48671822D01*
X78091000Y48236122D02*
X76930400Y48236122D01*
D49*
X20687000Y88266522D02*
X19617500Y88266522D01*
D51*
X69836000Y48240022D02*
X75758100Y48240022D01*
D49*
X76186000Y89155522D02*
X76821000Y88520522D01*
D51*
X76926500Y48240022D02*
X77964000Y49277522D01*
X39512300Y48671822D02*
X40118000Y49277522D01*
X50862200Y48544822D02*
X58181300Y48544822D01*
D49*
X57517000Y88266522D02*
X56701500Y88266522D01*
D51*
X58181300Y48544822D02*
X58914000Y49277522D01*
X77303600Y49785522D02*
X75758100Y48240022D01*
X76930400Y48236122D02*
X76926500Y48240022D01*
X75758100Y48240022D02*
X76926500Y48240022D01*
D49*
X56701500Y88266522D02*
X56120000Y88848022D01*
X39483000Y88393522D02*
X38794500Y88393522D01*
D51*
X78091000Y49785522D02*
X78091000Y48236122D01*
X78091000Y49785522D02*
X77303600Y49785522D01*
D49*
X19617500Y88266522D02*
X19290000Y88594022D01*
%TO.N,Net-(D1-Pad1)*%
X28821700Y27544522D02*
X28761500Y27484322D01*
X30897800Y27544522D02*
X28821700Y27544522D01*
%TO.N,Net-(D2-Pad1)*%
X30847000Y31996122D02*
X28694700Y31996122D01*
X28694700Y31996122D02*
X28685300Y32005522D01*
D51*
%TO.N,MOTOR_1+*%
X20052000Y83295522D02*
X22084000Y85327522D01*
X22084000Y85327522D02*
X22084000Y92457522D01*
D49*
%TO.N,MOTOR_1-*%
X17258000Y90806522D02*
X17385000Y90933522D01*
X17258000Y88631522D02*
X17258000Y90131522D01*
D51*
X19584000Y92457522D02*
X19584000Y91481522D01*
D52*
X14210000Y90933522D02*
X17385000Y90933522D01*
D51*
X14210000Y90933522D02*
X19036000Y90933522D01*
X19584000Y91481522D02*
X19036000Y90933522D01*
D49*
X17258000Y88631522D02*
X17258000Y90806522D01*
D52*
X17385000Y90933522D02*
X19036000Y90933522D01*
D51*
%TO.N,MOTOR_3+*%
X58914000Y83295522D02*
X58914000Y93219522D01*
%TO.N,MOTOR_3-*%
X56414000Y93219522D02*
X56414000Y91989522D01*
D52*
X53834000Y91441522D02*
X55866000Y91441522D01*
D51*
X55866000Y91441522D02*
X56414000Y91989522D01*
D49*
X54088000Y88885522D02*
X54088000Y91187522D01*
D52*
X50786000Y91441522D02*
X53834000Y91441522D01*
D49*
X54088000Y91187522D02*
X53834000Y91441522D01*
D51*
X50786000Y91441522D02*
X55866000Y91441522D01*
%TO.N,MOTOR_4+*%
X78218000Y83549522D02*
X78218000Y93219522D01*
X77964000Y83295522D02*
X78218000Y83549522D01*
X78218000Y93219522D02*
X77964000Y93473522D01*
D52*
%TO.N,MOTOR_4-*%
X72757000Y91695522D02*
X74662000Y91695522D01*
D49*
X73138000Y91314522D02*
X72757000Y91695522D01*
D51*
X69836000Y91695522D02*
X74662000Y91695522D01*
X75464000Y92497522D02*
X74662000Y91695522D01*
D49*
X73138000Y89139522D02*
X73138000Y91314522D01*
D52*
X69836000Y91695522D02*
X72757000Y91695522D01*
D51*
X75464000Y93473522D02*
X75464000Y92497522D01*
D48*
%TO.N,Net-(D9-Pad1)*%
X14210000Y88393522D02*
X14210000Y83567522D01*
X14210000Y83567522D02*
X10146000Y79503522D01*
D51*
%TO.N,MOTOR_2-*%
X37197000Y91441522D02*
X32498000Y91441522D01*
D52*
X35927000Y91441522D02*
X37197000Y91441522D01*
D51*
X37872000Y92116522D02*
X37197000Y91441522D01*
D49*
X36054000Y91314522D02*
X35927000Y91441522D01*
D51*
X37872000Y93219522D02*
X37872000Y92116522D01*
D49*
X36054000Y89139522D02*
X36054000Y91314522D01*
D52*
X32498000Y91441522D02*
X35927000Y91441522D01*
D51*
%TO.N,MOTOR_2+*%
X40708001Y92883521D02*
X40372000Y93219522D01*
X40708001Y83885523D02*
X40708001Y92883521D01*
X40118000Y83295522D02*
X40708001Y83885523D01*
D50*
%TO.N,STEPPER_1_A_OUT*%
X80504000Y39371522D02*
X89648000Y39371522D01*
X75424000Y34291522D02*
X80504000Y39371522D01*
X62470000Y34291522D02*
X75424000Y34291522D01*
X62216000Y35942522D02*
X62216000Y34545522D01*
X62216000Y34545522D02*
X62470000Y34291522D01*
%TO.N,STEPPER_1_B_OUT*%
X83338000Y36871522D02*
X89648000Y36871522D01*
X54596000Y35942522D02*
X54596000Y34855520D01*
X54596000Y34855520D02*
X56060008Y33391512D01*
X56060008Y33391512D02*
X79857990Y33391512D01*
X79857990Y33391512D02*
X83338000Y36871522D01*
%TO.N,STEPPER_1_C_OUT*%
X57498618Y32377142D02*
X87653620Y32377142D01*
X54596000Y29474524D02*
X57498618Y32377142D01*
X54596000Y28322522D02*
X54596000Y29474524D01*
X87653620Y32377142D02*
X89648000Y34371522D01*
%TO.N,STEPPER_1_D_OUT*%
X62216000Y28322522D02*
X65370610Y31477132D01*
X65370610Y31477132D02*
X89253610Y31477132D01*
D48*
X89153610Y31377132D02*
X89648000Y31871522D01*
D50*
%TO.N,STEPPER_2_D_OUT*%
X78593990Y12071532D02*
X80638000Y10027522D01*
X64126010Y12071532D02*
X78593990Y12071532D01*
X62393800Y10339322D02*
X64126010Y12071532D01*
X80638000Y10027522D02*
X89648000Y10027522D01*
X62393800Y9120122D02*
X62393800Y10339322D01*
%TO.N,STEPPER_2_C_OUT*%
X54773800Y10373724D02*
X57433578Y13033502D01*
X54773800Y9120122D02*
X54773800Y10373724D01*
X86774000Y12527522D02*
X89648000Y12527522D01*
X86268020Y13033502D02*
X86774000Y12527522D01*
X57433578Y13033502D02*
X86268020Y13033502D01*
%TO.N,STEPPER_2_B_OUT*%
X54773800Y16740122D02*
X54773800Y15348320D01*
X88553990Y13933512D02*
X89648000Y15027522D01*
X56188608Y13933512D02*
X88553990Y13933512D01*
X54773800Y15348320D02*
X56188608Y13933512D01*
D48*
%TO.N,STEPPER_2_A_OUT*%
X63105000Y14860522D02*
X63232000Y14733522D01*
D50*
X62393800Y15571722D02*
X63105000Y14860522D01*
X80912000Y17527522D02*
X78218000Y14833522D01*
X62393800Y16740122D02*
X62393800Y15571722D01*
D48*
X78218000Y14733522D02*
X81012000Y17527522D01*
D50*
X78218000Y14833522D02*
X63232000Y14833522D01*
X89648000Y17527522D02*
X80912000Y17527522D01*
D48*
%TO.N,Net-(Q15-Pad1)*%
X45299600Y67794122D02*
X45299600Y72442322D01*
X45299600Y72442322D02*
X45274200Y72467722D01*
%TO.N,Net-(Q17-Pad1)*%
X25182800Y73610722D02*
X25944800Y72848722D01*
X25182800Y76963522D02*
X25182800Y73610722D01*
D50*
%TO.N,Net-(R1-Pad2)*%
X69191600Y35688522D02*
X69521800Y36018722D01*
X67296000Y35942522D02*
X69191600Y35942522D01*
%TO.N,Net-(R12-Pad2)*%
X49211200Y28017722D02*
X49516000Y28322522D01*
X47315600Y28017722D02*
X49211200Y28017722D01*
%TO.N,Net-(R24-Pad2)*%
X69674200Y16994122D02*
X67727800Y16994122D01*
X67727800Y16994122D02*
X67473800Y16740122D01*
%TO.N,Net-(R25-Pad2)*%
X49312800Y8739122D02*
X49693800Y9120122D01*
X47442600Y8739122D02*
X49312800Y8739122D01*
D49*
%TO.N,Net-(D11-Pad1)*%
X73229000Y87230522D02*
X73138000Y87139522D01*
X75424000Y87230522D02*
X73229000Y87230522D01*
%TO.N,Net-(D12-Pad1)*%
X56120000Y86923022D02*
X54125500Y86923022D01*
X54125500Y86923022D02*
X54088000Y86885522D01*
%TO.N,Net-(D13-Pad1)*%
X38048500Y87139522D02*
X38086000Y87177022D01*
X36054000Y87139522D02*
X38048500Y87139522D01*
%TO.N,Net-(D14-Pad1)*%
X17295500Y86669022D02*
X17258000Y86631522D01*
X19290000Y86669022D02*
X17295500Y86669022D01*
%TO.N,TS_TX*%
X6511000Y54741322D02*
X4761200Y54741322D01*
X4126200Y46664522D02*
X6793200Y49331522D01*
X2394000Y39762522D02*
X3346000Y40714522D01*
X2394000Y39037522D02*
X2394000Y39762522D01*
X6793200Y49331522D02*
X6793200Y54459122D01*
X3346000Y40714522D02*
X4075400Y40714522D01*
X6793200Y54459122D02*
X6511000Y54741322D01*
%TO.N,TS_RX*%
X5320000Y46686722D02*
X7479000Y48845722D01*
X8744000Y22142522D02*
X9767800Y23166322D01*
X7479000Y55779922D02*
X7017600Y56241322D01*
X9767800Y23166322D02*
X12406600Y23166322D01*
X7479000Y48845722D02*
X7479000Y55779922D01*
X8744000Y21417522D02*
X8744000Y22142522D01*
X7017600Y56241322D02*
X4761200Y56241322D01*
%TD*%
%TA.AperFunction,Conductor*%
%TO.N,GND*%
G36*
X44756925Y7603794D02*
G01*
X44756994Y7603942D01*
X44757912Y7603514D01*
X44760490Y7602783D01*
X44769861Y7597007D01*
X44828896Y7577426D01*
X44931210Y7543490D01*
X44931212Y7543490D01*
X44937738Y7541325D01*
X44944574Y7540625D01*
X44944577Y7540624D01*
X44987630Y7536213D01*
X45042199Y7530622D01*
X45439512Y7530622D01*
X45843000Y7530623D01*
X45948767Y7541596D01*
X46116546Y7597572D01*
X46122764Y7601420D01*
X46122771Y7601423D01*
X46124777Y7602665D01*
X46126417Y7603132D01*
X46129403Y7604530D01*
X46129630Y7604045D01*
X46191082Y7621522D01*
X46694376Y7621522D01*
X46756925Y7603794D01*
X46756994Y7603942D01*
X46757912Y7603514D01*
X46760490Y7602783D01*
X46769861Y7597007D01*
X46828896Y7577426D01*
X46931210Y7543490D01*
X46931212Y7543490D01*
X46937738Y7541325D01*
X46944574Y7540625D01*
X46944577Y7540624D01*
X46987630Y7536213D01*
X47042199Y7530622D01*
X47439512Y7530622D01*
X47843000Y7530623D01*
X47948767Y7541596D01*
X48116546Y7597572D01*
X48122764Y7601420D01*
X48122771Y7601423D01*
X48124777Y7602665D01*
X48126417Y7603132D01*
X48129403Y7604530D01*
X48129630Y7604045D01*
X48191082Y7621522D01*
X53325112Y7621522D01*
X53375153Y7611159D01*
X53391593Y7604045D01*
X53391819Y7603947D01*
X53402468Y7598730D01*
X53441221Y7577426D01*
X53448896Y7575455D01*
X53448897Y7575455D01*
X53460843Y7572388D01*
X53479548Y7565984D01*
X53498136Y7557940D01*
X53505959Y7556701D01*
X53505969Y7556698D01*
X53541805Y7551022D01*
X53553425Y7548616D01*
X53585240Y7540448D01*
X53596251Y7537621D01*
X53616505Y7537621D01*
X53636215Y7536070D01*
X53656224Y7532901D01*
X53664116Y7533647D01*
X53682861Y7535419D01*
X53700243Y7537062D01*
X53712100Y7537621D01*
X63906032Y7537621D01*
X63917215Y7537094D01*
X63924708Y7535419D01*
X63932634Y7535668D01*
X63932635Y7535668D01*
X63992785Y7537559D01*
X63996744Y7537621D01*
X64024655Y7537621D01*
X64028590Y7538118D01*
X64028655Y7538126D01*
X64040492Y7539059D01*
X64072750Y7540073D01*
X64076769Y7540199D01*
X64084688Y7540448D01*
X64104142Y7546100D01*
X64123499Y7550108D01*
X64135729Y7551653D01*
X64135730Y7551653D01*
X64143596Y7552647D01*
X64150967Y7555566D01*
X64150969Y7555566D01*
X64184711Y7568925D01*
X64195941Y7572770D01*
X64230782Y7582892D01*
X64230783Y7582892D01*
X64238392Y7585103D01*
X64245211Y7589136D01*
X64245216Y7589138D01*
X64255827Y7595414D01*
X64273575Y7604109D01*
X64292416Y7611569D01*
X64293305Y7609325D01*
X64340808Y7621522D01*
X69028626Y7621522D01*
X69090437Y7604002D01*
X69090595Y7604342D01*
X69092700Y7603361D01*
X69094741Y7602782D01*
X69097228Y7601249D01*
X69097233Y7601247D01*
X69103462Y7597407D01*
X69163703Y7577426D01*
X69264811Y7543890D01*
X69264813Y7543890D01*
X69271339Y7541725D01*
X69278175Y7541025D01*
X69278178Y7541024D01*
X69321231Y7536613D01*
X69375800Y7531022D01*
X70151600Y7531022D01*
X70154846Y7531359D01*
X70154850Y7531359D01*
X70250508Y7541284D01*
X70250512Y7541285D01*
X70257366Y7541996D01*
X70263902Y7544177D01*
X70263904Y7544177D01*
X70415348Y7594703D01*
X70425146Y7597972D01*
X70432731Y7602666D01*
X70433838Y7602981D01*
X70437997Y7604929D01*
X70438313Y7604253D01*
X70499034Y7621522D01*
X71104581Y7621522D01*
X71165552Y7604241D01*
X71165812Y7604798D01*
X71169258Y7603191D01*
X71170694Y7602784D01*
X71172444Y7601705D01*
X71185624Y7595559D01*
X71339910Y7544384D01*
X71353286Y7541517D01*
X71447638Y7531850D01*
X71454054Y7531522D01*
X71566585Y7531522D01*
X71581824Y7535997D01*
X71583029Y7537387D01*
X71584700Y7545070D01*
X71584700Y7621522D01*
X72092700Y7621522D01*
X72092700Y7549638D01*
X72097175Y7534399D01*
X72098565Y7533194D01*
X72106248Y7531523D01*
X72223295Y7531523D01*
X72229814Y7531860D01*
X72325406Y7541779D01*
X72338800Y7544671D01*
X72492992Y7596113D01*
X72506153Y7602278D01*
X72506777Y7602664D01*
X72507287Y7602809D01*
X72512786Y7605385D01*
X72513204Y7604492D01*
X72573084Y7621522D01*
X74536000Y7621522D01*
X74604121Y7601520D01*
X74650614Y7547864D01*
X74662000Y7495522D01*
X74662000Y889522D01*
X74641998Y821401D01*
X74588342Y774908D01*
X74536000Y763522D01*
X39228000Y763522D01*
X39159879Y783524D01*
X39113386Y837180D01*
X39102000Y889522D01*
X39102000Y7495522D01*
X39122002Y7563643D01*
X39175658Y7610136D01*
X39228000Y7621522D01*
X44694376Y7621522D01*
X44756925Y7603794D01*
G37*
%TD.AperFunction*%
%TA.AperFunction,Conductor*%
G36*
X61142121Y12155000D02*
G01*
X61188614Y12101344D01*
X61200000Y12049002D01*
X61200000Y9428448D01*
X61179998Y9360327D01*
X61126342Y9313834D01*
X61056068Y9303730D01*
X60991488Y9333224D01*
X60952731Y9394247D01*
X60916710Y9521968D01*
X60912586Y9532715D01*
X60825679Y9708942D01*
X60824615Y9710679D01*
X60815817Y9717282D01*
X60803397Y9710509D01*
X59942895Y8850007D01*
X59880583Y8815981D01*
X59809768Y8821046D01*
X59764705Y8850007D01*
X58904571Y9710141D01*
X58892191Y9716901D01*
X58886225Y9712435D01*
X58806177Y9560288D01*
X58801774Y9549655D01*
X58743505Y9362001D01*
X58741115Y9350757D01*
X58718019Y9155616D01*
X58717718Y9144115D01*
X58730947Y8942279D01*
X58729152Y8942161D01*
X58721104Y8879914D01*
X58675379Y8825603D01*
X58605758Y8804621D01*
X58557560Y8804621D01*
X58489439Y8824623D01*
X58442946Y8878279D01*
X58432864Y8948701D01*
X58448559Y9056950D01*
X58449189Y9064333D01*
X58450553Y9116418D01*
X58450310Y9123817D01*
X58432142Y9321539D01*
X58430044Y9332860D01*
X58376710Y9521968D01*
X58372586Y9532715D01*
X58285679Y9708942D01*
X58284615Y9710679D01*
X58275817Y9717282D01*
X58263397Y9710509D01*
X57402895Y8850007D01*
X57340583Y8815981D01*
X57269768Y8821046D01*
X57224705Y8850007D01*
X56364571Y9710141D01*
X56352191Y9716901D01*
X56346225Y9712435D01*
X56266177Y9560288D01*
X56261774Y9549655D01*
X56203505Y9362001D01*
X56201115Y9350757D01*
X56178019Y9155616D01*
X56177718Y9144115D01*
X56190947Y8942279D01*
X56189152Y8942161D01*
X56181104Y8879914D01*
X56135379Y8825603D01*
X56065758Y8804621D01*
X56018065Y8804621D01*
X55949944Y8824623D01*
X55903451Y8878279D01*
X55893369Y8948701D01*
X55909060Y9056924D01*
X55909593Y9060598D01*
X55911152Y9120122D01*
X55892107Y9327388D01*
X55870731Y9403182D01*
X55866000Y9437383D01*
X55866000Y10078958D01*
X56719076Y10078958D01*
X56722562Y10070570D01*
X57300988Y9492144D01*
X57314932Y9484530D01*
X57316765Y9484661D01*
X57323380Y9488912D01*
X57901482Y10067014D01*
X57908004Y10078958D01*
X59259076Y10078958D01*
X59262562Y10070570D01*
X59840988Y9492144D01*
X59854932Y9484530D01*
X59856765Y9484661D01*
X59863380Y9488912D01*
X60441482Y10067014D01*
X60448242Y10079394D01*
X60442212Y10087449D01*
X60374799Y10129984D01*
X60364556Y10135202D01*
X60182047Y10208016D01*
X60171019Y10211283D01*
X59978300Y10249617D01*
X59966854Y10250820D01*
X59770386Y10253391D01*
X59758906Y10252488D01*
X59565259Y10219214D01*
X59554139Y10216234D01*
X59369789Y10148224D01*
X59359411Y10143274D01*
X59268674Y10089291D01*
X59259076Y10078958D01*
X57908004Y10078958D01*
X57908242Y10079394D01*
X57902212Y10087449D01*
X57834799Y10129984D01*
X57824556Y10135202D01*
X57642047Y10208016D01*
X57631019Y10211283D01*
X57438300Y10249617D01*
X57426854Y10250820D01*
X57230386Y10253391D01*
X57218906Y10252488D01*
X57025259Y10219214D01*
X57014139Y10216234D01*
X56829789Y10148224D01*
X56819411Y10143274D01*
X56728674Y10089291D01*
X56719076Y10078958D01*
X55866000Y10078958D01*
X55866000Y10199632D01*
X55886002Y10267753D01*
X55902905Y10288727D01*
X57752275Y12138097D01*
X57814587Y12172123D01*
X57841370Y12175002D01*
X61074000Y12175002D01*
X61142121Y12155000D01*
G37*
%TD.AperFunction*%
%TA.AperFunction,Conductor*%
G36*
X56233668Y17365630D02*
G01*
X56280161Y17311974D01*
X56290265Y17241700D01*
X56277056Y17200965D01*
X56266178Y17180288D01*
X56261774Y17169655D01*
X56203505Y16982001D01*
X56201115Y16970757D01*
X56178019Y16775616D01*
X56177718Y16764115D01*
X56190569Y16568047D01*
X56192370Y16556677D01*
X56240736Y16366234D01*
X56244577Y16355387D01*
X56326841Y16176943D01*
X56332591Y16166982D01*
X56342368Y16153148D01*
X56352956Y16144761D01*
X56366257Y16151789D01*
X57224705Y17010237D01*
X57287017Y17044263D01*
X57357832Y17039198D01*
X57402895Y17010237D01*
X58261668Y16151464D01*
X58274048Y16144704D01*
X58280628Y16149630D01*
X58349541Y16272682D01*
X58354222Y16283195D01*
X58417383Y16469262D01*
X58420068Y16480444D01*
X58448559Y16676950D01*
X58449189Y16684333D01*
X58450553Y16736418D01*
X58450310Y16743817D01*
X58432142Y16941539D01*
X58430044Y16952860D01*
X58376710Y17141968D01*
X58372586Y17152715D01*
X58347342Y17203903D01*
X58335152Y17273845D01*
X58362711Y17339275D01*
X58421269Y17379418D01*
X58460348Y17385632D01*
X58705547Y17385632D01*
X58773668Y17365630D01*
X58820161Y17311974D01*
X58830265Y17241700D01*
X58817056Y17200965D01*
X58806178Y17180288D01*
X58801774Y17169655D01*
X58743505Y16982001D01*
X58741115Y16970757D01*
X58718019Y16775616D01*
X58717718Y16764115D01*
X58730569Y16568047D01*
X58732370Y16556677D01*
X58780736Y16366234D01*
X58784577Y16355387D01*
X58866841Y16176943D01*
X58872591Y16166982D01*
X58882368Y16153148D01*
X58892956Y16144761D01*
X58906257Y16151789D01*
X59764705Y17010237D01*
X59827017Y17044263D01*
X59897832Y17039198D01*
X59942895Y17010237D01*
X60801668Y16151464D01*
X60814048Y16144704D01*
X60820628Y16149630D01*
X60889541Y16272682D01*
X60894222Y16283195D01*
X60954687Y16461320D01*
X60995524Y16519397D01*
X61061277Y16546175D01*
X61131069Y16533154D01*
X61182742Y16484467D01*
X61200000Y16420819D01*
X61200000Y14918012D01*
X61179998Y14849891D01*
X61126342Y14803398D01*
X61074000Y14792012D01*
X56596401Y14792012D01*
X56528280Y14812014D01*
X56507306Y14828917D01*
X55902905Y15433318D01*
X55868879Y15495630D01*
X55866000Y15522413D01*
X55866000Y15781524D01*
X56719562Y15781524D01*
X56729444Y15769035D01*
X56766538Y15744249D01*
X56776648Y15738759D01*
X56957187Y15661193D01*
X56968130Y15657638D01*
X57159774Y15614273D01*
X57171184Y15612771D01*
X57367530Y15605057D01*
X57379012Y15605659D01*
X57573478Y15633854D01*
X57584660Y15636539D01*
X57770727Y15699700D01*
X57781240Y15704381D01*
X57899463Y15770590D01*
X57909328Y15780668D01*
X57908998Y15781524D01*
X59259562Y15781524D01*
X59269444Y15769035D01*
X59306538Y15744249D01*
X59316648Y15738759D01*
X59497187Y15661193D01*
X59508130Y15657638D01*
X59699774Y15614273D01*
X59711184Y15612771D01*
X59907530Y15605057D01*
X59919012Y15605659D01*
X60113478Y15633854D01*
X60124660Y15636539D01*
X60310727Y15699700D01*
X60321240Y15704381D01*
X60439463Y15770590D01*
X60449328Y15780668D01*
X60446372Y15788340D01*
X59866612Y16368100D01*
X59852668Y16375714D01*
X59850835Y16375583D01*
X59844220Y16371332D01*
X59265758Y15792870D01*
X59259562Y15781524D01*
X57908998Y15781524D01*
X57906372Y15788340D01*
X57326612Y16368100D01*
X57312668Y16375714D01*
X57310835Y16375583D01*
X57304220Y16371332D01*
X56725758Y15792870D01*
X56719562Y15781524D01*
X55866000Y15781524D01*
X55866000Y16413371D01*
X55872687Y16453873D01*
X55877869Y16469138D01*
X55877869Y16469140D01*
X55879727Y16474612D01*
X55880556Y16480328D01*
X55880557Y16480333D01*
X55904649Y16646497D01*
X55909593Y16680598D01*
X55911152Y16740122D01*
X55892107Y16947388D01*
X55870731Y17023182D01*
X55866000Y17057383D01*
X55866000Y17259632D01*
X55886002Y17327753D01*
X55939658Y17374246D01*
X55992000Y17385632D01*
X56165547Y17385632D01*
X56233668Y17365630D01*
G37*
%TD.AperFunction*%
%TA.AperFunction,Conductor*%
G36*
X43513157Y26905520D02*
G01*
X43526699Y26895476D01*
X43571985Y26856935D01*
X43603650Y26829986D01*
X43776294Y26733498D01*
X43964392Y26672382D01*
X44160777Y26648964D01*
X44166912Y26649436D01*
X44166914Y26649436D01*
X44351830Y26663665D01*
X44351834Y26663666D01*
X44357972Y26664138D01*
X44548463Y26717324D01*
X44692511Y26790088D01*
X44749322Y26803622D01*
X44918610Y26803622D01*
X44929152Y26803180D01*
X44981099Y26798818D01*
X44987859Y26799720D01*
X44987861Y26799720D01*
X45050777Y26808115D01*
X45067441Y26809222D01*
X45531541Y26809223D01*
X45716000Y26809223D01*
X45821767Y26820196D01*
X45870102Y26836322D01*
X45982602Y26873855D01*
X45982604Y26873856D01*
X45989546Y26876172D01*
X46038826Y26906667D01*
X46105128Y26925522D01*
X46526170Y26925522D01*
X46592286Y26906782D01*
X46594333Y26905520D01*
X46630381Y26883300D01*
X46642861Y26875607D01*
X46687132Y26860923D01*
X46804210Y26822090D01*
X46804212Y26822090D01*
X46810738Y26819925D01*
X46817574Y26819225D01*
X46817577Y26819224D01*
X46860630Y26814813D01*
X46915199Y26809222D01*
X47312512Y26809222D01*
X47716000Y26809223D01*
X47821767Y26820196D01*
X47870102Y26836322D01*
X47982602Y26873855D01*
X47982604Y26873856D01*
X47989546Y26876172D01*
X48038826Y26906667D01*
X48105128Y26925522D01*
X53641561Y26925522D01*
X53709682Y26905520D01*
X53720615Y26897262D01*
X53720711Y26897386D01*
X53723904Y26894909D01*
X53732926Y26887203D01*
X53765158Y26856935D01*
X53772107Y26853115D01*
X53782911Y26847175D01*
X53799435Y26836322D01*
X53815438Y26823908D01*
X53856022Y26806345D01*
X53866652Y26801138D01*
X53905419Y26779826D01*
X53913096Y26777855D01*
X53913101Y26777853D01*
X53925037Y26774789D01*
X53943745Y26768384D01*
X53962334Y26760340D01*
X53970162Y26759100D01*
X53970169Y26759098D01*
X54006003Y26753422D01*
X54017623Y26751016D01*
X54049438Y26742848D01*
X54060449Y26740021D01*
X54080703Y26740021D01*
X54100413Y26738470D01*
X54120422Y26735301D01*
X54128314Y26736047D01*
X54147059Y26737819D01*
X54164441Y26739462D01*
X54176298Y26740021D01*
X63728232Y26740021D01*
X63739415Y26739494D01*
X63746908Y26737819D01*
X63754834Y26738068D01*
X63754835Y26738068D01*
X63814985Y26739959D01*
X63818944Y26740021D01*
X63846855Y26740021D01*
X63850790Y26740518D01*
X63850855Y26740526D01*
X63862692Y26741459D01*
X63894950Y26742473D01*
X63898969Y26742599D01*
X63906888Y26742848D01*
X63926342Y26748500D01*
X63945699Y26752508D01*
X63957929Y26754053D01*
X63957930Y26754053D01*
X63965796Y26755047D01*
X63973167Y26757966D01*
X63973169Y26757966D01*
X64006911Y26771325D01*
X64018141Y26775170D01*
X64052982Y26785292D01*
X64052983Y26785292D01*
X64060592Y26787503D01*
X64067411Y26791536D01*
X64067416Y26791538D01*
X64078027Y26797814D01*
X64095775Y26806509D01*
X64114616Y26813969D01*
X64134986Y26828768D01*
X64150386Y26839957D01*
X64160306Y26846473D01*
X64191534Y26864941D01*
X64191537Y26864943D01*
X64198361Y26868979D01*
X64212682Y26883300D01*
X64227715Y26896140D01*
X64235033Y26901457D01*
X64301900Y26925316D01*
X64309095Y26925522D01*
X68909186Y26925522D01*
X68948853Y26919115D01*
X69087011Y26873290D01*
X69087013Y26873290D01*
X69093539Y26871125D01*
X69100375Y26870425D01*
X69100378Y26870424D01*
X69143431Y26866013D01*
X69198000Y26860422D01*
X69973800Y26860422D01*
X69977046Y26860759D01*
X69977050Y26860759D01*
X70072708Y26870684D01*
X70072712Y26870685D01*
X70079566Y26871396D01*
X70086102Y26873577D01*
X70086104Y26873577D01*
X70222390Y26919046D01*
X70262266Y26925522D01*
X70985775Y26925522D01*
X71025443Y26919115D01*
X71162110Y26873784D01*
X71175486Y26870917D01*
X71269838Y26861250D01*
X71276254Y26860922D01*
X71388785Y26860922D01*
X71404024Y26865397D01*
X71405229Y26866787D01*
X71406900Y26874470D01*
X71406900Y26925522D01*
X71914900Y26925522D01*
X71914900Y26879038D01*
X71919375Y26863799D01*
X71920765Y26862594D01*
X71928448Y26860923D01*
X72045495Y26860923D01*
X72052014Y26861260D01*
X72147606Y26871179D01*
X72161000Y26874071D01*
X72295809Y26919046D01*
X72335685Y26925522D01*
X74536000Y26925522D01*
X74604121Y26905520D01*
X74650614Y26851864D01*
X74662000Y26799522D01*
X74662000Y18161522D01*
X74641998Y18093401D01*
X74588342Y18046908D01*
X74536000Y18035522D01*
X73683239Y18035522D01*
X73615118Y18055524D01*
X73585596Y18081886D01*
X73479960Y18211409D01*
X73479957Y18211412D01*
X73476065Y18216184D01*
X73471316Y18220113D01*
X73328425Y18338323D01*
X73328421Y18338325D01*
X73323675Y18342252D01*
X73149701Y18436320D01*
X72960768Y18494804D01*
X72954643Y18495448D01*
X72954642Y18495448D01*
X72770204Y18514833D01*
X72770202Y18514833D01*
X72764075Y18515477D01*
X72681576Y18507969D01*
X72573251Y18498111D01*
X72573248Y18498110D01*
X72567112Y18497552D01*
X72561206Y18495814D01*
X72561202Y18495813D01*
X72457633Y18465331D01*
X72377381Y18441712D01*
X72371920Y18438857D01*
X72371915Y18438855D01*
X72254160Y18377294D01*
X72185243Y18363398D01*
X72171843Y18364523D01*
X72161101Y18365425D01*
X72154341Y18364523D01*
X72154340Y18364523D01*
X72125105Y18360622D01*
X72080606Y18354685D01*
X72077560Y18354316D01*
X72003545Y18346276D01*
X72003543Y18346275D01*
X71996763Y18345539D01*
X71990298Y18343364D01*
X71987025Y18342644D01*
X71986627Y18342574D01*
X71986204Y18342451D01*
X71982985Y18341660D01*
X71976211Y18340756D01*
X71899880Y18312974D01*
X71897030Y18311977D01*
X71826445Y18288222D01*
X71826435Y18288217D01*
X71819977Y18286044D01*
X71814131Y18282532D01*
X71811098Y18281130D01*
X71810714Y18280972D01*
X71810324Y18280759D01*
X71807345Y18279293D01*
X71800932Y18276959D01*
X71795175Y18273305D01*
X71795172Y18273304D01*
X71732361Y18233443D01*
X71729741Y18231825D01*
X71711089Y18220618D01*
X71646195Y18202622D01*
X71308628Y18202621D01*
X71273800Y18202621D01*
X71168033Y18191648D01*
X71161486Y18189464D01*
X71161487Y18189464D01*
X71007198Y18137989D01*
X71007196Y18137988D01*
X71000254Y18135672D01*
X70994030Y18131821D01*
X70994031Y18131821D01*
X70868881Y18054377D01*
X70802579Y18035522D01*
X70546043Y18035522D01*
X70479927Y18054262D01*
X70353169Y18132397D01*
X70353167Y18132398D01*
X70346939Y18136237D01*
X70186464Y18189464D01*
X70185590Y18189754D01*
X70185588Y18189754D01*
X70179062Y18191919D01*
X70172226Y18192619D01*
X70172223Y18192620D01*
X70129170Y18197031D01*
X70074601Y18202622D01*
X69677288Y18202622D01*
X69273800Y18202621D01*
X69168033Y18191648D01*
X69161486Y18189464D01*
X69161487Y18189464D01*
X69007198Y18137989D01*
X69007196Y18137988D01*
X69000254Y18135672D01*
X68994030Y18131821D01*
X68994031Y18131821D01*
X68868881Y18054377D01*
X68802579Y18035522D01*
X64586495Y18035522D01*
X64518374Y18055524D01*
X64497400Y18072427D01*
X64158442Y18411385D01*
X64150902Y18419671D01*
X64146790Y18426150D01*
X64133261Y18438855D01*
X64097139Y18472775D01*
X64094297Y18475530D01*
X64074560Y18495267D01*
X64071363Y18497747D01*
X64062341Y18505452D01*
X64052261Y18514918D01*
X64030111Y18535718D01*
X64023165Y18539537D01*
X64023162Y18539539D01*
X64012356Y18545480D01*
X63995837Y18556331D01*
X63991545Y18559660D01*
X63979831Y18568746D01*
X63972562Y18571891D01*
X63972558Y18571894D01*
X63939253Y18586306D01*
X63928603Y18591523D01*
X63889850Y18612827D01*
X63870227Y18617865D01*
X63851524Y18624269D01*
X63840210Y18629165D01*
X63840209Y18629165D01*
X63832935Y18632313D01*
X63825112Y18633552D01*
X63825102Y18633555D01*
X63789266Y18639231D01*
X63777646Y18641637D01*
X63742501Y18650660D01*
X63742500Y18650660D01*
X63734820Y18652632D01*
X63714566Y18652632D01*
X63694855Y18654183D01*
X63682676Y18656112D01*
X63674847Y18657352D01*
X63645576Y18654585D01*
X63630829Y18653191D01*
X63618971Y18652632D01*
X54085057Y18652632D01*
X54073874Y18653159D01*
X54066381Y18654834D01*
X54058455Y18654585D01*
X54058454Y18654585D01*
X53998304Y18652694D01*
X53994345Y18652632D01*
X53966434Y18652632D01*
X53962500Y18652135D01*
X53962499Y18652135D01*
X53962434Y18652127D01*
X53950597Y18651194D01*
X53918780Y18650194D01*
X53914319Y18650054D01*
X53906400Y18649805D01*
X53888744Y18644676D01*
X53886948Y18644154D01*
X53867596Y18640146D01*
X53860525Y18639252D01*
X53847493Y18637606D01*
X53840124Y18634689D01*
X53840122Y18634688D01*
X53806387Y18621332D01*
X53795159Y18617487D01*
X53752697Y18605150D01*
X53745875Y18601116D01*
X53745869Y18601113D01*
X53735258Y18594838D01*
X53717508Y18586142D01*
X53706046Y18581604D01*
X53706041Y18581601D01*
X53698673Y18578684D01*
X53681699Y18566352D01*
X53662915Y18552705D01*
X53652997Y18546189D01*
X53641753Y18539539D01*
X53614927Y18523674D01*
X53600603Y18509350D01*
X53585571Y18496511D01*
X53569183Y18484604D01*
X53553239Y18465331D01*
X53541002Y18450539D01*
X53533012Y18441759D01*
X53163680Y18072427D01*
X53101368Y18038401D01*
X53074585Y18035522D01*
X51886495Y18035522D01*
X51818374Y18055524D01*
X51797400Y18072427D01*
X51549442Y18320385D01*
X51541902Y18328671D01*
X51537790Y18335150D01*
X51488138Y18381776D01*
X51485297Y18384530D01*
X51465560Y18404267D01*
X51462363Y18406747D01*
X51453341Y18414452D01*
X51426890Y18439291D01*
X51421111Y18444718D01*
X51414165Y18448537D01*
X51414162Y18448539D01*
X51403356Y18454480D01*
X51386837Y18465331D01*
X51386373Y18465691D01*
X51370831Y18477746D01*
X51363562Y18480891D01*
X51363558Y18480894D01*
X51330253Y18495306D01*
X51319603Y18500523D01*
X51280850Y18521827D01*
X51261227Y18526865D01*
X51242524Y18533269D01*
X51231210Y18538165D01*
X51231209Y18538165D01*
X51223935Y18541313D01*
X51216112Y18542552D01*
X51216102Y18542555D01*
X51180266Y18548231D01*
X51168646Y18550637D01*
X51133501Y18559660D01*
X51133500Y18559660D01*
X51125820Y18561632D01*
X51105566Y18561632D01*
X51085855Y18563183D01*
X51081392Y18563890D01*
X51065847Y18566352D01*
X51057955Y18565606D01*
X51021829Y18562191D01*
X51009971Y18561632D01*
X39228000Y18561632D01*
X39159879Y18581634D01*
X39113386Y18635290D01*
X39102000Y18687632D01*
X39102000Y26799522D01*
X39122002Y26867643D01*
X39175658Y26914136D01*
X39228000Y26925522D01*
X43445036Y26925522D01*
X43513157Y26905520D01*
G37*
%TD.AperFunction*%
%TA.AperFunction,Conductor*%
G36*
X60888121Y31498640D02*
G01*
X60934614Y31444984D01*
X60946000Y31392642D01*
X60946000Y28847199D01*
X60925998Y28779078D01*
X60872342Y28732585D01*
X60802068Y28722481D01*
X60737488Y28751975D01*
X60706994Y28791470D01*
X60647879Y28911343D01*
X60646815Y28913079D01*
X60638017Y28919682D01*
X60625597Y28912909D01*
X59765095Y28052407D01*
X59702783Y28018381D01*
X59631968Y28023446D01*
X59586905Y28052407D01*
X58726771Y28912541D01*
X58714391Y28919301D01*
X58708425Y28914835D01*
X58628377Y28762688D01*
X58623974Y28752055D01*
X58565705Y28564401D01*
X58563315Y28553157D01*
X58540219Y28358016D01*
X58539918Y28346515D01*
X58553147Y28144679D01*
X58551352Y28144561D01*
X58543304Y28082314D01*
X58497579Y28028003D01*
X58427958Y28007021D01*
X58379760Y28007021D01*
X58311639Y28027023D01*
X58265146Y28080679D01*
X58255064Y28151101D01*
X58270759Y28259350D01*
X58271389Y28266733D01*
X58272753Y28318818D01*
X58272510Y28326217D01*
X58254342Y28523939D01*
X58252244Y28535260D01*
X58198910Y28724368D01*
X58194786Y28735115D01*
X58107879Y28911342D01*
X58106815Y28913079D01*
X58098017Y28919682D01*
X58085597Y28912909D01*
X57225095Y28052407D01*
X57162783Y28018381D01*
X57091968Y28023446D01*
X57046905Y28052407D01*
X56186771Y28912541D01*
X56174391Y28919301D01*
X56168425Y28914835D01*
X56103509Y28791448D01*
X56054089Y28740475D01*
X55984957Y28724312D01*
X55918061Y28748090D01*
X55874640Y28804261D01*
X55866000Y28850115D01*
X55866000Y29281358D01*
X56541276Y29281358D01*
X56544762Y29272970D01*
X57123188Y28694544D01*
X57137132Y28686930D01*
X57138965Y28687061D01*
X57145580Y28691312D01*
X57723682Y29269414D01*
X57730204Y29281358D01*
X59081276Y29281358D01*
X59084762Y29272970D01*
X59663188Y28694544D01*
X59677132Y28686930D01*
X59678965Y28687061D01*
X59685580Y28691312D01*
X60263682Y29269414D01*
X60270442Y29281794D01*
X60264412Y29289849D01*
X60196999Y29332384D01*
X60186756Y29337602D01*
X60004247Y29410416D01*
X59993219Y29413683D01*
X59800500Y29452017D01*
X59789054Y29453220D01*
X59592586Y29455791D01*
X59581106Y29454888D01*
X59387459Y29421614D01*
X59376339Y29418634D01*
X59191989Y29350624D01*
X59181611Y29345674D01*
X59090874Y29291691D01*
X59081276Y29281358D01*
X57730204Y29281358D01*
X57730442Y29281794D01*
X57724412Y29289849D01*
X57656999Y29332384D01*
X57646756Y29337602D01*
X57464247Y29410416D01*
X57453219Y29413683D01*
X57260500Y29452017D01*
X57249054Y29453220D01*
X57052586Y29455791D01*
X57041106Y29454888D01*
X56847459Y29421614D01*
X56836339Y29418634D01*
X56651989Y29350624D01*
X56641611Y29345674D01*
X56550874Y29291691D01*
X56541276Y29281358D01*
X55866000Y29281358D01*
X55866000Y29478232D01*
X55886002Y29546353D01*
X55902905Y29567327D01*
X56730600Y30395021D01*
X57817316Y31481737D01*
X57879628Y31515763D01*
X57906411Y31518642D01*
X60820000Y31518642D01*
X60888121Y31498640D01*
G37*
%TD.AperFunction*%
%TA.AperFunction,Conductor*%
G36*
X58499688Y36238021D02*
G01*
X58546181Y36184365D01*
X58556694Y36117213D01*
X58540219Y35978016D01*
X58539918Y35966515D01*
X58552769Y35770447D01*
X58554570Y35759077D01*
X58602936Y35568634D01*
X58606777Y35557787D01*
X58689041Y35379343D01*
X58694791Y35369382D01*
X58704568Y35355548D01*
X58715156Y35347161D01*
X58728457Y35354189D01*
X59586905Y36212637D01*
X59649217Y36246663D01*
X59720032Y36241598D01*
X59765095Y36212637D01*
X60623868Y35353864D01*
X60636248Y35347104D01*
X60642828Y35352030D01*
X60710066Y35472091D01*
X60760803Y35521752D01*
X60830335Y35536099D01*
X60896585Y35510577D01*
X60938521Y35453289D01*
X60946000Y35410524D01*
X60946000Y34376012D01*
X60925998Y34307891D01*
X60872342Y34261398D01*
X60820000Y34250012D01*
X56467801Y34250012D01*
X56399680Y34270014D01*
X56378706Y34286917D01*
X55902905Y34762718D01*
X55868879Y34825030D01*
X55866000Y34851813D01*
X55866000Y34983924D01*
X56541762Y34983924D01*
X56551644Y34971435D01*
X56588738Y34946649D01*
X56598848Y34941159D01*
X56779387Y34863593D01*
X56790330Y34860038D01*
X56981974Y34816673D01*
X56993384Y34815171D01*
X57189730Y34807457D01*
X57201212Y34808059D01*
X57395678Y34836254D01*
X57406860Y34838939D01*
X57592927Y34902100D01*
X57603440Y34906781D01*
X57721663Y34972990D01*
X57731528Y34983068D01*
X57731198Y34983924D01*
X59081762Y34983924D01*
X59091644Y34971435D01*
X59128738Y34946649D01*
X59138848Y34941159D01*
X59319387Y34863593D01*
X59330330Y34860038D01*
X59521974Y34816673D01*
X59533384Y34815171D01*
X59729730Y34807457D01*
X59741212Y34808059D01*
X59935678Y34836254D01*
X59946860Y34838939D01*
X60132927Y34902100D01*
X60143440Y34906781D01*
X60261663Y34972990D01*
X60271528Y34983068D01*
X60268572Y34990740D01*
X59688812Y35570500D01*
X59674868Y35578114D01*
X59673035Y35577983D01*
X59666420Y35573732D01*
X59087958Y34995270D01*
X59081762Y34983924D01*
X57731198Y34983924D01*
X57728572Y34990740D01*
X57148812Y35570500D01*
X57134868Y35578114D01*
X57133035Y35577983D01*
X57126420Y35573732D01*
X56547958Y34995270D01*
X56541762Y34983924D01*
X55866000Y34983924D01*
X55866000Y35419030D01*
X55886002Y35487151D01*
X55939658Y35533644D01*
X56009932Y35543748D01*
X56074512Y35514254D01*
X56106426Y35471781D01*
X56149040Y35379343D01*
X56154791Y35369382D01*
X56164568Y35355548D01*
X56175156Y35347161D01*
X56188457Y35354189D01*
X57046905Y36212637D01*
X57109217Y36246663D01*
X57180032Y36241598D01*
X57225095Y36212637D01*
X58083868Y35353864D01*
X58096248Y35347104D01*
X58102828Y35352030D01*
X58171741Y35475082D01*
X58176422Y35485595D01*
X58239583Y35671662D01*
X58242268Y35682844D01*
X58270759Y35879350D01*
X58271389Y35886733D01*
X58272753Y35938818D01*
X58272511Y35946215D01*
X58256496Y36120493D01*
X58270180Y36190159D01*
X58319357Y36241366D01*
X58381967Y36258023D01*
X58431567Y36258023D01*
X58499688Y36238021D01*
G37*
%TD.AperFunction*%
%TA.AperFunction,Conductor*%
G36*
X74604121Y44939520D02*
G01*
X74650614Y44885864D01*
X74662000Y44833522D01*
X74662000Y37465522D01*
X74641998Y37397401D01*
X74588342Y37350908D01*
X74536000Y37339522D01*
X64305918Y37339522D01*
X64237797Y37359524D01*
X64226866Y37367779D01*
X64226771Y37367656D01*
X64226769Y37367658D01*
X64223572Y37370138D01*
X64214550Y37377843D01*
X64201115Y37390459D01*
X64182320Y37408109D01*
X64175374Y37411928D01*
X64175371Y37411930D01*
X64164565Y37417871D01*
X64148046Y37428722D01*
X64147582Y37429082D01*
X64132040Y37441137D01*
X64124771Y37444282D01*
X64124767Y37444285D01*
X64091462Y37458697D01*
X64080812Y37463914D01*
X64042059Y37485218D01*
X64022436Y37490256D01*
X64003733Y37496660D01*
X63992419Y37501556D01*
X63992418Y37501556D01*
X63985144Y37504704D01*
X63977321Y37505943D01*
X63977311Y37505946D01*
X63941475Y37511622D01*
X63929855Y37514028D01*
X63894710Y37523051D01*
X63894709Y37523051D01*
X63887029Y37525023D01*
X63866775Y37525023D01*
X63847064Y37526574D01*
X63834885Y37528503D01*
X63827056Y37529743D01*
X63797785Y37526976D01*
X63783038Y37525582D01*
X63771180Y37525023D01*
X54219246Y37525023D01*
X54208063Y37525550D01*
X54200570Y37527225D01*
X54192644Y37526976D01*
X54192643Y37526976D01*
X54132493Y37525085D01*
X54128534Y37525023D01*
X54100623Y37525023D01*
X54096689Y37524526D01*
X54096688Y37524526D01*
X54096623Y37524518D01*
X54084786Y37523585D01*
X54052969Y37522585D01*
X54048508Y37522445D01*
X54040589Y37522196D01*
X54022933Y37517067D01*
X54021137Y37516545D01*
X54001785Y37512537D01*
X53994714Y37511643D01*
X53981682Y37509997D01*
X53974313Y37507080D01*
X53974311Y37507079D01*
X53940576Y37493723D01*
X53929348Y37489878D01*
X53886886Y37477541D01*
X53880064Y37473507D01*
X53880058Y37473504D01*
X53869447Y37467229D01*
X53851697Y37458533D01*
X53840235Y37453995D01*
X53840230Y37453992D01*
X53832862Y37451075D01*
X53815449Y37438424D01*
X53797104Y37425096D01*
X53787186Y37418580D01*
X53775942Y37411930D01*
X53749116Y37396065D01*
X53734792Y37381741D01*
X53719766Y37368906D01*
X53712443Y37363585D01*
X53645577Y37339728D01*
X53638383Y37339522D01*
X51607095Y37339522D01*
X51538974Y37359524D01*
X51518000Y37376427D01*
X51416652Y37477775D01*
X51409112Y37486061D01*
X51405000Y37492540D01*
X51355348Y37539166D01*
X51352507Y37541920D01*
X51332770Y37561657D01*
X51329573Y37564137D01*
X51320551Y37571842D01*
X51294100Y37596681D01*
X51288321Y37602108D01*
X51281375Y37605927D01*
X51281372Y37605929D01*
X51270566Y37611870D01*
X51254047Y37622721D01*
X51253583Y37623081D01*
X51238041Y37635136D01*
X51230772Y37638281D01*
X51230768Y37638284D01*
X51197463Y37652696D01*
X51186813Y37657913D01*
X51148060Y37679217D01*
X51128437Y37684255D01*
X51109734Y37690659D01*
X51098420Y37695555D01*
X51098419Y37695555D01*
X51091145Y37698703D01*
X51083322Y37699942D01*
X51083312Y37699945D01*
X51047476Y37705621D01*
X51035856Y37708027D01*
X51000711Y37717050D01*
X51000710Y37717050D01*
X50993030Y37719022D01*
X50972776Y37719022D01*
X50953065Y37720573D01*
X50940886Y37722502D01*
X50933057Y37723742D01*
X50925165Y37722996D01*
X50889039Y37719581D01*
X50877181Y37719022D01*
X39228000Y37719022D01*
X39159879Y37739024D01*
X39113386Y37792680D01*
X39102000Y37845022D01*
X39102000Y44833522D01*
X39122002Y44901643D01*
X39175658Y44948136D01*
X39228000Y44959522D01*
X74536000Y44959522D01*
X74604121Y44939520D01*
G37*
%TD.AperFunction*%
%TD*%
M02*
