M48
; DRILL file {KiCad (6.0.2)} date Tue May 10 14:08:21 2022
; FORMAT={-:-/ absolute / metric / decimal}
; #@! TF.CreationDate,2022-05-10T14:08:21+02:00
; #@! TF.GenerationSoftware,Kicad,Pcbnew,(6.0.2)
; #@! TF.FileFunction,MixedPlating,1,4
FMAT,2
METRIC
; #@! TA.AperFunction,Plated,PTH,ViaDrill
T1C0.400
; #@! TA.AperFunction,Plated,PTH,ViaDrill
T2C0.500
; #@! TA.AperFunction,Plated,PTH,ComponentDrill
T3C0.500
; #@! TA.AperFunction,Plated,PTH,ComponentDrill
T4C0.740
; #@! TA.AperFunction,Plated,PTH,ComponentDrill
T5C0.750
; #@! TA.AperFunction,Plated,PTH,ComponentDrill
T6C0.800
; #@! TA.AperFunction,Plated,PTH,ComponentDrill
T7C0.950
; #@! TA.AperFunction,Plated,PTH,ComponentDrill
T8C1.000
; #@! TA.AperFunction,Plated,PTH,ComponentDrill
T9C1.100
; #@! TA.AperFunction,Plated,PTH,ComponentDrill
T10C1.200
; #@! TA.AperFunction,Plated,PTH,ComponentDrill
T11C1.500
; #@! TA.AperFunction,Plated,PTH,ComponentDrill
T12C1.520
; #@! TA.AperFunction,Plated,PTH,ComponentDrill
T13C3.200
%
G90
G05
T1
X1.104Y37.898
X1.154Y22.557
X1.231Y47.068
X2.424Y37.39
X2.704Y43.69
X2.907Y14.276
X3.72Y9.425
X3.796Y33.022
X3.923Y23.268
X4.075Y40.715
X4.126Y46.665
X4.355Y12.905
X5.218Y23.293
X5.32Y46.687
X6.082Y33.022
X6.514Y7.876
X7.479Y33.747
X7.479Y32.297
X7.606Y14.505
X7.657Y7.164
X7.809Y16.512
X8.317Y20.052
X8.368Y23.166
X9.384Y42.801
X10.527Y34.329
X10.705Y5.386
X12.407Y23.166
X14.362Y62.282
X14.718Y30.228
X14.718Y26.926
X15.226Y44.198
X15.226Y41.912
X16.242Y29.212
X16.75Y37.086
X16.75Y36.07
X16.75Y35.054
X17.258Y72.138
X17.766Y29.974
X17.766Y28.196
X18.528Y37.086
X18.528Y36.07
X18.528Y35.054
X18.884Y22.557
X20.128Y37.873
X20.687Y88.267
X21.525Y78.081
X21.525Y75.186
X21.576Y34.038
X21.83Y28.958
X22.059Y25.605
X23.557Y26.646
X23.608Y34.038
X24.116Y45.722
X24.37Y32.26
X25.183Y76.964
X25.386Y53.85
X25.386Y37.848
X25.818Y66.423
X25.945Y72.849
X26.402Y19.814
X26.402Y17.203
X26.91Y37.848
X30.872Y51.843
X31.939Y34.038
X32.015Y25.554
X35.571Y61.241
X36.054Y45.722
X36.562Y30.228
X37.426Y65.94
X38.594Y29.974
X39.483Y88.394
X39.864Y31.244
X40.885Y29.997
X41.134Y56.39
X41.312Y72.747
X41.312Y70.106
X43.42Y54.612
X45.274Y72.468
X45.3Y67.794
X45.452Y49.786
X45.503Y61.597
X50.862Y51.716
X54.317Y66.118
X56.323Y69.979
X57.517Y88.267
X59.879Y77.624
X59.879Y74.906
X63.994Y53.088
X64.223Y63.832
X69.836Y51.386
X72.351Y61.698
X72.63Y30.228
X72.63Y27.942
X74.484Y65.432
X76.821Y88.521
X78.65Y72.493
X78.65Y70.131
X80.25Y51.056
X83.628Y62.384
T2
X6.59Y31.117
X6.59Y29.617
X6.59Y28.117
X6.59Y26.617
X8.09Y31.117
X8.09Y29.617
X8.09Y28.117
X8.09Y26.617
X9.59Y31.117
X9.59Y29.617
X9.59Y28.117
X9.59Y26.617
X11.09Y31.117
X11.09Y29.617
X11.09Y28.117
X11.09Y26.617
X39.585Y44.452
X39.585Y42.952
X39.585Y41.452
X39.585Y39.952
X39.585Y38.452
X39.585Y7.114
X39.585Y5.614
X39.585Y4.114
X39.585Y2.614
X39.585Y1.114
X39.635Y26.418
X39.635Y24.918
X39.635Y23.418
X39.635Y21.918
X39.635Y20.418
X39.686Y19.071
X41.085Y44.452
X41.085Y42.952
X41.085Y41.452
X41.085Y39.952
X41.085Y38.452
X41.085Y7.114
X41.085Y5.614
X41.085Y4.114
X41.085Y2.614
X41.085Y1.114
X41.135Y26.418
X41.135Y24.918
X41.135Y23.418
X41.135Y21.918
X41.135Y20.418
X41.186Y19.071
X42.585Y44.452
X42.585Y42.952
X42.585Y41.452
X42.585Y39.952
X42.585Y38.452
X42.585Y7.114
X42.585Y5.614
X42.585Y4.114
X42.585Y2.614
X42.585Y1.114
X42.635Y26.418
X42.635Y24.918
X42.635Y23.418
X42.635Y21.918
X42.635Y20.418
X42.686Y19.071
X44.085Y44.452
X44.085Y42.952
X44.085Y41.452
X44.085Y39.952
X44.085Y38.452
X44.085Y7.114
X44.085Y5.614
X44.085Y4.114
X44.085Y2.614
X44.085Y1.114
X44.135Y26.418
X44.135Y24.918
X44.135Y23.418
X44.135Y21.918
X44.135Y20.418
X44.182Y27.662
X44.186Y19.071
X44.334Y9.12
X45.585Y44.452
X45.585Y42.952
X45.585Y41.452
X45.585Y39.952
X45.585Y38.452
X45.585Y7.114
X45.585Y5.614
X45.585Y4.114
X45.585Y2.614
X45.585Y1.114
X45.635Y26.418
X45.635Y24.918
X45.635Y23.418
X45.635Y21.918
X45.635Y20.418
X45.686Y19.071
X47.085Y44.452
X47.085Y42.952
X47.085Y41.452
X47.085Y39.952
X47.085Y38.452
X47.085Y7.114
X47.085Y5.614
X47.085Y4.114
X47.085Y2.614
X47.085Y1.114
X47.135Y26.418
X47.135Y24.918
X47.135Y23.418
X47.135Y21.918
X47.135Y20.418
X47.186Y19.071
X48.585Y44.452
X48.585Y42.952
X48.585Y41.452
X48.585Y39.952
X48.585Y38.452
X48.585Y7.114
X48.585Y5.614
X48.585Y4.114
X48.585Y2.614
X48.585Y1.114
X48.635Y26.418
X48.635Y24.918
X48.635Y23.418
X48.635Y21.918
X48.635Y20.418
X48.686Y19.071
X50.085Y44.452
X50.085Y42.952
X50.085Y41.452
X50.085Y39.952
X50.085Y38.452
X50.085Y7.114
X50.085Y5.614
X50.085Y4.114
X50.085Y2.614
X50.085Y1.114
X50.135Y26.418
X50.135Y24.918
X50.135Y23.418
X50.135Y21.918
X50.135Y20.418
X50.186Y19.071
X51.585Y44.452
X51.585Y42.952
X51.585Y41.452
X51.585Y39.952
X51.585Y38.452
X51.585Y7.114
X51.585Y5.614
X51.585Y4.114
X51.585Y2.614
X51.585Y1.114
X51.635Y26.418
X51.635Y24.918
X51.635Y23.418
X51.635Y21.918
X51.635Y20.418
X51.686Y19.071
X53.085Y44.452
X53.085Y42.952
X53.085Y41.452
X53.085Y39.952
X53.085Y38.452
X53.085Y7.114
X53.085Y5.614
X53.085Y4.114
X53.085Y2.614
X53.085Y1.114
X53.135Y26.418
X53.135Y24.918
X53.135Y23.418
X53.135Y21.918
X53.135Y20.418
X53.186Y19.071
X54.585Y44.452
X54.585Y42.952
X54.585Y41.452
X54.585Y39.952
X54.585Y38.452
X54.585Y7.114
X54.585Y5.614
X54.585Y4.114
X54.585Y2.614
X54.585Y1.114
X54.635Y26.418
X54.635Y24.918
X54.635Y23.418
X54.635Y21.918
X54.635Y20.418
X54.686Y19.071
X56.085Y44.452
X56.085Y42.952
X56.085Y41.452
X56.085Y39.952
X56.085Y38.452
X56.085Y7.114
X56.085Y5.614
X56.085Y4.114
X56.085Y2.614
X56.085Y1.114
X56.135Y26.418
X56.135Y24.918
X56.135Y23.418
X56.135Y21.918
X56.135Y20.418
X56.186Y19.071
X56.186Y15.49
X56.212Y34.794
X56.237Y10.283
X56.262Y29.587
X57.585Y44.452
X57.585Y42.952
X57.585Y41.452
X57.585Y39.952
X57.585Y38.452
X57.585Y7.114
X57.585Y5.614
X57.585Y4.114
X57.585Y2.614
X57.585Y1.114
X57.635Y26.418
X57.635Y24.918
X57.635Y23.418
X57.635Y21.918
X57.635Y20.418
X57.686Y19.071
X57.686Y15.49
X57.712Y34.794
X57.737Y10.283
X57.762Y29.587
X59.085Y44.452
X59.085Y42.952
X59.085Y41.452
X59.085Y39.952
X59.085Y38.452
X59.085Y7.114
X59.085Y5.614
X59.085Y4.114
X59.085Y2.614
X59.085Y1.114
X59.135Y26.418
X59.135Y24.918
X59.135Y23.418
X59.135Y21.918
X59.135Y20.418
X59.186Y19.071
X59.186Y15.49
X59.212Y34.794
X59.237Y10.283
X59.262Y29.587
X60.585Y44.452
X60.585Y42.952
X60.585Y41.452
X60.585Y39.952
X60.585Y38.452
X60.585Y7.114
X60.585Y5.614
X60.585Y4.114
X60.585Y2.614
X60.585Y1.114
X60.635Y26.418
X60.635Y24.918
X60.635Y23.418
X60.635Y21.918
X60.635Y20.418
X60.686Y19.071
X60.686Y15.49
X60.712Y34.794
X60.737Y10.283
X60.762Y29.587
X62.085Y44.452
X62.085Y42.952
X62.085Y41.452
X62.085Y39.952
X62.085Y38.452
X62.085Y7.114
X62.085Y5.614
X62.085Y4.114
X62.085Y2.614
X62.085Y1.114
X62.135Y26.418
X62.135Y24.918
X62.135Y23.418
X62.135Y21.918
X62.135Y20.418
X62.186Y19.071
X63.585Y44.452
X63.585Y42.952
X63.585Y41.452
X63.585Y39.952
X63.585Y38.452
X63.585Y7.114
X63.585Y5.614
X63.585Y4.114
X63.585Y2.614
X63.585Y1.114
X63.635Y26.418
X63.635Y24.918
X63.635Y23.418
X63.635Y21.918
X63.635Y20.418
X63.686Y19.071
X65.085Y44.452
X65.085Y42.952
X65.085Y41.452
X65.085Y39.952
X65.085Y38.452
X65.085Y7.114
X65.085Y5.614
X65.085Y4.114
X65.085Y2.614
X65.085Y1.114
X65.135Y26.418
X65.135Y24.918
X65.135Y23.418
X65.135Y21.918
X65.135Y20.418
X65.186Y19.071
X66.585Y44.452
X66.585Y42.952
X66.585Y41.452
X66.585Y39.952
X66.585Y38.452
X66.585Y7.114
X66.585Y5.614
X66.585Y4.114
X66.585Y2.614
X66.585Y1.114
X66.635Y26.418
X66.635Y24.918
X66.635Y23.418
X66.635Y21.918
X66.635Y20.418
X66.686Y19.071
X68.085Y44.452
X68.085Y42.952
X68.085Y41.452
X68.085Y39.952
X68.085Y38.452
X68.085Y7.114
X68.085Y5.614
X68.085Y4.114
X68.085Y2.614
X68.085Y1.114
X68.135Y26.418
X68.135Y24.918
X68.135Y23.418
X68.135Y21.918
X68.135Y20.418
X68.186Y19.071
X69.585Y44.452
X69.585Y42.952
X69.585Y41.452
X69.585Y39.952
X69.585Y38.452
X69.585Y7.114
X69.585Y5.614
X69.585Y4.114
X69.585Y2.614
X69.585Y1.114
X69.635Y26.418
X69.635Y24.918
X69.635Y23.418
X69.635Y21.918
X69.635Y20.418
X69.686Y19.071
X71.085Y44.452
X71.085Y42.952
X71.085Y41.452
X71.085Y39.952
X71.085Y38.452
X71.085Y7.114
X71.085Y5.614
X71.085Y4.114
X71.085Y2.614
X71.085Y1.114
X71.135Y26.418
X71.135Y24.918
X71.135Y23.418
X71.135Y21.918
X71.135Y20.418
X71.186Y19.071
X72.585Y44.452
X72.585Y42.952
X72.585Y41.452
X72.585Y39.952
X72.585Y38.452
X72.585Y7.114
X72.585Y5.614
X72.585Y4.114
X72.585Y2.614
X72.585Y1.114
X72.63Y36.222
X72.635Y26.418
X72.635Y24.918
X72.635Y23.418
X72.635Y21.918
X72.635Y20.418
X72.686Y19.071
X72.757Y17.502
X72.935Y10.162
X72.96Y9.044
X74.085Y44.452
X74.085Y42.952
X74.085Y41.452
X74.085Y39.952
X74.085Y38.452
X74.085Y7.114
X74.085Y5.614
X74.085Y4.114
X74.085Y2.614
X74.085Y1.114
X74.135Y26.418
X74.135Y24.918
X74.135Y23.418
X74.135Y21.918
X74.135Y20.418
X74.186Y19.071
T3
X1.904Y95.24
X2.607Y96.937
X2.607Y93.543
X4.304Y97.64
X4.304Y92.84
X6.001Y96.937
X6.001Y93.543
X6.704Y95.24
X78.866Y3.673
X79.569Y5.37
X79.569Y1.976
X81.266Y6.073
X81.266Y1.273
X82.963Y5.37
X82.963Y1.976
X83.666Y3.673
X86.359Y95.494
X87.062Y97.191
X87.062Y93.797
X88.759Y97.894
X88.759Y93.094
X90.456Y97.191
X90.456Y93.797
X91.159Y95.494
T4
X49.516Y35.943
X49.516Y28.323
X49.694Y16.74
X49.694Y9.12
X52.056Y35.943
X52.056Y28.323
X52.234Y16.74
X52.234Y9.12
X54.596Y35.943
X54.596Y28.323
X54.774Y16.74
X54.774Y9.12
X57.136Y35.943
X57.136Y28.323
X57.314Y16.74
X57.314Y9.12
X59.676Y35.943
X59.676Y28.323
X59.854Y16.74
X59.854Y9.12
X62.216Y35.943
X62.216Y28.323
X62.394Y16.74
X62.394Y9.12
X64.756Y35.943
X64.756Y28.323
X64.934Y16.74
X64.934Y9.12
X67.296Y35.943
X67.296Y28.323
X67.474Y16.74
X67.474Y9.12
T5
X4.761Y59.241
X4.761Y57.741
X4.761Y56.241
X4.761Y54.741
X4.761Y53.241
X4.761Y51.741
T6
X3.923Y83.705
X3.923Y81.205
X44.614Y35.181
X44.614Y32.681
X44.893Y16.054
X44.893Y13.554
T7
X89.648Y39.372
X89.648Y36.872
X89.648Y34.372
X89.648Y31.872
X89.648Y17.528
X89.648Y15.028
X89.648Y12.528
X89.648Y10.028
T8
X19.584Y92.458
X22.084Y92.458
X37.872Y93.22
X40.372Y93.22
X56.414Y93.22
X58.914Y93.22
X75.464Y93.474
X77.964Y93.474
T9
X14.21Y93.474
X14.21Y90.934
X14.21Y88.394
X32.498Y93.982
X32.498Y91.442
X32.498Y88.902
X50.786Y93.982
X50.786Y91.442
X50.786Y88.902
X69.836Y94.236
X69.836Y91.696
X69.836Y89.156
T10
X10.146Y79.504
X10.146Y68.836
X28.688Y74.17
X28.688Y64.01
X30.466Y79.504
X30.466Y68.836
X48.5Y78.996
X48.5Y68.582
X49.008Y74.17
X49.008Y64.01
X67.55Y73.916
X67.804Y64.01
X68.82Y78.996
X68.82Y68.582
X87.87Y73.916
X88.124Y64.01
T11
X20.179Y83.423
X20.179Y49.405
X40.245Y83.931
X40.245Y49.913
X58.914Y83.804
X58.914Y49.786
X78.091Y83.804
X78.091Y49.786
T12
X4.075Y75.922
X4.075Y70.842
X27.418Y4.32
X32.498Y4.32
T13
X4.304Y95.24
X81.266Y3.673
X88.759Y95.494
T0
M30
