G04 EAGLE Gerber X2 export*
%TF.Part,Single*%
%TF.FileFunction,Paste,Top*%
%TF.FilePolarity,Positive*%
%TF.GenerationSoftware,Autodesk,EAGLE,9.6.2*%
%TF.CreationDate,2022-05-02T11:32:10Z*%
G75*
%MOMM*%
%FSLAX46Y46*%
%LPD*%
%INSolderpaste Top*%
%AMOC8*
5,1,8,0,0,1.08239X$1,22.5*%
G01*
%ADD10R,1.500000X1.300000*%
%ADD11R,1.300000X1.500000*%
%ADD12R,1.200000X1.200000*%
%ADD13R,2.000000X2.000000*%
%ADD14R,0.550000X1.500000*%
%ADD15R,1.500000X0.550000*%
%ADD16R,2.950000X1.950000*%
%ADD17C,0.508000*%


D10*
X27311400Y7656700D03*
X27311400Y5756700D03*
D11*
X26251400Y14106700D03*
X24351400Y14106700D03*
D10*
X16081400Y17366700D03*
X16081400Y15466700D03*
X22271400Y15346700D03*
X22271400Y17246700D03*
X24341400Y18216700D03*
X24341400Y16316700D03*
D12*
X24241400Y12216700D03*
X26341400Y12216700D03*
X29571400Y40036700D03*
X29571400Y42136700D03*
D10*
X16091400Y13316700D03*
X16091400Y11416700D03*
X27511400Y39826700D03*
X27511400Y41726700D03*
X22231400Y11316700D03*
X22231400Y13216700D03*
D13*
X16731400Y7816700D03*
X24731400Y7816700D03*
D14*
X19211400Y21126700D03*
X20011400Y21126700D03*
X20811400Y21126700D03*
X21611400Y21126700D03*
X22411400Y21126700D03*
X23211400Y21126700D03*
X24011400Y21126700D03*
X24811400Y21126700D03*
D15*
X26211400Y22526700D03*
X26211400Y23326700D03*
X26211400Y24126700D03*
X26211400Y24926700D03*
X26211400Y25726700D03*
X26211400Y26526700D03*
X26211400Y27326700D03*
X26211400Y28126700D03*
D14*
X24811400Y29526700D03*
X24011400Y29526700D03*
X23211400Y29526700D03*
X22411400Y29526700D03*
X21611400Y29526700D03*
X20811400Y29526700D03*
X20011400Y29526700D03*
X19211400Y29526700D03*
D15*
X17811400Y28126700D03*
X17811400Y27326700D03*
X17811400Y26526700D03*
X17811400Y25726700D03*
X17811400Y24926700D03*
X17811400Y24126700D03*
X17811400Y23326700D03*
X17811400Y22526700D03*
D16*
X19101400Y18426700D03*
X19101400Y14126700D03*
D17*
X14400000Y1810000D03*
X32330000Y1800000D03*
X15320000Y41150000D03*
M02*
