G04 EAGLE Gerber X2 export*
%TF.Part,Single*%
%TF.FileFunction,Soldermask,Bot,1*%
%TF.FilePolarity,Positive*%
%TF.GenerationSoftware,Autodesk,EAGLE,9.6.2*%
%TF.CreationDate,2022-05-02T11:32:10Z*%
G75*
%MOMM*%
%FSLAX46Y46*%
%LPD*%
%INSoldermask Bottom*%
%AMOC8*
5,1,8,0,0,1.08239X$1,22.5*%
G01*
%ADD10R,1.703200X1.503200*%
%ADD11R,1.703200X2.203200*%
%ADD12R,4.003200X2.203200*%
%ADD13C,1.727200*%
%ADD14C,1.016000*%
%ADD15C,1.309600*%


D10*
X16321400Y34586700D03*
X16321400Y32686700D03*
X27211400Y40996700D03*
X27211400Y39096700D03*
X29701400Y41076700D03*
X29701400Y39176700D03*
X18431400Y34586700D03*
X18431400Y32686700D03*
D11*
X24941400Y34456700D03*
X22641400Y34456700D03*
X20341400Y34456700D03*
D12*
X22641400Y40756700D03*
D13*
X25261400Y4448700D02*
X25261400Y2924700D01*
X22721400Y2924700D02*
X22721400Y4448700D01*
X20181400Y4448700D02*
X20181400Y2924700D01*
X17641400Y2924700D02*
X17641400Y4448700D01*
X32970200Y40844800D02*
X34494200Y40844800D01*
X34494200Y38304800D02*
X32970200Y38304800D01*
X32970200Y35764800D02*
X34494200Y35764800D01*
X34494200Y33224800D02*
X32970200Y33224800D01*
X32970200Y30684800D02*
X34494200Y30684800D01*
X34494200Y28144800D02*
X32970200Y28144800D01*
X32970200Y25604800D02*
X34494200Y25604800D01*
X34494200Y23064800D02*
X32970200Y23064800D01*
X32970200Y20524800D02*
X34494200Y20524800D01*
X34494200Y17984800D02*
X32970200Y17984800D01*
X32970200Y15444800D02*
X34494200Y15444800D01*
X34494200Y12904800D02*
X32970200Y12904800D01*
X32970200Y10364800D02*
X34494200Y10364800D01*
X34494200Y7824800D02*
X32970200Y7824800D01*
X32970200Y5284800D02*
X34494200Y5284800D01*
X11760200Y40843200D02*
X10236200Y40843200D01*
X10236200Y38303200D02*
X11760200Y38303200D01*
X11760200Y35763200D02*
X10236200Y35763200D01*
X10236200Y33223200D02*
X11760200Y33223200D01*
X11760200Y30683200D02*
X10236200Y30683200D01*
X10236200Y28143200D02*
X11760200Y28143200D01*
X11760200Y25603200D02*
X10236200Y25603200D01*
X10236200Y23063200D02*
X11760200Y23063200D01*
X11760200Y20523200D02*
X10236200Y20523200D01*
X10236200Y17983200D02*
X11760200Y17983200D01*
X11760200Y15443200D02*
X10236200Y15443200D01*
X10236200Y12903200D02*
X11760200Y12903200D01*
X11760200Y10363200D02*
X10236200Y10363200D01*
X10236200Y7823200D02*
X11760200Y7823200D01*
X11760200Y5283200D02*
X10236200Y5283200D01*
D14*
X14400000Y1810000D03*
X32330000Y1800000D03*
X15320000Y41150000D03*
D15*
X29988200Y5666700D03*
X27921400Y38646700D03*
X17371400Y16004900D03*
X24341400Y15196700D03*
X25369200Y16236700D03*
X27593600Y16176700D03*
X25851400Y29446700D03*
X20561400Y11166700D03*
X22414309Y9899609D03*
X14373975Y8066700D03*
X19811400Y16996700D03*
X16492975Y20987075D03*
X18871400Y15936700D03*
X15381400Y19474700D03*
X16170772Y27776072D03*
X18601400Y6796700D03*
X25931400Y21116700D03*
X14761400Y5006700D03*
M02*
