G04 EAGLE Gerber X2 export*
%TF.Part,Single*%
%TF.FileFunction,Profile,NP*%
%TF.FilePolarity,Positive*%
%TF.GenerationSoftware,Autodesk,EAGLE,9.6.2*%
%TF.CreationDate,2022-03-30T08:13:23Z*%
G75*
%MOMM*%
%FSLAX34Y34*%
%LPD*%
%IN*%
%AMOC8*
5,1,8,0,0,1.08239X$1,22.5*%
G01*
%ADD10C,0.254000*%


D10*
X0Y200D02*
X453900Y200D01*
X453900Y241300D01*
X0Y241300D01*
X0Y200D01*
X406613Y88650D02*
X407035Y88594D01*
X407447Y88484D01*
X407841Y88321D01*
X408209Y88108D01*
X408547Y87849D01*
X408849Y87547D01*
X409108Y87209D01*
X409321Y86841D01*
X409484Y86447D01*
X409594Y86035D01*
X409650Y85613D01*
X409650Y85187D01*
X409594Y84765D01*
X409484Y84353D01*
X409321Y83959D01*
X409108Y83591D01*
X408849Y83253D01*
X408547Y82951D01*
X408209Y82692D01*
X407841Y82479D01*
X407447Y82316D01*
X407035Y82206D01*
X406613Y82150D01*
X406187Y82150D01*
X405765Y82206D01*
X405353Y82316D01*
X404959Y82479D01*
X404591Y82692D01*
X404253Y82951D01*
X403951Y83253D01*
X403692Y83591D01*
X403479Y83959D01*
X403316Y84353D01*
X403206Y84765D01*
X403150Y85187D01*
X403150Y85613D01*
X403206Y86035D01*
X403316Y86447D01*
X403479Y86841D01*
X403692Y87209D01*
X403951Y87547D01*
X404253Y87849D01*
X404591Y88108D01*
X404959Y88321D01*
X405353Y88484D01*
X405765Y88594D01*
X406187Y88650D01*
X406613Y88650D01*
X406613Y146450D02*
X407035Y146394D01*
X407447Y146284D01*
X407841Y146121D01*
X408209Y145908D01*
X408547Y145649D01*
X408849Y145347D01*
X409108Y145009D01*
X409321Y144641D01*
X409484Y144247D01*
X409594Y143835D01*
X409650Y143413D01*
X409650Y142987D01*
X409594Y142565D01*
X409484Y142153D01*
X409321Y141759D01*
X409108Y141391D01*
X408849Y141053D01*
X408547Y140751D01*
X408209Y140492D01*
X407841Y140279D01*
X407447Y140116D01*
X407035Y140006D01*
X406613Y139950D01*
X406187Y139950D01*
X405765Y140006D01*
X405353Y140116D01*
X404959Y140279D01*
X404591Y140492D01*
X404253Y140751D01*
X403951Y141053D01*
X403692Y141391D01*
X403479Y141759D01*
X403316Y142153D01*
X403206Y142565D01*
X403150Y142987D01*
X403150Y143413D01*
X403206Y143835D01*
X403316Y144247D01*
X403479Y144641D01*
X403692Y145009D01*
X403951Y145347D01*
X404253Y145649D01*
X404591Y145908D01*
X404959Y146121D01*
X405353Y146284D01*
X405765Y146394D01*
X406187Y146450D01*
X406613Y146450D01*
M02*
