G04 EAGLE Gerber X2 export*
%TF.Part,Single*%
%TF.FileFunction,Soldermask,Top,1*%
%TF.FilePolarity,Positive*%
%TF.GenerationSoftware,Autodesk,EAGLE,9.6.2*%
%TF.CreationDate,2022-03-30T08:13:23Z*%
G75*
%MOMM*%
%FSLAX34Y34*%
%LPD*%
%INSoldermask Top*%
%AMOC8*
5,1,8,0,0,1.08239X$1,22.5*%
G01*
%ADD10R,1.703200X1.503200*%
%ADD11R,1.503200X1.703200*%
%ADD12R,0.600000X0.300000*%
%ADD13R,0.300000X0.600000*%
%ADD14R,0.500000X0.500000*%
%ADD15C,2.032000*%
%ADD16R,1.003200X1.003200*%
%ADD17R,1.203200X1.603200*%
%ADD18R,1.353200X0.803200*%
%ADD19R,1.353200X0.503200*%
%ADD20R,2.203200X2.383200*%
%ADD21C,0.853200*%
%ADD22C,0.705600*%
%ADD23C,0.655600*%


D10*
X312420Y142900D03*
X312420Y161900D03*
D11*
X409600Y196850D03*
X428600Y196850D03*
D12*
X302400Y92950D03*
X302400Y97950D03*
X302400Y102950D03*
X302400Y107950D03*
X302400Y112950D03*
X302400Y117950D03*
X302400Y122950D03*
D13*
X294400Y130950D03*
X289400Y130950D03*
X284400Y130950D03*
X279400Y130950D03*
X274400Y130950D03*
X269400Y130950D03*
X264400Y130950D03*
D12*
X256400Y122950D03*
X256400Y117950D03*
X256400Y112950D03*
X256400Y107950D03*
X256400Y102950D03*
X256400Y97950D03*
X256400Y92950D03*
D13*
X264400Y84950D03*
X269400Y84950D03*
X274400Y84950D03*
X279400Y84950D03*
X284400Y84950D03*
X289400Y84950D03*
X294400Y84950D03*
D14*
X300425Y86925D03*
D12*
X289400Y95450D03*
X279400Y95450D03*
X269400Y95450D03*
X289400Y100450D03*
X279400Y100450D03*
X269400Y100450D03*
X289400Y105450D03*
X279400Y105450D03*
X269400Y105450D03*
X289400Y110450D03*
X279400Y110450D03*
X269400Y110450D03*
X289400Y115450D03*
X279400Y115450D03*
X269400Y115450D03*
X289400Y120450D03*
X279400Y120450D03*
X269400Y120450D03*
D15*
X333756Y76200D02*
X352044Y76200D01*
X352044Y101600D02*
X333756Y101600D01*
X333756Y127000D02*
X352044Y127000D01*
X352044Y152400D02*
X333756Y152400D01*
X45974Y168910D02*
X27686Y168910D01*
X27686Y143510D02*
X45974Y143510D01*
X45974Y118110D02*
X27686Y118110D01*
X27686Y92710D02*
X45974Y92710D01*
X45974Y67310D02*
X27686Y67310D01*
X27686Y41910D02*
X45974Y41910D01*
X204470Y194056D02*
X204470Y212344D01*
X179070Y212344D02*
X179070Y194056D01*
X153670Y194056D02*
X153670Y212344D01*
X128270Y212344D02*
X128270Y194056D01*
X102870Y194056D02*
X102870Y212344D01*
X77470Y212344D02*
X77470Y194056D01*
D16*
X311150Y62350D03*
X311150Y77350D03*
X219710Y118230D03*
X219710Y133230D03*
X240030Y118230D03*
X240030Y133230D03*
D17*
X125730Y113460D03*
X116230Y135460D03*
X135230Y135460D03*
X125730Y55450D03*
X135230Y33450D03*
X116230Y33450D03*
D10*
X350520Y47600D03*
X350520Y28600D03*
D11*
X310540Y39370D03*
X329540Y39370D03*
D10*
X218440Y84480D03*
X218440Y103480D03*
X240030Y84480D03*
X240030Y103480D03*
D11*
X259740Y168910D03*
X278740Y168910D03*
D10*
X190500Y84480D03*
X190500Y103480D03*
D11*
X139040Y90170D03*
X120040Y90170D03*
X288138Y147828D03*
X269138Y147828D03*
X365150Y196850D03*
X384150Y196850D03*
D10*
X162560Y133960D03*
X162560Y114960D03*
X163830Y36220D03*
X163830Y55220D03*
X400050Y34900D03*
X400050Y15900D03*
X438150Y34900D03*
X438150Y15900D03*
X374650Y47600D03*
X374650Y28600D03*
D18*
X395650Y82300D03*
X395650Y90300D03*
X395650Y138300D03*
X395650Y146300D03*
D19*
X395650Y96800D03*
X395650Y131800D03*
X395650Y101800D03*
X395650Y126800D03*
X395650Y106800D03*
X395650Y121800D03*
X395650Y111800D03*
X395650Y116800D03*
D20*
X401400Y63200D03*
X401400Y165400D03*
X440700Y63200D03*
X440700Y165400D03*
D21*
X406400Y85400D03*
X406400Y143200D03*
D22*
X330200Y50800D03*
D23*
X328930Y26670D03*
X246380Y167640D03*
X182880Y161290D03*
X317500Y128270D03*
D22*
X365760Y90170D03*
D23*
X365760Y138430D03*
D22*
X374650Y101600D03*
X361950Y25400D03*
X373380Y129540D03*
X420370Y12700D03*
X406400Y107950D03*
X374650Y120650D03*
X311150Y120650D03*
D23*
X248920Y119380D03*
X323850Y139700D03*
X151130Y77470D03*
X162560Y72390D03*
X165100Y148590D03*
X273050Y77470D03*
X177800Y36830D03*
X170180Y101600D03*
X171450Y83820D03*
X191770Y69850D03*
X270510Y57150D03*
X270510Y43180D03*
X165100Y91440D03*
X139700Y104140D03*
X128270Y176530D03*
X142240Y116840D03*
X77470Y90170D03*
X67310Y82550D03*
X205740Y92710D03*
M02*
