G04 EAGLE Gerber X2 export*
%TF.Part,Single*%
%TF.FileFunction,Paste,Top*%
%TF.FilePolarity,Positive*%
%TF.GenerationSoftware,Autodesk,EAGLE,9.6.2*%
%TF.CreationDate,2022-03-30T08:13:23Z*%
G75*
%MOMM*%
%FSLAX34Y34*%
%LPD*%
%INSolderpaste Top*%
%AMOC8*
5,1,8,0,0,1.08239X$1,22.5*%
G01*
%ADD10R,1.500000X1.300000*%
%ADD11R,1.300000X1.500000*%
%ADD12R,0.560000X0.260000*%
%ADD13R,0.260000X0.560000*%
%ADD14R,0.400000X0.400000*%
%ADD15R,0.800000X0.800000*%
%ADD16R,1.000000X1.400000*%
%ADD17R,1.150000X0.600000*%
%ADD18R,1.150000X0.300000*%
%ADD19R,2.000000X2.180000*%


D10*
X312420Y142900D03*
X312420Y161900D03*
D11*
X409600Y196850D03*
X428600Y196850D03*
D12*
X302400Y92950D03*
X302400Y97950D03*
X302400Y102950D03*
X302400Y107950D03*
X302400Y112950D03*
X302400Y117950D03*
X302400Y122950D03*
D13*
X294400Y130950D03*
X289400Y130950D03*
X284400Y130950D03*
X279400Y130950D03*
X274400Y130950D03*
X269400Y130950D03*
X264400Y130950D03*
D12*
X256400Y122950D03*
X256400Y117950D03*
X256400Y112950D03*
X256400Y107950D03*
X256400Y102950D03*
X256400Y97950D03*
X256400Y92950D03*
D13*
X264400Y84950D03*
X269400Y84950D03*
X274400Y84950D03*
X279400Y84950D03*
X284400Y84950D03*
X289400Y84950D03*
X294400Y84950D03*
D12*
X289400Y95450D03*
X279400Y95450D03*
X269400Y95450D03*
X289400Y100450D03*
X279400Y100450D03*
X269400Y100450D03*
X289400Y105450D03*
X279400Y105450D03*
X269400Y105450D03*
X289400Y110450D03*
X279400Y110450D03*
X269400Y110450D03*
X289400Y115450D03*
X279400Y115450D03*
X269400Y115450D03*
X289400Y120450D03*
X279400Y120450D03*
X269400Y120450D03*
D14*
X300400Y86950D03*
D15*
X311150Y62350D03*
X311150Y77350D03*
X219710Y118230D03*
X219710Y133230D03*
X240030Y118230D03*
X240030Y133230D03*
D16*
X125730Y113460D03*
X116230Y135460D03*
X135230Y135460D03*
X125730Y55450D03*
X135230Y33450D03*
X116230Y33450D03*
D10*
X350520Y47600D03*
X350520Y28600D03*
D11*
X310540Y39370D03*
X329540Y39370D03*
D10*
X218440Y84480D03*
X218440Y103480D03*
X240030Y84480D03*
X240030Y103480D03*
D11*
X259740Y168910D03*
X278740Y168910D03*
D10*
X190500Y84480D03*
X190500Y103480D03*
D11*
X139040Y90170D03*
X120040Y90170D03*
X288138Y147828D03*
X269138Y147828D03*
X365150Y196850D03*
X384150Y196850D03*
D10*
X162560Y133960D03*
X162560Y114960D03*
X163830Y36220D03*
X163830Y55220D03*
X400050Y34900D03*
X400050Y15900D03*
X438150Y34900D03*
X438150Y15900D03*
X374650Y47600D03*
X374650Y28600D03*
D17*
X395650Y82300D03*
X395650Y90300D03*
X395650Y138300D03*
X395650Y146300D03*
D18*
X395650Y96800D03*
X395650Y131800D03*
X395650Y101800D03*
X395650Y126800D03*
X395650Y106800D03*
X395650Y121800D03*
X395650Y111800D03*
X395650Y116800D03*
D19*
X401400Y63200D03*
X401400Y165400D03*
X440700Y63200D03*
X440700Y165400D03*
M02*
