G04 EAGLE Gerber X2 export*
%TF.Part,Single*%
%TF.FileFunction,Copper,L2,Bot,Mixed*%
%TF.FilePolarity,Positive*%
%TF.GenerationSoftware,Autodesk,EAGLE,9.7.0*%
%TF.CreationDate,2022-05-06T10:44:24Z*%
G75*
%MOMM*%
%FSLAX46Y46*%
%LPD*%
%INBottom Copper*%
%AMOC8*
5,1,8,0,0,1.08239X$1,22.5*%
G01*
G04 Define Apertures*
%ADD10C,1.800000*%
%ADD11R,5.000000X5.000000*%
%ADD12C,1.219200*%
%ADD13C,0.650000*%
%ADD14C,1.108000*%
%ADD15C,1.422400*%
%ADD16C,0.300000*%
%ADD17C,1.050000*%
D10*
X88590000Y39380000D03*
X88590000Y34300000D03*
X19200000Y55000000D03*
X14120000Y55000000D03*
X9040000Y55000000D03*
X3960000Y55000000D03*
X40700000Y55022000D03*
X35620000Y55022000D03*
X30540000Y55022000D03*
X25460000Y55022000D03*
X76860000Y5000000D03*
X71780000Y5000000D03*
X62560000Y5000000D03*
X57480000Y5000000D03*
X88670000Y15410000D03*
X88670000Y20490000D03*
X88670000Y25570000D03*
D11*
X16240000Y32710000D03*
D10*
X62000000Y55000000D03*
X56920000Y55000000D03*
X51840000Y55000000D03*
X46760000Y55000000D03*
X34590000Y5000000D03*
X39670000Y5000000D03*
X44750000Y5000000D03*
X49830000Y5000000D03*
D12*
X20763000Y19470000D03*
X15937000Y19470000D03*
D13*
X15025000Y6230000D03*
X15875000Y6230000D03*
X16725000Y6230000D03*
X17575000Y6230000D03*
X18425000Y6230000D03*
X19275000Y6230000D03*
X20125000Y6230000D03*
X20975000Y6230000D03*
X20975000Y4880000D03*
X20125000Y4880000D03*
X19275000Y4880000D03*
X18425000Y4880000D03*
X17575000Y4880000D03*
X16725000Y4880000D03*
X15875000Y4880000D03*
X15025000Y4880000D03*
D14*
X13675000Y4696000D02*
X13675000Y5804000D01*
X22325000Y5804000D02*
X22325000Y4696000D01*
X22325000Y2424000D02*
X22325000Y1316000D01*
X13675000Y1316000D02*
X13675000Y2424000D01*
D15*
X45000000Y45000000D03*
X47000000Y45000000D03*
X49000000Y45000000D03*
X51000000Y45000000D03*
X53000000Y45000000D03*
X55000000Y45000000D03*
X57000000Y45000000D03*
D16*
X9900000Y48600000D02*
X9900000Y49200000D01*
X9900000Y48600000D02*
X9900000Y27300000D01*
X9900000Y49200000D02*
X4200000Y54900000D01*
X3960000Y55000000D01*
X24000000Y55200000D02*
X25200000Y55200000D01*
X24000000Y55200000D02*
X22800000Y56400000D01*
X17700000Y56400000D01*
X9900000Y48600000D01*
X25200000Y55200000D02*
X25460000Y55022000D01*
X74500000Y35900000D02*
X74500000Y34700000D01*
X88500000Y20700000D01*
X88670000Y20490000D01*
X16200000Y27300000D02*
X9900000Y27300000D01*
X16200000Y27300000D02*
X24600000Y18900000D01*
D17*
X9900000Y27300000D03*
X74500000Y35900000D03*
X24600000Y18900000D03*
X52000000Y32000000D03*
D16*
X57000000Y37000000D01*
X61000000Y37000000D01*
D17*
X61000000Y37000000D03*
X68000000Y35000000D03*
D16*
X77000000Y44000000D01*
D17*
X77000000Y44000000D03*
D16*
X13800000Y5100000D02*
X13800000Y2100000D01*
X13675000Y1870000D01*
X13800000Y5100000D02*
X13675000Y5250000D01*
X19200000Y4800000D02*
X19200000Y4500000D01*
X19800000Y3900000D01*
X20400000Y3900000D01*
X21000000Y4500000D01*
X21000000Y4800000D01*
X19275000Y4880000D02*
X19200000Y4800000D01*
X20975000Y4880000D02*
X21000000Y4800000D01*
X20400000Y3900000D02*
X22200000Y2100000D01*
X22325000Y1870000D01*
X22500000Y5100000D02*
X34500000Y5100000D01*
X34590000Y5000000D01*
X22500000Y5100000D02*
X22325000Y5250000D01*
X16500000Y33000000D02*
X16500000Y52200000D01*
X19200000Y54900000D01*
X16500000Y33000000D02*
X16240000Y32710000D01*
X40800000Y54900000D02*
X40700000Y55022000D01*
X23400000Y54900000D02*
X19200000Y54900000D01*
X23400000Y54900000D02*
X24900000Y53400000D01*
X31800000Y53400000D01*
X34800000Y56400000D01*
X39300000Y56400000D01*
X40500000Y55200000D01*
X19200000Y55000000D02*
X19200000Y54900000D01*
X40500000Y55200000D02*
X40700000Y55022000D01*
X22325000Y1870000D02*
X13675000Y1870000D01*
X45000000Y45000000D02*
X45000000Y53500000D01*
X46500000Y55000000D01*
X46760000Y55000000D01*
X40000000Y39000000D02*
X61000000Y39000000D01*
X40000000Y39000000D02*
X36000000Y43000000D01*
D17*
X36000000Y43000000D03*
D16*
X62012500Y37138969D02*
X67151469Y32000000D01*
X62012500Y37138969D02*
X62012500Y37987500D01*
X61000000Y39000000D01*
D17*
X74000000Y31750000D03*
D16*
X73750000Y32000000D01*
X67151469Y32000000D01*
D17*
X32000000Y39000000D03*
D16*
X37000000Y39000000D01*
X45000000Y31000000D01*
D17*
X71000000Y31000000D03*
D16*
X45000000Y31000000D01*
D17*
X31000000Y38000000D03*
D16*
X36000000Y38000000D01*
X45000000Y29000000D01*
D17*
X69000000Y29000000D03*
D16*
X45000000Y29000000D01*
D17*
X26000000Y8000000D03*
D16*
X31000000Y8000000D01*
X33000000Y10000000D01*
D17*
X33000000Y10000000D03*
D16*
X35700000Y54900000D02*
X35620000Y55022000D01*
X49500000Y43500000D02*
X51000000Y45000000D01*
X49500000Y43500000D02*
X44500000Y43500000D01*
X36000000Y52000000D01*
X36000000Y55000000D01*
X35620000Y55022000D01*
D17*
X38000000Y44000000D03*
D16*
X65000000Y36000000D02*
X65000000Y35000000D01*
X66000000Y34000000D01*
X73000000Y34000000D01*
X42400000Y39600000D02*
X38000000Y44000000D01*
X42400000Y39600000D02*
X61400000Y39600000D01*
X65000000Y36000000D01*
D17*
X74000000Y33100000D03*
D16*
X73900000Y33100000D02*
X73000000Y34000000D01*
X73900000Y33100000D02*
X74000000Y33100000D01*
X30540000Y55022000D02*
X30600000Y55200000D01*
D17*
X22800000Y29100000D03*
D16*
X22800000Y22078863D01*
X39670000Y5208863D02*
X39670000Y5000000D01*
X39670000Y5208863D02*
X22800000Y22078863D01*
X49000000Y45000000D02*
X49000000Y55000000D01*
X47000000Y57000000D01*
X14000000Y57000000D01*
X11000000Y54000000D01*
X11000000Y48000000D02*
X11000000Y45000000D01*
D17*
X11000000Y54000000D03*
X11000000Y48000000D03*
X11000000Y45000000D03*
D16*
X44700000Y5100000D02*
X44750000Y5000000D01*
D17*
X21600000Y31500000D03*
D16*
X23025000Y30075000D02*
X23203863Y30075000D01*
X23025000Y30075000D02*
X21600000Y31500000D01*
X44700000Y8578863D02*
X44700000Y5100000D01*
X44700000Y8578863D02*
X23203863Y30075000D01*
D17*
X22000000Y10000000D03*
D16*
X25000000Y7000000D01*
X35940000Y5559194D02*
X35940000Y5060000D01*
X38000000Y3000000D01*
X34499194Y7000000D02*
X25000000Y7000000D01*
X34499194Y7000000D02*
X35940000Y5559194D01*
X38000000Y3000000D02*
X47830000Y3000000D01*
X49830000Y5000000D01*
D17*
X73000000Y27000000D03*
D16*
X74000000Y26000000D01*
X78080000Y26000000D01*
X88670000Y15410000D01*
X71830000Y27000000D02*
X49830000Y5000000D01*
X71830000Y27000000D02*
X73000000Y27000000D01*
D17*
X8000000Y30000000D03*
X11000000Y36000000D03*
D16*
X11000000Y38000000D01*
X12000000Y39000000D01*
D17*
X12000000Y39000000D03*
X26000000Y17250000D03*
D16*
X19655506Y17250000D01*
X16375906Y20529600D01*
X15291538Y20529600D01*
X8000000Y27821138D01*
X8000000Y30000000D01*
D17*
X13000000Y38000000D03*
D16*
X13000000Y35000000D01*
X12000000Y34000000D01*
D17*
X12000000Y34000000D03*
X7000000Y27000000D03*
D16*
X7000000Y25000000D01*
X16000000Y16000000D01*
D17*
X26000000Y15900000D03*
D16*
X25900000Y16000000D02*
X16000000Y16000000D01*
X25900000Y16000000D02*
X26000000Y15900000D01*
X17575000Y6230000D02*
X17650000Y6155000D01*
X17650000Y5908981D01*
X18425000Y5133981D02*
X18425000Y4880000D01*
X18425000Y5133981D02*
X17650000Y5908981D01*
X49500000Y41500000D02*
X53000000Y45000000D01*
X49500000Y41500000D02*
X42000000Y41500000D01*
X39500000Y44000000D01*
D17*
X39500000Y44000000D03*
M02*
