G04 EAGLE Gerber X2 export*
%TF.Part,Single*%
%TF.FileFunction,Profile,NP*%
%TF.FilePolarity,Positive*%
%TF.GenerationSoftware,Autodesk,EAGLE,9.7.0*%
%TF.CreationDate,2022-05-06T10:44:24Z*%
G75*
%MOMM*%
%FSLAX46Y46*%
%LPD*%
%IN*%
%AMOC8*
5,1,8,0,0,1.08239X$1,22.5*%
G01*
G04 Define Apertures*
%ADD10C,0.254000*%
D10*
X0Y0D02*
X94000000Y0D01*
X94000000Y60000000D01*
X0Y60000000D01*
X0Y0D01*
X13375000Y1470000D02*
X13376141Y1443853D01*
X13379556Y1417906D01*
X13385222Y1392353D01*
X13393094Y1367394D01*
X13403106Y1343216D01*
X13415194Y1320000D01*
X13429253Y1297928D01*
X13445188Y1277163D01*
X13462869Y1257869D01*
X13482163Y1240188D01*
X13502928Y1224253D01*
X13525000Y1210194D01*
X13548216Y1198106D01*
X13572394Y1188094D01*
X13597353Y1180222D01*
X13622906Y1174556D01*
X13648853Y1171141D01*
X13675000Y1170000D01*
X13701147Y1171141D01*
X13727094Y1174556D01*
X13752647Y1180222D01*
X13777606Y1188094D01*
X13801784Y1198106D01*
X13825000Y1210194D01*
X13847072Y1224253D01*
X13867838Y1240188D01*
X13887131Y1257869D01*
X13904813Y1277163D01*
X13920747Y1297928D01*
X13934806Y1320000D01*
X13946894Y1343216D01*
X13956906Y1367394D01*
X13964778Y1392353D01*
X13970444Y1417906D01*
X13973859Y1443853D01*
X13975000Y1470000D01*
X13975000Y2270000D01*
X13973859Y2296147D01*
X13970444Y2322094D01*
X13964778Y2347647D01*
X13956906Y2372606D01*
X13946894Y2396784D01*
X13934806Y2420000D01*
X13920747Y2442072D01*
X13904813Y2462838D01*
X13887131Y2482131D01*
X13867838Y2499813D01*
X13847072Y2515747D01*
X13825000Y2529806D01*
X13801784Y2541894D01*
X13777606Y2551906D01*
X13752647Y2559778D01*
X13727094Y2565444D01*
X13701147Y2568859D01*
X13675000Y2570000D01*
X13648853Y2568859D01*
X13622906Y2565444D01*
X13597353Y2559778D01*
X13572394Y2551906D01*
X13548216Y2541894D01*
X13525000Y2529806D01*
X13502928Y2515747D01*
X13482163Y2499813D01*
X13462869Y2482131D01*
X13445188Y2462838D01*
X13429253Y2442072D01*
X13415194Y2420000D01*
X13403106Y2396784D01*
X13393094Y2372606D01*
X13385222Y2347647D01*
X13379556Y2322094D01*
X13376141Y2296147D01*
X13375000Y2270000D01*
X13375000Y1470000D01*
X22025000Y1470000D02*
X22026141Y1443853D01*
X22029556Y1417906D01*
X22035222Y1392353D01*
X22043094Y1367394D01*
X22053106Y1343216D01*
X22065194Y1320000D01*
X22079253Y1297928D01*
X22095188Y1277163D01*
X22112869Y1257869D01*
X22132163Y1240188D01*
X22152928Y1224253D01*
X22175000Y1210194D01*
X22198216Y1198106D01*
X22222394Y1188094D01*
X22247353Y1180222D01*
X22272906Y1174556D01*
X22298853Y1171141D01*
X22325000Y1170000D01*
X22351147Y1171141D01*
X22377094Y1174556D01*
X22402647Y1180222D01*
X22427606Y1188094D01*
X22451784Y1198106D01*
X22475000Y1210194D01*
X22497072Y1224253D01*
X22517838Y1240188D01*
X22537131Y1257869D01*
X22554813Y1277163D01*
X22570747Y1297928D01*
X22584806Y1320000D01*
X22596894Y1343216D01*
X22606906Y1367394D01*
X22614778Y1392353D01*
X22620444Y1417906D01*
X22623859Y1443853D01*
X22625000Y1470000D01*
X22625000Y2270000D01*
X22623859Y2296147D01*
X22620444Y2322094D01*
X22614778Y2347647D01*
X22606906Y2372606D01*
X22596894Y2396784D01*
X22584806Y2420000D01*
X22570747Y2442072D01*
X22554813Y2462838D01*
X22537131Y2482131D01*
X22517838Y2499813D01*
X22497072Y2515747D01*
X22475000Y2529806D01*
X22451784Y2541894D01*
X22427606Y2551906D01*
X22402647Y2559778D01*
X22377094Y2565444D01*
X22351147Y2568859D01*
X22325000Y2570000D01*
X22298853Y2568859D01*
X22272906Y2565444D01*
X22247353Y2559778D01*
X22222394Y2551906D01*
X22198216Y2541894D01*
X22175000Y2529806D01*
X22152928Y2515747D01*
X22132163Y2499813D01*
X22112869Y2482131D01*
X22095188Y2462838D01*
X22079253Y2442072D01*
X22065194Y2420000D01*
X22053106Y2396784D01*
X22043094Y2372606D01*
X22035222Y2347647D01*
X22029556Y2322094D01*
X22026141Y2296147D01*
X22025000Y2270000D01*
X22025000Y1470000D01*
X13375000Y4500000D02*
X13376141Y4473853D01*
X13379556Y4447906D01*
X13385222Y4422353D01*
X13393094Y4397394D01*
X13403106Y4373216D01*
X13415194Y4350000D01*
X13429253Y4327928D01*
X13445188Y4307163D01*
X13462869Y4287869D01*
X13482163Y4270188D01*
X13502928Y4254253D01*
X13525000Y4240194D01*
X13548216Y4228106D01*
X13572394Y4218094D01*
X13597353Y4210222D01*
X13622906Y4204556D01*
X13648853Y4201141D01*
X13675000Y4200000D01*
X13701147Y4201141D01*
X13727094Y4204556D01*
X13752647Y4210222D01*
X13777606Y4218094D01*
X13801784Y4228106D01*
X13825000Y4240194D01*
X13847072Y4254253D01*
X13867838Y4270188D01*
X13887131Y4287869D01*
X13904813Y4307163D01*
X13920747Y4327928D01*
X13934806Y4350000D01*
X13946894Y4373216D01*
X13956906Y4397394D01*
X13964778Y4422353D01*
X13970444Y4447906D01*
X13973859Y4473853D01*
X13975000Y4500000D01*
X13975000Y6000000D01*
X13973859Y6026147D01*
X13970444Y6052094D01*
X13964778Y6077647D01*
X13956906Y6102606D01*
X13946894Y6126784D01*
X13934806Y6150000D01*
X13920747Y6172072D01*
X13904813Y6192838D01*
X13887131Y6212131D01*
X13867838Y6229813D01*
X13847072Y6245747D01*
X13825000Y6259806D01*
X13801784Y6271894D01*
X13777606Y6281906D01*
X13752647Y6289778D01*
X13727094Y6295444D01*
X13701147Y6298859D01*
X13675000Y6300000D01*
X13648853Y6298859D01*
X13622906Y6295444D01*
X13597353Y6289778D01*
X13572394Y6281906D01*
X13548216Y6271894D01*
X13525000Y6259806D01*
X13502928Y6245747D01*
X13482163Y6229813D01*
X13462869Y6212131D01*
X13445188Y6192838D01*
X13429253Y6172072D01*
X13415194Y6150000D01*
X13403106Y6126784D01*
X13393094Y6102606D01*
X13385222Y6077647D01*
X13379556Y6052094D01*
X13376141Y6026147D01*
X13375000Y6000000D01*
X13375000Y4500000D01*
X22025000Y4500000D02*
X22026141Y4473853D01*
X22029556Y4447906D01*
X22035222Y4422353D01*
X22043094Y4397394D01*
X22053106Y4373216D01*
X22065194Y4350000D01*
X22079253Y4327928D01*
X22095188Y4307163D01*
X22112869Y4287869D01*
X22132163Y4270188D01*
X22152928Y4254253D01*
X22175000Y4240194D01*
X22198216Y4228106D01*
X22222394Y4218094D01*
X22247353Y4210222D01*
X22272906Y4204556D01*
X22298853Y4201141D01*
X22325000Y4200000D01*
X22351147Y4201141D01*
X22377094Y4204556D01*
X22402647Y4210222D01*
X22427606Y4218094D01*
X22451784Y4228106D01*
X22475000Y4240194D01*
X22497072Y4254253D01*
X22517838Y4270188D01*
X22537131Y4287869D01*
X22554813Y4307163D01*
X22570747Y4327928D01*
X22584806Y4350000D01*
X22596894Y4373216D01*
X22606906Y4397394D01*
X22614778Y4422353D01*
X22620444Y4447906D01*
X22623859Y4473853D01*
X22625000Y4500000D01*
X22625000Y6000000D01*
X22623859Y6026147D01*
X22620444Y6052094D01*
X22614778Y6077647D01*
X22606906Y6102606D01*
X22596894Y6126784D01*
X22584806Y6150000D01*
X22570747Y6172072D01*
X22554813Y6192838D01*
X22537131Y6212131D01*
X22517838Y6229813D01*
X22497072Y6245747D01*
X22475000Y6259806D01*
X22451784Y6271894D01*
X22427606Y6281906D01*
X22402647Y6289778D01*
X22377094Y6295444D01*
X22351147Y6298859D01*
X22325000Y6300000D01*
X22298853Y6298859D01*
X22272906Y6295444D01*
X22247353Y6289778D01*
X22222394Y6281906D01*
X22198216Y6271894D01*
X22175000Y6259806D01*
X22152928Y6245747D01*
X22132163Y6229813D01*
X22112869Y6212131D01*
X22095188Y6192838D01*
X22079253Y6172072D01*
X22065194Y6150000D01*
X22053106Y6126784D01*
X22043094Y6102606D01*
X22035222Y6077647D01*
X22029556Y6052094D01*
X22026141Y6026147D01*
X22025000Y6000000D01*
X22025000Y4500000D01*
M02*
