G04 EAGLE Gerber X2 export*
%TF.Part,Single*%
%TF.FileFunction,Soldermask,Top,1*%
%TF.FilePolarity,Positive*%
%TF.GenerationSoftware,Autodesk,EAGLE,9.7.0*%
%TF.CreationDate,2022-05-06T10:44:24Z*%
G75*
%MOMM*%
%FSLAX46Y46*%
%LPD*%
%INSoldermask Top*%
%AMOC8*
5,1,8,0,0,1.08239X$1,22.5*%
G01*
G04 Define Apertures*
%ADD10R,1.701800X2.209800*%
%ADD11R,4.013200X2.209800*%
%ADD12C,2.003200*%
%ADD13R,1.668500X1.367800*%
%ADD14R,1.768500X2.595200*%
%ADD15C,3.403200*%
%ADD16R,1.703200X1.503200*%
%ADD17R,1.753200X1.503200*%
%ADD18R,1.103200X3.203200*%
%ADD19R,3.203200X1.103200*%
%ADD20R,5.203200X5.203200*%
%ADD21C,1.422400*%
%ADD22C,0.853200*%
%ADD23C,1.311200*%
%ADD24R,1.193200X0.473200*%
%ADD25R,0.473200X1.193200*%
%ADD26R,3.453200X3.453200*%
%ADD27R,0.653200X1.728200*%
%ADD28C,1.625600*%
%ADD29C,1.253200*%
D10*
X71279400Y38500400D03*
X73565400Y38500400D03*
X75851400Y38500400D03*
D11*
X73540000Y44799600D03*
D10*
X71169400Y49350400D03*
X73455400Y49350400D03*
X75741400Y49350400D03*
D11*
X73430000Y55649600D03*
D12*
X88590000Y39380000D03*
X88590000Y34300000D03*
D13*
X16020000Y15065400D03*
X16020000Y13314600D03*
X20800000Y13314600D03*
X20800000Y15065400D03*
D14*
X80000000Y49407900D03*
X80000000Y45192100D03*
D15*
X85120000Y55880000D03*
X5670000Y3700000D03*
D12*
X19200000Y55000000D03*
X14120000Y55000000D03*
X9040000Y55000000D03*
X3960000Y55000000D03*
X40700000Y55022000D03*
X35620000Y55022000D03*
X30540000Y55022000D03*
X25460000Y55022000D03*
X76860000Y5000000D03*
X71780000Y5000000D03*
X62560000Y5000000D03*
X57480000Y5000000D03*
X88670000Y15410000D03*
X88670000Y20490000D03*
X88670000Y25570000D03*
D16*
X28450000Y18270000D03*
X28450000Y20170000D03*
D17*
X2365000Y14430000D03*
X10315000Y14430000D03*
X2365000Y18930000D03*
X10315000Y18930000D03*
D18*
X25240000Y24710000D03*
X25240000Y42710000D03*
D19*
X26740000Y27995000D03*
X26740000Y29265000D03*
X26740000Y30535000D03*
X26740000Y31805000D03*
X26740000Y33075000D03*
X26740000Y34345000D03*
X26740000Y35615000D03*
X26740000Y36885000D03*
X26740000Y38155000D03*
X26740000Y39425000D03*
D18*
X23970000Y24710000D03*
X22700000Y24710000D03*
X21430000Y24710000D03*
X20160000Y24710000D03*
X18890000Y24710000D03*
X17620000Y24710000D03*
X16350000Y24710000D03*
X15080000Y24710000D03*
X13810000Y24710000D03*
X12540000Y24710000D03*
X11270000Y24710000D03*
X10000000Y24710000D03*
X8730000Y24710000D03*
X23970000Y42710000D03*
X22700000Y42710000D03*
X21430000Y42710000D03*
X20160000Y42710000D03*
X18890000Y42710000D03*
X17620000Y42710000D03*
X16350000Y42710000D03*
X15080000Y42710000D03*
X13810000Y42710000D03*
X12540000Y42710000D03*
X11270000Y42710000D03*
X10000000Y42710000D03*
X8730000Y42710000D03*
D20*
X16240000Y32710000D03*
D12*
X62000000Y55000000D03*
X56920000Y55000000D03*
X51840000Y55000000D03*
X46760000Y55000000D03*
X34590000Y5000000D03*
X39670000Y5000000D03*
X44750000Y5000000D03*
X49830000Y5000000D03*
D21*
X20763000Y19470000D03*
X15937000Y19470000D03*
D22*
X15025000Y6230000D03*
X15875000Y6230000D03*
X16725000Y6230000D03*
X17575000Y6230000D03*
X18425000Y6230000D03*
X19275000Y6230000D03*
X20125000Y6230000D03*
X20975000Y6230000D03*
X20975000Y4880000D03*
X20125000Y4880000D03*
X19275000Y4880000D03*
X18425000Y4880000D03*
X17575000Y4880000D03*
X16725000Y4880000D03*
X15875000Y4880000D03*
X15025000Y4880000D03*
D23*
X13675000Y4696000D02*
X13675000Y5804000D01*
X22325000Y5804000D02*
X22325000Y4696000D01*
X22325000Y2424000D02*
X22325000Y1316000D01*
X13675000Y1316000D02*
X13675000Y2424000D01*
D24*
X24640000Y13500000D03*
X24640000Y13000000D03*
X24640000Y12500000D03*
X24640000Y12000000D03*
X24640000Y11500000D03*
X24640000Y11000000D03*
X24640000Y10500000D03*
D25*
X25500000Y9640000D03*
X26000000Y9640000D03*
X26500000Y9640000D03*
X27000000Y9640000D03*
X27500000Y9640000D03*
X28000000Y9640000D03*
X28500000Y9640000D03*
D24*
X29360000Y10500000D03*
X29360000Y11000000D03*
X29360000Y11500000D03*
X29360000Y12000000D03*
X29360000Y12500000D03*
X29360000Y13000000D03*
X29360000Y13500000D03*
D25*
X28500000Y14360000D03*
X28000000Y14360000D03*
X27500000Y14360000D03*
X27000000Y14360000D03*
X26500000Y14360000D03*
X26000000Y14360000D03*
X25500000Y14360000D03*
D26*
X27000000Y12000000D03*
D27*
X75275000Y29208000D03*
X74625000Y29208000D03*
X73975000Y29208000D03*
X73325000Y29208000D03*
X72675000Y29208000D03*
X72025000Y29208000D03*
X71375000Y29208000D03*
X70725000Y29208000D03*
X70725000Y23284000D03*
X71375000Y23284000D03*
X72025000Y23284000D03*
X72675000Y23284000D03*
X73325000Y23284000D03*
X73975000Y23284000D03*
X74625000Y23284000D03*
X75275000Y23284000D03*
D28*
X45000000Y45000000D03*
X47000000Y45000000D03*
X49000000Y45000000D03*
X51000000Y45000000D03*
X53000000Y45000000D03*
X55000000Y45000000D03*
X57000000Y45000000D03*
D29*
X9900000Y27300000D03*
X74500000Y35900000D03*
X24600000Y18900000D03*
X52000000Y32000000D03*
X61000000Y37000000D03*
X68000000Y35000000D03*
X77000000Y44000000D03*
X36000000Y43000000D03*
X74000000Y31750000D03*
X32000000Y39000000D03*
X71000000Y31000000D03*
X31000000Y38000000D03*
X69000000Y29000000D03*
X26000000Y8000000D03*
X33000000Y10000000D03*
X38000000Y44000000D03*
X74000000Y33100000D03*
X22800000Y29100000D03*
X11000000Y54000000D03*
X11000000Y48000000D03*
X11000000Y45000000D03*
X21600000Y31500000D03*
X22000000Y10000000D03*
X73000000Y27000000D03*
X8000000Y30000000D03*
X11000000Y36000000D03*
X12000000Y39000000D03*
X26000000Y17250000D03*
X13000000Y38000000D03*
X12000000Y34000000D03*
X7000000Y27000000D03*
X26000000Y15900000D03*
X39500000Y44000000D03*
M02*
