%FSLAX45Y45*%
G04 Gerber Fmt 4.5, Leading zero omitted, Abs format (unit mm)*
G04 Created by KiCad (PCBNEW (6.0.0)) date 2022-05-02 13:28:25*
%MOMM*%
%LPD*%
G01*
G04 APERTURE LIST*
%TA.AperFunction,Profile*%
%ADD10C,0.100000*%
%TD*%
%ADD11C,0.200000*%
%ADD12C,0.070000*%
%ADD13C,0.100000*%
G04 APERTURE END LIST*
D10*
X0Y4180000D02*
X0Y4140000D01*
X0Y0D02*
X0Y4140000D01*
X2550000Y0D02*
X0Y0D01*
X0Y4180000D02*
X2550000Y4180000D01*
X2550000Y4180000D02*
X2550000Y0D01*
D11*
D12*
X350000Y595000D02*
X420000Y525000D01*
X420000Y595000D02*
X350000Y525000D01*
X392149Y1017851D02*
X462149Y947851D01*
X462149Y1017851D02*
X392149Y947851D01*
X431250Y861250D02*
X501250Y791250D01*
X501250Y861250D02*
X431250Y791250D01*
X498750Y1691250D02*
X568750Y1621250D01*
X568750Y1691250D02*
X498750Y1621250D01*
X507500Y1867500D02*
X577500Y1797500D01*
X577500Y1867500D02*
X507500Y1797500D01*
X597500Y2862500D02*
X667500Y2792500D01*
X667500Y2862500D02*
X597500Y2792500D01*
X805000Y2085000D02*
X875000Y2015000D01*
X875000Y2085000D02*
X805000Y2015000D01*
X817500Y1732500D02*
X887500Y1662500D01*
X887500Y1732500D02*
X817500Y1662500D01*
X945000Y535000D02*
X1015000Y465000D01*
X1015000Y535000D02*
X945000Y465000D01*
X1005000Y3425000D02*
X1075000Y3355000D01*
X1075000Y3425000D02*
X1005000Y3355000D01*
X1115000Y1105000D02*
X1185000Y1035000D01*
X1185000Y1105000D02*
X1115000Y1035000D01*
X1155000Y3435000D02*
X1225000Y3365000D01*
X1225000Y3435000D02*
X1155000Y3365000D01*
X1235000Y975000D02*
X1305000Y905000D01*
X1305000Y975000D02*
X1235000Y905000D01*
X1335000Y1065000D02*
X1405000Y995000D01*
X1405000Y1065000D02*
X1335000Y995000D01*
X1670000Y2195000D02*
X1740000Y2125000D01*
X1740000Y2195000D02*
X1670000Y2125000D01*
X1695000Y3035000D02*
X1765000Y2965000D01*
X1765000Y3035000D02*
X1695000Y2965000D01*
X1710000Y1377500D02*
X1780000Y1307500D01*
X1780000Y1377500D02*
X1710000Y1307500D01*
X1725000Y1995000D02*
X1795000Y1925000D01*
X1795000Y1995000D02*
X1725000Y1925000D01*
X2070098Y577598D02*
X2140098Y507598D01*
X2140098Y577598D02*
X2070098Y507598D01*
X2187000Y3877000D02*
X2257000Y3807000D01*
X2257000Y3877000D02*
X2187000Y3807000D01*
X2225000Y4095000D02*
X2295000Y4025000D01*
X2295000Y4095000D02*
X2225000Y4025000D01*
D13*
X200000Y3840000D02*
G75*
G03*
X200000Y3840000I-50000J0D01*
G01*
X200000Y3586000D02*
G75*
G03*
X200000Y3586000I-50000J0D01*
G01*
X200000Y3332000D02*
G75*
G03*
X200000Y3332000I-50000J0D01*
G01*
X200000Y3078000D02*
G75*
G03*
X200000Y3078000I-50000J0D01*
G01*
X200000Y2824000D02*
G75*
G03*
X200000Y2824000I-50000J0D01*
G01*
X200000Y2570000D02*
G75*
G03*
X200000Y2570000I-50000J0D01*
G01*
X200000Y2316000D02*
G75*
G03*
X200000Y2316000I-50000J0D01*
G01*
X200000Y2062000D02*
G75*
G03*
X200000Y2062000I-50000J0D01*
G01*
X200000Y1808000D02*
G75*
G03*
X200000Y1808000I-50000J0D01*
G01*
X200000Y1554000D02*
G75*
G03*
X200000Y1554000I-50000J0D01*
G01*
X200000Y1300000D02*
G75*
G03*
X200000Y1300000I-50000J0D01*
G01*
X200000Y1046000D02*
G75*
G03*
X200000Y1046000I-50000J0D01*
G01*
X200000Y792000D02*
G75*
G03*
X200000Y792000I-50000J0D01*
G01*
X200000Y538000D02*
G75*
G03*
X200000Y538000I-50000J0D01*
G01*
X200000Y284000D02*
G75*
G03*
X200000Y284000I-50000J0D01*
G01*
X918000Y260000D02*
G75*
G03*
X918000Y260000I-50000J0D01*
G01*
X1172000Y260000D02*
G75*
G03*
X1172000Y260000I-50000J0D01*
G01*
X1426000Y260000D02*
G75*
G03*
X1426000Y260000I-50000J0D01*
G01*
X1680000Y260000D02*
G75*
G03*
X1680000Y260000I-50000J0D01*
G01*
X2450000Y3842000D02*
G75*
G03*
X2450000Y3842000I-50000J0D01*
G01*
X2450000Y3588000D02*
G75*
G03*
X2450000Y3588000I-50000J0D01*
G01*
X2450000Y3334000D02*
G75*
G03*
X2450000Y3334000I-50000J0D01*
G01*
X2450000Y3080000D02*
G75*
G03*
X2450000Y3080000I-50000J0D01*
G01*
X2450000Y2826000D02*
G75*
G03*
X2450000Y2826000I-50000J0D01*
G01*
X2450000Y2572000D02*
G75*
G03*
X2450000Y2572000I-50000J0D01*
G01*
X2450000Y2318000D02*
G75*
G03*
X2450000Y2318000I-50000J0D01*
G01*
X2450000Y2064000D02*
G75*
G03*
X2450000Y2064000I-50000J0D01*
G01*
X2450000Y1810000D02*
G75*
G03*
X2450000Y1810000I-50000J0D01*
G01*
X2450000Y1556000D02*
G75*
G03*
X2450000Y1556000I-50000J0D01*
G01*
X2450000Y1302000D02*
G75*
G03*
X2450000Y1302000I-50000J0D01*
G01*
X2450000Y1048000D02*
G75*
G03*
X2450000Y1048000I-50000J0D01*
G01*
X2450000Y794000D02*
G75*
G03*
X2450000Y794000I-50000J0D01*
G01*
X2450000Y540000D02*
G75*
G03*
X2450000Y540000I-50000J0D01*
G01*
X2450000Y286000D02*
G75*
G03*
X2450000Y286000I-50000J0D01*
G01*
D11*
X252619Y-315476D02*
X252619Y-115476D01*
X300238Y-115476D01*
X328810Y-125000D01*
X347857Y-144048D01*
X357381Y-163095D01*
X366905Y-201190D01*
X366905Y-229762D01*
X357381Y-267857D01*
X347857Y-286905D01*
X328810Y-305952D01*
X300238Y-315476D01*
X252619Y-315476D01*
X452619Y-315476D02*
X452619Y-182143D01*
X452619Y-220238D02*
X462143Y-201190D01*
X471667Y-191667D01*
X490714Y-182143D01*
X509762Y-182143D01*
X576429Y-315476D02*
X576429Y-182143D01*
X576429Y-115476D02*
X566905Y-125000D01*
X576429Y-134524D01*
X585952Y-125000D01*
X576429Y-115476D01*
X576429Y-134524D01*
X700238Y-315476D02*
X681190Y-305952D01*
X671667Y-286905D01*
X671667Y-115476D01*
X805000Y-315476D02*
X785952Y-305952D01*
X776428Y-286905D01*
X776428Y-115476D01*
X1033571Y-315476D02*
X1033571Y-115476D01*
X1100238Y-258333D01*
X1166905Y-115476D01*
X1166905Y-315476D01*
X1347857Y-315476D02*
X1347857Y-210714D01*
X1338333Y-191667D01*
X1319286Y-182143D01*
X1281190Y-182143D01*
X1262143Y-191667D01*
X1347857Y-305952D02*
X1328810Y-315476D01*
X1281190Y-315476D01*
X1262143Y-305952D01*
X1252619Y-286905D01*
X1252619Y-267857D01*
X1262143Y-248809D01*
X1281190Y-239286D01*
X1328810Y-239286D01*
X1347857Y-229762D01*
X1443095Y-182143D02*
X1443095Y-382143D01*
X1443095Y-191667D02*
X1462143Y-182143D01*
X1500238Y-182143D01*
X1519286Y-191667D01*
X1528809Y-201190D01*
X1538333Y-220238D01*
X1538333Y-277381D01*
X1528809Y-296429D01*
X1519286Y-305952D01*
X1500238Y-315476D01*
X1462143Y-315476D01*
X1443095Y-305952D01*
X1624048Y-296429D02*
X1633571Y-305952D01*
X1624048Y-315476D01*
X1614524Y-305952D01*
X1624048Y-296429D01*
X1624048Y-315476D01*
X1624048Y-191667D02*
X1633571Y-201190D01*
X1624048Y-210714D01*
X1614524Y-201190D01*
X1624048Y-191667D01*
X1624048Y-210714D01*
D12*
X-75000Y-610000D02*
X-5000Y-680000D01*
X-5000Y-610000D02*
X-75000Y-680000D01*
D11*
X290714Y-535476D02*
X309762Y-535476D01*
X328810Y-545000D01*
X338333Y-554524D01*
X347857Y-573571D01*
X357381Y-611667D01*
X357381Y-659286D01*
X347857Y-697381D01*
X338333Y-716428D01*
X328810Y-725952D01*
X309762Y-735476D01*
X290714Y-735476D01*
X271667Y-725952D01*
X262143Y-716428D01*
X252619Y-697381D01*
X243095Y-659286D01*
X243095Y-611667D01*
X252619Y-573571D01*
X262143Y-554524D01*
X271667Y-545000D01*
X290714Y-535476D01*
X443095Y-716428D02*
X452619Y-725952D01*
X443095Y-735476D01*
X433571Y-725952D01*
X443095Y-716428D01*
X443095Y-735476D01*
X519286Y-535476D02*
X652619Y-535476D01*
X566905Y-735476D01*
X766905Y-535476D02*
X785952Y-535476D01*
X805000Y-545000D01*
X814524Y-554524D01*
X824048Y-573571D01*
X833571Y-611667D01*
X833571Y-659286D01*
X824048Y-697381D01*
X814524Y-716428D01*
X805000Y-725952D01*
X785952Y-735476D01*
X766905Y-735476D01*
X747857Y-725952D01*
X738333Y-716428D01*
X728809Y-697381D01*
X719286Y-659286D01*
X719286Y-611667D01*
X728809Y-573571D01*
X738333Y-554524D01*
X747857Y-545000D01*
X766905Y-535476D01*
X957381Y-535476D02*
X976428Y-535476D01*
X995476Y-545000D01*
X1005000Y-554524D01*
X1014524Y-573571D01*
X1024048Y-611667D01*
X1024048Y-659286D01*
X1014524Y-697381D01*
X1005000Y-716428D01*
X995476Y-725952D01*
X976428Y-735476D01*
X957381Y-735476D01*
X938333Y-725952D01*
X928809Y-716428D01*
X919286Y-697381D01*
X909762Y-659286D01*
X909762Y-611667D01*
X919286Y-573571D01*
X928809Y-554524D01*
X938333Y-545000D01*
X957381Y-535476D01*
X1109762Y-735476D02*
X1109762Y-602143D01*
X1109762Y-621190D02*
X1119286Y-611667D01*
X1138333Y-602143D01*
X1166905Y-602143D01*
X1185952Y-611667D01*
X1195476Y-630714D01*
X1195476Y-735476D01*
X1195476Y-630714D02*
X1205000Y-611667D01*
X1224048Y-602143D01*
X1252619Y-602143D01*
X1271667Y-611667D01*
X1281190Y-630714D01*
X1281190Y-735476D01*
X1376429Y-735476D02*
X1376429Y-602143D01*
X1376429Y-621190D02*
X1385952Y-611667D01*
X1405000Y-602143D01*
X1433571Y-602143D01*
X1452619Y-611667D01*
X1462143Y-630714D01*
X1462143Y-735476D01*
X1462143Y-630714D02*
X1471667Y-611667D01*
X1490714Y-602143D01*
X1519286Y-602143D01*
X1538333Y-611667D01*
X1547857Y-630714D01*
X1547857Y-735476D01*
X1938333Y-525952D02*
X1766905Y-783095D01*
X2195476Y-535476D02*
X2214524Y-535476D01*
X2233571Y-545000D01*
X2243095Y-554524D01*
X2252619Y-573571D01*
X2262143Y-611667D01*
X2262143Y-659286D01*
X2252619Y-697381D01*
X2243095Y-716428D01*
X2233571Y-725952D01*
X2214524Y-735476D01*
X2195476Y-735476D01*
X2176429Y-725952D01*
X2166905Y-716428D01*
X2157381Y-697381D01*
X2147857Y-659286D01*
X2147857Y-611667D01*
X2157381Y-573571D01*
X2166905Y-554524D01*
X2176429Y-545000D01*
X2195476Y-535476D01*
X2347857Y-716428D02*
X2357381Y-725952D01*
X2347857Y-735476D01*
X2338333Y-725952D01*
X2347857Y-716428D01*
X2347857Y-735476D01*
X2481190Y-535476D02*
X2500238Y-535476D01*
X2519286Y-545000D01*
X2528810Y-554524D01*
X2538333Y-573571D01*
X2547857Y-611667D01*
X2547857Y-659286D01*
X2538333Y-697381D01*
X2528810Y-716428D01*
X2519286Y-725952D01*
X2500238Y-735476D01*
X2481190Y-735476D01*
X2462143Y-725952D01*
X2452619Y-716428D01*
X2443095Y-697381D01*
X2433571Y-659286D01*
X2433571Y-611667D01*
X2443095Y-573571D01*
X2452619Y-554524D01*
X2462143Y-545000D01*
X2481190Y-535476D01*
X2624048Y-554524D02*
X2633571Y-545000D01*
X2652619Y-535476D01*
X2700238Y-535476D01*
X2719286Y-545000D01*
X2728810Y-554524D01*
X2738333Y-573571D01*
X2738333Y-592619D01*
X2728810Y-621190D01*
X2614524Y-735476D01*
X2738333Y-735476D01*
X2805000Y-535476D02*
X2938333Y-535476D01*
X2852619Y-735476D01*
X3100238Y-535476D02*
X3062143Y-535476D01*
X3043095Y-545000D01*
X3033571Y-554524D01*
X3014524Y-583095D01*
X3005000Y-621190D01*
X3005000Y-697381D01*
X3014524Y-716428D01*
X3024048Y-725952D01*
X3043095Y-735476D01*
X3081190Y-735476D01*
X3100238Y-725952D01*
X3109762Y-716428D01*
X3119286Y-697381D01*
X3119286Y-649762D01*
X3109762Y-630714D01*
X3100238Y-621190D01*
X3081190Y-611667D01*
X3043095Y-611667D01*
X3024048Y-621190D01*
X3014524Y-630714D01*
X3005000Y-649762D01*
X3195476Y-535476D02*
X3195476Y-573571D01*
X3271667Y-535476D02*
X3271667Y-573571D01*
X3566905Y-811667D02*
X3557381Y-802143D01*
X3538333Y-773571D01*
X3528809Y-754524D01*
X3519286Y-725952D01*
X3509762Y-678333D01*
X3509762Y-640238D01*
X3519286Y-592619D01*
X3528809Y-564048D01*
X3538333Y-545000D01*
X3557381Y-516428D01*
X3566905Y-506905D01*
X3633571Y-554524D02*
X3643095Y-545000D01*
X3662143Y-535476D01*
X3709762Y-535476D01*
X3728809Y-545000D01*
X3738333Y-554524D01*
X3747857Y-573571D01*
X3747857Y-592619D01*
X3738333Y-621190D01*
X3624048Y-735476D01*
X3747857Y-735476D01*
X3938333Y-735476D02*
X3824048Y-735476D01*
X3881190Y-735476D02*
X3881190Y-535476D01*
X3862143Y-564048D01*
X3843095Y-583095D01*
X3824048Y-592619D01*
X4176428Y-735476D02*
X4176428Y-535476D01*
X4262143Y-735476D02*
X4262143Y-630714D01*
X4252619Y-611667D01*
X4233571Y-602143D01*
X4205000Y-602143D01*
X4185952Y-611667D01*
X4176428Y-621190D01*
X4385952Y-735476D02*
X4366905Y-725952D01*
X4357381Y-716428D01*
X4347857Y-697381D01*
X4347857Y-640238D01*
X4357381Y-621190D01*
X4366905Y-611667D01*
X4385952Y-602143D01*
X4414524Y-602143D01*
X4433571Y-611667D01*
X4443095Y-621190D01*
X4452619Y-640238D01*
X4452619Y-697381D01*
X4443095Y-716428D01*
X4433571Y-725952D01*
X4414524Y-735476D01*
X4385952Y-735476D01*
X4566905Y-735476D02*
X4547857Y-725952D01*
X4538333Y-706905D01*
X4538333Y-535476D01*
X4719286Y-725952D02*
X4700238Y-735476D01*
X4662143Y-735476D01*
X4643095Y-725952D01*
X4633571Y-706905D01*
X4633571Y-630714D01*
X4643095Y-611667D01*
X4662143Y-602143D01*
X4700238Y-602143D01*
X4719286Y-611667D01*
X4728810Y-630714D01*
X4728810Y-649762D01*
X4633571Y-668810D01*
X4805000Y-725952D02*
X4824048Y-735476D01*
X4862143Y-735476D01*
X4881190Y-725952D01*
X4890714Y-706905D01*
X4890714Y-697381D01*
X4881190Y-678333D01*
X4862143Y-668810D01*
X4833571Y-668810D01*
X4814524Y-659286D01*
X4805000Y-640238D01*
X4805000Y-630714D01*
X4814524Y-611667D01*
X4833571Y-602143D01*
X4862143Y-602143D01*
X4881190Y-611667D01*
X4957381Y-811667D02*
X4966905Y-802143D01*
X4985952Y-773571D01*
X4995476Y-754524D01*
X5005000Y-725952D01*
X5014524Y-678333D01*
X5014524Y-640238D01*
X5005000Y-592619D01*
X4995476Y-564048D01*
X4985952Y-545000D01*
X4966905Y-516428D01*
X4957381Y-506905D01*
D13*
X-5000Y-909000D02*
G75*
G03*
X-5000Y-909000I-50000J0D01*
G01*
D11*
X357381Y-999476D02*
X243095Y-999476D01*
X300238Y-999476D02*
X300238Y-799476D01*
X281190Y-828048D01*
X262143Y-847095D01*
X243095Y-856619D01*
X443095Y-980428D02*
X452619Y-989952D01*
X443095Y-999476D01*
X433571Y-989952D01*
X443095Y-980428D01*
X443095Y-999476D01*
X576429Y-799476D02*
X595476Y-799476D01*
X614524Y-809000D01*
X624048Y-818524D01*
X633571Y-837571D01*
X643095Y-875667D01*
X643095Y-923286D01*
X633571Y-961381D01*
X624048Y-980428D01*
X614524Y-989952D01*
X595476Y-999476D01*
X576429Y-999476D01*
X557381Y-989952D01*
X547857Y-980428D01*
X538333Y-961381D01*
X528810Y-923286D01*
X528810Y-875667D01*
X538333Y-837571D01*
X547857Y-818524D01*
X557381Y-809000D01*
X576429Y-799476D01*
X766905Y-799476D02*
X785952Y-799476D01*
X805000Y-809000D01*
X814524Y-818524D01*
X824048Y-837571D01*
X833571Y-875667D01*
X833571Y-923286D01*
X824048Y-961381D01*
X814524Y-980428D01*
X805000Y-989952D01*
X785952Y-999476D01*
X766905Y-999476D01*
X747857Y-989952D01*
X738333Y-980428D01*
X728809Y-961381D01*
X719286Y-923286D01*
X719286Y-875667D01*
X728809Y-837571D01*
X738333Y-818524D01*
X747857Y-809000D01*
X766905Y-799476D01*
X957381Y-799476D02*
X976428Y-799476D01*
X995476Y-809000D01*
X1005000Y-818524D01*
X1014524Y-837571D01*
X1024048Y-875667D01*
X1024048Y-923286D01*
X1014524Y-961381D01*
X1005000Y-980428D01*
X995476Y-989952D01*
X976428Y-999476D01*
X957381Y-999476D01*
X938333Y-989952D01*
X928809Y-980428D01*
X919286Y-961381D01*
X909762Y-923286D01*
X909762Y-875667D01*
X919286Y-837571D01*
X928809Y-818524D01*
X938333Y-809000D01*
X957381Y-799476D01*
X1109762Y-999476D02*
X1109762Y-866143D01*
X1109762Y-885190D02*
X1119286Y-875667D01*
X1138333Y-866143D01*
X1166905Y-866143D01*
X1185952Y-875667D01*
X1195476Y-894714D01*
X1195476Y-999476D01*
X1195476Y-894714D02*
X1205000Y-875667D01*
X1224048Y-866143D01*
X1252619Y-866143D01*
X1271667Y-875667D01*
X1281190Y-894714D01*
X1281190Y-999476D01*
X1376429Y-999476D02*
X1376429Y-866143D01*
X1376429Y-885190D02*
X1385952Y-875667D01*
X1405000Y-866143D01*
X1433571Y-866143D01*
X1452619Y-875667D01*
X1462143Y-894714D01*
X1462143Y-999476D01*
X1462143Y-894714D02*
X1471667Y-875667D01*
X1490714Y-866143D01*
X1519286Y-866143D01*
X1538333Y-875667D01*
X1547857Y-894714D01*
X1547857Y-999476D01*
X1938333Y-789952D02*
X1766905Y-1047095D01*
X2195476Y-799476D02*
X2214524Y-799476D01*
X2233571Y-809000D01*
X2243095Y-818524D01*
X2252619Y-837571D01*
X2262143Y-875667D01*
X2262143Y-923286D01*
X2252619Y-961381D01*
X2243095Y-980428D01*
X2233571Y-989952D01*
X2214524Y-999476D01*
X2195476Y-999476D01*
X2176429Y-989952D01*
X2166905Y-980428D01*
X2157381Y-961381D01*
X2147857Y-923286D01*
X2147857Y-875667D01*
X2157381Y-837571D01*
X2166905Y-818524D01*
X2176429Y-809000D01*
X2195476Y-799476D01*
X2347857Y-980428D02*
X2357381Y-989952D01*
X2347857Y-999476D01*
X2338333Y-989952D01*
X2347857Y-980428D01*
X2347857Y-999476D01*
X2481190Y-799476D02*
X2500238Y-799476D01*
X2519286Y-809000D01*
X2528810Y-818524D01*
X2538333Y-837571D01*
X2547857Y-875667D01*
X2547857Y-923286D01*
X2538333Y-961381D01*
X2528810Y-980428D01*
X2519286Y-989952D01*
X2500238Y-999476D01*
X2481190Y-999476D01*
X2462143Y-989952D01*
X2452619Y-980428D01*
X2443095Y-961381D01*
X2433571Y-923286D01*
X2433571Y-875667D01*
X2443095Y-837571D01*
X2452619Y-818524D01*
X2462143Y-809000D01*
X2481190Y-799476D01*
X2614524Y-799476D02*
X2738333Y-799476D01*
X2671667Y-875667D01*
X2700238Y-875667D01*
X2719286Y-885190D01*
X2728810Y-894714D01*
X2738333Y-913762D01*
X2738333Y-961381D01*
X2728810Y-980428D01*
X2719286Y-989952D01*
X2700238Y-999476D01*
X2643095Y-999476D01*
X2624048Y-989952D01*
X2614524Y-980428D01*
X2833571Y-999476D02*
X2871667Y-999476D01*
X2890714Y-989952D01*
X2900238Y-980428D01*
X2919286Y-951857D01*
X2928809Y-913762D01*
X2928809Y-837571D01*
X2919286Y-818524D01*
X2909762Y-809000D01*
X2890714Y-799476D01*
X2852619Y-799476D01*
X2833571Y-809000D01*
X2824048Y-818524D01*
X2814524Y-837571D01*
X2814524Y-885190D01*
X2824048Y-904238D01*
X2833571Y-913762D01*
X2852619Y-923286D01*
X2890714Y-923286D01*
X2909762Y-913762D01*
X2919286Y-904238D01*
X2928809Y-885190D01*
X3100238Y-866143D02*
X3100238Y-999476D01*
X3052619Y-789952D02*
X3005000Y-932809D01*
X3128809Y-932809D01*
X3195476Y-799476D02*
X3195476Y-837571D01*
X3271667Y-799476D02*
X3271667Y-837571D01*
X3566905Y-1075667D02*
X3557381Y-1066143D01*
X3538333Y-1037571D01*
X3528809Y-1018524D01*
X3519286Y-989952D01*
X3509762Y-942333D01*
X3509762Y-904238D01*
X3519286Y-856619D01*
X3528809Y-828048D01*
X3538333Y-809000D01*
X3557381Y-780428D01*
X3566905Y-770905D01*
X3624048Y-799476D02*
X3747857Y-799476D01*
X3681190Y-875667D01*
X3709762Y-875667D01*
X3728809Y-885190D01*
X3738333Y-894714D01*
X3747857Y-913762D01*
X3747857Y-961381D01*
X3738333Y-980428D01*
X3728809Y-989952D01*
X3709762Y-999476D01*
X3652619Y-999476D01*
X3633571Y-989952D01*
X3624048Y-980428D01*
X3919286Y-866143D02*
X3919286Y-999476D01*
X3871667Y-789952D02*
X3824048Y-932809D01*
X3947857Y-932809D01*
X4176428Y-999476D02*
X4176428Y-799476D01*
X4262143Y-999476D02*
X4262143Y-894714D01*
X4252619Y-875667D01*
X4233571Y-866143D01*
X4205000Y-866143D01*
X4185952Y-875667D01*
X4176428Y-885190D01*
X4385952Y-999476D02*
X4366905Y-989952D01*
X4357381Y-980428D01*
X4347857Y-961381D01*
X4347857Y-904238D01*
X4357381Y-885190D01*
X4366905Y-875667D01*
X4385952Y-866143D01*
X4414524Y-866143D01*
X4433571Y-875667D01*
X4443095Y-885190D01*
X4452619Y-904238D01*
X4452619Y-961381D01*
X4443095Y-980428D01*
X4433571Y-989952D01*
X4414524Y-999476D01*
X4385952Y-999476D01*
X4566905Y-999476D02*
X4547857Y-989952D01*
X4538333Y-970905D01*
X4538333Y-799476D01*
X4719286Y-989952D02*
X4700238Y-999476D01*
X4662143Y-999476D01*
X4643095Y-989952D01*
X4633571Y-970905D01*
X4633571Y-894714D01*
X4643095Y-875667D01*
X4662143Y-866143D01*
X4700238Y-866143D01*
X4719286Y-875667D01*
X4728810Y-894714D01*
X4728810Y-913762D01*
X4633571Y-932809D01*
X4805000Y-989952D02*
X4824048Y-999476D01*
X4862143Y-999476D01*
X4881190Y-989952D01*
X4890714Y-970905D01*
X4890714Y-961381D01*
X4881190Y-942333D01*
X4862143Y-932809D01*
X4833571Y-932809D01*
X4814524Y-923286D01*
X4805000Y-904238D01*
X4805000Y-894714D01*
X4814524Y-875667D01*
X4833571Y-866143D01*
X4862143Y-866143D01*
X4881190Y-875667D01*
X4957381Y-1075667D02*
X4966905Y-1066143D01*
X4985952Y-1037571D01*
X4995476Y-1018524D01*
X5005000Y-989952D01*
X5014524Y-942333D01*
X5014524Y-904238D01*
X5005000Y-856619D01*
X4995476Y-828048D01*
X4985952Y-809000D01*
X4966905Y-780428D01*
X4957381Y-770905D01*
M02*
