%TF.GenerationSoftware,KiCad,Pcbnew,(6.0.2)*%
%TF.CreationDate,2022-05-10T09:18:46+02:00*%
%TF.ProjectId,STM8_Breakout-board,53544d38-5f42-4726-9561-6b6f75742d62,rev?*%
%TF.SameCoordinates,PX7e5ca20PY62fdcc0*%
%TF.FileFunction,Copper,L2,Bot*%
%TF.FilePolarity,Positive*%
%FSLAX46Y46*%
G04 Gerber Fmt 4.6, Leading zero omitted, Abs format (unit mm)*
G04 Created by KiCad (PCBNEW (6.0.2)) date 2022-05-10 09:18:46*
%MOMM*%
%LPD*%
G01*
G04 APERTURE LIST*
%TA.AperFunction,ComponentPad*%
%ADD10R,1.700000X1.700000*%
%TD*%
%TA.AperFunction,ComponentPad*%
%ADD11O,1.700000X1.700000*%
%TD*%
%TA.AperFunction,ViaPad*%
%ADD12C,1.000000*%
%TD*%
%TA.AperFunction,Conductor*%
%ADD13C,0.300000*%
%TD*%
%TA.AperFunction,Conductor*%
%ADD14C,1.000000*%
%TD*%
G04 APERTURE END LIST*
D10*
%TO.P,J1,1,Pin_1*%
%TO.N,+3V3*%
X24000000Y38420000D03*
D11*
%TO.P,J1,2,Pin_2*%
%TO.N,PC5*%
X24000000Y35880000D03*
%TO.P,J1,3,Pin_3*%
%TO.N,PC4*%
X24000000Y33340000D03*
%TO.P,J1,4,Pin_4*%
%TO.N,PC3*%
X24000000Y30800000D03*
%TO.P,J1,5,Pin_5*%
%TO.N,PC2*%
X24000000Y28260000D03*
%TO.P,J1,6,Pin_6*%
%TO.N,PC1*%
X24000000Y25720000D03*
%TO.P,J1,7,Pin_7*%
%TO.N,PB0*%
X24000000Y23180000D03*
%TO.P,J1,8,Pin_8*%
%TO.N,PB1*%
X24000000Y20640000D03*
%TO.P,J1,9,Pin_9*%
%TO.N,PB2*%
X24000000Y18100000D03*
%TO.P,J1,10,Pin_10*%
%TO.N,PB3*%
X24000000Y15560000D03*
%TO.P,J1,11,Pin_11*%
%TO.N,PB4*%
X24000000Y13020000D03*
%TO.P,J1,12,Pin_12*%
%TO.N,PB5*%
X24000000Y10480000D03*
%TO.P,J1,13,Pin_13*%
%TO.N,PB6*%
X24000000Y7940000D03*
%TO.P,J1,14,Pin_14*%
%TO.N,PB7*%
X24000000Y5400000D03*
%TO.P,J1,15,Pin_15*%
%TO.N,GND*%
X24000000Y2860000D03*
%TD*%
D10*
%TO.P,J2,1,Pin_1*%
%TO.N,+3V3*%
X16300000Y2600000D03*
D11*
%TO.P,J2,2,Pin_2*%
%TO.N,SWIM*%
X13760000Y2600000D03*
%TO.P,J2,3,Pin_3*%
%TO.N,GND*%
X11220000Y2600000D03*
%TO.P,J2,4,Pin_4*%
%TO.N,NRST*%
X8680000Y2600000D03*
%TD*%
D10*
%TO.P,J3,1,Pin_1*%
%TO.N,+5V*%
X1500000Y38400000D03*
D11*
%TO.P,J3,2,Pin_2*%
%TO.N,PC6*%
X1500000Y35860000D03*
%TO.P,J3,3,Pin_3*%
%TO.N,PC7*%
X1500000Y33320000D03*
%TO.P,J3,4,Pin_4*%
%TO.N,PD0*%
X1500000Y30780000D03*
%TO.P,J3,5,Pin_5*%
%TO.N,PD2*%
X1500000Y28240000D03*
%TO.P,J3,6,Pin_6*%
%TO.N,PD3*%
X1500000Y25700000D03*
%TO.P,J3,7,Pin_7*%
%TO.N,PD4*%
X1500000Y23160000D03*
%TO.P,J3,8,Pin_8*%
%TO.N,PD5*%
X1500000Y20620000D03*
%TO.P,J3,9,Pin_9*%
%TO.N,PD6*%
X1500000Y18080000D03*
%TO.P,J3,10,Pin_10*%
%TO.N,PD7*%
X1500000Y15540000D03*
%TO.P,J3,11,Pin_11*%
%TO.N,XTAL_A*%
X1500000Y13000000D03*
%TO.P,J3,12,Pin_12*%
%TO.N,XTAL_B*%
X1500000Y10460000D03*
%TO.P,J3,13,Pin_13*%
%TO.N,PE5*%
X1500000Y7920000D03*
%TO.P,J3,14,Pin_14*%
%TO.N,PF4*%
X1500000Y5380000D03*
%TO.P,J3,15,Pin_15*%
%TO.N,GND*%
X1500000Y2840000D03*
%TD*%
D12*
%TO.N,GND*%
X21050978Y5425978D03*
X10400000Y33900000D03*
X22600000Y40600000D03*
X5337500Y16562500D03*
X11900000Y34000000D03*
X8525000Y16975000D03*
%TO.N,XTAL_A*%
X5425000Y18325000D03*
X8400000Y20500000D03*
%TO.N,XTAL_B*%
X4271494Y9828506D03*
X11500000Y10700000D03*
%TO.N,+3V3*%
X17450000Y13425000D03*
X22220000Y38420000D03*
X17600000Y19600000D03*
%TO.N,SWIM*%
X6325000Y28275000D03*
X9800000Y5000000D03*
%TO.N,PE5*%
X13700000Y10300000D03*
X17300000Y30000000D03*
X4662500Y8262500D03*
X12700000Y9400000D03*
%TO.N,PF4*%
X17050000Y21600000D03*
X3850000Y5600000D03*
%TD*%
D13*
%TO.N,GND*%
X21200000Y39200000D02*
X13000000Y39200000D01*
X5750000Y16975000D02*
X8525000Y16975000D01*
X5337500Y16562500D02*
X5750000Y16975000D01*
D14*
X1500000Y2840000D02*
X3389511Y950489D01*
X3389511Y950489D02*
X11050489Y950489D01*
D13*
X5637000Y16937000D02*
X5300000Y16600000D01*
D14*
X11900000Y34000000D02*
X13000000Y32900000D01*
X24000000Y2860000D02*
X22360000Y2860000D01*
X11050489Y950489D02*
X12869511Y950489D01*
X13000000Y32900000D02*
X19200000Y32900000D01*
X19200000Y32900000D02*
X21050978Y31049022D01*
D13*
X10400000Y36600000D02*
X10400000Y33900000D01*
D14*
X22360000Y2860000D02*
X20450489Y950489D01*
D13*
X22600000Y40600000D02*
X21200000Y39200000D01*
X13000000Y39200000D02*
X10400000Y36600000D01*
D14*
X11220000Y1120000D02*
X11220000Y2600000D01*
X20450489Y950489D02*
X12869511Y950489D01*
X21050978Y31049022D02*
X21050978Y5350978D01*
X11050489Y950489D02*
X11220000Y1120000D01*
D13*
%TO.N,XTAL_A*%
X7600000Y20500000D02*
X5425000Y18325000D01*
X8400000Y20500000D02*
X7600000Y20500000D01*
%TO.N,XTAL_B*%
X11500000Y10700000D02*
X5142987Y10700000D01*
X5142987Y10700000D02*
X4271494Y9828506D01*
D14*
%TO.N,+3V3*%
X22350489Y29949511D02*
X22350489Y38289511D01*
X22350498Y4750498D02*
X22350498Y29949502D01*
X20200000Y2600000D02*
X22350498Y4750498D01*
D13*
X17600000Y13700000D02*
X17450000Y13550000D01*
D14*
X16300000Y2600000D02*
X20200000Y2600000D01*
X22350489Y38289511D02*
X22220000Y38420000D01*
D13*
X17600000Y19600000D02*
X17600000Y13700000D01*
D14*
X22350498Y29949502D02*
X22350489Y29949511D01*
D13*
%TO.N,SWIM*%
X3300000Y25300000D02*
X3300000Y8057202D01*
X6357202Y5000000D02*
X9800000Y5000000D01*
X6300000Y28300000D02*
X3300000Y25300000D01*
X3300000Y8057202D02*
X6357202Y5000000D01*
%TO.N,PE5*%
X11600000Y8300000D02*
X4700000Y8300000D01*
X12700000Y9400000D02*
X11600000Y8300000D01*
X13700000Y26400000D02*
X13700000Y10300000D01*
X17300000Y30000000D02*
X13700000Y26400000D01*
%TO.N,PF4*%
X17050000Y21600000D02*
X17600000Y21600000D01*
X17600000Y21600000D02*
X19300000Y19900000D01*
X3900000Y4700000D02*
X3900000Y5600000D01*
X19300000Y9400000D02*
X16600000Y6700000D01*
X13799511Y3899511D02*
X4700489Y3899511D01*
X19300000Y19900000D02*
X19300000Y9400000D01*
X4700489Y3899511D02*
X3900000Y4700000D01*
X16600000Y6700000D02*
X13799511Y3899511D01*
%TD*%
%TA.AperFunction,Conductor*%
%TO.N,GND*%
G36*
X2973395Y5060983D02*
G01*
X3018727Y5025129D01*
X3121035Y4896047D01*
X3125728Y4892053D01*
X3125729Y4892052D01*
X3195625Y4832566D01*
X3234538Y4773183D01*
X3239900Y4740570D01*
X3241438Y4691631D01*
X3241500Y4687673D01*
X3241500Y4658568D01*
X3242056Y4654168D01*
X3242988Y4642336D01*
X3244438Y4596169D01*
X3250031Y4576920D01*
X3250419Y4575584D01*
X3254430Y4556218D01*
X3257118Y4534936D01*
X3260034Y4527571D01*
X3260035Y4527567D01*
X3274126Y4491979D01*
X3277965Y4480769D01*
X3290855Y4436400D01*
X3301775Y4417935D01*
X3310466Y4400195D01*
X3318365Y4380244D01*
X3345516Y4342874D01*
X3352033Y4332952D01*
X3371507Y4300023D01*
X3371510Y4300019D01*
X3375547Y4293193D01*
X3390711Y4278029D01*
X3403551Y4262996D01*
X3416159Y4245643D01*
X3446883Y4220226D01*
X3451747Y4216202D01*
X3460527Y4208213D01*
X4176834Y3491907D01*
X4184824Y3483126D01*
X4189073Y3476431D01*
X4194851Y3471005D01*
X4194852Y3471004D01*
X4240762Y3427892D01*
X4243604Y3425137D01*
X4264156Y3404585D01*
X4267290Y3402154D01*
X4267652Y3401873D01*
X4276680Y3394163D01*
X4310356Y3362539D01*
X4317307Y3358718D01*
X4317308Y3358717D01*
X4329144Y3352210D01*
X4345673Y3341353D01*
X4356358Y3333064D01*
X4356360Y3333063D01*
X4362620Y3328207D01*
X4405033Y3309854D01*
X4415670Y3304643D01*
X4456152Y3282387D01*
X4463831Y3280415D01*
X4463832Y3280415D01*
X4476923Y3277054D01*
X4495625Y3270652D01*
X4515312Y3262132D01*
X4523141Y3260892D01*
X4560937Y3254906D01*
X4572563Y3252498D01*
X4609624Y3242982D01*
X4609625Y3242982D01*
X4617301Y3241011D01*
X4638747Y3241011D01*
X4658457Y3239460D01*
X4679640Y3236105D01*
X4725624Y3240452D01*
X4737483Y3241011D01*
X7283187Y3241011D01*
X7351308Y3221009D01*
X7397801Y3167353D01*
X7407905Y3097079D01*
X7401885Y3073274D01*
X7400688Y3070695D01*
X7340989Y2855430D01*
X7317251Y2633305D01*
X7317548Y2628152D01*
X7317548Y2628149D01*
X7327951Y2447725D01*
X7330110Y2410285D01*
X7331247Y2405239D01*
X7331248Y2405233D01*
X7347362Y2333733D01*
X7379222Y2192361D01*
X7463266Y1985384D01*
X7465965Y1980980D01*
X7577291Y1799312D01*
X7579987Y1794912D01*
X7726250Y1626062D01*
X7898126Y1483368D01*
X8091000Y1370662D01*
X8299692Y1290970D01*
X8304760Y1289939D01*
X8304763Y1289938D01*
X8399862Y1270590D01*
X8518597Y1246433D01*
X8523772Y1246243D01*
X8523774Y1246243D01*
X8736673Y1238436D01*
X8736677Y1238436D01*
X8741837Y1238247D01*
X8746957Y1238903D01*
X8746959Y1238903D01*
X8958288Y1265975D01*
X8958289Y1265975D01*
X8963416Y1266632D01*
X8968366Y1268117D01*
X9172429Y1329339D01*
X9172434Y1329341D01*
X9177384Y1330826D01*
X9377994Y1429104D01*
X9559860Y1558827D01*
X9570881Y1569809D01*
X9667386Y1665978D01*
X9718096Y1716511D01*
X9735815Y1741169D01*
X9848453Y1897923D01*
X9849640Y1897070D01*
X9896960Y1940638D01*
X9966897Y1952855D01*
X10032338Y1925322D01*
X10060166Y1893489D01*
X10117694Y1799612D01*
X10123777Y1791301D01*
X10263213Y1630333D01*
X10270580Y1623117D01*
X10434434Y1487084D01*
X10442881Y1481169D01*
X10626756Y1373721D01*
X10636042Y1369271D01*
X10835001Y1293297D01*
X10844899Y1290421D01*
X10948250Y1269394D01*
X10962299Y1270590D01*
X10966000Y1280935D01*
X10966000Y2728000D01*
X10986002Y2796121D01*
X11039658Y2842614D01*
X11092000Y2854000D01*
X11348000Y2854000D01*
X11416121Y2833998D01*
X11462614Y2780342D01*
X11474000Y2728000D01*
X11474000Y1281483D01*
X11478064Y1267641D01*
X11491478Y1265607D01*
X11498184Y1266466D01*
X11508262Y1268608D01*
X11712255Y1329809D01*
X11721842Y1333567D01*
X11913095Y1427261D01*
X11921945Y1432536D01*
X12095328Y1556208D01*
X12103200Y1562861D01*
X12254052Y1713188D01*
X12260730Y1721035D01*
X12388022Y1898181D01*
X12389279Y1897278D01*
X12436373Y1940638D01*
X12506311Y1952855D01*
X12571751Y1925322D01*
X12599579Y1893489D01*
X12659987Y1794912D01*
X12806250Y1626062D01*
X12978126Y1483368D01*
X13171000Y1370662D01*
X13379692Y1290970D01*
X13384760Y1289939D01*
X13384763Y1289938D01*
X13479862Y1270590D01*
X13598597Y1246433D01*
X13603772Y1246243D01*
X13603774Y1246243D01*
X13816673Y1238436D01*
X13816677Y1238436D01*
X13821837Y1238247D01*
X13826957Y1238903D01*
X13826959Y1238903D01*
X14038288Y1265975D01*
X14038289Y1265975D01*
X14043416Y1266632D01*
X14048366Y1268117D01*
X14252429Y1329339D01*
X14252434Y1329341D01*
X14257384Y1330826D01*
X14457994Y1429104D01*
X14639860Y1558827D01*
X14748091Y1666681D01*
X14810462Y1700596D01*
X14881268Y1695408D01*
X14938030Y1652762D01*
X14955012Y1621659D01*
X14968127Y1586676D01*
X14999385Y1503295D01*
X15086739Y1386739D01*
X15203295Y1299385D01*
X15339684Y1248255D01*
X15401866Y1241500D01*
X17198134Y1241500D01*
X17260316Y1248255D01*
X17396705Y1299385D01*
X17513261Y1386739D01*
X17600615Y1503295D01*
X17603767Y1511704D01*
X17608077Y1519575D01*
X17609741Y1518664D01*
X17645663Y1566490D01*
X17712224Y1591193D01*
X17721009Y1591500D01*
X20138157Y1591500D01*
X20151764Y1590763D01*
X20183262Y1587341D01*
X20183267Y1587341D01*
X20189388Y1586676D01*
X20215638Y1588973D01*
X20239388Y1591050D01*
X20244214Y1591379D01*
X20246686Y1591500D01*
X20249769Y1591500D01*
X20261738Y1592674D01*
X20292506Y1595690D01*
X20293819Y1595812D01*
X20338084Y1599685D01*
X20386413Y1603913D01*
X20391532Y1605400D01*
X20396833Y1605920D01*
X20485834Y1632791D01*
X20486967Y1633126D01*
X20570414Y1657370D01*
X20570418Y1657372D01*
X20576336Y1659091D01*
X20581068Y1661544D01*
X20586169Y1663084D01*
X20603946Y1672536D01*
X20668260Y1706731D01*
X20669426Y1707343D01*
X20746453Y1747271D01*
X20751926Y1750108D01*
X20756089Y1753431D01*
X20760796Y1755934D01*
X20832918Y1814755D01*
X20833774Y1815446D01*
X20872973Y1846738D01*
X20875477Y1849242D01*
X20876195Y1849884D01*
X20880528Y1853585D01*
X20914062Y1880935D01*
X20943288Y1916263D01*
X20951277Y1925042D01*
X21618269Y2592034D01*
X22668257Y2592034D01*
X22698565Y2457554D01*
X22701645Y2447725D01*
X22781770Y2250397D01*
X22786413Y2241206D01*
X22897694Y2059612D01*
X22903777Y2051301D01*
X23043213Y1890333D01*
X23050580Y1883117D01*
X23214434Y1747084D01*
X23222881Y1741169D01*
X23406756Y1633721D01*
X23416042Y1629271D01*
X23615001Y1553297D01*
X23624899Y1550421D01*
X23728250Y1529394D01*
X23742299Y1530590D01*
X23746000Y1540935D01*
X23746000Y2587885D01*
X23741525Y2603124D01*
X23740135Y2604329D01*
X23732452Y2606000D01*
X22683225Y2606000D01*
X22669694Y2602027D01*
X22668257Y2592034D01*
X21618269Y2592034D01*
X22534127Y3507892D01*
X22596439Y3541918D01*
X22667254Y3536853D01*
X22724090Y3494306D01*
X22748901Y3427786D01*
X22737509Y3365746D01*
X22723340Y3335223D01*
X22719775Y3325530D01*
X22664389Y3125817D01*
X22665912Y3117393D01*
X22678292Y3114000D01*
X24128000Y3114000D01*
X24196121Y3093998D01*
X24242614Y3040342D01*
X24254000Y2988000D01*
X24254000Y1541483D01*
X24258064Y1527641D01*
X24271478Y1525607D01*
X24278184Y1526466D01*
X24288262Y1528608D01*
X24492255Y1589809D01*
X24501842Y1593567D01*
X24693095Y1687261D01*
X24701945Y1692536D01*
X24792832Y1757365D01*
X24859905Y1780639D01*
X24928914Y1763955D01*
X24977948Y1712611D01*
X24992000Y1654786D01*
X24992000Y634000D01*
X24971998Y565879D01*
X24918342Y519386D01*
X24866000Y508000D01*
X634000Y508000D01*
X565879Y528002D01*
X519386Y581658D01*
X508000Y634000D01*
X508000Y1630097D01*
X528002Y1698218D01*
X581658Y1744711D01*
X651932Y1754815D01*
X709610Y1729205D01*
X710200Y1730048D01*
X722881Y1721169D01*
X906756Y1613721D01*
X916042Y1609271D01*
X1115001Y1533297D01*
X1124899Y1530421D01*
X1228250Y1509394D01*
X1242299Y1510590D01*
X1246000Y1520935D01*
X1246000Y1521483D01*
X1754000Y1521483D01*
X1758064Y1507641D01*
X1771478Y1505607D01*
X1778184Y1506466D01*
X1788262Y1508608D01*
X1992255Y1569809D01*
X2001842Y1573567D01*
X2193095Y1667261D01*
X2201945Y1672536D01*
X2375328Y1796208D01*
X2383200Y1802861D01*
X2534052Y1953188D01*
X2540730Y1961035D01*
X2665003Y2133980D01*
X2670313Y2142817D01*
X2764670Y2333733D01*
X2768469Y2343328D01*
X2830377Y2547090D01*
X2832555Y2557163D01*
X2833986Y2568038D01*
X2831775Y2582222D01*
X2818617Y2586000D01*
X1772115Y2586000D01*
X1756876Y2581525D01*
X1755671Y2580135D01*
X1754000Y2572452D01*
X1754000Y1521483D01*
X1246000Y1521483D01*
X1246000Y2968000D01*
X1266002Y3036121D01*
X1319658Y3082614D01*
X1372000Y3094000D01*
X2818344Y3094000D01*
X2831875Y3097973D01*
X2833180Y3107053D01*
X2791214Y3274125D01*
X2787894Y3283876D01*
X2702972Y3479186D01*
X2698105Y3488261D01*
X2582426Y3667074D01*
X2576136Y3675243D01*
X2432806Y3832760D01*
X2425273Y3839785D01*
X2258139Y3971778D01*
X2249556Y3977480D01*
X2212602Y3997880D01*
X2162631Y4048313D01*
X2147859Y4117755D01*
X2172975Y4184161D01*
X2200327Y4210768D01*
X2258212Y4252057D01*
X2379860Y4338827D01*
X2538096Y4496511D01*
X2668453Y4677923D01*
X2680325Y4701943D01*
X2765136Y4873547D01*
X2765137Y4873549D01*
X2767430Y4878189D01*
X2796913Y4975229D01*
X2799424Y4983493D01*
X2838365Y5042857D01*
X2903219Y5071744D01*
X2973395Y5060983D01*
G37*
%TD.AperFunction*%
%TA.AperFunction,Conductor*%
G36*
X24934121Y41271998D02*
G01*
X24980614Y41218342D01*
X24992000Y41166000D01*
X24992000Y39904500D01*
X24971998Y39836379D01*
X24918342Y39789886D01*
X24866000Y39778500D01*
X23101866Y39778500D01*
X23039684Y39771745D01*
X22903295Y39720615D01*
X22786739Y39633261D01*
X22699385Y39516705D01*
X22696233Y39508296D01*
X22696232Y39508295D01*
X22677508Y39458349D01*
X22634867Y39401584D01*
X22568305Y39376884D01*
X22522680Y39382087D01*
X22516970Y39383832D01*
X22516584Y39383951D01*
X22429386Y39410943D01*
X22423768Y39412682D01*
X22422000Y39412868D01*
X22420302Y39413387D01*
X22323804Y39423189D01*
X22323540Y39423216D01*
X22227075Y39433355D01*
X22225308Y39433194D01*
X22223538Y39433374D01*
X22217656Y39432818D01*
X22217655Y39432818D01*
X22126822Y39424232D01*
X22126385Y39424192D01*
X22081269Y39420086D01*
X22030112Y39415430D01*
X22028407Y39414928D01*
X22026638Y39414761D01*
X22020989Y39413077D01*
X22020984Y39413076D01*
X21933728Y39387064D01*
X21933307Y39386939D01*
X21840381Y39359590D01*
X21838805Y39358766D01*
X21837104Y39358259D01*
X21831894Y39355512D01*
X21797711Y39337489D01*
X21751252Y39312994D01*
X21665110Y39267960D01*
X21663725Y39266846D01*
X21662154Y39266018D01*
X21657572Y39262308D01*
X21657568Y39262305D01*
X21586918Y39205093D01*
X21586576Y39204817D01*
X21515591Y39147744D01*
X21515588Y39147741D01*
X21510975Y39144032D01*
X21509832Y39142669D01*
X21508453Y39141553D01*
X21504663Y39137004D01*
X21446525Y39067225D01*
X21446243Y39066888D01*
X21383846Y38992526D01*
X21382988Y38990965D01*
X21381854Y38989604D01*
X21379037Y38984437D01*
X21379034Y38984433D01*
X21335442Y38904481D01*
X21335375Y38904358D01*
X21288567Y38819213D01*
X21288031Y38817524D01*
X21287178Y38815959D01*
X21258074Y38723086D01*
X21228765Y38630694D01*
X21228567Y38628930D01*
X21228035Y38627232D01*
X21217541Y38530627D01*
X21206719Y38434149D01*
X21206868Y38432377D01*
X21206676Y38430612D01*
X21215134Y38333929D01*
X21223268Y38237066D01*
X21223758Y38235356D01*
X21223913Y38233587D01*
X21250996Y38140366D01*
X21277783Y38046950D01*
X21278596Y38045368D01*
X21279091Y38043664D01*
X21281799Y38038440D01*
X21323724Y37957558D01*
X21323925Y37957168D01*
X21328055Y37949132D01*
X21341989Y37891537D01*
X21341989Y30011354D01*
X21341252Y29997747D01*
X21338043Y29968201D01*
X21337165Y29960123D01*
X21337702Y29953988D01*
X21341519Y29910355D01*
X21341998Y29899374D01*
X21341998Y5220422D01*
X21321996Y5152301D01*
X21305093Y5131327D01*
X19819171Y3645405D01*
X19756859Y3611379D01*
X19730076Y3608500D01*
X17721009Y3608500D01*
X17652888Y3628502D01*
X17606395Y3682158D01*
X17604097Y3687694D01*
X17603767Y3688297D01*
X17600615Y3696705D01*
X17513261Y3813261D01*
X17396705Y3900615D01*
X17260316Y3951745D01*
X17198134Y3958500D01*
X15401866Y3958500D01*
X15339684Y3951745D01*
X15203295Y3900615D01*
X15086739Y3813261D01*
X14999385Y3696705D01*
X14996233Y3688297D01*
X14954919Y3578093D01*
X14912277Y3521329D01*
X14845716Y3496629D01*
X14776367Y3511837D01*
X14743743Y3537524D01*
X14693151Y3593124D01*
X14693148Y3593127D01*
X14689670Y3596949D01*
X14654758Y3624521D01*
X14613696Y3682439D01*
X14610466Y3753362D01*
X14643757Y3812497D01*
X19707605Y8876345D01*
X19716385Y8884335D01*
X19716387Y8884337D01*
X19723080Y8888584D01*
X19749717Y8916949D01*
X19771604Y8940257D01*
X19774359Y8943099D01*
X19794927Y8963667D01*
X19797647Y8967174D01*
X19805353Y8976196D01*
X19805697Y8976562D01*
X19836972Y9009867D01*
X19840794Y9016819D01*
X19847303Y9028658D01*
X19858157Y9045182D01*
X19866445Y9055868D01*
X19871304Y9062132D01*
X19874877Y9070388D01*
X19889654Y9104535D01*
X19894876Y9115195D01*
X19913305Y9148716D01*
X19913306Y9148718D01*
X19917124Y9155663D01*
X19922459Y9176441D01*
X19928858Y9195131D01*
X19937380Y9214824D01*
X19944606Y9260448D01*
X19947013Y9272071D01*
X19956528Y9309132D01*
X19958500Y9316812D01*
X19958500Y9338259D01*
X19960051Y9357969D01*
X19962166Y9371323D01*
X19963406Y9379152D01*
X19959059Y9425141D01*
X19958500Y9436996D01*
X19958500Y19817944D01*
X19959059Y19829800D01*
X19959059Y19829803D01*
X19960788Y19837537D01*
X19958562Y19908369D01*
X19958500Y19912327D01*
X19958500Y19941432D01*
X19957944Y19945832D01*
X19957012Y19957670D01*
X19955811Y19995906D01*
X19955562Y20003831D01*
X19949580Y20024421D01*
X19945570Y20043784D01*
X19943875Y20057204D01*
X19943875Y20057205D01*
X19942882Y20065064D01*
X19939966Y20072429D01*
X19939965Y20072433D01*
X19925874Y20108021D01*
X19922035Y20119231D01*
X19909145Y20163600D01*
X19898225Y20182065D01*
X19889534Y20199805D01*
X19881635Y20219756D01*
X19854482Y20257129D01*
X19847967Y20267048D01*
X19828493Y20299977D01*
X19828490Y20299981D01*
X19824453Y20306807D01*
X19809289Y20321971D01*
X19796448Y20337005D01*
X19788501Y20347943D01*
X19783841Y20354357D01*
X19748247Y20383803D01*
X19739468Y20391792D01*
X18123655Y22007605D01*
X18115665Y22016385D01*
X18115663Y22016387D01*
X18111416Y22023080D01*
X18089812Y22043368D01*
X18059743Y22071604D01*
X18056901Y22074359D01*
X18036333Y22094927D01*
X18032826Y22097647D01*
X18023804Y22105353D01*
X18012648Y22115829D01*
X17990133Y22136972D01*
X17983181Y22140794D01*
X17971342Y22147303D01*
X17954818Y22158157D01*
X17944132Y22166445D01*
X17937868Y22171304D01*
X17924121Y22177253D01*
X17895472Y22189650D01*
X17884807Y22194875D01*
X17872666Y22201550D01*
X17835727Y22232327D01*
X17772960Y22309286D01*
X17769065Y22314062D01*
X17762724Y22319308D01*
X17621425Y22436201D01*
X17621421Y22436203D01*
X17616675Y22440130D01*
X17442701Y22534198D01*
X17253768Y22592682D01*
X17247643Y22593326D01*
X17247642Y22593326D01*
X17063204Y22612711D01*
X17063202Y22612711D01*
X17057075Y22613355D01*
X16974576Y22605847D01*
X16866251Y22595989D01*
X16866248Y22595988D01*
X16860112Y22595430D01*
X16854206Y22593692D01*
X16854202Y22593691D01*
X16749076Y22562751D01*
X16670381Y22539590D01*
X16664923Y22536737D01*
X16664919Y22536735D01*
X16574147Y22489280D01*
X16495110Y22447960D01*
X16340975Y22324032D01*
X16213846Y22172526D01*
X16210879Y22167128D01*
X16210875Y22167123D01*
X16159772Y22074165D01*
X16118567Y21999213D01*
X16116706Y21993346D01*
X16116705Y21993344D01*
X16063695Y21826235D01*
X16058765Y21810694D01*
X16036719Y21614149D01*
X16037235Y21608005D01*
X16051377Y21439590D01*
X16053268Y21417066D01*
X16107783Y21226950D01*
X16112387Y21217991D01*
X16190721Y21065572D01*
X16198187Y21051044D01*
X16321035Y20896047D01*
X16471650Y20767864D01*
X16644294Y20671376D01*
X16832392Y20610260D01*
X16895794Y20602700D01*
X16961066Y20574773D01*
X17000879Y20515990D01*
X17002591Y20445014D01*
X16965659Y20384379D01*
X16959826Y20379390D01*
X16890975Y20324032D01*
X16763846Y20172526D01*
X16760879Y20167128D01*
X16760875Y20167123D01*
X16693070Y20043784D01*
X16668567Y19999213D01*
X16666706Y19993346D01*
X16666705Y19993344D01*
X16619793Y19845459D01*
X16608765Y19810694D01*
X16586719Y19614149D01*
X16587235Y19608005D01*
X16601832Y19434172D01*
X16603268Y19417066D01*
X16622262Y19350826D01*
X16655907Y19233493D01*
X16657783Y19226950D01*
X16660602Y19221465D01*
X16734874Y19076949D01*
X16748187Y19051044D01*
X16871035Y18896047D01*
X16875729Y18892053D01*
X16875730Y18892051D01*
X16897164Y18873809D01*
X16936076Y18814426D01*
X16941500Y18777856D01*
X16941500Y14370627D01*
X16921498Y14302506D01*
X16894452Y14272431D01*
X16877875Y14259103D01*
X16740975Y14149032D01*
X16613846Y13997526D01*
X16610879Y13992128D01*
X16610875Y13992123D01*
X16575823Y13928362D01*
X16518567Y13824213D01*
X16516706Y13818346D01*
X16516705Y13818344D01*
X16514429Y13811169D01*
X16458765Y13635694D01*
X16436719Y13439149D01*
X16453268Y13242066D01*
X16454967Y13236142D01*
X16494578Y13098002D01*
X16507783Y13051950D01*
X16598187Y12876044D01*
X16721035Y12721047D01*
X16871650Y12592864D01*
X17044294Y12496376D01*
X17232392Y12435260D01*
X17428777Y12411842D01*
X17434912Y12412314D01*
X17434914Y12412314D01*
X17619830Y12426543D01*
X17619834Y12426544D01*
X17625972Y12427016D01*
X17816463Y12480202D01*
X17821967Y12482982D01*
X17821969Y12482983D01*
X17987495Y12566596D01*
X17987497Y12566597D01*
X17992996Y12569375D01*
X18148847Y12691139D01*
X18278078Y12840855D01*
X18375769Y13012821D01*
X18386961Y13046465D01*
X18395942Y13073463D01*
X18436423Y13131787D01*
X18502012Y13158967D01*
X18571882Y13146372D01*
X18623852Y13098002D01*
X18641500Y13033691D01*
X18641500Y9724950D01*
X18621498Y9656829D01*
X18604595Y9635855D01*
X13563656Y4594916D01*
X13501344Y4560890D01*
X13474561Y4558011D01*
X10890555Y4558011D01*
X10822434Y4578013D01*
X10775941Y4631669D01*
X10765837Y4701943D01*
X10770995Y4723776D01*
X10788197Y4775487D01*
X10812985Y4971705D01*
X10813380Y5000000D01*
X10794080Y5196833D01*
X10736916Y5386169D01*
X10644066Y5560796D01*
X10548067Y5678502D01*
X10522960Y5709287D01*
X10522957Y5709290D01*
X10519065Y5714062D01*
X10514316Y5717991D01*
X10371425Y5836201D01*
X10371421Y5836203D01*
X10366675Y5840130D01*
X10192701Y5934198D01*
X10003768Y5992682D01*
X9997643Y5993326D01*
X9997642Y5993326D01*
X9813204Y6012711D01*
X9813202Y6012711D01*
X9807075Y6013355D01*
X9724576Y6005847D01*
X9616251Y5995989D01*
X9616248Y5995988D01*
X9610112Y5995430D01*
X9604206Y5993692D01*
X9604202Y5993691D01*
X9504567Y5964367D01*
X9420381Y5939590D01*
X9414923Y5936737D01*
X9414919Y5936735D01*
X9324147Y5889280D01*
X9245110Y5847960D01*
X9090975Y5724032D01*
X9087013Y5719310D01*
X9073753Y5703508D01*
X9014643Y5664182D01*
X8977232Y5658500D01*
X6682152Y5658500D01*
X6614031Y5678502D01*
X6593057Y5695405D01*
X5113374Y7175088D01*
X5079348Y7237400D01*
X5084413Y7308215D01*
X5126960Y7365051D01*
X5145656Y7376648D01*
X5205496Y7406875D01*
X5361347Y7528639D01*
X5421072Y7597831D01*
X5480725Y7636328D01*
X5516453Y7641500D01*
X11517944Y7641500D01*
X11529800Y7640941D01*
X11529803Y7640941D01*
X11537537Y7639212D01*
X11608369Y7641438D01*
X11612327Y7641500D01*
X11641432Y7641500D01*
X11645832Y7642056D01*
X11657664Y7642988D01*
X11703831Y7644438D01*
X11724421Y7650420D01*
X11743782Y7654430D01*
X11750770Y7655312D01*
X11757204Y7656125D01*
X11757205Y7656125D01*
X11765064Y7657118D01*
X11772429Y7660034D01*
X11772433Y7660035D01*
X11808021Y7674126D01*
X11819231Y7677965D01*
X11863600Y7690855D01*
X11882065Y7701775D01*
X11899805Y7710466D01*
X11919756Y7718365D01*
X11957129Y7745518D01*
X11967048Y7752033D01*
X11999977Y7771507D01*
X11999981Y7771510D01*
X12006807Y7775547D01*
X12021971Y7790711D01*
X12037005Y7803552D01*
X12047943Y7811499D01*
X12054357Y7816159D01*
X12083803Y7851753D01*
X12091792Y7860532D01*
X12581933Y8350673D01*
X12644245Y8384699D01*
X12673211Y8387506D01*
X12678777Y8386842D01*
X12684912Y8387314D01*
X12684915Y8387314D01*
X12869830Y8401543D01*
X12869834Y8401544D01*
X12875972Y8402016D01*
X13066463Y8455202D01*
X13071967Y8457982D01*
X13071969Y8457983D01*
X13237495Y8541596D01*
X13237497Y8541597D01*
X13242996Y8544375D01*
X13398847Y8666139D01*
X13528078Y8815855D01*
X13625769Y8987821D01*
X13688197Y9175487D01*
X13689615Y9186714D01*
X13717995Y9251788D01*
X13777053Y9291191D01*
X13804954Y9296551D01*
X13869829Y9301543D01*
X13869832Y9301544D01*
X13875972Y9302016D01*
X14066463Y9355202D01*
X14071967Y9357982D01*
X14071969Y9357983D01*
X14237495Y9441596D01*
X14237497Y9441597D01*
X14242996Y9444375D01*
X14398847Y9566139D01*
X14516133Y9702016D01*
X14524049Y9711187D01*
X14524050Y9711189D01*
X14528078Y9715855D01*
X14625769Y9887821D01*
X14688197Y10075487D01*
X14712985Y10271705D01*
X14713380Y10300000D01*
X14694080Y10496833D01*
X14636916Y10686169D01*
X14544066Y10860796D01*
X14470726Y10950720D01*
X14422960Y11009287D01*
X14422957Y11009290D01*
X14419065Y11014062D01*
X14409724Y11021790D01*
X14404183Y11026374D01*
X14364446Y11085208D01*
X14358500Y11123457D01*
X14358500Y26075050D01*
X14378502Y26143171D01*
X14395405Y26164145D01*
X17181933Y28950673D01*
X17244245Y28984699D01*
X17273211Y28987506D01*
X17278777Y28986842D01*
X17284912Y28987314D01*
X17284915Y28987314D01*
X17469830Y29001543D01*
X17469834Y29001544D01*
X17475972Y29002016D01*
X17666463Y29055202D01*
X17671967Y29057982D01*
X17671969Y29057983D01*
X17837495Y29141596D01*
X17837497Y29141597D01*
X17842996Y29144375D01*
X17998847Y29266139D01*
X18108776Y29393493D01*
X18124049Y29411187D01*
X18124050Y29411189D01*
X18128078Y29415855D01*
X18225769Y29587821D01*
X18288197Y29775487D01*
X18312985Y29971705D01*
X18313380Y30000000D01*
X18294080Y30196833D01*
X18236916Y30386169D01*
X18144066Y30560796D01*
X18073709Y30647062D01*
X18022960Y30709287D01*
X18022957Y30709290D01*
X18019065Y30714062D01*
X18012724Y30719308D01*
X17871425Y30836201D01*
X17871421Y30836203D01*
X17866675Y30840130D01*
X17692701Y30934198D01*
X17503768Y30992682D01*
X17497643Y30993326D01*
X17497642Y30993326D01*
X17313204Y31012711D01*
X17313202Y31012711D01*
X17307075Y31013355D01*
X17224576Y31005847D01*
X17116251Y30995989D01*
X17116248Y30995988D01*
X17110112Y30995430D01*
X17104206Y30993692D01*
X17104202Y30993691D01*
X16999076Y30962751D01*
X16920381Y30939590D01*
X16914923Y30936737D01*
X16914919Y30936735D01*
X16824147Y30889280D01*
X16745110Y30847960D01*
X16590975Y30724032D01*
X16463846Y30572526D01*
X16460879Y30567128D01*
X16460875Y30567123D01*
X16416815Y30486977D01*
X16368567Y30399213D01*
X16366706Y30393346D01*
X16366705Y30393344D01*
X16331747Y30283143D01*
X16308765Y30210694D01*
X16286719Y30014149D01*
X16287235Y30008005D01*
X16289275Y29983710D01*
X16275043Y29914155D01*
X16252812Y29884072D01*
X13292395Y26923655D01*
X13283615Y26915665D01*
X13283613Y26915663D01*
X13276920Y26911416D01*
X13271494Y26905638D01*
X13271493Y26905637D01*
X13228396Y26859743D01*
X13225641Y26856901D01*
X13205073Y26836333D01*
X13202356Y26832830D01*
X13194648Y26823805D01*
X13163028Y26790133D01*
X13159207Y26783182D01*
X13159206Y26783181D01*
X13152697Y26771342D01*
X13141843Y26754818D01*
X13134018Y26744729D01*
X13128696Y26737868D01*
X13125549Y26730596D01*
X13125548Y26730594D01*
X13110346Y26695465D01*
X13105124Y26684805D01*
X13082876Y26644337D01*
X13077541Y26623559D01*
X13071142Y26604869D01*
X13062620Y26585176D01*
X13061380Y26577345D01*
X13055394Y26539552D01*
X13052987Y26527929D01*
X13041500Y26483188D01*
X13041500Y26461741D01*
X13039949Y26442031D01*
X13036594Y26420848D01*
X13037340Y26412957D01*
X13040941Y26374862D01*
X13041500Y26363004D01*
X13041500Y11125025D01*
X13021498Y11056904D01*
X12999719Y11032683D01*
X13000184Y11032208D01*
X12995782Y11027897D01*
X12990975Y11024032D01*
X12863846Y10872526D01*
X12860879Y10867128D01*
X12860875Y10867123D01*
X12817215Y10787704D01*
X12768567Y10699213D01*
X12766706Y10693346D01*
X12759085Y10669322D01*
X12719421Y10610439D01*
X12654218Y10582346D01*
X12584179Y10593965D01*
X12531539Y10641605D01*
X12513738Y10700035D01*
X12513380Y10700000D01*
X12513205Y10701786D01*
X12513205Y10701787D01*
X12494080Y10896833D01*
X12436916Y11086169D01*
X12344066Y11260796D01*
X12266777Y11355562D01*
X12222960Y11409287D01*
X12222957Y11409290D01*
X12219065Y11414062D01*
X12214316Y11417991D01*
X12071425Y11536201D01*
X12071421Y11536203D01*
X12066675Y11540130D01*
X11892701Y11634198D01*
X11703768Y11692682D01*
X11697643Y11693326D01*
X11697642Y11693326D01*
X11513204Y11712711D01*
X11513202Y11712711D01*
X11507075Y11713355D01*
X11424576Y11705847D01*
X11316251Y11695989D01*
X11316248Y11695988D01*
X11310112Y11695430D01*
X11304206Y11693692D01*
X11304202Y11693691D01*
X11250702Y11677945D01*
X11120381Y11639590D01*
X11114923Y11636737D01*
X11114919Y11636735D01*
X11070462Y11613493D01*
X10945110Y11547960D01*
X10790975Y11424032D01*
X10787013Y11419310D01*
X10773753Y11403508D01*
X10714643Y11364182D01*
X10677232Y11358500D01*
X5225046Y11358500D01*
X5213190Y11359059D01*
X5205450Y11360789D01*
X5197524Y11360540D01*
X5197523Y11360540D01*
X5134598Y11358562D01*
X5130640Y11358500D01*
X5101555Y11358500D01*
X5097624Y11358003D01*
X5097617Y11358003D01*
X5097166Y11357946D01*
X5085330Y11357014D01*
X5039156Y11355562D01*
X5018566Y11349580D01*
X4999205Y11345570D01*
X4992217Y11344688D01*
X4985783Y11343875D01*
X4985782Y11343875D01*
X4977923Y11342882D01*
X4970558Y11339966D01*
X4970554Y11339965D01*
X4934969Y11325876D01*
X4923739Y11322031D01*
X4879386Y11309145D01*
X4872562Y11305109D01*
X4860930Y11298230D01*
X4843174Y11289531D01*
X4823231Y11281635D01*
X4801122Y11265572D01*
X4785855Y11254480D01*
X4775936Y11247965D01*
X4743010Y11228492D01*
X4743006Y11228489D01*
X4736180Y11224452D01*
X4721023Y11209295D01*
X4705990Y11196454D01*
X4688630Y11183841D01*
X4683578Y11177734D01*
X4659180Y11148242D01*
X4651190Y11139462D01*
X4388951Y10877223D01*
X4326639Y10843197D01*
X4290864Y10841237D01*
X4290864Y10841174D01*
X4289845Y10841181D01*
X4286686Y10841008D01*
X4284699Y10841217D01*
X4284696Y10841217D01*
X4278569Y10841861D01*
X4231426Y10837571D01*
X4095919Y10825239D01*
X4026266Y10838984D01*
X3975102Y10888206D01*
X3958500Y10950720D01*
X3958500Y18339149D01*
X4411719Y18339149D01*
X4428268Y18142066D01*
X4482783Y17951950D01*
X4573187Y17776044D01*
X4696035Y17621047D01*
X4846650Y17492864D01*
X5019294Y17396376D01*
X5207392Y17335260D01*
X5403777Y17311842D01*
X5409912Y17312314D01*
X5409914Y17312314D01*
X5594830Y17326543D01*
X5594834Y17326544D01*
X5600972Y17327016D01*
X5791463Y17380202D01*
X5796967Y17382982D01*
X5796969Y17382983D01*
X5962495Y17466596D01*
X5962497Y17466597D01*
X5967996Y17469375D01*
X6123847Y17591139D01*
X6253078Y17740855D01*
X6350769Y17912821D01*
X6413197Y18100487D01*
X6437985Y18296705D01*
X6438380Y18325000D01*
X6436859Y18340512D01*
X6450118Y18410260D01*
X6473163Y18441903D01*
X7059709Y19028449D01*
X7675668Y19644409D01*
X7737980Y19678434D01*
X7808795Y19673370D01*
X7826235Y19665302D01*
X7994294Y19571376D01*
X8182392Y19510260D01*
X8378777Y19486842D01*
X8384912Y19487314D01*
X8384914Y19487314D01*
X8569830Y19501543D01*
X8569834Y19501544D01*
X8575972Y19502016D01*
X8766463Y19555202D01*
X8771967Y19557982D01*
X8771969Y19557983D01*
X8937495Y19641596D01*
X8937497Y19641597D01*
X8942996Y19644375D01*
X9098847Y19766139D01*
X9197486Y19880414D01*
X9224049Y19911187D01*
X9224050Y19911189D01*
X9228078Y19915855D01*
X9325769Y20087821D01*
X9388197Y20275487D01*
X9412985Y20471705D01*
X9413380Y20500000D01*
X9394080Y20696833D01*
X9336916Y20886169D01*
X9244066Y21060796D01*
X9166777Y21155562D01*
X9122960Y21209287D01*
X9122957Y21209290D01*
X9119065Y21214062D01*
X9114316Y21217991D01*
X8971425Y21336201D01*
X8971421Y21336203D01*
X8966675Y21340130D01*
X8792701Y21434198D01*
X8603768Y21492682D01*
X8597643Y21493326D01*
X8597642Y21493326D01*
X8413204Y21512711D01*
X8413202Y21512711D01*
X8407075Y21513355D01*
X8324576Y21505847D01*
X8216251Y21495989D01*
X8216248Y21495988D01*
X8210112Y21495430D01*
X8204206Y21493692D01*
X8204202Y21493691D01*
X8099076Y21462751D01*
X8020381Y21439590D01*
X8014923Y21436737D01*
X8014919Y21436735D01*
X7965965Y21411142D01*
X7845110Y21347960D01*
X7690975Y21224032D01*
X7687013Y21219310D01*
X7673753Y21203508D01*
X7614643Y21164182D01*
X7577232Y21158500D01*
X7558568Y21158500D01*
X7554168Y21157944D01*
X7542336Y21157012D01*
X7496169Y21155562D01*
X7475579Y21149580D01*
X7456218Y21145570D01*
X7449230Y21144688D01*
X7442796Y21143875D01*
X7442795Y21143875D01*
X7434936Y21142882D01*
X7427571Y21139966D01*
X7427567Y21139965D01*
X7391982Y21125876D01*
X7380752Y21122031D01*
X7336399Y21109145D01*
X7329575Y21105109D01*
X7317943Y21098230D01*
X7300187Y21089531D01*
X7280244Y21081635D01*
X7258135Y21065572D01*
X7242868Y21054480D01*
X7232949Y21047965D01*
X7200023Y21028492D01*
X7200019Y21028489D01*
X7193193Y21024452D01*
X7178032Y21009291D01*
X7163000Y20996452D01*
X7145643Y20983841D01*
X7116193Y20948242D01*
X7108203Y20939462D01*
X5542457Y19373717D01*
X5480145Y19339691D01*
X5444370Y19337731D01*
X5444370Y19337668D01*
X5443351Y19337675D01*
X5440192Y19337502D01*
X5438205Y19337711D01*
X5438202Y19337711D01*
X5432075Y19338355D01*
X5349576Y19330847D01*
X5241251Y19320989D01*
X5241248Y19320988D01*
X5235112Y19320430D01*
X5229206Y19318692D01*
X5229202Y19318691D01*
X5192157Y19307788D01*
X5045381Y19264590D01*
X5039923Y19261737D01*
X5039919Y19261735D01*
X4970976Y19225692D01*
X4870110Y19172960D01*
X4715975Y19049032D01*
X4588846Y18897526D01*
X4585879Y18892128D01*
X4585875Y18892123D01*
X4507095Y18748820D01*
X4493567Y18724213D01*
X4433765Y18535694D01*
X4411719Y18339149D01*
X3958500Y18339149D01*
X3958500Y24975050D01*
X3978502Y25043171D01*
X3995405Y25064145D01*
X6161630Y27230370D01*
X6223942Y27264396D01*
X6265644Y27266389D01*
X6303777Y27261842D01*
X6309912Y27262314D01*
X6309914Y27262314D01*
X6494830Y27276543D01*
X6494834Y27276544D01*
X6500972Y27277016D01*
X6691463Y27330202D01*
X6696967Y27332982D01*
X6696969Y27332983D01*
X6862495Y27416596D01*
X6862497Y27416597D01*
X6867996Y27419375D01*
X7023847Y27541139D01*
X7153078Y27690855D01*
X7250769Y27862821D01*
X7313197Y28050487D01*
X7337985Y28246705D01*
X7338380Y28275000D01*
X7319080Y28471833D01*
X7261916Y28661169D01*
X7169066Y28835796D01*
X7098709Y28922062D01*
X7047960Y28984287D01*
X7047957Y28984290D01*
X7044065Y28989062D01*
X7037724Y28994308D01*
X6896425Y29111201D01*
X6896421Y29111203D01*
X6891675Y29115130D01*
X6717701Y29209198D01*
X6528768Y29267682D01*
X6522643Y29268326D01*
X6522642Y29268326D01*
X6338204Y29287711D01*
X6338202Y29287711D01*
X6332075Y29288355D01*
X6249576Y29280847D01*
X6141251Y29270989D01*
X6141248Y29270988D01*
X6135112Y29270430D01*
X6129206Y29268692D01*
X6129202Y29268691D01*
X6024076Y29237751D01*
X5945381Y29214590D01*
X5939923Y29211737D01*
X5939919Y29211735D01*
X5849147Y29164280D01*
X5770110Y29122960D01*
X5615975Y28999032D01*
X5488846Y28847526D01*
X5485879Y28842128D01*
X5485875Y28842123D01*
X5482397Y28835796D01*
X5393567Y28674213D01*
X5391706Y28668346D01*
X5391705Y28668344D01*
X5335627Y28491564D01*
X5333765Y28485694D01*
X5311719Y28289149D01*
X5310889Y28289242D01*
X5291443Y28226265D01*
X5275497Y28206757D01*
X3031424Y25962684D01*
X2969112Y25928658D01*
X2898297Y25933723D01*
X2841461Y25976270D01*
X2820125Y26021083D01*
X2805939Y26077559D01*
X2790431Y26139298D01*
X2701354Y26344160D01*
X2651742Y26420848D01*
X2582822Y26527383D01*
X2582820Y26527386D01*
X2580014Y26531723D01*
X2429670Y26696949D01*
X2425619Y26700148D01*
X2425615Y26700152D01*
X2258414Y26832200D01*
X2258410Y26832202D01*
X2254359Y26835402D01*
X2213053Y26858204D01*
X2163084Y26908636D01*
X2148312Y26978079D01*
X2173428Y27044484D01*
X2200780Y27071091D01*
X2258128Y27111997D01*
X2379860Y27198827D01*
X2411514Y27230370D01*
X2512070Y27330576D01*
X2538096Y27356511D01*
X2668453Y27537923D01*
X2767430Y27738189D01*
X2832370Y27951931D01*
X2861529Y28173410D01*
X2862344Y28206757D01*
X2863074Y28236635D01*
X2863074Y28236639D01*
X2863156Y28240000D01*
X2844852Y28462639D01*
X2790431Y28679298D01*
X2701354Y28884160D01*
X2627040Y28999032D01*
X2582822Y29067383D01*
X2582820Y29067386D01*
X2580014Y29071723D01*
X2429670Y29236949D01*
X2425619Y29240148D01*
X2425615Y29240152D01*
X2258414Y29372200D01*
X2258410Y29372202D01*
X2254359Y29375402D01*
X2213053Y29398204D01*
X2163084Y29448636D01*
X2148312Y29518079D01*
X2173428Y29584484D01*
X2200780Y29611091D01*
X2258128Y29651997D01*
X2379860Y29738827D01*
X2538096Y29896511D01*
X2550775Y29914155D01*
X2665435Y30073723D01*
X2668453Y30077923D01*
X2767430Y30278189D01*
X2832370Y30491931D01*
X2861529Y30713410D01*
X2863156Y30780000D01*
X2844852Y31002639D01*
X2790431Y31219298D01*
X2701354Y31424160D01*
X2580014Y31611723D01*
X2429670Y31776949D01*
X2425619Y31780148D01*
X2425615Y31780152D01*
X2258414Y31912200D01*
X2258410Y31912202D01*
X2254359Y31915402D01*
X2213053Y31938204D01*
X2163084Y31988636D01*
X2148312Y32058079D01*
X2173428Y32124484D01*
X2200780Y32151091D01*
X2258128Y32191997D01*
X2379860Y32278827D01*
X2538096Y32436511D01*
X2668453Y32617923D01*
X2767430Y32818189D01*
X2832370Y33031931D01*
X2861529Y33253410D01*
X2863156Y33320000D01*
X2844852Y33542639D01*
X2790431Y33759298D01*
X2701354Y33964160D01*
X2580014Y34151723D01*
X2429670Y34316949D01*
X2425619Y34320148D01*
X2425615Y34320152D01*
X2258414Y34452200D01*
X2258410Y34452202D01*
X2254359Y34455402D01*
X2213053Y34478204D01*
X2163084Y34528636D01*
X2148312Y34598079D01*
X2173428Y34664484D01*
X2200780Y34691091D01*
X2258128Y34731997D01*
X2379860Y34818827D01*
X2538096Y34976511D01*
X2668453Y35157923D01*
X2767430Y35358189D01*
X2832370Y35571931D01*
X2861529Y35793410D01*
X2863156Y35860000D01*
X2844852Y36082639D01*
X2790431Y36299298D01*
X2701354Y36504160D01*
X2580014Y36691723D01*
X2576532Y36695550D01*
X2432798Y36853512D01*
X2401746Y36917358D01*
X2410141Y36987857D01*
X2455317Y37042625D01*
X2481761Y37056294D01*
X2588297Y37096233D01*
X2596705Y37099385D01*
X2713261Y37186739D01*
X2800615Y37303295D01*
X2851745Y37439684D01*
X2858500Y37501866D01*
X2858500Y39298134D01*
X2851745Y39360316D01*
X2800615Y39496705D01*
X2713261Y39613261D01*
X2596705Y39700615D01*
X2460316Y39751745D01*
X2398134Y39758500D01*
X634000Y39758500D01*
X565879Y39778502D01*
X519386Y39832158D01*
X508000Y39884500D01*
X508000Y41166000D01*
X528002Y41234121D01*
X581658Y41280614D01*
X634000Y41292000D01*
X24866000Y41292000D01*
X24934121Y41271998D01*
G37*
%TD.AperFunction*%
%TD*%
M02*
