%TF.GenerationSoftware,KiCad,Pcbnew,(6.0.2)*%
%TF.CreationDate,2022-05-10T09:18:46+02:00*%
%TF.ProjectId,STM8_Breakout-board,53544d38-5f42-4726-9561-6b6f75742d62,rev?*%
%TF.SameCoordinates,PX7e5ca20PY62fdcc0*%
%TF.FileFunction,Legend,Top*%
%TF.FilePolarity,Positive*%
%FSLAX46Y46*%
G04 Gerber Fmt 4.6, Leading zero omitted, Abs format (unit mm)*
G04 Created by KiCad (PCBNEW (6.0.2)) date 2022-05-10 09:18:46*
%MOMM*%
%LPD*%
G01*
G04 APERTURE LIST*
%ADD10C,0.125000*%
%ADD11C,0.150000*%
%ADD12C,0.120000*%
%ADD13C,0.200000*%
%ADD14C,0.223606*%
G04 APERTURE END LIST*
D10*
X22426190Y22530953D02*
X21926190Y22530953D01*
X21926190Y22721429D01*
X21950000Y22769048D01*
X21973809Y22792858D01*
X22021428Y22816667D01*
X22092857Y22816667D01*
X22140476Y22792858D01*
X22164285Y22769048D01*
X22188095Y22721429D01*
X22188095Y22530953D01*
X22164285Y23197620D02*
X22188095Y23269048D01*
X22211904Y23292858D01*
X22259523Y23316667D01*
X22330952Y23316667D01*
X22378571Y23292858D01*
X22402380Y23269048D01*
X22426190Y23221429D01*
X22426190Y23030953D01*
X21926190Y23030953D01*
X21926190Y23197620D01*
X21950000Y23245239D01*
X21973809Y23269048D01*
X22021428Y23292858D01*
X22069047Y23292858D01*
X22116666Y23269048D01*
X22140476Y23245239D01*
X22164285Y23197620D01*
X22164285Y23030953D01*
X21926190Y23626191D02*
X21926190Y23673810D01*
X21950000Y23721429D01*
X21973809Y23745239D01*
X22021428Y23769048D01*
X22116666Y23792858D01*
X22235714Y23792858D01*
X22330952Y23769048D01*
X22378571Y23745239D01*
X22402380Y23721429D01*
X22426190Y23673810D01*
X22426190Y23626191D01*
X22402380Y23578572D01*
X22378571Y23554762D01*
X22330952Y23530953D01*
X22235714Y23507143D01*
X22116666Y23507143D01*
X22021428Y23530953D01*
X21973809Y23554762D01*
X21950000Y23578572D01*
X21926190Y23626191D01*
X3626190Y32680953D02*
X3126190Y32680953D01*
X3126190Y32871429D01*
X3150000Y32919048D01*
X3173809Y32942858D01*
X3221428Y32966667D01*
X3292857Y32966667D01*
X3340476Y32942858D01*
X3364285Y32919048D01*
X3388095Y32871429D01*
X3388095Y32680953D01*
X3578571Y33466667D02*
X3602380Y33442858D01*
X3626190Y33371429D01*
X3626190Y33323810D01*
X3602380Y33252381D01*
X3554761Y33204762D01*
X3507142Y33180953D01*
X3411904Y33157143D01*
X3340476Y33157143D01*
X3245238Y33180953D01*
X3197619Y33204762D01*
X3150000Y33252381D01*
X3126190Y33323810D01*
X3126190Y33371429D01*
X3150000Y33442858D01*
X3173809Y33466667D01*
X3126190Y33633334D02*
X3126190Y33966667D01*
X3626190Y33752381D01*
X22426190Y7330953D02*
X21926190Y7330953D01*
X21926190Y7521429D01*
X21950000Y7569048D01*
X21973809Y7592858D01*
X22021428Y7616667D01*
X22092857Y7616667D01*
X22140476Y7592858D01*
X22164285Y7569048D01*
X22188095Y7521429D01*
X22188095Y7330953D01*
X22164285Y7997620D02*
X22188095Y8069048D01*
X22211904Y8092858D01*
X22259523Y8116667D01*
X22330952Y8116667D01*
X22378571Y8092858D01*
X22402380Y8069048D01*
X22426190Y8021429D01*
X22426190Y7830953D01*
X21926190Y7830953D01*
X21926190Y7997620D01*
X21950000Y8045239D01*
X21973809Y8069048D01*
X22021428Y8092858D01*
X22069047Y8092858D01*
X22116666Y8069048D01*
X22140476Y8045239D01*
X22164285Y7997620D01*
X22164285Y7830953D01*
X21926190Y8545239D02*
X21926190Y8450000D01*
X21950000Y8402381D01*
X21973809Y8378572D01*
X22045238Y8330953D01*
X22140476Y8307143D01*
X22330952Y8307143D01*
X22378571Y8330953D01*
X22402380Y8354762D01*
X22426190Y8402381D01*
X22426190Y8497620D01*
X22402380Y8545239D01*
X22378571Y8569048D01*
X22330952Y8592858D01*
X22211904Y8592858D01*
X22164285Y8569048D01*
X22140476Y8545239D01*
X22116666Y8497620D01*
X22116666Y8402381D01*
X22140476Y8354762D01*
X22164285Y8330953D01*
X22211904Y8307143D01*
X22376190Y30130953D02*
X21876190Y30130953D01*
X21876190Y30321429D01*
X21900000Y30369048D01*
X21923809Y30392858D01*
X21971428Y30416667D01*
X22042857Y30416667D01*
X22090476Y30392858D01*
X22114285Y30369048D01*
X22138095Y30321429D01*
X22138095Y30130953D01*
X22328571Y30916667D02*
X22352380Y30892858D01*
X22376190Y30821429D01*
X22376190Y30773810D01*
X22352380Y30702381D01*
X22304761Y30654762D01*
X22257142Y30630953D01*
X22161904Y30607143D01*
X22090476Y30607143D01*
X21995238Y30630953D01*
X21947619Y30654762D01*
X21900000Y30702381D01*
X21876190Y30773810D01*
X21876190Y30821429D01*
X21900000Y30892858D01*
X21923809Y30916667D01*
X21876190Y31083334D02*
X21876190Y31392858D01*
X22066666Y31226191D01*
X22066666Y31297620D01*
X22090476Y31345239D01*
X22114285Y31369048D01*
X22161904Y31392858D01*
X22280952Y31392858D01*
X22328571Y31369048D01*
X22352380Y31345239D01*
X22376190Y31297620D01*
X22376190Y31154762D01*
X22352380Y31107143D01*
X22328571Y31083334D01*
X3476190Y22580953D02*
X2976190Y22580953D01*
X2976190Y22771429D01*
X3000000Y22819048D01*
X3023809Y22842858D01*
X3071428Y22866667D01*
X3142857Y22866667D01*
X3190476Y22842858D01*
X3214285Y22819048D01*
X3238095Y22771429D01*
X3238095Y22580953D01*
X3476190Y23080953D02*
X2976190Y23080953D01*
X2976190Y23200000D01*
X3000000Y23271429D01*
X3047619Y23319048D01*
X3095238Y23342858D01*
X3190476Y23366667D01*
X3261904Y23366667D01*
X3357142Y23342858D01*
X3404761Y23319048D01*
X3452380Y23271429D01*
X3476190Y23200000D01*
X3476190Y23080953D01*
X3142857Y23795239D02*
X3476190Y23795239D01*
X2952380Y23676191D02*
X3309523Y23557143D01*
X3309523Y23866667D01*
X22376190Y32530953D02*
X21876190Y32530953D01*
X21876190Y32721429D01*
X21900000Y32769048D01*
X21923809Y32792858D01*
X21971428Y32816667D01*
X22042857Y32816667D01*
X22090476Y32792858D01*
X22114285Y32769048D01*
X22138095Y32721429D01*
X22138095Y32530953D01*
X22328571Y33316667D02*
X22352380Y33292858D01*
X22376190Y33221429D01*
X22376190Y33173810D01*
X22352380Y33102381D01*
X22304761Y33054762D01*
X22257142Y33030953D01*
X22161904Y33007143D01*
X22090476Y33007143D01*
X21995238Y33030953D01*
X21947619Y33054762D01*
X21900000Y33102381D01*
X21876190Y33173810D01*
X21876190Y33221429D01*
X21900000Y33292858D01*
X21923809Y33316667D01*
X22042857Y33745239D02*
X22376190Y33745239D01*
X21852380Y33626191D02*
X22209523Y33507143D01*
X22209523Y33816667D01*
X22426190Y17480953D02*
X21926190Y17480953D01*
X21926190Y17671429D01*
X21950000Y17719048D01*
X21973809Y17742858D01*
X22021428Y17766667D01*
X22092857Y17766667D01*
X22140476Y17742858D01*
X22164285Y17719048D01*
X22188095Y17671429D01*
X22188095Y17480953D01*
X22164285Y18147620D02*
X22188095Y18219048D01*
X22211904Y18242858D01*
X22259523Y18266667D01*
X22330952Y18266667D01*
X22378571Y18242858D01*
X22402380Y18219048D01*
X22426190Y18171429D01*
X22426190Y17980953D01*
X21926190Y17980953D01*
X21926190Y18147620D01*
X21950000Y18195239D01*
X21973809Y18219048D01*
X22021428Y18242858D01*
X22069047Y18242858D01*
X22116666Y18219048D01*
X22140476Y18195239D01*
X22164285Y18147620D01*
X22164285Y17980953D01*
X21973809Y18457143D02*
X21950000Y18480953D01*
X21926190Y18528572D01*
X21926190Y18647620D01*
X21950000Y18695239D01*
X21973809Y18719048D01*
X22021428Y18742858D01*
X22069047Y18742858D01*
X22140476Y18719048D01*
X22426190Y18433334D01*
X22426190Y18742858D01*
X3476190Y27680953D02*
X2976190Y27680953D01*
X2976190Y27871429D01*
X3000000Y27919048D01*
X3023809Y27942858D01*
X3071428Y27966667D01*
X3142857Y27966667D01*
X3190476Y27942858D01*
X3214285Y27919048D01*
X3238095Y27871429D01*
X3238095Y27680953D01*
X3476190Y28180953D02*
X2976190Y28180953D01*
X2976190Y28300000D01*
X3000000Y28371429D01*
X3047619Y28419048D01*
X3095238Y28442858D01*
X3190476Y28466667D01*
X3261904Y28466667D01*
X3357142Y28442858D01*
X3404761Y28419048D01*
X3452380Y28371429D01*
X3476190Y28300000D01*
X3476190Y28180953D01*
X3023809Y28657143D02*
X3000000Y28680953D01*
X2976190Y28728572D01*
X2976190Y28847620D01*
X3000000Y28895239D01*
X3023809Y28919048D01*
X3071428Y28942858D01*
X3119047Y28942858D01*
X3190476Y28919048D01*
X3476190Y28633334D01*
X3476190Y28942858D01*
X3326190Y4866667D02*
X2826190Y4866667D01*
X2826190Y5057143D01*
X2850000Y5104762D01*
X2873809Y5128572D01*
X2921428Y5152381D01*
X2992857Y5152381D01*
X3040476Y5128572D01*
X3064285Y5104762D01*
X3088095Y5057143D01*
X3088095Y4866667D01*
X3064285Y5533334D02*
X3064285Y5366667D01*
X3326190Y5366667D02*
X2826190Y5366667D01*
X2826190Y5604762D01*
X2992857Y6009524D02*
X3326190Y6009524D01*
X2802380Y5890477D02*
X3159523Y5771429D01*
X3159523Y6080953D01*
X23619047Y1050000D02*
X23571428Y1073810D01*
X23500000Y1073810D01*
X23428571Y1050000D01*
X23380952Y1002381D01*
X23357142Y954762D01*
X23333333Y859524D01*
X23333333Y788096D01*
X23357142Y692858D01*
X23380952Y645239D01*
X23428571Y597620D01*
X23500000Y573810D01*
X23547619Y573810D01*
X23619047Y597620D01*
X23642857Y621429D01*
X23642857Y788096D01*
X23547619Y788096D01*
X23857142Y573810D02*
X23857142Y1073810D01*
X24142857Y573810D01*
X24142857Y1073810D01*
X24380952Y573810D02*
X24380952Y1073810D01*
X24500000Y1073810D01*
X24571428Y1050000D01*
X24619047Y1002381D01*
X24642857Y954762D01*
X24666666Y859524D01*
X24666666Y788096D01*
X24642857Y692858D01*
X24619047Y645239D01*
X24571428Y597620D01*
X24500000Y573810D01*
X24380952Y573810D01*
X23100000Y40164286D02*
X23480952Y40164286D01*
X23290476Y39973810D02*
X23290476Y40354762D01*
X23671428Y40473810D02*
X23980952Y40473810D01*
X23814285Y40283334D01*
X23885714Y40283334D01*
X23933333Y40259524D01*
X23957142Y40235715D01*
X23980952Y40188096D01*
X23980952Y40069048D01*
X23957142Y40021429D01*
X23933333Y39997620D01*
X23885714Y39973810D01*
X23742857Y39973810D01*
X23695238Y39997620D01*
X23671428Y40021429D01*
X24195238Y40021429D02*
X24219047Y39997620D01*
X24195238Y39973810D01*
X24171428Y39997620D01*
X24195238Y40021429D01*
X24195238Y39973810D01*
X24385714Y40473810D02*
X24695238Y40473810D01*
X24528571Y40283334D01*
X24600000Y40283334D01*
X24647619Y40259524D01*
X24671428Y40235715D01*
X24695238Y40188096D01*
X24695238Y40069048D01*
X24671428Y40021429D01*
X24647619Y39997620D01*
X24600000Y39973810D01*
X24457142Y39973810D01*
X24409523Y39997620D01*
X24385714Y40021429D01*
X24838095Y40473810D02*
X25004761Y39973810D01*
X25171428Y40473810D01*
X22476190Y35130953D02*
X21976190Y35130953D01*
X21976190Y35321429D01*
X22000000Y35369048D01*
X22023809Y35392858D01*
X22071428Y35416667D01*
X22142857Y35416667D01*
X22190476Y35392858D01*
X22214285Y35369048D01*
X22238095Y35321429D01*
X22238095Y35130953D01*
X22428571Y35916667D02*
X22452380Y35892858D01*
X22476190Y35821429D01*
X22476190Y35773810D01*
X22452380Y35702381D01*
X22404761Y35654762D01*
X22357142Y35630953D01*
X22261904Y35607143D01*
X22190476Y35607143D01*
X22095238Y35630953D01*
X22047619Y35654762D01*
X22000000Y35702381D01*
X21976190Y35773810D01*
X21976190Y35821429D01*
X22000000Y35892858D01*
X22023809Y35916667D01*
X21976190Y36369048D02*
X21976190Y36130953D01*
X22214285Y36107143D01*
X22190476Y36130953D01*
X22166666Y36178572D01*
X22166666Y36297620D01*
X22190476Y36345239D01*
X22214285Y36369048D01*
X22261904Y36392858D01*
X22380952Y36392858D01*
X22428571Y36369048D01*
X22452380Y36345239D01*
X22476190Y36297620D01*
X22476190Y36178572D01*
X22452380Y36130953D01*
X22428571Y36107143D01*
X2621428Y12973810D02*
X2954761Y12473810D01*
X2954761Y12973810D02*
X2621428Y12473810D01*
X3073809Y12973810D02*
X3359523Y12973810D01*
X3216666Y12473810D02*
X3216666Y12973810D01*
X3502380Y12616667D02*
X3740476Y12616667D01*
X3454761Y12473810D02*
X3621428Y12973810D01*
X3788095Y12473810D01*
X4192857Y12473810D02*
X3954761Y12473810D01*
X3954761Y12973810D01*
X4716666Y12616667D02*
X4954761Y12616667D01*
X4669047Y12473810D02*
X4835714Y12973810D01*
X5002380Y12473810D01*
X22426190Y27580953D02*
X21926190Y27580953D01*
X21926190Y27771429D01*
X21950000Y27819048D01*
X21973809Y27842858D01*
X22021428Y27866667D01*
X22092857Y27866667D01*
X22140476Y27842858D01*
X22164285Y27819048D01*
X22188095Y27771429D01*
X22188095Y27580953D01*
X22378571Y28366667D02*
X22402380Y28342858D01*
X22426190Y28271429D01*
X22426190Y28223810D01*
X22402380Y28152381D01*
X22354761Y28104762D01*
X22307142Y28080953D01*
X22211904Y28057143D01*
X22140476Y28057143D01*
X22045238Y28080953D01*
X21997619Y28104762D01*
X21950000Y28152381D01*
X21926190Y28223810D01*
X21926190Y28271429D01*
X21950000Y28342858D01*
X21973809Y28366667D01*
X21973809Y28557143D02*
X21950000Y28580953D01*
X21926190Y28628572D01*
X21926190Y28747620D01*
X21950000Y28795239D01*
X21973809Y28819048D01*
X22021428Y28842858D01*
X22069047Y28842858D01*
X22140476Y28819048D01*
X22426190Y28533334D01*
X22426190Y28842858D01*
X3476190Y30180953D02*
X2976190Y30180953D01*
X2976190Y30371429D01*
X3000000Y30419048D01*
X3023809Y30442858D01*
X3071428Y30466667D01*
X3142857Y30466667D01*
X3190476Y30442858D01*
X3214285Y30419048D01*
X3238095Y30371429D01*
X3238095Y30180953D01*
X3476190Y30680953D02*
X2976190Y30680953D01*
X2976190Y30800000D01*
X3000000Y30871429D01*
X3047619Y30919048D01*
X3095238Y30942858D01*
X3190476Y30966667D01*
X3261904Y30966667D01*
X3357142Y30942858D01*
X3404761Y30919048D01*
X3452380Y30871429D01*
X3476190Y30800000D01*
X3476190Y30680953D01*
X2976190Y31276191D02*
X2976190Y31323810D01*
X3000000Y31371429D01*
X3023809Y31395239D01*
X3071428Y31419048D01*
X3166666Y31442858D01*
X3285714Y31442858D01*
X3380952Y31419048D01*
X3428571Y31395239D01*
X3452380Y31371429D01*
X3476190Y31323810D01*
X3476190Y31276191D01*
X3452380Y31228572D01*
X3428571Y31204762D01*
X3380952Y31180953D01*
X3285714Y31157143D01*
X3166666Y31157143D01*
X3071428Y31180953D01*
X3023809Y31204762D01*
X3000000Y31228572D01*
X2976190Y31276191D01*
X3376190Y7354762D02*
X2876190Y7354762D01*
X2876190Y7545239D01*
X2900000Y7592858D01*
X2923809Y7616667D01*
X2971428Y7640477D01*
X3042857Y7640477D01*
X3090476Y7616667D01*
X3114285Y7592858D01*
X3138095Y7545239D01*
X3138095Y7354762D01*
X3114285Y7854762D02*
X3114285Y8021429D01*
X3376190Y8092858D02*
X3376190Y7854762D01*
X2876190Y7854762D01*
X2876190Y8092858D01*
X2876190Y8545239D02*
X2876190Y8307143D01*
X3114285Y8283334D01*
X3090476Y8307143D01*
X3066666Y8354762D01*
X3066666Y8473810D01*
X3090476Y8521429D01*
X3114285Y8545239D01*
X3161904Y8569048D01*
X3280952Y8569048D01*
X3328571Y8545239D01*
X3352380Y8521429D01*
X3376190Y8473810D01*
X3376190Y8354762D01*
X3352380Y8307143D01*
X3328571Y8283334D01*
X3626190Y35180953D02*
X3126190Y35180953D01*
X3126190Y35371429D01*
X3150000Y35419048D01*
X3173809Y35442858D01*
X3221428Y35466667D01*
X3292857Y35466667D01*
X3340476Y35442858D01*
X3364285Y35419048D01*
X3388095Y35371429D01*
X3388095Y35180953D01*
X3578571Y35966667D02*
X3602380Y35942858D01*
X3626190Y35871429D01*
X3626190Y35823810D01*
X3602380Y35752381D01*
X3554761Y35704762D01*
X3507142Y35680953D01*
X3411904Y35657143D01*
X3340476Y35657143D01*
X3245238Y35680953D01*
X3197619Y35704762D01*
X3150000Y35752381D01*
X3126190Y35823810D01*
X3126190Y35871429D01*
X3150000Y35942858D01*
X3173809Y35966667D01*
X3126190Y36395239D02*
X3126190Y36300000D01*
X3150000Y36252381D01*
X3173809Y36228572D01*
X3245238Y36180953D01*
X3340476Y36157143D01*
X3530952Y36157143D01*
X3578571Y36180953D01*
X3602380Y36204762D01*
X3626190Y36252381D01*
X3626190Y36347620D01*
X3602380Y36395239D01*
X3578571Y36419048D01*
X3530952Y36442858D01*
X3411904Y36442858D01*
X3364285Y36419048D01*
X3340476Y36395239D01*
X3316666Y36347620D01*
X3316666Y36252381D01*
X3340476Y36204762D01*
X3364285Y36180953D01*
X3411904Y36157143D01*
X2585714Y11573810D02*
X2919047Y11073810D01*
X2919047Y11573810D02*
X2585714Y11073810D01*
X3038095Y11573810D02*
X3323809Y11573810D01*
X3180952Y11073810D02*
X3180952Y11573810D01*
X3466666Y11216667D02*
X3704761Y11216667D01*
X3419047Y11073810D02*
X3585714Y11573810D01*
X3752380Y11073810D01*
X4157142Y11073810D02*
X3919047Y11073810D01*
X3919047Y11573810D01*
X4871428Y11335715D02*
X4942857Y11311905D01*
X4966666Y11288096D01*
X4990476Y11240477D01*
X4990476Y11169048D01*
X4966666Y11121429D01*
X4942857Y11097620D01*
X4895238Y11073810D01*
X4704761Y11073810D01*
X4704761Y11573810D01*
X4871428Y11573810D01*
X4919047Y11550000D01*
X4942857Y11526191D01*
X4966666Y11478572D01*
X4966666Y11430953D01*
X4942857Y11383334D01*
X4919047Y11359524D01*
X4871428Y11335715D01*
X4704761Y11335715D01*
X22426190Y9880953D02*
X21926190Y9880953D01*
X21926190Y10071429D01*
X21950000Y10119048D01*
X21973809Y10142858D01*
X22021428Y10166667D01*
X22092857Y10166667D01*
X22140476Y10142858D01*
X22164285Y10119048D01*
X22188095Y10071429D01*
X22188095Y9880953D01*
X22164285Y10547620D02*
X22188095Y10619048D01*
X22211904Y10642858D01*
X22259523Y10666667D01*
X22330952Y10666667D01*
X22378571Y10642858D01*
X22402380Y10619048D01*
X22426190Y10571429D01*
X22426190Y10380953D01*
X21926190Y10380953D01*
X21926190Y10547620D01*
X21950000Y10595239D01*
X21973809Y10619048D01*
X22021428Y10642858D01*
X22069047Y10642858D01*
X22116666Y10619048D01*
X22140476Y10595239D01*
X22164285Y10547620D01*
X22164285Y10380953D01*
X21926190Y11119048D02*
X21926190Y10880953D01*
X22164285Y10857143D01*
X22140476Y10880953D01*
X22116666Y10928572D01*
X22116666Y11047620D01*
X22140476Y11095239D01*
X22164285Y11119048D01*
X22211904Y11142858D01*
X22330952Y11142858D01*
X22378571Y11119048D01*
X22402380Y11095239D01*
X22426190Y11047620D01*
X22426190Y10928572D01*
X22402380Y10880953D01*
X22378571Y10857143D01*
X3476190Y25080953D02*
X2976190Y25080953D01*
X2976190Y25271429D01*
X3000000Y25319048D01*
X3023809Y25342858D01*
X3071428Y25366667D01*
X3142857Y25366667D01*
X3190476Y25342858D01*
X3214285Y25319048D01*
X3238095Y25271429D01*
X3238095Y25080953D01*
X3476190Y25580953D02*
X2976190Y25580953D01*
X2976190Y25700000D01*
X3000000Y25771429D01*
X3047619Y25819048D01*
X3095238Y25842858D01*
X3190476Y25866667D01*
X3261904Y25866667D01*
X3357142Y25842858D01*
X3404761Y25819048D01*
X3452380Y25771429D01*
X3476190Y25700000D01*
X3476190Y25580953D01*
X2976190Y26033334D02*
X2976190Y26342858D01*
X3166666Y26176191D01*
X3166666Y26247620D01*
X3190476Y26295239D01*
X3214285Y26319048D01*
X3261904Y26342858D01*
X3380952Y26342858D01*
X3428571Y26319048D01*
X3452380Y26295239D01*
X3476190Y26247620D01*
X3476190Y26104762D01*
X3452380Y26057143D01*
X3428571Y26033334D01*
X3476190Y20080953D02*
X2976190Y20080953D01*
X2976190Y20271429D01*
X3000000Y20319048D01*
X3023809Y20342858D01*
X3071428Y20366667D01*
X3142857Y20366667D01*
X3190476Y20342858D01*
X3214285Y20319048D01*
X3238095Y20271429D01*
X3238095Y20080953D01*
X3476190Y20580953D02*
X2976190Y20580953D01*
X2976190Y20700000D01*
X3000000Y20771429D01*
X3047619Y20819048D01*
X3095238Y20842858D01*
X3190476Y20866667D01*
X3261904Y20866667D01*
X3357142Y20842858D01*
X3404761Y20819048D01*
X3452380Y20771429D01*
X3476190Y20700000D01*
X3476190Y20580953D01*
X2976190Y21319048D02*
X2976190Y21080953D01*
X3214285Y21057143D01*
X3190476Y21080953D01*
X3166666Y21128572D01*
X3166666Y21247620D01*
X3190476Y21295239D01*
X3214285Y21319048D01*
X3261904Y21342858D01*
X3380952Y21342858D01*
X3428571Y21319048D01*
X3452380Y21295239D01*
X3476190Y21247620D01*
X3476190Y21128572D01*
X3452380Y21080953D01*
X3428571Y21057143D01*
X1119047Y1050000D02*
X1071428Y1073810D01*
X1000000Y1073810D01*
X928571Y1050000D01*
X880952Y1002381D01*
X857142Y954762D01*
X833333Y859524D01*
X833333Y788096D01*
X857142Y692858D01*
X880952Y645239D01*
X928571Y597620D01*
X1000000Y573810D01*
X1047619Y573810D01*
X1119047Y597620D01*
X1142857Y621429D01*
X1142857Y788096D01*
X1047619Y788096D01*
X1357142Y573810D02*
X1357142Y1073810D01*
X1642857Y573810D01*
X1642857Y1073810D01*
X1880952Y573810D02*
X1880952Y1073810D01*
X2000000Y1073810D01*
X2071428Y1050000D01*
X2119047Y1002381D01*
X2142857Y954762D01*
X2166666Y859524D01*
X2166666Y788096D01*
X2142857Y692858D01*
X2119047Y645239D01*
X2071428Y597620D01*
X2000000Y573810D01*
X1880952Y573810D01*
X3476190Y14930953D02*
X2976190Y14930953D01*
X2976190Y15121429D01*
X3000000Y15169048D01*
X3023809Y15192858D01*
X3071428Y15216667D01*
X3142857Y15216667D01*
X3190476Y15192858D01*
X3214285Y15169048D01*
X3238095Y15121429D01*
X3238095Y14930953D01*
X3476190Y15430953D02*
X2976190Y15430953D01*
X2976190Y15550000D01*
X3000000Y15621429D01*
X3047619Y15669048D01*
X3095238Y15692858D01*
X3190476Y15716667D01*
X3261904Y15716667D01*
X3357142Y15692858D01*
X3404761Y15669048D01*
X3452380Y15621429D01*
X3476190Y15550000D01*
X3476190Y15430953D01*
X2976190Y15883334D02*
X2976190Y16216667D01*
X3476190Y16002381D01*
X22426190Y14880953D02*
X21926190Y14880953D01*
X21926190Y15071429D01*
X21950000Y15119048D01*
X21973809Y15142858D01*
X22021428Y15166667D01*
X22092857Y15166667D01*
X22140476Y15142858D01*
X22164285Y15119048D01*
X22188095Y15071429D01*
X22188095Y14880953D01*
X22164285Y15547620D02*
X22188095Y15619048D01*
X22211904Y15642858D01*
X22259523Y15666667D01*
X22330952Y15666667D01*
X22378571Y15642858D01*
X22402380Y15619048D01*
X22426190Y15571429D01*
X22426190Y15380953D01*
X21926190Y15380953D01*
X21926190Y15547620D01*
X21950000Y15595239D01*
X21973809Y15619048D01*
X22021428Y15642858D01*
X22069047Y15642858D01*
X22116666Y15619048D01*
X22140476Y15595239D01*
X22164285Y15547620D01*
X22164285Y15380953D01*
X21926190Y15833334D02*
X21926190Y16142858D01*
X22116666Y15976191D01*
X22116666Y16047620D01*
X22140476Y16095239D01*
X22164285Y16119048D01*
X22211904Y16142858D01*
X22330952Y16142858D01*
X22378571Y16119048D01*
X22402380Y16095239D01*
X22426190Y16047620D01*
X22426190Y15904762D01*
X22402380Y15857143D01*
X22378571Y15833334D01*
X22426190Y25080953D02*
X21926190Y25080953D01*
X21926190Y25271429D01*
X21950000Y25319048D01*
X21973809Y25342858D01*
X22021428Y25366667D01*
X22092857Y25366667D01*
X22140476Y25342858D01*
X22164285Y25319048D01*
X22188095Y25271429D01*
X22188095Y25080953D01*
X22378571Y25866667D02*
X22402380Y25842858D01*
X22426190Y25771429D01*
X22426190Y25723810D01*
X22402380Y25652381D01*
X22354761Y25604762D01*
X22307142Y25580953D01*
X22211904Y25557143D01*
X22140476Y25557143D01*
X22045238Y25580953D01*
X21997619Y25604762D01*
X21950000Y25652381D01*
X21926190Y25723810D01*
X21926190Y25771429D01*
X21950000Y25842858D01*
X21973809Y25866667D01*
X22426190Y26342858D02*
X22426190Y26057143D01*
X22426190Y26200000D02*
X21926190Y26200000D01*
X21997619Y26152381D01*
X22045238Y26104762D01*
X22069047Y26057143D01*
X22426190Y12430953D02*
X21926190Y12430953D01*
X21926190Y12621429D01*
X21950000Y12669048D01*
X21973809Y12692858D01*
X22021428Y12716667D01*
X22092857Y12716667D01*
X22140476Y12692858D01*
X22164285Y12669048D01*
X22188095Y12621429D01*
X22188095Y12430953D01*
X22164285Y13097620D02*
X22188095Y13169048D01*
X22211904Y13192858D01*
X22259523Y13216667D01*
X22330952Y13216667D01*
X22378571Y13192858D01*
X22402380Y13169048D01*
X22426190Y13121429D01*
X22426190Y12930953D01*
X21926190Y12930953D01*
X21926190Y13097620D01*
X21950000Y13145239D01*
X21973809Y13169048D01*
X22021428Y13192858D01*
X22069047Y13192858D01*
X22116666Y13169048D01*
X22140476Y13145239D01*
X22164285Y13097620D01*
X22164285Y12930953D01*
X22092857Y13645239D02*
X22426190Y13645239D01*
X21902380Y13526191D02*
X22259523Y13407143D01*
X22259523Y13716667D01*
X257142Y40664286D02*
X638095Y40664286D01*
X447619Y40473810D02*
X447619Y40854762D01*
X1114285Y40973810D02*
X876190Y40973810D01*
X852380Y40735715D01*
X876190Y40759524D01*
X923809Y40783334D01*
X1042857Y40783334D01*
X1090476Y40759524D01*
X1114285Y40735715D01*
X1138095Y40688096D01*
X1138095Y40569048D01*
X1114285Y40521429D01*
X1090476Y40497620D01*
X1042857Y40473810D01*
X923809Y40473810D01*
X876190Y40497620D01*
X852380Y40521429D01*
X1280952Y40973810D02*
X1447619Y40473810D01*
X1614285Y40973810D01*
X22426190Y4780953D02*
X21926190Y4780953D01*
X21926190Y4971429D01*
X21950000Y5019048D01*
X21973809Y5042858D01*
X22021428Y5066667D01*
X22092857Y5066667D01*
X22140476Y5042858D01*
X22164285Y5019048D01*
X22188095Y4971429D01*
X22188095Y4780953D01*
X22164285Y5447620D02*
X22188095Y5519048D01*
X22211904Y5542858D01*
X22259523Y5566667D01*
X22330952Y5566667D01*
X22378571Y5542858D01*
X22402380Y5519048D01*
X22426190Y5471429D01*
X22426190Y5280953D01*
X21926190Y5280953D01*
X21926190Y5447620D01*
X21950000Y5495239D01*
X21973809Y5519048D01*
X22021428Y5542858D01*
X22069047Y5542858D01*
X22116666Y5519048D01*
X22140476Y5495239D01*
X22164285Y5447620D01*
X22164285Y5280953D01*
X21926190Y5733334D02*
X21926190Y6066667D01*
X22426190Y5852381D01*
X22426190Y19980953D02*
X21926190Y19980953D01*
X21926190Y20171429D01*
X21950000Y20219048D01*
X21973809Y20242858D01*
X22021428Y20266667D01*
X22092857Y20266667D01*
X22140476Y20242858D01*
X22164285Y20219048D01*
X22188095Y20171429D01*
X22188095Y19980953D01*
X22164285Y20647620D02*
X22188095Y20719048D01*
X22211904Y20742858D01*
X22259523Y20766667D01*
X22330952Y20766667D01*
X22378571Y20742858D01*
X22402380Y20719048D01*
X22426190Y20671429D01*
X22426190Y20480953D01*
X21926190Y20480953D01*
X21926190Y20647620D01*
X21950000Y20695239D01*
X21973809Y20719048D01*
X22021428Y20742858D01*
X22069047Y20742858D01*
X22116666Y20719048D01*
X22140476Y20695239D01*
X22164285Y20647620D01*
X22164285Y20480953D01*
X22426190Y21242858D02*
X22426190Y20957143D01*
X22426190Y21100000D02*
X21926190Y21100000D01*
X21997619Y21052381D01*
X22045238Y21004762D01*
X22069047Y20957143D01*
X3476190Y17480953D02*
X2976190Y17480953D01*
X2976190Y17671429D01*
X3000000Y17719048D01*
X3023809Y17742858D01*
X3071428Y17766667D01*
X3142857Y17766667D01*
X3190476Y17742858D01*
X3214285Y17719048D01*
X3238095Y17671429D01*
X3238095Y17480953D01*
X3476190Y17980953D02*
X2976190Y17980953D01*
X2976190Y18100000D01*
X3000000Y18171429D01*
X3047619Y18219048D01*
X3095238Y18242858D01*
X3190476Y18266667D01*
X3261904Y18266667D01*
X3357142Y18242858D01*
X3404761Y18219048D01*
X3452380Y18171429D01*
X3476190Y18100000D01*
X3476190Y17980953D01*
X2976190Y18695239D02*
X2976190Y18600000D01*
X3000000Y18552381D01*
X3023809Y18528572D01*
X3095238Y18480953D01*
X3190476Y18457143D01*
X3380952Y18457143D01*
X3428571Y18480953D01*
X3452380Y18504762D01*
X3476190Y18552381D01*
X3476190Y18647620D01*
X3452380Y18695239D01*
X3428571Y18719048D01*
X3380952Y18742858D01*
X3261904Y18742858D01*
X3214285Y18719048D01*
X3190476Y18695239D01*
X3166666Y18647620D01*
X3166666Y18552381D01*
X3190476Y18504762D01*
X3214285Y18480953D01*
X3261904Y18457143D01*
D11*
%TO.C,FID3*%
X19438571Y3561429D02*
X19105238Y3561429D01*
X19105238Y3037620D02*
X19105238Y4037620D01*
X19581428Y4037620D01*
X19962380Y3037620D02*
X19962380Y4037620D01*
X20438571Y3037620D02*
X20438571Y4037620D01*
X20676666Y4037620D01*
X20819523Y3990000D01*
X20914761Y3894762D01*
X20962380Y3799524D01*
X21010000Y3609048D01*
X21010000Y3466191D01*
X20962380Y3275715D01*
X20914761Y3180477D01*
X20819523Y3085239D01*
X20676666Y3037620D01*
X20438571Y3037620D01*
X21343333Y4037620D02*
X21962380Y4037620D01*
X21629047Y3656667D01*
X21771904Y3656667D01*
X21867142Y3609048D01*
X21914761Y3561429D01*
X21962380Y3466191D01*
X21962380Y3228096D01*
X21914761Y3132858D01*
X21867142Y3085239D01*
X21771904Y3037620D01*
X21486190Y3037620D01*
X21390952Y3085239D01*
X21343333Y3132858D01*
%TO.C,FID2*%
X3668571Y37071429D02*
X3335238Y37071429D01*
X3335238Y36547620D02*
X3335238Y37547620D01*
X3811428Y37547620D01*
X4192380Y36547620D02*
X4192380Y37547620D01*
X4668571Y36547620D02*
X4668571Y37547620D01*
X4906666Y37547620D01*
X5049523Y37500000D01*
X5144761Y37404762D01*
X5192380Y37309524D01*
X5240000Y37119048D01*
X5240000Y36976191D01*
X5192380Y36785715D01*
X5144761Y36690477D01*
X5049523Y36595239D01*
X4906666Y36547620D01*
X4668571Y36547620D01*
X5620952Y37452381D02*
X5668571Y37500000D01*
X5763809Y37547620D01*
X6001904Y37547620D01*
X6097142Y37500000D01*
X6144761Y37452381D01*
X6192380Y37357143D01*
X6192380Y37261905D01*
X6144761Y37119048D01*
X5573333Y36547620D01*
X6192380Y36547620D01*
%TO.C,FID1*%
X4148571Y3561429D02*
X3815238Y3561429D01*
X3815238Y3037620D02*
X3815238Y4037620D01*
X4291428Y4037620D01*
X4672380Y3037620D02*
X4672380Y4037620D01*
X5148571Y3037620D02*
X5148571Y4037620D01*
X5386666Y4037620D01*
X5529523Y3990000D01*
X5624761Y3894762D01*
X5672380Y3799524D01*
X5720000Y3609048D01*
X5720000Y3466191D01*
X5672380Y3275715D01*
X5624761Y3180477D01*
X5529523Y3085239D01*
X5386666Y3037620D01*
X5148571Y3037620D01*
X6672380Y3037620D02*
X6100952Y3037620D01*
X6386666Y3037620D02*
X6386666Y4037620D01*
X6291428Y3894762D01*
X6196190Y3799524D01*
X6100952Y3751905D01*
%TO.C,R3*%
X15583333Y12997620D02*
X15250000Y13473810D01*
X15011904Y12997620D02*
X15011904Y13997620D01*
X15392857Y13997620D01*
X15488095Y13950000D01*
X15535714Y13902381D01*
X15583333Y13807143D01*
X15583333Y13664286D01*
X15535714Y13569048D01*
X15488095Y13521429D01*
X15392857Y13473810D01*
X15011904Y13473810D01*
X15916666Y13997620D02*
X16535714Y13997620D01*
X16202380Y13616667D01*
X16345238Y13616667D01*
X16440476Y13569048D01*
X16488095Y13521429D01*
X16535714Y13426191D01*
X16535714Y13188096D01*
X16488095Y13092858D01*
X16440476Y13045239D01*
X16345238Y12997620D01*
X16059523Y12997620D01*
X15964285Y13045239D01*
X15916666Y13092858D01*
%TO.C,C7*%
X5157142Y36633334D02*
X5204761Y36585715D01*
X5252380Y36442858D01*
X5252380Y36347620D01*
X5204761Y36204762D01*
X5109523Y36109524D01*
X5014285Y36061905D01*
X4823809Y36014286D01*
X4680952Y36014286D01*
X4490476Y36061905D01*
X4395238Y36109524D01*
X4300000Y36204762D01*
X4252380Y36347620D01*
X4252380Y36442858D01*
X4300000Y36585715D01*
X4347619Y36633334D01*
X4252380Y36966667D02*
X4252380Y37633334D01*
X5252380Y37204762D01*
%TO.C,D2*%
X18561904Y11347620D02*
X18561904Y12347620D01*
X18800000Y12347620D01*
X18942857Y12300000D01*
X19038095Y12204762D01*
X19085714Y12109524D01*
X19133333Y11919048D01*
X19133333Y11776191D01*
X19085714Y11585715D01*
X19038095Y11490477D01*
X18942857Y11395239D01*
X18800000Y11347620D01*
X18561904Y11347620D01*
X19514285Y12252381D02*
X19561904Y12300000D01*
X19657142Y12347620D01*
X19895238Y12347620D01*
X19990476Y12300000D01*
X20038095Y12252381D01*
X20085714Y12157143D01*
X20085714Y12061905D01*
X20038095Y11919048D01*
X19466666Y11347620D01*
X20085714Y11347620D01*
%TO.C,R1*%
X6052380Y15133334D02*
X5576190Y14800000D01*
X6052380Y14561905D02*
X5052380Y14561905D01*
X5052380Y14942858D01*
X5100000Y15038096D01*
X5147619Y15085715D01*
X5242857Y15133334D01*
X5385714Y15133334D01*
X5480952Y15085715D01*
X5528571Y15038096D01*
X5576190Y14942858D01*
X5576190Y14561905D01*
X6052380Y16085715D02*
X6052380Y15514286D01*
X6052380Y15800000D02*
X5052380Y15800000D01*
X5195238Y15704762D01*
X5290476Y15609524D01*
X5338095Y15514286D01*
D10*
%TO.C,R2*%
X21016666Y38973810D02*
X20850000Y39211905D01*
X20730952Y38973810D02*
X20730952Y39473810D01*
X20921428Y39473810D01*
X20969047Y39450000D01*
X20992857Y39426191D01*
X21016666Y39378572D01*
X21016666Y39307143D01*
X20992857Y39259524D01*
X20969047Y39235715D01*
X20921428Y39211905D01*
X20730952Y39211905D01*
X21207142Y39426191D02*
X21230952Y39450000D01*
X21278571Y39473810D01*
X21397619Y39473810D01*
X21445238Y39450000D01*
X21469047Y39426191D01*
X21492857Y39378572D01*
X21492857Y39330953D01*
X21469047Y39259524D01*
X21183333Y38973810D01*
X21492857Y38973810D01*
D11*
%TO.C,C2*%
X7483333Y20642858D02*
X7435714Y20595239D01*
X7292857Y20547620D01*
X7197619Y20547620D01*
X7054761Y20595239D01*
X6959523Y20690477D01*
X6911904Y20785715D01*
X6864285Y20976191D01*
X6864285Y21119048D01*
X6911904Y21309524D01*
X6959523Y21404762D01*
X7054761Y21500000D01*
X7197619Y21547620D01*
X7292857Y21547620D01*
X7435714Y21500000D01*
X7483333Y21452381D01*
X7864285Y21452381D02*
X7911904Y21500000D01*
X8007142Y21547620D01*
X8245238Y21547620D01*
X8340476Y21500000D01*
X8388095Y21452381D01*
X8435714Y21357143D01*
X8435714Y21261905D01*
X8388095Y21119048D01*
X7816666Y20547620D01*
X8435714Y20547620D01*
%TO.C,C6*%
X7157142Y36633334D02*
X7204761Y36585715D01*
X7252380Y36442858D01*
X7252380Y36347620D01*
X7204761Y36204762D01*
X7109523Y36109524D01*
X7014285Y36061905D01*
X6823809Y36014286D01*
X6680952Y36014286D01*
X6490476Y36061905D01*
X6395238Y36109524D01*
X6300000Y36204762D01*
X6252380Y36347620D01*
X6252380Y36442858D01*
X6300000Y36585715D01*
X6347619Y36633334D01*
X6252380Y37490477D02*
X6252380Y37300000D01*
X6300000Y37204762D01*
X6347619Y37157143D01*
X6490476Y37061905D01*
X6680952Y37014286D01*
X7061904Y37014286D01*
X7157142Y37061905D01*
X7204761Y37109524D01*
X7252380Y37204762D01*
X7252380Y37395239D01*
X7204761Y37490477D01*
X7157142Y37538096D01*
X7061904Y37585715D01*
X6823809Y37585715D01*
X6728571Y37538096D01*
X6680952Y37490477D01*
X6633333Y37395239D01*
X6633333Y37204762D01*
X6680952Y37109524D01*
X6728571Y37061905D01*
X6823809Y37014286D01*
%TO.C,C8*%
X13757142Y35533334D02*
X13804761Y35485715D01*
X13852380Y35342858D01*
X13852380Y35247620D01*
X13804761Y35104762D01*
X13709523Y35009524D01*
X13614285Y34961905D01*
X13423809Y34914286D01*
X13280952Y34914286D01*
X13090476Y34961905D01*
X12995238Y35009524D01*
X12900000Y35104762D01*
X12852380Y35247620D01*
X12852380Y35342858D01*
X12900000Y35485715D01*
X12947619Y35533334D01*
X13280952Y36104762D02*
X13233333Y36009524D01*
X13185714Y35961905D01*
X13090476Y35914286D01*
X13042857Y35914286D01*
X12947619Y35961905D01*
X12900000Y36009524D01*
X12852380Y36104762D01*
X12852380Y36295239D01*
X12900000Y36390477D01*
X12947619Y36438096D01*
X13042857Y36485715D01*
X13090476Y36485715D01*
X13185714Y36438096D01*
X13233333Y36390477D01*
X13280952Y36295239D01*
X13280952Y36104762D01*
X13328571Y36009524D01*
X13376190Y35961905D01*
X13471428Y35914286D01*
X13661904Y35914286D01*
X13757142Y35961905D01*
X13804761Y36009524D01*
X13852380Y36104762D01*
X13852380Y36295239D01*
X13804761Y36390477D01*
X13757142Y36438096D01*
X13661904Y36485715D01*
X13471428Y36485715D01*
X13376190Y36438096D01*
X13328571Y36390477D01*
X13280952Y36295239D01*
D10*
%TO.C,D1*%
X19130952Y38973810D02*
X19130952Y39473810D01*
X19250000Y39473810D01*
X19321428Y39450000D01*
X19369047Y39402381D01*
X19392857Y39354762D01*
X19416666Y39259524D01*
X19416666Y39188096D01*
X19392857Y39092858D01*
X19369047Y39045239D01*
X19321428Y38997620D01*
X19250000Y38973810D01*
X19130952Y38973810D01*
X19892857Y38973810D02*
X19607142Y38973810D01*
X19750000Y38973810D02*
X19750000Y39473810D01*
X19702380Y39402381D01*
X19654761Y39354762D01*
X19607142Y39330953D01*
D11*
%TO.C,C1*%
X20837142Y6233334D02*
X20884761Y6185715D01*
X20932380Y6042858D01*
X20932380Y5947620D01*
X20884761Y5804762D01*
X20789523Y5709524D01*
X20694285Y5661905D01*
X20503809Y5614286D01*
X20360952Y5614286D01*
X20170476Y5661905D01*
X20075238Y5709524D01*
X19980000Y5804762D01*
X19932380Y5947620D01*
X19932380Y6042858D01*
X19980000Y6185715D01*
X20027619Y6233334D01*
X20932380Y7185715D02*
X20932380Y6614286D01*
X20932380Y6900000D02*
X19932380Y6900000D01*
X20075238Y6804762D01*
X20170476Y6709524D01*
X20218095Y6614286D01*
%TO.C,U1*%
X12751298Y25236590D02*
X13562422Y25236590D01*
X13657848Y25284303D01*
X13705561Y25332016D01*
X13753274Y25427443D01*
X13753274Y25618295D01*
X13705561Y25713722D01*
X13657848Y25761435D01*
X13562422Y25809148D01*
X12751298Y25809148D01*
X13753274Y26811124D02*
X13753274Y26238566D01*
X13753274Y26524845D02*
X12751298Y26524845D01*
X12894438Y26429419D01*
X12989864Y26333992D01*
X13037577Y26238566D01*
%TO.C,C5*%
X19133333Y14842858D02*
X19085714Y14795239D01*
X18942857Y14747620D01*
X18847619Y14747620D01*
X18704761Y14795239D01*
X18609523Y14890477D01*
X18561904Y14985715D01*
X18514285Y15176191D01*
X18514285Y15319048D01*
X18561904Y15509524D01*
X18609523Y15604762D01*
X18704761Y15700000D01*
X18847619Y15747620D01*
X18942857Y15747620D01*
X19085714Y15700000D01*
X19133333Y15652381D01*
X20038095Y15747620D02*
X19561904Y15747620D01*
X19514285Y15271429D01*
X19561904Y15319048D01*
X19657142Y15366667D01*
X19895238Y15366667D01*
X19990476Y15319048D01*
X20038095Y15271429D01*
X20085714Y15176191D01*
X20085714Y14938096D01*
X20038095Y14842858D01*
X19990476Y14795239D01*
X19895238Y14747620D01*
X19657142Y14747620D01*
X19561904Y14795239D01*
X19514285Y14842858D01*
%TO.C,U2*%
X11978095Y38247620D02*
X11978095Y37438096D01*
X12025714Y37342858D01*
X12073333Y37295239D01*
X12168571Y37247620D01*
X12359047Y37247620D01*
X12454285Y37295239D01*
X12501904Y37342858D01*
X12549523Y37438096D01*
X12549523Y38247620D01*
X12978095Y38152381D02*
X13025714Y38200000D01*
X13120952Y38247620D01*
X13359047Y38247620D01*
X13454285Y38200000D01*
X13501904Y38152381D01*
X13549523Y38057143D01*
X13549523Y37961905D01*
X13501904Y37819048D01*
X12930476Y37247620D01*
X13549523Y37247620D01*
%TO.C,C9*%
X21733333Y36842858D02*
X21685714Y36795239D01*
X21542857Y36747620D01*
X21447619Y36747620D01*
X21304761Y36795239D01*
X21209523Y36890477D01*
X21161904Y36985715D01*
X21114285Y37176191D01*
X21114285Y37319048D01*
X21161904Y37509524D01*
X21209523Y37604762D01*
X21304761Y37700000D01*
X21447619Y37747620D01*
X21542857Y37747620D01*
X21685714Y37700000D01*
X21733333Y37652381D01*
X22209523Y36747620D02*
X22400000Y36747620D01*
X22495238Y36795239D01*
X22542857Y36842858D01*
X22638095Y36985715D01*
X22685714Y37176191D01*
X22685714Y37557143D01*
X22638095Y37652381D01*
X22590476Y37700000D01*
X22495238Y37747620D01*
X22304761Y37747620D01*
X22209523Y37700000D01*
X22161904Y37652381D01*
X22114285Y37557143D01*
X22114285Y37319048D01*
X22161904Y37223810D01*
X22209523Y37176191D01*
X22304761Y37128572D01*
X22495238Y37128572D01*
X22590476Y37176191D01*
X22638095Y37223810D01*
X22685714Y37319048D01*
%TO.C,C3*%
X13707142Y19333334D02*
X13754761Y19285715D01*
X13802380Y19142858D01*
X13802380Y19047620D01*
X13754761Y18904762D01*
X13659523Y18809524D01*
X13564285Y18761905D01*
X13373809Y18714286D01*
X13230952Y18714286D01*
X13040476Y18761905D01*
X12945238Y18809524D01*
X12850000Y18904762D01*
X12802380Y19047620D01*
X12802380Y19142858D01*
X12850000Y19285715D01*
X12897619Y19333334D01*
X12802380Y19666667D02*
X12802380Y20285715D01*
X13183333Y19952381D01*
X13183333Y20095239D01*
X13230952Y20190477D01*
X13278571Y20238096D01*
X13373809Y20285715D01*
X13611904Y20285715D01*
X13707142Y20238096D01*
X13754761Y20190477D01*
X13802380Y20095239D01*
X13802380Y19809524D01*
X13754761Y19714286D01*
X13707142Y19666667D01*
%TO.C,SW1*%
X10966666Y8195239D02*
X11109523Y8147620D01*
X11347619Y8147620D01*
X11442857Y8195239D01*
X11490476Y8242858D01*
X11538095Y8338096D01*
X11538095Y8433334D01*
X11490476Y8528572D01*
X11442857Y8576191D01*
X11347619Y8623810D01*
X11157142Y8671429D01*
X11061904Y8719048D01*
X11014285Y8766667D01*
X10966666Y8861905D01*
X10966666Y8957143D01*
X11014285Y9052381D01*
X11061904Y9100000D01*
X11157142Y9147620D01*
X11395238Y9147620D01*
X11538095Y9100000D01*
X11871428Y9147620D02*
X12109523Y8147620D01*
X12300000Y8861905D01*
X12490476Y8147620D01*
X12728571Y9147620D01*
X13633333Y8147620D02*
X13061904Y8147620D01*
X13347619Y8147620D02*
X13347619Y9147620D01*
X13252380Y9004762D01*
X13157142Y8909524D01*
X13061904Y8861905D01*
%TO.C,C4*%
X17937142Y17833334D02*
X17984761Y17785715D01*
X18032380Y17642858D01*
X18032380Y17547620D01*
X17984761Y17404762D01*
X17889523Y17309524D01*
X17794285Y17261905D01*
X17603809Y17214286D01*
X17460952Y17214286D01*
X17270476Y17261905D01*
X17175238Y17309524D01*
X17080000Y17404762D01*
X17032380Y17547620D01*
X17032380Y17642858D01*
X17080000Y17785715D01*
X17127619Y17833334D01*
X17365714Y18690477D02*
X18032380Y18690477D01*
X16984761Y18452381D02*
X17699047Y18214286D01*
X17699047Y18833334D01*
%TO.C,Y1*%
X10323809Y15623810D02*
X10323809Y15147620D01*
X9990476Y16147620D02*
X10323809Y15623810D01*
X10657142Y16147620D01*
X11514285Y15147620D02*
X10942857Y15147620D01*
X11228571Y15147620D02*
X11228571Y16147620D01*
X11133333Y16004762D01*
X11038095Y15909524D01*
X10942857Y15861905D01*
D12*
%TO.C,R3*%
X14435000Y12627064D02*
X14435000Y12172936D01*
X12965000Y12627064D02*
X12965000Y12172936D01*
%TO.C,C7*%
X3765000Y39861252D02*
X3765000Y39338748D01*
X5235000Y39861252D02*
X5235000Y39338748D01*
%TO.C,D2*%
X14815000Y12760000D02*
X14815000Y10840000D01*
X14815000Y10840000D02*
X17500000Y10840000D01*
X17500000Y12760000D02*
X14815000Y12760000D01*
%TO.C,R1*%
X8335000Y14485436D02*
X8335000Y14939564D01*
X6865000Y14485436D02*
X6865000Y14939564D01*
%TO.C,R2*%
X20472936Y39865000D02*
X20927064Y39865000D01*
X20472936Y41335000D02*
X20927064Y41335000D01*
%TO.C,C2*%
X8335000Y18861252D02*
X8335000Y18338748D01*
X6865000Y18861252D02*
X6865000Y18338748D01*
%TO.C,C6*%
X7435000Y39861252D02*
X7435000Y39338748D01*
X5965000Y39861252D02*
X5965000Y39338748D01*
%TO.C,C8*%
X17165000Y36661252D02*
X17165000Y36138748D01*
X18635000Y36661252D02*
X18635000Y36138748D01*
%TO.C,D1*%
X18860000Y41585000D02*
X16940000Y41585000D01*
X18860000Y38900000D02*
X18860000Y41585000D01*
X16940000Y41585000D02*
X16940000Y38900000D01*
%TO.C,C1*%
X18065000Y6661252D02*
X18065000Y6138748D01*
X19535000Y6661252D02*
X19535000Y6138748D01*
D13*
%TO.C,U1*%
X16400000Y28900000D02*
X16400000Y22700000D01*
X16400000Y22700000D02*
X10200000Y22700000D01*
X10200000Y28900000D02*
X16400000Y28900000D01*
X10200000Y22700000D02*
X10200000Y28900000D01*
D14*
X9811803Y21500000D02*
G75*
G03*
X9811803Y21500000I-111803J0D01*
G01*
D12*
%TO.C,C5*%
X16761252Y14465000D02*
X16238748Y14465000D01*
X16761252Y15935000D02*
X16238748Y15935000D01*
%TO.C,U2*%
X16400000Y34590000D02*
X10390000Y34590000D01*
X14150000Y41410000D02*
X10390000Y41410000D01*
X10390000Y34590000D02*
X10390000Y35850000D01*
X10390000Y41410000D02*
X10390000Y40150000D01*
%TO.C,C9*%
X19265000Y36561252D02*
X19265000Y36038748D01*
X20735000Y36561252D02*
X20735000Y36038748D01*
%TO.C,C3*%
X14435000Y15738748D02*
X14435000Y16261252D01*
X12965000Y15738748D02*
X12965000Y16261252D01*
%TO.C,SW1*%
X15460000Y10450000D02*
X15460000Y6750000D01*
X9340000Y10450000D02*
X15460000Y10450000D01*
X9340000Y6750000D02*
X9340000Y10450000D01*
X15460000Y6750000D02*
X9340000Y6750000D01*
%TO.C,C4*%
X16635000Y18261252D02*
X16635000Y17738748D01*
X15165000Y18261252D02*
X15165000Y17738748D01*
%TO.C,Y1*%
X12500000Y12900000D02*
X12500000Y20225000D01*
X8900000Y20225000D02*
X8900000Y12900000D01*
X12500000Y20225000D02*
X8900000Y20225000D01*
%TD*%
M02*
