M48
; DRILL file {KiCad (6.0.2)} date Tue May 10 09:18:47 2022
; FORMAT={-:-/ absolute / metric / decimal}
; #@! TF.CreationDate,2022-05-10T09:18:47+02:00
; #@! TF.GenerationSoftware,Kicad,Pcbnew,(6.0.2)
; #@! TF.FileFunction,MixedPlating,1,2
FMAT,2
METRIC
; #@! TA.AperFunction,Plated,PTH,ViaDrill
T1C0.700
; #@! TA.AperFunction,Plated,PTH,ComponentDrill
T2C1.000
%
G90
G05
T1
X3.85Y5.6
X4.271Y9.829
X4.662Y8.262
X5.337Y16.562
X5.425Y18.325
X6.325Y28.275
X8.4Y20.5
X8.525Y16.975
X9.8Y5.0
X10.4Y33.9
X11.5Y10.7
X11.9Y34.0
X12.7Y9.4
X13.7Y10.3
X17.05Y21.6
X17.3Y30.0
X17.45Y13.425
X17.6Y19.6
X21.051Y5.426
X22.22Y38.42
X22.6Y40.6
T2
X1.5Y38.4
X1.5Y35.86
X1.5Y33.32
X1.5Y30.78
X1.5Y28.24
X1.5Y25.7
X1.5Y23.16
X1.5Y20.62
X1.5Y18.08
X1.5Y15.54
X1.5Y13.0
X1.5Y10.46
X1.5Y7.92
X1.5Y5.38
X1.5Y2.84
X8.68Y2.6
X11.22Y2.6
X13.76Y2.6
X16.3Y2.6
X24.0Y38.42
X24.0Y35.88
X24.0Y33.34
X24.0Y30.8
X24.0Y28.26
X24.0Y25.72
X24.0Y23.18
X24.0Y20.64
X24.0Y18.1
X24.0Y15.56
X24.0Y13.02
X24.0Y10.48
X24.0Y7.94
X24.0Y5.4
X24.0Y2.86
T0
M30
