G04 EAGLE Gerber X2 export*
%TF.Part,Single*%
%TF.FileFunction,Copper,L2,Bot,Mixed*%
%TF.FilePolarity,Positive*%
%TF.GenerationSoftware,Autodesk,EAGLE,9.6.2*%
%TF.CreationDate,2022-03-30T08:56:30Z*%
G75*
%MOMM*%
%FSLAX34Y34*%
%LPD*%
%INBottom Copper*%
%AMOC8*
5,1,8,0,0,1.08239X$1,22.5*%
G01*
%ADD10R,1.500000X1.300000*%
%ADD11R,1.300000X1.500000*%
%ADD12R,2.235200X1.219200*%
%ADD13R,2.200000X3.600000*%
%ADD14C,1.828800*%
%ADD15C,0.508000*%
%ADD16C,0.502400*%
%ADD17C,0.452400*%
%ADD18C,0.254000*%

G36*
X448928Y2207D02*
X448928Y2207D01*
X449004Y2205D01*
X449173Y2227D01*
X449344Y2241D01*
X449418Y2259D01*
X449493Y2269D01*
X449657Y2318D01*
X449823Y2359D01*
X449892Y2389D01*
X449966Y2411D01*
X450119Y2487D01*
X450276Y2554D01*
X450340Y2595D01*
X450409Y2628D01*
X450548Y2727D01*
X450692Y2819D01*
X450749Y2870D01*
X450811Y2914D01*
X450932Y3034D01*
X451060Y3148D01*
X451108Y3207D01*
X451162Y3261D01*
X451263Y3399D01*
X451370Y3532D01*
X451407Y3598D01*
X451452Y3659D01*
X451529Y3812D01*
X451614Y3960D01*
X451640Y4032D01*
X451675Y4100D01*
X451726Y4263D01*
X451785Y4423D01*
X451800Y4498D01*
X451823Y4570D01*
X451835Y4675D01*
X451880Y4907D01*
X451887Y5143D01*
X451899Y5248D01*
X451899Y236252D01*
X451893Y236328D01*
X451895Y236404D01*
X451873Y236573D01*
X451859Y236744D01*
X451841Y236818D01*
X451831Y236893D01*
X451782Y237057D01*
X451741Y237223D01*
X451711Y237292D01*
X451689Y237366D01*
X451613Y237519D01*
X451546Y237676D01*
X451505Y237740D01*
X451472Y237809D01*
X451373Y237948D01*
X451281Y238092D01*
X451230Y238149D01*
X451186Y238211D01*
X451066Y238332D01*
X450952Y238460D01*
X450893Y238508D01*
X450839Y238562D01*
X450701Y238663D01*
X450568Y238770D01*
X450502Y238807D01*
X450441Y238852D01*
X450288Y238929D01*
X450140Y239014D01*
X450068Y239040D01*
X450000Y239075D01*
X449837Y239126D01*
X449677Y239185D01*
X449602Y239200D01*
X449530Y239223D01*
X449425Y239235D01*
X449193Y239280D01*
X448957Y239287D01*
X448852Y239299D01*
X5048Y239299D01*
X4972Y239293D01*
X4896Y239295D01*
X4727Y239273D01*
X4556Y239259D01*
X4482Y239241D01*
X4407Y239231D01*
X4243Y239182D01*
X4077Y239141D01*
X4008Y239111D01*
X3934Y239089D01*
X3781Y239013D01*
X3624Y238946D01*
X3560Y238905D01*
X3491Y238872D01*
X3352Y238773D01*
X3208Y238681D01*
X3151Y238630D01*
X3089Y238586D01*
X2968Y238466D01*
X2840Y238352D01*
X2792Y238293D01*
X2738Y238239D01*
X2637Y238101D01*
X2530Y237968D01*
X2493Y237902D01*
X2448Y237841D01*
X2371Y237688D01*
X2286Y237540D01*
X2260Y237468D01*
X2225Y237400D01*
X2174Y237237D01*
X2115Y237077D01*
X2100Y237002D01*
X2077Y236930D01*
X2065Y236825D01*
X2020Y236593D01*
X2013Y236357D01*
X2001Y236252D01*
X2001Y5248D01*
X2007Y5172D01*
X2005Y5096D01*
X2027Y4927D01*
X2041Y4756D01*
X2059Y4682D01*
X2069Y4607D01*
X2118Y4443D01*
X2159Y4277D01*
X2189Y4208D01*
X2211Y4134D01*
X2287Y3981D01*
X2354Y3824D01*
X2395Y3760D01*
X2428Y3691D01*
X2527Y3552D01*
X2619Y3408D01*
X2670Y3351D01*
X2714Y3289D01*
X2834Y3168D01*
X2948Y3040D01*
X3007Y2992D01*
X3061Y2938D01*
X3199Y2837D01*
X3332Y2730D01*
X3398Y2693D01*
X3459Y2648D01*
X3612Y2571D01*
X3760Y2486D01*
X3832Y2460D01*
X3900Y2425D01*
X4063Y2374D01*
X4223Y2315D01*
X4298Y2300D01*
X4370Y2277D01*
X4475Y2265D01*
X4707Y2220D01*
X4943Y2213D01*
X5048Y2201D01*
X448852Y2201D01*
X448928Y2207D01*
G37*
%LPC*%
G36*
X419618Y8917D02*
X419618Y8917D01*
X418227Y9493D01*
X417163Y10557D01*
X416587Y11948D01*
X416587Y13452D01*
X417195Y14921D01*
X417256Y14992D01*
X417315Y15090D01*
X417382Y15182D01*
X417442Y15301D01*
X417511Y15415D01*
X417553Y15521D01*
X417605Y15623D01*
X417645Y15750D01*
X417694Y15873D01*
X417719Y15984D01*
X417753Y16093D01*
X417763Y16187D01*
X417801Y16355D01*
X417819Y16679D01*
X417829Y16771D01*
X417829Y104365D01*
X417820Y104479D01*
X417821Y104593D01*
X417800Y104725D01*
X417789Y104857D01*
X417762Y104968D01*
X417744Y105081D01*
X417703Y105207D01*
X417671Y105336D01*
X417626Y105441D01*
X417590Y105549D01*
X417528Y105667D01*
X417476Y105789D01*
X417415Y105886D01*
X417362Y105987D01*
X417303Y106060D01*
X417211Y106205D01*
X416995Y106448D01*
X416937Y106520D01*
X415187Y108270D01*
X415050Y108386D01*
X414917Y108509D01*
X414862Y108546D01*
X414811Y108589D01*
X414657Y108682D01*
X414506Y108782D01*
X414446Y108809D01*
X414389Y108844D01*
X414221Y108911D01*
X414057Y108985D01*
X413992Y109002D01*
X413931Y109027D01*
X413755Y109066D01*
X413580Y109112D01*
X413514Y109119D01*
X413449Y109133D01*
X413269Y109144D01*
X413089Y109162D01*
X413023Y109157D01*
X412956Y109161D01*
X412777Y109142D01*
X412597Y109131D01*
X412532Y109116D01*
X412466Y109109D01*
X412292Y109061D01*
X412116Y109021D01*
X412054Y108996D01*
X411990Y108978D01*
X411826Y108903D01*
X411659Y108835D01*
X411602Y108800D01*
X411542Y108773D01*
X411392Y108672D01*
X411238Y108578D01*
X411188Y108534D01*
X411132Y108497D01*
X411001Y108374D01*
X410864Y108256D01*
X410821Y108205D01*
X410773Y108159D01*
X410663Y108016D01*
X410547Y107878D01*
X410522Y107832D01*
X410473Y107768D01*
X410239Y107333D01*
X410229Y107302D01*
X410217Y107281D01*
X409607Y105807D01*
X408543Y104743D01*
X407152Y104167D01*
X405648Y104167D01*
X404257Y104743D01*
X403193Y105807D01*
X402585Y107276D01*
X402577Y107369D01*
X402550Y107480D01*
X402532Y107593D01*
X402491Y107719D01*
X402459Y107848D01*
X402414Y107953D01*
X402378Y108061D01*
X402316Y108179D01*
X402264Y108301D01*
X402203Y108398D01*
X402150Y108499D01*
X402091Y108572D01*
X401999Y108717D01*
X401783Y108960D01*
X401725Y109032D01*
X393540Y117217D01*
X393453Y117291D01*
X393373Y117372D01*
X393265Y117450D01*
X393164Y117536D01*
X393066Y117595D01*
X392974Y117662D01*
X392856Y117722D01*
X392742Y117791D01*
X392635Y117833D01*
X392534Y117885D01*
X392407Y117925D01*
X392283Y117974D01*
X392172Y117999D01*
X392063Y118033D01*
X391970Y118043D01*
X391802Y118081D01*
X391478Y118099D01*
X391385Y118109D01*
X378721Y118109D01*
X378607Y118100D01*
X378493Y118101D01*
X378362Y118080D01*
X378229Y118069D01*
X378119Y118042D01*
X378006Y118024D01*
X377879Y117983D01*
X377751Y117951D01*
X377646Y117906D01*
X377537Y117870D01*
X377419Y117808D01*
X377297Y117756D01*
X377201Y117695D01*
X377100Y117642D01*
X377026Y117583D01*
X376881Y117491D01*
X376858Y117470D01*
X375402Y116867D01*
X373898Y116867D01*
X373784Y116914D01*
X373612Y116970D01*
X373443Y117032D01*
X373378Y117045D01*
X373315Y117066D01*
X373136Y117093D01*
X372959Y117127D01*
X372893Y117129D01*
X372827Y117139D01*
X372646Y117137D01*
X372466Y117142D01*
X372400Y117134D01*
X372334Y117133D01*
X372156Y117102D01*
X371977Y117078D01*
X371913Y117059D01*
X371848Y117047D01*
X371677Y116988D01*
X371504Y116936D01*
X371445Y116906D01*
X371382Y116884D01*
X371223Y116798D01*
X371061Y116719D01*
X371007Y116680D01*
X370949Y116648D01*
X370806Y116538D01*
X370659Y116433D01*
X370612Y116386D01*
X370559Y116346D01*
X370436Y116213D01*
X370308Y116086D01*
X370269Y116033D01*
X370224Y115984D01*
X370124Y115833D01*
X370018Y115688D01*
X369988Y115628D01*
X369951Y115573D01*
X369877Y115408D01*
X369795Y115247D01*
X369775Y115184D01*
X369748Y115123D01*
X369701Y114949D01*
X369647Y114777D01*
X369641Y114724D01*
X369620Y114647D01*
X369571Y114156D01*
X369573Y114122D01*
X369571Y114099D01*
X369571Y108151D01*
X369585Y107971D01*
X369592Y107791D01*
X369605Y107726D01*
X369611Y107659D01*
X369654Y107484D01*
X369690Y107307D01*
X369713Y107245D01*
X369729Y107180D01*
X369801Y107014D01*
X369864Y106846D01*
X369898Y106788D01*
X369924Y106727D01*
X370021Y106575D01*
X370111Y106419D01*
X370153Y106367D01*
X370189Y106311D01*
X370309Y106177D01*
X370424Y106037D01*
X370473Y105993D01*
X370518Y105943D01*
X370658Y105830D01*
X370793Y105710D01*
X370850Y105675D01*
X370902Y105633D01*
X371058Y105544D01*
X371211Y105448D01*
X371272Y105422D01*
X371330Y105389D01*
X371500Y105326D01*
X371666Y105256D01*
X371730Y105241D01*
X371793Y105218D01*
X371970Y105183D01*
X372145Y105141D01*
X372212Y105136D01*
X372277Y105123D01*
X372457Y105117D01*
X372637Y105104D01*
X372704Y105110D01*
X372770Y105108D01*
X372949Y105131D01*
X373129Y105147D01*
X373180Y105161D01*
X373259Y105172D01*
X373731Y105314D01*
X373762Y105329D01*
X373784Y105336D01*
X373898Y105383D01*
X375402Y105383D01*
X376793Y104807D01*
X377857Y103743D01*
X378433Y102352D01*
X378433Y100848D01*
X377825Y99379D01*
X377764Y99308D01*
X377705Y99210D01*
X377638Y99118D01*
X377578Y98999D01*
X377509Y98885D01*
X377467Y98779D01*
X377415Y98677D01*
X377375Y98551D01*
X377326Y98427D01*
X377301Y98316D01*
X377267Y98207D01*
X377257Y98113D01*
X377219Y97946D01*
X377201Y97621D01*
X377191Y97529D01*
X377191Y75148D01*
X365383Y63340D01*
X365309Y63253D01*
X365228Y63173D01*
X365150Y63065D01*
X365064Y62964D01*
X365005Y62866D01*
X364938Y62774D01*
X364878Y62656D01*
X364809Y62542D01*
X364767Y62435D01*
X364715Y62334D01*
X364675Y62207D01*
X364626Y62083D01*
X364601Y61972D01*
X364567Y61863D01*
X364557Y61770D01*
X364519Y61602D01*
X364501Y61278D01*
X364491Y61185D01*
X364491Y29471D01*
X364500Y29357D01*
X364499Y29243D01*
X364520Y29112D01*
X364531Y28979D01*
X364558Y28869D01*
X364576Y28756D01*
X364617Y28629D01*
X364649Y28501D01*
X364694Y28396D01*
X364730Y28287D01*
X364792Y28169D01*
X364844Y28047D01*
X364905Y27951D01*
X364958Y27850D01*
X365017Y27776D01*
X365109Y27631D01*
X365130Y27608D01*
X365733Y26152D01*
X365733Y24648D01*
X365157Y23257D01*
X364093Y22193D01*
X362702Y21617D01*
X361198Y21617D01*
X359807Y22193D01*
X358743Y23257D01*
X358167Y24648D01*
X358167Y26152D01*
X358775Y27621D01*
X358836Y27692D01*
X358895Y27790D01*
X358962Y27882D01*
X359022Y28001D01*
X359091Y28115D01*
X359133Y28221D01*
X359185Y28323D01*
X359225Y28450D01*
X359274Y28573D01*
X359299Y28684D01*
X359333Y28793D01*
X359343Y28887D01*
X359381Y29055D01*
X359399Y29379D01*
X359409Y29471D01*
X359409Y63417D01*
X359395Y63598D01*
X359388Y63778D01*
X359375Y63843D01*
X359369Y63909D01*
X359326Y64084D01*
X359290Y64261D01*
X359267Y64323D01*
X359251Y64388D01*
X359179Y64554D01*
X359116Y64723D01*
X359082Y64780D01*
X359056Y64841D01*
X358959Y64993D01*
X358869Y65150D01*
X358827Y65201D01*
X358791Y65257D01*
X358671Y65392D01*
X358556Y65532D01*
X358507Y65576D01*
X358462Y65625D01*
X358322Y65739D01*
X358187Y65858D01*
X358130Y65894D01*
X358078Y65935D01*
X357922Y66024D01*
X357769Y66121D01*
X357708Y66146D01*
X357650Y66179D01*
X357480Y66242D01*
X357314Y66312D01*
X357250Y66328D01*
X357187Y66351D01*
X357010Y66386D01*
X356835Y66428D01*
X356768Y66433D01*
X356703Y66446D01*
X356523Y66451D01*
X356343Y66465D01*
X356276Y66459D01*
X356210Y66461D01*
X356031Y66437D01*
X355851Y66422D01*
X355801Y66407D01*
X355721Y66396D01*
X355249Y66254D01*
X355218Y66239D01*
X355196Y66233D01*
X354116Y65785D01*
X331684Y65785D01*
X327857Y67371D01*
X324927Y70301D01*
X323341Y74128D01*
X323341Y76407D01*
X323332Y76521D01*
X323333Y76635D01*
X323312Y76767D01*
X323301Y76899D01*
X323274Y77010D01*
X323256Y77123D01*
X323215Y77249D01*
X323183Y77378D01*
X323138Y77483D01*
X323102Y77591D01*
X323040Y77709D01*
X322988Y77831D01*
X322927Y77927D01*
X322874Y78029D01*
X322815Y78102D01*
X322723Y78247D01*
X322507Y78490D01*
X322449Y78562D01*
X320878Y80133D01*
X320791Y80207D01*
X320711Y80288D01*
X320603Y80366D01*
X320502Y80452D01*
X320404Y80511D01*
X320312Y80578D01*
X320194Y80638D01*
X320080Y80707D01*
X319973Y80749D01*
X319872Y80801D01*
X319745Y80841D01*
X319621Y80890D01*
X319510Y80915D01*
X319401Y80949D01*
X319308Y80959D01*
X319140Y80997D01*
X318816Y81015D01*
X318723Y81025D01*
X296930Y81025D01*
X295529Y81605D01*
X294208Y82927D01*
X294121Y83001D01*
X294041Y83082D01*
X293933Y83160D01*
X293832Y83246D01*
X293734Y83305D01*
X293642Y83372D01*
X293524Y83432D01*
X293410Y83501D01*
X293303Y83543D01*
X293202Y83595D01*
X293075Y83635D01*
X292951Y83684D01*
X292840Y83709D01*
X292731Y83743D01*
X292638Y83753D01*
X292470Y83791D01*
X292146Y83809D01*
X292053Y83819D01*
X290623Y83819D01*
X290509Y83810D01*
X290395Y83811D01*
X290263Y83790D01*
X290131Y83779D01*
X290020Y83752D01*
X289907Y83734D01*
X289781Y83693D01*
X289652Y83661D01*
X289547Y83616D01*
X289439Y83580D01*
X289321Y83518D01*
X289199Y83466D01*
X289103Y83405D01*
X289001Y83352D01*
X288928Y83293D01*
X288783Y83201D01*
X288540Y82985D01*
X288468Y82927D01*
X287303Y81762D01*
X287229Y81675D01*
X287148Y81595D01*
X287070Y81487D01*
X286984Y81386D01*
X286925Y81288D01*
X286858Y81196D01*
X286798Y81078D01*
X286729Y80964D01*
X286687Y80857D01*
X286635Y80756D01*
X286595Y80629D01*
X286546Y80505D01*
X286521Y80394D01*
X286487Y80285D01*
X286477Y80192D01*
X286439Y80024D01*
X286421Y79700D01*
X286411Y79607D01*
X286411Y75318D01*
X286417Y75247D01*
X286415Y75183D01*
X286415Y75179D01*
X286415Y75166D01*
X286437Y74997D01*
X286451Y74826D01*
X286469Y74752D01*
X286479Y74677D01*
X286528Y74513D01*
X286569Y74347D01*
X286599Y74278D01*
X286621Y74204D01*
X286697Y74051D01*
X286764Y73894D01*
X286805Y73830D01*
X286838Y73761D01*
X286937Y73622D01*
X287029Y73478D01*
X287080Y73421D01*
X287124Y73359D01*
X287244Y73238D01*
X287358Y73110D01*
X287417Y73062D01*
X287471Y73008D01*
X287609Y72907D01*
X287742Y72800D01*
X287808Y72763D01*
X287869Y72718D01*
X288022Y72641D01*
X288170Y72556D01*
X288242Y72530D01*
X288310Y72495D01*
X288473Y72444D01*
X288633Y72385D01*
X288708Y72370D01*
X288780Y72347D01*
X288885Y72335D01*
X289117Y72290D01*
X289353Y72283D01*
X289458Y72271D01*
X289858Y72271D01*
X289916Y72248D01*
X289984Y72211D01*
X290145Y72156D01*
X290304Y72093D01*
X290378Y72076D01*
X290450Y72051D01*
X290619Y72023D01*
X290785Y71986D01*
X290861Y71982D01*
X290937Y71969D01*
X291108Y71968D01*
X291278Y71958D01*
X291354Y71966D01*
X291430Y71966D01*
X291599Y71992D01*
X291768Y72010D01*
X291842Y72031D01*
X291917Y72042D01*
X292080Y72096D01*
X292244Y72141D01*
X292313Y72173D01*
X292386Y72197D01*
X292537Y72276D01*
X292693Y72347D01*
X292756Y72389D01*
X292823Y72425D01*
X292906Y72490D01*
X293102Y72622D01*
X293274Y72784D01*
X293357Y72850D01*
X293540Y73033D01*
X294119Y73368D01*
X294765Y73541D01*
X298351Y73541D01*
X298351Y63702D01*
X298357Y63626D01*
X298355Y63550D01*
X298365Y63473D01*
X298363Y63403D01*
X298351Y63298D01*
X298351Y53459D01*
X294765Y53459D01*
X294119Y53632D01*
X293540Y53967D01*
X293357Y54150D01*
X293299Y54199D01*
X293246Y54255D01*
X293111Y54359D01*
X292981Y54470D01*
X292915Y54509D01*
X292855Y54555D01*
X292705Y54636D01*
X292558Y54724D01*
X292487Y54753D01*
X292420Y54789D01*
X292258Y54844D01*
X292100Y54907D01*
X292026Y54924D01*
X291953Y54949D01*
X291785Y54977D01*
X291618Y55014D01*
X291542Y55018D01*
X291467Y55031D01*
X291297Y55032D01*
X291126Y55042D01*
X291050Y55034D01*
X290974Y55034D01*
X290805Y55008D01*
X290635Y54990D01*
X290562Y54969D01*
X290486Y54957D01*
X290324Y54904D01*
X290160Y54859D01*
X290090Y54827D01*
X290018Y54803D01*
X289876Y54729D01*
X276098Y54729D01*
X276022Y54723D01*
X275946Y54725D01*
X275777Y54703D01*
X275606Y54689D01*
X275532Y54671D01*
X275457Y54661D01*
X275293Y54612D01*
X275127Y54571D01*
X275058Y54541D01*
X274984Y54519D01*
X274831Y54443D01*
X274674Y54376D01*
X274610Y54335D01*
X274541Y54302D01*
X274402Y54203D01*
X274258Y54111D01*
X274201Y54060D01*
X274139Y54016D01*
X274018Y53896D01*
X273890Y53782D01*
X273842Y53723D01*
X273788Y53669D01*
X273687Y53531D01*
X273580Y53398D01*
X273543Y53332D01*
X273498Y53271D01*
X273421Y53118D01*
X273336Y52970D01*
X273310Y52898D01*
X273275Y52830D01*
X273224Y52667D01*
X273165Y52507D01*
X273150Y52432D01*
X273127Y52360D01*
X273115Y52255D01*
X273070Y52023D01*
X273063Y51787D01*
X273051Y51682D01*
X273051Y46884D01*
X273052Y46874D01*
X273051Y46864D01*
X273071Y46629D01*
X273091Y46392D01*
X273093Y46383D01*
X273094Y46373D01*
X273105Y46334D01*
X273209Y45913D01*
X273261Y45793D01*
X273283Y45718D01*
X274043Y43883D01*
X274043Y42477D01*
X273505Y41179D01*
X272511Y40185D01*
X271213Y39647D01*
X269807Y39647D01*
X268509Y40185D01*
X268380Y40314D01*
X268207Y40461D01*
X268035Y40611D01*
X268019Y40621D01*
X268004Y40633D01*
X267809Y40751D01*
X267615Y40871D01*
X267598Y40878D01*
X267582Y40888D01*
X267370Y40972D01*
X267160Y41060D01*
X267141Y41064D01*
X267124Y41071D01*
X266901Y41120D01*
X266679Y41172D01*
X266660Y41174D01*
X266642Y41178D01*
X266414Y41190D01*
X266187Y41206D01*
X266168Y41204D01*
X266149Y41205D01*
X265923Y41181D01*
X265696Y41160D01*
X265678Y41155D01*
X265659Y41153D01*
X265440Y41093D01*
X265219Y41035D01*
X265201Y41027D01*
X265183Y41022D01*
X264975Y40927D01*
X264768Y40835D01*
X264752Y40825D01*
X264735Y40817D01*
X264545Y40689D01*
X264355Y40565D01*
X264341Y40552D01*
X264325Y40541D01*
X264159Y40385D01*
X263991Y40231D01*
X263982Y40219D01*
X263966Y40203D01*
X263666Y39812D01*
X263622Y39730D01*
X263586Y39682D01*
X263533Y39590D01*
X263060Y39117D01*
X262481Y38782D01*
X261835Y38609D01*
X257249Y38609D01*
X257249Y44401D01*
X264922Y44401D01*
X264998Y44407D01*
X265074Y44405D01*
X265243Y44427D01*
X265414Y44441D01*
X265488Y44459D01*
X265563Y44469D01*
X265727Y44518D01*
X265893Y44559D01*
X265962Y44589D01*
X266036Y44611D01*
X266189Y44687D01*
X266346Y44754D01*
X266410Y44795D01*
X266479Y44828D01*
X266618Y44927D01*
X266762Y45019D01*
X266819Y45070D01*
X266881Y45114D01*
X267002Y45234D01*
X267130Y45348D01*
X267178Y45407D01*
X267232Y45460D01*
X267333Y45599D01*
X267440Y45731D01*
X267477Y45798D01*
X267522Y45859D01*
X267599Y46012D01*
X267684Y46160D01*
X267710Y46232D01*
X267745Y46300D01*
X267796Y46463D01*
X267855Y46623D01*
X267870Y46697D01*
X267893Y46770D01*
X267905Y46875D01*
X267950Y47107D01*
X267957Y47343D01*
X267969Y47448D01*
X267969Y47852D01*
X267963Y47928D01*
X267965Y48004D01*
X267943Y48173D01*
X267929Y48344D01*
X267911Y48418D01*
X267901Y48493D01*
X267852Y48657D01*
X267811Y48823D01*
X267781Y48892D01*
X267759Y48966D01*
X267683Y49119D01*
X267616Y49276D01*
X267575Y49340D01*
X267542Y49409D01*
X267443Y49548D01*
X267351Y49692D01*
X267300Y49749D01*
X267256Y49811D01*
X267136Y49932D01*
X267022Y50060D01*
X266963Y50108D01*
X266909Y50162D01*
X266771Y50263D01*
X266638Y50370D01*
X266572Y50407D01*
X266511Y50452D01*
X266358Y50529D01*
X266210Y50614D01*
X266138Y50640D01*
X266070Y50675D01*
X265907Y50726D01*
X265747Y50785D01*
X265672Y50800D01*
X265600Y50823D01*
X265495Y50835D01*
X265263Y50880D01*
X265027Y50887D01*
X264922Y50899D01*
X254202Y50899D01*
X254126Y50893D01*
X254050Y50895D01*
X253973Y50885D01*
X253903Y50887D01*
X253798Y50899D01*
X243959Y50899D01*
X243959Y51009D01*
X243954Y51070D01*
X243955Y51109D01*
X243944Y51195D01*
X243944Y51198D01*
X243936Y51388D01*
X243924Y51444D01*
X243919Y51500D01*
X243874Y51684D01*
X243835Y51871D01*
X243814Y51924D01*
X243801Y51979D01*
X243726Y52154D01*
X243657Y52331D01*
X243629Y52380D01*
X243606Y52433D01*
X243504Y52593D01*
X243408Y52757D01*
X243372Y52801D01*
X243341Y52849D01*
X243215Y52990D01*
X243093Y53137D01*
X243050Y53174D01*
X243012Y53216D01*
X242865Y53336D01*
X242721Y53461D01*
X242673Y53491D01*
X242629Y53526D01*
X242464Y53620D01*
X242302Y53720D01*
X242249Y53742D01*
X242200Y53770D01*
X242022Y53836D01*
X241846Y53909D01*
X241791Y53922D01*
X241737Y53942D01*
X241726Y53944D01*
X241783Y53950D01*
X241840Y53948D01*
X242029Y53973D01*
X242218Y53990D01*
X242273Y54005D01*
X242329Y54012D01*
X242511Y54067D01*
X242695Y54115D01*
X242747Y54138D01*
X242801Y54155D01*
X242972Y54238D01*
X243146Y54315D01*
X243193Y54347D01*
X243245Y54372D01*
X243399Y54481D01*
X243558Y54586D01*
X243600Y54624D01*
X243647Y54657D01*
X243782Y54791D01*
X243922Y54919D01*
X243949Y54956D01*
X243998Y55004D01*
X244225Y55316D01*
X244240Y55335D01*
X244246Y55344D01*
X244288Y55403D01*
X244309Y55443D01*
X244327Y55468D01*
X244467Y55710D01*
X244650Y55893D01*
X244699Y55951D01*
X244755Y56004D01*
X244859Y56139D01*
X244970Y56269D01*
X245009Y56335D01*
X245055Y56395D01*
X245136Y56545D01*
X245224Y56692D01*
X245253Y56763D01*
X245289Y56830D01*
X245344Y56991D01*
X245407Y57150D01*
X245424Y57224D01*
X245449Y57297D01*
X245477Y57465D01*
X245514Y57632D01*
X245518Y57708D01*
X245531Y57783D01*
X245532Y57953D01*
X245542Y58124D01*
X245534Y58200D01*
X245534Y58276D01*
X245508Y58445D01*
X245490Y58615D01*
X245469Y58688D01*
X245457Y58764D01*
X245404Y58926D01*
X245359Y59090D01*
X245327Y59160D01*
X245303Y59232D01*
X245229Y59374D01*
X245229Y66639D01*
X245226Y66677D01*
X245228Y66716D01*
X245206Y66924D01*
X245189Y67131D01*
X245180Y67168D01*
X245176Y67206D01*
X245121Y67408D01*
X245071Y67610D01*
X245056Y67645D01*
X245045Y67682D01*
X244958Y67872D01*
X244876Y68063D01*
X244856Y68096D01*
X244840Y68130D01*
X244723Y68304D01*
X244611Y68479D01*
X244586Y68508D01*
X244564Y68540D01*
X244421Y68692D01*
X244282Y68847D01*
X244253Y68871D01*
X244226Y68899D01*
X244061Y69026D01*
X243898Y69157D01*
X243865Y69176D01*
X243835Y69199D01*
X243651Y69298D01*
X243470Y69401D01*
X243434Y69415D01*
X243400Y69433D01*
X243203Y69500D01*
X243007Y69573D01*
X242970Y69580D01*
X242934Y69593D01*
X242728Y69627D01*
X242523Y69668D01*
X242485Y69669D01*
X242447Y69675D01*
X242238Y69676D01*
X242030Y69683D01*
X241992Y69678D01*
X241954Y69678D01*
X241748Y69646D01*
X241541Y69618D01*
X241504Y69607D01*
X241467Y69601D01*
X241268Y69536D01*
X241069Y69476D01*
X241034Y69459D01*
X240998Y69447D01*
X240812Y69351D01*
X240625Y69259D01*
X240594Y69237D01*
X240560Y69219D01*
X240488Y69161D01*
X240223Y68974D01*
X240101Y68853D01*
X240027Y68794D01*
X239533Y68300D01*
X239459Y68213D01*
X239378Y68133D01*
X239300Y68025D01*
X239214Y67924D01*
X239155Y67826D01*
X239088Y67734D01*
X239028Y67615D01*
X238959Y67502D01*
X238917Y67395D01*
X238865Y67294D01*
X238825Y67167D01*
X238776Y67043D01*
X238751Y66932D01*
X238717Y66823D01*
X238707Y66730D01*
X238669Y66562D01*
X238651Y66238D01*
X238641Y66145D01*
X238641Y63599D01*
X228802Y63599D01*
X228726Y63593D01*
X228650Y63595D01*
X228573Y63585D01*
X228503Y63587D01*
X228398Y63599D01*
X218559Y63599D01*
X218559Y64262D01*
X218553Y64338D01*
X218555Y64414D01*
X218533Y64583D01*
X218519Y64754D01*
X218501Y64828D01*
X218491Y64903D01*
X218442Y65067D01*
X218401Y65233D01*
X218371Y65302D01*
X218349Y65376D01*
X218273Y65529D01*
X218206Y65686D01*
X218165Y65750D01*
X218132Y65819D01*
X218033Y65958D01*
X217941Y66102D01*
X217890Y66159D01*
X217846Y66221D01*
X217726Y66342D01*
X217612Y66470D01*
X217553Y66518D01*
X217499Y66572D01*
X217362Y66672D01*
X217229Y66780D01*
X217162Y66818D01*
X217101Y66862D01*
X216948Y66939D01*
X216800Y67024D01*
X216728Y67050D01*
X216660Y67085D01*
X216497Y67136D01*
X216337Y67195D01*
X216262Y67210D01*
X216190Y67233D01*
X216085Y67245D01*
X215853Y67290D01*
X215617Y67297D01*
X215512Y67309D01*
X213135Y67309D01*
X213021Y67300D01*
X212907Y67301D01*
X212775Y67280D01*
X212643Y67269D01*
X212532Y67242D01*
X212419Y67224D01*
X212293Y67183D01*
X212164Y67151D01*
X212059Y67106D01*
X211951Y67070D01*
X211833Y67008D01*
X211711Y66956D01*
X211614Y66895D01*
X211513Y66842D01*
X211440Y66783D01*
X211295Y66691D01*
X211052Y66475D01*
X210980Y66417D01*
X182216Y37652D01*
X182209Y37645D01*
X182202Y37639D01*
X182049Y37456D01*
X181896Y37276D01*
X181891Y37268D01*
X181885Y37261D01*
X181865Y37226D01*
X181641Y36854D01*
X181593Y36732D01*
X181555Y36664D01*
X180795Y34829D01*
X179801Y33835D01*
X178503Y33297D01*
X177097Y33297D01*
X175799Y33835D01*
X174738Y34896D01*
X174718Y34934D01*
X174712Y34942D01*
X174708Y34951D01*
X174683Y34983D01*
X174425Y35331D01*
X174331Y35423D01*
X174283Y35484D01*
X173989Y35778D01*
X173989Y37882D01*
X174283Y38176D01*
X174289Y38183D01*
X174296Y38190D01*
X174450Y38373D01*
X174602Y38552D01*
X174607Y38560D01*
X174613Y38568D01*
X174633Y38603D01*
X174718Y38744D01*
X175799Y39825D01*
X177634Y40585D01*
X177642Y40589D01*
X177652Y40592D01*
X177864Y40703D01*
X178073Y40810D01*
X178080Y40816D01*
X178089Y40820D01*
X178121Y40846D01*
X178470Y41103D01*
X178561Y41197D01*
X178622Y41246D01*
X209768Y72391D01*
X216782Y72391D01*
X216858Y72397D01*
X216934Y72395D01*
X217103Y72417D01*
X217274Y72431D01*
X217348Y72449D01*
X217423Y72459D01*
X217587Y72508D01*
X217753Y72549D01*
X217822Y72579D01*
X217896Y72601D01*
X218049Y72677D01*
X218206Y72744D01*
X218270Y72785D01*
X218339Y72818D01*
X218478Y72917D01*
X218622Y73009D01*
X218679Y73060D01*
X218741Y73104D01*
X218862Y73224D01*
X218990Y73338D01*
X219038Y73397D01*
X219092Y73451D01*
X219193Y73589D01*
X219300Y73722D01*
X219337Y73788D01*
X219382Y73849D01*
X219459Y74002D01*
X219544Y74150D01*
X219570Y74222D01*
X219605Y74290D01*
X219656Y74453D01*
X219715Y74613D01*
X219730Y74688D01*
X219753Y74760D01*
X219765Y74865D01*
X219810Y75097D01*
X219817Y75333D01*
X219829Y75438D01*
X219829Y86376D01*
X220574Y87121D01*
X221742Y87121D01*
X221818Y87127D01*
X221894Y87125D01*
X222063Y87147D01*
X222234Y87161D01*
X222308Y87179D01*
X222383Y87189D01*
X222547Y87238D01*
X222713Y87279D01*
X222782Y87309D01*
X222856Y87331D01*
X223009Y87407D01*
X223166Y87474D01*
X223230Y87515D01*
X223299Y87548D01*
X223438Y87647D01*
X223582Y87739D01*
X223639Y87790D01*
X223701Y87834D01*
X223822Y87954D01*
X223950Y88068D01*
X223998Y88127D01*
X224052Y88181D01*
X224153Y88319D01*
X224260Y88452D01*
X224297Y88518D01*
X224342Y88579D01*
X224419Y88732D01*
X224504Y88880D01*
X224530Y88952D01*
X224565Y89020D01*
X224616Y89183D01*
X224675Y89343D01*
X224690Y89418D01*
X224713Y89490D01*
X224725Y89595D01*
X224770Y89827D01*
X224777Y90063D01*
X224789Y90168D01*
X224789Y91982D01*
X224783Y92058D01*
X224785Y92134D01*
X224763Y92303D01*
X224749Y92474D01*
X224731Y92548D01*
X224721Y92623D01*
X224672Y92787D01*
X224631Y92953D01*
X224601Y93022D01*
X224579Y93096D01*
X224503Y93249D01*
X224436Y93406D01*
X224395Y93470D01*
X224362Y93539D01*
X224263Y93678D01*
X224171Y93822D01*
X224120Y93879D01*
X224076Y93941D01*
X223956Y94062D01*
X223842Y94190D01*
X223783Y94238D01*
X223729Y94292D01*
X223591Y94393D01*
X223458Y94500D01*
X223392Y94537D01*
X223331Y94582D01*
X223178Y94659D01*
X223030Y94744D01*
X222958Y94770D01*
X222890Y94805D01*
X222727Y94856D01*
X222567Y94915D01*
X222492Y94930D01*
X222420Y94953D01*
X222315Y94965D01*
X222083Y95010D01*
X221847Y95017D01*
X221742Y95029D01*
X217834Y95029D01*
X217089Y95774D01*
X217089Y114739D01*
X217080Y114853D01*
X217081Y114967D01*
X217060Y115099D01*
X217049Y115231D01*
X217022Y115342D01*
X217004Y115455D01*
X216963Y115581D01*
X216931Y115710D01*
X216886Y115815D01*
X216850Y115923D01*
X216788Y116041D01*
X216736Y116163D01*
X216675Y116259D01*
X216622Y116361D01*
X216563Y116434D01*
X216471Y116579D01*
X216255Y116822D01*
X216197Y116894D01*
X207744Y125347D01*
X207657Y125421D01*
X207577Y125502D01*
X207469Y125580D01*
X207368Y125666D01*
X207270Y125725D01*
X207178Y125792D01*
X207060Y125852D01*
X206946Y125921D01*
X206839Y125963D01*
X206738Y126015D01*
X206611Y126055D01*
X206487Y126104D01*
X206376Y126129D01*
X206267Y126163D01*
X206174Y126173D01*
X206006Y126211D01*
X205682Y126229D01*
X205589Y126239D01*
X203351Y126239D01*
X203237Y126230D01*
X203123Y126231D01*
X202991Y126210D01*
X202859Y126199D01*
X202748Y126172D01*
X202635Y126154D01*
X202509Y126113D01*
X202380Y126081D01*
X202275Y126036D01*
X202167Y126000D01*
X202049Y125938D01*
X201927Y125886D01*
X201831Y125825D01*
X201729Y125772D01*
X201656Y125713D01*
X201511Y125621D01*
X201268Y125405D01*
X201196Y125347D01*
X200279Y124429D01*
X198878Y123849D01*
X195968Y123849D01*
X195892Y123843D01*
X195816Y123845D01*
X195647Y123823D01*
X195476Y123809D01*
X195402Y123791D01*
X195327Y123781D01*
X195163Y123732D01*
X194997Y123691D01*
X194928Y123661D01*
X194854Y123639D01*
X194701Y123563D01*
X194544Y123496D01*
X194480Y123455D01*
X194411Y123422D01*
X194272Y123323D01*
X194128Y123231D01*
X194071Y123180D01*
X194009Y123136D01*
X193888Y123016D01*
X193760Y122902D01*
X193712Y122843D01*
X193658Y122789D01*
X193557Y122651D01*
X193450Y122518D01*
X193413Y122452D01*
X193368Y122391D01*
X193291Y122238D01*
X193206Y122090D01*
X193180Y122018D01*
X193145Y121950D01*
X193094Y121787D01*
X193035Y121627D01*
X193020Y121552D01*
X192997Y121480D01*
X192985Y121375D01*
X192940Y121143D01*
X192933Y120907D01*
X192921Y120802D01*
X192921Y120634D01*
X192176Y119889D01*
X176124Y119889D01*
X175379Y120634D01*
X175379Y134918D01*
X175403Y134977D01*
X175439Y135044D01*
X175494Y135205D01*
X175557Y135364D01*
X175574Y135438D01*
X175599Y135510D01*
X175627Y135679D01*
X175664Y135845D01*
X175668Y135922D01*
X175681Y135997D01*
X175682Y136167D01*
X175692Y136338D01*
X175684Y136414D01*
X175684Y136490D01*
X175658Y136659D01*
X175640Y136829D01*
X175619Y136902D01*
X175607Y136977D01*
X175554Y137140D01*
X175509Y137304D01*
X175477Y137374D01*
X175453Y137446D01*
X175374Y137598D01*
X175303Y137753D01*
X175261Y137816D01*
X175225Y137884D01*
X175160Y137966D01*
X175028Y138162D01*
X174980Y138212D01*
X174962Y138239D01*
X174860Y138342D01*
X174800Y138417D01*
X174617Y138600D01*
X174282Y139179D01*
X174109Y139825D01*
X174109Y145789D01*
X174098Y145931D01*
X174096Y146074D01*
X174078Y146177D01*
X174069Y146281D01*
X174035Y146419D01*
X174010Y146560D01*
X173976Y146659D01*
X173951Y146760D01*
X173894Y146891D01*
X173847Y147025D01*
X173797Y147117D01*
X173756Y147213D01*
X173680Y147333D01*
X173611Y147459D01*
X173547Y147541D01*
X173491Y147629D01*
X173396Y147736D01*
X173309Y147848D01*
X173232Y147919D01*
X173162Y147997D01*
X173051Y148087D01*
X172947Y148184D01*
X172860Y148242D01*
X172778Y148307D01*
X172655Y148378D01*
X172536Y148456D01*
X172441Y148499D01*
X172350Y148551D01*
X172247Y148589D01*
X172269Y148600D01*
X172367Y148637D01*
X172491Y148708D01*
X172619Y148771D01*
X172704Y148831D01*
X172794Y148884D01*
X172905Y148974D01*
X173021Y149057D01*
X173095Y149130D01*
X173176Y149196D01*
X173271Y149303D01*
X173372Y149403D01*
X173433Y149488D01*
X173503Y149566D01*
X173578Y149687D01*
X173662Y149802D01*
X173709Y149895D01*
X173765Y149984D01*
X173820Y150115D01*
X173885Y150242D01*
X173916Y150342D01*
X173957Y150438D01*
X173990Y150577D01*
X174033Y150713D01*
X174042Y150791D01*
X174072Y150918D01*
X174105Y151351D01*
X174109Y151391D01*
X174109Y153495D01*
X174282Y154141D01*
X174617Y154720D01*
X175090Y155193D01*
X175669Y155528D01*
X176315Y155701D01*
X180901Y155701D01*
X180901Y146862D01*
X180907Y146786D01*
X180905Y146710D01*
X180927Y146541D01*
X180941Y146370D01*
X180959Y146297D01*
X180969Y146221D01*
X181018Y146057D01*
X181059Y145892D01*
X181089Y145822D01*
X181111Y145749D01*
X181187Y145595D01*
X181254Y145438D01*
X181295Y145374D01*
X181328Y145306D01*
X181427Y145166D01*
X181519Y145022D01*
X181570Y144965D01*
X181614Y144903D01*
X181734Y144782D01*
X181848Y144654D01*
X181907Y144606D01*
X181960Y144552D01*
X182099Y144452D01*
X182231Y144344D01*
X182298Y144307D01*
X182359Y144262D01*
X182512Y144185D01*
X182660Y144100D01*
X182732Y144074D01*
X182800Y144040D01*
X182963Y143988D01*
X183123Y143929D01*
X183197Y143914D01*
X183270Y143891D01*
X183375Y143879D01*
X183607Y143834D01*
X183843Y143827D01*
X183948Y143815D01*
X184352Y143815D01*
X184428Y143821D01*
X184504Y143819D01*
X184673Y143841D01*
X184844Y143855D01*
X184918Y143873D01*
X184993Y143883D01*
X185157Y143933D01*
X185323Y143974D01*
X185392Y144004D01*
X185466Y144026D01*
X185619Y144101D01*
X185776Y144168D01*
X185840Y144209D01*
X185909Y144243D01*
X186048Y144341D01*
X186192Y144433D01*
X186249Y144484D01*
X186311Y144528D01*
X186432Y144648D01*
X186560Y144762D01*
X186608Y144821D01*
X186662Y144875D01*
X186763Y145013D01*
X186870Y145146D01*
X186907Y145212D01*
X186952Y145274D01*
X187029Y145426D01*
X187114Y145575D01*
X187140Y145646D01*
X187175Y145714D01*
X187226Y145877D01*
X187285Y146037D01*
X187300Y146112D01*
X187323Y146184D01*
X187335Y146289D01*
X187380Y146521D01*
X187387Y146757D01*
X187399Y146862D01*
X187399Y155701D01*
X191382Y155701D01*
X191458Y155707D01*
X191534Y155705D01*
X191703Y155727D01*
X191874Y155741D01*
X191948Y155759D01*
X192023Y155769D01*
X192187Y155818D01*
X192353Y155859D01*
X192422Y155889D01*
X192496Y155911D01*
X192649Y155987D01*
X192806Y156054D01*
X192870Y156095D01*
X192939Y156128D01*
X193078Y156227D01*
X193222Y156319D01*
X193279Y156370D01*
X193341Y156414D01*
X193462Y156534D01*
X193590Y156648D01*
X193638Y156707D01*
X193692Y156761D01*
X193793Y156899D01*
X193900Y157032D01*
X193937Y157098D01*
X193982Y157159D01*
X194059Y157312D01*
X194144Y157460D01*
X194170Y157532D01*
X194205Y157600D01*
X194256Y157763D01*
X194315Y157923D01*
X194330Y157998D01*
X194353Y158070D01*
X194365Y158175D01*
X194410Y158407D01*
X194417Y158643D01*
X194429Y158748D01*
X194429Y159845D01*
X194602Y160491D01*
X194937Y161070D01*
X195410Y161543D01*
X195989Y161878D01*
X196635Y162051D01*
X201221Y162051D01*
X201221Y153212D01*
X201227Y153136D01*
X201225Y153060D01*
X201247Y152891D01*
X201261Y152720D01*
X201279Y152647D01*
X201289Y152571D01*
X201338Y152407D01*
X201379Y152242D01*
X201409Y152172D01*
X201431Y152099D01*
X201507Y151945D01*
X201574Y151788D01*
X201615Y151724D01*
X201648Y151656D01*
X201747Y151516D01*
X201839Y151372D01*
X201890Y151315D01*
X201934Y151253D01*
X202054Y151132D01*
X202168Y151004D01*
X202227Y150956D01*
X202280Y150902D01*
X202419Y150802D01*
X202551Y150694D01*
X202618Y150657D01*
X202679Y150612D01*
X202832Y150535D01*
X202980Y150450D01*
X203052Y150424D01*
X203120Y150390D01*
X203283Y150338D01*
X203443Y150279D01*
X203517Y150264D01*
X203590Y150241D01*
X203695Y150229D01*
X203927Y150184D01*
X204163Y150177D01*
X204268Y150165D01*
X204672Y150165D01*
X204748Y150171D01*
X204824Y150169D01*
X204993Y150191D01*
X205164Y150205D01*
X205238Y150223D01*
X205313Y150233D01*
X205477Y150283D01*
X205643Y150324D01*
X205712Y150354D01*
X205786Y150376D01*
X205939Y150451D01*
X206096Y150518D01*
X206160Y150559D01*
X206229Y150593D01*
X206368Y150691D01*
X206512Y150783D01*
X206569Y150834D01*
X206631Y150878D01*
X206752Y150998D01*
X206880Y151112D01*
X206928Y151171D01*
X206982Y151225D01*
X207083Y151363D01*
X207190Y151496D01*
X207227Y151562D01*
X207272Y151624D01*
X207349Y151776D01*
X207434Y151925D01*
X207460Y151996D01*
X207495Y152064D01*
X207546Y152227D01*
X207605Y152387D01*
X207620Y152462D01*
X207643Y152534D01*
X207655Y152639D01*
X207700Y152871D01*
X207707Y153107D01*
X207719Y153212D01*
X207719Y162051D01*
X212305Y162051D01*
X212951Y161878D01*
X213625Y161488D01*
X213733Y161397D01*
X213766Y161377D01*
X213796Y161353D01*
X213977Y161250D01*
X214155Y161142D01*
X214191Y161128D01*
X214224Y161109D01*
X214420Y161036D01*
X214613Y160959D01*
X214651Y160951D01*
X214687Y160937D01*
X214892Y160897D01*
X215095Y160852D01*
X215133Y160850D01*
X215171Y160842D01*
X215379Y160836D01*
X215588Y160824D01*
X215626Y160828D01*
X215664Y160827D01*
X215870Y160854D01*
X216078Y160876D01*
X216115Y160887D01*
X216153Y160892D01*
X216353Y160952D01*
X216554Y161007D01*
X216589Y161023D01*
X216626Y161034D01*
X216813Y161126D01*
X217002Y161213D01*
X217034Y161234D01*
X217069Y161251D01*
X217239Y161372D01*
X217412Y161488D01*
X217440Y161514D01*
X217471Y161536D01*
X217619Y161683D01*
X217771Y161826D01*
X217795Y161856D01*
X217822Y161883D01*
X217944Y162051D01*
X218072Y162217D01*
X218090Y162251D01*
X218112Y162282D01*
X218206Y162468D01*
X218305Y162652D01*
X218317Y162688D01*
X218335Y162722D01*
X218397Y162922D01*
X218465Y163118D01*
X218471Y163156D01*
X218483Y163193D01*
X218493Y163286D01*
X218548Y163605D01*
X218549Y163777D01*
X218559Y163871D01*
X218559Y165001D01*
X228398Y165001D01*
X228474Y165007D01*
X228550Y165005D01*
X228627Y165015D01*
X228697Y165013D01*
X228802Y165001D01*
X238641Y165001D01*
X238641Y161415D01*
X238468Y160769D01*
X238133Y160190D01*
X237950Y160007D01*
X237901Y159949D01*
X237845Y159896D01*
X237741Y159761D01*
X237630Y159631D01*
X237591Y159565D01*
X237545Y159505D01*
X237464Y159355D01*
X237376Y159208D01*
X237347Y159137D01*
X237311Y159070D01*
X237256Y158908D01*
X237193Y158750D01*
X237176Y158676D01*
X237151Y158603D01*
X237123Y158435D01*
X237086Y158268D01*
X237082Y158192D01*
X237069Y158117D01*
X237068Y157947D01*
X237058Y157776D01*
X237066Y157700D01*
X237066Y157624D01*
X237092Y157455D01*
X237110Y157285D01*
X237131Y157212D01*
X237143Y157136D01*
X237196Y156974D01*
X237241Y156810D01*
X237273Y156740D01*
X237297Y156668D01*
X237371Y156526D01*
X237371Y142224D01*
X236626Y141479D01*
X236218Y141479D01*
X236142Y141473D01*
X236066Y141475D01*
X235897Y141453D01*
X235726Y141439D01*
X235652Y141421D01*
X235577Y141411D01*
X235413Y141362D01*
X235247Y141321D01*
X235178Y141291D01*
X235104Y141269D01*
X234951Y141193D01*
X234794Y141126D01*
X234730Y141085D01*
X234661Y141052D01*
X234522Y140953D01*
X234378Y140861D01*
X234321Y140810D01*
X234259Y140766D01*
X234138Y140646D01*
X234010Y140532D01*
X233962Y140473D01*
X233908Y140419D01*
X233807Y140281D01*
X233700Y140148D01*
X233663Y140082D01*
X233618Y140021D01*
X233541Y139868D01*
X233456Y139720D01*
X233430Y139648D01*
X233395Y139580D01*
X233344Y139417D01*
X233285Y139257D01*
X233270Y139182D01*
X233247Y139110D01*
X233235Y139005D01*
X233190Y138773D01*
X233183Y138537D01*
X233171Y138432D01*
X233171Y136618D01*
X233177Y136542D01*
X233175Y136466D01*
X233197Y136296D01*
X233211Y136126D01*
X233229Y136052D01*
X233239Y135977D01*
X233288Y135813D01*
X233329Y135647D01*
X233359Y135578D01*
X233381Y135504D01*
X233457Y135351D01*
X233524Y135194D01*
X233565Y135130D01*
X233598Y135061D01*
X233697Y134922D01*
X233789Y134778D01*
X233840Y134721D01*
X233884Y134659D01*
X234004Y134538D01*
X234118Y134410D01*
X234177Y134362D01*
X234231Y134308D01*
X234369Y134207D01*
X234502Y134100D01*
X234568Y134063D01*
X234629Y134018D01*
X234782Y133941D01*
X234930Y133856D01*
X235002Y133830D01*
X235070Y133795D01*
X235233Y133744D01*
X235393Y133685D01*
X235468Y133670D01*
X235540Y133647D01*
X235645Y133635D01*
X235877Y133590D01*
X236113Y133583D01*
X236218Y133571D01*
X240886Y133571D01*
X241631Y132826D01*
X241631Y124443D01*
X241634Y124406D01*
X241632Y124367D01*
X241654Y124159D01*
X241671Y123952D01*
X241680Y123915D01*
X241684Y123877D01*
X241739Y123675D01*
X241789Y123473D01*
X241804Y123438D01*
X241815Y123401D01*
X241902Y123211D01*
X241984Y123020D01*
X242004Y122987D01*
X242020Y122953D01*
X242137Y122779D01*
X242249Y122603D01*
X242274Y122575D01*
X242296Y122543D01*
X242439Y122391D01*
X242578Y122236D01*
X242607Y122212D01*
X242634Y122184D01*
X242800Y122056D01*
X242962Y121926D01*
X242995Y121907D01*
X243025Y121884D01*
X243209Y121785D01*
X243390Y121682D01*
X243426Y121668D01*
X243460Y121650D01*
X243657Y121583D01*
X243853Y121510D01*
X243890Y121503D01*
X243926Y121490D01*
X244132Y121455D01*
X244337Y121415D01*
X244375Y121414D01*
X244413Y121408D01*
X244622Y121406D01*
X244830Y121400D01*
X244868Y121405D01*
X244906Y121405D01*
X245112Y121437D01*
X245319Y121464D01*
X245356Y121475D01*
X245393Y121481D01*
X245591Y121547D01*
X245791Y121607D01*
X245826Y121624D01*
X245862Y121636D01*
X246048Y121732D01*
X246235Y121824D01*
X246266Y121846D01*
X246300Y121864D01*
X246372Y121922D01*
X246637Y122109D01*
X246759Y122230D01*
X246833Y122289D01*
X246919Y122375D01*
X248217Y122913D01*
X249623Y122913D01*
X250921Y122375D01*
X251915Y121381D01*
X252490Y119992D01*
X252590Y119797D01*
X252686Y119601D01*
X252702Y119578D01*
X252715Y119553D01*
X252845Y119377D01*
X252971Y119199D01*
X252991Y119179D01*
X253008Y119156D01*
X253165Y119003D01*
X253318Y118848D01*
X253341Y118831D01*
X253362Y118811D01*
X253541Y118686D01*
X253717Y118558D01*
X253742Y118545D01*
X253766Y118529D01*
X253963Y118434D01*
X254157Y118335D01*
X254184Y118327D01*
X254210Y118314D01*
X254420Y118253D01*
X254628Y118187D01*
X254651Y118184D01*
X254683Y118175D01*
X255173Y118114D01*
X255253Y118117D01*
X255306Y118111D01*
X275844Y118111D01*
X275920Y118117D01*
X275996Y118115D01*
X276165Y118137D01*
X276336Y118151D01*
X276410Y118169D01*
X276485Y118179D01*
X276649Y118228D01*
X276815Y118269D01*
X276884Y118299D01*
X276958Y118321D01*
X277111Y118397D01*
X277268Y118464D01*
X277332Y118505D01*
X277401Y118538D01*
X277540Y118637D01*
X277684Y118729D01*
X277741Y118780D01*
X277803Y118824D01*
X277924Y118944D01*
X278052Y119058D01*
X278100Y119117D01*
X278154Y119171D01*
X278255Y119309D01*
X278362Y119442D01*
X278399Y119508D01*
X278444Y119569D01*
X278521Y119722D01*
X278606Y119870D01*
X278632Y119942D01*
X278667Y120010D01*
X278718Y120173D01*
X278777Y120333D01*
X278792Y120408D01*
X278815Y120480D01*
X278827Y120585D01*
X278872Y120817D01*
X278875Y120906D01*
X279636Y121667D01*
X303091Y121667D01*
X303130Y121633D01*
X303195Y121594D01*
X303256Y121548D01*
X303406Y121467D01*
X303553Y121379D01*
X303623Y121351D01*
X303691Y121314D01*
X303852Y121259D01*
X304011Y121196D01*
X304085Y121179D01*
X304157Y121154D01*
X304325Y121126D01*
X304492Y121089D01*
X304569Y121085D01*
X304644Y121072D01*
X304814Y121071D01*
X304985Y121061D01*
X305061Y121069D01*
X305137Y121069D01*
X305306Y121095D01*
X305476Y121113D01*
X305549Y121134D01*
X305624Y121145D01*
X305787Y121199D01*
X305951Y121244D01*
X306020Y121276D01*
X306093Y121300D01*
X306244Y121379D01*
X306400Y121450D01*
X306463Y121492D01*
X306531Y121528D01*
X306613Y121593D01*
X306809Y121725D01*
X306981Y121887D01*
X307064Y121953D01*
X308987Y123876D01*
X309061Y123963D01*
X309142Y124043D01*
X309220Y124150D01*
X309306Y124252D01*
X309365Y124350D01*
X309432Y124442D01*
X309492Y124561D01*
X309561Y124674D01*
X309603Y124781D01*
X309655Y124882D01*
X309695Y125009D01*
X309744Y125133D01*
X309769Y125244D01*
X309803Y125353D01*
X309813Y125446D01*
X309851Y125614D01*
X309869Y125938D01*
X309879Y126031D01*
X309879Y127733D01*
X309876Y127771D01*
X309878Y127810D01*
X309856Y128017D01*
X309839Y128225D01*
X309830Y128262D01*
X309826Y128300D01*
X309771Y128501D01*
X309721Y128704D01*
X309706Y128739D01*
X309695Y128776D01*
X309608Y128965D01*
X309526Y129157D01*
X309506Y129190D01*
X309490Y129224D01*
X309373Y129397D01*
X309261Y129573D01*
X309236Y129602D01*
X309214Y129634D01*
X309072Y129785D01*
X308932Y129941D01*
X308903Y129965D01*
X308876Y129993D01*
X308711Y130120D01*
X308548Y130251D01*
X308515Y130270D01*
X308485Y130293D01*
X308301Y130392D01*
X308120Y130495D01*
X308084Y130509D01*
X308050Y130527D01*
X307853Y130594D01*
X307657Y130667D01*
X307620Y130674D01*
X307584Y130687D01*
X307378Y130722D01*
X307173Y130762D01*
X307135Y130763D01*
X307097Y130769D01*
X306888Y130770D01*
X306680Y130777D01*
X306642Y130772D01*
X306604Y130772D01*
X306397Y130740D01*
X306191Y130712D01*
X306154Y130701D01*
X306117Y130696D01*
X305919Y130630D01*
X305719Y130570D01*
X305684Y130553D01*
X305648Y130541D01*
X305463Y130445D01*
X305275Y130353D01*
X305244Y130331D01*
X305210Y130313D01*
X305138Y130255D01*
X304873Y130068D01*
X304751Y129947D01*
X304677Y129888D01*
X304074Y129285D01*
X303495Y128950D01*
X302849Y128777D01*
X294385Y128777D01*
X294385Y137414D01*
X294385Y146051D01*
X299906Y146051D01*
X300039Y146062D01*
X300172Y146062D01*
X300284Y146081D01*
X300398Y146091D01*
X300527Y146123D01*
X300659Y146145D01*
X300766Y146182D01*
X300877Y146209D01*
X300999Y146262D01*
X301125Y146305D01*
X301226Y146359D01*
X301330Y146404D01*
X301443Y146475D01*
X301560Y146538D01*
X301650Y146608D01*
X301746Y146669D01*
X301846Y146758D01*
X301951Y146839D01*
X302029Y146922D01*
X302114Y146998D01*
X302198Y147101D01*
X302289Y147198D01*
X302353Y147293D01*
X302424Y147382D01*
X302490Y147497D01*
X302564Y147608D01*
X302612Y147711D01*
X302668Y147810D01*
X302714Y147935D01*
X302770Y148056D01*
X302800Y148166D01*
X302840Y148273D01*
X302865Y148404D01*
X302901Y148532D01*
X302913Y148645D01*
X302934Y148757D01*
X302939Y148890D01*
X302953Y149022D01*
X302946Y149136D01*
X302950Y149250D01*
X302932Y149382D01*
X302925Y149515D01*
X302900Y149626D01*
X302885Y149739D01*
X302847Y149867D01*
X302818Y149997D01*
X302784Y150074D01*
X302743Y150211D01*
X302572Y150562D01*
X302555Y150599D01*
X302379Y151255D01*
X302379Y154841D01*
X312218Y154841D01*
X312294Y154847D01*
X312370Y154845D01*
X312539Y154867D01*
X312710Y154881D01*
X312783Y154899D01*
X312859Y154909D01*
X313023Y154958D01*
X313188Y154999D01*
X313258Y155029D01*
X313331Y155051D01*
X313485Y155127D01*
X313642Y155194D01*
X313706Y155235D01*
X313774Y155268D01*
X313914Y155367D01*
X314058Y155459D01*
X314115Y155510D01*
X314177Y155554D01*
X314298Y155674D01*
X314426Y155788D01*
X314474Y155847D01*
X314528Y155900D01*
X314558Y155941D01*
X314581Y155958D01*
X314702Y156078D01*
X314830Y156192D01*
X314878Y156251D01*
X314932Y156305D01*
X315033Y156443D01*
X315140Y156576D01*
X315177Y156642D01*
X315222Y156704D01*
X315299Y156856D01*
X315384Y157005D01*
X315410Y157076D01*
X315445Y157144D01*
X315496Y157307D01*
X315555Y157467D01*
X315570Y157542D01*
X315593Y157614D01*
X315605Y157719D01*
X315650Y157951D01*
X315657Y158187D01*
X315669Y158292D01*
X315669Y167131D01*
X320255Y167131D01*
X320901Y166958D01*
X321480Y166623D01*
X321953Y166150D01*
X322288Y165571D01*
X322461Y164925D01*
X322461Y164617D01*
X322464Y164571D01*
X322462Y164526D01*
X322484Y164326D01*
X322501Y164125D01*
X322512Y164081D01*
X322517Y164035D01*
X322571Y163842D01*
X322619Y163647D01*
X322638Y163604D01*
X322650Y163560D01*
X322735Y163378D01*
X322814Y163193D01*
X322839Y163155D01*
X322858Y163113D01*
X322971Y162946D01*
X323079Y162777D01*
X323109Y162743D01*
X323135Y162705D01*
X323274Y162559D01*
X323408Y162409D01*
X323443Y162380D01*
X323475Y162347D01*
X323635Y162226D01*
X323792Y162099D01*
X323831Y162077D01*
X323868Y162049D01*
X324045Y161955D01*
X324220Y161855D01*
X324263Y161839D01*
X324304Y161818D01*
X324494Y161754D01*
X324683Y161684D01*
X324728Y161675D01*
X324771Y161660D01*
X324970Y161628D01*
X325167Y161589D01*
X325213Y161588D01*
X325258Y161580D01*
X325460Y161580D01*
X325660Y161574D01*
X325705Y161580D01*
X325751Y161580D01*
X325950Y161612D01*
X326149Y161638D01*
X326193Y161651D01*
X326238Y161659D01*
X326429Y161723D01*
X326621Y161781D01*
X326663Y161801D01*
X326706Y161815D01*
X326792Y161864D01*
X327065Y161998D01*
X327215Y162104D01*
X327299Y162152D01*
X327632Y162394D01*
X329271Y163229D01*
X331020Y163797D01*
X332836Y164085D01*
X339853Y164085D01*
X339853Y152400D01*
X339859Y152324D01*
X339856Y152248D01*
X339879Y152079D01*
X339893Y151909D01*
X339911Y151835D01*
X339921Y151759D01*
X339970Y151595D01*
X340011Y151430D01*
X340041Y151360D01*
X340063Y151287D01*
X340138Y151133D01*
X340206Y150976D01*
X340247Y150912D01*
X340280Y150844D01*
X340379Y150704D01*
X340471Y150560D01*
X340522Y150504D01*
X340566Y150441D01*
X340686Y150320D01*
X340800Y150192D01*
X340859Y150145D01*
X340912Y150090D01*
X341051Y149990D01*
X341183Y149883D01*
X341250Y149845D01*
X341311Y149800D01*
X341464Y149723D01*
X341612Y149639D01*
X341684Y149612D01*
X341752Y149578D01*
X341914Y149526D01*
X342075Y149467D01*
X342149Y149452D01*
X342222Y149429D01*
X342327Y149418D01*
X342559Y149372D01*
X342795Y149365D01*
X342900Y149353D01*
X342976Y149359D01*
X343052Y149357D01*
X343221Y149379D01*
X343392Y149393D01*
X343466Y149411D01*
X343541Y149421D01*
X343705Y149471D01*
X343871Y149512D01*
X343941Y149542D01*
X344014Y149564D01*
X344167Y149639D01*
X344324Y149706D01*
X344388Y149747D01*
X344457Y149781D01*
X344596Y149880D01*
X344740Y149971D01*
X344797Y150022D01*
X344859Y150066D01*
X344981Y150186D01*
X345108Y150300D01*
X345156Y150359D01*
X345210Y150413D01*
X345311Y150551D01*
X345418Y150684D01*
X345456Y150750D01*
X345500Y150812D01*
X345577Y150964D01*
X345662Y151113D01*
X345688Y151184D01*
X345723Y151252D01*
X345774Y151415D01*
X345834Y151575D01*
X345848Y151650D01*
X345871Y151723D01*
X345883Y151827D01*
X345928Y152059D01*
X345936Y152295D01*
X345947Y152400D01*
X345947Y164085D01*
X346409Y164085D01*
X346447Y164088D01*
X346485Y164086D01*
X346693Y164108D01*
X346901Y164125D01*
X346938Y164134D01*
X346976Y164138D01*
X347177Y164193D01*
X347380Y164243D01*
X347415Y164258D01*
X347452Y164269D01*
X347642Y164356D01*
X347833Y164438D01*
X347865Y164458D01*
X347900Y164474D01*
X348074Y164591D01*
X348249Y164703D01*
X348278Y164728D01*
X348309Y164750D01*
X348461Y164893D01*
X348617Y165032D01*
X348641Y165061D01*
X348669Y165087D01*
X348796Y165253D01*
X348927Y165416D01*
X348946Y165449D01*
X348969Y165479D01*
X349068Y165663D01*
X349171Y165844D01*
X349184Y165880D01*
X349202Y165914D01*
X349270Y166111D01*
X349343Y166307D01*
X349350Y166344D01*
X349362Y166380D01*
X349398Y166587D01*
X349437Y166791D01*
X349439Y166829D01*
X349445Y166867D01*
X349446Y167076D01*
X349453Y167284D01*
X349448Y167322D01*
X349448Y167360D01*
X349416Y167567D01*
X349388Y167773D01*
X349377Y167810D01*
X349371Y167847D01*
X349306Y168046D01*
X349246Y168245D01*
X349229Y168280D01*
X349217Y168316D01*
X349121Y168501D01*
X349029Y168689D01*
X349007Y168720D01*
X348989Y168754D01*
X348931Y168826D01*
X348744Y169091D01*
X348623Y169213D01*
X348564Y169287D01*
X295224Y222627D01*
X295137Y222701D01*
X295057Y222782D01*
X294949Y222860D01*
X294848Y222946D01*
X294750Y223005D01*
X294658Y223072D01*
X294540Y223132D01*
X294426Y223201D01*
X294319Y223243D01*
X294218Y223295D01*
X294091Y223335D01*
X293967Y223384D01*
X293856Y223409D01*
X293747Y223443D01*
X293654Y223453D01*
X293486Y223491D01*
X293162Y223509D01*
X293069Y223519D01*
X215380Y223519D01*
X215342Y223516D01*
X215304Y223518D01*
X215096Y223496D01*
X214888Y223479D01*
X214851Y223470D01*
X214813Y223466D01*
X214612Y223411D01*
X214410Y223361D01*
X214375Y223346D01*
X214338Y223335D01*
X214148Y223248D01*
X213956Y223166D01*
X213924Y223146D01*
X213889Y223130D01*
X213716Y223013D01*
X213540Y222901D01*
X213512Y222876D01*
X213480Y222854D01*
X213328Y222711D01*
X213172Y222572D01*
X213148Y222543D01*
X213120Y222516D01*
X212993Y222351D01*
X212862Y222188D01*
X212843Y222155D01*
X212820Y222125D01*
X212721Y221941D01*
X212618Y221760D01*
X212605Y221724D01*
X212587Y221690D01*
X212519Y221493D01*
X212447Y221297D01*
X212439Y221260D01*
X212427Y221224D01*
X212392Y221018D01*
X212352Y220813D01*
X212351Y220775D01*
X212344Y220737D01*
X212343Y220528D01*
X212337Y220320D01*
X212342Y220282D01*
X212341Y220244D01*
X212374Y220038D01*
X212401Y219831D01*
X212412Y219794D01*
X212418Y219757D01*
X212483Y219558D01*
X212544Y219359D01*
X212560Y219324D01*
X212572Y219288D01*
X212669Y219102D01*
X212760Y218915D01*
X212782Y218884D01*
X212800Y218850D01*
X212858Y218778D01*
X213046Y218513D01*
X213167Y218391D01*
X213225Y218317D01*
X213299Y218243D01*
X214885Y214416D01*
X214885Y191984D01*
X213299Y188157D01*
X210370Y185227D01*
X208831Y184589D01*
X208822Y184585D01*
X208813Y184582D01*
X208602Y184472D01*
X208392Y184364D01*
X208384Y184359D01*
X208375Y184354D01*
X208344Y184329D01*
X207995Y184071D01*
X207903Y183978D01*
X207842Y183929D01*
X200442Y176529D01*
X173765Y176529D01*
X173651Y176520D01*
X173537Y176521D01*
X173405Y176500D01*
X173273Y176489D01*
X173162Y176462D01*
X173049Y176444D01*
X172923Y176403D01*
X172794Y176371D01*
X172689Y176326D01*
X172581Y176290D01*
X172463Y176228D01*
X172341Y176176D01*
X172244Y176115D01*
X172143Y176062D01*
X172070Y176003D01*
X171925Y175911D01*
X171682Y175695D01*
X171610Y175637D01*
X168533Y172560D01*
X168459Y172473D01*
X168378Y172393D01*
X168300Y172285D01*
X168214Y172184D01*
X168155Y172086D01*
X168088Y171994D01*
X168028Y171876D01*
X167959Y171762D01*
X167917Y171655D01*
X167865Y171554D01*
X167825Y171427D01*
X167776Y171303D01*
X167751Y171192D01*
X167717Y171083D01*
X167707Y170990D01*
X167669Y170822D01*
X167651Y170498D01*
X167641Y170405D01*
X167641Y152294D01*
X167642Y152284D01*
X167641Y152274D01*
X167661Y152039D01*
X167681Y151802D01*
X167683Y151793D01*
X167684Y151783D01*
X167695Y151745D01*
X167799Y151323D01*
X167851Y151203D01*
X167873Y151128D01*
X168247Y150225D01*
X168312Y150098D01*
X168368Y149967D01*
X168424Y149879D01*
X168472Y149786D01*
X168556Y149671D01*
X168633Y149551D01*
X168703Y149473D01*
X168765Y149389D01*
X168867Y149289D01*
X168962Y149183D01*
X169043Y149117D01*
X169118Y149044D01*
X169235Y148962D01*
X169346Y148873D01*
X169436Y148821D01*
X169522Y148761D01*
X169650Y148699D01*
X169774Y148629D01*
X169872Y148593D01*
X169876Y148591D01*
X169821Y148563D01*
X169688Y148509D01*
X169599Y148455D01*
X169505Y148409D01*
X169389Y148327D01*
X169268Y148252D01*
X169188Y148184D01*
X169103Y148123D01*
X169002Y148023D01*
X168894Y147930D01*
X168826Y147850D01*
X168752Y147777D01*
X168668Y147662D01*
X168577Y147552D01*
X168539Y147484D01*
X168462Y147378D01*
X168266Y146990D01*
X168247Y146955D01*
X168095Y146589D01*
X167034Y145528D01*
X166996Y145508D01*
X166988Y145502D01*
X166979Y145498D01*
X166947Y145473D01*
X166599Y145215D01*
X166507Y145121D01*
X166446Y145073D01*
X166152Y144779D01*
X164048Y144779D01*
X163754Y145073D01*
X163747Y145079D01*
X163740Y145086D01*
X163557Y145240D01*
X163378Y145392D01*
X163370Y145397D01*
X163362Y145403D01*
X163327Y145423D01*
X163186Y145508D01*
X162105Y146589D01*
X162073Y146666D01*
X162008Y146792D01*
X161952Y146924D01*
X161896Y147012D01*
X161848Y147105D01*
X161763Y147220D01*
X161687Y147340D01*
X161617Y147418D01*
X161555Y147502D01*
X161453Y147601D01*
X161358Y147707D01*
X161277Y147773D01*
X161202Y147846D01*
X161085Y147928D01*
X160974Y148017D01*
X160884Y148069D01*
X160798Y148129D01*
X160670Y148191D01*
X160546Y148261D01*
X160448Y148298D01*
X160354Y148343D01*
X160217Y148383D01*
X160083Y148433D01*
X159980Y148453D01*
X159880Y148483D01*
X159739Y148500D01*
X159599Y148528D01*
X159495Y148531D01*
X159391Y148544D01*
X159248Y148539D01*
X159106Y148543D01*
X159002Y148529D01*
X158898Y148526D01*
X158758Y148497D01*
X158617Y148479D01*
X158517Y148448D01*
X158414Y148428D01*
X158281Y148377D01*
X158144Y148336D01*
X158051Y148290D01*
X157953Y148253D01*
X157829Y148182D01*
X157701Y148119D01*
X157616Y148059D01*
X157526Y148007D01*
X157415Y147916D01*
X157299Y147834D01*
X157225Y147760D01*
X157144Y147694D01*
X157050Y147587D01*
X156948Y147487D01*
X156887Y147403D01*
X156817Y147324D01*
X156741Y147203D01*
X156658Y147088D01*
X156611Y146995D01*
X156555Y146907D01*
X156500Y146775D01*
X156435Y146648D01*
X156404Y146548D01*
X156363Y146452D01*
X156330Y146313D01*
X156287Y146177D01*
X156278Y146099D01*
X156248Y145972D01*
X156233Y145779D01*
X156230Y145762D01*
X156228Y145716D01*
X156215Y145539D01*
X156211Y145500D01*
X156211Y120425D01*
X156220Y120311D01*
X156219Y120197D01*
X156240Y120065D01*
X156251Y119933D01*
X156278Y119822D01*
X156296Y119709D01*
X156337Y119583D01*
X156369Y119454D01*
X156414Y119349D01*
X156450Y119241D01*
X156512Y119123D01*
X156564Y119001D01*
X156625Y118904D01*
X156678Y118803D01*
X156737Y118730D01*
X156829Y118585D01*
X157045Y118342D01*
X157103Y118270D01*
X169358Y106016D01*
X169365Y106009D01*
X169371Y106002D01*
X169556Y105847D01*
X169734Y105696D01*
X169742Y105691D01*
X169749Y105685D01*
X169784Y105665D01*
X170156Y105441D01*
X170278Y105393D01*
X170346Y105355D01*
X172181Y104595D01*
X173175Y103601D01*
X173713Y102303D01*
X173713Y100897D01*
X173119Y99464D01*
X173064Y99292D01*
X173001Y99123D01*
X172988Y99058D01*
X172968Y98995D01*
X172941Y98816D01*
X172906Y98639D01*
X172904Y98573D01*
X172894Y98507D01*
X172897Y98326D01*
X172891Y98146D01*
X172900Y98080D01*
X172900Y98013D01*
X172932Y97835D01*
X172955Y97657D01*
X172975Y97593D01*
X172986Y97528D01*
X173046Y97357D01*
X173098Y97184D01*
X173127Y97125D01*
X173149Y97062D01*
X173235Y96904D01*
X173315Y96741D01*
X173353Y96687D01*
X173385Y96629D01*
X173496Y96486D01*
X173600Y96339D01*
X173647Y96292D01*
X173688Y96239D01*
X173820Y96116D01*
X173947Y95988D01*
X174001Y95949D01*
X174049Y95904D01*
X174200Y95804D01*
X174346Y95698D01*
X174405Y95668D01*
X174460Y95631D01*
X174625Y95557D01*
X174786Y95475D01*
X174849Y95455D01*
X174910Y95428D01*
X175084Y95381D01*
X175257Y95327D01*
X175309Y95321D01*
X175387Y95300D01*
X175878Y95251D01*
X175911Y95253D01*
X175934Y95251D01*
X202036Y95251D01*
X202046Y95252D01*
X202056Y95251D01*
X202291Y95271D01*
X202528Y95291D01*
X202537Y95293D01*
X202547Y95294D01*
X202586Y95305D01*
X203007Y95409D01*
X203127Y95461D01*
X203202Y95483D01*
X205037Y96243D01*
X206443Y96243D01*
X207741Y95705D01*
X208735Y94711D01*
X209273Y93413D01*
X209273Y92007D01*
X208735Y90709D01*
X207741Y89715D01*
X206443Y89177D01*
X205037Y89177D01*
X203202Y89937D01*
X203193Y89940D01*
X203185Y89945D01*
X202959Y90016D01*
X202733Y90089D01*
X202723Y90090D01*
X202714Y90093D01*
X202674Y90097D01*
X202245Y90162D01*
X202114Y90160D01*
X202036Y90169D01*
X177204Y90169D01*
X177024Y90155D01*
X176844Y90148D01*
X176779Y90135D01*
X176713Y90129D01*
X176537Y90086D01*
X176361Y90050D01*
X176298Y90027D01*
X176234Y90011D01*
X176068Y89939D01*
X175899Y89876D01*
X175842Y89842D01*
X175780Y89816D01*
X175628Y89719D01*
X175472Y89629D01*
X175420Y89587D01*
X175364Y89551D01*
X175230Y89431D01*
X175090Y89316D01*
X175046Y89267D01*
X174997Y89222D01*
X174883Y89082D01*
X174764Y88947D01*
X174728Y88890D01*
X174687Y88838D01*
X174598Y88682D01*
X174501Y88529D01*
X174475Y88467D01*
X174443Y88410D01*
X174380Y88240D01*
X174310Y88074D01*
X174294Y88010D01*
X174271Y87947D01*
X174236Y87770D01*
X174194Y87595D01*
X174189Y87528D01*
X174176Y87463D01*
X174171Y87283D01*
X174157Y87103D01*
X174163Y87036D01*
X174161Y86970D01*
X174184Y86791D01*
X174200Y86611D01*
X174215Y86561D01*
X174225Y86481D01*
X174368Y86009D01*
X174383Y85978D01*
X174389Y85956D01*
X175205Y83986D01*
X175209Y83978D01*
X175212Y83968D01*
X175322Y83758D01*
X175430Y83547D01*
X175436Y83539D01*
X175440Y83531D01*
X175465Y83499D01*
X175723Y83150D01*
X175817Y83059D01*
X175866Y82998D01*
X185580Y73283D01*
X185667Y73209D01*
X185747Y73128D01*
X185855Y73050D01*
X185956Y72964D01*
X186054Y72905D01*
X186146Y72838D01*
X186264Y72778D01*
X186378Y72709D01*
X186485Y72667D01*
X186586Y72615D01*
X186713Y72575D01*
X186837Y72526D01*
X186948Y72501D01*
X187057Y72467D01*
X187150Y72457D01*
X187318Y72419D01*
X187642Y72401D01*
X187735Y72391D01*
X188066Y72391D01*
X188076Y72392D01*
X188086Y72391D01*
X188321Y72411D01*
X188558Y72431D01*
X188567Y72433D01*
X188577Y72434D01*
X188616Y72445D01*
X189037Y72549D01*
X189157Y72601D01*
X189232Y72623D01*
X191067Y73383D01*
X192473Y73383D01*
X193771Y72845D01*
X194765Y71851D01*
X195303Y70553D01*
X195303Y69147D01*
X194765Y67849D01*
X193771Y66855D01*
X192473Y66317D01*
X191067Y66317D01*
X189232Y67077D01*
X189223Y67080D01*
X189215Y67085D01*
X188988Y67156D01*
X188763Y67229D01*
X188753Y67230D01*
X188744Y67233D01*
X188704Y67237D01*
X188275Y67302D01*
X188144Y67300D01*
X188066Y67309D01*
X184368Y67309D01*
X181987Y69690D01*
X172272Y79404D01*
X172265Y79411D01*
X172259Y79418D01*
X172077Y79570D01*
X171896Y79724D01*
X171888Y79729D01*
X171881Y79735D01*
X171845Y79755D01*
X171474Y79979D01*
X171353Y80027D01*
X171284Y80065D01*
X169449Y80825D01*
X168455Y81819D01*
X167917Y83117D01*
X167917Y84860D01*
X167911Y84936D01*
X167913Y85012D01*
X167891Y85181D01*
X167877Y85352D01*
X167859Y85426D01*
X167849Y85501D01*
X167800Y85665D01*
X167759Y85831D01*
X167729Y85900D01*
X167707Y85974D01*
X167632Y86127D01*
X167564Y86284D01*
X167523Y86348D01*
X167490Y86417D01*
X167391Y86556D01*
X167299Y86700D01*
X167248Y86757D01*
X167204Y86819D01*
X167084Y86940D01*
X166970Y87068D01*
X166911Y87116D01*
X166857Y87170D01*
X166719Y87270D01*
X166586Y87378D01*
X166520Y87415D01*
X166459Y87460D01*
X166306Y87537D01*
X166158Y87622D01*
X166086Y87648D01*
X166018Y87683D01*
X165855Y87734D01*
X165695Y87793D01*
X165620Y87808D01*
X165548Y87831D01*
X165443Y87843D01*
X165211Y87888D01*
X164975Y87895D01*
X164870Y87907D01*
X164397Y87907D01*
X162562Y88667D01*
X162553Y88670D01*
X162545Y88675D01*
X162318Y88746D01*
X162093Y88819D01*
X162083Y88820D01*
X162074Y88823D01*
X162034Y88827D01*
X161605Y88892D01*
X161474Y88890D01*
X161396Y88899D01*
X151348Y88899D01*
X140522Y99724D01*
X140515Y99731D01*
X140509Y99738D01*
X140326Y99891D01*
X140146Y100044D01*
X140138Y100049D01*
X140131Y100055D01*
X140096Y100075D01*
X139724Y100299D01*
X139602Y100347D01*
X139534Y100385D01*
X137699Y101145D01*
X136705Y102139D01*
X136167Y103437D01*
X136167Y103632D01*
X136161Y103708D01*
X136163Y103784D01*
X136141Y103953D01*
X136127Y104124D01*
X136109Y104198D01*
X136099Y104273D01*
X136050Y104437D01*
X136009Y104603D01*
X135979Y104672D01*
X135957Y104746D01*
X135881Y104899D01*
X135814Y105056D01*
X135773Y105120D01*
X135740Y105189D01*
X135641Y105328D01*
X135549Y105472D01*
X135498Y105529D01*
X135454Y105591D01*
X135334Y105712D01*
X135220Y105840D01*
X135161Y105888D01*
X135107Y105942D01*
X134969Y106043D01*
X134836Y106150D01*
X134770Y106187D01*
X134709Y106232D01*
X134556Y106309D01*
X134408Y106394D01*
X134336Y106420D01*
X134268Y106455D01*
X134105Y106506D01*
X133945Y106565D01*
X133870Y106580D01*
X133798Y106603D01*
X133693Y106615D01*
X133461Y106660D01*
X133225Y106667D01*
X133120Y106679D01*
X124678Y106679D01*
X100329Y131028D01*
X100329Y181799D01*
X100312Y182016D01*
X100298Y182235D01*
X100292Y182263D01*
X100289Y182291D01*
X100237Y182503D01*
X100188Y182716D01*
X100177Y182742D01*
X100171Y182770D01*
X100084Y182971D01*
X100002Y183173D01*
X99987Y183197D01*
X99976Y183223D01*
X99859Y183408D01*
X99745Y183594D01*
X99726Y183616D01*
X99711Y183639D01*
X99566Y183802D01*
X99423Y183968D01*
X99401Y183986D01*
X99382Y184007D01*
X99213Y184144D01*
X99045Y184285D01*
X99024Y184296D01*
X98998Y184317D01*
X98570Y184561D01*
X98494Y184589D01*
X98448Y184615D01*
X96970Y185227D01*
X94041Y188156D01*
X93672Y189046D01*
X93597Y189193D01*
X93530Y189344D01*
X93485Y189412D01*
X93447Y189485D01*
X93349Y189618D01*
X93258Y189756D01*
X93203Y189816D01*
X93154Y189882D01*
X93036Y189998D01*
X92924Y190119D01*
X92860Y190169D01*
X92801Y190226D01*
X92666Y190321D01*
X92536Y190423D01*
X92464Y190462D01*
X92397Y190509D01*
X92248Y190581D01*
X92103Y190661D01*
X92026Y190688D01*
X91953Y190723D01*
X91794Y190770D01*
X91638Y190825D01*
X91558Y190840D01*
X91479Y190863D01*
X91315Y190883D01*
X91153Y190913D01*
X91071Y190914D01*
X90990Y190924D01*
X90825Y190918D01*
X90659Y190921D01*
X90578Y190909D01*
X90497Y190906D01*
X90335Y190873D01*
X90171Y190849D01*
X90094Y190824D01*
X90013Y190808D01*
X89858Y190749D01*
X89701Y190699D01*
X89629Y190662D01*
X89552Y190633D01*
X89408Y190550D01*
X89261Y190476D01*
X89196Y190428D01*
X89125Y190387D01*
X88997Y190282D01*
X88863Y190184D01*
X88806Y190126D01*
X88743Y190074D01*
X88633Y189950D01*
X88518Y189832D01*
X88483Y189779D01*
X88417Y189704D01*
X88154Y189287D01*
X88148Y189272D01*
X88142Y189263D01*
X87464Y187932D01*
X86383Y186444D01*
X85082Y185143D01*
X83594Y184062D01*
X81955Y183227D01*
X80517Y182760D01*
X80517Y203200D01*
X80517Y223640D01*
X81955Y223173D01*
X83594Y222338D01*
X85082Y221257D01*
X86383Y219956D01*
X87464Y218468D01*
X88142Y217137D01*
X88191Y217058D01*
X88220Y216999D01*
X88253Y216952D01*
X88308Y216851D01*
X88358Y216786D01*
X88401Y216717D01*
X88505Y216597D01*
X88506Y216596D01*
X88509Y216592D01*
X88611Y216461D01*
X88670Y216406D01*
X88724Y216344D01*
X88851Y216238D01*
X88972Y216126D01*
X89040Y216081D01*
X89103Y216028D01*
X89245Y215945D01*
X89383Y215853D01*
X89458Y215819D01*
X89528Y215778D01*
X89682Y215718D01*
X89833Y215650D01*
X89912Y215629D01*
X89988Y215600D01*
X90150Y215565D01*
X90310Y215523D01*
X90391Y215514D01*
X90471Y215498D01*
X90636Y215490D01*
X90800Y215474D01*
X90882Y215479D01*
X90964Y215475D01*
X91128Y215494D01*
X91293Y215504D01*
X91372Y215522D01*
X91454Y215532D01*
X91613Y215577D01*
X91774Y215614D01*
X91849Y215645D01*
X91928Y215667D01*
X92078Y215738D01*
X92231Y215800D01*
X92300Y215843D01*
X92374Y215878D01*
X92511Y215971D01*
X92652Y216057D01*
X92714Y216111D01*
X92781Y216157D01*
X92900Y216271D01*
X93026Y216379D01*
X93078Y216442D01*
X93137Y216498D01*
X93236Y216630D01*
X93343Y216757D01*
X93373Y216813D01*
X93433Y216893D01*
X93586Y217184D01*
X93634Y217268D01*
X93643Y217293D01*
X93662Y217330D01*
X93667Y217345D01*
X93672Y217354D01*
X94041Y218244D01*
X96971Y221173D01*
X100798Y222759D01*
X104942Y222759D01*
X108769Y221173D01*
X111699Y218244D01*
X112755Y215695D01*
X112772Y215661D01*
X112785Y215625D01*
X112885Y215442D01*
X112980Y215256D01*
X113002Y215226D01*
X113021Y215192D01*
X113149Y215027D01*
X113273Y214859D01*
X113300Y214833D01*
X113323Y214802D01*
X113477Y214660D01*
X113626Y214515D01*
X113657Y214493D01*
X113685Y214467D01*
X113859Y214351D01*
X114030Y214232D01*
X114064Y214215D01*
X114096Y214194D01*
X114286Y214108D01*
X114475Y214018D01*
X114511Y214007D01*
X114546Y213991D01*
X114748Y213937D01*
X114948Y213878D01*
X114985Y213874D01*
X115022Y213864D01*
X115231Y213843D01*
X115437Y213817D01*
X115475Y213818D01*
X115513Y213815D01*
X115722Y213828D01*
X115930Y213835D01*
X115968Y213843D01*
X116006Y213845D01*
X116210Y213892D01*
X116414Y213933D01*
X116449Y213947D01*
X116487Y213955D01*
X116680Y214034D01*
X116875Y214108D01*
X116908Y214127D01*
X116944Y214141D01*
X117122Y214250D01*
X117302Y214354D01*
X117332Y214379D01*
X117364Y214398D01*
X117523Y214535D01*
X117684Y214667D01*
X117709Y214695D01*
X117738Y214720D01*
X117873Y214880D01*
X118011Y215037D01*
X118031Y215069D01*
X118055Y215098D01*
X118100Y215180D01*
X118273Y215454D01*
X118340Y215613D01*
X118385Y215695D01*
X119441Y218244D01*
X122370Y221173D01*
X122578Y221259D01*
X122773Y221359D01*
X122969Y221455D01*
X122992Y221471D01*
X123017Y221484D01*
X123193Y221614D01*
X123371Y221740D01*
X123391Y221760D01*
X123414Y221777D01*
X123566Y221933D01*
X123722Y222087D01*
X123739Y222110D01*
X123758Y222130D01*
X123883Y222309D01*
X124012Y222486D01*
X124025Y222511D01*
X124041Y222534D01*
X124136Y222731D01*
X124235Y222926D01*
X124243Y222953D01*
X124256Y222979D01*
X124317Y223189D01*
X124383Y223397D01*
X124386Y223420D01*
X124395Y223452D01*
X124456Y223942D01*
X124453Y224022D01*
X124459Y224074D01*
X124459Y224278D01*
X125039Y225679D01*
X129921Y230561D01*
X131322Y231141D01*
X296668Y231141D01*
X298069Y230561D01*
X368991Y159639D01*
X369571Y158238D01*
X369571Y136370D01*
X369577Y136294D01*
X369575Y136218D01*
X369597Y136049D01*
X369611Y135878D01*
X369629Y135804D01*
X369639Y135729D01*
X369688Y135565D01*
X369729Y135399D01*
X369759Y135330D01*
X369781Y135256D01*
X369857Y135103D01*
X369924Y134946D01*
X369965Y134882D01*
X369998Y134813D01*
X370097Y134674D01*
X370189Y134530D01*
X370240Y134473D01*
X370284Y134411D01*
X370404Y134290D01*
X370518Y134162D01*
X370577Y134114D01*
X370631Y134060D01*
X370769Y133959D01*
X370902Y133852D01*
X370968Y133815D01*
X371029Y133770D01*
X371182Y133693D01*
X371330Y133608D01*
X371402Y133582D01*
X371470Y133547D01*
X371633Y133496D01*
X371793Y133437D01*
X371868Y133422D01*
X371940Y133399D01*
X372045Y133387D01*
X372277Y133342D01*
X372513Y133335D01*
X372618Y133323D01*
X374132Y133323D01*
X375601Y132715D01*
X375672Y132654D01*
X375770Y132595D01*
X375862Y132528D01*
X375981Y132468D01*
X376095Y132399D01*
X376201Y132357D01*
X376303Y132305D01*
X376430Y132265D01*
X376553Y132216D01*
X376664Y132191D01*
X376773Y132157D01*
X376867Y132147D01*
X377035Y132109D01*
X377359Y132091D01*
X377451Y132081D01*
X398562Y132081D01*
X422911Y107732D01*
X422911Y16771D01*
X422920Y16657D01*
X422919Y16543D01*
X422940Y16412D01*
X422951Y16279D01*
X422978Y16169D01*
X422996Y16056D01*
X423037Y15929D01*
X423069Y15801D01*
X423114Y15696D01*
X423150Y15587D01*
X423212Y15469D01*
X423264Y15347D01*
X423325Y15251D01*
X423378Y15150D01*
X423437Y15076D01*
X423529Y14931D01*
X423550Y14908D01*
X424153Y13452D01*
X424153Y11948D01*
X423577Y10557D01*
X422513Y9493D01*
X421122Y8917D01*
X419618Y8917D01*
G37*
%LPD*%
%LPC*%
G36*
X25614Y31495D02*
X25614Y31495D01*
X21787Y33081D01*
X18857Y36011D01*
X17271Y39838D01*
X17271Y43982D01*
X18857Y47809D01*
X21786Y50739D01*
X24335Y51795D01*
X24369Y51812D01*
X24405Y51825D01*
X24588Y51925D01*
X24774Y52020D01*
X24804Y52042D01*
X24838Y52061D01*
X25003Y52189D01*
X25171Y52313D01*
X25197Y52340D01*
X25228Y52363D01*
X25370Y52517D01*
X25515Y52666D01*
X25537Y52697D01*
X25563Y52725D01*
X25679Y52899D01*
X25798Y53070D01*
X25815Y53104D01*
X25836Y53136D01*
X25922Y53326D01*
X26012Y53515D01*
X26023Y53551D01*
X26039Y53586D01*
X26093Y53788D01*
X26152Y53988D01*
X26156Y54025D01*
X26166Y54062D01*
X26187Y54271D01*
X26213Y54477D01*
X26212Y54515D01*
X26215Y54553D01*
X26202Y54762D01*
X26195Y54970D01*
X26187Y55008D01*
X26185Y55046D01*
X26138Y55250D01*
X26097Y55454D01*
X26083Y55489D01*
X26075Y55527D01*
X25996Y55720D01*
X25922Y55915D01*
X25903Y55948D01*
X25889Y55984D01*
X25780Y56161D01*
X25676Y56342D01*
X25651Y56372D01*
X25632Y56404D01*
X25495Y56563D01*
X25363Y56724D01*
X25335Y56749D01*
X25310Y56778D01*
X25150Y56913D01*
X24993Y57051D01*
X24961Y57071D01*
X24932Y57095D01*
X24850Y57140D01*
X24576Y57313D01*
X24417Y57380D01*
X24335Y57425D01*
X21786Y58481D01*
X18857Y61411D01*
X17271Y65238D01*
X17271Y69382D01*
X18857Y73209D01*
X21786Y76139D01*
X24335Y77195D01*
X24369Y77212D01*
X24405Y77225D01*
X24588Y77325D01*
X24774Y77420D01*
X24804Y77442D01*
X24838Y77461D01*
X25003Y77589D01*
X25171Y77713D01*
X25197Y77740D01*
X25228Y77763D01*
X25370Y77917D01*
X25515Y78066D01*
X25537Y78097D01*
X25563Y78125D01*
X25678Y78299D01*
X25798Y78470D01*
X25815Y78504D01*
X25836Y78536D01*
X25922Y78726D01*
X26012Y78915D01*
X26023Y78951D01*
X26039Y78986D01*
X26093Y79187D01*
X26152Y79388D01*
X26156Y79425D01*
X26166Y79462D01*
X26187Y79670D01*
X26213Y79877D01*
X26212Y79915D01*
X26215Y79953D01*
X26202Y80162D01*
X26195Y80370D01*
X26187Y80408D01*
X26185Y80446D01*
X26138Y80650D01*
X26097Y80854D01*
X26083Y80889D01*
X26075Y80927D01*
X25996Y81120D01*
X25922Y81315D01*
X25903Y81348D01*
X25889Y81384D01*
X25780Y81562D01*
X25676Y81742D01*
X25651Y81772D01*
X25632Y81804D01*
X25495Y81963D01*
X25363Y82124D01*
X25335Y82149D01*
X25310Y82178D01*
X25150Y82313D01*
X24993Y82451D01*
X24961Y82471D01*
X24932Y82495D01*
X24850Y82540D01*
X24576Y82713D01*
X24417Y82780D01*
X24335Y82825D01*
X21786Y83881D01*
X18857Y86811D01*
X17271Y90638D01*
X17271Y94782D01*
X18857Y98609D01*
X21786Y101539D01*
X24335Y102595D01*
X24369Y102612D01*
X24405Y102625D01*
X24588Y102725D01*
X24774Y102820D01*
X24804Y102842D01*
X24838Y102861D01*
X25003Y102989D01*
X25171Y103113D01*
X25197Y103140D01*
X25228Y103163D01*
X25370Y103317D01*
X25515Y103466D01*
X25537Y103497D01*
X25563Y103525D01*
X25679Y103699D01*
X25798Y103870D01*
X25815Y103904D01*
X25836Y103936D01*
X25922Y104126D01*
X26012Y104315D01*
X26023Y104351D01*
X26039Y104386D01*
X26093Y104588D01*
X26152Y104788D01*
X26156Y104825D01*
X26166Y104862D01*
X26187Y105071D01*
X26213Y105277D01*
X26212Y105315D01*
X26215Y105353D01*
X26202Y105562D01*
X26195Y105770D01*
X26187Y105808D01*
X26185Y105846D01*
X26138Y106050D01*
X26097Y106254D01*
X26083Y106289D01*
X26075Y106327D01*
X25996Y106520D01*
X25922Y106715D01*
X25903Y106748D01*
X25889Y106784D01*
X25780Y106962D01*
X25676Y107142D01*
X25651Y107172D01*
X25632Y107204D01*
X25495Y107363D01*
X25363Y107524D01*
X25335Y107549D01*
X25310Y107578D01*
X25150Y107713D01*
X24993Y107851D01*
X24961Y107871D01*
X24932Y107895D01*
X24850Y107940D01*
X24576Y108113D01*
X24417Y108180D01*
X24335Y108225D01*
X21786Y109281D01*
X18857Y112211D01*
X17271Y116038D01*
X17271Y120182D01*
X18857Y124009D01*
X21786Y126939D01*
X22676Y127308D01*
X22823Y127383D01*
X22974Y127450D01*
X23042Y127495D01*
X23115Y127533D01*
X23248Y127631D01*
X23386Y127722D01*
X23446Y127777D01*
X23512Y127826D01*
X23628Y127944D01*
X23749Y128056D01*
X23799Y128120D01*
X23856Y128179D01*
X23951Y128314D01*
X24053Y128444D01*
X24092Y128516D01*
X24139Y128583D01*
X24211Y128732D01*
X24291Y128877D01*
X24318Y128954D01*
X24353Y129027D01*
X24400Y129186D01*
X24455Y129342D01*
X24470Y129422D01*
X24493Y129501D01*
X24513Y129665D01*
X24543Y129827D01*
X24544Y129909D01*
X24554Y129990D01*
X24548Y130155D01*
X24551Y130321D01*
X24539Y130402D01*
X24536Y130483D01*
X24503Y130645D01*
X24479Y130809D01*
X24454Y130886D01*
X24438Y130967D01*
X24379Y131122D01*
X24329Y131279D01*
X24292Y131351D01*
X24263Y131428D01*
X24180Y131572D01*
X24106Y131719D01*
X24058Y131784D01*
X24017Y131855D01*
X23912Y131983D01*
X23814Y132117D01*
X23756Y132174D01*
X23704Y132237D01*
X23580Y132347D01*
X23462Y132462D01*
X23409Y132497D01*
X23334Y132563D01*
X22917Y132826D01*
X22902Y132832D01*
X22893Y132838D01*
X21562Y133516D01*
X20074Y134597D01*
X18773Y135898D01*
X17692Y137386D01*
X16857Y139025D01*
X16390Y140463D01*
X36830Y140463D01*
X57270Y140463D01*
X56803Y139025D01*
X55968Y137386D01*
X54887Y135898D01*
X53586Y134597D01*
X52098Y133516D01*
X50767Y132838D01*
X50626Y132751D01*
X50481Y132672D01*
X50416Y132622D01*
X50347Y132579D01*
X50222Y132471D01*
X50091Y132369D01*
X50036Y132310D01*
X49974Y132256D01*
X49868Y132129D01*
X49756Y132008D01*
X49711Y131940D01*
X49658Y131877D01*
X49575Y131735D01*
X49483Y131597D01*
X49449Y131522D01*
X49408Y131452D01*
X49348Y131298D01*
X49280Y131147D01*
X49259Y131068D01*
X49230Y130992D01*
X49195Y130830D01*
X49153Y130670D01*
X49144Y130589D01*
X49128Y130509D01*
X49120Y130344D01*
X49104Y130180D01*
X49109Y130098D01*
X49105Y130016D01*
X49124Y129852D01*
X49134Y129687D01*
X49152Y129608D01*
X49162Y129526D01*
X49207Y129367D01*
X49244Y129206D01*
X49275Y129131D01*
X49297Y129052D01*
X49368Y128902D01*
X49430Y128749D01*
X49473Y128680D01*
X49508Y128606D01*
X49601Y128469D01*
X49687Y128328D01*
X49741Y128266D01*
X49787Y128199D01*
X49901Y128080D01*
X50009Y127954D01*
X50072Y127902D01*
X50128Y127843D01*
X50260Y127744D01*
X50387Y127637D01*
X50443Y127607D01*
X50523Y127547D01*
X50960Y127318D01*
X50975Y127313D01*
X50984Y127308D01*
X51874Y126939D01*
X54803Y124009D01*
X56389Y120182D01*
X56389Y116038D01*
X54803Y112211D01*
X51874Y109281D01*
X49325Y108225D01*
X49291Y108208D01*
X49255Y108195D01*
X49072Y108095D01*
X48886Y108000D01*
X48855Y107978D01*
X48822Y107959D01*
X48658Y107832D01*
X48489Y107707D01*
X48463Y107680D01*
X48433Y107657D01*
X48291Y107504D01*
X48145Y107354D01*
X48123Y107323D01*
X48097Y107295D01*
X47981Y107121D01*
X47862Y106950D01*
X47845Y106916D01*
X47824Y106884D01*
X47738Y106693D01*
X47648Y106506D01*
X47637Y106469D01*
X47621Y106434D01*
X47567Y106232D01*
X47508Y106032D01*
X47503Y105994D01*
X47494Y105958D01*
X47473Y105750D01*
X47447Y105543D01*
X47448Y105505D01*
X47445Y105467D01*
X47458Y105258D01*
X47465Y105050D01*
X47473Y105012D01*
X47475Y104974D01*
X47522Y104771D01*
X47563Y104566D01*
X47577Y104531D01*
X47585Y104493D01*
X47664Y104300D01*
X47738Y104105D01*
X47757Y104072D01*
X47771Y104036D01*
X47880Y103858D01*
X47984Y103678D01*
X48009Y103648D01*
X48028Y103616D01*
X48165Y103457D01*
X48297Y103296D01*
X48325Y103271D01*
X48350Y103242D01*
X48510Y103108D01*
X48667Y102969D01*
X48699Y102949D01*
X48728Y102925D01*
X48810Y102880D01*
X49084Y102707D01*
X49243Y102640D01*
X49325Y102595D01*
X51874Y101539D01*
X54803Y98609D01*
X56389Y94782D01*
X56389Y90638D01*
X54803Y86811D01*
X51874Y83881D01*
X49325Y82825D01*
X49291Y82808D01*
X49255Y82795D01*
X49072Y82695D01*
X48886Y82600D01*
X48855Y82578D01*
X48822Y82559D01*
X48658Y82432D01*
X48489Y82307D01*
X48463Y82280D01*
X48433Y82257D01*
X48291Y82104D01*
X48145Y81954D01*
X48123Y81923D01*
X48097Y81895D01*
X47981Y81721D01*
X47862Y81550D01*
X47845Y81516D01*
X47824Y81484D01*
X47738Y81293D01*
X47648Y81106D01*
X47637Y81069D01*
X47621Y81034D01*
X47567Y80832D01*
X47508Y80632D01*
X47504Y80594D01*
X47494Y80558D01*
X47473Y80350D01*
X47447Y80143D01*
X47448Y80105D01*
X47445Y80067D01*
X47458Y79858D01*
X47465Y79650D01*
X47473Y79612D01*
X47475Y79574D01*
X47522Y79371D01*
X47563Y79166D01*
X47577Y79131D01*
X47585Y79093D01*
X47664Y78900D01*
X47738Y78705D01*
X47757Y78672D01*
X47771Y78636D01*
X47880Y78458D01*
X47984Y78278D01*
X48009Y78248D01*
X48028Y78216D01*
X48165Y78057D01*
X48297Y77896D01*
X48325Y77871D01*
X48350Y77842D01*
X48510Y77708D01*
X48667Y77569D01*
X48699Y77549D01*
X48728Y77525D01*
X48810Y77480D01*
X49084Y77307D01*
X49243Y77240D01*
X49325Y77195D01*
X51874Y76139D01*
X54803Y73209D01*
X56389Y69382D01*
X56389Y65238D01*
X54803Y61411D01*
X51874Y58481D01*
X49325Y57425D01*
X49291Y57408D01*
X49255Y57395D01*
X49072Y57295D01*
X48886Y57200D01*
X48855Y57178D01*
X48822Y57159D01*
X48658Y57032D01*
X48489Y56907D01*
X48463Y56880D01*
X48433Y56857D01*
X48291Y56704D01*
X48145Y56554D01*
X48123Y56523D01*
X48097Y56495D01*
X47981Y56321D01*
X47862Y56150D01*
X47845Y56116D01*
X47824Y56084D01*
X47738Y55893D01*
X47648Y55706D01*
X47637Y55669D01*
X47621Y55634D01*
X47567Y55432D01*
X47508Y55232D01*
X47504Y55194D01*
X47494Y55158D01*
X47473Y54950D01*
X47447Y54743D01*
X47448Y54705D01*
X47445Y54667D01*
X47458Y54458D01*
X47465Y54250D01*
X47473Y54212D01*
X47475Y54174D01*
X47522Y53971D01*
X47563Y53766D01*
X47577Y53731D01*
X47585Y53693D01*
X47664Y53500D01*
X47738Y53305D01*
X47757Y53272D01*
X47771Y53236D01*
X47880Y53058D01*
X47984Y52878D01*
X48009Y52848D01*
X48028Y52816D01*
X48165Y52657D01*
X48297Y52496D01*
X48325Y52471D01*
X48350Y52442D01*
X48510Y52308D01*
X48667Y52169D01*
X48699Y52149D01*
X48728Y52125D01*
X48810Y52080D01*
X49084Y51907D01*
X49243Y51840D01*
X49325Y51795D01*
X51874Y50739D01*
X54803Y47810D01*
X55415Y46332D01*
X55515Y46137D01*
X55611Y45941D01*
X55627Y45918D01*
X55640Y45893D01*
X55770Y45717D01*
X55896Y45539D01*
X55916Y45519D01*
X55933Y45496D01*
X56090Y45343D01*
X56243Y45188D01*
X56266Y45171D01*
X56286Y45151D01*
X56466Y45026D01*
X56642Y44898D01*
X56667Y44885D01*
X56691Y44869D01*
X56888Y44774D01*
X57082Y44675D01*
X57109Y44667D01*
X57135Y44654D01*
X57345Y44593D01*
X57553Y44527D01*
X57576Y44524D01*
X57608Y44515D01*
X58098Y44454D01*
X58178Y44457D01*
X58231Y44451D01*
X69462Y44451D01*
X69538Y44457D01*
X69614Y44455D01*
X69783Y44477D01*
X69954Y44491D01*
X70028Y44509D01*
X70103Y44519D01*
X70267Y44568D01*
X70433Y44609D01*
X70502Y44639D01*
X70576Y44661D01*
X70729Y44737D01*
X70886Y44804D01*
X70950Y44845D01*
X71019Y44878D01*
X71158Y44977D01*
X71302Y45069D01*
X71359Y45120D01*
X71421Y45164D01*
X71542Y45284D01*
X71670Y45398D01*
X71718Y45457D01*
X71772Y45511D01*
X71873Y45649D01*
X71980Y45782D01*
X72017Y45848D01*
X72062Y45909D01*
X72139Y46062D01*
X72224Y46210D01*
X72250Y46282D01*
X72285Y46350D01*
X72336Y46513D01*
X72395Y46673D01*
X72410Y46748D01*
X72433Y46820D01*
X72445Y46925D01*
X72490Y47157D01*
X72497Y47393D01*
X72509Y47498D01*
X72509Y49828D01*
X72532Y49886D01*
X72569Y49954D01*
X72624Y50115D01*
X72687Y50274D01*
X72704Y50348D01*
X72729Y50420D01*
X72757Y50589D01*
X72794Y50755D01*
X72798Y50831D01*
X72811Y50907D01*
X72812Y51078D01*
X72822Y51248D01*
X72814Y51324D01*
X72814Y51400D01*
X72788Y51569D01*
X72770Y51738D01*
X72749Y51812D01*
X72738Y51887D01*
X72684Y52050D01*
X72639Y52214D01*
X72607Y52283D01*
X72583Y52356D01*
X72504Y52507D01*
X72433Y52663D01*
X72391Y52726D01*
X72355Y52793D01*
X72290Y52876D01*
X72158Y53072D01*
X71996Y53244D01*
X71930Y53327D01*
X71747Y53510D01*
X71412Y54089D01*
X71239Y54735D01*
X71239Y58321D01*
X81078Y58321D01*
X81154Y58327D01*
X81230Y58325D01*
X81307Y58335D01*
X81377Y58333D01*
X81482Y58321D01*
X91321Y58321D01*
X91321Y54735D01*
X91148Y54089D01*
X90813Y53510D01*
X90630Y53327D01*
X90581Y53269D01*
X90525Y53216D01*
X90421Y53081D01*
X90310Y52951D01*
X90271Y52885D01*
X90225Y52825D01*
X90144Y52675D01*
X90056Y52528D01*
X90027Y52457D01*
X89991Y52390D01*
X89936Y52228D01*
X89873Y52070D01*
X89856Y51996D01*
X89831Y51923D01*
X89803Y51755D01*
X89766Y51588D01*
X89762Y51512D01*
X89749Y51437D01*
X89748Y51267D01*
X89738Y51096D01*
X89746Y51020D01*
X89746Y50944D01*
X89772Y50775D01*
X89790Y50605D01*
X89811Y50532D01*
X89823Y50456D01*
X89876Y50294D01*
X89921Y50130D01*
X89953Y50060D01*
X89977Y49988D01*
X90051Y49846D01*
X90051Y35544D01*
X89306Y34799D01*
X73254Y34799D01*
X72509Y35544D01*
X72509Y36322D01*
X72503Y36398D01*
X72505Y36474D01*
X72483Y36643D01*
X72469Y36814D01*
X72451Y36888D01*
X72441Y36963D01*
X72392Y37127D01*
X72351Y37293D01*
X72321Y37362D01*
X72299Y37436D01*
X72223Y37589D01*
X72156Y37746D01*
X72115Y37810D01*
X72082Y37879D01*
X71983Y38018D01*
X71891Y38162D01*
X71840Y38219D01*
X71796Y38281D01*
X71676Y38402D01*
X71562Y38530D01*
X71503Y38578D01*
X71449Y38632D01*
X71311Y38733D01*
X71178Y38840D01*
X71112Y38877D01*
X71051Y38922D01*
X70898Y38999D01*
X70750Y39084D01*
X70678Y39110D01*
X70610Y39145D01*
X70447Y39196D01*
X70287Y39255D01*
X70212Y39270D01*
X70140Y39293D01*
X70035Y39305D01*
X69803Y39350D01*
X69567Y39357D01*
X69462Y39369D01*
X58231Y39369D01*
X58013Y39352D01*
X57795Y39338D01*
X57767Y39332D01*
X57739Y39329D01*
X57527Y39277D01*
X57314Y39228D01*
X57288Y39217D01*
X57260Y39211D01*
X57059Y39124D01*
X56857Y39042D01*
X56833Y39027D01*
X56807Y39016D01*
X56622Y38899D01*
X56436Y38785D01*
X56414Y38766D01*
X56391Y38751D01*
X56228Y38606D01*
X56062Y38463D01*
X56044Y38441D01*
X56023Y38422D01*
X55886Y38252D01*
X55745Y38085D01*
X55734Y38064D01*
X55713Y38038D01*
X55469Y37610D01*
X55441Y37534D01*
X55415Y37488D01*
X54803Y36010D01*
X51873Y33081D01*
X48046Y31495D01*
X25614Y31495D01*
G37*
%LPD*%
%LPC*%
G36*
X36830Y146557D02*
X36830Y146557D01*
X16390Y146557D01*
X16857Y147995D01*
X17692Y149634D01*
X18773Y151122D01*
X20074Y152423D01*
X21562Y153504D01*
X22893Y154182D01*
X23034Y154269D01*
X23179Y154348D01*
X23244Y154398D01*
X23313Y154441D01*
X23438Y154549D01*
X23569Y154651D01*
X23624Y154710D01*
X23686Y154764D01*
X23792Y154891D01*
X23904Y155012D01*
X23949Y155080D01*
X24002Y155143D01*
X24085Y155285D01*
X24177Y155423D01*
X24211Y155498D01*
X24252Y155568D01*
X24312Y155722D01*
X24380Y155873D01*
X24401Y155952D01*
X24430Y156028D01*
X24465Y156190D01*
X24507Y156350D01*
X24516Y156431D01*
X24532Y156511D01*
X24540Y156676D01*
X24556Y156840D01*
X24551Y156922D01*
X24555Y157004D01*
X24536Y157168D01*
X24526Y157333D01*
X24508Y157412D01*
X24498Y157494D01*
X24453Y157653D01*
X24416Y157814D01*
X24385Y157889D01*
X24363Y157968D01*
X24292Y158118D01*
X24230Y158271D01*
X24187Y158340D01*
X24152Y158414D01*
X24059Y158551D01*
X23973Y158692D01*
X23919Y158754D01*
X23873Y158821D01*
X23759Y158940D01*
X23651Y159066D01*
X23588Y159118D01*
X23532Y159177D01*
X23400Y159276D01*
X23273Y159383D01*
X23217Y159413D01*
X23137Y159473D01*
X22700Y159702D01*
X22685Y159707D01*
X22676Y159712D01*
X21786Y160081D01*
X18857Y163011D01*
X17271Y166838D01*
X17271Y170982D01*
X18857Y174809D01*
X21787Y177739D01*
X25614Y179325D01*
X48046Y179325D01*
X51873Y177739D01*
X54803Y174809D01*
X56389Y170982D01*
X56389Y166838D01*
X54803Y163011D01*
X51874Y160081D01*
X50984Y159712D01*
X50837Y159637D01*
X50686Y159570D01*
X50618Y159525D01*
X50545Y159487D01*
X50412Y159389D01*
X50274Y159298D01*
X50214Y159243D01*
X50148Y159194D01*
X50032Y159076D01*
X49911Y158964D01*
X49861Y158900D01*
X49804Y158841D01*
X49709Y158706D01*
X49607Y158576D01*
X49568Y158504D01*
X49521Y158437D01*
X49449Y158288D01*
X49369Y158143D01*
X49342Y158066D01*
X49307Y157993D01*
X49260Y157834D01*
X49205Y157678D01*
X49190Y157598D01*
X49167Y157519D01*
X49147Y157355D01*
X49117Y157193D01*
X49116Y157111D01*
X49106Y157030D01*
X49112Y156865D01*
X49109Y156699D01*
X49121Y156618D01*
X49124Y156537D01*
X49157Y156375D01*
X49181Y156211D01*
X49206Y156134D01*
X49222Y156053D01*
X49281Y155898D01*
X49331Y155741D01*
X49368Y155669D01*
X49397Y155592D01*
X49480Y155448D01*
X49554Y155301D01*
X49602Y155236D01*
X49643Y155165D01*
X49748Y155037D01*
X49846Y154903D01*
X49904Y154846D01*
X49956Y154783D01*
X50080Y154673D01*
X50198Y154558D01*
X50251Y154523D01*
X50326Y154457D01*
X50743Y154194D01*
X50758Y154188D01*
X50767Y154182D01*
X52098Y153504D01*
X53586Y152423D01*
X54887Y151122D01*
X55968Y149634D01*
X56803Y147995D01*
X57270Y146557D01*
X36830Y146557D01*
X36830Y146557D01*
G37*
%LPD*%
%LPC*%
G36*
X65785Y206247D02*
X65785Y206247D01*
X65785Y213264D01*
X66073Y215080D01*
X66641Y216829D01*
X67476Y218468D01*
X68557Y219956D01*
X69858Y221257D01*
X71346Y222338D01*
X72985Y223173D01*
X74423Y223640D01*
X74423Y206247D01*
X65785Y206247D01*
G37*
%LPD*%
%LPC*%
G36*
X72985Y183227D02*
X72985Y183227D01*
X71346Y184062D01*
X69858Y185143D01*
X68557Y186444D01*
X67476Y187932D01*
X66641Y189571D01*
X66073Y191320D01*
X65785Y193136D01*
X65785Y200153D01*
X74423Y200153D01*
X74423Y182760D01*
X72985Y183227D01*
G37*
%LPD*%
%LPC*%
G36*
X161857Y68857D02*
X161857Y68857D01*
X160022Y69617D01*
X160013Y69620D01*
X160005Y69625D01*
X159778Y69696D01*
X159553Y69769D01*
X159543Y69770D01*
X159534Y69773D01*
X159494Y69777D01*
X159065Y69842D01*
X158934Y69840D01*
X158856Y69849D01*
X155158Y69849D01*
X152777Y72230D01*
X151952Y73054D01*
X151945Y73061D01*
X151939Y73068D01*
X151756Y73221D01*
X151576Y73374D01*
X151568Y73379D01*
X151561Y73385D01*
X151526Y73405D01*
X151154Y73629D01*
X151032Y73677D01*
X150964Y73715D01*
X149129Y74475D01*
X148135Y75469D01*
X147597Y76767D01*
X147597Y78173D01*
X148135Y79471D01*
X149129Y80465D01*
X150427Y81003D01*
X151833Y81003D01*
X153131Y80465D01*
X154125Y79471D01*
X154885Y77636D01*
X154889Y77628D01*
X154892Y77618D01*
X155003Y77406D01*
X155110Y77197D01*
X155116Y77190D01*
X155120Y77181D01*
X155146Y77149D01*
X155403Y76800D01*
X155497Y76709D01*
X155546Y76648D01*
X156370Y75823D01*
X156457Y75749D01*
X156537Y75668D01*
X156644Y75590D01*
X156746Y75504D01*
X156844Y75445D01*
X156936Y75378D01*
X157054Y75318D01*
X157168Y75249D01*
X157275Y75207D01*
X157376Y75155D01*
X157503Y75115D01*
X157626Y75066D01*
X157738Y75041D01*
X157847Y75007D01*
X157940Y74997D01*
X158108Y74959D01*
X158432Y74941D01*
X158525Y74931D01*
X158856Y74931D01*
X158866Y74932D01*
X158876Y74931D01*
X159111Y74951D01*
X159348Y74971D01*
X159357Y74973D01*
X159367Y74974D01*
X159406Y74985D01*
X159827Y75089D01*
X159947Y75141D01*
X160022Y75163D01*
X161857Y75923D01*
X163263Y75923D01*
X164561Y75385D01*
X165555Y74391D01*
X166093Y73093D01*
X166093Y71687D01*
X165555Y70389D01*
X164561Y69395D01*
X163263Y68857D01*
X161857Y68857D01*
G37*
%LPD*%
%LPC*%
G36*
X66607Y79017D02*
X66607Y79017D01*
X65309Y79555D01*
X64315Y80549D01*
X63777Y81847D01*
X63777Y83253D01*
X64315Y84551D01*
X65309Y85545D01*
X67144Y86305D01*
X67152Y86309D01*
X67162Y86312D01*
X67374Y86423D01*
X67583Y86530D01*
X67590Y86536D01*
X67599Y86540D01*
X67631Y86566D01*
X67980Y86823D01*
X68071Y86917D01*
X68132Y86966D01*
X73886Y92720D01*
X74021Y92731D01*
X74258Y92751D01*
X74267Y92753D01*
X74277Y92754D01*
X74316Y92765D01*
X74737Y92869D01*
X74857Y92921D01*
X74932Y92943D01*
X76767Y93703D01*
X78173Y93703D01*
X79471Y93165D01*
X80465Y92171D01*
X81003Y90873D01*
X81003Y89467D01*
X80465Y88169D01*
X79471Y87175D01*
X78173Y86637D01*
X76253Y86637D01*
X76139Y86628D01*
X76025Y86629D01*
X75893Y86608D01*
X75761Y86597D01*
X75650Y86570D01*
X75537Y86552D01*
X75411Y86511D01*
X75282Y86479D01*
X75177Y86434D01*
X75069Y86398D01*
X74951Y86337D01*
X74829Y86284D01*
X74732Y86223D01*
X74631Y86170D01*
X74558Y86111D01*
X74413Y86019D01*
X74171Y85803D01*
X74098Y85745D01*
X71726Y83372D01*
X71719Y83365D01*
X71712Y83359D01*
X71560Y83177D01*
X71406Y82996D01*
X71401Y82988D01*
X71395Y82981D01*
X71375Y82945D01*
X71151Y82574D01*
X71103Y82453D01*
X71065Y82384D01*
X70305Y80549D01*
X69311Y79555D01*
X68013Y79017D01*
X66607Y79017D01*
G37*
%LPD*%
%LPC*%
G36*
X405356Y137949D02*
X405356Y137949D01*
X403426Y138749D01*
X401949Y140226D01*
X401149Y142156D01*
X401149Y144244D01*
X401949Y146174D01*
X403426Y147651D01*
X405356Y148451D01*
X407444Y148451D01*
X409374Y147651D01*
X410851Y146174D01*
X411651Y144244D01*
X411651Y142156D01*
X410851Y140226D01*
X409374Y138749D01*
X407444Y137949D01*
X405356Y137949D01*
G37*
%LPD*%
%LPC*%
G36*
X405356Y80149D02*
X405356Y80149D01*
X403426Y80949D01*
X401949Y82426D01*
X401149Y84356D01*
X401149Y86444D01*
X401949Y88374D01*
X403426Y89851D01*
X405356Y90651D01*
X407444Y90651D01*
X409374Y89851D01*
X410851Y88374D01*
X411651Y86444D01*
X411651Y84356D01*
X410851Y82426D01*
X409374Y80949D01*
X407444Y80149D01*
X405356Y80149D01*
G37*
%LPD*%
%LPC*%
G36*
X277621Y140461D02*
X277621Y140461D01*
X277621Y143845D01*
X277794Y144491D01*
X278129Y145070D01*
X278602Y145543D01*
X279181Y145878D01*
X279827Y146051D01*
X288291Y146051D01*
X288291Y140461D01*
X277621Y140461D01*
G37*
%LPD*%
%LPC*%
G36*
X279827Y128777D02*
X279827Y128777D01*
X279181Y128950D01*
X278602Y129285D01*
X278129Y129758D01*
X277794Y130337D01*
X277621Y130983D01*
X277621Y134367D01*
X288291Y134367D01*
X288291Y128777D01*
X279827Y128777D01*
G37*
%LPD*%
%LPC*%
G36*
X231849Y51309D02*
X231849Y51309D01*
X231849Y57101D01*
X238641Y57101D01*
X238641Y56991D01*
X238646Y56932D01*
X238645Y56899D01*
X238654Y56826D01*
X238656Y56802D01*
X238664Y56612D01*
X238676Y56556D01*
X238681Y56500D01*
X238726Y56315D01*
X238765Y56129D01*
X238786Y56076D01*
X238799Y56021D01*
X238874Y55846D01*
X238943Y55669D01*
X238971Y55620D01*
X238994Y55567D01*
X239096Y55407D01*
X239192Y55243D01*
X239228Y55199D01*
X239259Y55151D01*
X239385Y55010D01*
X239507Y54863D01*
X239550Y54826D01*
X239588Y54783D01*
X239735Y54664D01*
X239879Y54539D01*
X239927Y54509D01*
X239972Y54473D01*
X240136Y54380D01*
X240298Y54279D01*
X240351Y54258D01*
X240400Y54229D01*
X240579Y54163D01*
X240754Y54091D01*
X240809Y54078D01*
X240863Y54058D01*
X240874Y54056D01*
X240817Y54050D01*
X240760Y54052D01*
X240571Y54027D01*
X240383Y54010D01*
X240327Y53995D01*
X240271Y53988D01*
X240089Y53933D01*
X239905Y53885D01*
X239853Y53862D01*
X239799Y53845D01*
X239628Y53762D01*
X239454Y53685D01*
X239407Y53653D01*
X239355Y53628D01*
X239201Y53518D01*
X239042Y53414D01*
X239000Y53376D01*
X238953Y53343D01*
X238818Y53209D01*
X238678Y53081D01*
X238651Y53044D01*
X238602Y52996D01*
X238392Y52707D01*
X238364Y52673D01*
X238355Y52656D01*
X238312Y52597D01*
X238291Y52557D01*
X238273Y52532D01*
X238133Y52290D01*
X237660Y51817D01*
X237081Y51482D01*
X236435Y51309D01*
X231849Y51309D01*
G37*
%LPD*%
%LPC*%
G36*
X231849Y171499D02*
X231849Y171499D01*
X231849Y177291D01*
X236435Y177291D01*
X237081Y177118D01*
X237660Y176783D01*
X238133Y176310D01*
X238468Y175731D01*
X238641Y175085D01*
X238641Y171499D01*
X231849Y171499D01*
G37*
%LPD*%
%LPC*%
G36*
X304849Y66749D02*
X304849Y66749D01*
X304849Y73541D01*
X308435Y73541D01*
X309081Y73368D01*
X309660Y73033D01*
X310133Y72560D01*
X310468Y71981D01*
X310641Y71335D01*
X310641Y66749D01*
X304849Y66749D01*
G37*
%LPD*%
%LPC*%
G36*
X84529Y64819D02*
X84529Y64819D01*
X84529Y70611D01*
X89115Y70611D01*
X89761Y70438D01*
X90340Y70103D01*
X90813Y69630D01*
X91148Y69051D01*
X91321Y68405D01*
X91321Y64819D01*
X84529Y64819D01*
G37*
%LPD*%
%LPC*%
G36*
X218559Y171499D02*
X218559Y171499D01*
X218559Y175085D01*
X218732Y175731D01*
X219067Y176310D01*
X219540Y176783D01*
X220119Y177118D01*
X220765Y177291D01*
X225351Y177291D01*
X225351Y171499D01*
X218559Y171499D01*
G37*
%LPD*%
%LPC*%
G36*
X302379Y161339D02*
X302379Y161339D01*
X302379Y164925D01*
X302552Y165571D01*
X302887Y166150D01*
X303360Y166623D01*
X303939Y166958D01*
X304585Y167131D01*
X309171Y167131D01*
X309171Y161339D01*
X302379Y161339D01*
G37*
%LPD*%
%LPC*%
G36*
X71239Y64819D02*
X71239Y64819D01*
X71239Y68405D01*
X71412Y69051D01*
X71747Y69630D01*
X72220Y70103D01*
X72799Y70438D01*
X73445Y70611D01*
X78031Y70611D01*
X78031Y64819D01*
X71239Y64819D01*
G37*
%LPD*%
%LPC*%
G36*
X304849Y53459D02*
X304849Y53459D01*
X304849Y60251D01*
X310641Y60251D01*
X310641Y55665D01*
X310468Y55019D01*
X310133Y54440D01*
X309660Y53967D01*
X309081Y53632D01*
X308435Y53459D01*
X304849Y53459D01*
G37*
%LPD*%
%LPC*%
G36*
X220765Y51309D02*
X220765Y51309D01*
X220119Y51482D01*
X219540Y51817D01*
X219067Y52290D01*
X218732Y52869D01*
X218559Y53515D01*
X218559Y57101D01*
X225351Y57101D01*
X225351Y51309D01*
X220765Y51309D01*
G37*
%LPD*%
%LPC*%
G36*
X246165Y38609D02*
X246165Y38609D01*
X245519Y38782D01*
X244940Y39117D01*
X244467Y39590D01*
X244132Y40169D01*
X243959Y40815D01*
X243959Y44401D01*
X250751Y44401D01*
X250751Y38609D01*
X246165Y38609D01*
G37*
%LPD*%
D10*
X228600Y149250D03*
X228600Y168250D03*
X312420Y139090D03*
X312420Y158090D03*
X184150Y146660D03*
X184150Y127660D03*
X204470Y134010D03*
X204470Y153010D03*
X81280Y42570D03*
X81280Y61570D03*
X254000Y66650D03*
X254000Y47650D03*
X228600Y79350D03*
X228600Y60350D03*
D11*
X282600Y63500D03*
X301600Y63500D03*
D12*
X291338Y137414D03*
X291338Y114300D03*
X291338Y91186D03*
D13*
X229360Y114300D03*
D14*
X333756Y76200D02*
X352044Y76200D01*
X352044Y101600D02*
X333756Y101600D01*
X333756Y127000D02*
X352044Y127000D01*
X352044Y152400D02*
X333756Y152400D01*
X45974Y168910D02*
X27686Y168910D01*
X27686Y143510D02*
X45974Y143510D01*
X45974Y118110D02*
X27686Y118110D01*
X27686Y92710D02*
X45974Y92710D01*
X45974Y67310D02*
X27686Y67310D01*
X27686Y41910D02*
X45974Y41910D01*
X204470Y194056D02*
X204470Y212344D01*
X179070Y212344D02*
X179070Y194056D01*
X153670Y194056D02*
X153670Y212344D01*
X128270Y212344D02*
X128270Y194056D01*
X102870Y194056D02*
X102870Y212344D01*
X77470Y212344D02*
X77470Y194056D01*
D15*
X229870Y169520D02*
X293370Y169520D01*
X229870Y169520D02*
X228600Y168250D01*
X311150Y169520D02*
X325780Y169520D01*
X311150Y169520D02*
X293370Y169520D01*
X291338Y167488D02*
X291338Y137414D01*
X291338Y167488D02*
X293370Y169520D01*
X254000Y47650D02*
X231750Y47650D01*
X228600Y50800D01*
X228600Y60350D01*
X301600Y63500D02*
X317500Y63500D01*
X330200Y50800D01*
D16*
X330200Y50800D03*
D15*
X301600Y63500D02*
X301600Y27330D01*
D17*
X328930Y26670D03*
D18*
X302260Y26670D02*
X300990Y26670D01*
D15*
X301600Y27330D02*
X302260Y26670D01*
X328930Y26670D01*
X257453Y47650D02*
X254000Y47650D01*
X278433Y26670D02*
X300990Y26670D01*
X278433Y26670D02*
X257453Y47650D01*
D17*
X246380Y167640D03*
X182880Y161290D03*
D15*
X189840Y168250D01*
X205740Y168250D01*
X228600Y168250D01*
D18*
X311150Y159360D02*
X312420Y158090D01*
X311150Y159360D02*
X311150Y169520D01*
D15*
X204470Y166980D02*
X204470Y153010D01*
X204470Y166980D02*
X205740Y168250D01*
X204470Y153010D02*
X198120Y146660D01*
X184150Y146660D01*
X77470Y143510D02*
X77470Y203200D01*
X77470Y143510D02*
X77470Y104140D01*
X77470Y143510D02*
X36830Y143510D01*
X77470Y104140D02*
X87630Y93980D01*
X87630Y82550D01*
X81280Y76200D02*
X81280Y61570D01*
X81280Y76200D02*
X87630Y82550D01*
X229210Y167640D02*
X246380Y167640D01*
X229210Y167640D02*
X228600Y168250D01*
X325780Y169520D02*
X342900Y152400D01*
X282600Y82448D02*
X282600Y63500D01*
X282600Y82448D02*
X291338Y91186D01*
X282600Y63500D02*
X257150Y63500D01*
X254000Y66650D01*
X317500Y84836D02*
X321564Y84836D01*
X317500Y84836D02*
X297688Y84836D01*
X291338Y91186D01*
X321564Y84836D02*
X330200Y76200D01*
X342900Y76200D01*
D17*
X317500Y128270D03*
D18*
X317500Y84836D01*
D15*
X128270Y203200D02*
X128270Y222250D01*
X128270Y223520D02*
X128270Y203200D01*
X128270Y223520D02*
X132080Y227330D01*
D16*
X365760Y90170D03*
D15*
X365760Y138430D01*
X365760Y157480D01*
X295910Y227330D02*
X132080Y227330D01*
X295910Y227330D02*
X365760Y157480D01*
D17*
X365760Y138430D03*
D16*
X374650Y101600D03*
D18*
X374650Y76200D01*
X361950Y63500D01*
X361950Y25400D01*
D16*
X361950Y25400D03*
X373380Y129540D03*
D18*
X397510Y129540D01*
X420370Y106680D01*
X420370Y12700D01*
D16*
X420370Y12700D03*
X406400Y107950D03*
D18*
X393700Y120650D02*
X374650Y120650D01*
X393700Y120650D02*
X406400Y107950D01*
D16*
X374650Y120650D03*
D15*
X291338Y114300D02*
X248920Y114300D01*
X229360Y114300D01*
X229360Y148490D02*
X228600Y149250D01*
X229360Y148490D02*
X229360Y115570D01*
X229360Y114300D01*
X228600Y113540D02*
X228600Y79350D01*
X228600Y113540D02*
X229360Y114300D01*
D16*
X311150Y120650D03*
D15*
X304800Y114300D01*
X291338Y114300D01*
D17*
X248920Y119380D03*
D18*
X248920Y114300D01*
X312420Y121920D02*
X312420Y139090D01*
X312420Y121920D02*
X311150Y120650D01*
X312420Y139090D02*
X313030Y139700D01*
X323850Y139700D01*
D17*
X323850Y139700D03*
D15*
X222910Y115570D02*
X204470Y134010D01*
X222910Y115570D02*
X229360Y115570D01*
X204470Y134010D02*
X198120Y127660D01*
X184150Y127660D01*
D17*
X151130Y77470D03*
D18*
X156210Y72390D01*
X162560Y72390D01*
D17*
X162560Y72390D03*
D18*
X204470Y184150D02*
X204470Y203200D01*
X199390Y179070D02*
X171450Y179070D01*
X165100Y172720D01*
X165100Y148590D01*
X165100Y147320D01*
X199390Y179070D02*
X204470Y184150D01*
D17*
X165100Y148590D03*
X273050Y77470D03*
D18*
X243840Y77470D01*
X241300Y74930D01*
X241300Y73660D01*
X237490Y69850D01*
X210820Y69850D01*
X177800Y36830D01*
X176530Y36830D01*
D17*
X177800Y36830D03*
D18*
X81280Y42570D02*
X80620Y41910D01*
X36830Y41910D01*
X153670Y118110D02*
X153670Y203200D01*
X153670Y118110D02*
X170180Y101600D01*
D17*
X170180Y101600D03*
X171450Y83820D03*
D18*
X185420Y69850D01*
X191770Y69850D01*
D17*
X191770Y69850D03*
X270510Y57150D03*
D18*
X270510Y43180D01*
D17*
X270510Y43180D03*
X165100Y91440D03*
D18*
X152400Y91440D01*
X139700Y104140D01*
D17*
X139700Y104140D03*
X128270Y176530D03*
D18*
X128270Y130810D01*
X142240Y116840D01*
D17*
X142240Y116840D03*
X77470Y90170D03*
D18*
X74930Y90170D01*
X67310Y82550D01*
D17*
X67310Y82550D03*
D18*
X102870Y132080D02*
X102870Y203200D01*
X125730Y109220D02*
X148590Y109220D01*
X170621Y92710D02*
X205740Y92710D01*
X167089Y96242D02*
X161568Y96242D01*
X167089Y96242D02*
X170621Y92710D01*
X125730Y109220D02*
X102870Y132080D01*
X148590Y109220D02*
X161568Y96242D01*
D17*
X205740Y92710D03*
M02*
