%TF.GenerationSoftware,KiCad,Pcbnew,(6.0.2)*%
%TF.CreationDate,2022-03-08T21:55:07+01:00*%
%TF.ProjectId,simple-pc_-no-fiducials,73696d70-6c65-42d7-9063-5f2d6e6f2d66,rev?*%
%TF.SameCoordinates,Original*%
%TF.FileFunction,Legend,Top*%
%TF.FilePolarity,Positive*%
%FSLAX46Y46*%
G04 Gerber Fmt 4.6, Leading zero omitted, Abs format (unit mm)*
G04 Created by KiCad (PCBNEW (6.0.2)) date 2022-03-08 21:55:07*
%MOMM*%
%LPD*%
G01*
G04 APERTURE LIST*
%ADD10C,0.150000*%
%ADD11C,0.120000*%
%ADD12C,0.152400*%
G04 APERTURE END LIST*
D10*
%TO.C,REF\u002A\u002A*%
X116776666Y-72842380D02*
X116443333Y-72366190D01*
X116205238Y-72842380D02*
X116205238Y-71842380D01*
X116586190Y-71842380D01*
X116681428Y-71890000D01*
X116729047Y-71937619D01*
X116776666Y-72032857D01*
X116776666Y-72175714D01*
X116729047Y-72270952D01*
X116681428Y-72318571D01*
X116586190Y-72366190D01*
X116205238Y-72366190D01*
X117205238Y-72318571D02*
X117538571Y-72318571D01*
X117681428Y-72842380D02*
X117205238Y-72842380D01*
X117205238Y-71842380D01*
X117681428Y-71842380D01*
X118443333Y-72318571D02*
X118110000Y-72318571D01*
X118110000Y-72842380D02*
X118110000Y-71842380D01*
X118586190Y-71842380D01*
X119110000Y-71842380D02*
X119110000Y-72080476D01*
X118871904Y-71985238D02*
X119110000Y-72080476D01*
X119348095Y-71985238D01*
X118967142Y-72270952D02*
X119110000Y-72080476D01*
X119252857Y-72270952D01*
X119871904Y-71842380D02*
X119871904Y-72080476D01*
X119633809Y-71985238D02*
X119871904Y-72080476D01*
X120110000Y-71985238D01*
X119729047Y-72270952D02*
X119871904Y-72080476D01*
X120014761Y-72270952D01*
X142176666Y-93162380D02*
X141843333Y-92686190D01*
X141605238Y-93162380D02*
X141605238Y-92162380D01*
X141986190Y-92162380D01*
X142081428Y-92210000D01*
X142129047Y-92257619D01*
X142176666Y-92352857D01*
X142176666Y-92495714D01*
X142129047Y-92590952D01*
X142081428Y-92638571D01*
X141986190Y-92686190D01*
X141605238Y-92686190D01*
X142605238Y-92638571D02*
X142938571Y-92638571D01*
X143081428Y-93162380D02*
X142605238Y-93162380D01*
X142605238Y-92162380D01*
X143081428Y-92162380D01*
X143843333Y-92638571D02*
X143510000Y-92638571D01*
X143510000Y-93162380D02*
X143510000Y-92162380D01*
X143986190Y-92162380D01*
X144510000Y-92162380D02*
X144510000Y-92400476D01*
X144271904Y-92305238D02*
X144510000Y-92400476D01*
X144748095Y-92305238D01*
X144367142Y-92590952D02*
X144510000Y-92400476D01*
X144652857Y-92590952D01*
X145271904Y-92162380D02*
X145271904Y-92400476D01*
X145033809Y-92305238D02*
X145271904Y-92400476D01*
X145510000Y-92305238D01*
X145129047Y-92590952D02*
X145271904Y-92400476D01*
X145414761Y-92590952D01*
X142176666Y-56332380D02*
X141843333Y-55856190D01*
X141605238Y-56332380D02*
X141605238Y-55332380D01*
X141986190Y-55332380D01*
X142081428Y-55380000D01*
X142129047Y-55427619D01*
X142176666Y-55522857D01*
X142176666Y-55665714D01*
X142129047Y-55760952D01*
X142081428Y-55808571D01*
X141986190Y-55856190D01*
X141605238Y-55856190D01*
X142605238Y-55808571D02*
X142938571Y-55808571D01*
X143081428Y-56332380D02*
X142605238Y-56332380D01*
X142605238Y-55332380D01*
X143081428Y-55332380D01*
X143843333Y-55808571D02*
X143510000Y-55808571D01*
X143510000Y-56332380D02*
X143510000Y-55332380D01*
X143986190Y-55332380D01*
X144510000Y-55332380D02*
X144510000Y-55570476D01*
X144271904Y-55475238D02*
X144510000Y-55570476D01*
X144748095Y-55475238D01*
X144367142Y-55760952D02*
X144510000Y-55570476D01*
X144652857Y-55760952D01*
X145271904Y-55332380D02*
X145271904Y-55570476D01*
X145033809Y-55475238D02*
X145271904Y-55570476D01*
X145510000Y-55475238D01*
X145129047Y-55760952D02*
X145271904Y-55570476D01*
X145414761Y-55760952D01*
%TO.C,R12*%
X107260380Y-75572857D02*
X106784190Y-75906190D01*
X107260380Y-76144285D02*
X106260380Y-76144285D01*
X106260380Y-75763333D01*
X106308000Y-75668095D01*
X106355619Y-75620476D01*
X106450857Y-75572857D01*
X106593714Y-75572857D01*
X106688952Y-75620476D01*
X106736571Y-75668095D01*
X106784190Y-75763333D01*
X106784190Y-76144285D01*
X107260380Y-74620476D02*
X107260380Y-75191904D01*
X107260380Y-74906190D02*
X106260380Y-74906190D01*
X106403238Y-75001428D01*
X106498476Y-75096666D01*
X106546095Y-75191904D01*
X106355619Y-74239523D02*
X106308000Y-74191904D01*
X106260380Y-74096666D01*
X106260380Y-73858571D01*
X106308000Y-73763333D01*
X106355619Y-73715714D01*
X106450857Y-73668095D01*
X106546095Y-73668095D01*
X106688952Y-73715714D01*
X107260380Y-74287142D01*
X107260380Y-73668095D01*
%TO.C,D1*%
X99894380Y-67715595D02*
X98894380Y-67715595D01*
X98894380Y-67477500D01*
X98942000Y-67334642D01*
X99037238Y-67239404D01*
X99132476Y-67191785D01*
X99322952Y-67144166D01*
X99465809Y-67144166D01*
X99656285Y-67191785D01*
X99751523Y-67239404D01*
X99846761Y-67334642D01*
X99894380Y-67477500D01*
X99894380Y-67715595D01*
X99894380Y-66191785D02*
X99894380Y-66763214D01*
X99894380Y-66477500D02*
X98894380Y-66477500D01*
X99037238Y-66572738D01*
X99132476Y-66667976D01*
X99180095Y-66763214D01*
%TO.C,Q12*%
X134659619Y-69913428D02*
X134612000Y-70008666D01*
X134516761Y-70103904D01*
X134373904Y-70246761D01*
X134326285Y-70342000D01*
X134326285Y-70437238D01*
X134564380Y-70389619D02*
X134516761Y-70484857D01*
X134421523Y-70580095D01*
X134231047Y-70627714D01*
X133897714Y-70627714D01*
X133707238Y-70580095D01*
X133612000Y-70484857D01*
X133564380Y-70389619D01*
X133564380Y-70199142D01*
X133612000Y-70103904D01*
X133707238Y-70008666D01*
X133897714Y-69961047D01*
X134231047Y-69961047D01*
X134421523Y-70008666D01*
X134516761Y-70103904D01*
X134564380Y-70199142D01*
X134564380Y-70389619D01*
X134564380Y-69008666D02*
X134564380Y-69580095D01*
X134564380Y-69294380D02*
X133564380Y-69294380D01*
X133707238Y-69389619D01*
X133802476Y-69484857D01*
X133850095Y-69580095D01*
X133659619Y-68627714D02*
X133612000Y-68580095D01*
X133564380Y-68484857D01*
X133564380Y-68246761D01*
X133612000Y-68151523D01*
X133659619Y-68103904D01*
X133754857Y-68056285D01*
X133850095Y-68056285D01*
X133992952Y-68103904D01*
X134564380Y-68675333D01*
X134564380Y-68056285D01*
%TO.C,R19*%
X123817142Y-91764380D02*
X123483809Y-91288190D01*
X123245714Y-91764380D02*
X123245714Y-90764380D01*
X123626666Y-90764380D01*
X123721904Y-90812000D01*
X123769523Y-90859619D01*
X123817142Y-90954857D01*
X123817142Y-91097714D01*
X123769523Y-91192952D01*
X123721904Y-91240571D01*
X123626666Y-91288190D01*
X123245714Y-91288190D01*
X124769523Y-91764380D02*
X124198095Y-91764380D01*
X124483809Y-91764380D02*
X124483809Y-90764380D01*
X124388571Y-90907238D01*
X124293333Y-91002476D01*
X124198095Y-91050095D01*
X125245714Y-91764380D02*
X125436190Y-91764380D01*
X125531428Y-91716761D01*
X125579047Y-91669142D01*
X125674285Y-91526285D01*
X125721904Y-91335809D01*
X125721904Y-90954857D01*
X125674285Y-90859619D01*
X125626666Y-90812000D01*
X125531428Y-90764380D01*
X125340952Y-90764380D01*
X125245714Y-90812000D01*
X125198095Y-90859619D01*
X125150476Y-90954857D01*
X125150476Y-91192952D01*
X125198095Y-91288190D01*
X125245714Y-91335809D01*
X125340952Y-91383428D01*
X125531428Y-91383428D01*
X125626666Y-91335809D01*
X125674285Y-91288190D01*
X125721904Y-91192952D01*
%TO.C,R6*%
X113405180Y-88458966D02*
X112928990Y-88792300D01*
X113405180Y-89030395D02*
X112405180Y-89030395D01*
X112405180Y-88649442D01*
X112452800Y-88554204D01*
X112500419Y-88506585D01*
X112595657Y-88458966D01*
X112738514Y-88458966D01*
X112833752Y-88506585D01*
X112881371Y-88554204D01*
X112928990Y-88649442D01*
X112928990Y-89030395D01*
X112405180Y-87601823D02*
X112405180Y-87792300D01*
X112452800Y-87887538D01*
X112500419Y-87935157D01*
X112643276Y-88030395D01*
X112833752Y-88078014D01*
X113214704Y-88078014D01*
X113309942Y-88030395D01*
X113357561Y-87982776D01*
X113405180Y-87887538D01*
X113405180Y-87697061D01*
X113357561Y-87601823D01*
X113309942Y-87554204D01*
X113214704Y-87506585D01*
X112976609Y-87506585D01*
X112881371Y-87554204D01*
X112833752Y-87601823D01*
X112786133Y-87697061D01*
X112786133Y-87887538D01*
X112833752Y-87982776D01*
X112881371Y-88030395D01*
X112976609Y-88078014D01*
%TO.C,R11*%
X117725180Y-83751657D02*
X117248990Y-84084990D01*
X117725180Y-84323085D02*
X116725180Y-84323085D01*
X116725180Y-83942133D01*
X116772800Y-83846895D01*
X116820419Y-83799276D01*
X116915657Y-83751657D01*
X117058514Y-83751657D01*
X117153752Y-83799276D01*
X117201371Y-83846895D01*
X117248990Y-83942133D01*
X117248990Y-84323085D01*
X117725180Y-82799276D02*
X117725180Y-83370704D01*
X117725180Y-83084990D02*
X116725180Y-83084990D01*
X116868038Y-83180228D01*
X116963276Y-83275466D01*
X117010895Y-83370704D01*
X117725180Y-81846895D02*
X117725180Y-82418323D01*
X117725180Y-82132609D02*
X116725180Y-82132609D01*
X116868038Y-82227847D01*
X116963276Y-82323085D01*
X117010895Y-82418323D01*
%TO.C,C4*%
X142499142Y-86272666D02*
X142546761Y-86320285D01*
X142594380Y-86463142D01*
X142594380Y-86558380D01*
X142546761Y-86701238D01*
X142451523Y-86796476D01*
X142356285Y-86844095D01*
X142165809Y-86891714D01*
X142022952Y-86891714D01*
X141832476Y-86844095D01*
X141737238Y-86796476D01*
X141642000Y-86701238D01*
X141594380Y-86558380D01*
X141594380Y-86463142D01*
X141642000Y-86320285D01*
X141689619Y-86272666D01*
X141927714Y-85415523D02*
X142594380Y-85415523D01*
X141546761Y-85653619D02*
X142261047Y-85891714D01*
X142261047Y-85272666D01*
%TO.C,Q4*%
X104806761Y-81573619D02*
X104711523Y-81526000D01*
X104616285Y-81430761D01*
X104473428Y-81287904D01*
X104378190Y-81240285D01*
X104282952Y-81240285D01*
X104330571Y-81478380D02*
X104235333Y-81430761D01*
X104140095Y-81335523D01*
X104092476Y-81145047D01*
X104092476Y-80811714D01*
X104140095Y-80621238D01*
X104235333Y-80526000D01*
X104330571Y-80478380D01*
X104521047Y-80478380D01*
X104616285Y-80526000D01*
X104711523Y-80621238D01*
X104759142Y-80811714D01*
X104759142Y-81145047D01*
X104711523Y-81335523D01*
X104616285Y-81430761D01*
X104521047Y-81478380D01*
X104330571Y-81478380D01*
X105616285Y-80811714D02*
X105616285Y-81478380D01*
X105378190Y-80430761D02*
X105140095Y-81145047D01*
X105759142Y-81145047D01*
%TO.C,R10*%
X102277942Y-87050180D02*
X101944609Y-86573990D01*
X101706514Y-87050180D02*
X101706514Y-86050180D01*
X102087466Y-86050180D01*
X102182704Y-86097800D01*
X102230323Y-86145419D01*
X102277942Y-86240657D01*
X102277942Y-86383514D01*
X102230323Y-86478752D01*
X102182704Y-86526371D01*
X102087466Y-86573990D01*
X101706514Y-86573990D01*
X103230323Y-87050180D02*
X102658895Y-87050180D01*
X102944609Y-87050180D02*
X102944609Y-86050180D01*
X102849371Y-86193038D01*
X102754133Y-86288276D01*
X102658895Y-86335895D01*
X103849371Y-86050180D02*
X103944609Y-86050180D01*
X104039847Y-86097800D01*
X104087466Y-86145419D01*
X104135085Y-86240657D01*
X104182704Y-86431133D01*
X104182704Y-86669228D01*
X104135085Y-86859704D01*
X104087466Y-86954942D01*
X104039847Y-87002561D01*
X103944609Y-87050180D01*
X103849371Y-87050180D01*
X103754133Y-87002561D01*
X103706514Y-86954942D01*
X103658895Y-86859704D01*
X103611276Y-86669228D01*
X103611276Y-86431133D01*
X103658895Y-86240657D01*
X103706514Y-86145419D01*
X103754133Y-86097800D01*
X103849371Y-86050180D01*
%TO.C,Q7*%
X126531619Y-86963238D02*
X126484000Y-87058476D01*
X126388761Y-87153714D01*
X126245904Y-87296571D01*
X126198285Y-87391809D01*
X126198285Y-87487047D01*
X126436380Y-87439428D02*
X126388761Y-87534666D01*
X126293523Y-87629904D01*
X126103047Y-87677523D01*
X125769714Y-87677523D01*
X125579238Y-87629904D01*
X125484000Y-87534666D01*
X125436380Y-87439428D01*
X125436380Y-87248952D01*
X125484000Y-87153714D01*
X125579238Y-87058476D01*
X125769714Y-87010857D01*
X126103047Y-87010857D01*
X126293523Y-87058476D01*
X126388761Y-87153714D01*
X126436380Y-87248952D01*
X126436380Y-87439428D01*
X125436380Y-86677523D02*
X125436380Y-86010857D01*
X126436380Y-86439428D01*
%TO.C,R26*%
X130120380Y-73794857D02*
X129644190Y-74128190D01*
X130120380Y-74366285D02*
X129120380Y-74366285D01*
X129120380Y-73985333D01*
X129168000Y-73890095D01*
X129215619Y-73842476D01*
X129310857Y-73794857D01*
X129453714Y-73794857D01*
X129548952Y-73842476D01*
X129596571Y-73890095D01*
X129644190Y-73985333D01*
X129644190Y-74366285D01*
X129215619Y-73413904D02*
X129168000Y-73366285D01*
X129120380Y-73271047D01*
X129120380Y-73032952D01*
X129168000Y-72937714D01*
X129215619Y-72890095D01*
X129310857Y-72842476D01*
X129406095Y-72842476D01*
X129548952Y-72890095D01*
X130120380Y-73461523D01*
X130120380Y-72842476D01*
X129120380Y-71985333D02*
X129120380Y-72175809D01*
X129168000Y-72271047D01*
X129215619Y-72318666D01*
X129358476Y-72413904D01*
X129548952Y-72461523D01*
X129929904Y-72461523D01*
X130025142Y-72413904D01*
X130072761Y-72366285D01*
X130120380Y-72271047D01*
X130120380Y-72080571D01*
X130072761Y-71985333D01*
X130025142Y-71937714D01*
X129929904Y-71890095D01*
X129691809Y-71890095D01*
X129596571Y-71937714D01*
X129548952Y-71985333D01*
X129501333Y-72080571D01*
X129501333Y-72271047D01*
X129548952Y-72366285D01*
X129596571Y-72413904D01*
X129691809Y-72461523D01*
%TO.C,R16*%
X136771142Y-84146380D02*
X136437809Y-83670190D01*
X136199714Y-84146380D02*
X136199714Y-83146380D01*
X136580666Y-83146380D01*
X136675904Y-83194000D01*
X136723523Y-83241619D01*
X136771142Y-83336857D01*
X136771142Y-83479714D01*
X136723523Y-83574952D01*
X136675904Y-83622571D01*
X136580666Y-83670190D01*
X136199714Y-83670190D01*
X137723523Y-84146380D02*
X137152095Y-84146380D01*
X137437809Y-84146380D02*
X137437809Y-83146380D01*
X137342571Y-83289238D01*
X137247333Y-83384476D01*
X137152095Y-83432095D01*
X138580666Y-83146380D02*
X138390190Y-83146380D01*
X138294952Y-83194000D01*
X138247333Y-83241619D01*
X138152095Y-83384476D01*
X138104476Y-83574952D01*
X138104476Y-83955904D01*
X138152095Y-84051142D01*
X138199714Y-84098761D01*
X138294952Y-84146380D01*
X138485428Y-84146380D01*
X138580666Y-84098761D01*
X138628285Y-84051142D01*
X138675904Y-83955904D01*
X138675904Y-83717809D01*
X138628285Y-83622571D01*
X138580666Y-83574952D01*
X138485428Y-83527333D01*
X138294952Y-83527333D01*
X138199714Y-83574952D01*
X138152095Y-83622571D01*
X138104476Y-83717809D01*
%TO.C,Q10*%
X131611619Y-75247428D02*
X131564000Y-75342666D01*
X131468761Y-75437904D01*
X131325904Y-75580761D01*
X131278285Y-75676000D01*
X131278285Y-75771238D01*
X131516380Y-75723619D02*
X131468761Y-75818857D01*
X131373523Y-75914095D01*
X131183047Y-75961714D01*
X130849714Y-75961714D01*
X130659238Y-75914095D01*
X130564000Y-75818857D01*
X130516380Y-75723619D01*
X130516380Y-75533142D01*
X130564000Y-75437904D01*
X130659238Y-75342666D01*
X130849714Y-75295047D01*
X131183047Y-75295047D01*
X131373523Y-75342666D01*
X131468761Y-75437904D01*
X131516380Y-75533142D01*
X131516380Y-75723619D01*
X131516380Y-74342666D02*
X131516380Y-74914095D01*
X131516380Y-74628380D02*
X130516380Y-74628380D01*
X130659238Y-74723619D01*
X130754476Y-74818857D01*
X130802095Y-74914095D01*
X130516380Y-73723619D02*
X130516380Y-73628380D01*
X130564000Y-73533142D01*
X130611619Y-73485523D01*
X130706857Y-73437904D01*
X130897333Y-73390285D01*
X131135428Y-73390285D01*
X131325904Y-73437904D01*
X131421142Y-73485523D01*
X131468761Y-73533142D01*
X131516380Y-73628380D01*
X131516380Y-73723619D01*
X131468761Y-73818857D01*
X131421142Y-73866476D01*
X131325904Y-73914095D01*
X131135428Y-73961714D01*
X130897333Y-73961714D01*
X130706857Y-73914095D01*
X130611619Y-73866476D01*
X130564000Y-73818857D01*
X130516380Y-73723619D01*
%TO.C,R17*%
X136771142Y-84906380D02*
X136437809Y-84430190D01*
X136199714Y-84906380D02*
X136199714Y-83906380D01*
X136580666Y-83906380D01*
X136675904Y-83954000D01*
X136723523Y-84001619D01*
X136771142Y-84096857D01*
X136771142Y-84239714D01*
X136723523Y-84334952D01*
X136675904Y-84382571D01*
X136580666Y-84430190D01*
X136199714Y-84430190D01*
X137723523Y-84906380D02*
X137152095Y-84906380D01*
X137437809Y-84906380D02*
X137437809Y-83906380D01*
X137342571Y-84049238D01*
X137247333Y-84144476D01*
X137152095Y-84192095D01*
X138056857Y-83906380D02*
X138723523Y-83906380D01*
X138294952Y-84906380D01*
%TO.C,R20*%
X135960380Y-87764857D02*
X135484190Y-88098190D01*
X135960380Y-88336285D02*
X134960380Y-88336285D01*
X134960380Y-87955333D01*
X135008000Y-87860095D01*
X135055619Y-87812476D01*
X135150857Y-87764857D01*
X135293714Y-87764857D01*
X135388952Y-87812476D01*
X135436571Y-87860095D01*
X135484190Y-87955333D01*
X135484190Y-88336285D01*
X135055619Y-87383904D02*
X135008000Y-87336285D01*
X134960380Y-87241047D01*
X134960380Y-87002952D01*
X135008000Y-86907714D01*
X135055619Y-86860095D01*
X135150857Y-86812476D01*
X135246095Y-86812476D01*
X135388952Y-86860095D01*
X135960380Y-87431523D01*
X135960380Y-86812476D01*
X134960380Y-86193428D02*
X134960380Y-86098190D01*
X135008000Y-86002952D01*
X135055619Y-85955333D01*
X135150857Y-85907714D01*
X135341333Y-85860095D01*
X135579428Y-85860095D01*
X135769904Y-85907714D01*
X135865142Y-85955333D01*
X135912761Y-86002952D01*
X135960380Y-86098190D01*
X135960380Y-86193428D01*
X135912761Y-86288666D01*
X135865142Y-86336285D01*
X135769904Y-86383904D01*
X135579428Y-86431523D01*
X135341333Y-86431523D01*
X135150857Y-86383904D01*
X135055619Y-86336285D01*
X135008000Y-86288666D01*
X134960380Y-86193428D01*
%TO.C,Q6*%
X111799619Y-71469238D02*
X111752000Y-71564476D01*
X111656761Y-71659714D01*
X111513904Y-71802571D01*
X111466285Y-71897809D01*
X111466285Y-71993047D01*
X111704380Y-71945428D02*
X111656761Y-72040666D01*
X111561523Y-72135904D01*
X111371047Y-72183523D01*
X111037714Y-72183523D01*
X110847238Y-72135904D01*
X110752000Y-72040666D01*
X110704380Y-71945428D01*
X110704380Y-71754952D01*
X110752000Y-71659714D01*
X110847238Y-71564476D01*
X111037714Y-71516857D01*
X111371047Y-71516857D01*
X111561523Y-71564476D01*
X111656761Y-71659714D01*
X111704380Y-71754952D01*
X111704380Y-71945428D01*
X110704380Y-70659714D02*
X110704380Y-70850190D01*
X110752000Y-70945428D01*
X110799619Y-70993047D01*
X110942476Y-71088285D01*
X111132952Y-71135904D01*
X111513904Y-71135904D01*
X111609142Y-71088285D01*
X111656761Y-71040666D01*
X111704380Y-70945428D01*
X111704380Y-70754952D01*
X111656761Y-70659714D01*
X111609142Y-70612095D01*
X111513904Y-70564476D01*
X111275809Y-70564476D01*
X111180571Y-70612095D01*
X111132952Y-70659714D01*
X111085333Y-70754952D01*
X111085333Y-70945428D01*
X111132952Y-71040666D01*
X111180571Y-71088285D01*
X111275809Y-71135904D01*
%TO.C,R1*%
X106056133Y-93021180D02*
X105722800Y-92544990D01*
X105484704Y-93021180D02*
X105484704Y-92021180D01*
X105865657Y-92021180D01*
X105960895Y-92068800D01*
X106008514Y-92116419D01*
X106056133Y-92211657D01*
X106056133Y-92354514D01*
X106008514Y-92449752D01*
X105960895Y-92497371D01*
X105865657Y-92544990D01*
X105484704Y-92544990D01*
X107008514Y-93021180D02*
X106437085Y-93021180D01*
X106722800Y-93021180D02*
X106722800Y-92021180D01*
X106627561Y-92164038D01*
X106532323Y-92259276D01*
X106437085Y-92306895D01*
%TO.C,C3*%
X133355142Y-83732666D02*
X133402761Y-83780285D01*
X133450380Y-83923142D01*
X133450380Y-84018380D01*
X133402761Y-84161238D01*
X133307523Y-84256476D01*
X133212285Y-84304095D01*
X133021809Y-84351714D01*
X132878952Y-84351714D01*
X132688476Y-84304095D01*
X132593238Y-84256476D01*
X132498000Y-84161238D01*
X132450380Y-84018380D01*
X132450380Y-83923142D01*
X132498000Y-83780285D01*
X132545619Y-83732666D01*
X132450380Y-83399333D02*
X132450380Y-82780285D01*
X132831333Y-83113619D01*
X132831333Y-82970761D01*
X132878952Y-82875523D01*
X132926571Y-82827904D01*
X133021809Y-82780285D01*
X133259904Y-82780285D01*
X133355142Y-82827904D01*
X133402761Y-82875523D01*
X133450380Y-82970761D01*
X133450380Y-83256476D01*
X133402761Y-83351714D01*
X133355142Y-83399333D01*
%TO.C,R21*%
X130626380Y-83954857D02*
X130150190Y-84288190D01*
X130626380Y-84526285D02*
X129626380Y-84526285D01*
X129626380Y-84145333D01*
X129674000Y-84050095D01*
X129721619Y-84002476D01*
X129816857Y-83954857D01*
X129959714Y-83954857D01*
X130054952Y-84002476D01*
X130102571Y-84050095D01*
X130150190Y-84145333D01*
X130150190Y-84526285D01*
X129721619Y-83573904D02*
X129674000Y-83526285D01*
X129626380Y-83431047D01*
X129626380Y-83192952D01*
X129674000Y-83097714D01*
X129721619Y-83050095D01*
X129816857Y-83002476D01*
X129912095Y-83002476D01*
X130054952Y-83050095D01*
X130626380Y-83621523D01*
X130626380Y-83002476D01*
X130626380Y-82050095D02*
X130626380Y-82621523D01*
X130626380Y-82335809D02*
X129626380Y-82335809D01*
X129769238Y-82431047D01*
X129864476Y-82526285D01*
X129912095Y-82621523D01*
%TO.C,R5*%
X101761633Y-94035180D02*
X101428300Y-93558990D01*
X101190204Y-94035180D02*
X101190204Y-93035180D01*
X101571157Y-93035180D01*
X101666395Y-93082800D01*
X101714014Y-93130419D01*
X101761633Y-93225657D01*
X101761633Y-93368514D01*
X101714014Y-93463752D01*
X101666395Y-93511371D01*
X101571157Y-93558990D01*
X101190204Y-93558990D01*
X102666395Y-93035180D02*
X102190204Y-93035180D01*
X102142585Y-93511371D01*
X102190204Y-93463752D01*
X102285442Y-93416133D01*
X102523538Y-93416133D01*
X102618776Y-93463752D01*
X102666395Y-93511371D01*
X102714014Y-93606609D01*
X102714014Y-93844704D01*
X102666395Y-93939942D01*
X102618776Y-93987561D01*
X102523538Y-94035180D01*
X102285442Y-94035180D01*
X102190204Y-93987561D01*
X102142585Y-93939942D01*
%TO.C,Q8*%
X133897619Y-88233238D02*
X133850000Y-88328476D01*
X133754761Y-88423714D01*
X133611904Y-88566571D01*
X133564285Y-88661809D01*
X133564285Y-88757047D01*
X133802380Y-88709428D02*
X133754761Y-88804666D01*
X133659523Y-88899904D01*
X133469047Y-88947523D01*
X133135714Y-88947523D01*
X132945238Y-88899904D01*
X132850000Y-88804666D01*
X132802380Y-88709428D01*
X132802380Y-88518952D01*
X132850000Y-88423714D01*
X132945238Y-88328476D01*
X133135714Y-88280857D01*
X133469047Y-88280857D01*
X133659523Y-88328476D01*
X133754761Y-88423714D01*
X133802380Y-88518952D01*
X133802380Y-88709428D01*
X133230952Y-87709428D02*
X133183333Y-87804666D01*
X133135714Y-87852285D01*
X133040476Y-87899904D01*
X132992857Y-87899904D01*
X132897619Y-87852285D01*
X132850000Y-87804666D01*
X132802380Y-87709428D01*
X132802380Y-87518952D01*
X132850000Y-87423714D01*
X132897619Y-87376095D01*
X132992857Y-87328476D01*
X133040476Y-87328476D01*
X133135714Y-87376095D01*
X133183333Y-87423714D01*
X133230952Y-87518952D01*
X133230952Y-87709428D01*
X133278571Y-87804666D01*
X133326190Y-87852285D01*
X133421428Y-87899904D01*
X133611904Y-87899904D01*
X133707142Y-87852285D01*
X133754761Y-87804666D01*
X133802380Y-87709428D01*
X133802380Y-87518952D01*
X133754761Y-87423714D01*
X133707142Y-87376095D01*
X133611904Y-87328476D01*
X133421428Y-87328476D01*
X133326190Y-87376095D01*
X133278571Y-87423714D01*
X133230952Y-87518952D01*
%TO.C,C2*%
X120959942Y-86765466D02*
X121007561Y-86813085D01*
X121055180Y-86955942D01*
X121055180Y-87051180D01*
X121007561Y-87194038D01*
X120912323Y-87289276D01*
X120817085Y-87336895D01*
X120626609Y-87384514D01*
X120483752Y-87384514D01*
X120293276Y-87336895D01*
X120198038Y-87289276D01*
X120102800Y-87194038D01*
X120055180Y-87051180D01*
X120055180Y-86955942D01*
X120102800Y-86813085D01*
X120150419Y-86765466D01*
X120150419Y-86384514D02*
X120102800Y-86336895D01*
X120055180Y-86241657D01*
X120055180Y-86003561D01*
X120102800Y-85908323D01*
X120150419Y-85860704D01*
X120245657Y-85813085D01*
X120340895Y-85813085D01*
X120483752Y-85860704D01*
X121055180Y-86432133D01*
X121055180Y-85813085D01*
%TO.C,R9*%
X109053333Y-77034380D02*
X108720000Y-76558190D01*
X108481904Y-77034380D02*
X108481904Y-76034380D01*
X108862857Y-76034380D01*
X108958095Y-76082000D01*
X109005714Y-76129619D01*
X109053333Y-76224857D01*
X109053333Y-76367714D01*
X109005714Y-76462952D01*
X108958095Y-76510571D01*
X108862857Y-76558190D01*
X108481904Y-76558190D01*
X109529523Y-77034380D02*
X109720000Y-77034380D01*
X109815238Y-76986761D01*
X109862857Y-76939142D01*
X109958095Y-76796285D01*
X110005714Y-76605809D01*
X110005714Y-76224857D01*
X109958095Y-76129619D01*
X109910476Y-76082000D01*
X109815238Y-76034380D01*
X109624761Y-76034380D01*
X109529523Y-76082000D01*
X109481904Y-76129619D01*
X109434285Y-76224857D01*
X109434285Y-76462952D01*
X109481904Y-76558190D01*
X109529523Y-76605809D01*
X109624761Y-76653428D01*
X109815238Y-76653428D01*
X109910476Y-76605809D01*
X109958095Y-76558190D01*
X110005714Y-76462952D01*
%TO.C,Q3*%
X101047561Y-81624419D02*
X100952323Y-81576800D01*
X100857085Y-81481561D01*
X100714228Y-81338704D01*
X100618990Y-81291085D01*
X100523752Y-81291085D01*
X100571371Y-81529180D02*
X100476133Y-81481561D01*
X100380895Y-81386323D01*
X100333276Y-81195847D01*
X100333276Y-80862514D01*
X100380895Y-80672038D01*
X100476133Y-80576800D01*
X100571371Y-80529180D01*
X100761847Y-80529180D01*
X100857085Y-80576800D01*
X100952323Y-80672038D01*
X100999942Y-80862514D01*
X100999942Y-81195847D01*
X100952323Y-81386323D01*
X100857085Y-81481561D01*
X100761847Y-81529180D01*
X100571371Y-81529180D01*
X101333276Y-80529180D02*
X101952323Y-80529180D01*
X101618990Y-80910133D01*
X101761847Y-80910133D01*
X101857085Y-80957752D01*
X101904704Y-81005371D01*
X101952323Y-81100609D01*
X101952323Y-81338704D01*
X101904704Y-81433942D01*
X101857085Y-81481561D01*
X101761847Y-81529180D01*
X101476133Y-81529180D01*
X101380895Y-81481561D01*
X101333276Y-81433942D01*
%TO.C,C1*%
X110799942Y-85749466D02*
X110847561Y-85797085D01*
X110895180Y-85939942D01*
X110895180Y-86035180D01*
X110847561Y-86178038D01*
X110752323Y-86273276D01*
X110657085Y-86320895D01*
X110466609Y-86368514D01*
X110323752Y-86368514D01*
X110133276Y-86320895D01*
X110038038Y-86273276D01*
X109942800Y-86178038D01*
X109895180Y-86035180D01*
X109895180Y-85939942D01*
X109942800Y-85797085D01*
X109990419Y-85749466D01*
X110895180Y-84797085D02*
X110895180Y-85368514D01*
X110895180Y-85082800D02*
X109895180Y-85082800D01*
X110038038Y-85178038D01*
X110133276Y-85273276D01*
X110180895Y-85368514D01*
%TO.C,R14*%
X101211142Y-69922380D02*
X100877809Y-69446190D01*
X100639714Y-69922380D02*
X100639714Y-68922380D01*
X101020666Y-68922380D01*
X101115904Y-68970000D01*
X101163523Y-69017619D01*
X101211142Y-69112857D01*
X101211142Y-69255714D01*
X101163523Y-69350952D01*
X101115904Y-69398571D01*
X101020666Y-69446190D01*
X100639714Y-69446190D01*
X102163523Y-69922380D02*
X101592095Y-69922380D01*
X101877809Y-69922380D02*
X101877809Y-68922380D01*
X101782571Y-69065238D01*
X101687333Y-69160476D01*
X101592095Y-69208095D01*
X103020666Y-69255714D02*
X103020666Y-69922380D01*
X102782571Y-68874761D02*
X102544476Y-69589047D01*
X103163523Y-69589047D01*
%TO.C,R23*%
X133420380Y-77604857D02*
X132944190Y-77938190D01*
X133420380Y-78176285D02*
X132420380Y-78176285D01*
X132420380Y-77795333D01*
X132468000Y-77700095D01*
X132515619Y-77652476D01*
X132610857Y-77604857D01*
X132753714Y-77604857D01*
X132848952Y-77652476D01*
X132896571Y-77700095D01*
X132944190Y-77795333D01*
X132944190Y-78176285D01*
X132515619Y-77223904D02*
X132468000Y-77176285D01*
X132420380Y-77081047D01*
X132420380Y-76842952D01*
X132468000Y-76747714D01*
X132515619Y-76700095D01*
X132610857Y-76652476D01*
X132706095Y-76652476D01*
X132848952Y-76700095D01*
X133420380Y-77271523D01*
X133420380Y-76652476D01*
X132420380Y-76319142D02*
X132420380Y-75700095D01*
X132801333Y-76033428D01*
X132801333Y-75890571D01*
X132848952Y-75795333D01*
X132896571Y-75747714D01*
X132991809Y-75700095D01*
X133229904Y-75700095D01*
X133325142Y-75747714D01*
X133372761Y-75795333D01*
X133420380Y-75890571D01*
X133420380Y-76176285D01*
X133372761Y-76271523D01*
X133325142Y-76319142D01*
%TO.C,R13*%
X101007942Y-96321180D02*
X100674609Y-95844990D01*
X100436514Y-96321180D02*
X100436514Y-95321180D01*
X100817466Y-95321180D01*
X100912704Y-95368800D01*
X100960323Y-95416419D01*
X101007942Y-95511657D01*
X101007942Y-95654514D01*
X100960323Y-95749752D01*
X100912704Y-95797371D01*
X100817466Y-95844990D01*
X100436514Y-95844990D01*
X101960323Y-96321180D02*
X101388895Y-96321180D01*
X101674609Y-96321180D02*
X101674609Y-95321180D01*
X101579371Y-95464038D01*
X101484133Y-95559276D01*
X101388895Y-95606895D01*
X102293657Y-95321180D02*
X102912704Y-95321180D01*
X102579371Y-95702133D01*
X102722228Y-95702133D01*
X102817466Y-95749752D01*
X102865085Y-95797371D01*
X102912704Y-95892609D01*
X102912704Y-96130704D01*
X102865085Y-96225942D01*
X102817466Y-96273561D01*
X102722228Y-96321180D01*
X102436514Y-96321180D01*
X102341276Y-96273561D01*
X102293657Y-96225942D01*
%TO.C,R22*%
X132660380Y-84105357D02*
X132184190Y-84438690D01*
X132660380Y-84676785D02*
X131660380Y-84676785D01*
X131660380Y-84295833D01*
X131708000Y-84200595D01*
X131755619Y-84152976D01*
X131850857Y-84105357D01*
X131993714Y-84105357D01*
X132088952Y-84152976D01*
X132136571Y-84200595D01*
X132184190Y-84295833D01*
X132184190Y-84676785D01*
X131755619Y-83724404D02*
X131708000Y-83676785D01*
X131660380Y-83581547D01*
X131660380Y-83343452D01*
X131708000Y-83248214D01*
X131755619Y-83200595D01*
X131850857Y-83152976D01*
X131946095Y-83152976D01*
X132088952Y-83200595D01*
X132660380Y-83772023D01*
X132660380Y-83152976D01*
X131755619Y-82772023D02*
X131708000Y-82724404D01*
X131660380Y-82629166D01*
X131660380Y-82391071D01*
X131708000Y-82295833D01*
X131755619Y-82248214D01*
X131850857Y-82200595D01*
X131946095Y-82200595D01*
X132088952Y-82248214D01*
X132660380Y-82819642D01*
X132660380Y-82200595D01*
%TO.C,R2*%
X115693180Y-86831466D02*
X115216990Y-87164800D01*
X115693180Y-87402895D02*
X114693180Y-87402895D01*
X114693180Y-87021942D01*
X114740800Y-86926704D01*
X114788419Y-86879085D01*
X114883657Y-86831466D01*
X115026514Y-86831466D01*
X115121752Y-86879085D01*
X115169371Y-86926704D01*
X115216990Y-87021942D01*
X115216990Y-87402895D01*
X114788419Y-86450514D02*
X114740800Y-86402895D01*
X114693180Y-86307657D01*
X114693180Y-86069561D01*
X114740800Y-85974323D01*
X114788419Y-85926704D01*
X114883657Y-85879085D01*
X114978895Y-85879085D01*
X115121752Y-85926704D01*
X115693180Y-86498133D01*
X115693180Y-85879085D01*
%TO.C,Q5*%
X101555561Y-92480419D02*
X101460323Y-92432800D01*
X101365085Y-92337561D01*
X101222228Y-92194704D01*
X101126990Y-92147085D01*
X101031752Y-92147085D01*
X101079371Y-92385180D02*
X100984133Y-92337561D01*
X100888895Y-92242323D01*
X100841276Y-92051847D01*
X100841276Y-91718514D01*
X100888895Y-91528038D01*
X100984133Y-91432800D01*
X101079371Y-91385180D01*
X101269847Y-91385180D01*
X101365085Y-91432800D01*
X101460323Y-91528038D01*
X101507942Y-91718514D01*
X101507942Y-92051847D01*
X101460323Y-92242323D01*
X101365085Y-92337561D01*
X101269847Y-92385180D01*
X101079371Y-92385180D01*
X102412704Y-91385180D02*
X101936514Y-91385180D01*
X101888895Y-91861371D01*
X101936514Y-91813752D01*
X102031752Y-91766133D01*
X102269847Y-91766133D01*
X102365085Y-91813752D01*
X102412704Y-91861371D01*
X102460323Y-91956609D01*
X102460323Y-92194704D01*
X102412704Y-92289942D01*
X102365085Y-92337561D01*
X102269847Y-92385180D01*
X102031752Y-92385180D01*
X101936514Y-92337561D01*
X101888895Y-92289942D01*
%TO.C,R7*%
X107817180Y-85114466D02*
X107340990Y-85447800D01*
X107817180Y-85685895D02*
X106817180Y-85685895D01*
X106817180Y-85304942D01*
X106864800Y-85209704D01*
X106912419Y-85162085D01*
X107007657Y-85114466D01*
X107150514Y-85114466D01*
X107245752Y-85162085D01*
X107293371Y-85209704D01*
X107340990Y-85304942D01*
X107340990Y-85685895D01*
X106817180Y-84781133D02*
X106817180Y-84114466D01*
X107817180Y-84543038D01*
%TO.C,R28*%
X124325142Y-69414380D02*
X123991809Y-68938190D01*
X123753714Y-69414380D02*
X123753714Y-68414380D01*
X124134666Y-68414380D01*
X124229904Y-68462000D01*
X124277523Y-68509619D01*
X124325142Y-68604857D01*
X124325142Y-68747714D01*
X124277523Y-68842952D01*
X124229904Y-68890571D01*
X124134666Y-68938190D01*
X123753714Y-68938190D01*
X124706095Y-68509619D02*
X124753714Y-68462000D01*
X124848952Y-68414380D01*
X125087047Y-68414380D01*
X125182285Y-68462000D01*
X125229904Y-68509619D01*
X125277523Y-68604857D01*
X125277523Y-68700095D01*
X125229904Y-68842952D01*
X124658476Y-69414380D01*
X125277523Y-69414380D01*
X125848952Y-68842952D02*
X125753714Y-68795333D01*
X125706095Y-68747714D01*
X125658476Y-68652476D01*
X125658476Y-68604857D01*
X125706095Y-68509619D01*
X125753714Y-68462000D01*
X125848952Y-68414380D01*
X126039428Y-68414380D01*
X126134666Y-68462000D01*
X126182285Y-68509619D01*
X126229904Y-68604857D01*
X126229904Y-68652476D01*
X126182285Y-68747714D01*
X126134666Y-68795333D01*
X126039428Y-68842952D01*
X125848952Y-68842952D01*
X125753714Y-68890571D01*
X125706095Y-68938190D01*
X125658476Y-69033428D01*
X125658476Y-69223904D01*
X125706095Y-69319142D01*
X125753714Y-69366761D01*
X125848952Y-69414380D01*
X126039428Y-69414380D01*
X126134666Y-69366761D01*
X126182285Y-69319142D01*
X126229904Y-69223904D01*
X126229904Y-69033428D01*
X126182285Y-68938190D01*
X126134666Y-68890571D01*
X126039428Y-68842952D01*
%TO.C,R8*%
X110105180Y-84291466D02*
X109628990Y-84624800D01*
X110105180Y-84862895D02*
X109105180Y-84862895D01*
X109105180Y-84481942D01*
X109152800Y-84386704D01*
X109200419Y-84339085D01*
X109295657Y-84291466D01*
X109438514Y-84291466D01*
X109533752Y-84339085D01*
X109581371Y-84386704D01*
X109628990Y-84481942D01*
X109628990Y-84862895D01*
X109533752Y-83720038D02*
X109486133Y-83815276D01*
X109438514Y-83862895D01*
X109343276Y-83910514D01*
X109295657Y-83910514D01*
X109200419Y-83862895D01*
X109152800Y-83815276D01*
X109105180Y-83720038D01*
X109105180Y-83529561D01*
X109152800Y-83434323D01*
X109200419Y-83386704D01*
X109295657Y-83339085D01*
X109343276Y-83339085D01*
X109438514Y-83386704D01*
X109486133Y-83434323D01*
X109533752Y-83529561D01*
X109533752Y-83720038D01*
X109581371Y-83815276D01*
X109628990Y-83862895D01*
X109724228Y-83910514D01*
X109914704Y-83910514D01*
X110009942Y-83862895D01*
X110057561Y-83815276D01*
X110105180Y-83720038D01*
X110105180Y-83529561D01*
X110057561Y-83434323D01*
X110009942Y-83386704D01*
X109914704Y-83339085D01*
X109724228Y-83339085D01*
X109628990Y-83386704D01*
X109581371Y-83434323D01*
X109533752Y-83529561D01*
%TO.C,Q2*%
X111596419Y-89300038D02*
X111548800Y-89395276D01*
X111453561Y-89490514D01*
X111310704Y-89633371D01*
X111263085Y-89728609D01*
X111263085Y-89823847D01*
X111501180Y-89776228D02*
X111453561Y-89871466D01*
X111358323Y-89966704D01*
X111167847Y-90014323D01*
X110834514Y-90014323D01*
X110644038Y-89966704D01*
X110548800Y-89871466D01*
X110501180Y-89776228D01*
X110501180Y-89585752D01*
X110548800Y-89490514D01*
X110644038Y-89395276D01*
X110834514Y-89347657D01*
X111167847Y-89347657D01*
X111358323Y-89395276D01*
X111453561Y-89490514D01*
X111501180Y-89585752D01*
X111501180Y-89776228D01*
X110596419Y-88966704D02*
X110548800Y-88919085D01*
X110501180Y-88823847D01*
X110501180Y-88585752D01*
X110548800Y-88490514D01*
X110596419Y-88442895D01*
X110691657Y-88395276D01*
X110786895Y-88395276D01*
X110929752Y-88442895D01*
X111501180Y-89014323D01*
X111501180Y-88395276D01*
%TO.C,R24*%
X124833142Y-84652380D02*
X124499809Y-84176190D01*
X124261714Y-84652380D02*
X124261714Y-83652380D01*
X124642666Y-83652380D01*
X124737904Y-83700000D01*
X124785523Y-83747619D01*
X124833142Y-83842857D01*
X124833142Y-83985714D01*
X124785523Y-84080952D01*
X124737904Y-84128571D01*
X124642666Y-84176190D01*
X124261714Y-84176190D01*
X125214095Y-83747619D02*
X125261714Y-83700000D01*
X125356952Y-83652380D01*
X125595047Y-83652380D01*
X125690285Y-83700000D01*
X125737904Y-83747619D01*
X125785523Y-83842857D01*
X125785523Y-83938095D01*
X125737904Y-84080952D01*
X125166476Y-84652380D01*
X125785523Y-84652380D01*
X126642666Y-83985714D02*
X126642666Y-84652380D01*
X126404571Y-83604761D02*
X126166476Y-84319047D01*
X126785523Y-84319047D01*
%TO.C,R18*%
X127627142Y-92272380D02*
X127293809Y-91796190D01*
X127055714Y-92272380D02*
X127055714Y-91272380D01*
X127436666Y-91272380D01*
X127531904Y-91320000D01*
X127579523Y-91367619D01*
X127627142Y-91462857D01*
X127627142Y-91605714D01*
X127579523Y-91700952D01*
X127531904Y-91748571D01*
X127436666Y-91796190D01*
X127055714Y-91796190D01*
X128579523Y-92272380D02*
X128008095Y-92272380D01*
X128293809Y-92272380D02*
X128293809Y-91272380D01*
X128198571Y-91415238D01*
X128103333Y-91510476D01*
X128008095Y-91558095D01*
X129150952Y-91700952D02*
X129055714Y-91653333D01*
X129008095Y-91605714D01*
X128960476Y-91510476D01*
X128960476Y-91462857D01*
X129008095Y-91367619D01*
X129055714Y-91320000D01*
X129150952Y-91272380D01*
X129341428Y-91272380D01*
X129436666Y-91320000D01*
X129484285Y-91367619D01*
X129531904Y-91462857D01*
X129531904Y-91510476D01*
X129484285Y-91605714D01*
X129436666Y-91653333D01*
X129341428Y-91700952D01*
X129150952Y-91700952D01*
X129055714Y-91748571D01*
X129008095Y-91796190D01*
X128960476Y-91891428D01*
X128960476Y-92081904D01*
X129008095Y-92177142D01*
X129055714Y-92224761D01*
X129150952Y-92272380D01*
X129341428Y-92272380D01*
X129436666Y-92224761D01*
X129484285Y-92177142D01*
X129531904Y-92081904D01*
X129531904Y-91891428D01*
X129484285Y-91796190D01*
X129436666Y-91748571D01*
X129341428Y-91700952D01*
%TO.C,Q1*%
X109183419Y-90123038D02*
X109135800Y-90218276D01*
X109040561Y-90313514D01*
X108897704Y-90456371D01*
X108850085Y-90551609D01*
X108850085Y-90646847D01*
X109088180Y-90599228D02*
X109040561Y-90694466D01*
X108945323Y-90789704D01*
X108754847Y-90837323D01*
X108421514Y-90837323D01*
X108231038Y-90789704D01*
X108135800Y-90694466D01*
X108088180Y-90599228D01*
X108088180Y-90408752D01*
X108135800Y-90313514D01*
X108231038Y-90218276D01*
X108421514Y-90170657D01*
X108754847Y-90170657D01*
X108945323Y-90218276D01*
X109040561Y-90313514D01*
X109088180Y-90408752D01*
X109088180Y-90599228D01*
X109088180Y-89218276D02*
X109088180Y-89789704D01*
X109088180Y-89503990D02*
X108088180Y-89503990D01*
X108231038Y-89599228D01*
X108326276Y-89694466D01*
X108373895Y-89789704D01*
%TO.C,D2*%
X123516380Y-66524095D02*
X122516380Y-66524095D01*
X122516380Y-66286000D01*
X122564000Y-66143142D01*
X122659238Y-66047904D01*
X122754476Y-66000285D01*
X122944952Y-65952666D01*
X123087809Y-65952666D01*
X123278285Y-66000285D01*
X123373523Y-66047904D01*
X123468761Y-66143142D01*
X123516380Y-66286000D01*
X123516380Y-66524095D01*
X122611619Y-65571714D02*
X122564000Y-65524095D01*
X122516380Y-65428857D01*
X122516380Y-65190761D01*
X122564000Y-65095523D01*
X122611619Y-65047904D01*
X122706857Y-65000285D01*
X122802095Y-65000285D01*
X122944952Y-65047904D01*
X123516380Y-65619333D01*
X123516380Y-65000285D01*
%TO.C,R3*%
X113661180Y-84799466D02*
X113184990Y-85132800D01*
X113661180Y-85370895D02*
X112661180Y-85370895D01*
X112661180Y-84989942D01*
X112708800Y-84894704D01*
X112756419Y-84847085D01*
X112851657Y-84799466D01*
X112994514Y-84799466D01*
X113089752Y-84847085D01*
X113137371Y-84894704D01*
X113184990Y-84989942D01*
X113184990Y-85370895D01*
X112661180Y-84466133D02*
X112661180Y-83847085D01*
X113042133Y-84180419D01*
X113042133Y-84037561D01*
X113089752Y-83942323D01*
X113137371Y-83894704D01*
X113232609Y-83847085D01*
X113470704Y-83847085D01*
X113565942Y-83894704D01*
X113613561Y-83942323D01*
X113661180Y-84037561D01*
X113661180Y-84323276D01*
X113613561Y-84418514D01*
X113565942Y-84466133D01*
%TO.C,Q9*%
X123856761Y-80557619D02*
X123761523Y-80510000D01*
X123666285Y-80414761D01*
X123523428Y-80271904D01*
X123428190Y-80224285D01*
X123332952Y-80224285D01*
X123380571Y-80462380D02*
X123285333Y-80414761D01*
X123190095Y-80319523D01*
X123142476Y-80129047D01*
X123142476Y-79795714D01*
X123190095Y-79605238D01*
X123285333Y-79510000D01*
X123380571Y-79462380D01*
X123571047Y-79462380D01*
X123666285Y-79510000D01*
X123761523Y-79605238D01*
X123809142Y-79795714D01*
X123809142Y-80129047D01*
X123761523Y-80319523D01*
X123666285Y-80414761D01*
X123571047Y-80462380D01*
X123380571Y-80462380D01*
X124285333Y-80462380D02*
X124475809Y-80462380D01*
X124571047Y-80414761D01*
X124618666Y-80367142D01*
X124713904Y-80224285D01*
X124761523Y-80033809D01*
X124761523Y-79652857D01*
X124713904Y-79557619D01*
X124666285Y-79510000D01*
X124571047Y-79462380D01*
X124380571Y-79462380D01*
X124285333Y-79510000D01*
X124237714Y-79557619D01*
X124190095Y-79652857D01*
X124190095Y-79890952D01*
X124237714Y-79986190D01*
X124285333Y-80033809D01*
X124380571Y-80081428D01*
X124571047Y-80081428D01*
X124666285Y-80033809D01*
X124713904Y-79986190D01*
X124761523Y-79890952D01*
%TO.C,R25*%
X140581142Y-81860380D02*
X140247809Y-81384190D01*
X140009714Y-81860380D02*
X140009714Y-80860380D01*
X140390666Y-80860380D01*
X140485904Y-80908000D01*
X140533523Y-80955619D01*
X140581142Y-81050857D01*
X140581142Y-81193714D01*
X140533523Y-81288952D01*
X140485904Y-81336571D01*
X140390666Y-81384190D01*
X140009714Y-81384190D01*
X140962095Y-80955619D02*
X141009714Y-80908000D01*
X141104952Y-80860380D01*
X141343047Y-80860380D01*
X141438285Y-80908000D01*
X141485904Y-80955619D01*
X141533523Y-81050857D01*
X141533523Y-81146095D01*
X141485904Y-81288952D01*
X140914476Y-81860380D01*
X141533523Y-81860380D01*
X142438285Y-80860380D02*
X141962095Y-80860380D01*
X141914476Y-81336571D01*
X141962095Y-81288952D01*
X142057333Y-81241333D01*
X142295428Y-81241333D01*
X142390666Y-81288952D01*
X142438285Y-81336571D01*
X142485904Y-81431809D01*
X142485904Y-81669904D01*
X142438285Y-81765142D01*
X142390666Y-81812761D01*
X142295428Y-81860380D01*
X142057333Y-81860380D01*
X141962095Y-81812761D01*
X141914476Y-81765142D01*
%TO.C,Q11*%
X124650571Y-90463619D02*
X124555333Y-90416000D01*
X124460095Y-90320761D01*
X124317238Y-90177904D01*
X124222000Y-90130285D01*
X124126761Y-90130285D01*
X124174380Y-90368380D02*
X124079142Y-90320761D01*
X123983904Y-90225523D01*
X123936285Y-90035047D01*
X123936285Y-89701714D01*
X123983904Y-89511238D01*
X124079142Y-89416000D01*
X124174380Y-89368380D01*
X124364857Y-89368380D01*
X124460095Y-89416000D01*
X124555333Y-89511238D01*
X124602952Y-89701714D01*
X124602952Y-90035047D01*
X124555333Y-90225523D01*
X124460095Y-90320761D01*
X124364857Y-90368380D01*
X124174380Y-90368380D01*
X125555333Y-90368380D02*
X124983904Y-90368380D01*
X125269619Y-90368380D02*
X125269619Y-89368380D01*
X125174380Y-89511238D01*
X125079142Y-89606476D01*
X124983904Y-89654095D01*
X126507714Y-90368380D02*
X125936285Y-90368380D01*
X126222000Y-90368380D02*
X126222000Y-89368380D01*
X126126761Y-89511238D01*
X126031523Y-89606476D01*
X125936285Y-89654095D01*
%TO.C,R27*%
X125040380Y-93860857D02*
X124564190Y-94194190D01*
X125040380Y-94432285D02*
X124040380Y-94432285D01*
X124040380Y-94051333D01*
X124088000Y-93956095D01*
X124135619Y-93908476D01*
X124230857Y-93860857D01*
X124373714Y-93860857D01*
X124468952Y-93908476D01*
X124516571Y-93956095D01*
X124564190Y-94051333D01*
X124564190Y-94432285D01*
X124135619Y-93479904D02*
X124088000Y-93432285D01*
X124040380Y-93337047D01*
X124040380Y-93098952D01*
X124088000Y-93003714D01*
X124135619Y-92956095D01*
X124230857Y-92908476D01*
X124326095Y-92908476D01*
X124468952Y-92956095D01*
X125040380Y-93527523D01*
X125040380Y-92908476D01*
X124040380Y-92575142D02*
X124040380Y-91908476D01*
X125040380Y-92337047D01*
%TO.C,R15*%
X127834380Y-93860857D02*
X127358190Y-94194190D01*
X127834380Y-94432285D02*
X126834380Y-94432285D01*
X126834380Y-94051333D01*
X126882000Y-93956095D01*
X126929619Y-93908476D01*
X127024857Y-93860857D01*
X127167714Y-93860857D01*
X127262952Y-93908476D01*
X127310571Y-93956095D01*
X127358190Y-94051333D01*
X127358190Y-94432285D01*
X127834380Y-92908476D02*
X127834380Y-93479904D01*
X127834380Y-93194190D02*
X126834380Y-93194190D01*
X126977238Y-93289428D01*
X127072476Y-93384666D01*
X127120095Y-93479904D01*
X126834380Y-92003714D02*
X126834380Y-92479904D01*
X127310571Y-92527523D01*
X127262952Y-92479904D01*
X127215333Y-92384666D01*
X127215333Y-92146571D01*
X127262952Y-92051333D01*
X127310571Y-92003714D01*
X127405809Y-91956095D01*
X127643904Y-91956095D01*
X127739142Y-92003714D01*
X127786761Y-92051333D01*
X127834380Y-92146571D01*
X127834380Y-92384666D01*
X127786761Y-92479904D01*
X127739142Y-92527523D01*
%TO.C,R4*%
X105929133Y-94035180D02*
X105595800Y-93558990D01*
X105357704Y-94035180D02*
X105357704Y-93035180D01*
X105738657Y-93035180D01*
X105833895Y-93082800D01*
X105881514Y-93130419D01*
X105929133Y-93225657D01*
X105929133Y-93368514D01*
X105881514Y-93463752D01*
X105833895Y-93511371D01*
X105738657Y-93558990D01*
X105357704Y-93558990D01*
X106786276Y-93368514D02*
X106786276Y-94035180D01*
X106548180Y-92987561D02*
X106310085Y-93701847D01*
X106929133Y-93701847D01*
D11*
%TO.C,R12*%
X107723000Y-75157064D02*
X107723000Y-74702936D01*
X109193000Y-75157064D02*
X109193000Y-74702936D01*
%TO.C,D1*%
X100132000Y-68662500D02*
X102052000Y-68662500D01*
X102052000Y-68662500D02*
X102052000Y-65977500D01*
X100132000Y-65977500D02*
X100132000Y-68662500D01*
D12*
%TO.C,Q12*%
X129514600Y-69723000D02*
X129514600Y-70662800D01*
X129514600Y-67513200D02*
X129514600Y-68453000D01*
X131089400Y-70662800D02*
X131089400Y-70510400D01*
X129514600Y-70662800D02*
X131089400Y-70662800D01*
X131089400Y-67513200D02*
X129514600Y-67513200D01*
X131089400Y-67665600D02*
X131089400Y-67513200D01*
X131673600Y-70612000D02*
G75*
G03*
X131673600Y-70866000I0J-127000D01*
G01*
X131673600Y-70866000D02*
G75*
G03*
X131673600Y-70612000I0J127000D01*
G01*
D11*
%TO.C,R19*%
X124687064Y-90397000D02*
X124232936Y-90397000D01*
X124687064Y-88927000D02*
X124232936Y-88927000D01*
%TO.C,R6*%
X112037800Y-88065236D02*
X112037800Y-88519364D01*
X110567800Y-88065236D02*
X110567800Y-88519364D01*
%TO.C,R11*%
X119657800Y-83335864D02*
X119657800Y-82881736D01*
X118187800Y-83335864D02*
X118187800Y-82881736D01*
%TO.C,C4*%
X139727000Y-85844748D02*
X139727000Y-86367252D01*
X141197000Y-85844748D02*
X141197000Y-86367252D01*
D12*
%TO.C,Q4*%
X106730800Y-78003400D02*
X106730800Y-76428600D01*
X103581200Y-78003400D02*
X103733600Y-78003400D01*
X104521000Y-76428600D02*
X103581200Y-76428600D01*
X106730800Y-76428600D02*
X105791000Y-76428600D01*
X106578400Y-78003400D02*
X106730800Y-78003400D01*
X103581200Y-76428600D02*
X103581200Y-78003400D01*
X103632000Y-78587600D02*
G75*
G03*
X103378000Y-78587600I-127000J0D01*
G01*
X103378000Y-78587600D02*
G75*
G03*
X103632000Y-78587600I127000J0D01*
G01*
D11*
%TO.C,R10*%
X103147864Y-85682800D02*
X102693736Y-85682800D01*
X103147864Y-84212800D02*
X102693736Y-84212800D01*
D12*
%TO.C,Q7*%
X130581400Y-85547200D02*
X129006600Y-85547200D01*
X130581400Y-86487000D02*
X130581400Y-85547200D01*
X129006600Y-88544400D02*
X129006600Y-88696800D01*
X129006600Y-88696800D02*
X130581400Y-88696800D01*
X129006600Y-85547200D02*
X129006600Y-85699600D01*
X130581400Y-88696800D02*
X130581400Y-87757000D01*
X128422400Y-85344000D02*
G75*
G03*
X128422400Y-85598000I0J-127000D01*
G01*
X128422400Y-85598000D02*
G75*
G03*
X128422400Y-85344000I0J127000D01*
G01*
D11*
%TO.C,R26*%
X132053000Y-73379064D02*
X132053000Y-72924936D01*
X130583000Y-73379064D02*
X130583000Y-72924936D01*
%TO.C,R16*%
X137186936Y-84609000D02*
X137641064Y-84609000D01*
X137186936Y-86079000D02*
X137641064Y-86079000D01*
D12*
%TO.C,Q10*%
X126466600Y-75057000D02*
X126466600Y-75996800D01*
X128041400Y-75996800D02*
X128041400Y-75844400D01*
X126466600Y-75996800D02*
X128041400Y-75996800D01*
X128041400Y-72847200D02*
X126466600Y-72847200D01*
X126466600Y-72847200D02*
X126466600Y-73787000D01*
X128041400Y-72999600D02*
X128041400Y-72847200D01*
X128625600Y-75946000D02*
G75*
G03*
X128625600Y-76200000I0J-127000D01*
G01*
X128625600Y-76200000D02*
G75*
G03*
X128625600Y-75946000I0J127000D01*
G01*
D11*
%TO.C,R17*%
X137641064Y-82069000D02*
X137186936Y-82069000D01*
X137641064Y-83539000D02*
X137186936Y-83539000D01*
%TO.C,R20*%
X133123000Y-86894936D02*
X133123000Y-87349064D01*
X134593000Y-86894936D02*
X134593000Y-87349064D01*
D12*
%TO.C,Q6*%
X108229400Y-72694800D02*
X108229400Y-72542400D01*
X106654600Y-71755000D02*
X106654600Y-72694800D01*
X108229400Y-69545200D02*
X106654600Y-69545200D01*
X106654600Y-72694800D02*
X108229400Y-72694800D01*
X108229400Y-69697600D02*
X108229400Y-69545200D01*
X106654600Y-69545200D02*
X106654600Y-70485000D01*
X108813600Y-72898000D02*
G75*
G03*
X108813600Y-72644000I0J127000D01*
G01*
X108813600Y-72644000D02*
G75*
G03*
X108813600Y-72898000I0J-127000D01*
G01*
D11*
%TO.C,R1*%
X105995736Y-94953800D02*
X106449864Y-94953800D01*
X105995736Y-93483800D02*
X106449864Y-93483800D01*
%TO.C,C3*%
X130583000Y-83304748D02*
X130583000Y-83827252D01*
X132053000Y-83304748D02*
X132053000Y-83827252D01*
%TO.C,R21*%
X127789000Y-83084936D02*
X127789000Y-83539064D01*
X129259000Y-83084936D02*
X129259000Y-83539064D01*
%TO.C,R5*%
X102155364Y-92667800D02*
X101701236Y-92667800D01*
X102155364Y-91197800D02*
X101701236Y-91197800D01*
D12*
%TO.C,Q8*%
X137947400Y-89966800D02*
X137947400Y-89027000D01*
X136372600Y-86817200D02*
X136372600Y-86969600D01*
X137947400Y-86817200D02*
X136372600Y-86817200D01*
X136372600Y-89966800D02*
X137947400Y-89966800D01*
X136372600Y-89814400D02*
X136372600Y-89966800D01*
X137947400Y-87757000D02*
X137947400Y-86817200D01*
X135788400Y-86614000D02*
G75*
G03*
X135788400Y-86868000I0J-127000D01*
G01*
X135788400Y-86868000D02*
G75*
G03*
X135788400Y-86614000I0J127000D01*
G01*
D11*
%TO.C,C2*%
X118187800Y-86337548D02*
X118187800Y-86860052D01*
X119657800Y-86337548D02*
X119657800Y-86860052D01*
%TO.C,R9*%
X108992936Y-77497000D02*
X109447064Y-77497000D01*
X108992936Y-78967000D02*
X109447064Y-78967000D01*
D12*
%TO.C,Q3*%
X99822000Y-76479400D02*
X99822000Y-78054200D01*
X99822000Y-78054200D02*
X99974400Y-78054200D01*
X100761800Y-76479400D02*
X99822000Y-76479400D01*
X102971600Y-78054200D02*
X102971600Y-76479400D01*
X102819200Y-78054200D02*
X102971600Y-78054200D01*
X102971600Y-76479400D02*
X102031800Y-76479400D01*
X99618800Y-78638400D02*
G75*
G03*
X99872800Y-78638400I127000J0D01*
G01*
X99872800Y-78638400D02*
G75*
G03*
X99618800Y-78638400I-127000J0D01*
G01*
D11*
%TO.C,C1*%
X108027800Y-85321548D02*
X108027800Y-85844052D01*
X109497800Y-85321548D02*
X109497800Y-85844052D01*
%TO.C,R14*%
X101626936Y-71855000D02*
X102081064Y-71855000D01*
X101626936Y-70385000D02*
X102081064Y-70385000D01*
%TO.C,R23*%
X132053000Y-76734936D02*
X132053000Y-77189064D01*
X130583000Y-76734936D02*
X130583000Y-77189064D01*
%TO.C,R13*%
X101877864Y-94953800D02*
X101423736Y-94953800D01*
X101877864Y-93483800D02*
X101423736Y-93483800D01*
%TO.C,R22*%
X133123000Y-83689564D02*
X133123000Y-83235436D01*
X134593000Y-83689564D02*
X134593000Y-83235436D01*
%TO.C,R2*%
X116155800Y-86891864D02*
X116155800Y-86437736D01*
X117625800Y-86891864D02*
X117625800Y-86437736D01*
D12*
%TO.C,Q5*%
X100330000Y-88910200D02*
X100482400Y-88910200D01*
X101269800Y-87335400D02*
X100330000Y-87335400D01*
X100330000Y-87335400D02*
X100330000Y-88910200D01*
X103327200Y-88910200D02*
X103479600Y-88910200D01*
X103479600Y-87335400D02*
X102539800Y-87335400D01*
X103479600Y-88910200D02*
X103479600Y-87335400D01*
X100126800Y-89494400D02*
G75*
G03*
X100380800Y-89494400I127000J0D01*
G01*
X100380800Y-89494400D02*
G75*
G03*
X100126800Y-89494400I-127000J0D01*
G01*
D11*
%TO.C,R7*%
X104979800Y-84720736D02*
X104979800Y-85174864D01*
X106449800Y-84720736D02*
X106449800Y-85174864D01*
%TO.C,R28*%
X124740936Y-69877000D02*
X125195064Y-69877000D01*
X124740936Y-71347000D02*
X125195064Y-71347000D01*
%TO.C,R8*%
X110567800Y-84351864D02*
X110567800Y-83897736D01*
X112037800Y-84351864D02*
X112037800Y-83897736D01*
D12*
%TO.C,Q2*%
X114071400Y-87884000D02*
X114071400Y-88036400D01*
X115646200Y-91033600D02*
X115646200Y-90093800D01*
X115646200Y-87884000D02*
X114071400Y-87884000D01*
X114071400Y-91033600D02*
X115646200Y-91033600D01*
X115646200Y-88823800D02*
X115646200Y-87884000D01*
X114071400Y-90881200D02*
X114071400Y-91033600D01*
X113487200Y-87934800D02*
G75*
G03*
X113487200Y-87680800I0J127000D01*
G01*
X113487200Y-87680800D02*
G75*
G03*
X113487200Y-87934800I0J-127000D01*
G01*
D11*
%TO.C,R24*%
X125703064Y-81815000D02*
X125248936Y-81815000D01*
X125703064Y-83285000D02*
X125248936Y-83285000D01*
%TO.C,R18*%
X128497064Y-89435000D02*
X128042936Y-89435000D01*
X128497064Y-90905000D02*
X128042936Y-90905000D01*
D12*
%TO.C,Q1*%
X105943400Y-89951600D02*
X107518200Y-89951600D01*
X105943400Y-89799200D02*
X105943400Y-89951600D01*
X107518200Y-86802000D02*
X105943400Y-86802000D01*
X105943400Y-86802000D02*
X105943400Y-86954400D01*
X107518200Y-87741800D02*
X107518200Y-86802000D01*
X107518200Y-89951600D02*
X107518200Y-89011800D01*
X105359200Y-86852800D02*
G75*
G03*
X105359200Y-86598800I0J127000D01*
G01*
X105359200Y-86598800D02*
G75*
G03*
X105359200Y-86852800I0J-127000D01*
G01*
D11*
%TO.C,D2*%
X125674000Y-67471000D02*
X125674000Y-64786000D01*
X123754000Y-67471000D02*
X125674000Y-67471000D01*
X123754000Y-64786000D02*
X123754000Y-67471000D01*
%TO.C,R3*%
X115593800Y-84859864D02*
X115593800Y-84405736D01*
X114123800Y-84859864D02*
X114123800Y-84405736D01*
D12*
%TO.C,Q9*%
X122631200Y-76987400D02*
X122783600Y-76987400D01*
X125780800Y-75412600D02*
X124841000Y-75412600D01*
X125628400Y-76987400D02*
X125780800Y-76987400D01*
X123571000Y-75412600D02*
X122631200Y-75412600D01*
X122631200Y-75412600D02*
X122631200Y-76987400D01*
X125780800Y-76987400D02*
X125780800Y-75412600D01*
X122682000Y-77571600D02*
G75*
G03*
X122428000Y-77571600I-127000J0D01*
G01*
X122428000Y-77571600D02*
G75*
G03*
X122682000Y-77571600I127000J0D01*
G01*
D11*
%TO.C,R25*%
X140996936Y-82323000D02*
X141451064Y-82323000D01*
X140996936Y-83793000D02*
X141451064Y-83793000D01*
D12*
%TO.C,Q11*%
X127050800Y-86893400D02*
X127050800Y-85318600D01*
X126898400Y-86893400D02*
X127050800Y-86893400D01*
X123901200Y-86893400D02*
X124053600Y-86893400D01*
X127050800Y-85318600D02*
X126111000Y-85318600D01*
X123901200Y-85318600D02*
X123901200Y-86893400D01*
X124841000Y-85318600D02*
X123901200Y-85318600D01*
X123698000Y-87477600D02*
G75*
G03*
X123952000Y-87477600I127000J0D01*
G01*
X123952000Y-87477600D02*
G75*
G03*
X123698000Y-87477600I-127000J0D01*
G01*
D11*
%TO.C,R27*%
X125503000Y-93445064D02*
X125503000Y-92990936D01*
X126973000Y-93445064D02*
X126973000Y-92990936D01*
%TO.C,R15*%
X129767000Y-93445064D02*
X129767000Y-92990936D01*
X128297000Y-93445064D02*
X128297000Y-92990936D01*
%TO.C,R4*%
X106322864Y-91197800D02*
X105868736Y-91197800D01*
X106322864Y-92667800D02*
X105868736Y-92667800D01*
%TD*%
M02*
