%TF.GenerationSoftware,KiCad,Pcbnew,(6.0.2)*%
%TF.CreationDate,2022-03-08T21:55:07+01:00*%
%TF.ProjectId,simple-pc_-no-fiducials,73696d70-6c65-42d7-9063-5f2d6e6f2d66,rev?*%
%TF.SameCoordinates,Original*%
%TF.FileFunction,Paste,Top*%
%TF.FilePolarity,Positive*%
%FSLAX46Y46*%
G04 Gerber Fmt 4.6, Leading zero omitted, Abs format (unit mm)*
G04 Created by KiCad (PCBNEW (6.0.2)) date 2022-03-08 21:55:07*
%MOMM*%
%LPD*%
G01*
G04 APERTURE LIST*
G04 Aperture macros list*
%AMRoundRect*
0 Rectangle with rounded corners*
0 $1 Rounding radius*
0 $2 $3 $4 $5 $6 $7 $8 $9 X,Y pos of 4 corners*
0 Add a 4 corners polygon primitive as box body*
4,1,4,$2,$3,$4,$5,$6,$7,$8,$9,$2,$3,0*
0 Add four circle primitives for the rounded corners*
1,1,$1+$1,$2,$3*
1,1,$1+$1,$4,$5*
1,1,$1+$1,$6,$7*
1,1,$1+$1,$8,$9*
0 Add four rect primitives between the rounded corners*
20,1,$1+$1,$2,$3,$4,$5,0*
20,1,$1+$1,$4,$5,$6,$7,0*
20,1,$1+$1,$6,$7,$8,$9,0*
20,1,$1+$1,$8,$9,$2,$3,0*%
G04 Aperture macros list end*
%ADD10RoundRect,0.250000X0.450000X-0.262500X0.450000X0.262500X-0.450000X0.262500X-0.450000X-0.262500X0*%
%ADD11RoundRect,0.243750X0.456250X-0.243750X0.456250X0.243750X-0.456250X0.243750X-0.456250X-0.243750X0*%
%ADD12R,1.600000X0.800000*%
%ADD13RoundRect,0.250000X0.262500X0.450000X-0.262500X0.450000X-0.262500X-0.450000X0.262500X-0.450000X0*%
%ADD14RoundRect,0.250000X-0.450000X0.262500X-0.450000X-0.262500X0.450000X-0.262500X0.450000X0.262500X0*%
%ADD15RoundRect,0.250000X-0.475000X0.250000X-0.475000X-0.250000X0.475000X-0.250000X0.475000X0.250000X0*%
%ADD16R,0.800000X1.600000*%
%ADD17RoundRect,0.250000X-0.262500X-0.450000X0.262500X-0.450000X0.262500X0.450000X-0.262500X0.450000X0*%
G04 APERTURE END LIST*
D10*
%TO.C,R12*%
X108458000Y-75842500D03*
X108458000Y-74017500D03*
%TD*%
D11*
%TO.C,D1*%
X101092000Y-67915000D03*
X101092000Y-66040000D03*
%TD*%
D12*
%TO.C,Q12*%
X131368800Y-70053200D03*
X131368800Y-68122800D03*
X129232000Y-69088000D03*
%TD*%
D13*
%TO.C,R19*%
X125372500Y-89662000D03*
X123547500Y-89662000D03*
%TD*%
D14*
%TO.C,R6*%
X111302800Y-87379800D03*
X111302800Y-89204800D03*
%TD*%
D10*
%TO.C,R11*%
X118922800Y-84021300D03*
X118922800Y-82196300D03*
%TD*%
D15*
%TO.C,C4*%
X140462000Y-85156000D03*
X140462000Y-87056000D03*
%TD*%
D16*
%TO.C,Q4*%
X104190800Y-78282800D03*
X106121200Y-78282800D03*
X105156000Y-76146000D03*
%TD*%
D13*
%TO.C,R10*%
X103833300Y-84947800D03*
X102008300Y-84947800D03*
%TD*%
D12*
%TO.C,Q7*%
X128727200Y-86156800D03*
X128727200Y-88087200D03*
X130864000Y-87122000D03*
%TD*%
D10*
%TO.C,R26*%
X131318000Y-74064500D03*
X131318000Y-72239500D03*
%TD*%
D17*
%TO.C,R16*%
X136501500Y-85344000D03*
X138326500Y-85344000D03*
%TD*%
D12*
%TO.C,Q10*%
X128320800Y-75387200D03*
X128320800Y-73456800D03*
X126184000Y-74422000D03*
%TD*%
D13*
%TO.C,R17*%
X138326500Y-82804000D03*
X136501500Y-82804000D03*
%TD*%
D14*
%TO.C,R20*%
X133858000Y-86209500D03*
X133858000Y-88034500D03*
%TD*%
D12*
%TO.C,Q6*%
X108508800Y-72085200D03*
X108508800Y-70154800D03*
X106372000Y-71120000D03*
%TD*%
D17*
%TO.C,R1*%
X105310300Y-94218800D03*
X107135300Y-94218800D03*
%TD*%
D15*
%TO.C,C3*%
X131318000Y-82616000D03*
X131318000Y-84516000D03*
%TD*%
D14*
%TO.C,R21*%
X128524000Y-82399500D03*
X128524000Y-84224500D03*
%TD*%
D13*
%TO.C,R5*%
X102840800Y-91932800D03*
X101015800Y-91932800D03*
%TD*%
D12*
%TO.C,Q8*%
X136093200Y-87426800D03*
X136093200Y-89357200D03*
X138230000Y-88392000D03*
%TD*%
D15*
%TO.C,C2*%
X118922800Y-85648800D03*
X118922800Y-87548800D03*
%TD*%
D17*
%TO.C,R9*%
X108307500Y-78232000D03*
X110132500Y-78232000D03*
%TD*%
D16*
%TO.C,Q3*%
X100431600Y-78333600D03*
X102362000Y-78333600D03*
X101396800Y-76196800D03*
%TD*%
D15*
%TO.C,C1*%
X108762800Y-84632800D03*
X108762800Y-86532800D03*
%TD*%
D17*
%TO.C,R14*%
X100941500Y-71120000D03*
X102766500Y-71120000D03*
%TD*%
D14*
%TO.C,R23*%
X131318000Y-76049500D03*
X131318000Y-77874500D03*
%TD*%
D13*
%TO.C,R13*%
X102563300Y-94218800D03*
X100738300Y-94218800D03*
%TD*%
D10*
%TO.C,R22*%
X133858000Y-84375000D03*
X133858000Y-82550000D03*
%TD*%
%TO.C,R2*%
X116890800Y-87577300D03*
X116890800Y-85752300D03*
%TD*%
D16*
%TO.C,Q5*%
X100939600Y-89189600D03*
X102870000Y-89189600D03*
X101904800Y-87052800D03*
%TD*%
D14*
%TO.C,R7*%
X105714800Y-84035300D03*
X105714800Y-85860300D03*
%TD*%
D17*
%TO.C,R28*%
X124055500Y-70612000D03*
X125880500Y-70612000D03*
%TD*%
D10*
%TO.C,R8*%
X111302800Y-85037300D03*
X111302800Y-83212300D03*
%TD*%
D12*
%TO.C,Q2*%
X113792000Y-88493600D03*
X113792000Y-90424000D03*
X115928800Y-89458800D03*
%TD*%
D13*
%TO.C,R24*%
X126388500Y-82550000D03*
X124563500Y-82550000D03*
%TD*%
%TO.C,R18*%
X129182500Y-90170000D03*
X127357500Y-90170000D03*
%TD*%
D12*
%TO.C,Q1*%
X105664000Y-87411600D03*
X105664000Y-89342000D03*
X107800800Y-88376800D03*
%TD*%
D11*
%TO.C,D2*%
X124714000Y-66723500D03*
X124714000Y-64848500D03*
%TD*%
D10*
%TO.C,R3*%
X114858800Y-85545300D03*
X114858800Y-83720300D03*
%TD*%
D16*
%TO.C,Q9*%
X123240800Y-77266800D03*
X125171200Y-77266800D03*
X124206000Y-75130000D03*
%TD*%
D17*
%TO.C,R25*%
X142136500Y-83058000D03*
X140311500Y-83058000D03*
%TD*%
D16*
%TO.C,Q11*%
X124510800Y-87172800D03*
X126441200Y-87172800D03*
X125476000Y-85036000D03*
%TD*%
D10*
%TO.C,R27*%
X126238000Y-94130500D03*
X126238000Y-92305500D03*
%TD*%
%TO.C,R15*%
X129032000Y-94130500D03*
X129032000Y-92305500D03*
%TD*%
D13*
%TO.C,R4*%
X107008300Y-91932800D03*
X105183300Y-91932800D03*
%TD*%
M02*
