%FSLAX45Y45*%
G04 Gerber Fmt 4.5, Leading zero omitted, Abs format (unit mm)*
G04 Created by KiCad (PCBNEW (6.0.2)) date 2022-03-08 21:55:43*
%MOMM*%
%LPD*%
G01*
G04 APERTURE LIST*
%TA.AperFunction,Profile*%
%ADD10C,0.100000*%
%TD*%
%ADD11C,0.200000*%
%ADD12C,0.100000*%
%ADD13C,0.100000*%
G04 APERTURE END LIST*
D10*
X9347200Y-5334000D02*
X15011400Y-5334000D01*
X15011400Y-5334000D02*
X15011400Y-9956800D01*
X15011400Y-9956800D02*
X9347200Y-9956800D01*
X9347200Y-9956800D02*
X9347200Y-5334000D01*
D11*
D12*
X11430800Y-5715800D02*
X11530800Y-5815800D01*
X11530800Y-5715800D02*
X11430800Y-5815800D01*
X12929400Y-5715800D02*
X13029400Y-5815800D01*
X13029400Y-5715800D02*
X12929400Y-5815800D01*
X14705800Y-8203700D02*
G75*
G03*
X14705800Y-8203700I-50000J0D01*
G01*
X14705800Y-8457700D02*
G75*
G03*
X14705800Y-8457700I-50000J0D01*
G01*
D13*
X9906000Y-5766000D02*
X9906000Y-5918000D01*
X9830000Y-5842000D02*
X9982000Y-5842000D01*
X10414000Y-5766000D02*
X10414000Y-5918000D01*
X10338000Y-5842000D02*
X10490000Y-5842000D01*
D11*
X9599819Y-10272276D02*
X9599819Y-10072276D01*
X9647438Y-10072276D01*
X9676010Y-10081800D01*
X9695057Y-10100848D01*
X9704581Y-10119895D01*
X9714105Y-10157990D01*
X9714105Y-10186562D01*
X9704581Y-10224657D01*
X9695057Y-10243705D01*
X9676010Y-10262752D01*
X9647438Y-10272276D01*
X9599819Y-10272276D01*
X9799819Y-10272276D02*
X9799819Y-10138943D01*
X9799819Y-10177038D02*
X9809343Y-10157990D01*
X9818867Y-10148467D01*
X9837914Y-10138943D01*
X9856962Y-10138943D01*
X9923629Y-10272276D02*
X9923629Y-10138943D01*
X9923629Y-10072276D02*
X9914105Y-10081800D01*
X9923629Y-10091324D01*
X9933152Y-10081800D01*
X9923629Y-10072276D01*
X9923629Y-10091324D01*
X10047438Y-10272276D02*
X10028390Y-10262752D01*
X10018867Y-10243705D01*
X10018867Y-10072276D01*
X10152200Y-10272276D02*
X10133152Y-10262752D01*
X10123629Y-10243705D01*
X10123629Y-10072276D01*
X10380771Y-10272276D02*
X10380771Y-10072276D01*
X10447438Y-10215133D01*
X10514105Y-10072276D01*
X10514105Y-10272276D01*
X10695057Y-10272276D02*
X10695057Y-10167514D01*
X10685533Y-10148467D01*
X10666486Y-10138943D01*
X10628390Y-10138943D01*
X10609343Y-10148467D01*
X10695057Y-10262752D02*
X10676010Y-10272276D01*
X10628390Y-10272276D01*
X10609343Y-10262752D01*
X10599819Y-10243705D01*
X10599819Y-10224657D01*
X10609343Y-10205610D01*
X10628390Y-10196086D01*
X10676010Y-10196086D01*
X10695057Y-10186562D01*
X10790295Y-10138943D02*
X10790295Y-10338943D01*
X10790295Y-10148467D02*
X10809343Y-10138943D01*
X10847438Y-10138943D01*
X10866486Y-10148467D01*
X10876010Y-10157990D01*
X10885533Y-10177038D01*
X10885533Y-10234181D01*
X10876010Y-10253229D01*
X10866486Y-10262752D01*
X10847438Y-10272276D01*
X10809343Y-10272276D01*
X10790295Y-10262752D01*
X10971248Y-10253229D02*
X10980771Y-10262752D01*
X10971248Y-10272276D01*
X10961724Y-10262752D01*
X10971248Y-10253229D01*
X10971248Y-10272276D01*
X10971248Y-10148467D02*
X10980771Y-10157990D01*
X10971248Y-10167514D01*
X10961724Y-10157990D01*
X10971248Y-10148467D01*
X10971248Y-10167514D01*
D12*
X9242200Y-10551800D02*
X9342200Y-10651800D01*
X9342200Y-10551800D02*
X9242200Y-10651800D01*
D11*
X9704581Y-10692276D02*
X9590295Y-10692276D01*
X9647438Y-10692276D02*
X9647438Y-10492276D01*
X9628390Y-10520848D01*
X9609343Y-10539895D01*
X9590295Y-10549419D01*
X9790295Y-10673229D02*
X9799819Y-10682752D01*
X9790295Y-10692276D01*
X9780771Y-10682752D01*
X9790295Y-10673229D01*
X9790295Y-10692276D01*
X9923629Y-10492276D02*
X9942676Y-10492276D01*
X9961724Y-10501800D01*
X9971248Y-10511324D01*
X9980771Y-10530371D01*
X9990295Y-10568467D01*
X9990295Y-10616086D01*
X9980771Y-10654181D01*
X9971248Y-10673229D01*
X9961724Y-10682752D01*
X9942676Y-10692276D01*
X9923629Y-10692276D01*
X9904581Y-10682752D01*
X9895057Y-10673229D01*
X9885533Y-10654181D01*
X9876010Y-10616086D01*
X9876010Y-10568467D01*
X9885533Y-10530371D01*
X9895057Y-10511324D01*
X9904581Y-10501800D01*
X9923629Y-10492276D01*
X10114105Y-10492276D02*
X10133152Y-10492276D01*
X10152200Y-10501800D01*
X10161724Y-10511324D01*
X10171248Y-10530371D01*
X10180771Y-10568467D01*
X10180771Y-10616086D01*
X10171248Y-10654181D01*
X10161724Y-10673229D01*
X10152200Y-10682752D01*
X10133152Y-10692276D01*
X10114105Y-10692276D01*
X10095057Y-10682752D01*
X10085533Y-10673229D01*
X10076010Y-10654181D01*
X10066486Y-10616086D01*
X10066486Y-10568467D01*
X10076010Y-10530371D01*
X10085533Y-10511324D01*
X10095057Y-10501800D01*
X10114105Y-10492276D01*
X10304581Y-10492276D02*
X10323629Y-10492276D01*
X10342676Y-10501800D01*
X10352200Y-10511324D01*
X10361724Y-10530371D01*
X10371248Y-10568467D01*
X10371248Y-10616086D01*
X10361724Y-10654181D01*
X10352200Y-10673229D01*
X10342676Y-10682752D01*
X10323629Y-10692276D01*
X10304581Y-10692276D01*
X10285533Y-10682752D01*
X10276010Y-10673229D01*
X10266486Y-10654181D01*
X10256962Y-10616086D01*
X10256962Y-10568467D01*
X10266486Y-10530371D01*
X10276010Y-10511324D01*
X10285533Y-10501800D01*
X10304581Y-10492276D01*
X10456962Y-10692276D02*
X10456962Y-10558943D01*
X10456962Y-10577990D02*
X10466486Y-10568467D01*
X10485533Y-10558943D01*
X10514105Y-10558943D01*
X10533152Y-10568467D01*
X10542676Y-10587514D01*
X10542676Y-10692276D01*
X10542676Y-10587514D02*
X10552200Y-10568467D01*
X10571248Y-10558943D01*
X10599819Y-10558943D01*
X10618867Y-10568467D01*
X10628390Y-10587514D01*
X10628390Y-10692276D01*
X10723629Y-10692276D02*
X10723629Y-10558943D01*
X10723629Y-10577990D02*
X10733152Y-10568467D01*
X10752200Y-10558943D01*
X10780771Y-10558943D01*
X10799819Y-10568467D01*
X10809343Y-10587514D01*
X10809343Y-10692276D01*
X10809343Y-10587514D02*
X10818867Y-10568467D01*
X10837914Y-10558943D01*
X10866486Y-10558943D01*
X10885533Y-10568467D01*
X10895057Y-10587514D01*
X10895057Y-10692276D01*
X11285533Y-10482752D02*
X11114105Y-10739895D01*
X11542676Y-10492276D02*
X11561724Y-10492276D01*
X11580771Y-10501800D01*
X11590295Y-10511324D01*
X11599819Y-10530371D01*
X11609343Y-10568467D01*
X11609343Y-10616086D01*
X11599819Y-10654181D01*
X11590295Y-10673229D01*
X11580771Y-10682752D01*
X11561724Y-10692276D01*
X11542676Y-10692276D01*
X11523628Y-10682752D01*
X11514105Y-10673229D01*
X11504581Y-10654181D01*
X11495057Y-10616086D01*
X11495057Y-10568467D01*
X11504581Y-10530371D01*
X11514105Y-10511324D01*
X11523628Y-10501800D01*
X11542676Y-10492276D01*
X11695057Y-10673229D02*
X11704581Y-10682752D01*
X11695057Y-10692276D01*
X11685533Y-10682752D01*
X11695057Y-10673229D01*
X11695057Y-10692276D01*
X11828390Y-10492276D02*
X11847438Y-10492276D01*
X11866486Y-10501800D01*
X11876009Y-10511324D01*
X11885533Y-10530371D01*
X11895057Y-10568467D01*
X11895057Y-10616086D01*
X11885533Y-10654181D01*
X11876009Y-10673229D01*
X11866486Y-10682752D01*
X11847438Y-10692276D01*
X11828390Y-10692276D01*
X11809343Y-10682752D01*
X11799819Y-10673229D01*
X11790295Y-10654181D01*
X11780771Y-10616086D01*
X11780771Y-10568467D01*
X11790295Y-10530371D01*
X11799819Y-10511324D01*
X11809343Y-10501800D01*
X11828390Y-10492276D01*
X11961724Y-10492276D02*
X12085533Y-10492276D01*
X12018867Y-10568467D01*
X12047438Y-10568467D01*
X12066486Y-10577990D01*
X12076009Y-10587514D01*
X12085533Y-10606562D01*
X12085533Y-10654181D01*
X12076009Y-10673229D01*
X12066486Y-10682752D01*
X12047438Y-10692276D01*
X11990295Y-10692276D01*
X11971248Y-10682752D01*
X11961724Y-10673229D01*
X12180771Y-10692276D02*
X12218867Y-10692276D01*
X12237914Y-10682752D01*
X12247438Y-10673229D01*
X12266486Y-10644657D01*
X12276009Y-10606562D01*
X12276009Y-10530371D01*
X12266486Y-10511324D01*
X12256962Y-10501800D01*
X12237914Y-10492276D01*
X12199819Y-10492276D01*
X12180771Y-10501800D01*
X12171248Y-10511324D01*
X12161724Y-10530371D01*
X12161724Y-10577990D01*
X12171248Y-10597038D01*
X12180771Y-10606562D01*
X12199819Y-10616086D01*
X12237914Y-10616086D01*
X12256962Y-10606562D01*
X12266486Y-10597038D01*
X12276009Y-10577990D01*
X12447438Y-10558943D02*
X12447438Y-10692276D01*
X12399819Y-10482752D02*
X12352200Y-10625610D01*
X12476009Y-10625610D01*
X12542676Y-10492276D02*
X12542676Y-10530371D01*
X12618867Y-10492276D02*
X12618867Y-10530371D01*
X12914105Y-10768467D02*
X12904581Y-10758943D01*
X12885533Y-10730371D01*
X12876009Y-10711324D01*
X12866486Y-10682752D01*
X12856962Y-10635133D01*
X12856962Y-10597038D01*
X12866486Y-10549419D01*
X12876009Y-10520848D01*
X12885533Y-10501800D01*
X12904581Y-10473229D01*
X12914105Y-10463705D01*
X12980771Y-10511324D02*
X12990295Y-10501800D01*
X13009343Y-10492276D01*
X13056962Y-10492276D01*
X13076009Y-10501800D01*
X13085533Y-10511324D01*
X13095057Y-10530371D01*
X13095057Y-10549419D01*
X13085533Y-10577990D01*
X12971248Y-10692276D01*
X13095057Y-10692276D01*
X13333152Y-10692276D02*
X13333152Y-10492276D01*
X13418867Y-10692276D02*
X13418867Y-10587514D01*
X13409343Y-10568467D01*
X13390295Y-10558943D01*
X13361724Y-10558943D01*
X13342676Y-10568467D01*
X13333152Y-10577990D01*
X13542676Y-10692276D02*
X13523628Y-10682752D01*
X13514105Y-10673229D01*
X13504581Y-10654181D01*
X13504581Y-10597038D01*
X13514105Y-10577990D01*
X13523628Y-10568467D01*
X13542676Y-10558943D01*
X13571248Y-10558943D01*
X13590295Y-10568467D01*
X13599819Y-10577990D01*
X13609343Y-10597038D01*
X13609343Y-10654181D01*
X13599819Y-10673229D01*
X13590295Y-10682752D01*
X13571248Y-10692276D01*
X13542676Y-10692276D01*
X13723628Y-10692276D02*
X13704581Y-10682752D01*
X13695057Y-10663705D01*
X13695057Y-10492276D01*
X13876009Y-10682752D02*
X13856962Y-10692276D01*
X13818867Y-10692276D01*
X13799819Y-10682752D01*
X13790295Y-10663705D01*
X13790295Y-10587514D01*
X13799819Y-10568467D01*
X13818867Y-10558943D01*
X13856962Y-10558943D01*
X13876009Y-10568467D01*
X13885533Y-10587514D01*
X13885533Y-10606562D01*
X13790295Y-10625610D01*
X13961724Y-10682752D02*
X13980771Y-10692276D01*
X14018867Y-10692276D01*
X14037914Y-10682752D01*
X14047438Y-10663705D01*
X14047438Y-10654181D01*
X14037914Y-10635133D01*
X14018867Y-10625610D01*
X13990295Y-10625610D01*
X13971248Y-10616086D01*
X13961724Y-10597038D01*
X13961724Y-10587514D01*
X13971248Y-10568467D01*
X13990295Y-10558943D01*
X14018867Y-10558943D01*
X14037914Y-10568467D01*
X14114105Y-10768467D02*
X14123628Y-10758943D01*
X14142676Y-10730371D01*
X14152200Y-10711324D01*
X14161724Y-10682752D01*
X14171248Y-10635133D01*
X14171248Y-10597038D01*
X14161724Y-10549419D01*
X14152200Y-10520848D01*
X14142676Y-10501800D01*
X14123628Y-10473229D01*
X14114105Y-10463705D01*
D12*
X9342200Y-10865800D02*
G75*
G03*
X9342200Y-10865800I-50000J0D01*
G01*
D11*
X9704581Y-10956276D02*
X9590295Y-10956276D01*
X9647438Y-10956276D02*
X9647438Y-10756276D01*
X9628390Y-10784848D01*
X9609343Y-10803895D01*
X9590295Y-10813419D01*
X9790295Y-10937229D02*
X9799819Y-10946752D01*
X9790295Y-10956276D01*
X9780771Y-10946752D01*
X9790295Y-10937229D01*
X9790295Y-10956276D01*
X9923629Y-10756276D02*
X9942676Y-10756276D01*
X9961724Y-10765800D01*
X9971248Y-10775324D01*
X9980771Y-10794371D01*
X9990295Y-10832467D01*
X9990295Y-10880086D01*
X9980771Y-10918181D01*
X9971248Y-10937229D01*
X9961724Y-10946752D01*
X9942676Y-10956276D01*
X9923629Y-10956276D01*
X9904581Y-10946752D01*
X9895057Y-10937229D01*
X9885533Y-10918181D01*
X9876010Y-10880086D01*
X9876010Y-10832467D01*
X9885533Y-10794371D01*
X9895057Y-10775324D01*
X9904581Y-10765800D01*
X9923629Y-10756276D01*
X10114105Y-10756276D02*
X10133152Y-10756276D01*
X10152200Y-10765800D01*
X10161724Y-10775324D01*
X10171248Y-10794371D01*
X10180771Y-10832467D01*
X10180771Y-10880086D01*
X10171248Y-10918181D01*
X10161724Y-10937229D01*
X10152200Y-10946752D01*
X10133152Y-10956276D01*
X10114105Y-10956276D01*
X10095057Y-10946752D01*
X10085533Y-10937229D01*
X10076010Y-10918181D01*
X10066486Y-10880086D01*
X10066486Y-10832467D01*
X10076010Y-10794371D01*
X10085533Y-10775324D01*
X10095057Y-10765800D01*
X10114105Y-10756276D01*
X10304581Y-10756276D02*
X10323629Y-10756276D01*
X10342676Y-10765800D01*
X10352200Y-10775324D01*
X10361724Y-10794371D01*
X10371248Y-10832467D01*
X10371248Y-10880086D01*
X10361724Y-10918181D01*
X10352200Y-10937229D01*
X10342676Y-10946752D01*
X10323629Y-10956276D01*
X10304581Y-10956276D01*
X10285533Y-10946752D01*
X10276010Y-10937229D01*
X10266486Y-10918181D01*
X10256962Y-10880086D01*
X10256962Y-10832467D01*
X10266486Y-10794371D01*
X10276010Y-10775324D01*
X10285533Y-10765800D01*
X10304581Y-10756276D01*
X10456962Y-10956276D02*
X10456962Y-10822943D01*
X10456962Y-10841990D02*
X10466486Y-10832467D01*
X10485533Y-10822943D01*
X10514105Y-10822943D01*
X10533152Y-10832467D01*
X10542676Y-10851514D01*
X10542676Y-10956276D01*
X10542676Y-10851514D02*
X10552200Y-10832467D01*
X10571248Y-10822943D01*
X10599819Y-10822943D01*
X10618867Y-10832467D01*
X10628390Y-10851514D01*
X10628390Y-10956276D01*
X10723629Y-10956276D02*
X10723629Y-10822943D01*
X10723629Y-10841990D02*
X10733152Y-10832467D01*
X10752200Y-10822943D01*
X10780771Y-10822943D01*
X10799819Y-10832467D01*
X10809343Y-10851514D01*
X10809343Y-10956276D01*
X10809343Y-10851514D02*
X10818867Y-10832467D01*
X10837914Y-10822943D01*
X10866486Y-10822943D01*
X10885533Y-10832467D01*
X10895057Y-10851514D01*
X10895057Y-10956276D01*
X11285533Y-10746752D02*
X11114105Y-11003895D01*
X11542676Y-10756276D02*
X11561724Y-10756276D01*
X11580771Y-10765800D01*
X11590295Y-10775324D01*
X11599819Y-10794371D01*
X11609343Y-10832467D01*
X11609343Y-10880086D01*
X11599819Y-10918181D01*
X11590295Y-10937229D01*
X11580771Y-10946752D01*
X11561724Y-10956276D01*
X11542676Y-10956276D01*
X11523628Y-10946752D01*
X11514105Y-10937229D01*
X11504581Y-10918181D01*
X11495057Y-10880086D01*
X11495057Y-10832467D01*
X11504581Y-10794371D01*
X11514105Y-10775324D01*
X11523628Y-10765800D01*
X11542676Y-10756276D01*
X11695057Y-10937229D02*
X11704581Y-10946752D01*
X11695057Y-10956276D01*
X11685533Y-10946752D01*
X11695057Y-10937229D01*
X11695057Y-10956276D01*
X11828390Y-10756276D02*
X11847438Y-10756276D01*
X11866486Y-10765800D01*
X11876009Y-10775324D01*
X11885533Y-10794371D01*
X11895057Y-10832467D01*
X11895057Y-10880086D01*
X11885533Y-10918181D01*
X11876009Y-10937229D01*
X11866486Y-10946752D01*
X11847438Y-10956276D01*
X11828390Y-10956276D01*
X11809343Y-10946752D01*
X11799819Y-10937229D01*
X11790295Y-10918181D01*
X11780771Y-10880086D01*
X11780771Y-10832467D01*
X11790295Y-10794371D01*
X11799819Y-10775324D01*
X11809343Y-10765800D01*
X11828390Y-10756276D01*
X11961724Y-10756276D02*
X12085533Y-10756276D01*
X12018867Y-10832467D01*
X12047438Y-10832467D01*
X12066486Y-10841990D01*
X12076009Y-10851514D01*
X12085533Y-10870562D01*
X12085533Y-10918181D01*
X12076009Y-10937229D01*
X12066486Y-10946752D01*
X12047438Y-10956276D01*
X11990295Y-10956276D01*
X11971248Y-10946752D01*
X11961724Y-10937229D01*
X12180771Y-10956276D02*
X12218867Y-10956276D01*
X12237914Y-10946752D01*
X12247438Y-10937229D01*
X12266486Y-10908657D01*
X12276009Y-10870562D01*
X12276009Y-10794371D01*
X12266486Y-10775324D01*
X12256962Y-10765800D01*
X12237914Y-10756276D01*
X12199819Y-10756276D01*
X12180771Y-10765800D01*
X12171248Y-10775324D01*
X12161724Y-10794371D01*
X12161724Y-10841990D01*
X12171248Y-10861038D01*
X12180771Y-10870562D01*
X12199819Y-10880086D01*
X12237914Y-10880086D01*
X12256962Y-10870562D01*
X12266486Y-10861038D01*
X12276009Y-10841990D01*
X12447438Y-10822943D02*
X12447438Y-10956276D01*
X12399819Y-10746752D02*
X12352200Y-10889610D01*
X12476009Y-10889610D01*
X12542676Y-10756276D02*
X12542676Y-10794371D01*
X12618867Y-10756276D02*
X12618867Y-10794371D01*
X12914105Y-11032467D02*
X12904581Y-11022943D01*
X12885533Y-10994371D01*
X12876009Y-10975324D01*
X12866486Y-10946752D01*
X12856962Y-10899133D01*
X12856962Y-10861038D01*
X12866486Y-10813419D01*
X12876009Y-10784848D01*
X12885533Y-10765800D01*
X12904581Y-10737229D01*
X12914105Y-10727705D01*
X12980771Y-10775324D02*
X12990295Y-10765800D01*
X13009343Y-10756276D01*
X13056962Y-10756276D01*
X13076009Y-10765800D01*
X13085533Y-10775324D01*
X13095057Y-10794371D01*
X13095057Y-10813419D01*
X13085533Y-10841990D01*
X12971248Y-10956276D01*
X13095057Y-10956276D01*
X13333152Y-10956276D02*
X13333152Y-10756276D01*
X13418867Y-10956276D02*
X13418867Y-10851514D01*
X13409343Y-10832467D01*
X13390295Y-10822943D01*
X13361724Y-10822943D01*
X13342676Y-10832467D01*
X13333152Y-10841990D01*
X13542676Y-10956276D02*
X13523628Y-10946752D01*
X13514105Y-10937229D01*
X13504581Y-10918181D01*
X13504581Y-10861038D01*
X13514105Y-10841990D01*
X13523628Y-10832467D01*
X13542676Y-10822943D01*
X13571248Y-10822943D01*
X13590295Y-10832467D01*
X13599819Y-10841990D01*
X13609343Y-10861038D01*
X13609343Y-10918181D01*
X13599819Y-10937229D01*
X13590295Y-10946752D01*
X13571248Y-10956276D01*
X13542676Y-10956276D01*
X13723628Y-10956276D02*
X13704581Y-10946752D01*
X13695057Y-10927705D01*
X13695057Y-10756276D01*
X13876009Y-10946752D02*
X13856962Y-10956276D01*
X13818867Y-10956276D01*
X13799819Y-10946752D01*
X13790295Y-10927705D01*
X13790295Y-10851514D01*
X13799819Y-10832467D01*
X13818867Y-10822943D01*
X13856962Y-10822943D01*
X13876009Y-10832467D01*
X13885533Y-10851514D01*
X13885533Y-10870562D01*
X13790295Y-10889610D01*
X13961724Y-10946752D02*
X13980771Y-10956276D01*
X14018867Y-10956276D01*
X14037914Y-10946752D01*
X14047438Y-10927705D01*
X14047438Y-10918181D01*
X14037914Y-10899133D01*
X14018867Y-10889610D01*
X13990295Y-10889610D01*
X13971248Y-10880086D01*
X13961724Y-10861038D01*
X13961724Y-10851514D01*
X13971248Y-10832467D01*
X13990295Y-10822943D01*
X14018867Y-10822943D01*
X14037914Y-10832467D01*
X14114105Y-11032467D02*
X14123628Y-11022943D01*
X14142676Y-10994371D01*
X14152200Y-10975324D01*
X14161724Y-10946752D01*
X14171248Y-10899133D01*
X14171248Y-10861038D01*
X14161724Y-10813419D01*
X14152200Y-10784848D01*
X14142676Y-10765800D01*
X14123628Y-10737229D01*
X14114105Y-10727705D01*
D13*
X9266200Y-11053800D02*
X9266200Y-11205800D01*
X9190200Y-11129800D02*
X9342200Y-11129800D01*
D11*
X9704581Y-11220276D02*
X9590295Y-11220276D01*
X9647438Y-11220276D02*
X9647438Y-11020276D01*
X9628390Y-11048848D01*
X9609343Y-11067895D01*
X9590295Y-11077419D01*
X9790295Y-11201228D02*
X9799819Y-11210752D01*
X9790295Y-11220276D01*
X9780771Y-11210752D01*
X9790295Y-11201228D01*
X9790295Y-11220276D01*
X9980771Y-11020276D02*
X9885533Y-11020276D01*
X9876010Y-11115514D01*
X9885533Y-11105990D01*
X9904581Y-11096467D01*
X9952200Y-11096467D01*
X9971248Y-11105990D01*
X9980771Y-11115514D01*
X9990295Y-11134562D01*
X9990295Y-11182181D01*
X9980771Y-11201228D01*
X9971248Y-11210752D01*
X9952200Y-11220276D01*
X9904581Y-11220276D01*
X9885533Y-11210752D01*
X9876010Y-11201228D01*
X10066486Y-11039324D02*
X10076010Y-11029800D01*
X10095057Y-11020276D01*
X10142676Y-11020276D01*
X10161724Y-11029800D01*
X10171248Y-11039324D01*
X10180771Y-11058371D01*
X10180771Y-11077419D01*
X10171248Y-11105990D01*
X10056962Y-11220276D01*
X10180771Y-11220276D01*
X10304581Y-11020276D02*
X10323629Y-11020276D01*
X10342676Y-11029800D01*
X10352200Y-11039324D01*
X10361724Y-11058371D01*
X10371248Y-11096467D01*
X10371248Y-11144086D01*
X10361724Y-11182181D01*
X10352200Y-11201228D01*
X10342676Y-11210752D01*
X10323629Y-11220276D01*
X10304581Y-11220276D01*
X10285533Y-11210752D01*
X10276010Y-11201228D01*
X10266486Y-11182181D01*
X10256962Y-11144086D01*
X10256962Y-11096467D01*
X10266486Y-11058371D01*
X10276010Y-11039324D01*
X10285533Y-11029800D01*
X10304581Y-11020276D01*
X10456962Y-11220276D02*
X10456962Y-11086943D01*
X10456962Y-11105990D02*
X10466486Y-11096467D01*
X10485533Y-11086943D01*
X10514105Y-11086943D01*
X10533152Y-11096467D01*
X10542676Y-11115514D01*
X10542676Y-11220276D01*
X10542676Y-11115514D02*
X10552200Y-11096467D01*
X10571248Y-11086943D01*
X10599819Y-11086943D01*
X10618867Y-11096467D01*
X10628390Y-11115514D01*
X10628390Y-11220276D01*
X10723629Y-11220276D02*
X10723629Y-11086943D01*
X10723629Y-11105990D02*
X10733152Y-11096467D01*
X10752200Y-11086943D01*
X10780771Y-11086943D01*
X10799819Y-11096467D01*
X10809343Y-11115514D01*
X10809343Y-11220276D01*
X10809343Y-11115514D02*
X10818867Y-11096467D01*
X10837914Y-11086943D01*
X10866486Y-11086943D01*
X10885533Y-11096467D01*
X10895057Y-11115514D01*
X10895057Y-11220276D01*
X11285533Y-11010752D02*
X11114105Y-11267895D01*
X11542676Y-11020276D02*
X11561724Y-11020276D01*
X11580771Y-11029800D01*
X11590295Y-11039324D01*
X11599819Y-11058371D01*
X11609343Y-11096467D01*
X11609343Y-11144086D01*
X11599819Y-11182181D01*
X11590295Y-11201228D01*
X11580771Y-11210752D01*
X11561724Y-11220276D01*
X11542676Y-11220276D01*
X11523628Y-11210752D01*
X11514105Y-11201228D01*
X11504581Y-11182181D01*
X11495057Y-11144086D01*
X11495057Y-11096467D01*
X11504581Y-11058371D01*
X11514105Y-11039324D01*
X11523628Y-11029800D01*
X11542676Y-11020276D01*
X11695057Y-11201228D02*
X11704581Y-11210752D01*
X11695057Y-11220276D01*
X11685533Y-11210752D01*
X11695057Y-11201228D01*
X11695057Y-11220276D01*
X11828390Y-11020276D02*
X11847438Y-11020276D01*
X11866486Y-11029800D01*
X11876009Y-11039324D01*
X11885533Y-11058371D01*
X11895057Y-11096467D01*
X11895057Y-11144086D01*
X11885533Y-11182181D01*
X11876009Y-11201228D01*
X11866486Y-11210752D01*
X11847438Y-11220276D01*
X11828390Y-11220276D01*
X11809343Y-11210752D01*
X11799819Y-11201228D01*
X11790295Y-11182181D01*
X11780771Y-11144086D01*
X11780771Y-11096467D01*
X11790295Y-11058371D01*
X11799819Y-11039324D01*
X11809343Y-11029800D01*
X11828390Y-11020276D01*
X12076009Y-11020276D02*
X11980771Y-11020276D01*
X11971248Y-11115514D01*
X11980771Y-11105990D01*
X11999819Y-11096467D01*
X12047438Y-11096467D01*
X12066486Y-11105990D01*
X12076009Y-11115514D01*
X12085533Y-11134562D01*
X12085533Y-11182181D01*
X12076009Y-11201228D01*
X12066486Y-11210752D01*
X12047438Y-11220276D01*
X11999819Y-11220276D01*
X11980771Y-11210752D01*
X11971248Y-11201228D01*
X12180771Y-11220276D02*
X12218867Y-11220276D01*
X12237914Y-11210752D01*
X12247438Y-11201228D01*
X12266486Y-11172657D01*
X12276009Y-11134562D01*
X12276009Y-11058371D01*
X12266486Y-11039324D01*
X12256962Y-11029800D01*
X12237914Y-11020276D01*
X12199819Y-11020276D01*
X12180771Y-11029800D01*
X12171248Y-11039324D01*
X12161724Y-11058371D01*
X12161724Y-11105990D01*
X12171248Y-11125038D01*
X12180771Y-11134562D01*
X12199819Y-11144086D01*
X12237914Y-11144086D01*
X12256962Y-11134562D01*
X12266486Y-11125038D01*
X12276009Y-11105990D01*
X12390295Y-11105990D02*
X12371248Y-11096467D01*
X12361724Y-11086943D01*
X12352200Y-11067895D01*
X12352200Y-11058371D01*
X12361724Y-11039324D01*
X12371248Y-11029800D01*
X12390295Y-11020276D01*
X12428390Y-11020276D01*
X12447438Y-11029800D01*
X12456962Y-11039324D01*
X12466486Y-11058371D01*
X12466486Y-11067895D01*
X12456962Y-11086943D01*
X12447438Y-11096467D01*
X12428390Y-11105990D01*
X12390295Y-11105990D01*
X12371248Y-11115514D01*
X12361724Y-11125038D01*
X12352200Y-11144086D01*
X12352200Y-11182181D01*
X12361724Y-11201228D01*
X12371248Y-11210752D01*
X12390295Y-11220276D01*
X12428390Y-11220276D01*
X12447438Y-11210752D01*
X12456962Y-11201228D01*
X12466486Y-11182181D01*
X12466486Y-11144086D01*
X12456962Y-11125038D01*
X12447438Y-11115514D01*
X12428390Y-11105990D01*
X12542676Y-11020276D02*
X12542676Y-11058371D01*
X12618867Y-11020276D02*
X12618867Y-11058371D01*
X12914105Y-11296467D02*
X12904581Y-11286943D01*
X12885533Y-11258371D01*
X12876009Y-11239324D01*
X12866486Y-11210752D01*
X12856962Y-11163133D01*
X12856962Y-11125038D01*
X12866486Y-11077419D01*
X12876009Y-11048848D01*
X12885533Y-11029800D01*
X12904581Y-11001229D01*
X12914105Y-10991705D01*
X12980771Y-11039324D02*
X12990295Y-11029800D01*
X13009343Y-11020276D01*
X13056962Y-11020276D01*
X13076009Y-11029800D01*
X13085533Y-11039324D01*
X13095057Y-11058371D01*
X13095057Y-11077419D01*
X13085533Y-11105990D01*
X12971248Y-11220276D01*
X13095057Y-11220276D01*
X13333152Y-11220276D02*
X13333152Y-11020276D01*
X13418867Y-11220276D02*
X13418867Y-11115514D01*
X13409343Y-11096467D01*
X13390295Y-11086943D01*
X13361724Y-11086943D01*
X13342676Y-11096467D01*
X13333152Y-11105990D01*
X13542676Y-11220276D02*
X13523628Y-11210752D01*
X13514105Y-11201228D01*
X13504581Y-11182181D01*
X13504581Y-11125038D01*
X13514105Y-11105990D01*
X13523628Y-11096467D01*
X13542676Y-11086943D01*
X13571248Y-11086943D01*
X13590295Y-11096467D01*
X13599819Y-11105990D01*
X13609343Y-11125038D01*
X13609343Y-11182181D01*
X13599819Y-11201228D01*
X13590295Y-11210752D01*
X13571248Y-11220276D01*
X13542676Y-11220276D01*
X13723628Y-11220276D02*
X13704581Y-11210752D01*
X13695057Y-11191705D01*
X13695057Y-11020276D01*
X13876009Y-11210752D02*
X13856962Y-11220276D01*
X13818867Y-11220276D01*
X13799819Y-11210752D01*
X13790295Y-11191705D01*
X13790295Y-11115514D01*
X13799819Y-11096467D01*
X13818867Y-11086943D01*
X13856962Y-11086943D01*
X13876009Y-11096467D01*
X13885533Y-11115514D01*
X13885533Y-11134562D01*
X13790295Y-11153610D01*
X13961724Y-11210752D02*
X13980771Y-11220276D01*
X14018867Y-11220276D01*
X14037914Y-11210752D01*
X14047438Y-11191705D01*
X14047438Y-11182181D01*
X14037914Y-11163133D01*
X14018867Y-11153610D01*
X13990295Y-11153610D01*
X13971248Y-11144086D01*
X13961724Y-11125038D01*
X13961724Y-11115514D01*
X13971248Y-11096467D01*
X13990295Y-11086943D01*
X14018867Y-11086943D01*
X14037914Y-11096467D01*
X14114105Y-11296467D02*
X14123628Y-11286943D01*
X14142676Y-11258371D01*
X14152200Y-11239324D01*
X14161724Y-11210752D01*
X14171248Y-11163133D01*
X14171248Y-11125038D01*
X14161724Y-11077419D01*
X14152200Y-11048848D01*
X14142676Y-11029800D01*
X14123628Y-11001229D01*
X14114105Y-10991705D01*
M02*
