G04 EAGLE Gerber X2 export*
%TF.Part,Single*%
%TF.FileFunction,Legend,Bot,1*%
%TF.FilePolarity,Positive*%
%TF.GenerationSoftware,Autodesk,EAGLE,9.7.0*%
%TF.CreationDate,2022-05-09T14:20:26Z*%
G75*
%MOMM*%
%FSLAX46Y46*%
%LPD*%
%INSilkscreen Bottom*%
%AMOC8*
5,1,8,0,0,1.08239X$1,22.5*%
G01*
G04 Define Apertures*
%ADD10C,0.152400*%
G36*
X22049978Y21709375D02*
X22048459Y21759803D01*
X22043900Y21807306D01*
X22036306Y21851878D01*
X22025672Y21893522D01*
X22012000Y21932238D01*
X21995291Y21968025D01*
X21975544Y22000881D01*
X21952756Y22030813D01*
X21927206Y22057500D01*
X21899166Y22080625D01*
X21868634Y22100197D01*
X21835613Y22116209D01*
X21800100Y22128663D01*
X21762094Y22137556D01*
X21721600Y22142894D01*
X21678616Y22144672D01*
X21635944Y22142888D01*
X21595519Y22137531D01*
X21557338Y22128600D01*
X21521400Y22116100D01*
X21487706Y22100025D01*
X21456256Y22080381D01*
X21427053Y22057163D01*
X21400094Y22030375D01*
X21375872Y22000519D01*
X21354878Y21968106D01*
X21337113Y21933134D01*
X21322581Y21895603D01*
X21311275Y21855513D01*
X21303203Y21812863D01*
X21298356Y21767653D01*
X21296744Y21719884D01*
X21296744Y21357281D01*
X20815900Y21357281D01*
X20815900Y21189991D01*
X22049978Y21189991D01*
X22049978Y21709375D01*
G37*
%LPC*%
G36*
X21428997Y21357281D02*
X21428997Y21696234D01*
X21429966Y21730175D01*
X21432869Y21761925D01*
X21437709Y21791484D01*
X21444488Y21818856D01*
X21453203Y21844038D01*
X21463853Y21867028D01*
X21476441Y21887828D01*
X21490963Y21906441D01*
X21507422Y21922863D01*
X21525819Y21937097D01*
X21546153Y21949138D01*
X21568422Y21958994D01*
X21592628Y21966656D01*
X21618769Y21972131D01*
X21646847Y21975416D01*
X21676863Y21976509D01*
X21705819Y21975388D01*
X21732903Y21972022D01*
X21758122Y21966409D01*
X21781472Y21958553D01*
X21802956Y21948453D01*
X21822569Y21936109D01*
X21840316Y21921522D01*
X21856194Y21904691D01*
X21870206Y21885613D01*
X21882347Y21864291D01*
X21892622Y21840725D01*
X21901028Y21814916D01*
X21907566Y21786859D01*
X21912234Y21756559D01*
X21915038Y21724016D01*
X21915972Y21689228D01*
X21915972Y21357281D01*
X21428997Y21357281D01*
G37*
%LPD*%
G36*
X20976866Y22353503D02*
X21023584Y22379531D01*
X21067297Y22408025D01*
X21107997Y22438981D01*
X21146259Y22471578D01*
X21182663Y22504997D01*
X21217203Y22539238D01*
X21249884Y22574300D01*
X21311084Y22644916D01*
X21367688Y22714875D01*
X21421991Y22781113D01*
X21476294Y22840559D01*
X21503772Y22867247D01*
X21531909Y22891250D01*
X21560703Y22912572D01*
X21590153Y22931209D01*
X21620919Y22946347D01*
X21653653Y22957156D01*
X21688359Y22963644D01*
X21725034Y22965806D01*
X21749725Y22964875D01*
X21772988Y22962084D01*
X21794831Y22957431D01*
X21815247Y22950919D01*
X21834244Y22942541D01*
X21851816Y22932306D01*
X21867963Y22920206D01*
X21882691Y22906250D01*
X21895828Y22890634D01*
X21907213Y22873569D01*
X21916847Y22855053D01*
X21924731Y22835084D01*
X21930863Y22813669D01*
X21935241Y22790800D01*
X21937869Y22766481D01*
X21938744Y22740713D01*
X21937888Y22716084D01*
X21935322Y22692569D01*
X21931047Y22670159D01*
X21925059Y22648856D01*
X21917359Y22628666D01*
X21907953Y22609581D01*
X21896834Y22591606D01*
X21884003Y22574738D01*
X21869628Y22559266D01*
X21853869Y22545478D01*
X21836728Y22533375D01*
X21818203Y22522953D01*
X21798300Y22514216D01*
X21777013Y22507159D01*
X21754344Y22501788D01*
X21730291Y22498100D01*
X21745181Y22336944D01*
X21781241Y22342738D01*
X21815413Y22351369D01*
X21847697Y22362828D01*
X21878091Y22377122D01*
X21906597Y22394250D01*
X21933216Y22414209D01*
X21957944Y22437003D01*
X21980784Y22462628D01*
X22001313Y22490634D01*
X22019103Y22520572D01*
X22034156Y22552438D01*
X22046475Y22586234D01*
X22056053Y22621959D01*
X22062897Y22659613D01*
X22067003Y22699197D01*
X22068372Y22740713D01*
X22066994Y22786003D01*
X22062869Y22828600D01*
X22055991Y22868497D01*
X22046366Y22905700D01*
X22033988Y22940209D01*
X22018856Y22972019D01*
X22000978Y23001134D01*
X21980347Y23027553D01*
X21957184Y23051059D01*
X21931709Y23071428D01*
X21903922Y23088666D01*
X21873822Y23102769D01*
X21841406Y23113738D01*
X21806681Y23121572D01*
X21769644Y23126272D01*
X21730291Y23127841D01*
X21694434Y23125788D01*
X21658691Y23119628D01*
X21623053Y23109366D01*
X21587525Y23094997D01*
X21552053Y23076575D01*
X21516581Y23054159D01*
X21481109Y23027747D01*
X21445638Y22997338D01*
X21405294Y22957541D01*
X21355206Y22902966D01*
X21295375Y22833606D01*
X21225797Y22749472D01*
X21185647Y22701681D01*
X21147519Y22659038D01*
X21111419Y22621541D01*
X21077341Y22589191D01*
X21044578Y22561491D01*
X21012419Y22537953D01*
X20980859Y22518575D01*
X20949903Y22503356D01*
X20949903Y23147109D01*
X20815900Y23147109D01*
X20815900Y22329938D01*
X20927131Y22329938D01*
X20976866Y22353503D01*
G37*
G36*
X21149600Y20337784D02*
X21124897Y20342344D01*
X21101591Y20348131D01*
X21079681Y20355153D01*
X21059166Y20363403D01*
X21040050Y20372888D01*
X21022325Y20383603D01*
X21006000Y20395550D01*
X20991069Y20408731D01*
X20977725Y20422963D01*
X20966163Y20438072D01*
X20956378Y20454056D01*
X20948372Y20470916D01*
X20942144Y20488650D01*
X20937697Y20507263D01*
X20935028Y20526750D01*
X20934138Y20547116D01*
X20935119Y20569284D01*
X20938053Y20590250D01*
X20942944Y20610013D01*
X20949794Y20628569D01*
X20958600Y20645922D01*
X20969366Y20662072D01*
X20982084Y20677016D01*
X20996763Y20690756D01*
X21013328Y20703072D01*
X21031716Y20713747D01*
X21051922Y20722778D01*
X21073947Y20730169D01*
X21097794Y20735916D01*
X21123459Y20740022D01*
X21150947Y20742484D01*
X21180253Y20743306D01*
X21913344Y20743306D01*
X21913344Y20505950D01*
X22049978Y20505950D01*
X22049978Y20909719D01*
X21183756Y20909719D01*
X21140069Y20908200D01*
X21098772Y20903644D01*
X21059872Y20896047D01*
X21023366Y20885413D01*
X20989256Y20871741D01*
X20957541Y20855031D01*
X20928219Y20835284D01*
X20901294Y20812500D01*
X20877175Y20787072D01*
X20856269Y20759400D01*
X20838581Y20729484D01*
X20824109Y20697325D01*
X20812856Y20662919D01*
X20804816Y20626269D01*
X20799994Y20587378D01*
X20798384Y20546238D01*
X20799650Y20508041D01*
X20803447Y20471831D01*
X20809778Y20437616D01*
X20818634Y20405391D01*
X20830028Y20375156D01*
X20843953Y20346913D01*
X20860409Y20320663D01*
X20879397Y20296400D01*
X20900919Y20274131D01*
X20924969Y20253853D01*
X20951553Y20235569D01*
X20980669Y20219272D01*
X21012316Y20204966D01*
X21046494Y20192653D01*
X21083206Y20182331D01*
X21122447Y20174000D01*
X21149600Y20337784D01*
G37*
G36*
X4959478Y23088175D02*
X4957959Y23138603D01*
X4953400Y23186106D01*
X4945806Y23230678D01*
X4935172Y23272322D01*
X4921500Y23311038D01*
X4904791Y23346825D01*
X4885044Y23379681D01*
X4862256Y23409613D01*
X4836706Y23436300D01*
X4808666Y23459425D01*
X4778134Y23478997D01*
X4745113Y23495009D01*
X4709600Y23507463D01*
X4671594Y23516356D01*
X4631100Y23521694D01*
X4588116Y23523472D01*
X4545444Y23521688D01*
X4505019Y23516331D01*
X4466838Y23507400D01*
X4430900Y23494900D01*
X4397206Y23478825D01*
X4365756Y23459181D01*
X4336553Y23435963D01*
X4309594Y23409175D01*
X4285372Y23379319D01*
X4264378Y23346906D01*
X4246613Y23311934D01*
X4232081Y23274403D01*
X4220775Y23234313D01*
X4212703Y23191663D01*
X4207856Y23146453D01*
X4206244Y23098684D01*
X4206244Y22736081D01*
X3725400Y22736081D01*
X3725400Y22568791D01*
X4959478Y22568791D01*
X4959478Y23088175D01*
G37*
%LPC*%
G36*
X4338497Y22736081D02*
X4338497Y23075034D01*
X4339466Y23108975D01*
X4342369Y23140725D01*
X4347209Y23170284D01*
X4353988Y23197656D01*
X4362703Y23222838D01*
X4373353Y23245828D01*
X4385941Y23266628D01*
X4400463Y23285241D01*
X4416922Y23301663D01*
X4435319Y23315897D01*
X4455653Y23327938D01*
X4477922Y23337794D01*
X4502128Y23345456D01*
X4528269Y23350931D01*
X4556347Y23354216D01*
X4586363Y23355309D01*
X4615319Y23354188D01*
X4642403Y23350822D01*
X4667622Y23345209D01*
X4690972Y23337353D01*
X4712456Y23327253D01*
X4732069Y23314909D01*
X4749816Y23300322D01*
X4765694Y23283491D01*
X4779706Y23264413D01*
X4791847Y23243091D01*
X4802122Y23219525D01*
X4810528Y23193716D01*
X4817066Y23165659D01*
X4821734Y23135359D01*
X4824538Y23102816D01*
X4825472Y23068028D01*
X4825472Y22736081D01*
X4338497Y22736081D01*
G37*
%LPD*%
G36*
X4057347Y23849750D02*
X4030831Y23854494D01*
X4006028Y23860847D01*
X3982934Y23868809D01*
X3961550Y23878378D01*
X3941878Y23889556D01*
X3923916Y23902341D01*
X3907666Y23916734D01*
X3893125Y23932738D01*
X3880294Y23950347D01*
X3869175Y23969563D01*
X3859766Y23990388D01*
X3852069Y24012822D01*
X3846081Y24036863D01*
X3841806Y24062513D01*
X3839238Y24089772D01*
X3838384Y24118638D01*
X3839300Y24147616D01*
X3842050Y24174991D01*
X3846634Y24200769D01*
X3853053Y24224944D01*
X3861306Y24247516D01*
X3871394Y24268491D01*
X3883313Y24287863D01*
X3897066Y24305631D01*
X3912625Y24321541D01*
X3929966Y24335328D01*
X3949084Y24346994D01*
X3969981Y24356541D01*
X3992656Y24363966D01*
X4017113Y24369269D01*
X4043347Y24372450D01*
X4071363Y24373509D01*
X4095850Y24372300D01*
X4118959Y24368666D01*
X4140684Y24362609D01*
X4161028Y24354131D01*
X4179988Y24343231D01*
X4197566Y24329909D01*
X4213763Y24314163D01*
X4228578Y24295997D01*
X4241819Y24275544D01*
X4253294Y24252944D01*
X4263003Y24228194D01*
X4270947Y24201294D01*
X4277125Y24172247D01*
X4281538Y24141053D01*
X4284188Y24107709D01*
X4285069Y24072216D01*
X4285069Y23982878D01*
X4421703Y23982878D01*
X4421703Y24068713D01*
X4422584Y24100209D01*
X4425234Y24129884D01*
X4429647Y24157741D01*
X4435825Y24183778D01*
X4443769Y24207994D01*
X4453481Y24230391D01*
X4464956Y24250966D01*
X4478197Y24269722D01*
X4492997Y24286450D01*
X4509150Y24300950D01*
X4526663Y24313219D01*
X4545528Y24323259D01*
X4565747Y24331066D01*
X4587322Y24336641D01*
X4610250Y24339988D01*
X4634534Y24341103D01*
X4658628Y24340194D01*
X4681422Y24337463D01*
X4702913Y24332913D01*
X4723106Y24326544D01*
X4742000Y24318353D01*
X4759591Y24308341D01*
X4775884Y24296509D01*
X4790875Y24282859D01*
X4804322Y24267416D01*
X4815975Y24250206D01*
X4825834Y24231231D01*
X4833903Y24210491D01*
X4840175Y24187988D01*
X4844659Y24163716D01*
X4847347Y24137678D01*
X4848244Y24109878D01*
X4847409Y24084444D01*
X4844906Y24060256D01*
X4840731Y24037313D01*
X4834888Y24015613D01*
X4827375Y23995163D01*
X4818191Y23975953D01*
X4807338Y23957994D01*
X4794816Y23941275D01*
X4780775Y23926025D01*
X4765366Y23912456D01*
X4748588Y23900569D01*
X4730441Y23890366D01*
X4710925Y23881847D01*
X4690044Y23875013D01*
X4667791Y23869859D01*
X4644169Y23866391D01*
X4656431Y23707859D01*
X4693272Y23713656D01*
X4728034Y23722284D01*
X4760713Y23733747D01*
X4791313Y23748041D01*
X4819834Y23765169D01*
X4846272Y23785128D01*
X4870634Y23807919D01*
X4892913Y23833547D01*
X4912825Y23861553D01*
X4930081Y23891488D01*
X4944684Y23923356D01*
X4956631Y23957150D01*
X4965922Y23992875D01*
X4972559Y24030531D01*
X4976544Y24070116D01*
X4977872Y24111628D01*
X4976522Y24156756D01*
X4972478Y24199297D01*
X4965738Y24239250D01*
X4956303Y24276619D01*
X4944172Y24311400D01*
X4929344Y24343594D01*
X4911819Y24373203D01*
X4891600Y24400225D01*
X4868969Y24424344D01*
X4844222Y24445247D01*
X4817350Y24462938D01*
X4788356Y24477409D01*
X4757244Y24488666D01*
X4724009Y24496703D01*
X4688653Y24501528D01*
X4651178Y24503138D01*
X4622306Y24502103D01*
X4594822Y24499003D01*
X4568716Y24493838D01*
X4543994Y24486606D01*
X4520653Y24477306D01*
X4498697Y24465941D01*
X4478119Y24452509D01*
X4458928Y24437009D01*
X4441169Y24419541D01*
X4424906Y24400197D01*
X4410131Y24378978D01*
X4396850Y24355884D01*
X4385059Y24330916D01*
X4374763Y24304072D01*
X4365956Y24275353D01*
X4358641Y24244759D01*
X4355138Y24244759D01*
X4350431Y24278397D01*
X4343753Y24310119D01*
X4335103Y24339925D01*
X4324484Y24367816D01*
X4311894Y24393791D01*
X4297331Y24417850D01*
X4280800Y24439994D01*
X4262297Y24460219D01*
X4242181Y24478284D01*
X4220803Y24493941D01*
X4198169Y24507188D01*
X4174275Y24518025D01*
X4149122Y24526456D01*
X4122709Y24532478D01*
X4095038Y24536091D01*
X4066106Y24537294D01*
X4024613Y24535597D01*
X3985528Y24530506D01*
X3948850Y24522022D01*
X3914584Y24510144D01*
X3882725Y24494872D01*
X3853272Y24476203D01*
X3826231Y24454144D01*
X3801597Y24428688D01*
X3779634Y24400088D01*
X3760597Y24368584D01*
X3744491Y24334178D01*
X3731309Y24296872D01*
X3721063Y24256666D01*
X3713741Y24213556D01*
X3709350Y24167547D01*
X3707884Y24118638D01*
X3709206Y24072963D01*
X3713166Y24029656D01*
X3719769Y23988716D01*
X3729013Y23950144D01*
X3740897Y23913941D01*
X3755425Y23880103D01*
X3772591Y23848634D01*
X3792400Y23819531D01*
X3814797Y23793031D01*
X3839725Y23769363D01*
X3867184Y23748525D01*
X3897175Y23730522D01*
X3929697Y23715353D01*
X3964753Y23703016D01*
X4002341Y23693513D01*
X4042456Y23686841D01*
X4057347Y23849750D01*
G37*
G36*
X4059100Y21716584D02*
X4034397Y21721144D01*
X4011091Y21726931D01*
X3989181Y21733953D01*
X3968666Y21742203D01*
X3949550Y21751688D01*
X3931825Y21762403D01*
X3915500Y21774350D01*
X3900569Y21787531D01*
X3887225Y21801763D01*
X3875663Y21816872D01*
X3865878Y21832856D01*
X3857872Y21849716D01*
X3851644Y21867450D01*
X3847197Y21886063D01*
X3844528Y21905550D01*
X3843638Y21925916D01*
X3844619Y21948084D01*
X3847553Y21969050D01*
X3852444Y21988813D01*
X3859294Y22007369D01*
X3868100Y22024722D01*
X3878866Y22040872D01*
X3891584Y22055816D01*
X3906263Y22069556D01*
X3922828Y22081872D01*
X3941216Y22092547D01*
X3961422Y22101578D01*
X3983447Y22108969D01*
X4007294Y22114716D01*
X4032959Y22118822D01*
X4060447Y22121284D01*
X4089753Y22122106D01*
X4822844Y22122106D01*
X4822844Y21884750D01*
X4959478Y21884750D01*
X4959478Y22288519D01*
X4093256Y22288519D01*
X4049569Y22287000D01*
X4008272Y22282444D01*
X3969372Y22274847D01*
X3932866Y22264213D01*
X3898756Y22250541D01*
X3867041Y22233831D01*
X3837719Y22214084D01*
X3810794Y22191300D01*
X3786675Y22165872D01*
X3765769Y22138200D01*
X3748081Y22108284D01*
X3733609Y22076125D01*
X3722356Y22041719D01*
X3714316Y22005069D01*
X3709494Y21966178D01*
X3707884Y21925038D01*
X3709150Y21886841D01*
X3712947Y21850631D01*
X3719278Y21816416D01*
X3728134Y21784191D01*
X3739528Y21753956D01*
X3753453Y21725713D01*
X3769909Y21699463D01*
X3788897Y21675200D01*
X3810419Y21652931D01*
X3834469Y21632653D01*
X3861053Y21614369D01*
X3890169Y21598072D01*
X3921816Y21583766D01*
X3955994Y21571453D01*
X3992706Y21561131D01*
X4031947Y21552800D01*
X4059100Y21716584D01*
G37*
D10*
X23318200Y10745800D02*
X23318200Y9475800D01*
X23953200Y8840800D01*
X25223200Y8840800D01*
X25858200Y9475800D01*
X23953200Y8840800D02*
X23318200Y8205800D01*
X23318200Y6935800D01*
X23953200Y6300800D01*
X25223200Y6300800D01*
X25858200Y6935800D01*
X25858200Y8205800D01*
X25223200Y8840800D01*
X23318200Y13285800D02*
X23953200Y13920800D01*
X23318200Y13285800D02*
X23318200Y12015800D01*
X23953200Y11380800D01*
X25223200Y11380800D01*
X25858200Y12015800D01*
X25858200Y13285800D01*
X25223200Y13920800D01*
X23953200Y11380800D02*
X23318200Y10745800D01*
X25223200Y11380800D02*
X25858200Y10745800D01*
X25858200Y9475800D01*
X23318200Y17095800D02*
X23318200Y18365800D01*
X23318200Y17095800D02*
X23953200Y16460800D01*
X25223200Y16460800D01*
X25858200Y17095800D01*
X23953200Y16460800D02*
X23318200Y15825800D01*
X23318200Y14555800D01*
X23953200Y13920800D01*
X25223200Y13920800D01*
X25858200Y14555800D01*
X25858200Y15825800D01*
X25223200Y16460800D01*
X23318200Y20905800D02*
X23953200Y21540800D01*
X23318200Y20905800D02*
X23318200Y19635800D01*
X23953200Y19000800D01*
X25223200Y19000800D01*
X25858200Y19635800D01*
X25858200Y20905800D01*
X25223200Y21540800D01*
X23953200Y19000800D02*
X23318200Y18365800D01*
X25223200Y19000800D02*
X25858200Y18365800D01*
X25858200Y17095800D01*
X23318200Y24715800D02*
X23318200Y25985800D01*
X23318200Y24715800D02*
X23953200Y24080800D01*
X25223200Y24080800D01*
X25858200Y24715800D01*
X23953200Y24080800D02*
X23318200Y23445800D01*
X23318200Y22175800D01*
X23953200Y21540800D01*
X25223200Y21540800D01*
X25858200Y22175800D01*
X25858200Y23445800D01*
X25223200Y24080800D01*
X23318200Y28525800D02*
X23953200Y29160800D01*
X23318200Y28525800D02*
X23318200Y27255800D01*
X23953200Y26620800D01*
X25223200Y26620800D01*
X25858200Y27255800D01*
X25858200Y28525800D01*
X25223200Y29160800D01*
X23953200Y26620800D02*
X23318200Y25985800D01*
X25223200Y26620800D02*
X25858200Y25985800D01*
X25858200Y24715800D01*
X23318200Y32335800D02*
X23318200Y33605800D01*
X23318200Y32335800D02*
X23953200Y31700800D01*
X25223200Y31700800D01*
X25858200Y32335800D01*
X23953200Y31700800D02*
X23318200Y31065800D01*
X23318200Y29795800D01*
X23953200Y29160800D01*
X25223200Y29160800D01*
X25858200Y29795800D01*
X25858200Y31065800D01*
X25223200Y31700800D01*
X23318200Y36145800D02*
X23953200Y36780800D01*
X23318200Y36145800D02*
X23318200Y34875800D01*
X23953200Y34240800D01*
X25223200Y34240800D01*
X25858200Y34875800D01*
X25858200Y36145800D01*
X25223200Y36780800D01*
X23953200Y34240800D02*
X23318200Y33605800D01*
X25223200Y34240800D02*
X25858200Y33605800D01*
X25858200Y32335800D01*
X23318200Y39955800D02*
X23318200Y41225800D01*
X23318200Y39955800D02*
X23953200Y39320800D01*
X25223200Y39320800D01*
X25858200Y39955800D01*
X23953200Y39320800D02*
X23318200Y38685800D01*
X23318200Y37415800D01*
X23953200Y36780800D01*
X25223200Y36780800D01*
X25858200Y37415800D01*
X25858200Y38685800D01*
X25223200Y39320800D01*
X25223200Y41860800D02*
X23953200Y41860800D01*
X23318200Y41225800D01*
X25223200Y41860800D02*
X25858200Y41225800D01*
X25858200Y39955800D01*
X23953200Y6300800D02*
X23318200Y5665800D01*
X23318200Y4395800D01*
X23953200Y3760800D01*
X25223200Y3760800D01*
X25858200Y4395800D01*
X25858200Y5665800D01*
X25223200Y6300800D01*
X584200Y9474200D02*
X584200Y10744200D01*
X584200Y9474200D02*
X1219200Y8839200D01*
X2489200Y8839200D01*
X3124200Y9474200D01*
X1219200Y8839200D02*
X584200Y8204200D01*
X584200Y6934200D01*
X1219200Y6299200D01*
X2489200Y6299200D01*
X3124200Y6934200D01*
X3124200Y8204200D01*
X2489200Y8839200D01*
X584200Y13284200D02*
X1219200Y13919200D01*
X584200Y13284200D02*
X584200Y12014200D01*
X1219200Y11379200D01*
X2489200Y11379200D01*
X3124200Y12014200D01*
X3124200Y13284200D01*
X2489200Y13919200D01*
X1219200Y11379200D02*
X584200Y10744200D01*
X2489200Y11379200D02*
X3124200Y10744200D01*
X3124200Y9474200D01*
X584200Y17094200D02*
X584200Y18364200D01*
X584200Y17094200D02*
X1219200Y16459200D01*
X2489200Y16459200D01*
X3124200Y17094200D01*
X1219200Y16459200D02*
X584200Y15824200D01*
X584200Y14554200D01*
X1219200Y13919200D01*
X2489200Y13919200D01*
X3124200Y14554200D01*
X3124200Y15824200D01*
X2489200Y16459200D01*
X584200Y20904200D02*
X1219200Y21539200D01*
X584200Y20904200D02*
X584200Y19634200D01*
X1219200Y18999200D01*
X2489200Y18999200D01*
X3124200Y19634200D01*
X3124200Y20904200D01*
X2489200Y21539200D01*
X1219200Y18999200D02*
X584200Y18364200D01*
X2489200Y18999200D02*
X3124200Y18364200D01*
X3124200Y17094200D01*
X584200Y24714200D02*
X584200Y25984200D01*
X584200Y24714200D02*
X1219200Y24079200D01*
X2489200Y24079200D01*
X3124200Y24714200D01*
X1219200Y24079200D02*
X584200Y23444200D01*
X584200Y22174200D01*
X1219200Y21539200D01*
X2489200Y21539200D01*
X3124200Y22174200D01*
X3124200Y23444200D01*
X2489200Y24079200D01*
X584200Y28524200D02*
X1219200Y29159200D01*
X584200Y28524200D02*
X584200Y27254200D01*
X1219200Y26619200D01*
X2489200Y26619200D01*
X3124200Y27254200D01*
X3124200Y28524200D01*
X2489200Y29159200D01*
X1219200Y26619200D02*
X584200Y25984200D01*
X2489200Y26619200D02*
X3124200Y25984200D01*
X3124200Y24714200D01*
X584200Y32334200D02*
X584200Y33604200D01*
X584200Y32334200D02*
X1219200Y31699200D01*
X2489200Y31699200D01*
X3124200Y32334200D01*
X1219200Y31699200D02*
X584200Y31064200D01*
X584200Y29794200D01*
X1219200Y29159200D01*
X2489200Y29159200D01*
X3124200Y29794200D01*
X3124200Y31064200D01*
X2489200Y31699200D01*
X584200Y36144200D02*
X1219200Y36779200D01*
X584200Y36144200D02*
X584200Y34874200D01*
X1219200Y34239200D01*
X2489200Y34239200D01*
X3124200Y34874200D01*
X3124200Y36144200D01*
X2489200Y36779200D01*
X1219200Y34239200D02*
X584200Y33604200D01*
X2489200Y34239200D02*
X3124200Y33604200D01*
X3124200Y32334200D01*
X584200Y39954200D02*
X584200Y41224200D01*
X584200Y39954200D02*
X1219200Y39319200D01*
X2489200Y39319200D01*
X3124200Y39954200D01*
X1219200Y39319200D02*
X584200Y38684200D01*
X584200Y37414200D01*
X1219200Y36779200D01*
X2489200Y36779200D01*
X3124200Y37414200D01*
X3124200Y38684200D01*
X2489200Y39319200D01*
X2489200Y41859200D02*
X1219200Y41859200D01*
X584200Y41224200D01*
X2489200Y41859200D02*
X3124200Y41224200D01*
X3124200Y39954200D01*
X1219200Y6299200D02*
X584200Y5664200D01*
X584200Y4394200D01*
X1219200Y3759200D01*
X2489200Y3759200D01*
X3124200Y4394200D01*
X3124200Y5664200D01*
X2489200Y6299200D01*
M02*
