G04 EAGLE Gerber X2 export*
%TF.Part,Single*%
%TF.FileFunction,Legend,Bot,1*%
%TF.FilePolarity,Positive*%
%TF.GenerationSoftware,Autodesk,EAGLE,9.7.0*%
%TF.CreationDate,2022-05-08T16:05:26Z*%
G75*
%MOMM*%
%FSLAX46Y46*%
%LPD*%
%INSilkscreen Bottom*%
%AMOC8*
5,1,8,0,0,1.08239X$1,22.5*%
G01*
G04 Define Apertures*
%ADD10C,0.203200*%
%ADD11C,0.152400*%
G36*
X5296528Y32450659D02*
X5331925Y32452528D01*
X5366322Y32455641D01*
X5399719Y32460000D01*
X5432119Y32465603D01*
X5463522Y32472453D01*
X5493922Y32480550D01*
X5523325Y32489888D01*
X5551728Y32500475D01*
X5579134Y32512306D01*
X5630947Y32539703D01*
X5678763Y32572081D01*
X5722581Y32609444D01*
X5761791Y32651209D01*
X5795772Y32696809D01*
X5810800Y32721047D01*
X5824522Y32746241D01*
X5836941Y32772394D01*
X5848047Y32799503D01*
X5857850Y32827572D01*
X5866347Y32856597D01*
X5873534Y32886581D01*
X5879416Y32917525D01*
X5883991Y32949425D01*
X5887256Y32982284D01*
X5889216Y33016100D01*
X5889872Y33050875D01*
X5888666Y33099128D01*
X5885053Y33145356D01*
X5879031Y33189559D01*
X5870603Y33231738D01*
X5859763Y33271891D01*
X5846516Y33310016D01*
X5830859Y33346119D01*
X5812794Y33380194D01*
X5792363Y33412163D01*
X5769603Y33441944D01*
X5744519Y33469531D01*
X5717109Y33494931D01*
X5687369Y33518141D01*
X5655306Y33539163D01*
X5620916Y33557994D01*
X5584197Y33574634D01*
X5531647Y33416106D01*
X5557784Y33404563D01*
X5582338Y33391391D01*
X5605300Y33376588D01*
X5626675Y33360159D01*
X5646466Y33342103D01*
X5664666Y33322416D01*
X5681281Y33301100D01*
X5696306Y33278156D01*
X5709650Y33253847D01*
X5721213Y33228425D01*
X5731000Y33201897D01*
X5739003Y33174259D01*
X5745231Y33145513D01*
X5749678Y33115659D01*
X5752347Y33084697D01*
X5753238Y33052625D01*
X5751178Y33002813D01*
X5745000Y32955844D01*
X5734700Y32911722D01*
X5720284Y32870447D01*
X5701747Y32832019D01*
X5679091Y32796438D01*
X5652316Y32763703D01*
X5621422Y32733816D01*
X5586941Y32707128D01*
X5549409Y32684000D01*
X5508825Y32664431D01*
X5465191Y32648419D01*
X5418503Y32635966D01*
X5368766Y32627069D01*
X5315975Y32621731D01*
X5260131Y32619953D01*
X5204809Y32621806D01*
X5152263Y32627372D01*
X5102497Y32636644D01*
X5055509Y32649622D01*
X5011300Y32666313D01*
X4969869Y32686709D01*
X4931213Y32710816D01*
X4895338Y32738631D01*
X4863006Y32769609D01*
X4834984Y32803197D01*
X4811275Y32839403D01*
X4791878Y32878222D01*
X4776791Y32919653D01*
X4766013Y32963700D01*
X4759547Y33010359D01*
X4757391Y33059631D01*
X4758394Y33091534D01*
X4761400Y33122434D01*
X4766413Y33152325D01*
X4773428Y33181213D01*
X4782453Y33209091D01*
X4793478Y33235966D01*
X4806509Y33261834D01*
X4821547Y33286697D01*
X4838588Y33310553D01*
X4857634Y33333406D01*
X4878688Y33355250D01*
X4901744Y33376091D01*
X4926803Y33395922D01*
X4953869Y33414750D01*
X4982941Y33432572D01*
X5014016Y33449388D01*
X4945700Y33586022D01*
X4907038Y33566006D01*
X4870759Y33544063D01*
X4836859Y33520188D01*
X4805344Y33494384D01*
X4776206Y33466650D01*
X4749453Y33436988D01*
X4725078Y33405397D01*
X4703088Y33371875D01*
X4683588Y33336697D01*
X4666684Y33300138D01*
X4652384Y33262194D01*
X4640684Y33222869D01*
X4631584Y33182163D01*
X4625084Y33140075D01*
X4621184Y33096603D01*
X4619884Y33051750D01*
X4621097Y33005897D01*
X4624728Y32961619D01*
X4630784Y32918913D01*
X4639259Y32877781D01*
X4650159Y32838225D01*
X4663481Y32800244D01*
X4679228Y32763831D01*
X4697394Y32728997D01*
X4717813Y32695959D01*
X4740313Y32664950D01*
X4764891Y32635966D01*
X4791550Y32609006D01*
X4820288Y32584072D01*
X4851106Y32561163D01*
X4884006Y32540278D01*
X4918984Y32521419D01*
X4955834Y32504691D01*
X4994338Y32490191D01*
X5034497Y32477922D01*
X5076313Y32467884D01*
X5119781Y32460075D01*
X5164909Y32454500D01*
X5211691Y32451153D01*
X5260131Y32450038D01*
X5296528Y32450659D01*
G37*
G36*
X4931684Y33887050D02*
X4909519Y33893903D01*
X4888781Y33901978D01*
X4869475Y33911281D01*
X4851600Y33921809D01*
X4835153Y33933563D01*
X4820138Y33946538D01*
X4806550Y33960741D01*
X4794397Y33976169D01*
X4783669Y33992819D01*
X4774375Y34010694D01*
X4766509Y34029797D01*
X4760072Y34050122D01*
X4755069Y34071672D01*
X4751491Y34094450D01*
X4749347Y34118450D01*
X4748631Y34143675D01*
X4749828Y34174563D01*
X4753422Y34203725D01*
X4759409Y34231163D01*
X4767791Y34256878D01*
X4778569Y34280869D01*
X4791741Y34303134D01*
X4807306Y34323675D01*
X4825269Y34342494D01*
X4845325Y34359325D01*
X4867172Y34373916D01*
X4890816Y34386259D01*
X4916250Y34396359D01*
X4943475Y34404213D01*
X4972494Y34409825D01*
X5003306Y34413191D01*
X5035913Y34414313D01*
X5064338Y34413184D01*
X5091366Y34409797D01*
X5116997Y34404153D01*
X5141234Y34396250D01*
X5164075Y34386088D01*
X5185519Y34373669D01*
X5205569Y34358991D01*
X5224222Y34342056D01*
X5241053Y34323203D01*
X5255644Y34302778D01*
X5267988Y34280781D01*
X5278088Y34257206D01*
X5285941Y34232059D01*
X5291553Y34205341D01*
X5294919Y34177047D01*
X5296041Y34147178D01*
X5294781Y34115756D01*
X5291006Y34085431D01*
X5284709Y34056197D01*
X5275897Y34028063D01*
X5264072Y34000472D01*
X5248744Y33972881D01*
X5229913Y33945294D01*
X5207581Y33917703D01*
X5207581Y33763553D01*
X5871478Y33804719D01*
X5871478Y34506278D01*
X5737472Y34506278D01*
X5737472Y33948359D01*
X5345966Y33924709D01*
X5364441Y33951109D01*
X5380450Y33979069D01*
X5394000Y34008588D01*
X5405084Y34039666D01*
X5413706Y34072306D01*
X5419866Y34106506D01*
X5423559Y34142266D01*
X5424791Y34179584D01*
X5423122Y34223972D01*
X5418113Y34266047D01*
X5409766Y34305809D01*
X5398078Y34343259D01*
X5383053Y34378397D01*
X5364688Y34411222D01*
X5342981Y34441731D01*
X5317938Y34469931D01*
X5290213Y34495281D01*
X5260459Y34517253D01*
X5228681Y34535844D01*
X5194881Y34551056D01*
X5159053Y34562888D01*
X5121200Y34571338D01*
X5081319Y34576409D01*
X5039416Y34578097D01*
X4991888Y34576284D01*
X4946959Y34570844D01*
X4904631Y34561778D01*
X4864903Y34549084D01*
X4827775Y34532766D01*
X4793247Y34512819D01*
X4761319Y34489247D01*
X4731991Y34462047D01*
X4705716Y34431631D01*
X4682944Y34398413D01*
X4663675Y34362384D01*
X4647909Y34323553D01*
X4635650Y34281916D01*
X4626891Y34237472D01*
X4621638Y34190225D01*
X4619884Y34140172D01*
X4621063Y34098075D01*
X4624594Y34058059D01*
X4630478Y34020125D01*
X4638713Y33984269D01*
X4649303Y33950494D01*
X4662250Y33918800D01*
X4677550Y33889184D01*
X4695206Y33861650D01*
X4715091Y33836372D01*
X4737081Y33813531D01*
X4761181Y33793128D01*
X4787388Y33775159D01*
X4815703Y33759625D01*
X4846125Y33746528D01*
X4878656Y33735869D01*
X4913294Y33727644D01*
X4931684Y33887050D01*
G37*
G36*
X16193788Y40658706D02*
X16266947Y40664084D01*
X16335456Y40673047D01*
X16399313Y40685597D01*
X16458513Y40701731D01*
X16513063Y40721453D01*
X16562959Y40744756D01*
X16608203Y40771650D01*
X16648438Y40801853D01*
X16683306Y40835094D01*
X16712813Y40871375D01*
X16736953Y40910691D01*
X16755728Y40953047D01*
X16763106Y40975366D01*
X16769141Y40998441D01*
X16773834Y41022278D01*
X16777188Y41046872D01*
X16779200Y41072228D01*
X16779872Y41098344D01*
X16778888Y41132459D01*
X16775944Y41164963D01*
X16771034Y41195850D01*
X16764159Y41225122D01*
X16755322Y41252781D01*
X16744522Y41278825D01*
X16731756Y41303253D01*
X16717028Y41326066D01*
X16700334Y41347263D01*
X16681678Y41366847D01*
X16661059Y41384816D01*
X16638475Y41401169D01*
X16613928Y41415909D01*
X16587416Y41429031D01*
X16558941Y41440541D01*
X16528500Y41450438D01*
X16501350Y41299791D01*
X16536656Y41286459D01*
X16567256Y41269681D01*
X16593150Y41249456D01*
X16614334Y41225781D01*
X16630809Y41198656D01*
X16642581Y41168084D01*
X16649641Y41134063D01*
X16651997Y41096591D01*
X16650031Y41063822D01*
X16644141Y41032956D01*
X16634322Y41003991D01*
X16620575Y40976928D01*
X16602900Y40951769D01*
X16581297Y40928509D01*
X16555769Y40907153D01*
X16526309Y40887700D01*
X16493131Y40870353D01*
X16456434Y40855322D01*
X16416219Y40842600D01*
X16372488Y40832194D01*
X16325241Y40824097D01*
X16274475Y40818316D01*
X16220194Y40814847D01*
X16162394Y40813691D01*
X16199863Y40837338D01*
X16232572Y40865366D01*
X16260516Y40897772D01*
X16283700Y40934559D01*
X16301900Y40974956D01*
X16314900Y41018203D01*
X16319450Y41040894D01*
X16322703Y41064294D01*
X16324653Y41088406D01*
X16325303Y41113231D01*
X16323631Y41154828D01*
X16318625Y41194222D01*
X16310275Y41231413D01*
X16298588Y41266397D01*
X16283563Y41299181D01*
X16265197Y41329759D01*
X16243491Y41358138D01*
X16218447Y41384309D01*
X16190584Y41407813D01*
X16160422Y41428184D01*
X16127959Y41445422D01*
X16093200Y41459525D01*
X16056141Y41470491D01*
X16016781Y41478328D01*
X15975125Y41483028D01*
X15931169Y41484594D01*
X15883625Y41482938D01*
X15838656Y41477972D01*
X15796259Y41469691D01*
X15756434Y41458100D01*
X15719184Y41443197D01*
X15684506Y41424981D01*
X15652400Y41403456D01*
X15622866Y41378616D01*
X15596384Y41350863D01*
X15573434Y41320591D01*
X15554016Y41287800D01*
X15538128Y41252494D01*
X15525772Y41214669D01*
X15516947Y41174322D01*
X15511650Y41131463D01*
X15509884Y41086081D01*
X15510491Y41060406D01*
X15512306Y41035500D01*
X15519575Y40987984D01*
X15531681Y40943534D01*
X15548638Y40902153D01*
X15570438Y40863834D01*
X15597084Y40828581D01*
X15628572Y40796391D01*
X15664906Y40767269D01*
X15705869Y40741406D01*
X15751234Y40718988D01*
X15801006Y40700022D01*
X15855188Y40684503D01*
X15913772Y40672431D01*
X15976766Y40663809D01*
X16044166Y40658638D01*
X16115972Y40656913D01*
X16193788Y40658706D01*
G37*
%LPC*%
G36*
X15926938Y40830556D02*
X15893669Y40833863D01*
X15862016Y40839372D01*
X15831978Y40847081D01*
X15803553Y40856997D01*
X15776744Y40869116D01*
X15751550Y40883438D01*
X15727969Y40899963D01*
X15706619Y40918213D01*
X15688119Y40937706D01*
X15672463Y40958447D01*
X15659653Y40980431D01*
X15649691Y41003663D01*
X15642572Y41028138D01*
X15638303Y41053859D01*
X15636881Y41080825D01*
X15638078Y41108525D01*
X15641669Y41134691D01*
X15647656Y41159325D01*
X15656041Y41182425D01*
X15666816Y41203994D01*
X15679988Y41224028D01*
X15695556Y41242531D01*
X15713519Y41259500D01*
X15733572Y41274691D01*
X15755422Y41287856D01*
X15779063Y41298997D01*
X15804497Y41308109D01*
X15831725Y41315200D01*
X15860744Y41320263D01*
X15891556Y41323300D01*
X15924159Y41324313D01*
X15956703Y41323288D01*
X15987331Y41320209D01*
X16016044Y41315075D01*
X16042838Y41307891D01*
X16067719Y41298653D01*
X16090681Y41287363D01*
X16111731Y41274019D01*
X16130863Y41258625D01*
X16147900Y41241394D01*
X16162666Y41222550D01*
X16175163Y41202091D01*
X16185384Y41180016D01*
X16193334Y41156328D01*
X16199016Y41131022D01*
X16202422Y41104103D01*
X16203559Y41075572D01*
X16202553Y41048644D01*
X16199534Y41023047D01*
X16194506Y40998775D01*
X16187466Y40975834D01*
X16178413Y40954216D01*
X16167347Y40933928D01*
X16154272Y40914969D01*
X16139181Y40897334D01*
X16122328Y40881425D01*
X16103956Y40867638D01*
X16084066Y40855972D01*
X16062656Y40846425D01*
X16039725Y40839000D01*
X16015278Y40833697D01*
X15989309Y40830516D01*
X15961822Y40829456D01*
X15926938Y40830556D01*
G37*
%LPD*%
G36*
X16186528Y39360659D02*
X16221925Y39362528D01*
X16256322Y39365641D01*
X16289719Y39370000D01*
X16322119Y39375603D01*
X16353522Y39382453D01*
X16383922Y39390550D01*
X16413325Y39399888D01*
X16441728Y39410475D01*
X16469134Y39422306D01*
X16520947Y39449703D01*
X16568763Y39482081D01*
X16612581Y39519444D01*
X16651791Y39561209D01*
X16685772Y39606809D01*
X16700800Y39631047D01*
X16714522Y39656241D01*
X16726941Y39682394D01*
X16738047Y39709503D01*
X16747850Y39737572D01*
X16756347Y39766597D01*
X16763534Y39796581D01*
X16769416Y39827525D01*
X16773991Y39859425D01*
X16777256Y39892284D01*
X16779216Y39926100D01*
X16779872Y39960875D01*
X16778666Y40009128D01*
X16775053Y40055356D01*
X16769031Y40099559D01*
X16760603Y40141738D01*
X16749763Y40181891D01*
X16736516Y40220016D01*
X16720859Y40256119D01*
X16702794Y40290194D01*
X16682363Y40322163D01*
X16659603Y40351944D01*
X16634519Y40379531D01*
X16607109Y40404931D01*
X16577369Y40428141D01*
X16545306Y40449163D01*
X16510916Y40467994D01*
X16474197Y40484634D01*
X16421647Y40326106D01*
X16447784Y40314563D01*
X16472338Y40301391D01*
X16495300Y40286588D01*
X16516675Y40270159D01*
X16536466Y40252103D01*
X16554666Y40232416D01*
X16571281Y40211100D01*
X16586306Y40188156D01*
X16599650Y40163847D01*
X16611213Y40138425D01*
X16621000Y40111897D01*
X16629003Y40084259D01*
X16635231Y40055513D01*
X16639678Y40025659D01*
X16642347Y39994697D01*
X16643238Y39962625D01*
X16641178Y39912813D01*
X16635000Y39865844D01*
X16624700Y39821722D01*
X16610284Y39780447D01*
X16591747Y39742019D01*
X16569091Y39706438D01*
X16542316Y39673703D01*
X16511422Y39643816D01*
X16476941Y39617128D01*
X16439409Y39594000D01*
X16398825Y39574431D01*
X16355191Y39558419D01*
X16308503Y39545966D01*
X16258766Y39537069D01*
X16205975Y39531731D01*
X16150131Y39529953D01*
X16094809Y39531806D01*
X16042263Y39537372D01*
X15992497Y39546644D01*
X15945509Y39559622D01*
X15901300Y39576313D01*
X15859869Y39596709D01*
X15821213Y39620816D01*
X15785338Y39648631D01*
X15753006Y39679609D01*
X15724984Y39713197D01*
X15701275Y39749403D01*
X15681878Y39788222D01*
X15666791Y39829653D01*
X15656013Y39873700D01*
X15649547Y39920359D01*
X15647391Y39969631D01*
X15648394Y40001534D01*
X15651400Y40032434D01*
X15656413Y40062325D01*
X15663428Y40091213D01*
X15672453Y40119091D01*
X15683478Y40145966D01*
X15696509Y40171834D01*
X15711547Y40196697D01*
X15728588Y40220553D01*
X15747634Y40243406D01*
X15768688Y40265250D01*
X15791744Y40286091D01*
X15816803Y40305922D01*
X15843869Y40324750D01*
X15872941Y40342572D01*
X15904016Y40359388D01*
X15835700Y40496022D01*
X15797038Y40476006D01*
X15760759Y40454063D01*
X15726859Y40430188D01*
X15695344Y40404384D01*
X15666206Y40376650D01*
X15639453Y40346988D01*
X15615078Y40315397D01*
X15593088Y40281875D01*
X15573588Y40246697D01*
X15556684Y40210138D01*
X15542384Y40172194D01*
X15530684Y40132869D01*
X15521584Y40092163D01*
X15515084Y40050075D01*
X15511184Y40006603D01*
X15509884Y39961750D01*
X15511097Y39915897D01*
X15514728Y39871619D01*
X15520784Y39828913D01*
X15529259Y39787781D01*
X15540159Y39748225D01*
X15553481Y39710244D01*
X15569228Y39673831D01*
X15587394Y39638997D01*
X15607813Y39605959D01*
X15630313Y39574950D01*
X15654891Y39545966D01*
X15681550Y39519006D01*
X15710288Y39494072D01*
X15741106Y39471163D01*
X15774006Y39450278D01*
X15808984Y39431419D01*
X15845834Y39414691D01*
X15884338Y39400191D01*
X15924497Y39387922D01*
X15966313Y39377884D01*
X16009781Y39370075D01*
X16054909Y39364500D01*
X16101691Y39361153D01*
X16150131Y39360038D01*
X16186528Y39360659D01*
G37*
G36*
X23034203Y41496397D02*
X23078481Y41500028D01*
X23121188Y41506084D01*
X23162319Y41514559D01*
X23201875Y41525459D01*
X23239856Y41538781D01*
X23276269Y41554528D01*
X23311103Y41572694D01*
X23344141Y41593113D01*
X23375150Y41615613D01*
X23404134Y41640191D01*
X23431094Y41666850D01*
X23456028Y41695588D01*
X23478938Y41726406D01*
X23499822Y41759306D01*
X23518681Y41794284D01*
X23535409Y41831134D01*
X23549909Y41869638D01*
X23562178Y41909797D01*
X23572216Y41951613D01*
X23580025Y41995081D01*
X23585600Y42040209D01*
X23588947Y42086991D01*
X23590063Y42135431D01*
X23589441Y42171828D01*
X23587572Y42207225D01*
X23584459Y42241622D01*
X23580100Y42275019D01*
X23574497Y42307419D01*
X23567647Y42338822D01*
X23559550Y42369222D01*
X23550213Y42398625D01*
X23539625Y42427028D01*
X23527794Y42454434D01*
X23500397Y42506247D01*
X23468019Y42554063D01*
X23430656Y42597881D01*
X23388891Y42637091D01*
X23343291Y42671072D01*
X23319053Y42686100D01*
X23293859Y42699822D01*
X23267706Y42712241D01*
X23240597Y42723347D01*
X23212528Y42733150D01*
X23183503Y42741647D01*
X23153519Y42748834D01*
X23122575Y42754716D01*
X23090675Y42759291D01*
X23057816Y42762556D01*
X23024000Y42764516D01*
X22989225Y42765172D01*
X22940972Y42763966D01*
X22894744Y42760353D01*
X22850541Y42754331D01*
X22808363Y42745903D01*
X22768209Y42735063D01*
X22730084Y42721816D01*
X22693981Y42706159D01*
X22659906Y42688094D01*
X22627938Y42667663D01*
X22598156Y42644903D01*
X22570569Y42619819D01*
X22545169Y42592409D01*
X22521959Y42562669D01*
X22500938Y42530606D01*
X22482106Y42496216D01*
X22465466Y42459497D01*
X22623994Y42406947D01*
X22635538Y42433084D01*
X22648709Y42457638D01*
X22663513Y42480600D01*
X22679941Y42501975D01*
X22697997Y42521766D01*
X22717684Y42539966D01*
X22739000Y42556581D01*
X22761944Y42571606D01*
X22786253Y42584950D01*
X22811675Y42596513D01*
X22838203Y42606300D01*
X22865841Y42614303D01*
X22894588Y42620531D01*
X22924441Y42624978D01*
X22955403Y42627647D01*
X22987475Y42628538D01*
X23037288Y42626478D01*
X23084256Y42620300D01*
X23128378Y42610000D01*
X23169653Y42595584D01*
X23208081Y42577047D01*
X23243663Y42554391D01*
X23276397Y42527616D01*
X23306284Y42496722D01*
X23332972Y42462241D01*
X23356100Y42424709D01*
X23375669Y42384125D01*
X23391681Y42340491D01*
X23404134Y42293803D01*
X23413031Y42244066D01*
X23418369Y42191275D01*
X23420147Y42135431D01*
X23418294Y42080109D01*
X23412728Y42027563D01*
X23403456Y41977797D01*
X23390478Y41930809D01*
X23373788Y41886600D01*
X23353391Y41845169D01*
X23329284Y41806513D01*
X23301469Y41770638D01*
X23270491Y41738306D01*
X23236903Y41710284D01*
X23200697Y41686575D01*
X23161878Y41667178D01*
X23120447Y41652091D01*
X23076400Y41641313D01*
X23029741Y41634847D01*
X22980469Y41632691D01*
X22948566Y41633694D01*
X22917666Y41636700D01*
X22887775Y41641713D01*
X22858888Y41648728D01*
X22831009Y41657753D01*
X22804134Y41668778D01*
X22778266Y41681809D01*
X22753403Y41696847D01*
X22729547Y41713888D01*
X22706694Y41732934D01*
X22684850Y41753988D01*
X22664009Y41777044D01*
X22644178Y41802103D01*
X22625350Y41829169D01*
X22607528Y41858241D01*
X22590713Y41889316D01*
X22454078Y41821000D01*
X22474094Y41782338D01*
X22496038Y41746059D01*
X22519913Y41712159D01*
X22545716Y41680644D01*
X22573450Y41651506D01*
X22603113Y41624753D01*
X22634703Y41600378D01*
X22668225Y41578388D01*
X22703403Y41558888D01*
X22739963Y41541984D01*
X22777906Y41527684D01*
X22817231Y41515984D01*
X22857938Y41506884D01*
X22900025Y41500384D01*
X22943497Y41496484D01*
X22988350Y41495184D01*
X23034203Y41496397D01*
G37*
G36*
X22063022Y41572209D02*
X22058322Y41632500D01*
X22050488Y41693569D01*
X22039519Y41755419D01*
X22025416Y41818050D01*
X22008178Y41881459D01*
X21987809Y41945650D01*
X21964303Y42010622D01*
X21937131Y42077222D01*
X21905759Y42146297D01*
X21870184Y42217850D01*
X21830409Y42291881D01*
X21786431Y42368388D01*
X21738253Y42447372D01*
X21685872Y42528834D01*
X21629291Y42612772D01*
X22292313Y42612772D01*
X22292313Y42746778D01*
X21476891Y42746778D01*
X21476891Y42618903D01*
X21564531Y42482216D01*
X21638269Y42361181D01*
X21698100Y42255806D01*
X21744028Y42166084D01*
X21780566Y42084469D01*
X21812234Y42003397D01*
X21839031Y41922872D01*
X21860953Y41842897D01*
X21878006Y41762481D01*
X21890184Y41680644D01*
X21897494Y41597381D01*
X21899319Y41555219D01*
X21899928Y41512700D01*
X22064591Y41512700D01*
X22063022Y41572209D01*
G37*
G36*
X7119472Y33734856D02*
X7147884Y33738100D01*
X7175091Y33743503D01*
X7201091Y33751072D01*
X7225888Y33760803D01*
X7249481Y33772694D01*
X7271872Y33786750D01*
X7293056Y33802966D01*
X7312625Y33820869D01*
X7330169Y33839972D01*
X7345691Y33860281D01*
X7359181Y33881794D01*
X7370650Y33904513D01*
X7380094Y33928434D01*
X7387513Y33953559D01*
X7392903Y33979891D01*
X7396406Y33979891D01*
X7403181Y33955372D01*
X7411678Y33932184D01*
X7421903Y33910322D01*
X7433850Y33889788D01*
X7447522Y33870578D01*
X7462916Y33852700D01*
X7480038Y33836147D01*
X7498881Y33820922D01*
X7519013Y33807272D01*
X7539991Y33795441D01*
X7561819Y33785428D01*
X7584497Y33777238D01*
X7608022Y33770869D01*
X7632394Y33766319D01*
X7657616Y33763588D01*
X7683688Y33762678D01*
X7718106Y33764328D01*
X7750853Y33769275D01*
X7781934Y33777519D01*
X7811344Y33789063D01*
X7839081Y33803903D01*
X7865153Y33822044D01*
X7889553Y33843481D01*
X7912284Y33868219D01*
X7932813Y33895731D01*
X7950603Y33925503D01*
X7965656Y33957534D01*
X7977975Y33991822D01*
X7987553Y34028369D01*
X7994397Y34067175D01*
X7998503Y34108238D01*
X7999872Y34151556D01*
X7998528Y34195903D01*
X7994506Y34237856D01*
X7987800Y34277413D01*
X7978413Y34314575D01*
X7966341Y34349344D01*
X7951588Y34381716D01*
X7934153Y34411694D01*
X7914038Y34439275D01*
X7891634Y34464013D01*
X7867344Y34485450D01*
X7841163Y34503588D01*
X7813094Y34518431D01*
X7783138Y34529975D01*
X7751291Y34538219D01*
X7717559Y34543166D01*
X7681934Y34544816D01*
X7655866Y34543900D01*
X7630644Y34541147D01*
X7606269Y34536563D01*
X7582744Y34530144D01*
X7560069Y34521894D01*
X7538241Y34511806D01*
X7517259Y34499888D01*
X7497131Y34486134D01*
X7478341Y34470794D01*
X7461384Y34454109D01*
X7459900Y34452338D01*
X7446263Y34436088D01*
X7432975Y34416722D01*
X7421519Y34396016D01*
X7411897Y34373969D01*
X7404113Y34350581D01*
X7398159Y34325853D01*
X7394656Y34325853D01*
X7388872Y34354591D01*
X7381163Y34381688D01*
X7371519Y34407144D01*
X7359950Y34430953D01*
X7346450Y34453125D01*
X7331019Y34473653D01*
X7313659Y34492538D01*
X7298122Y34506428D01*
X7294369Y34509781D01*
X7273478Y34525178D01*
X7251316Y34538522D01*
X7227881Y34549809D01*
X7203172Y34559047D01*
X7177191Y34566234D01*
X7149934Y34571366D01*
X7121409Y34574444D01*
X7091609Y34575472D01*
X7050088Y34573775D01*
X7010922Y34568681D01*
X6974109Y34560197D01*
X6939650Y34548319D01*
X6907544Y34533047D01*
X6877791Y34514381D01*
X6850394Y34492319D01*
X6825350Y34466866D01*
X6802975Y34438234D01*
X6783581Y34406650D01*
X6767175Y34372109D01*
X6753747Y34334609D01*
X6743309Y34294156D01*
X6735850Y34250747D01*
X6731375Y34204381D01*
X6729884Y34155059D01*
X6731350Y34106922D01*
X6735741Y34061481D01*
X6743063Y34018734D01*
X6753309Y33978684D01*
X6766491Y33941331D01*
X6782597Y33906675D01*
X6801634Y33874713D01*
X6823597Y33845447D01*
X6848259Y33819272D01*
X6875381Y33796591D01*
X6904969Y33777397D01*
X6937022Y33761694D01*
X6971534Y33749478D01*
X7008513Y33740753D01*
X7047953Y33735519D01*
X7089856Y33733775D01*
X7119472Y33734856D01*
G37*
%LPC*%
G36*
X7072131Y33897700D02*
X7043259Y33900747D01*
X7016378Y33905828D01*
X6991488Y33912941D01*
X6968591Y33922088D01*
X6947681Y33933263D01*
X6928766Y33946475D01*
X6911841Y33961716D01*
X6896906Y33978991D01*
X6883963Y33998297D01*
X6873013Y34019634D01*
X6864050Y34043006D01*
X6857081Y34068409D01*
X6852103Y34095844D01*
X6849119Y34125313D01*
X6848122Y34156813D01*
X6849088Y34187975D01*
X6851981Y34217081D01*
X6856806Y34244138D01*
X6863559Y34269141D01*
X6872241Y34292091D01*
X6882856Y34312988D01*
X6895397Y34331831D01*
X6909869Y34348625D01*
X6926450Y34363403D01*
X6945316Y34376213D01*
X6966466Y34387053D01*
X6989900Y34395922D01*
X7015622Y34402819D01*
X7043628Y34407744D01*
X7073922Y34410700D01*
X7106500Y34411684D01*
X7134300Y34410619D01*
X7160338Y34407416D01*
X7184606Y34402078D01*
X7207113Y34394606D01*
X7227853Y34385000D01*
X7246828Y34373256D01*
X7264038Y34359381D01*
X7279481Y34343369D01*
X7293131Y34325428D01*
X7304963Y34305763D01*
X7314972Y34284372D01*
X7323163Y34261259D01*
X7329534Y34236419D01*
X7334084Y34209856D01*
X7336816Y34181569D01*
X7337725Y34151556D01*
X7336747Y34122381D01*
X7333809Y34094847D01*
X7328919Y34068953D01*
X7322069Y34044703D01*
X7313263Y34022094D01*
X7302500Y34001128D01*
X7289778Y33981806D01*
X7275100Y33964125D01*
X7258713Y33948319D01*
X7240859Y33934619D01*
X7221544Y33923028D01*
X7200763Y33913544D01*
X7178519Y33906169D01*
X7154806Y33900900D01*
X7129634Y33897738D01*
X7102997Y33896684D01*
X7072131Y33897700D01*
G37*
G36*
X7647469Y33924772D02*
X7623334Y33927584D01*
X7600775Y33932272D01*
X7579788Y33938834D01*
X7560375Y33947272D01*
X7542538Y33957581D01*
X7526272Y33969769D01*
X7511581Y33983831D01*
X7498547Y33999603D01*
X7487250Y34016922D01*
X7477691Y34035788D01*
X7469869Y34056197D01*
X7463784Y34078156D01*
X7459441Y34101659D01*
X7456834Y34126713D01*
X7455966Y34153309D01*
X7456766Y34180291D01*
X7459166Y34205613D01*
X7463169Y34229281D01*
X7468775Y34251294D01*
X7475978Y34271653D01*
X7484784Y34290353D01*
X7495194Y34307397D01*
X7507203Y34322788D01*
X7521003Y34336438D01*
X7536791Y34348269D01*
X7554559Y34358278D01*
X7574316Y34366469D01*
X7596053Y34372841D01*
X7619778Y34377391D01*
X7645484Y34380122D01*
X7673178Y34381031D01*
X7698525Y34380134D01*
X7722238Y34377447D01*
X7744316Y34372963D01*
X7764759Y34366688D01*
X7783566Y34358622D01*
X7800738Y34348763D01*
X7816272Y34337109D01*
X7830175Y34323663D01*
X7842438Y34308425D01*
X7853069Y34291394D01*
X7862063Y34272569D01*
X7869422Y34251953D01*
X7875147Y34229544D01*
X7879234Y34205341D01*
X7881688Y34179344D01*
X7882506Y34151556D01*
X7881684Y34124578D01*
X7879222Y34099253D01*
X7875116Y34075584D01*
X7869369Y34053572D01*
X7861978Y34033216D01*
X7852947Y34014513D01*
X7842272Y33997469D01*
X7829953Y33982078D01*
X7816009Y33968428D01*
X7800450Y33956597D01*
X7783275Y33946588D01*
X7764484Y33938397D01*
X7744081Y33932025D01*
X7722059Y33927475D01*
X7698425Y33924744D01*
X7673178Y33923834D01*
X7647469Y33924772D01*
G37*
%LPD*%
G36*
X7406528Y32450659D02*
X7441925Y32452528D01*
X7476322Y32455641D01*
X7509719Y32460000D01*
X7542119Y32465603D01*
X7573522Y32472453D01*
X7603922Y32480550D01*
X7633325Y32489888D01*
X7661728Y32500475D01*
X7689134Y32512306D01*
X7740947Y32539703D01*
X7788763Y32572081D01*
X7832581Y32609444D01*
X7871791Y32651209D01*
X7905772Y32696809D01*
X7920800Y32721047D01*
X7934522Y32746241D01*
X7946941Y32772394D01*
X7958047Y32799503D01*
X7967850Y32827572D01*
X7976347Y32856597D01*
X7983534Y32886581D01*
X7989416Y32917525D01*
X7993991Y32949425D01*
X7997256Y32982284D01*
X7999216Y33016100D01*
X7999872Y33050875D01*
X7998666Y33099128D01*
X7995053Y33145356D01*
X7989031Y33189559D01*
X7980603Y33231738D01*
X7969763Y33271891D01*
X7956516Y33310016D01*
X7940859Y33346119D01*
X7922794Y33380194D01*
X7902363Y33412163D01*
X7879603Y33441944D01*
X7854519Y33469531D01*
X7827109Y33494931D01*
X7797369Y33518141D01*
X7765306Y33539163D01*
X7730916Y33557994D01*
X7694197Y33574634D01*
X7641647Y33416106D01*
X7667784Y33404563D01*
X7692338Y33391391D01*
X7715300Y33376588D01*
X7736675Y33360159D01*
X7756466Y33342103D01*
X7774666Y33322416D01*
X7791281Y33301100D01*
X7806306Y33278156D01*
X7819650Y33253847D01*
X7831213Y33228425D01*
X7841000Y33201897D01*
X7849003Y33174259D01*
X7855231Y33145513D01*
X7859678Y33115659D01*
X7862347Y33084697D01*
X7863238Y33052625D01*
X7861178Y33002813D01*
X7855000Y32955844D01*
X7844700Y32911722D01*
X7830284Y32870447D01*
X7811747Y32832019D01*
X7789091Y32796438D01*
X7762316Y32763703D01*
X7731422Y32733816D01*
X7696941Y32707128D01*
X7659409Y32684000D01*
X7618825Y32664431D01*
X7575191Y32648419D01*
X7528503Y32635966D01*
X7478766Y32627069D01*
X7425975Y32621731D01*
X7370131Y32619953D01*
X7314809Y32621806D01*
X7262263Y32627372D01*
X7212497Y32636644D01*
X7165509Y32649622D01*
X7121300Y32666313D01*
X7079869Y32686709D01*
X7041213Y32710816D01*
X7005338Y32738631D01*
X6973006Y32769609D01*
X6944984Y32803197D01*
X6921275Y32839403D01*
X6901878Y32878222D01*
X6886791Y32919653D01*
X6876013Y32963700D01*
X6869547Y33010359D01*
X6867391Y33059631D01*
X6868394Y33091534D01*
X6871400Y33122434D01*
X6876413Y33152325D01*
X6883428Y33181213D01*
X6892453Y33209091D01*
X6903478Y33235966D01*
X6916509Y33261834D01*
X6931547Y33286697D01*
X6948588Y33310553D01*
X6967634Y33333406D01*
X6988688Y33355250D01*
X7011744Y33376091D01*
X7036803Y33395922D01*
X7063869Y33414750D01*
X7092941Y33432572D01*
X7124016Y33449388D01*
X7055700Y33586022D01*
X7017038Y33566006D01*
X6980759Y33544063D01*
X6946859Y33520188D01*
X6915344Y33494384D01*
X6886206Y33466650D01*
X6859453Y33436988D01*
X6835078Y33405397D01*
X6813088Y33371875D01*
X6793588Y33336697D01*
X6776684Y33300138D01*
X6762384Y33262194D01*
X6750684Y33222869D01*
X6741584Y33182163D01*
X6735084Y33140075D01*
X6731184Y33096603D01*
X6729884Y33051750D01*
X6731097Y33005897D01*
X6734728Y32961619D01*
X6740784Y32918913D01*
X6749259Y32877781D01*
X6760159Y32838225D01*
X6773481Y32800244D01*
X6789228Y32763831D01*
X6807394Y32728997D01*
X6827813Y32695959D01*
X6850313Y32664950D01*
X6874891Y32635966D01*
X6901550Y32609006D01*
X6930288Y32584072D01*
X6961106Y32561163D01*
X6994006Y32540278D01*
X7028984Y32521419D01*
X7065834Y32504691D01*
X7104338Y32490191D01*
X7144497Y32477922D01*
X7186313Y32467884D01*
X7229781Y32460075D01*
X7274909Y32454500D01*
X7321691Y32451153D01*
X7370131Y32450038D01*
X7406528Y32450659D01*
G37*
G36*
X13393578Y36887197D02*
X13437856Y36890828D01*
X13480563Y36896884D01*
X13521694Y36905359D01*
X13561250Y36916259D01*
X13599231Y36929581D01*
X13635644Y36945328D01*
X13670478Y36963494D01*
X13703516Y36983913D01*
X13734525Y37006413D01*
X13763509Y37030991D01*
X13790469Y37057650D01*
X13815403Y37086388D01*
X13838313Y37117206D01*
X13859197Y37150106D01*
X13878056Y37185084D01*
X13894784Y37221934D01*
X13909284Y37260438D01*
X13921553Y37300597D01*
X13931591Y37342413D01*
X13939400Y37385881D01*
X13944975Y37431009D01*
X13948322Y37477791D01*
X13949438Y37526231D01*
X13948816Y37562628D01*
X13946947Y37598025D01*
X13943834Y37632422D01*
X13939475Y37665819D01*
X13933872Y37698219D01*
X13927022Y37729622D01*
X13918925Y37760022D01*
X13909588Y37789425D01*
X13899000Y37817828D01*
X13887169Y37845234D01*
X13859772Y37897047D01*
X13827394Y37944863D01*
X13790031Y37988681D01*
X13748266Y38027891D01*
X13702666Y38061872D01*
X13678428Y38076900D01*
X13653234Y38090622D01*
X13627081Y38103041D01*
X13599972Y38114147D01*
X13571903Y38123950D01*
X13542878Y38132447D01*
X13512894Y38139634D01*
X13481950Y38145516D01*
X13450050Y38150091D01*
X13417191Y38153356D01*
X13383375Y38155316D01*
X13348600Y38155972D01*
X13300347Y38154766D01*
X13254119Y38151153D01*
X13209916Y38145131D01*
X13167738Y38136703D01*
X13127584Y38125863D01*
X13089459Y38112616D01*
X13053356Y38096959D01*
X13019281Y38078894D01*
X12987313Y38058463D01*
X12957531Y38035703D01*
X12929944Y38010619D01*
X12904544Y37983209D01*
X12881334Y37953469D01*
X12860313Y37921406D01*
X12841481Y37887016D01*
X12824841Y37850297D01*
X12983369Y37797747D01*
X12994913Y37823884D01*
X13008084Y37848438D01*
X13022888Y37871400D01*
X13039316Y37892775D01*
X13057372Y37912566D01*
X13077059Y37930766D01*
X13098375Y37947381D01*
X13121319Y37962406D01*
X13145628Y37975750D01*
X13171050Y37987313D01*
X13197578Y37997100D01*
X13225216Y38005103D01*
X13253963Y38011331D01*
X13283816Y38015778D01*
X13314778Y38018447D01*
X13346850Y38019338D01*
X13396663Y38017278D01*
X13443631Y38011100D01*
X13487753Y38000800D01*
X13529028Y37986384D01*
X13567456Y37967847D01*
X13603038Y37945191D01*
X13635772Y37918416D01*
X13665659Y37887522D01*
X13692347Y37853041D01*
X13715475Y37815509D01*
X13735044Y37774925D01*
X13751056Y37731291D01*
X13763509Y37684603D01*
X13772406Y37634866D01*
X13777744Y37582075D01*
X13779522Y37526231D01*
X13777669Y37470909D01*
X13772103Y37418363D01*
X13762831Y37368597D01*
X13749853Y37321609D01*
X13733163Y37277400D01*
X13712766Y37235969D01*
X13688659Y37197313D01*
X13660844Y37161438D01*
X13629866Y37129106D01*
X13596278Y37101084D01*
X13560072Y37077375D01*
X13521253Y37057978D01*
X13479822Y37042891D01*
X13435775Y37032113D01*
X13389116Y37025647D01*
X13339844Y37023491D01*
X13307941Y37024494D01*
X13277041Y37027500D01*
X13247150Y37032513D01*
X13218263Y37039528D01*
X13190384Y37048553D01*
X13163509Y37059578D01*
X13137641Y37072609D01*
X13112778Y37087647D01*
X13088922Y37104688D01*
X13066069Y37123734D01*
X13044225Y37144788D01*
X13023384Y37167844D01*
X13003553Y37192903D01*
X12984725Y37219969D01*
X12966903Y37249041D01*
X12950088Y37280116D01*
X12813453Y37211800D01*
X12833469Y37173138D01*
X12855413Y37136859D01*
X12879288Y37102959D01*
X12905091Y37071444D01*
X12932825Y37042306D01*
X12962488Y37015553D01*
X12994078Y36991178D01*
X13027600Y36969188D01*
X13062778Y36949688D01*
X13099338Y36932784D01*
X13137281Y36918484D01*
X13176606Y36906784D01*
X13217313Y36897684D01*
X13259400Y36891184D01*
X13302872Y36887284D01*
X13347725Y36885984D01*
X13393578Y36887197D01*
G37*
G36*
X12607019Y37037503D02*
X12292588Y37037503D01*
X12292588Y37986931D01*
X12571109Y37788113D01*
X12571109Y37937006D01*
X12279450Y38137578D01*
X12134056Y38137578D01*
X12134056Y37037503D01*
X11833638Y37037503D01*
X11833638Y36903500D01*
X12607019Y36903500D01*
X12607019Y37037503D01*
G37*
G36*
X14371866Y38137578D02*
X14204578Y38137578D01*
X14204578Y36903500D01*
X14371866Y36903500D01*
X14371866Y38137578D01*
G37*
G36*
X22049978Y21709375D02*
X22048459Y21759803D01*
X22043900Y21807306D01*
X22036306Y21851878D01*
X22025672Y21893522D01*
X22012000Y21932238D01*
X21995291Y21968025D01*
X21975544Y22000881D01*
X21952756Y22030813D01*
X21927206Y22057500D01*
X21899166Y22080625D01*
X21868634Y22100197D01*
X21835613Y22116209D01*
X21800100Y22128663D01*
X21762094Y22137556D01*
X21721600Y22142894D01*
X21678616Y22144672D01*
X21635944Y22142888D01*
X21595519Y22137531D01*
X21557338Y22128600D01*
X21521400Y22116100D01*
X21487706Y22100025D01*
X21456256Y22080381D01*
X21427053Y22057163D01*
X21400094Y22030375D01*
X21375872Y22000519D01*
X21354878Y21968106D01*
X21337113Y21933134D01*
X21322581Y21895603D01*
X21311275Y21855513D01*
X21303203Y21812863D01*
X21298356Y21767653D01*
X21296744Y21719884D01*
X21296744Y21357281D01*
X20815900Y21357281D01*
X20815900Y21189991D01*
X22049978Y21189991D01*
X22049978Y21709375D01*
G37*
%LPC*%
G36*
X21428997Y21357281D02*
X21428997Y21696234D01*
X21429966Y21730175D01*
X21432869Y21761925D01*
X21437709Y21791484D01*
X21444488Y21818856D01*
X21453203Y21844038D01*
X21463853Y21867028D01*
X21476441Y21887828D01*
X21490963Y21906441D01*
X21507422Y21922863D01*
X21525819Y21937097D01*
X21546153Y21949138D01*
X21568422Y21958994D01*
X21592628Y21966656D01*
X21618769Y21972131D01*
X21646847Y21975416D01*
X21676863Y21976509D01*
X21705819Y21975388D01*
X21732903Y21972022D01*
X21758122Y21966409D01*
X21781472Y21958553D01*
X21802956Y21948453D01*
X21822569Y21936109D01*
X21840316Y21921522D01*
X21856194Y21904691D01*
X21870206Y21885613D01*
X21882347Y21864291D01*
X21892622Y21840725D01*
X21901028Y21814916D01*
X21907566Y21786859D01*
X21912234Y21756559D01*
X21915038Y21724016D01*
X21915972Y21689228D01*
X21915972Y21357281D01*
X21428997Y21357281D01*
G37*
%LPD*%
G36*
X20976866Y22353503D02*
X21023584Y22379531D01*
X21067297Y22408025D01*
X21107997Y22438981D01*
X21146259Y22471578D01*
X21182663Y22504997D01*
X21217203Y22539238D01*
X21249884Y22574300D01*
X21311084Y22644916D01*
X21367688Y22714875D01*
X21421991Y22781113D01*
X21476294Y22840559D01*
X21503772Y22867247D01*
X21531909Y22891250D01*
X21560703Y22912572D01*
X21590153Y22931209D01*
X21620919Y22946347D01*
X21653653Y22957156D01*
X21688359Y22963644D01*
X21725034Y22965806D01*
X21749725Y22964875D01*
X21772988Y22962084D01*
X21794831Y22957431D01*
X21815247Y22950919D01*
X21834244Y22942541D01*
X21851816Y22932306D01*
X21867963Y22920206D01*
X21882691Y22906250D01*
X21895828Y22890634D01*
X21907213Y22873569D01*
X21916847Y22855053D01*
X21924731Y22835084D01*
X21930863Y22813669D01*
X21935241Y22790800D01*
X21937869Y22766481D01*
X21938744Y22740713D01*
X21937888Y22716084D01*
X21935322Y22692569D01*
X21931047Y22670159D01*
X21925059Y22648856D01*
X21917359Y22628666D01*
X21907953Y22609581D01*
X21896834Y22591606D01*
X21884003Y22574738D01*
X21869628Y22559266D01*
X21853869Y22545478D01*
X21836728Y22533375D01*
X21818203Y22522953D01*
X21798300Y22514216D01*
X21777013Y22507159D01*
X21754344Y22501788D01*
X21730291Y22498100D01*
X21745181Y22336944D01*
X21781241Y22342738D01*
X21815413Y22351369D01*
X21847697Y22362828D01*
X21878091Y22377122D01*
X21906597Y22394250D01*
X21933216Y22414209D01*
X21957944Y22437003D01*
X21980784Y22462628D01*
X22001313Y22490634D01*
X22019103Y22520572D01*
X22034156Y22552438D01*
X22046475Y22586234D01*
X22056053Y22621959D01*
X22062897Y22659613D01*
X22067003Y22699197D01*
X22068372Y22740713D01*
X22066994Y22786003D01*
X22062869Y22828600D01*
X22055991Y22868497D01*
X22046366Y22905700D01*
X22033988Y22940209D01*
X22018856Y22972019D01*
X22000978Y23001134D01*
X21980347Y23027553D01*
X21957184Y23051059D01*
X21931709Y23071428D01*
X21903922Y23088666D01*
X21873822Y23102769D01*
X21841406Y23113738D01*
X21806681Y23121572D01*
X21769644Y23126272D01*
X21730291Y23127841D01*
X21694434Y23125788D01*
X21658691Y23119628D01*
X21623053Y23109366D01*
X21587525Y23094997D01*
X21552053Y23076575D01*
X21516581Y23054159D01*
X21481109Y23027747D01*
X21445638Y22997338D01*
X21405294Y22957541D01*
X21355206Y22902966D01*
X21295375Y22833606D01*
X21225797Y22749472D01*
X21185647Y22701681D01*
X21147519Y22659038D01*
X21111419Y22621541D01*
X21077341Y22589191D01*
X21044578Y22561491D01*
X21012419Y22537953D01*
X20980859Y22518575D01*
X20949903Y22503356D01*
X20949903Y23147109D01*
X20815900Y23147109D01*
X20815900Y22329938D01*
X20927131Y22329938D01*
X20976866Y22353503D01*
G37*
G36*
X21149600Y20337784D02*
X21124897Y20342344D01*
X21101591Y20348131D01*
X21079681Y20355153D01*
X21059166Y20363403D01*
X21040050Y20372888D01*
X21022325Y20383603D01*
X21006000Y20395550D01*
X20991069Y20408731D01*
X20977725Y20422963D01*
X20966163Y20438072D01*
X20956378Y20454056D01*
X20948372Y20470916D01*
X20942144Y20488650D01*
X20937697Y20507263D01*
X20935028Y20526750D01*
X20934138Y20547116D01*
X20935119Y20569284D01*
X20938053Y20590250D01*
X20942944Y20610013D01*
X20949794Y20628569D01*
X20958600Y20645922D01*
X20969366Y20662072D01*
X20982084Y20677016D01*
X20996763Y20690756D01*
X21013328Y20703072D01*
X21031716Y20713747D01*
X21051922Y20722778D01*
X21073947Y20730169D01*
X21097794Y20735916D01*
X21123459Y20740022D01*
X21150947Y20742484D01*
X21180253Y20743306D01*
X21913344Y20743306D01*
X21913344Y20505950D01*
X22049978Y20505950D01*
X22049978Y20909719D01*
X21183756Y20909719D01*
X21140069Y20908200D01*
X21098772Y20903644D01*
X21059872Y20896047D01*
X21023366Y20885413D01*
X20989256Y20871741D01*
X20957541Y20855031D01*
X20928219Y20835284D01*
X20901294Y20812500D01*
X20877175Y20787072D01*
X20856269Y20759400D01*
X20838581Y20729484D01*
X20824109Y20697325D01*
X20812856Y20662919D01*
X20804816Y20626269D01*
X20799994Y20587378D01*
X20798384Y20546238D01*
X20799650Y20508041D01*
X20803447Y20471831D01*
X20809778Y20437616D01*
X20818634Y20405391D01*
X20830028Y20375156D01*
X20843953Y20346913D01*
X20860409Y20320663D01*
X20879397Y20296400D01*
X20900919Y20274131D01*
X20924969Y20253853D01*
X20951553Y20235569D01*
X20980669Y20219272D01*
X21012316Y20204966D01*
X21046494Y20192653D01*
X21083206Y20182331D01*
X21122447Y20174000D01*
X21149600Y20337784D01*
G37*
G36*
X4959478Y23088175D02*
X4957959Y23138603D01*
X4953400Y23186106D01*
X4945806Y23230678D01*
X4935172Y23272322D01*
X4921500Y23311038D01*
X4904791Y23346825D01*
X4885044Y23379681D01*
X4862256Y23409613D01*
X4836706Y23436300D01*
X4808666Y23459425D01*
X4778134Y23478997D01*
X4745113Y23495009D01*
X4709600Y23507463D01*
X4671594Y23516356D01*
X4631100Y23521694D01*
X4588116Y23523472D01*
X4545444Y23521688D01*
X4505019Y23516331D01*
X4466838Y23507400D01*
X4430900Y23494900D01*
X4397206Y23478825D01*
X4365756Y23459181D01*
X4336553Y23435963D01*
X4309594Y23409175D01*
X4285372Y23379319D01*
X4264378Y23346906D01*
X4246613Y23311934D01*
X4232081Y23274403D01*
X4220775Y23234313D01*
X4212703Y23191663D01*
X4207856Y23146453D01*
X4206244Y23098684D01*
X4206244Y22736081D01*
X3725400Y22736081D01*
X3725400Y22568791D01*
X4959478Y22568791D01*
X4959478Y23088175D01*
G37*
%LPC*%
G36*
X4338497Y22736081D02*
X4338497Y23075034D01*
X4339466Y23108975D01*
X4342369Y23140725D01*
X4347209Y23170284D01*
X4353988Y23197656D01*
X4362703Y23222838D01*
X4373353Y23245828D01*
X4385941Y23266628D01*
X4400463Y23285241D01*
X4416922Y23301663D01*
X4435319Y23315897D01*
X4455653Y23327938D01*
X4477922Y23337794D01*
X4502128Y23345456D01*
X4528269Y23350931D01*
X4556347Y23354216D01*
X4586363Y23355309D01*
X4615319Y23354188D01*
X4642403Y23350822D01*
X4667622Y23345209D01*
X4690972Y23337353D01*
X4712456Y23327253D01*
X4732069Y23314909D01*
X4749816Y23300322D01*
X4765694Y23283491D01*
X4779706Y23264413D01*
X4791847Y23243091D01*
X4802122Y23219525D01*
X4810528Y23193716D01*
X4817066Y23165659D01*
X4821734Y23135359D01*
X4824538Y23102816D01*
X4825472Y23068028D01*
X4825472Y22736081D01*
X4338497Y22736081D01*
G37*
%LPD*%
G36*
X4057347Y23849750D02*
X4030831Y23854494D01*
X4006028Y23860847D01*
X3982934Y23868809D01*
X3961550Y23878378D01*
X3941878Y23889556D01*
X3923916Y23902341D01*
X3907666Y23916734D01*
X3893125Y23932738D01*
X3880294Y23950347D01*
X3869175Y23969563D01*
X3859766Y23990388D01*
X3852069Y24012822D01*
X3846081Y24036863D01*
X3841806Y24062513D01*
X3839238Y24089772D01*
X3838384Y24118638D01*
X3839300Y24147616D01*
X3842050Y24174991D01*
X3846634Y24200769D01*
X3853053Y24224944D01*
X3861306Y24247516D01*
X3871394Y24268491D01*
X3883313Y24287863D01*
X3897066Y24305631D01*
X3912625Y24321541D01*
X3929966Y24335328D01*
X3949084Y24346994D01*
X3969981Y24356541D01*
X3992656Y24363966D01*
X4017113Y24369269D01*
X4043347Y24372450D01*
X4071363Y24373509D01*
X4095850Y24372300D01*
X4118959Y24368666D01*
X4140684Y24362609D01*
X4161028Y24354131D01*
X4179988Y24343231D01*
X4197566Y24329909D01*
X4213763Y24314163D01*
X4228578Y24295997D01*
X4241819Y24275544D01*
X4253294Y24252944D01*
X4263003Y24228194D01*
X4270947Y24201294D01*
X4277125Y24172247D01*
X4281538Y24141053D01*
X4284188Y24107709D01*
X4285069Y24072216D01*
X4285069Y23982878D01*
X4421703Y23982878D01*
X4421703Y24068713D01*
X4422584Y24100209D01*
X4425234Y24129884D01*
X4429647Y24157741D01*
X4435825Y24183778D01*
X4443769Y24207994D01*
X4453481Y24230391D01*
X4464956Y24250966D01*
X4478197Y24269722D01*
X4492997Y24286450D01*
X4509150Y24300950D01*
X4526663Y24313219D01*
X4545528Y24323259D01*
X4565747Y24331066D01*
X4587322Y24336641D01*
X4610250Y24339988D01*
X4634534Y24341103D01*
X4658628Y24340194D01*
X4681422Y24337463D01*
X4702913Y24332913D01*
X4723106Y24326544D01*
X4742000Y24318353D01*
X4759591Y24308341D01*
X4775884Y24296509D01*
X4790875Y24282859D01*
X4804322Y24267416D01*
X4815975Y24250206D01*
X4825834Y24231231D01*
X4833903Y24210491D01*
X4840175Y24187988D01*
X4844659Y24163716D01*
X4847347Y24137678D01*
X4848244Y24109878D01*
X4847409Y24084444D01*
X4844906Y24060256D01*
X4840731Y24037313D01*
X4834888Y24015613D01*
X4827375Y23995163D01*
X4818191Y23975953D01*
X4807338Y23957994D01*
X4794816Y23941275D01*
X4780775Y23926025D01*
X4765366Y23912456D01*
X4748588Y23900569D01*
X4730441Y23890366D01*
X4710925Y23881847D01*
X4690044Y23875013D01*
X4667791Y23869859D01*
X4644169Y23866391D01*
X4656431Y23707859D01*
X4693272Y23713656D01*
X4728034Y23722284D01*
X4760713Y23733747D01*
X4791313Y23748041D01*
X4819834Y23765169D01*
X4846272Y23785128D01*
X4870634Y23807919D01*
X4892913Y23833547D01*
X4912825Y23861553D01*
X4930081Y23891488D01*
X4944684Y23923356D01*
X4956631Y23957150D01*
X4965922Y23992875D01*
X4972559Y24030531D01*
X4976544Y24070116D01*
X4977872Y24111628D01*
X4976522Y24156756D01*
X4972478Y24199297D01*
X4965738Y24239250D01*
X4956303Y24276619D01*
X4944172Y24311400D01*
X4929344Y24343594D01*
X4911819Y24373203D01*
X4891600Y24400225D01*
X4868969Y24424344D01*
X4844222Y24445247D01*
X4817350Y24462938D01*
X4788356Y24477409D01*
X4757244Y24488666D01*
X4724009Y24496703D01*
X4688653Y24501528D01*
X4651178Y24503138D01*
X4622306Y24502103D01*
X4594822Y24499003D01*
X4568716Y24493838D01*
X4543994Y24486606D01*
X4520653Y24477306D01*
X4498697Y24465941D01*
X4478119Y24452509D01*
X4458928Y24437009D01*
X4441169Y24419541D01*
X4424906Y24400197D01*
X4410131Y24378978D01*
X4396850Y24355884D01*
X4385059Y24330916D01*
X4374763Y24304072D01*
X4365956Y24275353D01*
X4358641Y24244759D01*
X4355138Y24244759D01*
X4350431Y24278397D01*
X4343753Y24310119D01*
X4335103Y24339925D01*
X4324484Y24367816D01*
X4311894Y24393791D01*
X4297331Y24417850D01*
X4280800Y24439994D01*
X4262297Y24460219D01*
X4242181Y24478284D01*
X4220803Y24493941D01*
X4198169Y24507188D01*
X4174275Y24518025D01*
X4149122Y24526456D01*
X4122709Y24532478D01*
X4095038Y24536091D01*
X4066106Y24537294D01*
X4024613Y24535597D01*
X3985528Y24530506D01*
X3948850Y24522022D01*
X3914584Y24510144D01*
X3882725Y24494872D01*
X3853272Y24476203D01*
X3826231Y24454144D01*
X3801597Y24428688D01*
X3779634Y24400088D01*
X3760597Y24368584D01*
X3744491Y24334178D01*
X3731309Y24296872D01*
X3721063Y24256666D01*
X3713741Y24213556D01*
X3709350Y24167547D01*
X3707884Y24118638D01*
X3709206Y24072963D01*
X3713166Y24029656D01*
X3719769Y23988716D01*
X3729013Y23950144D01*
X3740897Y23913941D01*
X3755425Y23880103D01*
X3772591Y23848634D01*
X3792400Y23819531D01*
X3814797Y23793031D01*
X3839725Y23769363D01*
X3867184Y23748525D01*
X3897175Y23730522D01*
X3929697Y23715353D01*
X3964753Y23703016D01*
X4002341Y23693513D01*
X4042456Y23686841D01*
X4057347Y23849750D01*
G37*
G36*
X4059100Y21716584D02*
X4034397Y21721144D01*
X4011091Y21726931D01*
X3989181Y21733953D01*
X3968666Y21742203D01*
X3949550Y21751688D01*
X3931825Y21762403D01*
X3915500Y21774350D01*
X3900569Y21787531D01*
X3887225Y21801763D01*
X3875663Y21816872D01*
X3865878Y21832856D01*
X3857872Y21849716D01*
X3851644Y21867450D01*
X3847197Y21886063D01*
X3844528Y21905550D01*
X3843638Y21925916D01*
X3844619Y21948084D01*
X3847553Y21969050D01*
X3852444Y21988813D01*
X3859294Y22007369D01*
X3868100Y22024722D01*
X3878866Y22040872D01*
X3891584Y22055816D01*
X3906263Y22069556D01*
X3922828Y22081872D01*
X3941216Y22092547D01*
X3961422Y22101578D01*
X3983447Y22108969D01*
X4007294Y22114716D01*
X4032959Y22118822D01*
X4060447Y22121284D01*
X4089753Y22122106D01*
X4822844Y22122106D01*
X4822844Y21884750D01*
X4959478Y21884750D01*
X4959478Y22288519D01*
X4093256Y22288519D01*
X4049569Y22287000D01*
X4008272Y22282444D01*
X3969372Y22274847D01*
X3932866Y22264213D01*
X3898756Y22250541D01*
X3867041Y22233831D01*
X3837719Y22214084D01*
X3810794Y22191300D01*
X3786675Y22165872D01*
X3765769Y22138200D01*
X3748081Y22108284D01*
X3733609Y22076125D01*
X3722356Y22041719D01*
X3714316Y22005069D01*
X3709494Y21966178D01*
X3707884Y21925038D01*
X3709150Y21886841D01*
X3712947Y21850631D01*
X3719278Y21816416D01*
X3728134Y21784191D01*
X3739528Y21753956D01*
X3753453Y21725713D01*
X3769909Y21699463D01*
X3788897Y21675200D01*
X3810419Y21652931D01*
X3834469Y21632653D01*
X3861053Y21614369D01*
X3890169Y21598072D01*
X3921816Y21583766D01*
X3955994Y21571453D01*
X3992706Y21561131D01*
X4031947Y21552800D01*
X4059100Y21716584D01*
G37*
D10*
X10220400Y39130700D02*
X10220400Y35574700D01*
X16774400Y35574700D01*
X16774400Y39130700D01*
X10220400Y39130700D01*
D11*
X23318200Y10745800D02*
X23318200Y9475800D01*
X23953200Y8840800D01*
X25223200Y8840800D01*
X25858200Y9475800D01*
X23953200Y8840800D02*
X23318200Y8205800D01*
X23318200Y6935800D01*
X23953200Y6300800D01*
X25223200Y6300800D01*
X25858200Y6935800D01*
X25858200Y8205800D01*
X25223200Y8840800D01*
X23318200Y13285800D02*
X23953200Y13920800D01*
X23318200Y13285800D02*
X23318200Y12015800D01*
X23953200Y11380800D01*
X25223200Y11380800D01*
X25858200Y12015800D01*
X25858200Y13285800D01*
X25223200Y13920800D01*
X23953200Y11380800D02*
X23318200Y10745800D01*
X25223200Y11380800D02*
X25858200Y10745800D01*
X25858200Y9475800D01*
X23318200Y17095800D02*
X23318200Y18365800D01*
X23318200Y17095800D02*
X23953200Y16460800D01*
X25223200Y16460800D01*
X25858200Y17095800D01*
X23953200Y16460800D02*
X23318200Y15825800D01*
X23318200Y14555800D01*
X23953200Y13920800D01*
X25223200Y13920800D01*
X25858200Y14555800D01*
X25858200Y15825800D01*
X25223200Y16460800D01*
X23318200Y20905800D02*
X23953200Y21540800D01*
X23318200Y20905800D02*
X23318200Y19635800D01*
X23953200Y19000800D01*
X25223200Y19000800D01*
X25858200Y19635800D01*
X25858200Y20905800D01*
X25223200Y21540800D01*
X23953200Y19000800D02*
X23318200Y18365800D01*
X25223200Y19000800D02*
X25858200Y18365800D01*
X25858200Y17095800D01*
X23318200Y24715800D02*
X23318200Y25985800D01*
X23318200Y24715800D02*
X23953200Y24080800D01*
X25223200Y24080800D01*
X25858200Y24715800D01*
X23953200Y24080800D02*
X23318200Y23445800D01*
X23318200Y22175800D01*
X23953200Y21540800D01*
X25223200Y21540800D01*
X25858200Y22175800D01*
X25858200Y23445800D01*
X25223200Y24080800D01*
X23318200Y28525800D02*
X23953200Y29160800D01*
X23318200Y28525800D02*
X23318200Y27255800D01*
X23953200Y26620800D01*
X25223200Y26620800D01*
X25858200Y27255800D01*
X25858200Y28525800D01*
X25223200Y29160800D01*
X23953200Y26620800D02*
X23318200Y25985800D01*
X25223200Y26620800D02*
X25858200Y25985800D01*
X25858200Y24715800D01*
X23318200Y32335800D02*
X23318200Y33605800D01*
X23318200Y32335800D02*
X23953200Y31700800D01*
X25223200Y31700800D01*
X25858200Y32335800D01*
X23953200Y31700800D02*
X23318200Y31065800D01*
X23318200Y29795800D01*
X23953200Y29160800D01*
X25223200Y29160800D01*
X25858200Y29795800D01*
X25858200Y31065800D01*
X25223200Y31700800D01*
X23318200Y36145800D02*
X23953200Y36780800D01*
X23318200Y36145800D02*
X23318200Y34875800D01*
X23953200Y34240800D01*
X25223200Y34240800D01*
X25858200Y34875800D01*
X25858200Y36145800D01*
X25223200Y36780800D01*
X23953200Y34240800D02*
X23318200Y33605800D01*
X25223200Y34240800D02*
X25858200Y33605800D01*
X25858200Y32335800D01*
X23318200Y39955800D02*
X23318200Y41225800D01*
X23318200Y39955800D02*
X23953200Y39320800D01*
X25223200Y39320800D01*
X25858200Y39955800D01*
X23953200Y39320800D02*
X23318200Y38685800D01*
X23318200Y37415800D01*
X23953200Y36780800D01*
X25223200Y36780800D01*
X25858200Y37415800D01*
X25858200Y38685800D01*
X25223200Y39320800D01*
X25223200Y41860800D02*
X23953200Y41860800D01*
X23318200Y41225800D01*
X25223200Y41860800D02*
X25858200Y41225800D01*
X25858200Y39955800D01*
X23953200Y6300800D02*
X23318200Y5665800D01*
X23318200Y4395800D01*
X23953200Y3760800D01*
X25223200Y3760800D01*
X25858200Y4395800D01*
X25858200Y5665800D01*
X25223200Y6300800D01*
X584200Y9474200D02*
X584200Y10744200D01*
X584200Y9474200D02*
X1219200Y8839200D01*
X2489200Y8839200D01*
X3124200Y9474200D01*
X1219200Y8839200D02*
X584200Y8204200D01*
X584200Y6934200D01*
X1219200Y6299200D01*
X2489200Y6299200D01*
X3124200Y6934200D01*
X3124200Y8204200D01*
X2489200Y8839200D01*
X584200Y13284200D02*
X1219200Y13919200D01*
X584200Y13284200D02*
X584200Y12014200D01*
X1219200Y11379200D01*
X2489200Y11379200D01*
X3124200Y12014200D01*
X3124200Y13284200D01*
X2489200Y13919200D01*
X1219200Y11379200D02*
X584200Y10744200D01*
X2489200Y11379200D02*
X3124200Y10744200D01*
X3124200Y9474200D01*
X584200Y17094200D02*
X584200Y18364200D01*
X584200Y17094200D02*
X1219200Y16459200D01*
X2489200Y16459200D01*
X3124200Y17094200D01*
X1219200Y16459200D02*
X584200Y15824200D01*
X584200Y14554200D01*
X1219200Y13919200D01*
X2489200Y13919200D01*
X3124200Y14554200D01*
X3124200Y15824200D01*
X2489200Y16459200D01*
X584200Y20904200D02*
X1219200Y21539200D01*
X584200Y20904200D02*
X584200Y19634200D01*
X1219200Y18999200D01*
X2489200Y18999200D01*
X3124200Y19634200D01*
X3124200Y20904200D01*
X2489200Y21539200D01*
X1219200Y18999200D02*
X584200Y18364200D01*
X2489200Y18999200D02*
X3124200Y18364200D01*
X3124200Y17094200D01*
X584200Y24714200D02*
X584200Y25984200D01*
X584200Y24714200D02*
X1219200Y24079200D01*
X2489200Y24079200D01*
X3124200Y24714200D01*
X1219200Y24079200D02*
X584200Y23444200D01*
X584200Y22174200D01*
X1219200Y21539200D01*
X2489200Y21539200D01*
X3124200Y22174200D01*
X3124200Y23444200D01*
X2489200Y24079200D01*
X584200Y28524200D02*
X1219200Y29159200D01*
X584200Y28524200D02*
X584200Y27254200D01*
X1219200Y26619200D01*
X2489200Y26619200D01*
X3124200Y27254200D01*
X3124200Y28524200D01*
X2489200Y29159200D01*
X1219200Y26619200D02*
X584200Y25984200D01*
X2489200Y26619200D02*
X3124200Y25984200D01*
X3124200Y24714200D01*
X584200Y32334200D02*
X584200Y33604200D01*
X584200Y32334200D02*
X1219200Y31699200D01*
X2489200Y31699200D01*
X3124200Y32334200D01*
X1219200Y31699200D02*
X584200Y31064200D01*
X584200Y29794200D01*
X1219200Y29159200D01*
X2489200Y29159200D01*
X3124200Y29794200D01*
X3124200Y31064200D01*
X2489200Y31699200D01*
X584200Y36144200D02*
X1219200Y36779200D01*
X584200Y36144200D02*
X584200Y34874200D01*
X1219200Y34239200D01*
X2489200Y34239200D01*
X3124200Y34874200D01*
X3124200Y36144200D01*
X2489200Y36779200D01*
X1219200Y34239200D02*
X584200Y33604200D01*
X2489200Y34239200D02*
X3124200Y33604200D01*
X3124200Y32334200D01*
X584200Y39954200D02*
X584200Y41224200D01*
X584200Y39954200D02*
X1219200Y39319200D01*
X2489200Y39319200D01*
X3124200Y39954200D01*
X1219200Y39319200D02*
X584200Y38684200D01*
X584200Y37414200D01*
X1219200Y36779200D01*
X2489200Y36779200D01*
X3124200Y37414200D01*
X3124200Y38684200D01*
X2489200Y39319200D01*
X2489200Y41859200D02*
X1219200Y41859200D01*
X584200Y41224200D01*
X2489200Y41859200D02*
X3124200Y41224200D01*
X3124200Y39954200D01*
X1219200Y6299200D02*
X584200Y5664200D01*
X584200Y4394200D01*
X1219200Y3759200D01*
X2489200Y3759200D01*
X3124200Y4394200D01*
X3124200Y5664200D01*
X2489200Y6299200D01*
M02*
