G04 EAGLE Gerber X2 export*
%TF.Part,Single*%
%TF.FileFunction,Legend,Top,1*%
%TF.FilePolarity,Positive*%
%TF.GenerationSoftware,Autodesk,EAGLE,9.7.0*%
%TF.CreationDate,2022-05-09T14:20:26Z*%
G75*
%MOMM*%
%FSLAX46Y46*%
%LPD*%
%INSilkscreen Top*%
%AMOC8*
5,1,8,0,0,1.08239X$1,22.5*%
G01*
G04 Define Apertures*
%ADD10C,0.152400*%
%ADD11C,0.762000*%
%ADD12R,0.762000X0.508000*%
%ADD13R,0.762000X1.016000*%
%ADD14R,0.300000X0.150000*%
%ADD15R,0.300000X0.300000*%
%ADD16R,0.150000X0.300000*%
%ADD17C,0.254000*%
%ADD18C,0.127000*%
%ADD19C,0.508000*%
%ADD20C,0.200000*%
%ADD21C,0.447213*%
%ADD22C,0.203200*%
G36*
X20133109Y5521153D02*
X20179891Y5524500D01*
X20225019Y5530075D01*
X20268488Y5537884D01*
X20310303Y5547922D01*
X20350463Y5560191D01*
X20388966Y5574691D01*
X20425816Y5591419D01*
X20460794Y5610278D01*
X20493694Y5631163D01*
X20524513Y5654072D01*
X20553250Y5679006D01*
X20579909Y5705966D01*
X20604488Y5734950D01*
X20626988Y5765959D01*
X20647406Y5798997D01*
X20665572Y5833831D01*
X20681319Y5870244D01*
X20694641Y5908225D01*
X20705541Y5947781D01*
X20714016Y5988913D01*
X20720072Y6031619D01*
X20723703Y6075897D01*
X20724916Y6121750D01*
X20723616Y6166603D01*
X20719716Y6210075D01*
X20713216Y6252163D01*
X20704116Y6292869D01*
X20692416Y6332194D01*
X20678116Y6370138D01*
X20661213Y6406697D01*
X20641713Y6441875D01*
X20619722Y6475397D01*
X20595347Y6506988D01*
X20568594Y6536650D01*
X20539456Y6564384D01*
X20507941Y6590188D01*
X20474041Y6614063D01*
X20437763Y6636006D01*
X20399100Y6656022D01*
X20330784Y6519388D01*
X20361859Y6502572D01*
X20390931Y6484750D01*
X20417997Y6465922D01*
X20443056Y6446091D01*
X20466113Y6425250D01*
X20487166Y6403406D01*
X20506213Y6380553D01*
X20523253Y6356697D01*
X20538291Y6331834D01*
X20551322Y6305966D01*
X20562347Y6279091D01*
X20571372Y6251213D01*
X20578388Y6222325D01*
X20583400Y6192434D01*
X20586406Y6161534D01*
X20587409Y6129631D01*
X20585253Y6080359D01*
X20578788Y6033700D01*
X20568009Y5989653D01*
X20552922Y5948222D01*
X20533525Y5909403D01*
X20509816Y5873197D01*
X20481794Y5839609D01*
X20449463Y5808631D01*
X20413588Y5780816D01*
X20374931Y5756709D01*
X20333500Y5736313D01*
X20289291Y5719622D01*
X20242303Y5706644D01*
X20192538Y5697372D01*
X20139991Y5691806D01*
X20084669Y5689953D01*
X20028825Y5691731D01*
X19976034Y5697069D01*
X19926297Y5705966D01*
X19879609Y5718419D01*
X19835975Y5734431D01*
X19795391Y5754000D01*
X19757859Y5777128D01*
X19723378Y5803816D01*
X19692484Y5833703D01*
X19665709Y5866438D01*
X19643053Y5902019D01*
X19624516Y5940447D01*
X19610100Y5981722D01*
X19599800Y6025844D01*
X19593622Y6072813D01*
X19591563Y6122625D01*
X19592453Y6154697D01*
X19595122Y6185659D01*
X19599569Y6215513D01*
X19605797Y6244259D01*
X19613800Y6271897D01*
X19623588Y6298425D01*
X19635150Y6323847D01*
X19648494Y6348156D01*
X19663519Y6371100D01*
X19680134Y6392416D01*
X19698334Y6412103D01*
X19718125Y6430159D01*
X19739500Y6446588D01*
X19762463Y6461391D01*
X19787016Y6474563D01*
X19813153Y6486106D01*
X19760603Y6644634D01*
X19723884Y6627994D01*
X19689494Y6609163D01*
X19657431Y6588141D01*
X19627691Y6564931D01*
X19600281Y6539531D01*
X19575197Y6511944D01*
X19552438Y6482163D01*
X19532006Y6450194D01*
X19513941Y6416119D01*
X19498284Y6380016D01*
X19485038Y6341891D01*
X19474197Y6301738D01*
X19465769Y6259559D01*
X19459747Y6215356D01*
X19456134Y6169128D01*
X19454928Y6120875D01*
X19455584Y6086100D01*
X19457544Y6052284D01*
X19460809Y6019425D01*
X19465384Y5987525D01*
X19471266Y5956581D01*
X19478453Y5926597D01*
X19486950Y5897572D01*
X19496753Y5869503D01*
X19507859Y5842394D01*
X19520278Y5816241D01*
X19534000Y5791047D01*
X19549028Y5766809D01*
X19583009Y5721209D01*
X19622219Y5679444D01*
X19666038Y5642081D01*
X19713853Y5609703D01*
X19765666Y5582306D01*
X19793072Y5570475D01*
X19821475Y5559888D01*
X19850878Y5550550D01*
X19881278Y5542453D01*
X19912681Y5535603D01*
X19945081Y5530000D01*
X19978478Y5525641D01*
X20012875Y5522528D01*
X20048272Y5520659D01*
X20084669Y5520038D01*
X20133109Y5521153D01*
G37*
G36*
X20707400Y7635838D02*
X20573397Y7635838D01*
X20573397Y7335419D01*
X19473322Y7335419D01*
X19473322Y7190025D01*
X19673894Y6898366D01*
X19822788Y6898366D01*
X19623969Y7176888D01*
X20573397Y7176888D01*
X20573397Y6862456D01*
X20707400Y6862456D01*
X20707400Y7635838D01*
G37*
G36*
X16953331Y11295822D02*
X16978719Y11297731D01*
X17003297Y11300913D01*
X17027063Y11305366D01*
X17072163Y11318091D01*
X17114019Y11335909D01*
X17152631Y11358819D01*
X17188000Y11386819D01*
X17220128Y11419909D01*
X17249009Y11458091D01*
X17274566Y11501103D01*
X17296716Y11548688D01*
X17315459Y11600841D01*
X17330794Y11657566D01*
X17342719Y11718863D01*
X17351238Y11784728D01*
X17356350Y11855166D01*
X17358053Y11930175D01*
X17356431Y12006375D01*
X17351566Y12077756D01*
X17343459Y12144322D01*
X17332106Y12206069D01*
X17317509Y12263000D01*
X17299672Y12315113D01*
X17278591Y12362409D01*
X17254266Y12404888D01*
X17226531Y12442456D01*
X17195225Y12475013D01*
X17160350Y12502559D01*
X17121900Y12525100D01*
X17079881Y12542631D01*
X17057531Y12549519D01*
X17034288Y12555153D01*
X17010153Y12559534D01*
X16985125Y12562666D01*
X16959203Y12564544D01*
X16932388Y12565172D01*
X16904831Y12564550D01*
X16878216Y12562694D01*
X16852541Y12559597D01*
X16827806Y12555263D01*
X16804013Y12549688D01*
X16781159Y12542878D01*
X16738278Y12525538D01*
X16699156Y12503244D01*
X16663803Y12475997D01*
X16632209Y12443797D01*
X16604381Y12406641D01*
X16580056Y12364519D01*
X16558972Y12317413D01*
X16541134Y12265328D01*
X16526538Y12208259D01*
X16515188Y12146209D01*
X16507078Y12079181D01*
X16502213Y12007169D01*
X16500591Y11930175D01*
X16502263Y11854769D01*
X16507269Y11784019D01*
X16515619Y11717919D01*
X16527306Y11656472D01*
X16542331Y11599678D01*
X16560697Y11547538D01*
X16582403Y11500050D01*
X16607447Y11457216D01*
X16635816Y11419238D01*
X16667497Y11386325D01*
X16702491Y11358475D01*
X16740794Y11335691D01*
X16782413Y11317969D01*
X16827341Y11305313D01*
X16851047Y11300881D01*
X16875581Y11297716D01*
X16900944Y11295819D01*
X16927134Y11295184D01*
X16953331Y11295822D01*
G37*
%LPC*%
G36*
X16895034Y11425834D02*
X16863550Y11431541D01*
X16834438Y11441053D01*
X16807688Y11454369D01*
X16783309Y11471488D01*
X16761297Y11492413D01*
X16741650Y11517141D01*
X16724372Y11545675D01*
X16709284Y11578316D01*
X16696209Y11615359D01*
X16685144Y11656813D01*
X16676091Y11702672D01*
X16669050Y11752938D01*
X16664022Y11807613D01*
X16661003Y11866691D01*
X16659997Y11930175D01*
X16660991Y11995453D01*
X16663966Y12055972D01*
X16668928Y12111725D01*
X16675872Y12162716D01*
X16684803Y12208944D01*
X16695716Y12250409D01*
X16708616Y12287113D01*
X16723497Y12319056D01*
X16740650Y12346769D01*
X16760366Y12370784D01*
X16782638Y12391109D01*
X16807469Y12407734D01*
X16834859Y12420669D01*
X16864809Y12429906D01*
X16897319Y12435447D01*
X16932388Y12437297D01*
X16966609Y12435422D01*
X16998325Y12429797D01*
X17027534Y12420422D01*
X17054241Y12407297D01*
X17078444Y12390425D01*
X17100141Y12369800D01*
X17119334Y12345428D01*
X17136025Y12317303D01*
X17150497Y12285006D01*
X17163038Y12248113D01*
X17173653Y12206619D01*
X17182334Y12160525D01*
X17189088Y12109834D01*
X17193913Y12054547D01*
X17196806Y11994659D01*
X17197772Y11930175D01*
X17196759Y11867881D01*
X17193722Y11809747D01*
X17188656Y11755772D01*
X17181569Y11705956D01*
X17172453Y11660303D01*
X17161316Y11618809D01*
X17148150Y11581475D01*
X17132959Y11548303D01*
X17115594Y11519153D01*
X17095900Y11493891D01*
X17073878Y11472516D01*
X17049534Y11455025D01*
X17022863Y11441422D01*
X16993863Y11431706D01*
X16962538Y11425875D01*
X16928884Y11423931D01*
X16895034Y11425834D01*
G37*
%LPD*%
G36*
X14874428Y11296484D02*
X14917900Y11300384D01*
X14959988Y11306884D01*
X15000694Y11315984D01*
X15040019Y11327684D01*
X15077963Y11341984D01*
X15114522Y11358888D01*
X15149700Y11378388D01*
X15183222Y11400378D01*
X15214813Y11424753D01*
X15244475Y11451506D01*
X15272209Y11480644D01*
X15298013Y11512159D01*
X15321888Y11546059D01*
X15343831Y11582338D01*
X15363847Y11621000D01*
X15227213Y11689316D01*
X15210397Y11658241D01*
X15192575Y11629169D01*
X15173747Y11602103D01*
X15153916Y11577044D01*
X15133075Y11553988D01*
X15111231Y11532934D01*
X15088378Y11513888D01*
X15064522Y11496847D01*
X15039659Y11481809D01*
X15013791Y11468778D01*
X14986916Y11457753D01*
X14959038Y11448728D01*
X14930150Y11441713D01*
X14900259Y11436700D01*
X14869359Y11433694D01*
X14837456Y11432691D01*
X14788184Y11434847D01*
X14741525Y11441313D01*
X14697478Y11452091D01*
X14656047Y11467178D01*
X14617228Y11486575D01*
X14581022Y11510284D01*
X14547434Y11538306D01*
X14516456Y11570638D01*
X14488641Y11606513D01*
X14464534Y11645169D01*
X14444138Y11686600D01*
X14427447Y11730809D01*
X14414469Y11777797D01*
X14405197Y11827563D01*
X14399631Y11880109D01*
X14397778Y11935431D01*
X14399556Y11991275D01*
X14404894Y12044066D01*
X14413791Y12093803D01*
X14426244Y12140491D01*
X14442256Y12184125D01*
X14461825Y12224709D01*
X14484953Y12262241D01*
X14511641Y12296722D01*
X14541528Y12327616D01*
X14574263Y12354391D01*
X14609844Y12377047D01*
X14648272Y12395584D01*
X14689547Y12410000D01*
X14733669Y12420300D01*
X14780638Y12426478D01*
X14830450Y12428538D01*
X14862522Y12427647D01*
X14893484Y12424978D01*
X14923338Y12420531D01*
X14952084Y12414303D01*
X14979722Y12406300D01*
X15006250Y12396513D01*
X15031672Y12384950D01*
X15055981Y12371606D01*
X15078925Y12356581D01*
X15100241Y12339966D01*
X15119928Y12321766D01*
X15137984Y12301975D01*
X15154413Y12280600D01*
X15169216Y12257638D01*
X15182388Y12233084D01*
X15193931Y12206947D01*
X15352459Y12259497D01*
X15335819Y12296216D01*
X15316988Y12330606D01*
X15295966Y12362669D01*
X15272756Y12392409D01*
X15247356Y12419819D01*
X15219769Y12444903D01*
X15189988Y12467663D01*
X15158019Y12488094D01*
X15123944Y12506159D01*
X15087841Y12521816D01*
X15049716Y12535063D01*
X15009563Y12545903D01*
X14967384Y12554331D01*
X14923181Y12560353D01*
X14876953Y12563966D01*
X14828700Y12565172D01*
X14793925Y12564516D01*
X14760109Y12562556D01*
X14727250Y12559291D01*
X14695350Y12554716D01*
X14664406Y12548834D01*
X14634422Y12541647D01*
X14605397Y12533150D01*
X14577328Y12523347D01*
X14550219Y12512241D01*
X14524066Y12499822D01*
X14498872Y12486100D01*
X14474634Y12471072D01*
X14429034Y12437091D01*
X14387269Y12397881D01*
X14349906Y12354063D01*
X14317528Y12306247D01*
X14290131Y12254434D01*
X14278300Y12227028D01*
X14267713Y12198625D01*
X14258375Y12169222D01*
X14250278Y12138822D01*
X14243428Y12107419D01*
X14237825Y12075019D01*
X14233466Y12041622D01*
X14230353Y12007225D01*
X14228484Y11971828D01*
X14227863Y11935431D01*
X14228978Y11886991D01*
X14232325Y11840209D01*
X14237900Y11795081D01*
X14245709Y11751613D01*
X14255747Y11709797D01*
X14268016Y11669638D01*
X14282516Y11631134D01*
X14299244Y11594284D01*
X14318103Y11559306D01*
X14338988Y11526406D01*
X14361897Y11495588D01*
X14386831Y11466850D01*
X14413791Y11440191D01*
X14442775Y11415613D01*
X14473784Y11393113D01*
X14506822Y11372694D01*
X14541656Y11354528D01*
X14578069Y11338781D01*
X14616050Y11325459D01*
X14655606Y11314559D01*
X14696738Y11306084D01*
X14739444Y11300028D01*
X14783722Y11296397D01*
X14829575Y11295184D01*
X14874428Y11296484D01*
G37*
G36*
X16343663Y11446703D02*
X16043244Y11446703D01*
X16043244Y12546778D01*
X15897850Y12546778D01*
X15606191Y12346206D01*
X15606191Y12197313D01*
X15884713Y12396131D01*
X15884713Y11446703D01*
X15570281Y11446703D01*
X15570281Y11312700D01*
X16343663Y11312700D01*
X16343663Y11446703D01*
G37*
G36*
X8903109Y15231153D02*
X8949891Y15234500D01*
X8995019Y15240075D01*
X9038488Y15247884D01*
X9080303Y15257922D01*
X9120463Y15270191D01*
X9158966Y15284691D01*
X9195816Y15301419D01*
X9230794Y15320278D01*
X9263694Y15341163D01*
X9294513Y15364072D01*
X9323250Y15389006D01*
X9349909Y15415966D01*
X9374488Y15444950D01*
X9396988Y15475959D01*
X9417406Y15508997D01*
X9435572Y15543831D01*
X9451319Y15580244D01*
X9464641Y15618225D01*
X9475541Y15657781D01*
X9484016Y15698913D01*
X9490072Y15741619D01*
X9493703Y15785897D01*
X9494916Y15831750D01*
X9493616Y15876603D01*
X9489716Y15920075D01*
X9483216Y15962163D01*
X9474116Y16002869D01*
X9462416Y16042194D01*
X9448116Y16080138D01*
X9431213Y16116697D01*
X9411713Y16151875D01*
X9389722Y16185397D01*
X9365347Y16216988D01*
X9338594Y16246650D01*
X9309456Y16274384D01*
X9277941Y16300188D01*
X9244041Y16324063D01*
X9207763Y16346006D01*
X9169100Y16366022D01*
X9100784Y16229388D01*
X9131859Y16212572D01*
X9160931Y16194750D01*
X9187997Y16175922D01*
X9213056Y16156091D01*
X9236113Y16135250D01*
X9257166Y16113406D01*
X9276213Y16090553D01*
X9293253Y16066697D01*
X9308291Y16041834D01*
X9321322Y16015966D01*
X9332347Y15989091D01*
X9341372Y15961213D01*
X9348388Y15932325D01*
X9353400Y15902434D01*
X9356406Y15871534D01*
X9357409Y15839631D01*
X9355253Y15790359D01*
X9348788Y15743700D01*
X9338009Y15699653D01*
X9322922Y15658222D01*
X9303525Y15619403D01*
X9279816Y15583197D01*
X9251794Y15549609D01*
X9219463Y15518631D01*
X9183588Y15490816D01*
X9144931Y15466709D01*
X9103500Y15446313D01*
X9059291Y15429622D01*
X9012303Y15416644D01*
X8962538Y15407372D01*
X8909991Y15401806D01*
X8854669Y15399953D01*
X8798825Y15401731D01*
X8746034Y15407069D01*
X8696297Y15415966D01*
X8649609Y15428419D01*
X8605975Y15444431D01*
X8565391Y15464000D01*
X8527859Y15487128D01*
X8493378Y15513816D01*
X8462484Y15543703D01*
X8435709Y15576438D01*
X8413053Y15612019D01*
X8394516Y15650447D01*
X8380100Y15691722D01*
X8369800Y15735844D01*
X8363622Y15782813D01*
X8361563Y15832625D01*
X8362453Y15864697D01*
X8365122Y15895659D01*
X8369569Y15925513D01*
X8375797Y15954259D01*
X8383800Y15981897D01*
X8393588Y16008425D01*
X8405150Y16033847D01*
X8418494Y16058156D01*
X8433519Y16081100D01*
X8450134Y16102416D01*
X8468334Y16122103D01*
X8488125Y16140159D01*
X8509500Y16156588D01*
X8532463Y16171391D01*
X8557016Y16184563D01*
X8583153Y16196106D01*
X8530603Y16354634D01*
X8493884Y16337994D01*
X8459494Y16319163D01*
X8427431Y16298141D01*
X8397691Y16274931D01*
X8370281Y16249531D01*
X8345197Y16221944D01*
X8322438Y16192163D01*
X8302006Y16160194D01*
X8283941Y16126119D01*
X8268284Y16090016D01*
X8255038Y16051891D01*
X8244197Y16011738D01*
X8235769Y15969559D01*
X8229747Y15925356D01*
X8226134Y15879128D01*
X8224928Y15830875D01*
X8225584Y15796100D01*
X8227544Y15762284D01*
X8230809Y15729425D01*
X8235384Y15697525D01*
X8241266Y15666581D01*
X8248453Y15636597D01*
X8256950Y15607572D01*
X8266753Y15579503D01*
X8277859Y15552394D01*
X8290278Y15526241D01*
X8304000Y15501047D01*
X8319028Y15476809D01*
X8353009Y15431209D01*
X8392219Y15389444D01*
X8436038Y15352081D01*
X8483853Y15319703D01*
X8535666Y15292306D01*
X8563072Y15280475D01*
X8591475Y15269888D01*
X8620878Y15260550D01*
X8651278Y15252453D01*
X8682681Y15245603D01*
X8715081Y15240000D01*
X8748478Y15235641D01*
X8782875Y15232528D01*
X8818272Y15230659D01*
X8854669Y15230038D01*
X8903109Y15231153D01*
G37*
G36*
X9477400Y17343209D02*
X9343397Y17343209D01*
X9343397Y16699456D01*
X9312441Y16714675D01*
X9280881Y16734053D01*
X9248722Y16757591D01*
X9215959Y16785291D01*
X9181881Y16817641D01*
X9145781Y16855138D01*
X9107653Y16897781D01*
X9067503Y16945572D01*
X8997925Y17029706D01*
X8938094Y17099066D01*
X8888006Y17153641D01*
X8847663Y17193438D01*
X8812191Y17223847D01*
X8776719Y17250259D01*
X8741247Y17272675D01*
X8705775Y17291097D01*
X8670247Y17305466D01*
X8634609Y17315728D01*
X8598866Y17321888D01*
X8563009Y17323941D01*
X8523656Y17322372D01*
X8486619Y17317672D01*
X8451894Y17309838D01*
X8419478Y17298869D01*
X8389378Y17284766D01*
X8361591Y17267528D01*
X8336116Y17247159D01*
X8312953Y17223653D01*
X8292322Y17197234D01*
X8274444Y17168119D01*
X8259313Y17136309D01*
X8246934Y17101800D01*
X8237309Y17064597D01*
X8230431Y17024700D01*
X8226306Y16982103D01*
X8224928Y16936813D01*
X8226297Y16895297D01*
X8230403Y16855713D01*
X8237247Y16818059D01*
X8246825Y16782334D01*
X8259144Y16748538D01*
X8274197Y16716672D01*
X8291988Y16686734D01*
X8312516Y16658728D01*
X8335356Y16633103D01*
X8360084Y16610309D01*
X8386703Y16590350D01*
X8415209Y16573222D01*
X8445603Y16558928D01*
X8477888Y16547469D01*
X8512059Y16538838D01*
X8548119Y16533044D01*
X8563009Y16694200D01*
X8538956Y16697888D01*
X8516288Y16703259D01*
X8495000Y16710316D01*
X8475097Y16719053D01*
X8456572Y16729475D01*
X8439431Y16741578D01*
X8423672Y16755366D01*
X8409297Y16770838D01*
X8396466Y16787706D01*
X8385347Y16805681D01*
X8375941Y16824766D01*
X8368241Y16844956D01*
X8362253Y16866259D01*
X8357978Y16888669D01*
X8355413Y16912184D01*
X8354556Y16936813D01*
X8355431Y16962581D01*
X8358059Y16986900D01*
X8362438Y17009769D01*
X8368569Y17031184D01*
X8376453Y17051153D01*
X8386088Y17069669D01*
X8397472Y17086734D01*
X8410609Y17102350D01*
X8425338Y17116306D01*
X8441484Y17128406D01*
X8459056Y17138641D01*
X8478053Y17147019D01*
X8498469Y17153531D01*
X8520313Y17158184D01*
X8543575Y17160975D01*
X8568266Y17161906D01*
X8604941Y17159744D01*
X8639647Y17153256D01*
X8672381Y17142447D01*
X8703147Y17127309D01*
X8732597Y17108672D01*
X8761391Y17087350D01*
X8789528Y17063347D01*
X8817006Y17036659D01*
X8871309Y16977213D01*
X8925613Y16910975D01*
X8982216Y16841016D01*
X9043416Y16770400D01*
X9076097Y16735338D01*
X9110638Y16701097D01*
X9147041Y16667678D01*
X9185303Y16635081D01*
X9226003Y16604125D01*
X9269716Y16575631D01*
X9316434Y16549603D01*
X9366169Y16526038D01*
X9477400Y16526038D01*
X9477400Y17343209D01*
G37*
G36*
X11283109Y14864903D02*
X11329891Y14868250D01*
X11375019Y14873825D01*
X11418488Y14881634D01*
X11460303Y14891672D01*
X11500463Y14903941D01*
X11538966Y14918441D01*
X11575816Y14935169D01*
X11610794Y14954028D01*
X11643694Y14974913D01*
X11674513Y14997822D01*
X11703250Y15022756D01*
X11729909Y15049716D01*
X11754488Y15078700D01*
X11776988Y15109709D01*
X11797406Y15142747D01*
X11815572Y15177581D01*
X11831319Y15213994D01*
X11844641Y15251975D01*
X11855541Y15291531D01*
X11864016Y15332663D01*
X11870072Y15375369D01*
X11873703Y15419647D01*
X11874916Y15465500D01*
X11873616Y15510353D01*
X11869716Y15553825D01*
X11863216Y15595913D01*
X11854116Y15636619D01*
X11842416Y15675944D01*
X11828116Y15713888D01*
X11811213Y15750447D01*
X11791713Y15785625D01*
X11769722Y15819147D01*
X11745347Y15850738D01*
X11718594Y15880400D01*
X11689456Y15908134D01*
X11657941Y15933938D01*
X11624041Y15957813D01*
X11587763Y15979756D01*
X11549100Y15999772D01*
X11480784Y15863138D01*
X11511859Y15846322D01*
X11540931Y15828500D01*
X11567997Y15809672D01*
X11593056Y15789841D01*
X11616113Y15769000D01*
X11637166Y15747156D01*
X11656213Y15724303D01*
X11673253Y15700447D01*
X11688291Y15675584D01*
X11701322Y15649716D01*
X11712347Y15622841D01*
X11721372Y15594963D01*
X11728388Y15566075D01*
X11733400Y15536184D01*
X11736406Y15505284D01*
X11737409Y15473381D01*
X11735253Y15424109D01*
X11728788Y15377450D01*
X11718009Y15333403D01*
X11702922Y15291972D01*
X11683525Y15253153D01*
X11659816Y15216947D01*
X11631794Y15183359D01*
X11599463Y15152381D01*
X11563588Y15124566D01*
X11524931Y15100459D01*
X11483500Y15080063D01*
X11439291Y15063372D01*
X11392303Y15050394D01*
X11342538Y15041122D01*
X11289991Y15035556D01*
X11234669Y15033703D01*
X11178825Y15035481D01*
X11126034Y15040819D01*
X11076297Y15049716D01*
X11029609Y15062169D01*
X10985975Y15078181D01*
X10945391Y15097750D01*
X10907859Y15120878D01*
X10873378Y15147566D01*
X10842484Y15177453D01*
X10815709Y15210188D01*
X10793053Y15245769D01*
X10774516Y15284197D01*
X10760100Y15325472D01*
X10749800Y15369594D01*
X10743622Y15416563D01*
X10741563Y15466375D01*
X10742453Y15498447D01*
X10745122Y15529409D01*
X10749569Y15559263D01*
X10755797Y15588009D01*
X10763800Y15615647D01*
X10773588Y15642175D01*
X10785150Y15667597D01*
X10798494Y15691906D01*
X10813519Y15714850D01*
X10830134Y15736166D01*
X10848334Y15755853D01*
X10868125Y15773909D01*
X10889500Y15790338D01*
X10912463Y15805141D01*
X10937016Y15818313D01*
X10963153Y15829856D01*
X10910603Y15988384D01*
X10873884Y15971744D01*
X10839494Y15952913D01*
X10807431Y15931891D01*
X10777691Y15908681D01*
X10750281Y15883281D01*
X10725197Y15855694D01*
X10702438Y15825913D01*
X10682006Y15793944D01*
X10663941Y15759869D01*
X10648284Y15723766D01*
X10635038Y15685641D01*
X10624197Y15645488D01*
X10615769Y15603309D01*
X10609747Y15559106D01*
X10606134Y15512878D01*
X10604928Y15464625D01*
X10605584Y15429850D01*
X10607544Y15396034D01*
X10610809Y15363175D01*
X10615384Y15331275D01*
X10621266Y15300331D01*
X10628453Y15270347D01*
X10636950Y15241322D01*
X10646753Y15213253D01*
X10657859Y15186144D01*
X10670278Y15159991D01*
X10684000Y15134797D01*
X10699028Y15110559D01*
X10733009Y15064959D01*
X10772219Y15023194D01*
X10816038Y14985831D01*
X10863853Y14953453D01*
X10915666Y14926056D01*
X10943072Y14914225D01*
X10971475Y14903638D01*
X11000878Y14894300D01*
X11031278Y14886203D01*
X11062681Y14879353D01*
X11095081Y14873750D01*
X11128478Y14869391D01*
X11162875Y14866278D01*
X11198272Y14864409D01*
X11234669Y14863788D01*
X11283109Y14864903D01*
G37*
G36*
X11580459Y16144563D02*
X11618047Y16154066D01*
X11653103Y16166403D01*
X11685625Y16181572D01*
X11715616Y16199575D01*
X11743075Y16220413D01*
X11768003Y16244081D01*
X11790400Y16270581D01*
X11810209Y16299684D01*
X11827375Y16331153D01*
X11841903Y16364991D01*
X11853788Y16401194D01*
X11863031Y16439766D01*
X11869634Y16480706D01*
X11873594Y16524013D01*
X11874916Y16569688D01*
X11873450Y16618597D01*
X11869059Y16664606D01*
X11861738Y16707716D01*
X11851491Y16747922D01*
X11838309Y16785228D01*
X11822203Y16819634D01*
X11803166Y16851138D01*
X11781203Y16879738D01*
X11756569Y16905194D01*
X11729528Y16927253D01*
X11700075Y16945922D01*
X11668216Y16961194D01*
X11633950Y16973072D01*
X11597272Y16981556D01*
X11558188Y16986647D01*
X11516694Y16988344D01*
X11487763Y16987141D01*
X11460091Y16983528D01*
X11433678Y16977506D01*
X11408525Y16969075D01*
X11384631Y16958238D01*
X11361997Y16944991D01*
X11340619Y16929334D01*
X11320503Y16911269D01*
X11302000Y16891044D01*
X11285469Y16868900D01*
X11270906Y16844841D01*
X11258316Y16818866D01*
X11247697Y16790975D01*
X11239047Y16761169D01*
X11232369Y16729447D01*
X11227663Y16695809D01*
X11224159Y16695809D01*
X11216844Y16726403D01*
X11208038Y16755122D01*
X11197741Y16781966D01*
X11185950Y16806934D01*
X11172669Y16830028D01*
X11157894Y16851247D01*
X11141631Y16870591D01*
X11123872Y16888059D01*
X11104681Y16903559D01*
X11084103Y16916991D01*
X11062147Y16928356D01*
X11038806Y16937656D01*
X11014084Y16944888D01*
X10987978Y16950053D01*
X10960494Y16953153D01*
X10931622Y16954188D01*
X10894147Y16952578D01*
X10858791Y16947753D01*
X10825556Y16939716D01*
X10794444Y16928459D01*
X10765450Y16913988D01*
X10738578Y16896297D01*
X10713831Y16875394D01*
X10691200Y16851275D01*
X10670981Y16824253D01*
X10653456Y16794644D01*
X10638628Y16762450D01*
X10626497Y16727669D01*
X10617063Y16690300D01*
X10610322Y16650347D01*
X10606278Y16607806D01*
X10604928Y16562678D01*
X10606256Y16521166D01*
X10610241Y16481581D01*
X10616878Y16443925D01*
X10626169Y16408200D01*
X10638116Y16374406D01*
X10652719Y16342538D01*
X10669975Y16312603D01*
X10689888Y16284597D01*
X10712166Y16258969D01*
X10736528Y16236178D01*
X10762966Y16216219D01*
X10791488Y16199091D01*
X10822088Y16184797D01*
X10854766Y16173334D01*
X10889528Y16164706D01*
X10926369Y16158909D01*
X10938631Y16317441D01*
X10915009Y16320909D01*
X10892756Y16326063D01*
X10871875Y16332897D01*
X10852359Y16341416D01*
X10834213Y16351619D01*
X10817434Y16363506D01*
X10802025Y16377075D01*
X10787984Y16392325D01*
X10775463Y16409044D01*
X10764609Y16427003D01*
X10755425Y16446213D01*
X10747913Y16466663D01*
X10742069Y16488363D01*
X10737894Y16511306D01*
X10735391Y16535494D01*
X10734556Y16560928D01*
X10735453Y16588728D01*
X10738141Y16614766D01*
X10742625Y16639038D01*
X10748897Y16661541D01*
X10756966Y16682281D01*
X10766825Y16701256D01*
X10778478Y16718466D01*
X10791925Y16733909D01*
X10806916Y16747559D01*
X10823209Y16759391D01*
X10840800Y16769403D01*
X10859694Y16777594D01*
X10879888Y16783963D01*
X10901378Y16788513D01*
X10924172Y16791244D01*
X10948266Y16792153D01*
X10972550Y16791038D01*
X10995478Y16787691D01*
X11017053Y16782116D01*
X11037272Y16774309D01*
X11056138Y16764269D01*
X11073650Y16752000D01*
X11089803Y16737500D01*
X11104603Y16720772D01*
X11117844Y16702016D01*
X11129319Y16681441D01*
X11139031Y16659044D01*
X11146975Y16634828D01*
X11153153Y16608791D01*
X11157566Y16580934D01*
X11160216Y16551259D01*
X11161097Y16519763D01*
X11161097Y16433928D01*
X11297731Y16433928D01*
X11297731Y16523266D01*
X11298613Y16558759D01*
X11301263Y16592103D01*
X11305675Y16623297D01*
X11311853Y16652344D01*
X11319797Y16679244D01*
X11329506Y16703994D01*
X11340981Y16726594D01*
X11354222Y16747047D01*
X11369038Y16765213D01*
X11385234Y16780959D01*
X11402813Y16794281D01*
X11421772Y16805181D01*
X11442116Y16813659D01*
X11463841Y16819716D01*
X11486950Y16823350D01*
X11511438Y16824559D01*
X11539453Y16823500D01*
X11565688Y16820319D01*
X11590144Y16815016D01*
X11612819Y16807591D01*
X11633716Y16798044D01*
X11652834Y16786378D01*
X11670175Y16772591D01*
X11685734Y16756681D01*
X11699488Y16738913D01*
X11711406Y16719541D01*
X11721494Y16698566D01*
X11729747Y16675994D01*
X11736166Y16651819D01*
X11740750Y16626041D01*
X11743500Y16598666D01*
X11744416Y16569688D01*
X11743563Y16540822D01*
X11740994Y16513563D01*
X11736719Y16487913D01*
X11730731Y16463872D01*
X11723034Y16441438D01*
X11713625Y16420613D01*
X11702506Y16401397D01*
X11689675Y16383788D01*
X11675134Y16367784D01*
X11658884Y16353391D01*
X11640922Y16340606D01*
X11621250Y16329428D01*
X11599866Y16319859D01*
X11576772Y16311897D01*
X11551969Y16305544D01*
X11525453Y16300800D01*
X11540344Y16137891D01*
X11580459Y16144563D01*
G37*
G36*
X3297309Y39099503D02*
X3344091Y39102850D01*
X3389219Y39108425D01*
X3432688Y39116234D01*
X3474503Y39126272D01*
X3514663Y39138541D01*
X3553166Y39153041D01*
X3590016Y39169769D01*
X3624994Y39188628D01*
X3657894Y39209513D01*
X3688713Y39232422D01*
X3717450Y39257356D01*
X3744109Y39284316D01*
X3768688Y39313300D01*
X3791188Y39344309D01*
X3811606Y39377347D01*
X3829772Y39412181D01*
X3845519Y39448594D01*
X3858841Y39486575D01*
X3869741Y39526131D01*
X3878216Y39567263D01*
X3884272Y39609969D01*
X3887903Y39654247D01*
X3889116Y39700100D01*
X3887816Y39744953D01*
X3883916Y39788425D01*
X3877416Y39830513D01*
X3868316Y39871219D01*
X3856616Y39910544D01*
X3842316Y39948488D01*
X3825413Y39985047D01*
X3805913Y40020225D01*
X3783922Y40053747D01*
X3759547Y40085338D01*
X3732794Y40115000D01*
X3703656Y40142734D01*
X3672141Y40168538D01*
X3638241Y40192413D01*
X3601963Y40214356D01*
X3563300Y40234372D01*
X3494984Y40097738D01*
X3526059Y40080922D01*
X3555131Y40063100D01*
X3582197Y40044272D01*
X3607256Y40024441D01*
X3630313Y40003600D01*
X3651366Y39981756D01*
X3670413Y39958903D01*
X3687453Y39935047D01*
X3702491Y39910184D01*
X3715522Y39884316D01*
X3726547Y39857441D01*
X3735572Y39829563D01*
X3742588Y39800675D01*
X3747600Y39770784D01*
X3750606Y39739884D01*
X3751609Y39707981D01*
X3749453Y39658709D01*
X3742988Y39612050D01*
X3732209Y39568003D01*
X3717122Y39526572D01*
X3697725Y39487753D01*
X3674016Y39451547D01*
X3645994Y39417959D01*
X3613663Y39386981D01*
X3577788Y39359166D01*
X3539131Y39335059D01*
X3497700Y39314663D01*
X3453491Y39297972D01*
X3406503Y39284994D01*
X3356738Y39275722D01*
X3304191Y39270156D01*
X3248869Y39268303D01*
X3193025Y39270081D01*
X3140234Y39275419D01*
X3090497Y39284316D01*
X3043809Y39296769D01*
X3000175Y39312781D01*
X2959591Y39332350D01*
X2922059Y39355478D01*
X2887578Y39382166D01*
X2856684Y39412053D01*
X2829909Y39444788D01*
X2807253Y39480369D01*
X2788716Y39518797D01*
X2774300Y39560072D01*
X2764000Y39604194D01*
X2757822Y39651163D01*
X2755763Y39700975D01*
X2756653Y39733047D01*
X2759322Y39764009D01*
X2763769Y39793863D01*
X2769997Y39822609D01*
X2778000Y39850247D01*
X2787788Y39876775D01*
X2799350Y39902197D01*
X2812694Y39926506D01*
X2827719Y39949450D01*
X2844334Y39970766D01*
X2862534Y39990453D01*
X2882325Y40008509D01*
X2903700Y40024938D01*
X2926663Y40039741D01*
X2951216Y40052913D01*
X2977353Y40064456D01*
X2924803Y40222984D01*
X2888084Y40206344D01*
X2853694Y40187513D01*
X2821631Y40166491D01*
X2791891Y40143281D01*
X2764481Y40117881D01*
X2739397Y40090294D01*
X2716638Y40060513D01*
X2696206Y40028544D01*
X2678141Y39994469D01*
X2662484Y39958366D01*
X2649238Y39920241D01*
X2638397Y39880088D01*
X2629969Y39837909D01*
X2623947Y39793706D01*
X2620334Y39747478D01*
X2619128Y39699225D01*
X2619784Y39664450D01*
X2621744Y39630634D01*
X2625009Y39597775D01*
X2629584Y39565875D01*
X2635466Y39534931D01*
X2642653Y39504947D01*
X2651150Y39475922D01*
X2660953Y39447853D01*
X2672059Y39420744D01*
X2684478Y39394591D01*
X2698200Y39369397D01*
X2713228Y39345159D01*
X2747209Y39299559D01*
X2786419Y39257794D01*
X2830238Y39220431D01*
X2878053Y39188053D01*
X2929866Y39160656D01*
X2957272Y39148825D01*
X2985675Y39138238D01*
X3015078Y39128900D01*
X3045478Y39120803D01*
X3076881Y39113953D01*
X3109281Y39108350D01*
X3142678Y39103991D01*
X3177075Y39100878D01*
X3212472Y39099009D01*
X3248869Y39098388D01*
X3297309Y39099503D01*
G37*
G36*
X3630344Y40384219D02*
X3662875Y40394878D01*
X3693297Y40407975D01*
X3721613Y40423509D01*
X3747819Y40441478D01*
X3771919Y40461881D01*
X3793909Y40484722D01*
X3813794Y40510000D01*
X3831450Y40537534D01*
X3846750Y40567150D01*
X3859697Y40598844D01*
X3870288Y40632619D01*
X3878522Y40668475D01*
X3884406Y40706409D01*
X3887938Y40746425D01*
X3889116Y40788522D01*
X3887363Y40838575D01*
X3882109Y40885822D01*
X3873350Y40930266D01*
X3861091Y40971903D01*
X3845325Y41010734D01*
X3826056Y41046763D01*
X3803284Y41079981D01*
X3777009Y41110397D01*
X3747681Y41137597D01*
X3715753Y41161169D01*
X3681225Y41181116D01*
X3644097Y41197434D01*
X3604369Y41210128D01*
X3562041Y41219194D01*
X3517113Y41224634D01*
X3469584Y41226447D01*
X3427681Y41224759D01*
X3387800Y41219688D01*
X3349947Y41211238D01*
X3314119Y41199406D01*
X3280319Y41184194D01*
X3248541Y41165603D01*
X3218788Y41143631D01*
X3191063Y41118281D01*
X3166019Y41090081D01*
X3144313Y41059572D01*
X3125947Y41026747D01*
X3110922Y40991609D01*
X3099234Y40954159D01*
X3090888Y40914397D01*
X3085878Y40872322D01*
X3084209Y40827934D01*
X3085441Y40790616D01*
X3089134Y40754856D01*
X3095294Y40720656D01*
X3103916Y40688016D01*
X3115000Y40656938D01*
X3128550Y40627419D01*
X3144559Y40599459D01*
X3163034Y40573059D01*
X2771528Y40596709D01*
X2771528Y41154628D01*
X2637522Y41154628D01*
X2637522Y40453069D01*
X3301419Y40411903D01*
X3301419Y40566053D01*
X3279088Y40593644D01*
X3260256Y40621231D01*
X3244928Y40648822D01*
X3233103Y40676413D01*
X3224291Y40704547D01*
X3217994Y40733781D01*
X3214219Y40764106D01*
X3212959Y40795528D01*
X3214081Y40825397D01*
X3217447Y40853691D01*
X3223059Y40880409D01*
X3230913Y40905556D01*
X3241013Y40929131D01*
X3253356Y40951128D01*
X3267947Y40971553D01*
X3284778Y40990406D01*
X3303431Y41007341D01*
X3323481Y41022019D01*
X3344925Y41034438D01*
X3367766Y41044600D01*
X3392003Y41052503D01*
X3417634Y41058147D01*
X3444663Y41061534D01*
X3473088Y41062663D01*
X3505694Y41061541D01*
X3536506Y41058175D01*
X3565525Y41052563D01*
X3592750Y41044709D01*
X3618184Y41034609D01*
X3641828Y41022266D01*
X3663675Y41007675D01*
X3683731Y40990844D01*
X3701694Y40972025D01*
X3717259Y40951484D01*
X3730431Y40929219D01*
X3741209Y40905228D01*
X3749591Y40879513D01*
X3755578Y40852075D01*
X3759172Y40822913D01*
X3760369Y40792025D01*
X3759653Y40766800D01*
X3757509Y40742800D01*
X3753931Y40720022D01*
X3748928Y40698472D01*
X3742491Y40678147D01*
X3734625Y40659044D01*
X3725331Y40641169D01*
X3714603Y40624519D01*
X3702450Y40609091D01*
X3688863Y40594888D01*
X3673847Y40581913D01*
X3657400Y40570159D01*
X3639525Y40559631D01*
X3620219Y40550328D01*
X3599481Y40542253D01*
X3577316Y40535400D01*
X3595706Y40375994D01*
X3630344Y40384219D01*
G37*
G36*
X16153634Y36848638D02*
X16221034Y36853809D01*
X16284028Y36862431D01*
X16342613Y36874503D01*
X16396794Y36890022D01*
X16446566Y36908988D01*
X16491931Y36931406D01*
X16532894Y36957269D01*
X16569228Y36986391D01*
X16600716Y37018581D01*
X16627363Y37053834D01*
X16649163Y37092153D01*
X16666119Y37133534D01*
X16678225Y37177984D01*
X16685494Y37225500D01*
X16687309Y37250406D01*
X16687916Y37276081D01*
X16686150Y37321463D01*
X16680853Y37364322D01*
X16672028Y37404669D01*
X16659672Y37442494D01*
X16643784Y37477800D01*
X16624366Y37510591D01*
X16601416Y37540863D01*
X16574934Y37568616D01*
X16545400Y37593456D01*
X16513294Y37614981D01*
X16478616Y37633197D01*
X16441366Y37648100D01*
X16401541Y37659691D01*
X16359144Y37667972D01*
X16314175Y37672938D01*
X16266631Y37674594D01*
X16222675Y37673028D01*
X16181019Y37668328D01*
X16141659Y37660491D01*
X16104600Y37649525D01*
X16069841Y37635422D01*
X16037378Y37618184D01*
X16007216Y37597813D01*
X15979353Y37574309D01*
X15954309Y37548138D01*
X15932603Y37519759D01*
X15914238Y37489181D01*
X15899213Y37456397D01*
X15887525Y37421413D01*
X15879175Y37384222D01*
X15874169Y37344828D01*
X15872497Y37303231D01*
X15873147Y37278406D01*
X15875097Y37254294D01*
X15878350Y37230894D01*
X15882900Y37208203D01*
X15895900Y37164956D01*
X15914100Y37124559D01*
X15937284Y37087772D01*
X15965228Y37055366D01*
X15997938Y37027338D01*
X16035406Y37003691D01*
X15977606Y37004847D01*
X15923325Y37008316D01*
X15872559Y37014097D01*
X15825313Y37022194D01*
X15781581Y37032600D01*
X15741366Y37045322D01*
X15704669Y37060353D01*
X15671491Y37077700D01*
X15642031Y37097153D01*
X15616503Y37118509D01*
X15594900Y37141769D01*
X15577225Y37166928D01*
X15563478Y37193991D01*
X15553659Y37222956D01*
X15547769Y37253822D01*
X15545803Y37286591D01*
X15548159Y37324063D01*
X15555219Y37358084D01*
X15566991Y37388656D01*
X15583466Y37415781D01*
X15604650Y37439456D01*
X15630544Y37459681D01*
X15661144Y37476459D01*
X15696450Y37489791D01*
X15669300Y37640438D01*
X15638859Y37630541D01*
X15610384Y37619031D01*
X15583872Y37605909D01*
X15559325Y37591169D01*
X15536741Y37574816D01*
X15516122Y37556847D01*
X15497466Y37537263D01*
X15480772Y37516066D01*
X15466044Y37493253D01*
X15453278Y37468825D01*
X15442478Y37442781D01*
X15433641Y37415122D01*
X15426766Y37385850D01*
X15421856Y37354963D01*
X15418913Y37322459D01*
X15417928Y37288344D01*
X15418600Y37262228D01*
X15420613Y37236872D01*
X15423966Y37212278D01*
X15428659Y37188441D01*
X15434694Y37165366D01*
X15442072Y37143047D01*
X15460847Y37100691D01*
X15484988Y37061375D01*
X15514494Y37025094D01*
X15549363Y36991853D01*
X15589597Y36961650D01*
X15634841Y36934756D01*
X15684738Y36911453D01*
X15739288Y36891731D01*
X15798488Y36875597D01*
X15862344Y36863047D01*
X15930853Y36854084D01*
X16004013Y36848706D01*
X16081828Y36846913D01*
X16153634Y36848638D01*
G37*
%LPC*%
G36*
X16208491Y37020516D02*
X16182522Y37023697D01*
X16158075Y37029000D01*
X16135144Y37036425D01*
X16113734Y37045972D01*
X16093844Y37057638D01*
X16075472Y37071425D01*
X16058619Y37087334D01*
X16043528Y37104969D01*
X16030453Y37123928D01*
X16019388Y37144216D01*
X16010334Y37165834D01*
X16003294Y37188775D01*
X15998266Y37213047D01*
X15995247Y37238644D01*
X15994241Y37265572D01*
X15995378Y37294103D01*
X15998784Y37321022D01*
X16004466Y37346328D01*
X16012416Y37370016D01*
X16022638Y37392091D01*
X16035134Y37412550D01*
X16049900Y37431394D01*
X16066938Y37448625D01*
X16086069Y37464019D01*
X16107119Y37477363D01*
X16130081Y37488653D01*
X16154963Y37497891D01*
X16181756Y37505075D01*
X16210469Y37510209D01*
X16241097Y37513288D01*
X16273641Y37514313D01*
X16306244Y37513300D01*
X16337056Y37510263D01*
X16366075Y37505200D01*
X16393303Y37498109D01*
X16418738Y37488997D01*
X16442378Y37477856D01*
X16464228Y37464691D01*
X16484281Y37449500D01*
X16502244Y37432531D01*
X16517813Y37414028D01*
X16530984Y37393994D01*
X16541759Y37372425D01*
X16550144Y37349325D01*
X16556131Y37324691D01*
X16559722Y37298525D01*
X16560919Y37270825D01*
X16559497Y37243859D01*
X16555228Y37218138D01*
X16548109Y37193663D01*
X16538147Y37170431D01*
X16525338Y37148447D01*
X16509681Y37127706D01*
X16491181Y37108213D01*
X16469831Y37089963D01*
X16446250Y37073438D01*
X16421056Y37059116D01*
X16394247Y37046997D01*
X16365822Y37037081D01*
X16335784Y37029372D01*
X16304131Y37023863D01*
X16270863Y37020556D01*
X16235978Y37019456D01*
X16208491Y37020516D01*
G37*
%LPD*%
G36*
X16096109Y35551153D02*
X16142891Y35554500D01*
X16188019Y35560075D01*
X16231488Y35567884D01*
X16273303Y35577922D01*
X16313463Y35590191D01*
X16351966Y35604691D01*
X16388816Y35621419D01*
X16423794Y35640278D01*
X16456694Y35661163D01*
X16487513Y35684072D01*
X16516250Y35709006D01*
X16542909Y35735966D01*
X16567488Y35764950D01*
X16589988Y35795959D01*
X16610406Y35828997D01*
X16628572Y35863831D01*
X16644319Y35900244D01*
X16657641Y35938225D01*
X16668541Y35977781D01*
X16677016Y36018913D01*
X16683072Y36061619D01*
X16686703Y36105897D01*
X16687916Y36151750D01*
X16686616Y36196603D01*
X16682716Y36240075D01*
X16676216Y36282163D01*
X16667116Y36322869D01*
X16655416Y36362194D01*
X16641116Y36400138D01*
X16624213Y36436697D01*
X16604713Y36471875D01*
X16582722Y36505397D01*
X16558347Y36536988D01*
X16531594Y36566650D01*
X16502456Y36594384D01*
X16470941Y36620188D01*
X16437041Y36644063D01*
X16400763Y36666006D01*
X16362100Y36686022D01*
X16293784Y36549388D01*
X16324859Y36532572D01*
X16353931Y36514750D01*
X16380997Y36495922D01*
X16406056Y36476091D01*
X16429113Y36455250D01*
X16450166Y36433406D01*
X16469213Y36410553D01*
X16486253Y36386697D01*
X16501291Y36361834D01*
X16514322Y36335966D01*
X16525347Y36309091D01*
X16534372Y36281213D01*
X16541388Y36252325D01*
X16546400Y36222434D01*
X16549406Y36191534D01*
X16550409Y36159631D01*
X16548253Y36110359D01*
X16541788Y36063700D01*
X16531009Y36019653D01*
X16515922Y35978222D01*
X16496525Y35939403D01*
X16472816Y35903197D01*
X16444794Y35869609D01*
X16412463Y35838631D01*
X16376588Y35810816D01*
X16337931Y35786709D01*
X16296500Y35766313D01*
X16252291Y35749622D01*
X16205303Y35736644D01*
X16155538Y35727372D01*
X16102991Y35721806D01*
X16047669Y35719953D01*
X15991825Y35721731D01*
X15939034Y35727069D01*
X15889297Y35735966D01*
X15842609Y35748419D01*
X15798975Y35764431D01*
X15758391Y35784000D01*
X15720859Y35807128D01*
X15686378Y35833816D01*
X15655484Y35863703D01*
X15628709Y35896438D01*
X15606053Y35932019D01*
X15587516Y35970447D01*
X15573100Y36011722D01*
X15562800Y36055844D01*
X15556622Y36102813D01*
X15554563Y36152625D01*
X15555453Y36184697D01*
X15558122Y36215659D01*
X15562569Y36245513D01*
X15568797Y36274259D01*
X15576800Y36301897D01*
X15586588Y36328425D01*
X15598150Y36353847D01*
X15611494Y36378156D01*
X15626519Y36401100D01*
X15643134Y36422416D01*
X15661334Y36442103D01*
X15681125Y36460159D01*
X15702500Y36476588D01*
X15725463Y36491391D01*
X15750016Y36504563D01*
X15776153Y36516106D01*
X15723603Y36674634D01*
X15686884Y36657994D01*
X15652494Y36639163D01*
X15620431Y36618141D01*
X15590691Y36594931D01*
X15563281Y36569531D01*
X15538197Y36541944D01*
X15515438Y36512163D01*
X15495006Y36480194D01*
X15476941Y36446119D01*
X15461284Y36410016D01*
X15448038Y36371891D01*
X15437197Y36331738D01*
X15428769Y36289559D01*
X15422747Y36245356D01*
X15419134Y36199128D01*
X15417928Y36150875D01*
X15418584Y36116100D01*
X15420544Y36082284D01*
X15423809Y36049425D01*
X15428384Y36017525D01*
X15434266Y35986581D01*
X15441453Y35956597D01*
X15449950Y35927572D01*
X15459753Y35899503D01*
X15470859Y35872394D01*
X15483278Y35846241D01*
X15497000Y35821047D01*
X15512028Y35796809D01*
X15546009Y35751209D01*
X15585219Y35709444D01*
X15629038Y35672081D01*
X15676853Y35639703D01*
X15728666Y35612306D01*
X15756072Y35600475D01*
X15784475Y35589888D01*
X15813878Y35580550D01*
X15844278Y35572453D01*
X15875681Y35565603D01*
X15908081Y35560000D01*
X15941478Y35555641D01*
X15975875Y35552528D01*
X16011272Y35550659D01*
X16047669Y35550038D01*
X16096109Y35551153D01*
G37*
G36*
X19060303Y34511484D02*
X19103775Y34515384D01*
X19145863Y34521884D01*
X19186569Y34530984D01*
X19225894Y34542684D01*
X19263838Y34556984D01*
X19300397Y34573888D01*
X19335575Y34593388D01*
X19369097Y34615378D01*
X19400688Y34639753D01*
X19430350Y34666506D01*
X19458084Y34695644D01*
X19483888Y34727159D01*
X19507763Y34761059D01*
X19529706Y34797338D01*
X19549722Y34836000D01*
X19413088Y34904316D01*
X19396272Y34873241D01*
X19378450Y34844169D01*
X19359622Y34817103D01*
X19339791Y34792044D01*
X19318950Y34768988D01*
X19297106Y34747934D01*
X19274253Y34728888D01*
X19250397Y34711847D01*
X19225534Y34696809D01*
X19199666Y34683778D01*
X19172791Y34672753D01*
X19144913Y34663728D01*
X19116025Y34656713D01*
X19086134Y34651700D01*
X19055234Y34648694D01*
X19023331Y34647691D01*
X18974059Y34649847D01*
X18927400Y34656313D01*
X18883353Y34667091D01*
X18841922Y34682178D01*
X18803103Y34701575D01*
X18766897Y34725284D01*
X18733309Y34753306D01*
X18702331Y34785638D01*
X18674516Y34821513D01*
X18650409Y34860169D01*
X18630013Y34901600D01*
X18613322Y34945809D01*
X18600344Y34992797D01*
X18591072Y35042563D01*
X18585506Y35095109D01*
X18583653Y35150431D01*
X18585431Y35206275D01*
X18590769Y35259066D01*
X18599666Y35308803D01*
X18612119Y35355491D01*
X18628131Y35399125D01*
X18647700Y35439709D01*
X18670828Y35477241D01*
X18697516Y35511722D01*
X18727403Y35542616D01*
X18760138Y35569391D01*
X18795719Y35592047D01*
X18834147Y35610584D01*
X18875422Y35625000D01*
X18919544Y35635300D01*
X18966513Y35641478D01*
X19016325Y35643538D01*
X19048397Y35642647D01*
X19079359Y35639978D01*
X19109213Y35635531D01*
X19137959Y35629303D01*
X19165597Y35621300D01*
X19192125Y35611513D01*
X19217547Y35599950D01*
X19241856Y35586606D01*
X19264800Y35571581D01*
X19286116Y35554966D01*
X19305803Y35536766D01*
X19323859Y35516975D01*
X19340288Y35495600D01*
X19355091Y35472638D01*
X19368263Y35448084D01*
X19379806Y35421947D01*
X19538334Y35474497D01*
X19521694Y35511216D01*
X19502863Y35545606D01*
X19481841Y35577669D01*
X19458631Y35607409D01*
X19433231Y35634819D01*
X19405644Y35659903D01*
X19375863Y35682663D01*
X19343894Y35703094D01*
X19309819Y35721159D01*
X19273716Y35736816D01*
X19235591Y35750063D01*
X19195438Y35760903D01*
X19153259Y35769331D01*
X19109056Y35775353D01*
X19062828Y35778966D01*
X19014575Y35780172D01*
X18979800Y35779516D01*
X18945984Y35777556D01*
X18913125Y35774291D01*
X18881225Y35769716D01*
X18850281Y35763834D01*
X18820297Y35756647D01*
X18791272Y35748150D01*
X18763203Y35738347D01*
X18736094Y35727241D01*
X18709941Y35714822D01*
X18684747Y35701100D01*
X18660509Y35686072D01*
X18614909Y35652091D01*
X18573144Y35612881D01*
X18535781Y35569063D01*
X18503403Y35521247D01*
X18476006Y35469434D01*
X18464175Y35442028D01*
X18453588Y35413625D01*
X18444250Y35384222D01*
X18436153Y35353822D01*
X18429303Y35322419D01*
X18423700Y35290019D01*
X18419341Y35256622D01*
X18416228Y35222225D01*
X18414359Y35186828D01*
X18413738Y35150431D01*
X18414853Y35101991D01*
X18418200Y35055209D01*
X18423775Y35010081D01*
X18431584Y34966613D01*
X18441622Y34924797D01*
X18453891Y34884638D01*
X18468391Y34846134D01*
X18485119Y34809284D01*
X18503978Y34774306D01*
X18524863Y34741406D01*
X18547772Y34710588D01*
X18572706Y34681850D01*
X18599666Y34655191D01*
X18628650Y34630613D01*
X18659659Y34608113D01*
X18692697Y34587694D01*
X18727531Y34569528D01*
X18763944Y34553781D01*
X18801925Y34540459D01*
X18841481Y34529559D01*
X18882613Y34521084D01*
X18925319Y34515028D01*
X18969597Y34511397D01*
X19015450Y34510184D01*
X19060303Y34511484D01*
G37*
G36*
X20104481Y34570219D02*
X20106306Y34612381D01*
X20113616Y34695644D01*
X20125794Y34777481D01*
X20142847Y34857897D01*
X20164769Y34937872D01*
X20191566Y35018397D01*
X20223234Y35099469D01*
X20259772Y35181084D01*
X20305700Y35270806D01*
X20365531Y35376181D01*
X20439269Y35497216D01*
X20526909Y35633903D01*
X20526909Y35761778D01*
X19711488Y35761778D01*
X19711488Y35627772D01*
X20374509Y35627772D01*
X20317928Y35543834D01*
X20265547Y35462372D01*
X20217369Y35383388D01*
X20173391Y35306881D01*
X20133616Y35232850D01*
X20098041Y35161297D01*
X20066669Y35092222D01*
X20039497Y35025622D01*
X20015991Y34960650D01*
X19995622Y34896459D01*
X19978384Y34833050D01*
X19964281Y34770419D01*
X19953313Y34708569D01*
X19945478Y34647500D01*
X19940778Y34587209D01*
X19939209Y34527700D01*
X20103872Y34527700D01*
X20104481Y34570219D01*
G37*
G36*
X9335047Y40510869D02*
X9374488Y40516103D01*
X9411466Y40524828D01*
X9445978Y40537044D01*
X9478031Y40552747D01*
X9507619Y40571941D01*
X9534741Y40594622D01*
X9559403Y40620797D01*
X9581366Y40650063D01*
X9600403Y40682025D01*
X9616509Y40716681D01*
X9629691Y40754034D01*
X9639938Y40794084D01*
X9647259Y40836831D01*
X9651650Y40882272D01*
X9653116Y40930409D01*
X9651625Y40979731D01*
X9647150Y41026097D01*
X9639691Y41069506D01*
X9629253Y41109959D01*
X9615825Y41147459D01*
X9599419Y41182000D01*
X9580025Y41213584D01*
X9557650Y41242216D01*
X9532606Y41267669D01*
X9505209Y41289731D01*
X9475456Y41308397D01*
X9443350Y41323669D01*
X9408891Y41335547D01*
X9372078Y41344031D01*
X9332913Y41349125D01*
X9291391Y41350822D01*
X9261591Y41349794D01*
X9233066Y41346716D01*
X9205809Y41341584D01*
X9179828Y41334397D01*
X9155119Y41325159D01*
X9131684Y41313872D01*
X9109522Y41300528D01*
X9088631Y41285131D01*
X9084878Y41281778D01*
X9069341Y41267888D01*
X9051981Y41249003D01*
X9036550Y41228475D01*
X9023050Y41206303D01*
X9011481Y41182494D01*
X9001838Y41157038D01*
X8994128Y41129941D01*
X8988344Y41101203D01*
X8984841Y41101203D01*
X8978888Y41125931D01*
X8971103Y41149319D01*
X8961481Y41171366D01*
X8950025Y41192072D01*
X8936738Y41211438D01*
X8923100Y41227688D01*
X8921616Y41229459D01*
X8904659Y41246144D01*
X8885869Y41261484D01*
X8865741Y41275238D01*
X8844759Y41287156D01*
X8822931Y41297244D01*
X8800256Y41305494D01*
X8776731Y41311913D01*
X8752356Y41316497D01*
X8727134Y41319250D01*
X8701066Y41320166D01*
X8665441Y41318516D01*
X8631709Y41313569D01*
X8599863Y41305325D01*
X8569906Y41293781D01*
X8541838Y41278938D01*
X8515656Y41260800D01*
X8491366Y41239363D01*
X8468963Y41214625D01*
X8448847Y41187044D01*
X8431413Y41157066D01*
X8416659Y41124694D01*
X8404588Y41089925D01*
X8395200Y41052763D01*
X8388494Y41013206D01*
X8384472Y40971253D01*
X8383128Y40926906D01*
X8384497Y40883588D01*
X8388603Y40842525D01*
X8395447Y40803719D01*
X8405025Y40767172D01*
X8417344Y40732884D01*
X8432397Y40700853D01*
X8450188Y40671081D01*
X8470716Y40643569D01*
X8493447Y40618831D01*
X8517847Y40597394D01*
X8543919Y40579253D01*
X8571656Y40564413D01*
X8601066Y40552869D01*
X8632147Y40544625D01*
X8664894Y40539678D01*
X8699313Y40538028D01*
X8725384Y40538938D01*
X8750606Y40541669D01*
X8774978Y40546219D01*
X8798503Y40552588D01*
X8821181Y40560778D01*
X8843009Y40570791D01*
X8863988Y40582622D01*
X8884119Y40596272D01*
X8902963Y40611497D01*
X8920084Y40628050D01*
X8935478Y40645928D01*
X8949150Y40665138D01*
X8961097Y40685672D01*
X8971322Y40707534D01*
X8979819Y40730722D01*
X8986594Y40755241D01*
X8990097Y40755241D01*
X8995488Y40728909D01*
X9002906Y40703784D01*
X9012350Y40679863D01*
X9023819Y40657144D01*
X9037309Y40635631D01*
X9052831Y40615322D01*
X9070375Y40596219D01*
X9089944Y40578316D01*
X9111128Y40562100D01*
X9133519Y40548044D01*
X9157113Y40536153D01*
X9181909Y40526422D01*
X9207909Y40518853D01*
X9235116Y40513450D01*
X9263528Y40510206D01*
X9293144Y40509125D01*
X9335047Y40510869D01*
G37*
%LPC*%
G36*
X9253366Y40673088D02*
X9228194Y40676250D01*
X9204481Y40681519D01*
X9182238Y40688894D01*
X9161456Y40698378D01*
X9142141Y40709969D01*
X9124288Y40723669D01*
X9107900Y40739475D01*
X9093222Y40757156D01*
X9080500Y40776478D01*
X9069738Y40797444D01*
X9060931Y40820053D01*
X9054081Y40844303D01*
X9049191Y40870197D01*
X9046253Y40897731D01*
X9045275Y40926906D01*
X9046184Y40956919D01*
X9048916Y40985206D01*
X9053466Y41011769D01*
X9059838Y41036609D01*
X9068028Y41059722D01*
X9078038Y41081113D01*
X9089869Y41100778D01*
X9103519Y41118719D01*
X9118963Y41134731D01*
X9136172Y41148606D01*
X9155147Y41160350D01*
X9175888Y41169956D01*
X9198394Y41177428D01*
X9222663Y41182766D01*
X9248700Y41185969D01*
X9276500Y41187034D01*
X9309078Y41186050D01*
X9339372Y41183094D01*
X9367378Y41178169D01*
X9393100Y41171272D01*
X9416534Y41162403D01*
X9437684Y41151563D01*
X9456550Y41138753D01*
X9473131Y41123975D01*
X9487603Y41107181D01*
X9500144Y41088338D01*
X9510759Y41067441D01*
X9519441Y41044491D01*
X9526194Y41019488D01*
X9531019Y40992431D01*
X9533913Y40963325D01*
X9534878Y40932163D01*
X9533881Y40900663D01*
X9530897Y40871194D01*
X9525919Y40843759D01*
X9518950Y40818356D01*
X9509988Y40794984D01*
X9499038Y40773647D01*
X9486094Y40754341D01*
X9471159Y40737066D01*
X9454234Y40721825D01*
X9435319Y40708613D01*
X9414409Y40697438D01*
X9391513Y40688291D01*
X9366622Y40681178D01*
X9339741Y40676097D01*
X9310869Y40673050D01*
X9280003Y40672034D01*
X9253366Y40673088D01*
G37*
G36*
X8684575Y40700094D02*
X8660941Y40702825D01*
X8638919Y40707375D01*
X8618516Y40713747D01*
X8599725Y40721938D01*
X8582550Y40731947D01*
X8566991Y40743778D01*
X8553047Y40757428D01*
X8540728Y40772819D01*
X8530053Y40789863D01*
X8521022Y40808566D01*
X8513631Y40828922D01*
X8507884Y40850934D01*
X8503778Y40874603D01*
X8501316Y40899928D01*
X8500494Y40926906D01*
X8501313Y40954694D01*
X8503766Y40980691D01*
X8507853Y41004894D01*
X8513578Y41027303D01*
X8520938Y41047919D01*
X8529931Y41066744D01*
X8540563Y41083775D01*
X8552825Y41099013D01*
X8566728Y41112459D01*
X8582263Y41124113D01*
X8599434Y41133972D01*
X8618241Y41142038D01*
X8638684Y41148313D01*
X8660763Y41152797D01*
X8684475Y41155484D01*
X8709822Y41156381D01*
X8737516Y41155472D01*
X8763222Y41152741D01*
X8786947Y41148191D01*
X8808684Y41141819D01*
X8828441Y41133628D01*
X8846209Y41123619D01*
X8861997Y41111788D01*
X8875797Y41098138D01*
X8887806Y41082747D01*
X8898216Y41065703D01*
X8907022Y41047003D01*
X8914225Y41026644D01*
X8919831Y41004631D01*
X8923834Y40980963D01*
X8926234Y40955641D01*
X8927034Y40928659D01*
X8926166Y40902063D01*
X8923559Y40877009D01*
X8919216Y40853506D01*
X8913131Y40831547D01*
X8905309Y40811138D01*
X8895750Y40792272D01*
X8884453Y40774953D01*
X8871419Y40759181D01*
X8856728Y40745119D01*
X8840463Y40732931D01*
X8822625Y40722622D01*
X8803213Y40714184D01*
X8782225Y40707622D01*
X8759666Y40702934D01*
X8735531Y40700122D01*
X8709822Y40699184D01*
X8684575Y40700094D01*
G37*
%LPD*%
G36*
X9061309Y39226503D02*
X9108091Y39229850D01*
X9153219Y39235425D01*
X9196688Y39243234D01*
X9238503Y39253272D01*
X9278663Y39265541D01*
X9317166Y39280041D01*
X9354016Y39296769D01*
X9388994Y39315628D01*
X9421894Y39336513D01*
X9452713Y39359422D01*
X9481450Y39384356D01*
X9508109Y39411316D01*
X9532688Y39440300D01*
X9555188Y39471309D01*
X9575606Y39504347D01*
X9593772Y39539181D01*
X9609519Y39575594D01*
X9622841Y39613575D01*
X9633741Y39653131D01*
X9642216Y39694263D01*
X9648272Y39736969D01*
X9651903Y39781247D01*
X9653116Y39827100D01*
X9651816Y39871953D01*
X9647916Y39915425D01*
X9641416Y39957513D01*
X9632316Y39998219D01*
X9620616Y40037544D01*
X9606316Y40075488D01*
X9589413Y40112047D01*
X9569913Y40147225D01*
X9547922Y40180747D01*
X9523547Y40212338D01*
X9496794Y40242000D01*
X9467656Y40269734D01*
X9436141Y40295538D01*
X9402241Y40319413D01*
X9365963Y40341356D01*
X9327300Y40361372D01*
X9258984Y40224738D01*
X9290059Y40207922D01*
X9319131Y40190100D01*
X9346197Y40171272D01*
X9371256Y40151441D01*
X9394313Y40130600D01*
X9415366Y40108756D01*
X9434413Y40085903D01*
X9451453Y40062047D01*
X9466491Y40037184D01*
X9479522Y40011316D01*
X9490547Y39984441D01*
X9499572Y39956563D01*
X9506588Y39927675D01*
X9511600Y39897784D01*
X9514606Y39866884D01*
X9515609Y39834981D01*
X9513453Y39785709D01*
X9506988Y39739050D01*
X9496209Y39695003D01*
X9481122Y39653572D01*
X9461725Y39614753D01*
X9438016Y39578547D01*
X9409994Y39544959D01*
X9377663Y39513981D01*
X9341788Y39486166D01*
X9303131Y39462059D01*
X9261700Y39441663D01*
X9217491Y39424972D01*
X9170503Y39411994D01*
X9120738Y39402722D01*
X9068191Y39397156D01*
X9012869Y39395303D01*
X8957025Y39397081D01*
X8904234Y39402419D01*
X8854497Y39411316D01*
X8807809Y39423769D01*
X8764175Y39439781D01*
X8723591Y39459350D01*
X8686059Y39482478D01*
X8651578Y39509166D01*
X8620684Y39539053D01*
X8593909Y39571788D01*
X8571253Y39607369D01*
X8552716Y39645797D01*
X8538300Y39687072D01*
X8528000Y39731194D01*
X8521822Y39778163D01*
X8519763Y39827975D01*
X8520653Y39860047D01*
X8523322Y39891009D01*
X8527769Y39920863D01*
X8533997Y39949609D01*
X8542000Y39977247D01*
X8551788Y40003775D01*
X8563350Y40029197D01*
X8576694Y40053506D01*
X8591719Y40076450D01*
X8608334Y40097766D01*
X8626534Y40117453D01*
X8646325Y40135509D01*
X8667700Y40151938D01*
X8690663Y40166741D01*
X8715216Y40179913D01*
X8741353Y40191456D01*
X8688803Y40349984D01*
X8652084Y40333344D01*
X8617694Y40314513D01*
X8585631Y40293491D01*
X8555891Y40270281D01*
X8528481Y40244881D01*
X8503397Y40217294D01*
X8480638Y40187513D01*
X8460206Y40155544D01*
X8442141Y40121469D01*
X8426484Y40085366D01*
X8413238Y40047241D01*
X8402397Y40007088D01*
X8393969Y39964909D01*
X8387947Y39920706D01*
X8384334Y39874478D01*
X8383128Y39826225D01*
X8383784Y39791450D01*
X8385744Y39757634D01*
X8389009Y39724775D01*
X8393584Y39692875D01*
X8399466Y39661931D01*
X8406653Y39631947D01*
X8415150Y39602922D01*
X8424953Y39574853D01*
X8436059Y39547744D01*
X8448478Y39521591D01*
X8462200Y39496397D01*
X8477228Y39472159D01*
X8511209Y39426559D01*
X8550419Y39384794D01*
X8594238Y39347431D01*
X8642053Y39315053D01*
X8693866Y39287656D01*
X8721272Y39275825D01*
X8749675Y39265238D01*
X8779078Y39255900D01*
X8809478Y39247803D01*
X8840881Y39240953D01*
X8873281Y39235350D01*
X8906678Y39230991D01*
X8941075Y39227878D01*
X8976472Y39226009D01*
X9012869Y39225388D01*
X9061309Y39226503D01*
G37*
G36*
X16946000Y17371466D02*
X16989588Y17376147D01*
X17030847Y17383947D01*
X17069781Y17394869D01*
X17106391Y17408909D01*
X17140672Y17426069D01*
X17172625Y17446350D01*
X17202253Y17469753D01*
X17228941Y17495756D01*
X17252069Y17523838D01*
X17271638Y17554000D01*
X17287650Y17586241D01*
X17300103Y17620566D01*
X17309000Y17656966D01*
X17314338Y17695450D01*
X17316116Y17736013D01*
X17315369Y17761153D01*
X17313131Y17785772D01*
X17309403Y17809872D01*
X17304181Y17833450D01*
X17297469Y17856513D01*
X17289266Y17879050D01*
X17279569Y17901069D01*
X17268381Y17922569D01*
X17255963Y17943028D01*
X17242572Y17961928D01*
X17228209Y17979269D01*
X17212875Y17995047D01*
X17196569Y18009266D01*
X17179291Y18021925D01*
X17161041Y18033022D01*
X17141822Y18042563D01*
X17198600Y18040578D01*
X17252013Y18036375D01*
X17302059Y18029956D01*
X17348741Y18021322D01*
X17392056Y18010469D01*
X17432003Y17997400D01*
X17468581Y17982116D01*
X17501797Y17964609D01*
X17531356Y17945041D01*
X17556975Y17923556D01*
X17578653Y17900153D01*
X17596388Y17874834D01*
X17610184Y17847603D01*
X17620038Y17818453D01*
X17625950Y17787388D01*
X17627919Y17754406D01*
X17627319Y17734706D01*
X17625513Y17715897D01*
X17618284Y17680944D01*
X17606244Y17649550D01*
X17589381Y17621713D01*
X17567706Y17597438D01*
X17541209Y17576716D01*
X17509897Y17559556D01*
X17473769Y17545953D01*
X17497419Y17395306D01*
X17530188Y17405494D01*
X17560616Y17417228D01*
X17588706Y17430509D01*
X17614453Y17445338D01*
X17637863Y17461713D01*
X17658931Y17479634D01*
X17677659Y17499100D01*
X17694047Y17520116D01*
X17708313Y17542797D01*
X17720678Y17567275D01*
X17731141Y17593544D01*
X17739697Y17621603D01*
X17746356Y17651459D01*
X17751113Y17683106D01*
X17753966Y17716547D01*
X17754916Y17751778D01*
X17754247Y17778216D01*
X17752247Y17803884D01*
X17748913Y17828784D01*
X17744241Y17852913D01*
X17738238Y17876272D01*
X17730900Y17898859D01*
X17712222Y17941728D01*
X17688203Y17981519D01*
X17658847Y18018228D01*
X17624156Y18051859D01*
X17584128Y18082413D01*
X17539131Y18109613D01*
X17489534Y18133184D01*
X17435341Y18153131D01*
X17376550Y18169450D01*
X17313159Y18182144D01*
X17245172Y18191209D01*
X17172584Y18196650D01*
X17095400Y18198463D01*
X17021378Y18196809D01*
X16952144Y18191841D01*
X16887700Y18183559D01*
X16828047Y18171969D01*
X16773181Y18157066D01*
X16723106Y18138850D01*
X16677822Y18117325D01*
X16637328Y18092484D01*
X16601609Y18064431D01*
X16570653Y18033256D01*
X16544459Y17998959D01*
X16523028Y17961544D01*
X16506359Y17921009D01*
X16494453Y17877353D01*
X16487309Y17830578D01*
X16485525Y17806019D01*
X16484928Y17780681D01*
X16486659Y17733619D01*
X16491853Y17689209D01*
X16500509Y17647456D01*
X16512628Y17608356D01*
X16528209Y17571913D01*
X16547253Y17538125D01*
X16569756Y17506991D01*
X16595725Y17478513D01*
X16624719Y17453056D01*
X16656297Y17430997D01*
X16690463Y17412328D01*
X16727213Y17397056D01*
X16766550Y17385178D01*
X16808475Y17376694D01*
X16852988Y17371603D01*
X16900084Y17369906D01*
X16946000Y17371466D01*
G37*
%LPC*%
G36*
X16867875Y17531213D02*
X16837378Y17534294D01*
X16808591Y17539425D01*
X16781516Y17546609D01*
X16756150Y17555847D01*
X16732497Y17567138D01*
X16710550Y17580481D01*
X16690319Y17595875D01*
X16672150Y17613050D01*
X16656406Y17631731D01*
X16643084Y17651916D01*
X16632181Y17673609D01*
X16623703Y17696803D01*
X16617650Y17721506D01*
X16614016Y17747713D01*
X16612803Y17775425D01*
X16614222Y17803384D01*
X16618469Y17829894D01*
X16625553Y17854950D01*
X16635466Y17878559D01*
X16648216Y17900716D01*
X16663797Y17921419D01*
X16682209Y17940675D01*
X16703456Y17958481D01*
X16727028Y17974491D01*
X16752422Y17988369D01*
X16779634Y18000109D01*
X16808669Y18009716D01*
X16839522Y18017191D01*
X16872194Y18022525D01*
X16906688Y18025728D01*
X16943000Y18026797D01*
X16978366Y18024688D01*
X17011756Y18018366D01*
X17043178Y18007828D01*
X17072628Y17993075D01*
X17099478Y17974656D01*
X17123100Y17953116D01*
X17143491Y17928453D01*
X17160650Y17900672D01*
X17174253Y17870731D01*
X17183972Y17839581D01*
X17189800Y17807231D01*
X17191744Y17773675D01*
X17190519Y17746372D01*
X17186844Y17720522D01*
X17180722Y17696119D01*
X17172147Y17673169D01*
X17161125Y17651672D01*
X17147650Y17631622D01*
X17131728Y17613025D01*
X17113356Y17595875D01*
X17092875Y17580481D01*
X17070631Y17567138D01*
X17046619Y17555847D01*
X17020844Y17546609D01*
X16993303Y17539425D01*
X16963994Y17534294D01*
X16932922Y17531213D01*
X16900084Y17530188D01*
X16867875Y17531213D01*
G37*
%LPD*%
G36*
X17163109Y16081153D02*
X17209891Y16084500D01*
X17255019Y16090075D01*
X17298488Y16097884D01*
X17340303Y16107922D01*
X17380463Y16120191D01*
X17418966Y16134691D01*
X17455816Y16151419D01*
X17490794Y16170278D01*
X17523694Y16191163D01*
X17554513Y16214072D01*
X17583250Y16239006D01*
X17609909Y16265966D01*
X17634488Y16294950D01*
X17656988Y16325959D01*
X17677406Y16358997D01*
X17695572Y16393831D01*
X17711319Y16430244D01*
X17724641Y16468225D01*
X17735541Y16507781D01*
X17744016Y16548913D01*
X17750072Y16591619D01*
X17753703Y16635897D01*
X17754916Y16681750D01*
X17753616Y16726603D01*
X17749716Y16770075D01*
X17743216Y16812163D01*
X17734116Y16852869D01*
X17722416Y16892194D01*
X17708116Y16930138D01*
X17691213Y16966697D01*
X17671713Y17001875D01*
X17649722Y17035397D01*
X17625347Y17066988D01*
X17598594Y17096650D01*
X17569456Y17124384D01*
X17537941Y17150188D01*
X17504041Y17174063D01*
X17467763Y17196006D01*
X17429100Y17216022D01*
X17360784Y17079388D01*
X17391859Y17062572D01*
X17420931Y17044750D01*
X17447997Y17025922D01*
X17473056Y17006091D01*
X17496113Y16985250D01*
X17517166Y16963406D01*
X17536213Y16940553D01*
X17553253Y16916697D01*
X17568291Y16891834D01*
X17581322Y16865966D01*
X17592347Y16839091D01*
X17601372Y16811213D01*
X17608388Y16782325D01*
X17613400Y16752434D01*
X17616406Y16721534D01*
X17617409Y16689631D01*
X17615253Y16640359D01*
X17608788Y16593700D01*
X17598009Y16549653D01*
X17582922Y16508222D01*
X17563525Y16469403D01*
X17539816Y16433197D01*
X17511794Y16399609D01*
X17479463Y16368631D01*
X17443588Y16340816D01*
X17404931Y16316709D01*
X17363500Y16296313D01*
X17319291Y16279622D01*
X17272303Y16266644D01*
X17222538Y16257372D01*
X17169991Y16251806D01*
X17114669Y16249953D01*
X17058825Y16251731D01*
X17006034Y16257069D01*
X16956297Y16265966D01*
X16909609Y16278419D01*
X16865975Y16294431D01*
X16825391Y16314000D01*
X16787859Y16337128D01*
X16753378Y16363816D01*
X16722484Y16393703D01*
X16695709Y16426438D01*
X16673053Y16462019D01*
X16654516Y16500447D01*
X16640100Y16541722D01*
X16629800Y16585844D01*
X16623622Y16632813D01*
X16621563Y16682625D01*
X16622453Y16714697D01*
X16625122Y16745659D01*
X16629569Y16775513D01*
X16635797Y16804259D01*
X16643800Y16831897D01*
X16653588Y16858425D01*
X16665150Y16883847D01*
X16678494Y16908156D01*
X16693519Y16931100D01*
X16710134Y16952416D01*
X16728334Y16972103D01*
X16748125Y16990159D01*
X16769500Y17006588D01*
X16792463Y17021391D01*
X16817016Y17034563D01*
X16843153Y17046106D01*
X16790603Y17204634D01*
X16753884Y17187994D01*
X16719494Y17169163D01*
X16687431Y17148141D01*
X16657691Y17124931D01*
X16630281Y17099531D01*
X16605197Y17071944D01*
X16582438Y17042163D01*
X16562006Y17010194D01*
X16543941Y16976119D01*
X16528284Y16940016D01*
X16515038Y16901891D01*
X16504197Y16861738D01*
X16495769Y16819559D01*
X16489747Y16775356D01*
X16486134Y16729128D01*
X16484928Y16680875D01*
X16485584Y16646100D01*
X16487544Y16612284D01*
X16490809Y16579425D01*
X16495384Y16547525D01*
X16501266Y16516581D01*
X16508453Y16486597D01*
X16516950Y16457572D01*
X16526753Y16429503D01*
X16537859Y16402394D01*
X16550278Y16376241D01*
X16564000Y16351047D01*
X16579028Y16326809D01*
X16613009Y16281209D01*
X16652219Y16239444D01*
X16696038Y16202081D01*
X16743853Y16169703D01*
X16795666Y16142306D01*
X16823072Y16130475D01*
X16851475Y16119888D01*
X16880878Y16110550D01*
X16911278Y16102453D01*
X16942681Y16095603D01*
X16975081Y16090000D01*
X17008478Y16085641D01*
X17042875Y16082528D01*
X17078272Y16080659D01*
X17114669Y16080038D01*
X17163109Y16081153D01*
G37*
G36*
X19292400Y1553381D02*
X18811556Y1553381D01*
X18811556Y1915984D01*
X18809944Y1963753D01*
X18805097Y2008963D01*
X18797025Y2051613D01*
X18785719Y2091703D01*
X18771188Y2129234D01*
X18753422Y2164206D01*
X18732428Y2196619D01*
X18708206Y2226475D01*
X18681247Y2253263D01*
X18652044Y2276481D01*
X18620594Y2296125D01*
X18586900Y2312200D01*
X18550963Y2324700D01*
X18512781Y2333631D01*
X18472356Y2338988D01*
X18429684Y2340772D01*
X18386700Y2338994D01*
X18346206Y2333656D01*
X18308200Y2324763D01*
X18272688Y2312309D01*
X18239666Y2296297D01*
X18209134Y2276725D01*
X18181094Y2253600D01*
X18155544Y2226913D01*
X18132756Y2196981D01*
X18113009Y2164125D01*
X18096300Y2128338D01*
X18082628Y2089622D01*
X18071994Y2047978D01*
X18064400Y2003406D01*
X18059841Y1955903D01*
X18058322Y1905475D01*
X18058322Y1386091D01*
X19292400Y1386091D01*
X19292400Y1553381D01*
G37*
%LPC*%
G36*
X18192328Y1553381D02*
X18192328Y1885328D01*
X18193263Y1920116D01*
X18196066Y1952659D01*
X18200734Y1982959D01*
X18207272Y2011016D01*
X18215678Y2036825D01*
X18225953Y2060391D01*
X18238094Y2081713D01*
X18252106Y2100791D01*
X18267984Y2117622D01*
X18285731Y2132209D01*
X18305344Y2144553D01*
X18326828Y2154653D01*
X18350178Y2162509D01*
X18375397Y2168122D01*
X18402481Y2171488D01*
X18431438Y2172609D01*
X18461453Y2171516D01*
X18489531Y2168231D01*
X18515672Y2162756D01*
X18539878Y2155094D01*
X18562147Y2145238D01*
X18582481Y2133197D01*
X18600878Y2118963D01*
X18617338Y2102541D01*
X18631859Y2083928D01*
X18644447Y2063128D01*
X18655097Y2040138D01*
X18663813Y2014956D01*
X18670591Y1987584D01*
X18675431Y1958025D01*
X18678334Y1926275D01*
X18679303Y1892334D01*
X18679303Y1553381D01*
X18192328Y1553381D01*
G37*
%LPD*%
G36*
X19292400Y3345838D02*
X19158397Y3345838D01*
X19158397Y3045419D01*
X18058322Y3045419D01*
X18058322Y2900025D01*
X18258894Y2608366D01*
X18407788Y2608366D01*
X18208969Y2886888D01*
X19158397Y2886888D01*
X19158397Y2572456D01*
X19292400Y2572456D01*
X19292400Y3345838D01*
G37*
G36*
X19025094Y378431D02*
X19061806Y388753D01*
X19095984Y401066D01*
X19127631Y415372D01*
X19156747Y431669D01*
X19183331Y449953D01*
X19207381Y470231D01*
X19228903Y492500D01*
X19247891Y516763D01*
X19264347Y543013D01*
X19278272Y571256D01*
X19289666Y601491D01*
X19298522Y633716D01*
X19304853Y667931D01*
X19308650Y704141D01*
X19309916Y742338D01*
X19308306Y783478D01*
X19303484Y822369D01*
X19295444Y859019D01*
X19284191Y893425D01*
X19269719Y925584D01*
X19252031Y955500D01*
X19231125Y983172D01*
X19207006Y1008600D01*
X19180081Y1031384D01*
X19150759Y1051131D01*
X19119044Y1067841D01*
X19084934Y1081513D01*
X19048428Y1092147D01*
X19009528Y1099744D01*
X18968231Y1104300D01*
X18924544Y1105819D01*
X18058322Y1105819D01*
X18058322Y702050D01*
X18194956Y702050D01*
X18194956Y939406D01*
X18928047Y939406D01*
X18957353Y938584D01*
X18984841Y936122D01*
X19010506Y932016D01*
X19034353Y926269D01*
X19056378Y918878D01*
X19076584Y909847D01*
X19094972Y899172D01*
X19111538Y886856D01*
X19126216Y873116D01*
X19138934Y858172D01*
X19149700Y842022D01*
X19158506Y824669D01*
X19165356Y806113D01*
X19170247Y786350D01*
X19173181Y765384D01*
X19174163Y743216D01*
X19173272Y722850D01*
X19170603Y703363D01*
X19166156Y684750D01*
X19159928Y667016D01*
X19151922Y650156D01*
X19142138Y634172D01*
X19130575Y619063D01*
X19117231Y604831D01*
X19102300Y591650D01*
X19085975Y579703D01*
X19068250Y568988D01*
X19049134Y559503D01*
X19028619Y551253D01*
X19006709Y544231D01*
X18983403Y538444D01*
X18958700Y533884D01*
X18985853Y370100D01*
X19025094Y378431D01*
G37*
G36*
X15776378Y9423888D02*
X15819078Y9427459D01*
X15860463Y9433413D01*
X15900531Y9441747D01*
X15939288Y9452463D01*
X15976731Y9465559D01*
X16012859Y9481038D01*
X16047675Y9498897D01*
X16080863Y9518994D01*
X16112106Y9541184D01*
X16141406Y9565469D01*
X16168763Y9591847D01*
X16194175Y9620319D01*
X16217647Y9650884D01*
X16239172Y9683547D01*
X16258756Y9718300D01*
X16276203Y9754847D01*
X16291328Y9792884D01*
X16304122Y9832413D01*
X16314591Y9873434D01*
X16322734Y9915947D01*
X16328550Y9959953D01*
X16332041Y10005450D01*
X16333203Y10052438D01*
X16332538Y10088159D01*
X16330541Y10122841D01*
X16327216Y10156488D01*
X16322556Y10189100D01*
X16316569Y10220672D01*
X16309247Y10251209D01*
X16300597Y10280709D01*
X16290616Y10309172D01*
X16279303Y10336600D01*
X16266659Y10362991D01*
X16252684Y10388344D01*
X16237378Y10412659D01*
X16220744Y10435941D01*
X16202775Y10458184D01*
X16183478Y10479391D01*
X16162850Y10499563D01*
X16140997Y10518600D01*
X16118025Y10536409D01*
X16093931Y10552991D01*
X16068722Y10568344D01*
X16042394Y10582469D01*
X16014947Y10595366D01*
X15986381Y10607034D01*
X15956697Y10617475D01*
X15925891Y10626684D01*
X15893969Y10634669D01*
X15860928Y10641425D01*
X15826769Y10646950D01*
X15791491Y10651250D01*
X15755091Y10654322D01*
X15717575Y10656163D01*
X15678941Y10656778D01*
X15270791Y10656778D01*
X15270791Y9422700D01*
X15732369Y9422700D01*
X15776378Y9423888D01*
G37*
%LPC*%
G36*
X15438081Y9556703D02*
X15438081Y10522772D01*
X15675438Y10522772D01*
X15733238Y10520891D01*
X15787519Y10515244D01*
X15838284Y10505838D01*
X15885531Y10492666D01*
X15929263Y10475728D01*
X15969478Y10455031D01*
X16006175Y10430569D01*
X16039353Y10402341D01*
X16068813Y10370531D01*
X16094341Y10335313D01*
X16115944Y10296684D01*
X16133619Y10254650D01*
X16147366Y10209209D01*
X16157184Y10160359D01*
X16163075Y10108103D01*
X16165041Y10052438D01*
X16164178Y10014969D01*
X16161591Y9978756D01*
X16157281Y9943803D01*
X16151244Y9910113D01*
X16143484Y9877678D01*
X16134000Y9846503D01*
X16122794Y9816588D01*
X16109859Y9787931D01*
X16095319Y9760725D01*
X16079288Y9735159D01*
X16061763Y9711238D01*
X16042747Y9688959D01*
X16022241Y9668322D01*
X16000241Y9649325D01*
X15976750Y9631972D01*
X15951769Y9616263D01*
X15925528Y9602303D01*
X15898259Y9590206D01*
X15869966Y9579969D01*
X15840644Y9571594D01*
X15810297Y9565078D01*
X15778925Y9560425D01*
X15746525Y9557634D01*
X15713100Y9556703D01*
X15438081Y9556703D01*
G37*
%LPD*%
G36*
X15046116Y9559331D02*
X14241206Y9559331D01*
X14241206Y9989375D01*
X14957653Y9989375D01*
X14957653Y10124259D01*
X14241206Y10124259D01*
X14241206Y10520144D01*
X15010206Y10520144D01*
X15010206Y10656778D01*
X14073916Y10656778D01*
X14073916Y9422700D01*
X15046116Y9422700D01*
X15046116Y9559331D01*
G37*
G36*
X17330538Y9556703D02*
X17030119Y9556703D01*
X17030119Y10656778D01*
X16884725Y10656778D01*
X16593066Y10456206D01*
X16593066Y10307313D01*
X16871588Y10506131D01*
X16871588Y9556703D01*
X16557156Y9556703D01*
X16557156Y9422700D01*
X17330538Y9422700D01*
X17330538Y9556703D01*
G37*
G36*
X13867938Y9559331D02*
X13244331Y9559331D01*
X13244331Y10656778D01*
X13077041Y10656778D01*
X13077041Y9422700D01*
X13867938Y9422700D01*
X13867938Y9559331D01*
G37*
G36*
X20085600Y41090769D02*
X20084413Y41134778D01*
X20080841Y41177478D01*
X20074888Y41218863D01*
X20066553Y41258931D01*
X20055838Y41297688D01*
X20042741Y41335131D01*
X20027263Y41371259D01*
X20009403Y41406075D01*
X19989306Y41439263D01*
X19967116Y41470506D01*
X19942831Y41499806D01*
X19916453Y41527163D01*
X19887981Y41552575D01*
X19857416Y41576047D01*
X19824753Y41597572D01*
X19790000Y41617156D01*
X19753453Y41634603D01*
X19715416Y41649728D01*
X19675888Y41662522D01*
X19634866Y41672991D01*
X19592353Y41681134D01*
X19548347Y41686950D01*
X19502850Y41690441D01*
X19455863Y41691603D01*
X19420141Y41690938D01*
X19385459Y41688941D01*
X19351813Y41685616D01*
X19319200Y41680956D01*
X19287628Y41674969D01*
X19257091Y41667647D01*
X19227591Y41658997D01*
X19199128Y41649016D01*
X19171700Y41637703D01*
X19145309Y41625059D01*
X19119956Y41611084D01*
X19095641Y41595778D01*
X19072359Y41579144D01*
X19050116Y41561175D01*
X19028909Y41541878D01*
X19008738Y41521250D01*
X18989700Y41499397D01*
X18971891Y41476425D01*
X18955309Y41452331D01*
X18939956Y41427122D01*
X18925831Y41400794D01*
X18912934Y41373347D01*
X18901266Y41344781D01*
X18890825Y41315097D01*
X18881616Y41284291D01*
X18873631Y41252369D01*
X18866875Y41219328D01*
X18861350Y41185169D01*
X18857050Y41149891D01*
X18853978Y41113491D01*
X18852138Y41075975D01*
X18851522Y41037341D01*
X18851522Y40629191D01*
X20085600Y40629191D01*
X20085600Y41090769D01*
G37*
%LPC*%
G36*
X18985528Y40796481D02*
X18985528Y41033838D01*
X18987409Y41091638D01*
X18993056Y41145919D01*
X19002463Y41196684D01*
X19015634Y41243931D01*
X19032572Y41287663D01*
X19053269Y41327878D01*
X19077731Y41364575D01*
X19105959Y41397753D01*
X19137769Y41427213D01*
X19172988Y41452741D01*
X19211616Y41474344D01*
X19253650Y41492019D01*
X19299091Y41505766D01*
X19347941Y41515584D01*
X19400197Y41521475D01*
X19455863Y41523441D01*
X19493331Y41522578D01*
X19529544Y41519991D01*
X19564497Y41515681D01*
X19598188Y41509644D01*
X19630622Y41501884D01*
X19661797Y41492400D01*
X19691713Y41481194D01*
X19720369Y41468259D01*
X19747575Y41453719D01*
X19773141Y41437688D01*
X19797063Y41420163D01*
X19819341Y41401147D01*
X19839978Y41380641D01*
X19858975Y41358641D01*
X19876328Y41335150D01*
X19892038Y41310169D01*
X19905997Y41283928D01*
X19918094Y41256659D01*
X19928331Y41228366D01*
X19936706Y41199044D01*
X19943222Y41168697D01*
X19947875Y41137325D01*
X19950666Y41104925D01*
X19951597Y41071500D01*
X19951597Y40796481D01*
X18985528Y40796481D01*
G37*
%LPD*%
G36*
X20085600Y40404516D02*
X19948969Y40404516D01*
X19948969Y39599606D01*
X19518925Y39599606D01*
X19518925Y40316053D01*
X19384041Y40316053D01*
X19384041Y39599606D01*
X18988156Y39599606D01*
X18988156Y40368606D01*
X18851522Y40368606D01*
X18851522Y39432316D01*
X20085600Y39432316D01*
X20085600Y40404516D01*
G37*
G36*
X20085600Y42686309D02*
X19951597Y42686309D01*
X19951597Y42042556D01*
X19920641Y42057775D01*
X19889081Y42077153D01*
X19856922Y42100691D01*
X19824159Y42128391D01*
X19790081Y42160741D01*
X19753981Y42198238D01*
X19715853Y42240881D01*
X19675703Y42288672D01*
X19606125Y42372806D01*
X19546294Y42442166D01*
X19496206Y42496741D01*
X19455863Y42536538D01*
X19420391Y42566947D01*
X19384919Y42593359D01*
X19349447Y42615775D01*
X19313975Y42634197D01*
X19278447Y42648566D01*
X19242809Y42658828D01*
X19207066Y42664988D01*
X19171209Y42667041D01*
X19131856Y42665472D01*
X19094819Y42660772D01*
X19060094Y42652938D01*
X19027678Y42641969D01*
X18997578Y42627866D01*
X18969791Y42610628D01*
X18944316Y42590259D01*
X18921153Y42566753D01*
X18900522Y42540334D01*
X18882644Y42511219D01*
X18867513Y42479409D01*
X18855134Y42444900D01*
X18845509Y42407697D01*
X18838631Y42367800D01*
X18834506Y42325203D01*
X18833128Y42279913D01*
X18834497Y42238397D01*
X18838603Y42198813D01*
X18845447Y42161159D01*
X18855025Y42125434D01*
X18867344Y42091638D01*
X18882397Y42059772D01*
X18900188Y42029834D01*
X18920716Y42001828D01*
X18943556Y41976203D01*
X18968284Y41953409D01*
X18994903Y41933450D01*
X19023409Y41916322D01*
X19053803Y41902028D01*
X19086088Y41890569D01*
X19120259Y41881938D01*
X19156319Y41876144D01*
X19171209Y42037300D01*
X19147156Y42040988D01*
X19124488Y42046359D01*
X19103200Y42053416D01*
X19083297Y42062153D01*
X19064772Y42072575D01*
X19047631Y42084678D01*
X19031872Y42098466D01*
X19017497Y42113938D01*
X19004666Y42130806D01*
X18993547Y42148781D01*
X18984141Y42167866D01*
X18976441Y42188056D01*
X18970453Y42209359D01*
X18966178Y42231769D01*
X18963613Y42255284D01*
X18962756Y42279913D01*
X18963631Y42305681D01*
X18966259Y42330000D01*
X18970638Y42352869D01*
X18976769Y42374284D01*
X18984653Y42394253D01*
X18994288Y42412769D01*
X19005672Y42429834D01*
X19018809Y42445450D01*
X19033538Y42459406D01*
X19049684Y42471506D01*
X19067256Y42481741D01*
X19086253Y42490119D01*
X19106669Y42496631D01*
X19128513Y42501284D01*
X19151775Y42504075D01*
X19176466Y42505006D01*
X19213141Y42502844D01*
X19247847Y42496356D01*
X19280581Y42485547D01*
X19311347Y42470409D01*
X19340797Y42451772D01*
X19369591Y42430450D01*
X19397728Y42406447D01*
X19425206Y42379759D01*
X19479509Y42320313D01*
X19533813Y42254075D01*
X19590416Y42184116D01*
X19651616Y42113500D01*
X19684297Y42078438D01*
X19718838Y42044197D01*
X19755241Y42010778D01*
X19793503Y41978181D01*
X19834203Y41947225D01*
X19877916Y41918731D01*
X19924634Y41892703D01*
X19974369Y41869138D01*
X20085600Y41869138D01*
X20085600Y42686309D01*
G37*
G36*
X20085600Y39226338D02*
X19948969Y39226338D01*
X19948969Y38602731D01*
X18851522Y38602731D01*
X18851522Y38435441D01*
X20085600Y38435441D01*
X20085600Y39226338D01*
G37*
G36*
X9487400Y10768381D02*
X8975028Y10768381D01*
X8975028Y11152881D01*
X9487400Y11473444D01*
X9487400Y11666131D01*
X9182075Y11464928D01*
X8955759Y11315791D01*
X8948547Y11350091D01*
X8939172Y11382491D01*
X8927634Y11412988D01*
X8913934Y11441584D01*
X8904663Y11457191D01*
X8898075Y11468278D01*
X8880050Y11493069D01*
X8859866Y11515956D01*
X8837519Y11536944D01*
X8813403Y11555725D01*
X8787922Y11572003D01*
X8761072Y11585778D01*
X8732853Y11597047D01*
X8703266Y11605813D01*
X8672309Y11612075D01*
X8639984Y11615831D01*
X8606291Y11617084D01*
X8565831Y11615313D01*
X8527656Y11609994D01*
X8491766Y11601134D01*
X8458163Y11588728D01*
X8426844Y11572778D01*
X8397813Y11553281D01*
X8371063Y11530244D01*
X8346600Y11503659D01*
X8324738Y11473819D01*
X8305791Y11441009D01*
X8289759Y11405228D01*
X8276644Y11366478D01*
X8266441Y11324759D01*
X8259153Y11280072D01*
X8254781Y11232413D01*
X8253322Y11181784D01*
X8253322Y10601091D01*
X9487400Y10601091D01*
X9487400Y10768381D01*
G37*
%LPC*%
G36*
X8387328Y10768381D02*
X8387328Y11165144D01*
X8388213Y11198513D01*
X8390859Y11229872D01*
X8395272Y11259222D01*
X8401450Y11286556D01*
X8409397Y11311881D01*
X8419106Y11335194D01*
X8430581Y11356497D01*
X8443822Y11375784D01*
X8458744Y11392925D01*
X8475269Y11407781D01*
X8493397Y11420350D01*
X8513122Y11430634D01*
X8534450Y11438634D01*
X8557381Y11444347D01*
X8581913Y11447775D01*
X8608044Y11448919D01*
X8635078Y11447791D01*
X8660569Y11444403D01*
X8684509Y11438759D01*
X8706906Y11430853D01*
X8727756Y11420694D01*
X8747059Y11408275D01*
X8764816Y11393597D01*
X8781025Y11376663D01*
X8795497Y11357659D01*
X8808041Y11336781D01*
X8818653Y11314031D01*
X8827334Y11289403D01*
X8834091Y11262903D01*
X8838913Y11234525D01*
X8841809Y11204275D01*
X8842772Y11172150D01*
X8842772Y10768381D01*
X8387328Y10768381D01*
G37*
%LPD*%
G36*
X9487400Y12660838D02*
X9353397Y12660838D01*
X9353397Y12360419D01*
X8253322Y12360419D01*
X8253322Y12215025D01*
X8453894Y11923366D01*
X8602788Y11923366D01*
X8403969Y12201888D01*
X9353397Y12201888D01*
X9353397Y11887456D01*
X9487400Y11887456D01*
X9487400Y12660838D01*
G37*
G36*
X12008131Y41326972D02*
X12392631Y41326972D01*
X12713194Y40814600D01*
X12905881Y40814600D01*
X12704678Y41119925D01*
X12555541Y41346241D01*
X12589841Y41353453D01*
X12622241Y41362828D01*
X12652738Y41374366D01*
X12681334Y41388066D01*
X12696941Y41397338D01*
X12708028Y41403925D01*
X12732819Y41421950D01*
X12755706Y41442134D01*
X12776694Y41464481D01*
X12795475Y41488597D01*
X12811753Y41514078D01*
X12825528Y41540928D01*
X12836797Y41569147D01*
X12845563Y41598734D01*
X12851825Y41629691D01*
X12855581Y41662016D01*
X12856834Y41695709D01*
X12855063Y41736169D01*
X12849744Y41774344D01*
X12840884Y41810234D01*
X12828478Y41843838D01*
X12812528Y41875156D01*
X12793031Y41904188D01*
X12769994Y41930938D01*
X12743409Y41955400D01*
X12713569Y41977263D01*
X12680759Y41996209D01*
X12644978Y42012241D01*
X12606228Y42025356D01*
X12564509Y42035559D01*
X12519822Y42042847D01*
X12472163Y42047219D01*
X12421534Y42048678D01*
X11840841Y42048678D01*
X11840841Y40814600D01*
X12008131Y40814600D01*
X12008131Y41326972D01*
G37*
%LPC*%
G36*
X12008131Y41459228D02*
X12008131Y41914672D01*
X12404894Y41914672D01*
X12438263Y41913788D01*
X12469622Y41911141D01*
X12498972Y41906728D01*
X12526306Y41900550D01*
X12551631Y41892603D01*
X12574944Y41882894D01*
X12596247Y41871419D01*
X12615534Y41858178D01*
X12632675Y41843256D01*
X12647531Y41826731D01*
X12660100Y41808603D01*
X12670384Y41788878D01*
X12678384Y41767550D01*
X12684097Y41744619D01*
X12687525Y41720088D01*
X12688669Y41693956D01*
X12687541Y41666922D01*
X12684153Y41641431D01*
X12678509Y41617491D01*
X12670603Y41595094D01*
X12660444Y41574244D01*
X12648025Y41554941D01*
X12633347Y41537184D01*
X12616413Y41520975D01*
X12597409Y41506503D01*
X12576531Y41493959D01*
X12553781Y41483347D01*
X12529153Y41474666D01*
X12502653Y41467909D01*
X12474275Y41463088D01*
X12444025Y41460191D01*
X12411900Y41459228D01*
X12008131Y41459228D01*
G37*
%LPD*%
G36*
X13897959Y40948603D02*
X13254206Y40948603D01*
X13269425Y40979559D01*
X13288803Y41011119D01*
X13312341Y41043278D01*
X13340041Y41076041D01*
X13372391Y41110119D01*
X13409888Y41146219D01*
X13452531Y41184347D01*
X13500322Y41224497D01*
X13584456Y41294075D01*
X13653816Y41353906D01*
X13708391Y41403994D01*
X13748188Y41444338D01*
X13778597Y41479809D01*
X13805009Y41515281D01*
X13827425Y41550753D01*
X13845847Y41586225D01*
X13860216Y41621753D01*
X13870478Y41657391D01*
X13876638Y41693134D01*
X13878691Y41728991D01*
X13877122Y41768344D01*
X13872422Y41805381D01*
X13864588Y41840106D01*
X13853619Y41872522D01*
X13839516Y41902622D01*
X13822278Y41930409D01*
X13801909Y41955884D01*
X13778403Y41979047D01*
X13751984Y41999678D01*
X13722869Y42017556D01*
X13691059Y42032688D01*
X13656550Y42045066D01*
X13619347Y42054691D01*
X13579450Y42061569D01*
X13536853Y42065694D01*
X13491563Y42067072D01*
X13450047Y42065703D01*
X13410463Y42061597D01*
X13372809Y42054753D01*
X13337084Y42045175D01*
X13303288Y42032856D01*
X13271422Y42017803D01*
X13241484Y42000013D01*
X13213478Y41979484D01*
X13187853Y41956644D01*
X13165059Y41931916D01*
X13145100Y41905297D01*
X13127972Y41876791D01*
X13113678Y41846397D01*
X13102219Y41814113D01*
X13093588Y41779941D01*
X13087794Y41743881D01*
X13248950Y41728991D01*
X13252638Y41753044D01*
X13258009Y41775713D01*
X13265066Y41797000D01*
X13273803Y41816903D01*
X13284225Y41835428D01*
X13296328Y41852569D01*
X13310116Y41868328D01*
X13325588Y41882703D01*
X13342456Y41895534D01*
X13360431Y41906653D01*
X13379516Y41916059D01*
X13399706Y41923759D01*
X13421009Y41929747D01*
X13443419Y41934022D01*
X13466934Y41936588D01*
X13491563Y41937444D01*
X13517331Y41936569D01*
X13541650Y41933941D01*
X13564519Y41929563D01*
X13585934Y41923431D01*
X13605903Y41915547D01*
X13624419Y41905913D01*
X13641484Y41894528D01*
X13657100Y41881391D01*
X13671056Y41866663D01*
X13683156Y41850516D01*
X13693391Y41832944D01*
X13701769Y41813947D01*
X13708281Y41793531D01*
X13712934Y41771688D01*
X13715725Y41748425D01*
X13716656Y41723734D01*
X13714494Y41687059D01*
X13708006Y41652353D01*
X13697197Y41619619D01*
X13682059Y41588853D01*
X13663422Y41559403D01*
X13642100Y41530609D01*
X13618097Y41502472D01*
X13591409Y41474994D01*
X13531963Y41420691D01*
X13465725Y41366388D01*
X13395766Y41309784D01*
X13325150Y41248584D01*
X13290088Y41215903D01*
X13255847Y41181363D01*
X13222428Y41144959D01*
X13189831Y41106697D01*
X13158875Y41065997D01*
X13130381Y41022284D01*
X13104353Y40975566D01*
X13080788Y40925831D01*
X13080788Y40814600D01*
X13897959Y40814600D01*
X13897959Y40948603D01*
G37*
G36*
X11817400Y11692131D02*
X11305028Y11692131D01*
X11305028Y12076631D01*
X11817400Y12397194D01*
X11817400Y12589881D01*
X11512075Y12388678D01*
X11285759Y12239541D01*
X11278547Y12273841D01*
X11269172Y12306241D01*
X11257634Y12336738D01*
X11243934Y12365334D01*
X11234663Y12380941D01*
X11228075Y12392028D01*
X11210050Y12416819D01*
X11189866Y12439706D01*
X11167519Y12460694D01*
X11143403Y12479475D01*
X11117922Y12495753D01*
X11091072Y12509528D01*
X11062853Y12520797D01*
X11033266Y12529563D01*
X11002309Y12535825D01*
X10969984Y12539581D01*
X10936291Y12540834D01*
X10895831Y12539063D01*
X10857656Y12533744D01*
X10821766Y12524884D01*
X10788163Y12512478D01*
X10756844Y12496528D01*
X10727813Y12477031D01*
X10701063Y12453994D01*
X10676600Y12427409D01*
X10654738Y12397569D01*
X10635791Y12364759D01*
X10619759Y12328978D01*
X10606644Y12290228D01*
X10596441Y12248509D01*
X10589153Y12203822D01*
X10584781Y12156163D01*
X10583322Y12105534D01*
X10583322Y11524841D01*
X11817400Y11524841D01*
X11817400Y11692131D01*
G37*
%LPC*%
G36*
X10717328Y11692131D02*
X10717328Y12088894D01*
X10718213Y12122263D01*
X10720859Y12153622D01*
X10725272Y12182972D01*
X10731450Y12210306D01*
X10739397Y12235631D01*
X10749106Y12258944D01*
X10760581Y12280247D01*
X10773822Y12299534D01*
X10788744Y12316675D01*
X10805269Y12331531D01*
X10823397Y12344100D01*
X10843122Y12354384D01*
X10864450Y12362384D01*
X10887381Y12368097D01*
X10911913Y12371525D01*
X10938044Y12372669D01*
X10965078Y12371541D01*
X10990569Y12368153D01*
X11014509Y12362509D01*
X11036906Y12354603D01*
X11057756Y12344444D01*
X11077059Y12332025D01*
X11094816Y12317347D01*
X11111025Y12300413D01*
X11125497Y12281409D01*
X11138041Y12260531D01*
X11148653Y12237781D01*
X11157334Y12213153D01*
X11164091Y12186653D01*
X11168913Y12158275D01*
X11171809Y12128025D01*
X11172772Y12095900D01*
X11172772Y11692131D01*
X10717328Y11692131D01*
G37*
%LPD*%
G36*
X11540459Y12749563D02*
X11578047Y12759066D01*
X11613103Y12771403D01*
X11645625Y12786572D01*
X11675616Y12804575D01*
X11703075Y12825413D01*
X11728003Y12849081D01*
X11750400Y12875581D01*
X11770209Y12904684D01*
X11787375Y12936153D01*
X11801903Y12969991D01*
X11813788Y13006194D01*
X11823031Y13044766D01*
X11829634Y13085706D01*
X11833594Y13129013D01*
X11834916Y13174688D01*
X11833450Y13223597D01*
X11829059Y13269606D01*
X11821738Y13312716D01*
X11811491Y13352922D01*
X11798309Y13390228D01*
X11782203Y13424634D01*
X11763166Y13456138D01*
X11741203Y13484738D01*
X11716569Y13510194D01*
X11689528Y13532253D01*
X11660075Y13550922D01*
X11628216Y13566194D01*
X11593950Y13578072D01*
X11557272Y13586556D01*
X11518188Y13591647D01*
X11476694Y13593344D01*
X11447763Y13592141D01*
X11420091Y13588528D01*
X11393678Y13582506D01*
X11368525Y13574075D01*
X11344631Y13563238D01*
X11321997Y13549991D01*
X11300619Y13534334D01*
X11280503Y13516269D01*
X11262000Y13496044D01*
X11245469Y13473900D01*
X11230906Y13449841D01*
X11218316Y13423866D01*
X11207697Y13395975D01*
X11199047Y13366169D01*
X11192369Y13334447D01*
X11187663Y13300809D01*
X11184159Y13300809D01*
X11176844Y13331403D01*
X11168038Y13360122D01*
X11157741Y13386966D01*
X11145950Y13411934D01*
X11132669Y13435028D01*
X11117894Y13456247D01*
X11101631Y13475591D01*
X11083872Y13493059D01*
X11064681Y13508559D01*
X11044103Y13521991D01*
X11022147Y13533356D01*
X10998806Y13542656D01*
X10974084Y13549888D01*
X10947978Y13555053D01*
X10920494Y13558153D01*
X10891622Y13559188D01*
X10854147Y13557578D01*
X10818791Y13552753D01*
X10785556Y13544716D01*
X10754444Y13533459D01*
X10725450Y13518988D01*
X10698578Y13501297D01*
X10673831Y13480394D01*
X10651200Y13456275D01*
X10630981Y13429253D01*
X10613456Y13399644D01*
X10598628Y13367450D01*
X10586497Y13332669D01*
X10577063Y13295300D01*
X10570322Y13255347D01*
X10566278Y13212806D01*
X10564928Y13167678D01*
X10566256Y13126166D01*
X10570241Y13086581D01*
X10576878Y13048925D01*
X10586169Y13013200D01*
X10598116Y12979406D01*
X10612719Y12947538D01*
X10629975Y12917603D01*
X10649888Y12889597D01*
X10672166Y12863969D01*
X10696528Y12841178D01*
X10722966Y12821219D01*
X10751488Y12804091D01*
X10782088Y12789797D01*
X10814766Y12778334D01*
X10849528Y12769706D01*
X10886369Y12763909D01*
X10898631Y12922441D01*
X10875009Y12925909D01*
X10852756Y12931063D01*
X10831875Y12937897D01*
X10812359Y12946416D01*
X10794213Y12956619D01*
X10777434Y12968506D01*
X10762025Y12982075D01*
X10747984Y12997325D01*
X10735463Y13014044D01*
X10724609Y13032003D01*
X10715425Y13051213D01*
X10707913Y13071663D01*
X10702069Y13093363D01*
X10697894Y13116306D01*
X10695391Y13140494D01*
X10694556Y13165928D01*
X10695453Y13193728D01*
X10698141Y13219766D01*
X10702625Y13244038D01*
X10708897Y13266541D01*
X10716966Y13287281D01*
X10726825Y13306256D01*
X10738478Y13323466D01*
X10751925Y13338909D01*
X10766916Y13352559D01*
X10783209Y13364391D01*
X10800800Y13374403D01*
X10819694Y13382594D01*
X10839888Y13388963D01*
X10861378Y13393513D01*
X10884172Y13396244D01*
X10908266Y13397153D01*
X10932550Y13396038D01*
X10955478Y13392691D01*
X10977053Y13387116D01*
X10997272Y13379309D01*
X11016138Y13369269D01*
X11033650Y13357000D01*
X11049803Y13342500D01*
X11064603Y13325772D01*
X11077844Y13307016D01*
X11089319Y13286441D01*
X11099031Y13264044D01*
X11106975Y13239828D01*
X11113153Y13213791D01*
X11117566Y13185934D01*
X11120216Y13156259D01*
X11121097Y13124763D01*
X11121097Y13038928D01*
X11257731Y13038928D01*
X11257731Y13128266D01*
X11258613Y13163759D01*
X11261263Y13197103D01*
X11265675Y13228297D01*
X11271853Y13257344D01*
X11279797Y13284244D01*
X11289506Y13308994D01*
X11300981Y13331594D01*
X11314222Y13352047D01*
X11329038Y13370213D01*
X11345234Y13385959D01*
X11362813Y13399281D01*
X11381772Y13410181D01*
X11402116Y13418659D01*
X11423841Y13424716D01*
X11446950Y13428350D01*
X11471438Y13429559D01*
X11499453Y13428500D01*
X11525688Y13425319D01*
X11550144Y13420016D01*
X11572819Y13412591D01*
X11593716Y13403044D01*
X11612834Y13391378D01*
X11630175Y13377591D01*
X11645734Y13361681D01*
X11659488Y13343913D01*
X11671406Y13324541D01*
X11681494Y13303566D01*
X11689747Y13280994D01*
X11696166Y13256819D01*
X11700750Y13231041D01*
X11703500Y13203666D01*
X11704416Y13174688D01*
X11703563Y13145822D01*
X11700994Y13118563D01*
X11696719Y13092913D01*
X11690731Y13068872D01*
X11683034Y13046438D01*
X11673625Y13025613D01*
X11662506Y13006397D01*
X11649675Y12988788D01*
X11635134Y12972784D01*
X11618884Y12958391D01*
X11600922Y12945606D01*
X11581250Y12934428D01*
X11559866Y12924859D01*
X11536772Y12916897D01*
X11511969Y12910544D01*
X11485453Y12905800D01*
X11500344Y12742891D01*
X11540459Y12749563D01*
G37*
G36*
X10024756Y10692431D02*
X10092534Y10946434D01*
X10131141Y11116647D01*
X10166672Y10955428D01*
X10192556Y10852553D01*
X10406638Y10067300D01*
X10606678Y10067300D01*
X10970794Y11303528D01*
X10796194Y11303528D01*
X10618744Y10665125D01*
X10549650Y10409916D01*
X10511044Y10245406D01*
X10503150Y10214697D01*
X10469809Y10359906D01*
X10425941Y10534066D01*
X10210981Y11303528D01*
X10050422Y11303528D01*
X9881634Y10701863D01*
X9832528Y10522934D01*
X9806947Y10425269D01*
X9758253Y10214697D01*
X9723378Y10368678D01*
X9685431Y10518272D01*
X9463453Y11303528D01*
X9288853Y11303528D01*
X9652966Y10067300D01*
X9853009Y10067300D01*
X10024756Y10692431D01*
G37*
G36*
X8745403Y10051222D02*
X8801041Y10055622D01*
X8853266Y10062956D01*
X8902075Y10073222D01*
X8947475Y10086422D01*
X8989456Y10102559D01*
X9028028Y10121628D01*
X9063184Y10143631D01*
X9094544Y10168306D01*
X9121722Y10195397D01*
X9144719Y10224897D01*
X9163534Y10256813D01*
X9178169Y10291141D01*
X9188622Y10327881D01*
X9194894Y10367034D01*
X9196984Y10408600D01*
X9195806Y10441281D01*
X9192269Y10471772D01*
X9186375Y10500066D01*
X9178122Y10526169D01*
X9167784Y10550350D01*
X9155641Y10572888D01*
X9141684Y10593781D01*
X9125919Y10613028D01*
X9108506Y10630741D01*
X9089616Y10647028D01*
X9069244Y10661888D01*
X9047394Y10675322D01*
X9000563Y10699122D01*
X8950441Y10719631D01*
X8897469Y10737178D01*
X8842084Y10752094D01*
X8728466Y10778853D01*
X8650431Y10796978D01*
X8586547Y10813619D01*
X8536813Y10828781D01*
X8501222Y10842463D01*
X8474381Y10856119D01*
X8450884Y10871197D01*
X8430731Y10887703D01*
X8413925Y10905634D01*
X8400681Y10925513D01*
X8391222Y10947859D01*
X8385547Y10972672D01*
X8383653Y10999953D01*
X8384875Y11023547D01*
X8388534Y11045631D01*
X8394634Y11066209D01*
X8403175Y11085278D01*
X8414156Y11102841D01*
X8427578Y11118894D01*
X8443441Y11133438D01*
X8461741Y11146475D01*
X8482359Y11157991D01*
X8505172Y11167972D01*
X8530178Y11176416D01*
X8557375Y11183325D01*
X8586769Y11188700D01*
X8618353Y11192538D01*
X8652131Y11194841D01*
X8688106Y11195609D01*
X8720966Y11194919D01*
X8751991Y11192841D01*
X8781175Y11189378D01*
X8808525Y11184531D01*
X8834038Y11178303D01*
X8857713Y11170688D01*
X8879553Y11161688D01*
X8899553Y11151303D01*
X8917869Y11139381D01*
X8934650Y11125775D01*
X8949894Y11110484D01*
X8963603Y11093503D01*
X8975775Y11074841D01*
X8986416Y11054488D01*
X8995516Y11032450D01*
X9003084Y11008728D01*
X9168031Y11037681D01*
X9155803Y11075088D01*
X9141491Y11109653D01*
X9125094Y11141384D01*
X9106616Y11170275D01*
X9086053Y11196328D01*
X9063403Y11219547D01*
X9038672Y11239925D01*
X9011859Y11257466D01*
X8982453Y11272578D01*
X8949947Y11285678D01*
X8914347Y11296763D01*
X8875644Y11305831D01*
X8833847Y11312884D01*
X8788950Y11317922D01*
X8740953Y11320944D01*
X8689859Y11321953D01*
X8634906Y11320609D01*
X8583231Y11316578D01*
X8534831Y11309863D01*
X8489706Y11300456D01*
X8447859Y11288366D01*
X8409291Y11273588D01*
X8373997Y11256122D01*
X8341978Y11235969D01*
X8313497Y11213334D01*
X8288816Y11188425D01*
X8267928Y11161241D01*
X8250841Y11131781D01*
X8237550Y11100044D01*
X8228056Y11066031D01*
X8222359Y11029744D01*
X8220463Y10991181D01*
X8221916Y10957509D01*
X8226275Y10925816D01*
X8233541Y10896094D01*
X8243713Y10868347D01*
X8256625Y10842438D01*
X8272116Y10818225D01*
X8290184Y10795716D01*
X8310831Y10774906D01*
X8334769Y10755413D01*
X8362706Y10736850D01*
X8394650Y10719219D01*
X8430594Y10702522D01*
X8472956Y10686291D01*
X8524144Y10670059D01*
X8584163Y10653828D01*
X8653009Y10637597D01*
X8806550Y10601622D01*
X8840000Y10592794D01*
X8871038Y10582978D01*
X8899663Y10572175D01*
X8925875Y10560388D01*
X8949481Y10547281D01*
X8970294Y10532528D01*
X8988306Y10516134D01*
X9003522Y10498094D01*
X9015616Y10477803D01*
X9024250Y10454663D01*
X9029434Y10428669D01*
X9031159Y10399825D01*
X9029784Y10373663D01*
X9025650Y10349128D01*
X9018759Y10326228D01*
X9009116Y10304959D01*
X8996716Y10285322D01*
X8981563Y10267313D01*
X8963650Y10250938D01*
X8942984Y10236194D01*
X8919781Y10223138D01*
X8894263Y10211819D01*
X8866425Y10202244D01*
X8836272Y10194409D01*
X8803803Y10188316D01*
X8769016Y10183963D01*
X8731913Y10181350D01*
X8692491Y10180481D01*
X8654256Y10181297D01*
X8618078Y10183744D01*
X8583956Y10187822D01*
X8551891Y10193531D01*
X8521881Y10200872D01*
X8493931Y10209847D01*
X8468034Y10220450D01*
X8444194Y10232684D01*
X8422369Y10246663D01*
X8402519Y10262488D01*
X8384641Y10280166D01*
X8368738Y10299694D01*
X8354809Y10321075D01*
X8342856Y10344303D01*
X8332875Y10369384D01*
X8324869Y10396316D01*
X8162553Y10363853D01*
X8173031Y10325819D01*
X8186475Y10290234D01*
X8202891Y10257106D01*
X8222272Y10226434D01*
X8244619Y10198213D01*
X8269938Y10172447D01*
X8298222Y10149134D01*
X8329475Y10128275D01*
X8363697Y10109872D01*
X8400888Y10093922D01*
X8441044Y10080425D01*
X8484169Y10069381D01*
X8530263Y10060797D01*
X8579325Y10054663D01*
X8631353Y10050981D01*
X8686350Y10049753D01*
X8745403Y10051222D01*
G37*
G36*
X11889431Y10201538D02*
X11588491Y10201538D01*
X11588491Y11303528D01*
X11442844Y11303528D01*
X11150678Y11102606D01*
X11150678Y10953453D01*
X11429684Y11152619D01*
X11429684Y10201538D01*
X11114703Y10201538D01*
X11114703Y10067300D01*
X11889431Y10067300D01*
X11889431Y10201538D01*
G37*
G36*
X7243672Y20102206D02*
X7278194Y20105128D01*
X7311450Y20109994D01*
X7343447Y20116806D01*
X7374184Y20125569D01*
X7403656Y20136275D01*
X7431872Y20148928D01*
X7458822Y20163528D01*
X7484363Y20179897D01*
X7508341Y20197856D01*
X7530753Y20217403D01*
X7551606Y20238544D01*
X7570894Y20261275D01*
X7588622Y20285594D01*
X7604784Y20311503D01*
X7619384Y20339003D01*
X7632338Y20367903D01*
X7643566Y20398009D01*
X7653066Y20429319D01*
X7660838Y20461838D01*
X7666881Y20495563D01*
X7671200Y20530494D01*
X7673791Y20566628D01*
X7674656Y20603972D01*
X7673756Y20642803D01*
X7671063Y20680331D01*
X7666575Y20716559D01*
X7660288Y20751481D01*
X7652209Y20785103D01*
X7642331Y20817422D01*
X7630659Y20848441D01*
X7617191Y20878153D01*
X7602022Y20906394D01*
X7585247Y20932991D01*
X7566872Y20957941D01*
X7546891Y20981247D01*
X7525306Y21002906D01*
X7502116Y21022922D01*
X7477322Y21041291D01*
X7450925Y21058019D01*
X7423084Y21072925D01*
X7393953Y21085847D01*
X7363531Y21096778D01*
X7331822Y21105725D01*
X7298825Y21112681D01*
X7264538Y21117653D01*
X7228963Y21120634D01*
X7192100Y21121628D01*
X6420881Y21121628D01*
X6420881Y20954925D01*
X7182447Y20954925D01*
X7224788Y20953478D01*
X7264509Y20949141D01*
X7301616Y20941909D01*
X7336100Y20931784D01*
X7367966Y20918769D01*
X7397216Y20902859D01*
X7423844Y20884056D01*
X7447856Y20862363D01*
X7469138Y20838063D01*
X7487584Y20811447D01*
X7503194Y20782513D01*
X7515963Y20751263D01*
X7525894Y20717697D01*
X7532988Y20681813D01*
X7537247Y20643613D01*
X7538666Y20603097D01*
X7537294Y20563709D01*
X7533181Y20526709D01*
X7526325Y20492094D01*
X7516731Y20459863D01*
X7504391Y20430019D01*
X7489313Y20402559D01*
X7471491Y20377484D01*
X7450925Y20354797D01*
X7427716Y20334644D01*
X7401956Y20317178D01*
X7373650Y20302400D01*
X7342791Y20290309D01*
X7309381Y20280906D01*
X7273422Y20274188D01*
X7234913Y20270156D01*
X7193853Y20268813D01*
X6420881Y20268813D01*
X6420881Y20101234D01*
X7207891Y20101234D01*
X7243672Y20102206D01*
G37*
G36*
X7657109Y22171081D02*
X7522872Y22171081D01*
X7522872Y21870141D01*
X6420881Y21870141D01*
X6420881Y21724494D01*
X6621803Y21432328D01*
X6770956Y21432328D01*
X6571791Y21711334D01*
X7522872Y21711334D01*
X7522872Y21396353D01*
X7657109Y21396353D01*
X7657109Y22171081D01*
G37*
G36*
X9483563Y16068747D02*
X9960859Y16792588D01*
X9776609Y16792588D01*
X9401969Y16203866D01*
X9025572Y16792588D01*
X8841322Y16792588D01*
X9316863Y16068747D01*
X9316863Y15556359D01*
X9483563Y15556359D01*
X9483563Y16068747D01*
G37*
G36*
X10913438Y15690597D02*
X10612497Y15690597D01*
X10612497Y16792588D01*
X10466850Y16792588D01*
X10174684Y16591666D01*
X10174684Y16442513D01*
X10453691Y16641678D01*
X10453691Y15690597D01*
X10138709Y15690597D01*
X10138709Y15556359D01*
X10913438Y15556359D01*
X10913438Y15690597D01*
G37*
G36*
X12582909Y38689078D02*
X12629691Y38692425D01*
X12674819Y38698000D01*
X12718288Y38705809D01*
X12760103Y38715847D01*
X12800263Y38728116D01*
X12838766Y38742616D01*
X12875616Y38759344D01*
X12910594Y38778203D01*
X12943494Y38799088D01*
X12974313Y38821997D01*
X13003050Y38846931D01*
X13029709Y38873891D01*
X13054288Y38902875D01*
X13076788Y38933884D01*
X13097206Y38966922D01*
X13115372Y39001756D01*
X13131119Y39038169D01*
X13144441Y39076150D01*
X13155341Y39115706D01*
X13163816Y39156838D01*
X13169872Y39199544D01*
X13173503Y39243822D01*
X13174716Y39289675D01*
X13173416Y39334528D01*
X13169516Y39378000D01*
X13163016Y39420088D01*
X13153916Y39460794D01*
X13142216Y39500119D01*
X13127916Y39538063D01*
X13111013Y39574622D01*
X13091513Y39609800D01*
X13069522Y39643322D01*
X13045147Y39674913D01*
X13018394Y39704575D01*
X12989256Y39732309D01*
X12957741Y39758113D01*
X12923841Y39781988D01*
X12887563Y39803931D01*
X12848900Y39823947D01*
X12780584Y39687313D01*
X12811659Y39670497D01*
X12840731Y39652675D01*
X12867797Y39633847D01*
X12892856Y39614016D01*
X12915913Y39593175D01*
X12936966Y39571331D01*
X12956013Y39548478D01*
X12973053Y39524622D01*
X12988091Y39499759D01*
X13001122Y39473891D01*
X13012147Y39447016D01*
X13021172Y39419138D01*
X13028188Y39390250D01*
X13033200Y39360359D01*
X13036206Y39329459D01*
X13037209Y39297556D01*
X13035053Y39248284D01*
X13028588Y39201625D01*
X13017809Y39157578D01*
X13002722Y39116147D01*
X12983325Y39077328D01*
X12959616Y39041122D01*
X12931594Y39007534D01*
X12899263Y38976556D01*
X12863388Y38948741D01*
X12824731Y38924634D01*
X12783300Y38904238D01*
X12739091Y38887547D01*
X12692103Y38874569D01*
X12642338Y38865297D01*
X12589791Y38859731D01*
X12534469Y38857878D01*
X12478625Y38859656D01*
X12425834Y38864994D01*
X12376097Y38873891D01*
X12329409Y38886344D01*
X12285775Y38902356D01*
X12245191Y38921925D01*
X12207659Y38945053D01*
X12173178Y38971741D01*
X12142284Y39001628D01*
X12115509Y39034363D01*
X12092853Y39069944D01*
X12074316Y39108372D01*
X12059900Y39149647D01*
X12049600Y39193769D01*
X12043422Y39240738D01*
X12041363Y39290550D01*
X12042253Y39322622D01*
X12044922Y39353584D01*
X12049369Y39383438D01*
X12055597Y39412184D01*
X12063600Y39439822D01*
X12073388Y39466350D01*
X12084950Y39491772D01*
X12098294Y39516081D01*
X12113319Y39539025D01*
X12129934Y39560341D01*
X12148134Y39580028D01*
X12167925Y39598084D01*
X12189300Y39614513D01*
X12212263Y39629316D01*
X12236816Y39642488D01*
X12262953Y39654031D01*
X12210403Y39812559D01*
X12173684Y39795919D01*
X12139294Y39777088D01*
X12107231Y39756066D01*
X12077491Y39732856D01*
X12050081Y39707456D01*
X12024997Y39679869D01*
X12002238Y39650088D01*
X11981806Y39618119D01*
X11963741Y39584044D01*
X11948084Y39547941D01*
X11934838Y39509816D01*
X11923997Y39469663D01*
X11915569Y39427484D01*
X11909547Y39383281D01*
X11905934Y39337053D01*
X11904728Y39288800D01*
X11905384Y39254025D01*
X11907344Y39220209D01*
X11910609Y39187350D01*
X11915184Y39155450D01*
X11921066Y39124506D01*
X11928253Y39094522D01*
X11936750Y39065497D01*
X11946553Y39037428D01*
X11957659Y39010319D01*
X11970078Y38984166D01*
X11983800Y38958972D01*
X11998828Y38934734D01*
X12032809Y38889134D01*
X12072019Y38847369D01*
X12115838Y38810006D01*
X12163653Y38777628D01*
X12215466Y38750231D01*
X12242872Y38738400D01*
X12271275Y38727813D01*
X12300678Y38718475D01*
X12331078Y38710378D01*
X12362481Y38703528D01*
X12394881Y38697925D01*
X12428278Y38693566D01*
X12462675Y38690453D01*
X12498072Y38688584D01*
X12534469Y38687963D01*
X12582909Y38689078D01*
G37*
G36*
X13157200Y40801134D02*
X13023197Y40801134D01*
X13023197Y40157381D01*
X12992241Y40172600D01*
X12960681Y40191978D01*
X12928522Y40215516D01*
X12895759Y40243216D01*
X12861681Y40275566D01*
X12825581Y40313063D01*
X12787453Y40355706D01*
X12747303Y40403497D01*
X12677725Y40487631D01*
X12617894Y40556991D01*
X12567806Y40611566D01*
X12527463Y40651363D01*
X12491991Y40681772D01*
X12456519Y40708184D01*
X12421047Y40730600D01*
X12385575Y40749022D01*
X12350047Y40763391D01*
X12314409Y40773653D01*
X12278666Y40779813D01*
X12242809Y40781866D01*
X12203456Y40780297D01*
X12166419Y40775597D01*
X12131694Y40767763D01*
X12099278Y40756794D01*
X12069178Y40742691D01*
X12041391Y40725453D01*
X12015916Y40705084D01*
X11992753Y40681578D01*
X11972122Y40655159D01*
X11954244Y40626044D01*
X11939113Y40594234D01*
X11926734Y40559725D01*
X11917109Y40522522D01*
X11910231Y40482625D01*
X11906106Y40440028D01*
X11904728Y40394738D01*
X11906097Y40353222D01*
X11910203Y40313638D01*
X11917047Y40275984D01*
X11926625Y40240259D01*
X11938944Y40206463D01*
X11953997Y40174597D01*
X11971788Y40144659D01*
X11992316Y40116653D01*
X12015156Y40091028D01*
X12039884Y40068234D01*
X12066503Y40048275D01*
X12095009Y40031147D01*
X12125403Y40016853D01*
X12157688Y40005394D01*
X12191859Y39996763D01*
X12227919Y39990969D01*
X12242809Y40152125D01*
X12218756Y40155813D01*
X12196088Y40161184D01*
X12174800Y40168241D01*
X12154897Y40176978D01*
X12136372Y40187400D01*
X12119231Y40199503D01*
X12103472Y40213291D01*
X12089097Y40228763D01*
X12076266Y40245631D01*
X12065147Y40263606D01*
X12055741Y40282691D01*
X12048041Y40302881D01*
X12042053Y40324184D01*
X12037778Y40346594D01*
X12035213Y40370109D01*
X12034356Y40394738D01*
X12035231Y40420506D01*
X12037859Y40444825D01*
X12042238Y40467694D01*
X12048369Y40489109D01*
X12056253Y40509078D01*
X12065888Y40527594D01*
X12077272Y40544659D01*
X12090409Y40560275D01*
X12105138Y40574231D01*
X12121284Y40586331D01*
X12138856Y40596566D01*
X12157853Y40604944D01*
X12178269Y40611456D01*
X12200113Y40616109D01*
X12223375Y40618900D01*
X12248066Y40619831D01*
X12284741Y40617669D01*
X12319447Y40611181D01*
X12352181Y40600372D01*
X12382947Y40585234D01*
X12412397Y40566597D01*
X12441191Y40545275D01*
X12469328Y40521272D01*
X12496806Y40494584D01*
X12551109Y40435138D01*
X12605413Y40368900D01*
X12662016Y40298941D01*
X12723216Y40228325D01*
X12755897Y40193263D01*
X12790438Y40159022D01*
X12826841Y40125603D01*
X12865103Y40093006D01*
X12905803Y40062050D01*
X12949516Y40033556D01*
X12996234Y40007528D01*
X13045969Y39983963D01*
X13157200Y39983963D01*
X13157200Y40801134D01*
G37*
G36*
X13157200Y38432822D02*
X11923122Y38432822D01*
X11923122Y38265534D01*
X13157200Y38265534D01*
X13157200Y38432822D01*
G37*
D10*
X17387400Y1527700D02*
X14847400Y1527700D01*
X14847400Y-1012300D01*
X17387400Y-1012300D01*
X17387400Y1527700D01*
D11*
X16117400Y-1647300D02*
X16117400Y-7362300D01*
D10*
X14847400Y1527700D02*
X12307400Y1527700D01*
X12307400Y-1012300D01*
X14847400Y-1012300D01*
D11*
X13577400Y-1647300D02*
X13577400Y-7362300D01*
D10*
X12307400Y1527700D02*
X9767400Y1527700D01*
X9767400Y-1012300D01*
X12307400Y-1012300D01*
D11*
X11037400Y-1647300D02*
X11037400Y-7362300D01*
D10*
X9767400Y1527700D02*
X7227400Y1527700D01*
X7227400Y-1012300D01*
X9767400Y-1012300D01*
D11*
X8497400Y-1647300D02*
X8497400Y-7362300D01*
D12*
X16117400Y-1266300D03*
X13577400Y-1266300D03*
X11037400Y-1266300D03*
X8497400Y-1266300D03*
D13*
X16117400Y2035700D03*
X13577400Y2035700D03*
X11037400Y2035700D03*
X8497400Y2035700D03*
D14*
X15997400Y11362700D03*
X15997400Y12562700D03*
D15*
X15997400Y11962700D03*
D16*
X17199600Y40851300D03*
X18399600Y40851300D03*
D15*
X17799600Y40851300D03*
D17*
X14587400Y5812700D02*
X8587400Y5812700D01*
X8587400Y9312700D02*
X14587400Y9312700D01*
D18*
X13087400Y6812700D02*
X10087400Y6812700D01*
X13087400Y6812700D02*
X13087400Y8312700D01*
X10087400Y8312700D01*
X10087400Y6812700D01*
D19*
X7037400Y9562700D03*
D20*
X9767400Y21972700D02*
X9767400Y28172700D01*
X15967400Y28172700D01*
X15967400Y21972700D01*
X9767400Y21972700D01*
D21*
X9267400Y20772700D03*
D18*
X11657400Y18522700D02*
X11657400Y13522700D01*
X8257400Y13522700D02*
X8257400Y18522700D01*
D22*
X10795000Y42520000D02*
X14351000Y42520000D01*
X14351000Y35966000D01*
X10795000Y35966000D01*
X10795000Y42520000D01*
M02*
