G04 EAGLE Gerber X2 export*
%TF.Part,Single*%
%TF.FileFunction,Soldermask,Top,1*%
%TF.FilePolarity,Positive*%
%TF.GenerationSoftware,Autodesk,EAGLE,9.7.0*%
%TF.CreationDate,2022-05-09T14:20:26Z*%
G75*
%MOMM*%
%FSLAX46Y46*%
%LPD*%
%INSoldermask Top*%
%AMOC8*
5,1,8,0,0,1.08239X$1,22.5*%
G01*
G04 Define Apertures*
%ADD10R,1.703200X1.503200*%
%ADD11R,1.503200X1.703200*%
%ADD12C,1.727200*%
%ADD13R,1.403200X1.403200*%
%ADD14R,2.203200X2.203200*%
%ADD15R,0.753200X1.703200*%
%ADD16R,1.703200X0.753200*%
%ADD17R,3.153200X2.153200*%
%ADD18C,1.016000*%
%ADD19R,2.203200X1.703200*%
%ADD20R,2.203200X4.003200*%
%ADD21C,1.253200*%
D10*
X18167400Y7402700D03*
X18167400Y5502700D03*
D11*
X17107400Y13852700D03*
X15207400Y13852700D03*
D10*
X6937400Y17112700D03*
X6937400Y15212700D03*
X13127400Y15092700D03*
X13127400Y16992700D03*
X5018400Y41063700D03*
X5018400Y39163700D03*
X17813400Y37821700D03*
X17813400Y35921700D03*
X19668400Y39044700D03*
X19668400Y37144700D03*
X7128400Y41063700D03*
X7128400Y39163700D03*
X15197400Y17962700D03*
X15197400Y16062700D03*
D12*
X16117400Y4194700D02*
X16117400Y2670700D01*
X13577400Y2670700D02*
X13577400Y4194700D01*
X11037400Y4194700D02*
X11037400Y2670700D01*
X8497400Y2670700D02*
X8497400Y4194700D01*
X23826200Y40590800D02*
X25350200Y40590800D01*
X25350200Y38050800D02*
X23826200Y38050800D01*
X23826200Y35510800D02*
X25350200Y35510800D01*
X25350200Y32970800D02*
X23826200Y32970800D01*
X23826200Y30430800D02*
X25350200Y30430800D01*
X25350200Y27890800D02*
X23826200Y27890800D01*
X23826200Y25350800D02*
X25350200Y25350800D01*
X25350200Y22810800D02*
X23826200Y22810800D01*
X23826200Y20270800D02*
X25350200Y20270800D01*
X25350200Y17730800D02*
X23826200Y17730800D01*
X23826200Y15190800D02*
X25350200Y15190800D01*
X25350200Y12650800D02*
X23826200Y12650800D01*
X23826200Y10110800D02*
X25350200Y10110800D01*
X25350200Y7570800D02*
X23826200Y7570800D01*
X23826200Y5030800D02*
X25350200Y5030800D01*
X2616200Y40589200D02*
X1092200Y40589200D01*
X1092200Y38049200D02*
X2616200Y38049200D01*
X2616200Y35509200D02*
X1092200Y35509200D01*
X1092200Y32969200D02*
X2616200Y32969200D01*
X2616200Y30429200D02*
X1092200Y30429200D01*
X1092200Y27889200D02*
X2616200Y27889200D01*
X2616200Y25349200D02*
X1092200Y25349200D01*
X1092200Y22809200D02*
X2616200Y22809200D01*
X2616200Y20269200D02*
X1092200Y20269200D01*
X1092200Y17729200D02*
X2616200Y17729200D01*
X2616200Y15189200D02*
X1092200Y15189200D01*
X1092200Y12649200D02*
X2616200Y12649200D01*
X2616200Y10109200D02*
X1092200Y10109200D01*
X1092200Y7569200D02*
X2616200Y7569200D01*
X2616200Y5029200D02*
X1092200Y5029200D01*
D13*
X15097400Y11962700D03*
X17197400Y11962700D03*
X17799600Y41751300D03*
X17799600Y39651300D03*
D10*
X6947400Y13062700D03*
X6947400Y11162700D03*
D11*
X21641300Y41481400D03*
X19741300Y41481400D03*
D10*
X13087400Y11062700D03*
X13087400Y12962700D03*
D14*
X7587400Y7562700D03*
X15587400Y7562700D03*
D15*
X10067400Y20872700D03*
X10867400Y20872700D03*
X11667400Y20872700D03*
X12467400Y20872700D03*
X13267400Y20872700D03*
X14067400Y20872700D03*
X14867400Y20872700D03*
X15667400Y20872700D03*
D16*
X17067400Y22272700D03*
X17067400Y23072700D03*
X17067400Y23872700D03*
X17067400Y24672700D03*
X17067400Y25472700D03*
X17067400Y26272700D03*
X17067400Y27072700D03*
X17067400Y27872700D03*
D15*
X15667400Y29272700D03*
X14867400Y29272700D03*
X14067400Y29272700D03*
X13267400Y29272700D03*
X12467400Y29272700D03*
X11667400Y29272700D03*
X10867400Y29272700D03*
X10067400Y29272700D03*
D16*
X8667400Y27872700D03*
X8667400Y27072700D03*
X8667400Y26272700D03*
X8667400Y25472700D03*
X8667400Y24672700D03*
X8667400Y23872700D03*
X8667400Y23072700D03*
X8667400Y22272700D03*
D17*
X9957400Y18172700D03*
X9957400Y13872700D03*
D18*
X4621000Y2445000D03*
X23821000Y1292000D03*
X4017000Y36705000D03*
D19*
X15723000Y36943000D03*
X15723000Y39243000D03*
X15723000Y41543000D03*
D20*
X9423000Y39243000D03*
D21*
X20844200Y5412700D03*
X8227400Y15750900D03*
X15197400Y14942700D03*
X16225200Y15982700D03*
X18449600Y15922700D03*
X19939000Y35687000D03*
X22860000Y42037000D03*
X16707400Y29192700D03*
X11417400Y10912700D03*
X13270309Y9645609D03*
X5229975Y7812700D03*
X10667400Y16742700D03*
X7348975Y20733075D03*
X9727400Y15682700D03*
X6237400Y19220700D03*
X7026772Y27522072D03*
X9457400Y6542700D03*
X16787400Y20862700D03*
X5617400Y4752700D03*
M02*
