M48
;GenerationSoftware,Autodesk,EAGLE,9.6.2*%
;CreationDate,2022-05-02T11:32:10Z*%
FMAT,2
ICI,OFF
METRIC,TZ,000.000
T2C0.700
T1C1.016
%
G90
M71
T1
X33732Y10365
X33732Y7825
X33732Y5285
X10998Y40843
X10998Y38303
X10998Y35763
X33732Y30685
X10998Y33223
X10998Y30683
X10998Y28143
X10998Y25603
X10998Y23063
X10998Y17983
X10998Y15443
X10998Y12903
X10998Y10363
X10998Y7823
X10998Y5283
X25261Y3687
X22721Y3687
X20181Y3687
X17641Y3687
X33732Y40845
X33732Y38305
X33732Y35765
X33732Y33225
X10998Y20523
X33732Y28145
X33732Y25605
X33732Y23065
X33732Y20525
X33732Y17985
X33732Y15445
X33732Y12905
T2
X29988Y5667
X27921Y38647
X17371Y16005
X24341Y15197
X25369Y16237
X27594Y16177
X20561Y11167
X22414Y9900
X14374Y8067
X19811Y16997
X16493Y20987
X18871Y15937
X15381Y19475
X16171Y27776
X18601Y6797
X25931Y21117
X14761Y5007
X25851Y29447
M30