G04 EAGLE Gerber RS-274X export*
G75*
%MOMM*%
%FSLAX34Y34*%
%LPD*%
%INBottom Copper*%
%IPPOS*%
%AMOC8*
5,1,8,0,0,1.08239X$1,22.5*%
G01*
%ADD10R,1.500000X1.300000*%
%ADD11C,1.828800*%
%ADD12R,1.800000X1.800000*%
%ADD13C,1.800000*%
%ADD14R,5.000000X5.000000*%
%ADD15C,1.879600*%
%ADD16C,6.480000*%
%ADD17P,0.543793X8X22.500000*%
%ADD18C,0.508000*%
%ADD19C,0.254000*%
%ADD20C,0.502400*%

G36*
X481365Y2544D02*
X481365Y2544D01*
X481399Y2542D01*
X481588Y2564D01*
X481779Y2581D01*
X481812Y2590D01*
X481846Y2594D01*
X482029Y2649D01*
X482213Y2699D01*
X482244Y2714D01*
X482277Y2724D01*
X482448Y2811D01*
X482620Y2893D01*
X482648Y2913D01*
X482679Y2928D01*
X482831Y3044D01*
X482986Y3155D01*
X483010Y3180D01*
X483037Y3200D01*
X483166Y3341D01*
X483300Y3477D01*
X483319Y3506D01*
X483343Y3532D01*
X483445Y3693D01*
X483552Y3850D01*
X483566Y3882D01*
X483584Y3911D01*
X483657Y4088D01*
X483734Y4262D01*
X483742Y4296D01*
X483755Y4328D01*
X483795Y4515D01*
X483841Y4700D01*
X483843Y4734D01*
X483850Y4768D01*
X483869Y5080D01*
X483869Y703360D01*
X483866Y703395D01*
X483868Y703429D01*
X483846Y703618D01*
X483829Y703809D01*
X483820Y703842D01*
X483816Y703876D01*
X483761Y704059D01*
X483711Y704243D01*
X483696Y704274D01*
X483686Y704307D01*
X483599Y704478D01*
X483517Y704650D01*
X483497Y704678D01*
X483482Y704709D01*
X483366Y704861D01*
X483255Y705016D01*
X483230Y705040D01*
X483210Y705067D01*
X483070Y705196D01*
X482933Y705330D01*
X482904Y705349D01*
X482878Y705373D01*
X482717Y705475D01*
X482560Y705582D01*
X482528Y705596D01*
X482499Y705614D01*
X482322Y705687D01*
X482148Y705764D01*
X482114Y705772D01*
X482082Y705785D01*
X481895Y705825D01*
X481710Y705871D01*
X481676Y705873D01*
X481642Y705880D01*
X481330Y705899D01*
X5080Y705899D01*
X5045Y705896D01*
X5011Y705898D01*
X4822Y705876D01*
X4631Y705859D01*
X4598Y705850D01*
X4564Y705846D01*
X4381Y705791D01*
X4197Y705741D01*
X4166Y705726D01*
X4133Y705716D01*
X3962Y705629D01*
X3790Y705547D01*
X3762Y705527D01*
X3731Y705512D01*
X3579Y705396D01*
X3424Y705285D01*
X3400Y705261D01*
X3373Y705240D01*
X3243Y705099D01*
X3110Y704963D01*
X3091Y704934D01*
X3067Y704908D01*
X2965Y704747D01*
X2858Y704590D01*
X2844Y704558D01*
X2826Y704529D01*
X2753Y704352D01*
X2676Y704178D01*
X2668Y704144D01*
X2655Y704112D01*
X2615Y703925D01*
X2569Y703740D01*
X2567Y703706D01*
X2560Y703672D01*
X2541Y703360D01*
X2541Y5080D01*
X2544Y5046D01*
X2542Y5011D01*
X2564Y4822D01*
X2581Y4632D01*
X2590Y4598D01*
X2594Y4564D01*
X2649Y4381D01*
X2699Y4197D01*
X2714Y4166D01*
X2724Y4133D01*
X2811Y3962D01*
X2893Y3791D01*
X2913Y3762D01*
X2928Y3731D01*
X3044Y3579D01*
X3155Y3424D01*
X3180Y3400D01*
X3200Y3373D01*
X3341Y3244D01*
X3477Y3110D01*
X3506Y3091D01*
X3532Y3068D01*
X3693Y2965D01*
X3850Y2858D01*
X3882Y2844D01*
X3911Y2826D01*
X4088Y2753D01*
X4262Y2676D01*
X4296Y2668D01*
X4328Y2655D01*
X4515Y2615D01*
X4700Y2569D01*
X4734Y2567D01*
X4768Y2560D01*
X5080Y2541D01*
X481330Y2541D01*
X481365Y2544D01*
G37*
%LPC*%
G36*
X182880Y71119D02*
X182880Y71119D01*
X162308Y71119D01*
X162339Y71316D01*
X162907Y73065D01*
X163742Y74704D01*
X164823Y76192D01*
X166124Y77493D01*
X167612Y78574D01*
X169011Y79287D01*
X169037Y79303D01*
X169065Y79315D01*
X169227Y79422D01*
X169393Y79526D01*
X169415Y79546D01*
X169440Y79563D01*
X169582Y79698D01*
X169726Y79829D01*
X169744Y79853D01*
X169766Y79874D01*
X169882Y80031D01*
X170000Y80185D01*
X170014Y80212D01*
X170032Y80237D01*
X170118Y80412D01*
X170207Y80585D01*
X170216Y80614D01*
X170230Y80642D01*
X170283Y80829D01*
X170341Y81015D01*
X170345Y81045D01*
X170353Y81075D01*
X170372Y81269D01*
X170396Y81462D01*
X170394Y81492D01*
X170397Y81523D01*
X170382Y81718D01*
X170372Y81912D01*
X170365Y81941D01*
X170362Y81972D01*
X170313Y82160D01*
X170268Y82350D01*
X170256Y82378D01*
X170248Y82407D01*
X170166Y82584D01*
X170089Y82763D01*
X170072Y82788D01*
X170059Y82816D01*
X169947Y82976D01*
X169839Y83138D01*
X169818Y83160D01*
X169801Y83185D01*
X169663Y83322D01*
X169527Y83463D01*
X169503Y83481D01*
X169481Y83502D01*
X169321Y83613D01*
X169163Y83727D01*
X169136Y83741D01*
X169111Y83758D01*
X168830Y83895D01*
X167395Y84490D01*
X164246Y87639D01*
X163644Y89092D01*
X163546Y89279D01*
X163449Y89469D01*
X163441Y89479D01*
X163435Y89491D01*
X163305Y89658D01*
X163177Y89827D01*
X163168Y89836D01*
X163159Y89847D01*
X163002Y89989D01*
X162846Y90133D01*
X162835Y90140D01*
X162825Y90148D01*
X162645Y90260D01*
X162466Y90374D01*
X162454Y90379D01*
X162443Y90386D01*
X162246Y90465D01*
X162050Y90545D01*
X162037Y90548D01*
X162025Y90553D01*
X161817Y90595D01*
X161610Y90640D01*
X161594Y90641D01*
X161583Y90643D01*
X161544Y90644D01*
X161298Y90659D01*
X153565Y90659D01*
X143999Y100225D01*
X143999Y128375D01*
X158645Y143021D01*
X231253Y143021D01*
X231416Y143035D01*
X231581Y143042D01*
X231640Y143055D01*
X231701Y143061D01*
X231860Y143104D01*
X232020Y143140D01*
X232077Y143163D01*
X232136Y143179D01*
X232284Y143250D01*
X232436Y143313D01*
X232487Y143346D01*
X232542Y143373D01*
X232676Y143468D01*
X232814Y143558D01*
X232872Y143609D01*
X232908Y143635D01*
X232951Y143678D01*
X233048Y143764D01*
X310896Y221612D01*
X311001Y221738D01*
X311113Y221859D01*
X311145Y221910D01*
X311184Y221957D01*
X311266Y222100D01*
X311354Y222239D01*
X311378Y222295D01*
X311408Y222348D01*
X311463Y222503D01*
X311525Y222655D01*
X311538Y222715D01*
X311559Y222772D01*
X311585Y222935D01*
X311620Y223095D01*
X311625Y223172D01*
X311632Y223217D01*
X311631Y223278D01*
X311639Y223407D01*
X311639Y246493D01*
X311625Y246657D01*
X311618Y246821D01*
X311605Y246880D01*
X311599Y246941D01*
X311556Y247100D01*
X311520Y247260D01*
X311497Y247317D01*
X311481Y247376D01*
X311410Y247524D01*
X311347Y247676D01*
X311314Y247727D01*
X311287Y247782D01*
X311192Y247916D01*
X311103Y248054D01*
X311051Y248112D01*
X311025Y248148D01*
X310982Y248191D01*
X310896Y248288D01*
X310034Y249150D01*
X310007Y249173D01*
X309984Y249198D01*
X309835Y249316D01*
X309688Y249439D01*
X309658Y249456D01*
X309631Y249478D01*
X309463Y249568D01*
X309297Y249662D01*
X309265Y249674D01*
X309234Y249690D01*
X309053Y249749D01*
X308873Y249813D01*
X308839Y249819D01*
X308806Y249830D01*
X308617Y249856D01*
X308429Y249887D01*
X308394Y249886D01*
X308360Y249891D01*
X308169Y249883D01*
X307979Y249881D01*
X307945Y249874D01*
X307910Y249873D01*
X307724Y249831D01*
X307537Y249795D01*
X307504Y249783D01*
X307470Y249775D01*
X307294Y249702D01*
X307117Y249633D01*
X307087Y249615D01*
X307055Y249601D01*
X306894Y249498D01*
X306732Y249399D01*
X306706Y249376D01*
X306677Y249357D01*
X306443Y249150D01*
X305975Y248683D01*
X305940Y248660D01*
X305825Y248558D01*
X305775Y248520D01*
X305750Y248493D01*
X305706Y248453D01*
X305420Y248167D01*
X305016Y248167D01*
X304899Y248157D01*
X304783Y248157D01*
X304688Y248139D01*
X228110Y248139D01*
X228075Y248136D01*
X228041Y248138D01*
X227852Y248116D01*
X227661Y248099D01*
X227628Y248090D01*
X227594Y248086D01*
X227411Y248031D01*
X227227Y247981D01*
X227196Y247966D01*
X227163Y247956D01*
X226992Y247869D01*
X226820Y247787D01*
X226792Y247767D01*
X226761Y247752D01*
X226609Y247636D01*
X226454Y247525D01*
X226430Y247500D01*
X226403Y247480D01*
X226274Y247340D01*
X226140Y247203D01*
X226121Y247174D01*
X226097Y247148D01*
X225995Y246987D01*
X225888Y246830D01*
X225874Y246798D01*
X225856Y246769D01*
X225783Y246592D01*
X225706Y246418D01*
X225698Y246384D01*
X225685Y246352D01*
X225645Y246165D01*
X225599Y245980D01*
X225597Y245946D01*
X225590Y245912D01*
X225571Y245600D01*
X225571Y245247D01*
X225562Y245206D01*
X225552Y245052D01*
X225545Y244990D01*
X225546Y244953D01*
X225543Y244894D01*
X225543Y244490D01*
X225257Y244204D01*
X225182Y244114D01*
X225099Y244031D01*
X225045Y243953D01*
X223425Y242333D01*
X223390Y242310D01*
X223275Y242208D01*
X223225Y242170D01*
X223200Y242143D01*
X223156Y242103D01*
X222870Y241817D01*
X222466Y241817D01*
X222349Y241807D01*
X222233Y241807D01*
X222138Y241789D01*
X221732Y241789D01*
X221697Y241786D01*
X221663Y241788D01*
X221474Y241766D01*
X221283Y241749D01*
X221250Y241740D01*
X221216Y241736D01*
X221033Y241681D01*
X220849Y241631D01*
X220818Y241616D01*
X220785Y241606D01*
X220614Y241519D01*
X220442Y241437D01*
X220414Y241417D01*
X220383Y241402D01*
X220231Y241286D01*
X220076Y241175D01*
X220052Y241150D01*
X220025Y241130D01*
X219896Y240990D01*
X219762Y240853D01*
X219743Y240824D01*
X219719Y240798D01*
X219617Y240637D01*
X219510Y240480D01*
X219496Y240448D01*
X219478Y240419D01*
X219405Y240242D01*
X219328Y240068D01*
X219320Y240034D01*
X219307Y240002D01*
X219267Y239815D01*
X219221Y239630D01*
X219219Y239596D01*
X219212Y239562D01*
X219193Y239250D01*
X219193Y238140D01*
X218694Y237642D01*
X218589Y237515D01*
X218477Y237395D01*
X218445Y237343D01*
X218406Y237296D01*
X218324Y237154D01*
X218236Y237015D01*
X218212Y236958D01*
X218182Y236905D01*
X218127Y236751D01*
X218065Y236598D01*
X218052Y236539D01*
X218031Y236481D01*
X218005Y236319D01*
X217970Y236158D01*
X217965Y236081D01*
X217958Y236037D01*
X217959Y235976D01*
X217951Y235846D01*
X217951Y218814D01*
X217965Y218650D01*
X217972Y218486D01*
X217985Y218426D01*
X217991Y218365D01*
X218034Y218206D01*
X218070Y218046D01*
X218093Y217990D01*
X218109Y217931D01*
X218180Y217783D01*
X218243Y217631D01*
X218276Y217579D01*
X218303Y217524D01*
X218398Y217391D01*
X218488Y217252D01*
X218539Y217195D01*
X218565Y217158D01*
X218608Y217116D01*
X218694Y217018D01*
X219193Y216520D01*
X219193Y212740D01*
X216520Y210067D01*
X212740Y210067D01*
X210067Y212740D01*
X210067Y216520D01*
X210566Y217018D01*
X210671Y217145D01*
X210783Y217265D01*
X210815Y217317D01*
X210854Y217364D01*
X210936Y217506D01*
X211024Y217645D01*
X211048Y217702D01*
X211078Y217755D01*
X211133Y217909D01*
X211195Y218062D01*
X211208Y218121D01*
X211229Y218179D01*
X211255Y218341D01*
X211290Y218502D01*
X211295Y218579D01*
X211302Y218623D01*
X211301Y218684D01*
X211309Y218814D01*
X211309Y235846D01*
X211295Y236010D01*
X211288Y236174D01*
X211275Y236234D01*
X211269Y236295D01*
X211226Y236453D01*
X211190Y236614D01*
X211167Y236670D01*
X211151Y236729D01*
X211080Y236877D01*
X211017Y237029D01*
X210984Y237081D01*
X210957Y237136D01*
X210862Y237269D01*
X210772Y237408D01*
X210721Y237465D01*
X210695Y237502D01*
X210652Y237544D01*
X210566Y237642D01*
X210067Y238140D01*
X210067Y239250D01*
X210064Y239285D01*
X210066Y239319D01*
X210044Y239508D01*
X210027Y239699D01*
X210018Y239732D01*
X210014Y239766D01*
X209959Y239949D01*
X209909Y240133D01*
X209894Y240164D01*
X209884Y240197D01*
X209797Y240368D01*
X209715Y240540D01*
X209695Y240568D01*
X209680Y240599D01*
X209564Y240751D01*
X209453Y240906D01*
X209428Y240930D01*
X209408Y240957D01*
X209268Y241086D01*
X209131Y241220D01*
X209102Y241239D01*
X209076Y241263D01*
X208915Y241365D01*
X208758Y241472D01*
X208726Y241486D01*
X208697Y241504D01*
X208520Y241577D01*
X208346Y241654D01*
X208312Y241662D01*
X208280Y241675D01*
X208093Y241715D01*
X207908Y241761D01*
X207874Y241763D01*
X207840Y241770D01*
X207528Y241789D01*
X93067Y241789D01*
X91380Y242488D01*
X58338Y275530D01*
X57639Y277217D01*
X57639Y666613D01*
X57648Y666654D01*
X57658Y666808D01*
X57665Y666870D01*
X57664Y666907D01*
X57667Y666966D01*
X57667Y667370D01*
X57953Y667656D01*
X58028Y667746D01*
X58111Y667829D01*
X58165Y667907D01*
X59785Y669527D01*
X59820Y669550D01*
X59935Y669652D01*
X59985Y669690D01*
X60010Y669717D01*
X60054Y669757D01*
X60340Y670043D01*
X60744Y670043D01*
X60861Y670053D01*
X60977Y670053D01*
X61072Y670071D01*
X88763Y670071D01*
X88804Y670062D01*
X88958Y670052D01*
X89020Y670045D01*
X89057Y670046D01*
X89116Y670043D01*
X89520Y670043D01*
X89806Y669757D01*
X89896Y669682D01*
X89979Y669599D01*
X90057Y669545D01*
X91677Y667925D01*
X91700Y667890D01*
X91802Y667775D01*
X91840Y667725D01*
X91867Y667700D01*
X91907Y667656D01*
X92193Y667370D01*
X92193Y666966D01*
X92203Y666849D01*
X92203Y666733D01*
X92221Y666638D01*
X92221Y664347D01*
X92212Y664306D01*
X92202Y664152D01*
X92195Y664090D01*
X92196Y664053D01*
X92193Y663994D01*
X92193Y663590D01*
X91907Y663304D01*
X91832Y663214D01*
X91749Y663131D01*
X91695Y663053D01*
X90075Y661433D01*
X90040Y661410D01*
X89925Y661308D01*
X89875Y661270D01*
X89850Y661243D01*
X89806Y661203D01*
X89520Y660917D01*
X89116Y660917D01*
X88999Y660907D01*
X88883Y660907D01*
X88788Y660889D01*
X69360Y660889D01*
X69325Y660886D01*
X69291Y660888D01*
X69102Y660866D01*
X68911Y660849D01*
X68878Y660840D01*
X68844Y660836D01*
X68661Y660781D01*
X68477Y660731D01*
X68446Y660716D01*
X68413Y660706D01*
X68242Y660619D01*
X68070Y660537D01*
X68042Y660517D01*
X68011Y660502D01*
X67859Y660386D01*
X67704Y660275D01*
X67680Y660250D01*
X67653Y660230D01*
X67524Y660090D01*
X67390Y659953D01*
X67371Y659924D01*
X67347Y659898D01*
X67245Y659737D01*
X67138Y659580D01*
X67124Y659548D01*
X67106Y659519D01*
X67033Y659342D01*
X66956Y659168D01*
X66948Y659134D01*
X66935Y659102D01*
X66895Y658915D01*
X66849Y658730D01*
X66847Y658696D01*
X66840Y658662D01*
X66821Y658350D01*
X66821Y647210D01*
X66824Y647175D01*
X66822Y647141D01*
X66844Y646952D01*
X66861Y646761D01*
X66870Y646728D01*
X66874Y646694D01*
X66929Y646511D01*
X66979Y646327D01*
X66994Y646296D01*
X67004Y646263D01*
X67091Y646092D01*
X67173Y645920D01*
X67193Y645892D01*
X67208Y645861D01*
X67324Y645709D01*
X67435Y645554D01*
X67460Y645530D01*
X67480Y645503D01*
X67620Y645374D01*
X67757Y645240D01*
X67786Y645221D01*
X67812Y645197D01*
X67973Y645095D01*
X68130Y644988D01*
X68162Y644974D01*
X68191Y644956D01*
X68368Y644883D01*
X68542Y644806D01*
X68576Y644798D01*
X68608Y644785D01*
X68795Y644745D01*
X68980Y644699D01*
X69014Y644697D01*
X69048Y644690D01*
X69360Y644671D01*
X88763Y644671D01*
X88804Y644662D01*
X88958Y644652D01*
X89020Y644645D01*
X89057Y644646D01*
X89116Y644643D01*
X89520Y644643D01*
X89759Y644403D01*
X89823Y644350D01*
X89879Y644291D01*
X89995Y644206D01*
X90105Y644114D01*
X90176Y644073D01*
X90243Y644025D01*
X90371Y643962D01*
X90496Y643891D01*
X90573Y643863D01*
X90647Y643827D01*
X90785Y643788D01*
X90920Y643740D01*
X91001Y643727D01*
X91081Y643704D01*
X91223Y643690D01*
X91364Y643667D01*
X91446Y643668D01*
X91529Y643660D01*
X91671Y643671D01*
X91814Y643673D01*
X91895Y643688D01*
X91977Y643695D01*
X92116Y643731D01*
X92256Y643758D01*
X92333Y643788D01*
X92413Y643809D01*
X92543Y643869D01*
X92676Y643921D01*
X92747Y643963D01*
X92822Y643998D01*
X92939Y644080D01*
X93061Y644155D01*
X93123Y644209D01*
X93190Y644256D01*
X93291Y644358D01*
X93399Y644453D01*
X93450Y644517D01*
X93508Y644576D01*
X93589Y644693D01*
X93678Y644806D01*
X93717Y644879D01*
X93764Y644946D01*
X93872Y645168D01*
X93891Y645203D01*
X93894Y645213D01*
X93901Y645227D01*
X94396Y646421D01*
X97545Y649570D01*
X101659Y651275D01*
X124401Y651275D01*
X128515Y649570D01*
X129532Y648553D01*
X129632Y648470D01*
X129725Y648379D01*
X129805Y648326D01*
X129878Y648264D01*
X129991Y648200D01*
X130098Y648127D01*
X130186Y648088D01*
X130269Y648041D01*
X130391Y647997D01*
X130510Y647945D01*
X130603Y647922D01*
X130693Y647890D01*
X130821Y647869D01*
X130948Y647838D01*
X131043Y647832D01*
X131137Y647817D01*
X131267Y647818D01*
X131397Y647810D01*
X131492Y647821D01*
X131588Y647823D01*
X131715Y647847D01*
X131844Y647863D01*
X131936Y647890D01*
X132030Y647908D01*
X132151Y647955D01*
X132275Y647993D01*
X132361Y648036D01*
X132450Y648071D01*
X132561Y648138D01*
X132677Y648197D01*
X132753Y648255D01*
X132834Y648305D01*
X132932Y648391D01*
X133035Y648469D01*
X133100Y648539D01*
X133172Y648603D01*
X133252Y648705D01*
X133341Y648800D01*
X133392Y648881D01*
X133451Y648956D01*
X133513Y649070D01*
X133582Y649180D01*
X133619Y649268D01*
X133664Y649353D01*
X133704Y649476D01*
X133753Y649597D01*
X133773Y649690D01*
X133803Y649781D01*
X133821Y649910D01*
X133848Y650037D01*
X133856Y650167D01*
X133864Y650227D01*
X133863Y650272D01*
X133867Y650349D01*
X133867Y654670D01*
X136540Y657343D01*
X140320Y657343D01*
X142993Y654670D01*
X142993Y650890D01*
X142494Y650392D01*
X142389Y650265D01*
X142277Y650145D01*
X142245Y650093D01*
X142206Y650046D01*
X142124Y649904D01*
X142036Y649765D01*
X142012Y649708D01*
X141982Y649655D01*
X141927Y649501D01*
X141865Y649348D01*
X141852Y649289D01*
X141831Y649231D01*
X141805Y649069D01*
X141770Y648908D01*
X141765Y648831D01*
X141758Y648787D01*
X141759Y648726D01*
X141751Y648596D01*
X141751Y635177D01*
X141762Y635048D01*
X141764Y634918D01*
X141782Y634824D01*
X141791Y634729D01*
X141825Y634603D01*
X141850Y634476D01*
X141884Y634386D01*
X141909Y634294D01*
X141965Y634177D01*
X142012Y634056D01*
X142062Y633974D01*
X142103Y633888D01*
X142178Y633782D01*
X142246Y633671D01*
X142309Y633599D01*
X142365Y633522D01*
X142458Y633431D01*
X142544Y633334D01*
X142619Y633274D01*
X142687Y633208D01*
X142795Y633135D01*
X142897Y633054D01*
X142981Y633009D01*
X143060Y632956D01*
X143179Y632903D01*
X143294Y632841D01*
X143385Y632812D01*
X143472Y632773D01*
X143599Y632742D01*
X143722Y632702D01*
X143817Y632689D01*
X143910Y632667D01*
X144039Y632659D01*
X144168Y632641D01*
X144264Y632645D01*
X144359Y632639D01*
X144488Y632654D01*
X144618Y632659D01*
X144711Y632680D01*
X144806Y632691D01*
X144931Y632729D01*
X145058Y632757D01*
X145146Y632794D01*
X145237Y632821D01*
X145353Y632880D01*
X145473Y632930D01*
X145554Y632982D01*
X145639Y633026D01*
X145742Y633104D01*
X145851Y633175D01*
X145949Y633261D01*
X145997Y633298D01*
X146028Y633331D01*
X146086Y633382D01*
X178816Y666112D01*
X181505Y668801D01*
X343005Y668801D01*
X354962Y656844D01*
X355088Y656739D01*
X355209Y656627D01*
X355260Y656595D01*
X355307Y656556D01*
X355450Y656474D01*
X355589Y656386D01*
X355645Y656362D01*
X355698Y656332D01*
X355853Y656277D01*
X356005Y656215D01*
X356065Y656202D01*
X356122Y656181D01*
X356285Y656155D01*
X356445Y656120D01*
X356522Y656115D01*
X356567Y656108D01*
X356628Y656109D01*
X356757Y656101D01*
X393326Y656101D01*
X393490Y656115D01*
X393654Y656122D01*
X393714Y656135D01*
X393775Y656141D01*
X393934Y656184D01*
X394094Y656220D01*
X394150Y656243D01*
X394209Y656259D01*
X394357Y656330D01*
X394509Y656393D01*
X394561Y656426D01*
X394616Y656453D01*
X394749Y656548D01*
X394866Y656623D01*
X396602Y657343D01*
X398418Y657343D01*
X400095Y656648D01*
X401378Y655365D01*
X402073Y653688D01*
X402073Y651872D01*
X401378Y650195D01*
X400095Y648912D01*
X399766Y648776D01*
X399651Y648716D01*
X399532Y648664D01*
X399452Y648612D01*
X399367Y648568D01*
X399264Y648488D01*
X399156Y648416D01*
X399087Y648350D01*
X399011Y648292D01*
X398924Y648195D01*
X398830Y648106D01*
X398774Y648028D01*
X398710Y647958D01*
X398641Y647847D01*
X398564Y647742D01*
X398522Y647656D01*
X398472Y647575D01*
X398424Y647455D01*
X398367Y647338D01*
X398340Y647246D01*
X398305Y647157D01*
X398279Y647029D01*
X398244Y646904D01*
X398234Y646810D01*
X398215Y646716D01*
X398212Y646586D01*
X398199Y646456D01*
X398206Y646361D01*
X398204Y646266D01*
X398224Y646137D01*
X398234Y646007D01*
X398258Y645915D01*
X398273Y645821D01*
X398315Y645698D01*
X398348Y645572D01*
X398388Y645485D01*
X398419Y645395D01*
X398483Y645281D01*
X398537Y645163D01*
X398592Y645085D01*
X398639Y645002D01*
X398721Y644901D01*
X398796Y644794D01*
X398863Y644727D01*
X398924Y644653D01*
X399023Y644569D01*
X399115Y644477D01*
X399194Y644423D01*
X399266Y644361D01*
X399379Y644295D01*
X399486Y644221D01*
X399602Y644164D01*
X399655Y644133D01*
X399697Y644118D01*
X399766Y644084D01*
X400095Y643948D01*
X401378Y642665D01*
X402073Y640988D01*
X402073Y639172D01*
X401378Y637495D01*
X400095Y636212D01*
X398418Y635517D01*
X396602Y635517D01*
X394873Y636234D01*
X394823Y636265D01*
X394776Y636304D01*
X394634Y636386D01*
X394495Y636474D01*
X394438Y636498D01*
X394385Y636528D01*
X394231Y636583D01*
X394078Y636645D01*
X394019Y636658D01*
X393961Y636679D01*
X393799Y636705D01*
X393638Y636740D01*
X393561Y636745D01*
X393517Y636752D01*
X393456Y636751D01*
X393326Y636759D01*
X346605Y636759D01*
X328298Y655066D01*
X328172Y655171D01*
X328051Y655283D01*
X328000Y655315D01*
X327953Y655354D01*
X327810Y655436D01*
X327671Y655524D01*
X327615Y655548D01*
X327562Y655578D01*
X327407Y655633D01*
X327255Y655695D01*
X327195Y655708D01*
X327138Y655729D01*
X326975Y655755D01*
X326815Y655790D01*
X326738Y655795D01*
X326693Y655802D01*
X326632Y655801D01*
X326503Y655809D01*
X204357Y655809D01*
X204194Y655795D01*
X204029Y655788D01*
X203970Y655775D01*
X203909Y655769D01*
X203750Y655726D01*
X203590Y655690D01*
X203533Y655667D01*
X203474Y655651D01*
X203326Y655580D01*
X203174Y655517D01*
X203123Y655484D01*
X203068Y655457D01*
X202934Y655362D01*
X202796Y655272D01*
X202738Y655221D01*
X202702Y655195D01*
X202659Y655152D01*
X202562Y655066D01*
X156436Y608940D01*
X156331Y608814D01*
X156219Y608693D01*
X156187Y608642D01*
X156148Y608595D01*
X156066Y608452D01*
X155978Y608313D01*
X155954Y608257D01*
X155924Y608204D01*
X155869Y608049D01*
X155807Y607897D01*
X155794Y607837D01*
X155773Y607780D01*
X155747Y607617D01*
X155717Y607482D01*
X154998Y605745D01*
X153715Y604462D01*
X152038Y603767D01*
X150640Y603767D01*
X150605Y603764D01*
X150571Y603766D01*
X150382Y603744D01*
X150191Y603727D01*
X150158Y603718D01*
X150124Y603714D01*
X149941Y603659D01*
X149757Y603609D01*
X149726Y603594D01*
X149693Y603584D01*
X149522Y603497D01*
X149350Y603415D01*
X149322Y603395D01*
X149291Y603380D01*
X149139Y603264D01*
X148984Y603153D01*
X148960Y603128D01*
X148933Y603108D01*
X148804Y602968D01*
X148670Y602831D01*
X148651Y602802D01*
X148627Y602776D01*
X148525Y602615D01*
X148418Y602458D01*
X148404Y602426D01*
X148386Y602397D01*
X148313Y602220D01*
X148236Y602046D01*
X148228Y602012D01*
X148215Y601980D01*
X148175Y601793D01*
X148129Y601608D01*
X148127Y601574D01*
X148120Y601540D01*
X148101Y601228D01*
X148101Y580764D01*
X148115Y580600D01*
X148122Y580436D01*
X148135Y580376D01*
X148141Y580315D01*
X148184Y580156D01*
X148220Y579996D01*
X148243Y579940D01*
X148259Y579881D01*
X148330Y579733D01*
X148393Y579581D01*
X148426Y579529D01*
X148453Y579474D01*
X148548Y579341D01*
X148623Y579224D01*
X149343Y577488D01*
X149343Y575672D01*
X148648Y573995D01*
X147365Y572712D01*
X145688Y572017D01*
X144290Y572017D01*
X144255Y572014D01*
X144221Y572016D01*
X144032Y571994D01*
X143841Y571977D01*
X143808Y571968D01*
X143774Y571964D01*
X143591Y571909D01*
X143407Y571859D01*
X143376Y571844D01*
X143343Y571834D01*
X143172Y571747D01*
X143000Y571665D01*
X142972Y571645D01*
X142941Y571630D01*
X142789Y571514D01*
X142634Y571403D01*
X142610Y571378D01*
X142583Y571358D01*
X142454Y571218D01*
X142320Y571081D01*
X142301Y571052D01*
X142277Y571026D01*
X142175Y570865D01*
X142068Y570708D01*
X142054Y570676D01*
X142036Y570647D01*
X141963Y570470D01*
X141886Y570296D01*
X141878Y570262D01*
X141865Y570230D01*
X141825Y570043D01*
X141779Y569858D01*
X141777Y569824D01*
X141770Y569790D01*
X141751Y569478D01*
X141751Y545582D01*
X141754Y545547D01*
X141752Y545513D01*
X141774Y545324D01*
X141791Y545133D01*
X141800Y545100D01*
X141804Y545066D01*
X141859Y544883D01*
X141909Y544699D01*
X141924Y544668D01*
X141934Y544635D01*
X142021Y544464D01*
X142103Y544292D01*
X142123Y544264D01*
X142138Y544233D01*
X142254Y544081D01*
X142365Y543926D01*
X142390Y543902D01*
X142410Y543875D01*
X142550Y543746D01*
X142687Y543612D01*
X142716Y543593D01*
X142742Y543569D01*
X142903Y543467D01*
X143060Y543360D01*
X143092Y543346D01*
X143121Y543328D01*
X143298Y543255D01*
X143472Y543178D01*
X143506Y543170D01*
X143538Y543157D01*
X143725Y543117D01*
X143910Y543071D01*
X143944Y543069D01*
X143978Y543062D01*
X144290Y543043D01*
X146670Y543043D01*
X147168Y542544D01*
X147295Y542439D01*
X147415Y542327D01*
X147467Y542295D01*
X147514Y542256D01*
X147656Y542174D01*
X147795Y542086D01*
X147852Y542062D01*
X147905Y542032D01*
X148059Y541977D01*
X148212Y541915D01*
X148271Y541902D01*
X148329Y541881D01*
X148491Y541855D01*
X148652Y541820D01*
X148729Y541815D01*
X148773Y541808D01*
X148834Y541809D01*
X148964Y541801D01*
X349355Y541801D01*
X357651Y533505D01*
X357651Y521857D01*
X357665Y521694D01*
X357672Y521529D01*
X357685Y521470D01*
X357691Y521409D01*
X357734Y521250D01*
X357770Y521090D01*
X357793Y521033D01*
X357809Y520974D01*
X357880Y520826D01*
X357943Y520674D01*
X357976Y520623D01*
X358003Y520568D01*
X358098Y520434D01*
X358188Y520296D01*
X358239Y520238D01*
X358265Y520202D01*
X358308Y520159D01*
X358394Y520062D01*
X361312Y517144D01*
X361438Y517039D01*
X361559Y516927D01*
X361610Y516895D01*
X361657Y516856D01*
X361800Y516774D01*
X361939Y516686D01*
X361995Y516662D01*
X362048Y516632D01*
X362203Y516577D01*
X362355Y516515D01*
X362415Y516502D01*
X362472Y516481D01*
X362635Y516455D01*
X362795Y516420D01*
X362872Y516415D01*
X362917Y516408D01*
X362978Y516409D01*
X363107Y516401D01*
X388246Y516401D01*
X388410Y516415D01*
X388574Y516422D01*
X388634Y516435D01*
X388695Y516441D01*
X388854Y516484D01*
X389014Y516520D01*
X389070Y516543D01*
X389129Y516559D01*
X389277Y516630D01*
X389429Y516693D01*
X389481Y516726D01*
X389536Y516753D01*
X389669Y516848D01*
X389808Y516938D01*
X389865Y516989D01*
X389902Y517015D01*
X389944Y517058D01*
X390042Y517144D01*
X390540Y517643D01*
X394320Y517643D01*
X396993Y514970D01*
X396993Y511190D01*
X394320Y508517D01*
X390540Y508517D01*
X390042Y509016D01*
X389915Y509121D01*
X389795Y509233D01*
X389743Y509265D01*
X389696Y509304D01*
X389554Y509386D01*
X389415Y509474D01*
X389358Y509498D01*
X389305Y509528D01*
X389151Y509583D01*
X388998Y509645D01*
X388939Y509658D01*
X388881Y509679D01*
X388719Y509705D01*
X388558Y509740D01*
X388481Y509745D01*
X388437Y509752D01*
X388376Y509751D01*
X388246Y509759D01*
X359305Y509759D01*
X351009Y518055D01*
X351009Y529703D01*
X350995Y529866D01*
X350988Y530031D01*
X350975Y530090D01*
X350969Y530151D01*
X350926Y530310D01*
X350890Y530470D01*
X350867Y530527D01*
X350851Y530586D01*
X350780Y530734D01*
X350717Y530886D01*
X350684Y530937D01*
X350657Y530992D01*
X350562Y531126D01*
X350472Y531264D01*
X350421Y531322D01*
X350395Y531358D01*
X350352Y531401D01*
X350266Y531498D01*
X347348Y534416D01*
X347222Y534521D01*
X347101Y534633D01*
X347050Y534665D01*
X347003Y534704D01*
X346860Y534786D01*
X346721Y534874D01*
X346665Y534898D01*
X346612Y534928D01*
X346457Y534983D01*
X346305Y535045D01*
X346245Y535058D01*
X346188Y535079D01*
X346025Y535105D01*
X345865Y535140D01*
X345788Y535145D01*
X345743Y535152D01*
X345682Y535151D01*
X345553Y535159D01*
X177977Y535159D01*
X177848Y535148D01*
X177718Y535146D01*
X177624Y535128D01*
X177529Y535119D01*
X177403Y535085D01*
X177276Y535060D01*
X177186Y535026D01*
X177094Y535001D01*
X176977Y534945D01*
X176856Y534898D01*
X176774Y534848D01*
X176688Y534807D01*
X176582Y534732D01*
X176471Y534664D01*
X176399Y534601D01*
X176322Y534545D01*
X176231Y534452D01*
X176134Y534366D01*
X176074Y534291D01*
X176008Y534223D01*
X175935Y534115D01*
X175854Y534013D01*
X175809Y533929D01*
X175756Y533850D01*
X175703Y533731D01*
X175641Y533616D01*
X175612Y533525D01*
X175573Y533438D01*
X175542Y533311D01*
X175502Y533188D01*
X175489Y533093D01*
X175467Y533000D01*
X175459Y532871D01*
X175441Y532742D01*
X175445Y532646D01*
X175439Y532551D01*
X175454Y532422D01*
X175459Y532292D01*
X175480Y532199D01*
X175491Y532104D01*
X175529Y531979D01*
X175557Y531852D01*
X175594Y531764D01*
X175621Y531673D01*
X175680Y531557D01*
X175730Y531437D01*
X175782Y531356D01*
X175826Y531271D01*
X175904Y531168D01*
X175975Y531059D01*
X176061Y530961D01*
X176098Y530913D01*
X176131Y530882D01*
X176182Y530824D01*
X196212Y510794D01*
X198901Y508105D01*
X198901Y445657D01*
X198915Y445494D01*
X198922Y445329D01*
X198935Y445270D01*
X198941Y445209D01*
X198984Y445050D01*
X199020Y444890D01*
X199043Y444833D01*
X199059Y444774D01*
X199130Y444626D01*
X199193Y444474D01*
X199226Y444423D01*
X199253Y444368D01*
X199348Y444234D01*
X199438Y444096D01*
X199489Y444038D01*
X199515Y444002D01*
X199558Y443959D01*
X199644Y443862D01*
X217951Y425555D01*
X217951Y348870D01*
X217954Y348835D01*
X217952Y348801D01*
X217974Y348612D01*
X217991Y348421D01*
X218000Y348388D01*
X218004Y348354D01*
X218059Y348171D01*
X218109Y347987D01*
X218124Y347956D01*
X218134Y347923D01*
X218221Y347752D01*
X218303Y347580D01*
X218323Y347552D01*
X218338Y347521D01*
X218454Y347369D01*
X218565Y347214D01*
X218590Y347190D01*
X218610Y347163D01*
X218750Y347034D01*
X218887Y346900D01*
X218916Y346881D01*
X218942Y346857D01*
X219103Y346755D01*
X219260Y346648D01*
X219292Y346634D01*
X219321Y346616D01*
X219498Y346543D01*
X219672Y346466D01*
X219706Y346458D01*
X219738Y346445D01*
X219925Y346405D01*
X220110Y346359D01*
X220144Y346357D01*
X220178Y346350D01*
X220490Y346331D01*
X237179Y346331D01*
X238381Y345129D01*
X238381Y338107D01*
X238392Y337978D01*
X238394Y337848D01*
X238412Y337754D01*
X238421Y337659D01*
X238455Y337533D01*
X238480Y337406D01*
X238514Y337316D01*
X238539Y337224D01*
X238595Y337107D01*
X238642Y336986D01*
X238692Y336904D01*
X238733Y336818D01*
X238808Y336712D01*
X238876Y336601D01*
X238939Y336529D01*
X238995Y336452D01*
X239088Y336361D01*
X239174Y336264D01*
X239249Y336204D01*
X239317Y336138D01*
X239425Y336065D01*
X239527Y335984D01*
X239611Y335939D01*
X239690Y335886D01*
X239809Y335833D01*
X239924Y335771D01*
X240015Y335742D01*
X240102Y335703D01*
X240229Y335672D01*
X240352Y335632D01*
X240447Y335619D01*
X240540Y335597D01*
X240669Y335589D01*
X240798Y335571D01*
X240894Y335575D01*
X240989Y335569D01*
X241118Y335584D01*
X241248Y335589D01*
X241341Y335610D01*
X241436Y335621D01*
X241561Y335659D01*
X241688Y335687D01*
X241776Y335724D01*
X241867Y335751D01*
X241983Y335810D01*
X242103Y335860D01*
X242183Y335912D01*
X242269Y335956D01*
X242372Y336034D01*
X242481Y336105D01*
X242579Y336191D01*
X242627Y336228D01*
X242658Y336261D01*
X242716Y336312D01*
X245748Y339344D01*
X284254Y377850D01*
X284359Y377976D01*
X284471Y378097D01*
X284503Y378148D01*
X284542Y378195D01*
X284624Y378338D01*
X284712Y378477D01*
X284736Y378533D01*
X284766Y378586D01*
X284821Y378741D01*
X284883Y378893D01*
X284896Y378953D01*
X284917Y379010D01*
X284943Y379173D01*
X284978Y379333D01*
X284983Y379410D01*
X284990Y379455D01*
X284989Y379516D01*
X284997Y379645D01*
X284997Y380350D01*
X287670Y383023D01*
X291450Y383023D01*
X293246Y381226D01*
X293372Y381121D01*
X293493Y381009D01*
X293545Y380977D01*
X293592Y380938D01*
X293734Y380856D01*
X293873Y380768D01*
X293930Y380744D01*
X293982Y380714D01*
X294137Y380659D01*
X294290Y380597D01*
X294349Y380584D01*
X294407Y380563D01*
X294569Y380537D01*
X294730Y380502D01*
X294807Y380497D01*
X294851Y380490D01*
X294912Y380491D01*
X295042Y380483D01*
X299070Y380483D01*
X301743Y377810D01*
X301743Y374030D01*
X301244Y373532D01*
X301139Y373405D01*
X301027Y373285D01*
X300995Y373233D01*
X300956Y373186D01*
X300874Y373044D01*
X300786Y372905D01*
X300762Y372848D01*
X300732Y372795D01*
X300677Y372641D01*
X300615Y372488D01*
X300602Y372429D01*
X300581Y372371D01*
X300555Y372209D01*
X300520Y372048D01*
X300515Y371971D01*
X300508Y371927D01*
X300509Y371866D01*
X300501Y371736D01*
X300501Y356765D01*
X288544Y344808D01*
X288439Y344682D01*
X288327Y344561D01*
X288295Y344510D01*
X288256Y344463D01*
X288174Y344320D01*
X288086Y344181D01*
X288062Y344125D01*
X288032Y344072D01*
X287977Y343917D01*
X287915Y343765D01*
X287902Y343705D01*
X287881Y343648D01*
X287855Y343485D01*
X287820Y343325D01*
X287815Y343248D01*
X287808Y343203D01*
X287809Y343142D01*
X287801Y343013D01*
X287801Y291987D01*
X287803Y291964D01*
X287802Y291946D01*
X287813Y291847D01*
X287815Y291824D01*
X287822Y291659D01*
X287835Y291600D01*
X287841Y291539D01*
X287884Y291380D01*
X287920Y291220D01*
X287943Y291163D01*
X287959Y291104D01*
X288030Y290956D01*
X288093Y290804D01*
X288126Y290753D01*
X288153Y290698D01*
X288248Y290564D01*
X288338Y290426D01*
X288389Y290368D01*
X288415Y290332D01*
X288458Y290289D01*
X288544Y290192D01*
X328441Y250295D01*
X328441Y219605D01*
X224895Y116059D01*
X204462Y116059D01*
X204251Y116040D01*
X204040Y116024D01*
X204027Y116021D01*
X204014Y116019D01*
X203808Y115963D01*
X203604Y115910D01*
X203592Y115904D01*
X203579Y115901D01*
X203389Y115810D01*
X203196Y115721D01*
X203185Y115713D01*
X203173Y115707D01*
X203001Y115585D01*
X202827Y115462D01*
X202817Y115453D01*
X202807Y115445D01*
X202658Y115293D01*
X202509Y115143D01*
X202502Y115132D01*
X202493Y115123D01*
X202374Y114947D01*
X202253Y114773D01*
X202246Y114758D01*
X202241Y114750D01*
X202225Y114714D01*
X202116Y114492D01*
X201514Y113039D01*
X198365Y109890D01*
X196280Y109026D01*
X196165Y108966D01*
X196046Y108914D01*
X195966Y108862D01*
X195881Y108817D01*
X195778Y108738D01*
X195670Y108666D01*
X195601Y108600D01*
X195525Y108542D01*
X195438Y108445D01*
X195344Y108355D01*
X195288Y108278D01*
X195224Y108207D01*
X195155Y108097D01*
X195078Y107992D01*
X195036Y107906D01*
X194986Y107825D01*
X194938Y107704D01*
X194881Y107588D01*
X194854Y107496D01*
X194819Y107407D01*
X194793Y107279D01*
X194758Y107154D01*
X194748Y107059D01*
X194729Y106966D01*
X194726Y106836D01*
X194713Y106706D01*
X194720Y106611D01*
X194718Y106516D01*
X194738Y106387D01*
X194748Y106257D01*
X194772Y106165D01*
X194787Y106071D01*
X194829Y105948D01*
X194862Y105822D01*
X194902Y105735D01*
X194933Y105645D01*
X194997Y105531D01*
X195051Y105413D01*
X195106Y105335D01*
X195153Y105252D01*
X195235Y105151D01*
X195310Y105044D01*
X195378Y104977D01*
X195438Y104903D01*
X195537Y104819D01*
X195629Y104727D01*
X195708Y104673D01*
X195780Y104611D01*
X195893Y104545D01*
X196000Y104471D01*
X196117Y104414D01*
X196169Y104383D01*
X196211Y104368D01*
X196280Y104334D01*
X198365Y103470D01*
X201514Y100321D01*
X203219Y96207D01*
X203219Y91753D01*
X201514Y87639D01*
X198365Y84490D01*
X196930Y83895D01*
X196903Y83881D01*
X196874Y83871D01*
X196704Y83777D01*
X196531Y83687D01*
X196507Y83668D01*
X196480Y83653D01*
X196329Y83530D01*
X196175Y83411D01*
X196155Y83388D01*
X196131Y83369D01*
X196004Y83221D01*
X195873Y83077D01*
X195857Y83051D01*
X195837Y83028D01*
X195738Y82859D01*
X195635Y82694D01*
X195624Y82666D01*
X195609Y82640D01*
X195541Y82457D01*
X195469Y82276D01*
X195463Y82246D01*
X195452Y82218D01*
X195418Y82026D01*
X195379Y81835D01*
X195378Y81804D01*
X195372Y81775D01*
X195372Y81580D01*
X195368Y81385D01*
X195372Y81355D01*
X195372Y81324D01*
X195407Y81133D01*
X195437Y80940D01*
X195447Y80911D01*
X195452Y80881D01*
X195520Y80698D01*
X195583Y80514D01*
X195598Y80487D01*
X195608Y80459D01*
X195707Y80291D01*
X195802Y80121D01*
X195822Y80097D01*
X195837Y80071D01*
X195964Y79923D01*
X196088Y79772D01*
X196111Y79753D01*
X196131Y79730D01*
X196282Y79606D01*
X196430Y79480D01*
X196456Y79464D01*
X196480Y79445D01*
X196749Y79287D01*
X198148Y78574D01*
X199636Y77493D01*
X200937Y76192D01*
X202018Y74704D01*
X202853Y73065D01*
X203421Y71316D01*
X203452Y71119D01*
X182880Y71119D01*
X182880Y71119D01*
G37*
%LPD*%
G36*
X207563Y250974D02*
X207563Y250974D01*
X207597Y250972D01*
X207786Y250994D01*
X207977Y251011D01*
X208010Y251020D01*
X208044Y251024D01*
X208227Y251079D01*
X208411Y251129D01*
X208442Y251144D01*
X208475Y251154D01*
X208646Y251241D01*
X208818Y251323D01*
X208846Y251343D01*
X208877Y251358D01*
X209029Y251474D01*
X209184Y251585D01*
X209208Y251610D01*
X209235Y251630D01*
X209364Y251770D01*
X209498Y251907D01*
X209517Y251936D01*
X209541Y251962D01*
X209643Y252123D01*
X209750Y252280D01*
X209764Y252312D01*
X209782Y252341D01*
X209855Y252518D01*
X209932Y252692D01*
X209940Y252726D01*
X209953Y252758D01*
X209993Y252945D01*
X210039Y253130D01*
X210041Y253164D01*
X210048Y253198D01*
X210067Y253510D01*
X210067Y254620D01*
X210566Y255118D01*
X210671Y255244D01*
X210783Y255365D01*
X210815Y255417D01*
X210854Y255464D01*
X210936Y255606D01*
X211024Y255745D01*
X211048Y255802D01*
X211078Y255854D01*
X211133Y256009D01*
X211195Y256162D01*
X211208Y256221D01*
X211229Y256279D01*
X211255Y256441D01*
X211290Y256602D01*
X211295Y256679D01*
X211302Y256723D01*
X211301Y256784D01*
X211309Y256914D01*
X211309Y322963D01*
X211293Y323144D01*
X211283Y323326D01*
X211273Y323368D01*
X211269Y323411D01*
X211221Y323587D01*
X211180Y323764D01*
X211162Y323804D01*
X211151Y323846D01*
X211073Y324010D01*
X211000Y324177D01*
X210976Y324213D01*
X210957Y324252D01*
X210852Y324400D01*
X210751Y324552D01*
X210721Y324583D01*
X210695Y324618D01*
X210565Y324746D01*
X210439Y324876D01*
X210404Y324902D01*
X210373Y324932D01*
X210222Y325034D01*
X210075Y325141D01*
X210036Y325160D01*
X210000Y325185D01*
X209833Y325258D01*
X209670Y325337D01*
X209628Y325349D01*
X209588Y325367D01*
X209411Y325410D01*
X209236Y325459D01*
X209193Y325463D01*
X209150Y325473D01*
X208969Y325485D01*
X208788Y325502D01*
X208744Y325498D01*
X208701Y325501D01*
X208520Y325480D01*
X208339Y325465D01*
X208297Y325454D01*
X208254Y325449D01*
X208079Y325396D01*
X207904Y325350D01*
X207855Y325328D01*
X207823Y325319D01*
X207767Y325290D01*
X207617Y325225D01*
X206360Y324585D01*
X204633Y324023D01*
X204469Y323998D01*
X204469Y335280D01*
X204469Y346562D01*
X204633Y346537D01*
X206360Y345975D01*
X207617Y345335D01*
X207786Y345267D01*
X207952Y345193D01*
X207995Y345183D01*
X208035Y345167D01*
X208213Y345130D01*
X208390Y345087D01*
X208433Y345084D01*
X208476Y345075D01*
X208658Y345070D01*
X208839Y345059D01*
X208882Y345064D01*
X208926Y345063D01*
X209106Y345090D01*
X209286Y345111D01*
X209328Y345124D01*
X209371Y345130D01*
X209543Y345189D01*
X209717Y345241D01*
X209756Y345261D01*
X209797Y345275D01*
X209956Y345363D01*
X210119Y345446D01*
X210153Y345472D01*
X210191Y345493D01*
X210332Y345608D01*
X210477Y345718D01*
X210507Y345750D01*
X210541Y345777D01*
X210659Y345915D01*
X210783Y346049D01*
X210806Y346086D01*
X210834Y346118D01*
X210926Y346275D01*
X211024Y346429D01*
X211041Y346469D01*
X211063Y346506D01*
X211126Y346677D01*
X211195Y346845D01*
X211204Y346888D01*
X211220Y346928D01*
X211252Y347107D01*
X211290Y347285D01*
X211293Y347339D01*
X211299Y347372D01*
X211299Y347435D01*
X211309Y347597D01*
X211309Y421753D01*
X211295Y421916D01*
X211288Y422081D01*
X211275Y422140D01*
X211269Y422201D01*
X211226Y422360D01*
X211190Y422520D01*
X211167Y422577D01*
X211151Y422636D01*
X211080Y422784D01*
X211017Y422936D01*
X210984Y422987D01*
X210957Y423042D01*
X210862Y423176D01*
X210772Y423314D01*
X210721Y423372D01*
X210695Y423408D01*
X210652Y423451D01*
X210566Y423548D01*
X192259Y441855D01*
X192259Y448828D01*
X192256Y448863D01*
X192258Y448897D01*
X192236Y449086D01*
X192219Y449277D01*
X192210Y449310D01*
X192206Y449344D01*
X192151Y449527D01*
X192101Y449711D01*
X192086Y449742D01*
X192076Y449775D01*
X191989Y449946D01*
X191907Y450118D01*
X191887Y450146D01*
X191872Y450177D01*
X191756Y450329D01*
X191645Y450484D01*
X191620Y450508D01*
X191600Y450535D01*
X191460Y450664D01*
X191323Y450798D01*
X191294Y450817D01*
X191268Y450841D01*
X191107Y450943D01*
X190950Y451050D01*
X190918Y451064D01*
X190889Y451082D01*
X190712Y451155D01*
X190538Y451232D01*
X190504Y451240D01*
X190472Y451253D01*
X190285Y451293D01*
X190100Y451339D01*
X190066Y451341D01*
X190032Y451348D01*
X189720Y451367D01*
X187340Y451367D01*
X184667Y454040D01*
X184667Y457820D01*
X185166Y458318D01*
X185271Y458445D01*
X185383Y458565D01*
X185415Y458617D01*
X185454Y458664D01*
X185536Y458806D01*
X185624Y458945D01*
X185648Y459002D01*
X185678Y459055D01*
X185733Y459209D01*
X185795Y459362D01*
X185808Y459421D01*
X185829Y459479D01*
X185855Y459641D01*
X185890Y459802D01*
X185895Y459879D01*
X185902Y459923D01*
X185901Y459984D01*
X185909Y460114D01*
X185909Y497953D01*
X185895Y498116D01*
X185888Y498281D01*
X185875Y498340D01*
X185869Y498401D01*
X185826Y498560D01*
X185790Y498720D01*
X185767Y498777D01*
X185751Y498836D01*
X185680Y498984D01*
X185617Y499136D01*
X185584Y499187D01*
X185557Y499242D01*
X185462Y499376D01*
X185372Y499514D01*
X185321Y499572D01*
X185295Y499608D01*
X185252Y499651D01*
X185166Y499748D01*
X171486Y513428D01*
X171386Y513512D01*
X171293Y513602D01*
X171213Y513656D01*
X171140Y513717D01*
X171027Y513782D01*
X170920Y513854D01*
X170832Y513893D01*
X170749Y513941D01*
X170627Y513984D01*
X170508Y514037D01*
X170415Y514059D01*
X170325Y514091D01*
X170196Y514113D01*
X170070Y514143D01*
X169975Y514149D01*
X169881Y514165D01*
X169750Y514163D01*
X169621Y514171D01*
X169526Y514160D01*
X169430Y514159D01*
X169303Y514134D01*
X169174Y514119D01*
X169082Y514091D01*
X168988Y514073D01*
X168867Y514026D01*
X168743Y513989D01*
X168658Y513945D01*
X168568Y513911D01*
X168457Y513843D01*
X168341Y513784D01*
X168265Y513727D01*
X168184Y513677D01*
X168086Y513591D01*
X167983Y513512D01*
X167918Y513442D01*
X167846Y513379D01*
X167766Y513277D01*
X167677Y513181D01*
X167626Y513101D01*
X167567Y513026D01*
X167506Y512911D01*
X167436Y512801D01*
X167399Y512713D01*
X167354Y512629D01*
X167314Y512505D01*
X167265Y512385D01*
X167245Y512291D01*
X167215Y512201D01*
X167197Y512072D01*
X167170Y511945D01*
X167162Y511815D01*
X167154Y511755D01*
X167155Y511710D01*
X167151Y511633D01*
X167151Y422014D01*
X167165Y421850D01*
X167172Y421686D01*
X167185Y421626D01*
X167191Y421565D01*
X167234Y421406D01*
X167270Y421246D01*
X167293Y421190D01*
X167309Y421131D01*
X167380Y420983D01*
X167443Y420831D01*
X167476Y420779D01*
X167503Y420724D01*
X167598Y420591D01*
X167688Y420452D01*
X167739Y420395D01*
X167765Y420358D01*
X167808Y420316D01*
X167894Y420218D01*
X168393Y419720D01*
X168393Y415940D01*
X165720Y413267D01*
X161940Y413267D01*
X159267Y415940D01*
X159267Y419720D01*
X159766Y420218D01*
X159871Y420345D01*
X159983Y420465D01*
X160015Y420517D01*
X160054Y420564D01*
X160136Y420706D01*
X160224Y420845D01*
X160248Y420902D01*
X160278Y420955D01*
X160333Y421109D01*
X160395Y421262D01*
X160408Y421321D01*
X160429Y421379D01*
X160455Y421541D01*
X160490Y421702D01*
X160495Y421779D01*
X160502Y421823D01*
X160501Y421884D01*
X160509Y422014D01*
X160509Y446544D01*
X160498Y446674D01*
X160496Y446804D01*
X160478Y446897D01*
X160469Y446993D01*
X160435Y447118D01*
X160410Y447246D01*
X160376Y447335D01*
X160351Y447427D01*
X160295Y447544D01*
X160248Y447666D01*
X160198Y447747D01*
X160157Y447834D01*
X160082Y447939D01*
X160014Y448050D01*
X159951Y448122D01*
X159895Y448200D01*
X159802Y448290D01*
X159716Y448388D01*
X159641Y448447D01*
X159573Y448514D01*
X159465Y448586D01*
X159363Y448667D01*
X159279Y448712D01*
X159200Y448766D01*
X159081Y448818D01*
X158966Y448880D01*
X158875Y448909D01*
X158788Y448948D01*
X158662Y448979D01*
X158538Y449019D01*
X158443Y449032D01*
X158350Y449055D01*
X158221Y449063D01*
X158092Y449080D01*
X157996Y449076D01*
X157901Y449082D01*
X157772Y449067D01*
X157642Y449062D01*
X157549Y449041D01*
X157454Y449030D01*
X157329Y448993D01*
X157202Y448964D01*
X157114Y448928D01*
X157023Y448900D01*
X156907Y448841D01*
X156787Y448791D01*
X156707Y448739D01*
X156621Y448696D01*
X156518Y448617D01*
X156409Y448546D01*
X156311Y448460D01*
X156263Y448424D01*
X156232Y448391D01*
X156174Y448340D01*
X154821Y446986D01*
X150613Y445243D01*
X146059Y445243D01*
X141851Y446986D01*
X138630Y450207D01*
X136887Y454415D01*
X136887Y458969D01*
X138630Y463177D01*
X141851Y466398D01*
X146059Y468141D01*
X150613Y468141D01*
X154821Y466398D01*
X156174Y465044D01*
X156274Y464961D01*
X156367Y464870D01*
X156447Y464817D01*
X156520Y464756D01*
X156633Y464691D01*
X156740Y464618D01*
X156828Y464580D01*
X156911Y464532D01*
X157033Y464489D01*
X157152Y464436D01*
X157245Y464413D01*
X157335Y464381D01*
X157463Y464360D01*
X157590Y464329D01*
X157685Y464324D01*
X157779Y464308D01*
X157909Y464310D01*
X158039Y464302D01*
X158134Y464313D01*
X158230Y464314D01*
X158357Y464339D01*
X158486Y464354D01*
X158578Y464381D01*
X158672Y464400D01*
X158793Y464446D01*
X158917Y464484D01*
X159003Y464527D01*
X159092Y464562D01*
X159203Y464629D01*
X159319Y464688D01*
X159395Y464746D01*
X159476Y464796D01*
X159574Y464882D01*
X159677Y464960D01*
X159742Y465031D01*
X159814Y465094D01*
X159894Y465196D01*
X159983Y465292D01*
X160034Y465372D01*
X160093Y465447D01*
X160155Y465562D01*
X160224Y465671D01*
X160261Y465760D01*
X160306Y465844D01*
X160346Y465968D01*
X160395Y466088D01*
X160415Y466181D01*
X160445Y466272D01*
X160463Y466401D01*
X160490Y466528D01*
X160498Y466658D01*
X160506Y466718D01*
X160505Y466763D01*
X160509Y466840D01*
X160509Y510653D01*
X160495Y510816D01*
X160488Y510981D01*
X160475Y511040D01*
X160469Y511101D01*
X160426Y511260D01*
X160390Y511420D01*
X160367Y511477D01*
X160351Y511536D01*
X160280Y511684D01*
X160217Y511836D01*
X160184Y511887D01*
X160157Y511942D01*
X160062Y512076D01*
X159972Y512214D01*
X159921Y512272D01*
X159895Y512308D01*
X159852Y512351D01*
X159766Y512448D01*
X158090Y514124D01*
X157964Y514229D01*
X157843Y514341D01*
X157792Y514373D01*
X157745Y514412D01*
X157602Y514494D01*
X157463Y514582D01*
X157407Y514606D01*
X157354Y514636D01*
X157199Y514691D01*
X157047Y514753D01*
X156987Y514766D01*
X156930Y514787D01*
X156767Y514813D01*
X156607Y514848D01*
X156530Y514853D01*
X156485Y514860D01*
X156424Y514859D01*
X156295Y514867D01*
X155590Y514867D01*
X152917Y517540D01*
X152917Y521320D01*
X155590Y523993D01*
X156728Y523993D01*
X156763Y523996D01*
X156797Y523994D01*
X156986Y524016D01*
X157177Y524033D01*
X157210Y524042D01*
X157244Y524046D01*
X157427Y524101D01*
X157611Y524151D01*
X157642Y524166D01*
X157675Y524176D01*
X157846Y524263D01*
X158018Y524345D01*
X158046Y524365D01*
X158077Y524380D01*
X158229Y524496D01*
X158384Y524607D01*
X158408Y524632D01*
X158435Y524652D01*
X158564Y524792D01*
X158698Y524929D01*
X158717Y524958D01*
X158741Y524984D01*
X158843Y525145D01*
X158950Y525302D01*
X158964Y525334D01*
X158982Y525363D01*
X159055Y525540D01*
X159132Y525714D01*
X159140Y525748D01*
X159153Y525780D01*
X159193Y525967D01*
X159239Y526152D01*
X159241Y526186D01*
X159248Y526220D01*
X159267Y526532D01*
X159267Y527670D01*
X162422Y530824D01*
X162505Y530924D01*
X162596Y531017D01*
X162650Y531097D01*
X162711Y531170D01*
X162775Y531283D01*
X162848Y531390D01*
X162887Y531478D01*
X162934Y531561D01*
X162978Y531683D01*
X163030Y531802D01*
X163053Y531895D01*
X163085Y531985D01*
X163106Y532113D01*
X163137Y532240D01*
X163143Y532335D01*
X163158Y532429D01*
X163157Y532559D01*
X163165Y532689D01*
X163154Y532784D01*
X163152Y532880D01*
X163128Y533007D01*
X163113Y533136D01*
X163085Y533228D01*
X163067Y533322D01*
X163020Y533443D01*
X162982Y533567D01*
X162939Y533653D01*
X162904Y533742D01*
X162837Y533853D01*
X162778Y533969D01*
X162720Y534045D01*
X162671Y534126D01*
X162584Y534224D01*
X162506Y534327D01*
X162436Y534392D01*
X162372Y534464D01*
X162270Y534544D01*
X162175Y534633D01*
X162094Y534684D01*
X162019Y534743D01*
X161905Y534804D01*
X161795Y534874D01*
X161707Y534911D01*
X161622Y534956D01*
X161499Y534996D01*
X161378Y535045D01*
X161285Y535065D01*
X161194Y535095D01*
X161065Y535113D01*
X160938Y535140D01*
X160809Y535148D01*
X160748Y535156D01*
X160703Y535155D01*
X160626Y535159D01*
X148964Y535159D01*
X148800Y535145D01*
X148636Y535138D01*
X148576Y535125D01*
X148515Y535119D01*
X148356Y535076D01*
X148196Y535040D01*
X148140Y535017D01*
X148081Y535001D01*
X147933Y534930D01*
X147781Y534867D01*
X147729Y534834D01*
X147674Y534807D01*
X147541Y534712D01*
X147402Y534622D01*
X147345Y534571D01*
X147308Y534545D01*
X147266Y534502D01*
X147168Y534416D01*
X146670Y533917D01*
X144290Y533917D01*
X144255Y533914D01*
X144221Y533916D01*
X144032Y533894D01*
X143841Y533877D01*
X143808Y533868D01*
X143774Y533864D01*
X143591Y533809D01*
X143407Y533759D01*
X143376Y533744D01*
X143343Y533734D01*
X143172Y533647D01*
X143000Y533565D01*
X142972Y533545D01*
X142941Y533530D01*
X142789Y533414D01*
X142634Y533303D01*
X142610Y533278D01*
X142583Y533258D01*
X142454Y533118D01*
X142320Y532981D01*
X142301Y532952D01*
X142277Y532926D01*
X142175Y532765D01*
X142068Y532608D01*
X142054Y532576D01*
X142036Y532547D01*
X141963Y532370D01*
X141886Y532196D01*
X141878Y532162D01*
X141865Y532130D01*
X141825Y531943D01*
X141779Y531758D01*
X141777Y531724D01*
X141770Y531690D01*
X141751Y531378D01*
X141751Y517264D01*
X141765Y517100D01*
X141772Y516936D01*
X141785Y516876D01*
X141791Y516815D01*
X141834Y516656D01*
X141870Y516496D01*
X141893Y516440D01*
X141909Y516381D01*
X141980Y516233D01*
X142043Y516081D01*
X142076Y516029D01*
X142103Y515974D01*
X142198Y515841D01*
X142288Y515702D01*
X142339Y515645D01*
X142365Y515608D01*
X142408Y515566D01*
X142494Y515468D01*
X142993Y514970D01*
X142993Y511190D01*
X140320Y508517D01*
X136540Y508517D01*
X136301Y508757D01*
X136237Y508810D01*
X136181Y508869D01*
X136065Y508954D01*
X135955Y509046D01*
X135884Y509087D01*
X135817Y509135D01*
X135689Y509198D01*
X135564Y509269D01*
X135487Y509297D01*
X135413Y509333D01*
X135275Y509372D01*
X135140Y509420D01*
X135059Y509433D01*
X134979Y509456D01*
X134837Y509470D01*
X134696Y509493D01*
X134614Y509492D01*
X134531Y509500D01*
X134389Y509489D01*
X134246Y509487D01*
X134165Y509472D01*
X134083Y509465D01*
X133944Y509429D01*
X133804Y509402D01*
X133727Y509372D01*
X133647Y509351D01*
X133517Y509291D01*
X133384Y509239D01*
X133313Y509197D01*
X133238Y509162D01*
X133121Y509080D01*
X132999Y509005D01*
X132937Y508951D01*
X132870Y508904D01*
X132769Y508802D01*
X132661Y508707D01*
X132610Y508643D01*
X132552Y508584D01*
X132471Y508467D01*
X132382Y508354D01*
X132343Y508281D01*
X132296Y508214D01*
X132188Y507992D01*
X132169Y507957D01*
X132166Y507947D01*
X132159Y507933D01*
X131664Y506739D01*
X128515Y503590D01*
X124401Y501885D01*
X101659Y501885D01*
X97545Y503590D01*
X94396Y506739D01*
X92691Y510853D01*
X92691Y515307D01*
X94396Y519421D01*
X97545Y522570D01*
X99630Y523434D01*
X99745Y523494D01*
X99864Y523546D01*
X99944Y523598D01*
X100029Y523643D01*
X100131Y523722D01*
X100240Y523794D01*
X100309Y523860D01*
X100385Y523918D01*
X100472Y524015D01*
X100566Y524104D01*
X100622Y524182D01*
X100686Y524252D01*
X100755Y524363D01*
X100832Y524468D01*
X100874Y524554D01*
X100924Y524635D01*
X100972Y524755D01*
X101029Y524872D01*
X101056Y524964D01*
X101091Y525053D01*
X101117Y525180D01*
X101152Y525306D01*
X101162Y525401D01*
X101181Y525494D01*
X101184Y525624D01*
X101197Y525754D01*
X101190Y525849D01*
X101192Y525944D01*
X101172Y526073D01*
X101162Y526203D01*
X101138Y526295D01*
X101123Y526389D01*
X101081Y526512D01*
X101048Y526638D01*
X101008Y526725D01*
X100977Y526815D01*
X100913Y526929D01*
X100859Y527047D01*
X100804Y527125D01*
X100757Y527208D01*
X100675Y527309D01*
X100600Y527416D01*
X100533Y527483D01*
X100472Y527557D01*
X100373Y527641D01*
X100281Y527733D01*
X100202Y527787D01*
X100130Y527849D01*
X100017Y527915D01*
X99910Y527989D01*
X99794Y528046D01*
X99741Y528077D01*
X99699Y528092D01*
X99630Y528126D01*
X97545Y528990D01*
X94396Y532139D01*
X92691Y536253D01*
X92691Y540707D01*
X94396Y544821D01*
X97545Y547970D01*
X99630Y548834D01*
X99745Y548894D01*
X99864Y548946D01*
X99944Y548998D01*
X100029Y549043D01*
X100131Y549122D01*
X100240Y549194D01*
X100309Y549260D01*
X100385Y549318D01*
X100472Y549415D01*
X100566Y549504D01*
X100622Y549582D01*
X100686Y549652D01*
X100755Y549763D01*
X100832Y549868D01*
X100874Y549954D01*
X100924Y550035D01*
X100972Y550155D01*
X101029Y550272D01*
X101056Y550364D01*
X101091Y550453D01*
X101117Y550580D01*
X101152Y550706D01*
X101162Y550801D01*
X101181Y550894D01*
X101184Y551024D01*
X101197Y551154D01*
X101190Y551249D01*
X101192Y551344D01*
X101172Y551473D01*
X101162Y551603D01*
X101138Y551695D01*
X101123Y551789D01*
X101081Y551912D01*
X101048Y552038D01*
X101008Y552125D01*
X100977Y552215D01*
X100913Y552328D01*
X100859Y552447D01*
X100804Y552525D01*
X100757Y552608D01*
X100675Y552709D01*
X100600Y552816D01*
X100533Y552883D01*
X100472Y552957D01*
X100373Y553041D01*
X100281Y553133D01*
X100202Y553187D01*
X100130Y553249D01*
X100017Y553315D01*
X99910Y553389D01*
X99794Y553446D01*
X99741Y553477D01*
X99699Y553492D01*
X99630Y553526D01*
X97545Y554390D01*
X94396Y557539D01*
X92691Y561653D01*
X92691Y566107D01*
X94396Y570221D01*
X97545Y573370D01*
X99630Y574234D01*
X99745Y574294D01*
X99864Y574346D01*
X99944Y574398D01*
X100029Y574443D01*
X100131Y574522D01*
X100240Y574594D01*
X100309Y574660D01*
X100385Y574718D01*
X100472Y574815D01*
X100566Y574904D01*
X100622Y574982D01*
X100686Y575052D01*
X100755Y575163D01*
X100832Y575268D01*
X100874Y575354D01*
X100924Y575435D01*
X100972Y575555D01*
X101029Y575672D01*
X101056Y575764D01*
X101091Y575853D01*
X101117Y575980D01*
X101152Y576106D01*
X101162Y576201D01*
X101181Y576294D01*
X101184Y576424D01*
X101197Y576554D01*
X101190Y576649D01*
X101192Y576744D01*
X101172Y576873D01*
X101162Y577003D01*
X101138Y577095D01*
X101123Y577189D01*
X101081Y577312D01*
X101048Y577438D01*
X101008Y577525D01*
X100977Y577615D01*
X100913Y577729D01*
X100859Y577847D01*
X100804Y577925D01*
X100757Y578008D01*
X100675Y578109D01*
X100600Y578216D01*
X100533Y578283D01*
X100472Y578357D01*
X100373Y578441D01*
X100281Y578533D01*
X100202Y578587D01*
X100130Y578649D01*
X100017Y578715D01*
X99910Y578789D01*
X99794Y578846D01*
X99741Y578877D01*
X99699Y578892D01*
X99630Y578926D01*
X97545Y579790D01*
X94396Y582939D01*
X92691Y587053D01*
X92691Y591507D01*
X94396Y595621D01*
X97545Y598770D01*
X98980Y599365D01*
X99007Y599379D01*
X99036Y599389D01*
X99206Y599483D01*
X99379Y599573D01*
X99403Y599592D01*
X99430Y599607D01*
X99581Y599730D01*
X99735Y599849D01*
X99755Y599872D01*
X99779Y599891D01*
X99906Y600039D01*
X100037Y600183D01*
X100053Y600209D01*
X100073Y600232D01*
X100172Y600400D01*
X100275Y600566D01*
X100286Y600594D01*
X100301Y600620D01*
X100369Y600803D01*
X100441Y600984D01*
X100447Y601014D01*
X100458Y601042D01*
X100492Y601234D01*
X100531Y601425D01*
X100532Y601456D01*
X100537Y601485D01*
X100538Y601681D01*
X100542Y601875D01*
X100538Y601905D01*
X100538Y601936D01*
X100503Y602128D01*
X100473Y602320D01*
X100463Y602349D01*
X100458Y602379D01*
X100390Y602563D01*
X100327Y602746D01*
X100312Y602773D01*
X100302Y602801D01*
X100202Y602969D01*
X100108Y603139D01*
X100088Y603163D01*
X100073Y603189D01*
X99946Y603337D01*
X99822Y603488D01*
X99799Y603507D01*
X99779Y603530D01*
X99628Y603654D01*
X99480Y603780D01*
X99454Y603795D01*
X99430Y603815D01*
X99161Y603973D01*
X97762Y604686D01*
X96274Y605767D01*
X94973Y607068D01*
X93892Y608556D01*
X93057Y610195D01*
X92489Y611944D01*
X92458Y612141D01*
X113030Y612141D01*
X113064Y612144D01*
X113099Y612142D01*
X113288Y612164D01*
X113478Y612180D01*
X113512Y612190D01*
X113546Y612194D01*
X113729Y612249D01*
X113913Y612299D01*
X113944Y612314D01*
X113977Y612324D01*
X114148Y612411D01*
X114319Y612492D01*
X114347Y612513D01*
X114378Y612528D01*
X114530Y612643D01*
X114685Y612755D01*
X114709Y612779D01*
X114737Y612800D01*
X114866Y612940D01*
X114999Y613077D01*
X115019Y613106D01*
X115042Y613131D01*
X115145Y613292D01*
X115251Y613450D01*
X115265Y613482D01*
X115284Y613511D01*
X115356Y613688D01*
X115434Y613862D01*
X115442Y613896D01*
X115455Y613928D01*
X115495Y614114D01*
X115540Y614299D01*
X115542Y614334D01*
X115550Y614368D01*
X115569Y614680D01*
X115566Y614715D01*
X115568Y614749D01*
X115546Y614939D01*
X115529Y615129D01*
X115520Y615162D01*
X115516Y615196D01*
X115461Y615379D01*
X115410Y615563D01*
X115396Y615594D01*
X115386Y615627D01*
X115299Y615798D01*
X115217Y615970D01*
X115197Y615998D01*
X115181Y616029D01*
X115066Y616181D01*
X114955Y616336D01*
X114930Y616360D01*
X114909Y616387D01*
X114769Y616517D01*
X114632Y616650D01*
X114604Y616669D01*
X114578Y616693D01*
X114417Y616795D01*
X114259Y616902D01*
X114228Y616916D01*
X114198Y616934D01*
X114022Y617007D01*
X113847Y617084D01*
X113814Y617092D01*
X113782Y617105D01*
X113595Y617146D01*
X113410Y617191D01*
X113376Y617193D01*
X113342Y617200D01*
X113030Y617219D01*
X92458Y617219D01*
X92489Y617416D01*
X93057Y619165D01*
X93892Y620804D01*
X94973Y622292D01*
X96274Y623593D01*
X97762Y624674D01*
X99161Y625387D01*
X99187Y625403D01*
X99215Y625415D01*
X99377Y625522D01*
X99543Y625626D01*
X99565Y625646D01*
X99590Y625663D01*
X99731Y625797D01*
X99876Y625929D01*
X99894Y625953D01*
X99916Y625974D01*
X100031Y626130D01*
X100150Y626285D01*
X100164Y626312D01*
X100182Y626337D01*
X100268Y626512D01*
X100357Y626685D01*
X100366Y626714D01*
X100380Y626742D01*
X100433Y626929D01*
X100491Y627115D01*
X100494Y627145D01*
X100503Y627175D01*
X100522Y627369D01*
X100546Y627562D01*
X100544Y627592D01*
X100547Y627623D01*
X100532Y627817D01*
X100521Y628012D01*
X100514Y628041D01*
X100512Y628072D01*
X100463Y628260D01*
X100418Y628450D01*
X100406Y628478D01*
X100398Y628507D01*
X100316Y628684D01*
X100239Y628863D01*
X100222Y628888D01*
X100209Y628916D01*
X100097Y629075D01*
X99989Y629238D01*
X99968Y629260D01*
X99951Y629285D01*
X99812Y629422D01*
X99677Y629563D01*
X99653Y629581D01*
X99631Y629602D01*
X99471Y629713D01*
X99313Y629827D01*
X99286Y629841D01*
X99261Y629858D01*
X98980Y629995D01*
X97545Y630590D01*
X94396Y633739D01*
X93901Y634933D01*
X93863Y635006D01*
X93833Y635083D01*
X93759Y635205D01*
X93692Y635332D01*
X93642Y635397D01*
X93599Y635468D01*
X93504Y635575D01*
X93417Y635688D01*
X93355Y635743D01*
X93301Y635805D01*
X93189Y635894D01*
X93082Y635990D01*
X93012Y636033D01*
X92948Y636084D01*
X92822Y636152D01*
X92700Y636228D01*
X92624Y636258D01*
X92551Y636297D01*
X92415Y636341D01*
X92282Y636394D01*
X92201Y636411D01*
X92123Y636436D01*
X91981Y636456D01*
X91841Y636484D01*
X91758Y636486D01*
X91677Y636498D01*
X91533Y636492D01*
X91391Y636495D01*
X91309Y636483D01*
X91227Y636479D01*
X91087Y636448D01*
X90946Y636426D01*
X90868Y636400D01*
X90787Y636382D01*
X90655Y636326D01*
X90520Y636280D01*
X90448Y636240D01*
X90372Y636208D01*
X90252Y636130D01*
X90126Y636061D01*
X90063Y636008D01*
X89994Y635964D01*
X89809Y635800D01*
X89778Y635775D01*
X89771Y635767D01*
X89759Y635757D01*
X89520Y635517D01*
X89116Y635517D01*
X88999Y635507D01*
X88883Y635507D01*
X88788Y635489D01*
X69360Y635489D01*
X69325Y635486D01*
X69291Y635488D01*
X69102Y635466D01*
X68911Y635449D01*
X68878Y635440D01*
X68844Y635436D01*
X68661Y635381D01*
X68477Y635331D01*
X68446Y635316D01*
X68413Y635306D01*
X68242Y635219D01*
X68070Y635137D01*
X68042Y635117D01*
X68011Y635102D01*
X67859Y634986D01*
X67704Y634875D01*
X67680Y634850D01*
X67653Y634830D01*
X67524Y634690D01*
X67390Y634553D01*
X67371Y634524D01*
X67347Y634498D01*
X67245Y634337D01*
X67138Y634180D01*
X67124Y634148D01*
X67106Y634119D01*
X67033Y633942D01*
X66956Y633768D01*
X66948Y633734D01*
X66935Y633702D01*
X66895Y633515D01*
X66849Y633330D01*
X66847Y633296D01*
X66840Y633262D01*
X66821Y632950D01*
X66821Y488460D01*
X66824Y488425D01*
X66822Y488391D01*
X66844Y488202D01*
X66861Y488011D01*
X66870Y487978D01*
X66874Y487944D01*
X66929Y487761D01*
X66979Y487577D01*
X66994Y487546D01*
X67004Y487513D01*
X67091Y487342D01*
X67173Y487170D01*
X67193Y487142D01*
X67208Y487111D01*
X67324Y486959D01*
X67435Y486804D01*
X67460Y486780D01*
X67480Y486753D01*
X67620Y486624D01*
X67757Y486490D01*
X67786Y486471D01*
X67812Y486447D01*
X67973Y486345D01*
X68130Y486238D01*
X68162Y486224D01*
X68191Y486206D01*
X68368Y486133D01*
X68542Y486056D01*
X68576Y486048D01*
X68608Y486035D01*
X68795Y485995D01*
X68980Y485949D01*
X69014Y485947D01*
X69048Y485940D01*
X69360Y485921D01*
X88763Y485921D01*
X88804Y485912D01*
X88958Y485902D01*
X89020Y485895D01*
X89057Y485896D01*
X89116Y485893D01*
X89520Y485893D01*
X89806Y485607D01*
X89895Y485532D01*
X89978Y485450D01*
X90057Y485395D01*
X91677Y483775D01*
X91700Y483740D01*
X91803Y483624D01*
X91841Y483574D01*
X91868Y483550D01*
X91907Y483506D01*
X92193Y483220D01*
X92193Y482816D01*
X92203Y482699D01*
X92203Y482583D01*
X92221Y482488D01*
X92221Y480197D01*
X92212Y480156D01*
X92202Y480002D01*
X92195Y479940D01*
X92196Y479903D01*
X92193Y479844D01*
X92193Y479440D01*
X91907Y479154D01*
X91832Y479065D01*
X91750Y478982D01*
X91695Y478903D01*
X90075Y477283D01*
X90040Y477260D01*
X89924Y477157D01*
X89874Y477119D01*
X89850Y477092D01*
X89806Y477053D01*
X89520Y476767D01*
X89116Y476767D01*
X88999Y476757D01*
X88883Y476757D01*
X88788Y476739D01*
X69360Y476739D01*
X69325Y476736D01*
X69291Y476738D01*
X69102Y476716D01*
X68911Y476699D01*
X68878Y476690D01*
X68844Y476686D01*
X68661Y476631D01*
X68477Y476581D01*
X68446Y476566D01*
X68413Y476556D01*
X68242Y476469D01*
X68070Y476387D01*
X68042Y476367D01*
X68011Y476352D01*
X67859Y476236D01*
X67704Y476125D01*
X67680Y476100D01*
X67653Y476080D01*
X67524Y475940D01*
X67390Y475803D01*
X67371Y475774D01*
X67347Y475748D01*
X67245Y475587D01*
X67138Y475430D01*
X67124Y475398D01*
X67106Y475369D01*
X67033Y475192D01*
X66956Y475018D01*
X66948Y474984D01*
X66935Y474952D01*
X66895Y474765D01*
X66849Y474580D01*
X66847Y474546D01*
X66840Y474512D01*
X66821Y474200D01*
X66821Y281083D01*
X66835Y280920D01*
X66842Y280755D01*
X66855Y280696D01*
X66861Y280635D01*
X66904Y280476D01*
X66940Y280316D01*
X66963Y280259D01*
X66979Y280200D01*
X67050Y280052D01*
X67113Y279900D01*
X67146Y279849D01*
X67173Y279794D01*
X67268Y279660D01*
X67358Y279522D01*
X67409Y279464D01*
X67435Y279428D01*
X67478Y279385D01*
X67564Y279288D01*
X95138Y251714D01*
X95264Y251609D01*
X95385Y251497D01*
X95436Y251465D01*
X95483Y251426D01*
X95626Y251344D01*
X95765Y251256D01*
X95821Y251232D01*
X95874Y251202D01*
X96029Y251147D01*
X96181Y251085D01*
X96241Y251072D01*
X96298Y251051D01*
X96461Y251025D01*
X96621Y250990D01*
X96698Y250985D01*
X96743Y250978D01*
X96804Y250979D01*
X96933Y250971D01*
X207528Y250971D01*
X207563Y250974D01*
G37*
%LPC*%
G36*
X273488Y613041D02*
X273488Y613041D01*
X273522Y613050D01*
X273556Y613054D01*
X273739Y613109D01*
X273923Y613159D01*
X273954Y613174D01*
X273987Y613184D01*
X274158Y613271D01*
X274329Y613353D01*
X274357Y613373D01*
X274388Y613388D01*
X274540Y613504D01*
X274695Y613615D01*
X274720Y613640D01*
X274747Y613660D01*
X274876Y613801D01*
X275010Y613937D01*
X275029Y613966D01*
X275052Y613992D01*
X275131Y614114D01*
X275155Y614153D01*
X275259Y614307D01*
X275262Y614311D01*
X275276Y614342D01*
X275294Y614371D01*
X275367Y614548D01*
X275444Y614722D01*
X275452Y614756D01*
X275465Y614788D01*
X275505Y614975D01*
X275550Y615160D01*
X275553Y615194D01*
X275560Y615228D01*
X275579Y615540D01*
X275579Y620278D01*
X275576Y620313D01*
X275578Y620347D01*
X275556Y620536D01*
X275539Y620727D01*
X275530Y620760D01*
X275526Y620794D01*
X275471Y620977D01*
X275421Y621161D01*
X275406Y621192D01*
X275396Y621225D01*
X275309Y621396D01*
X275227Y621568D01*
X275207Y621596D01*
X275191Y621627D01*
X275076Y621779D01*
X274965Y621934D01*
X274940Y621958D01*
X274919Y621985D01*
X274779Y622114D01*
X274643Y622248D01*
X274614Y622267D01*
X274588Y622291D01*
X274427Y622393D01*
X274269Y622500D01*
X274238Y622514D01*
X274209Y622532D01*
X274032Y622605D01*
X273858Y622682D01*
X273824Y622690D01*
X273792Y622703D01*
X273605Y622743D01*
X273420Y622789D01*
X273386Y622791D01*
X273352Y622798D01*
X273040Y622817D01*
X269755Y622817D01*
X269665Y622874D01*
X269609Y622897D01*
X269556Y622928D01*
X269400Y622983D01*
X269248Y623045D01*
X269189Y623058D01*
X269131Y623078D01*
X268969Y623105D01*
X268808Y623140D01*
X268731Y623145D01*
X268687Y623152D01*
X268626Y623151D01*
X268496Y623159D01*
X262364Y623159D01*
X262200Y623145D01*
X262035Y623138D01*
X261976Y623125D01*
X261915Y623119D01*
X261756Y623076D01*
X261596Y623040D01*
X261540Y623017D01*
X261481Y623001D01*
X261332Y622930D01*
X261180Y622867D01*
X261129Y622833D01*
X261095Y622817D01*
X257055Y622817D01*
X256965Y622874D01*
X256909Y622897D01*
X256856Y622928D01*
X256700Y622983D01*
X256548Y623045D01*
X256489Y623058D01*
X256431Y623078D01*
X256269Y623105D01*
X256108Y623140D01*
X256031Y623145D01*
X255987Y623152D01*
X255926Y623151D01*
X255796Y623159D01*
X248039Y623159D01*
X248039Y643415D01*
X248212Y644061D01*
X248547Y644640D01*
X249020Y645113D01*
X249599Y645448D01*
X250245Y645621D01*
X270501Y645621D01*
X270501Y638684D01*
X270512Y638554D01*
X270514Y638424D01*
X270532Y638331D01*
X270541Y638235D01*
X270575Y638110D01*
X270600Y637982D01*
X270634Y637893D01*
X270659Y637801D01*
X270715Y637684D01*
X270762Y637562D01*
X270812Y637480D01*
X270853Y637394D01*
X270928Y637289D01*
X270996Y637177D01*
X271059Y637106D01*
X271115Y637028D01*
X271208Y636937D01*
X271294Y636840D01*
X271369Y636781D01*
X271437Y636714D01*
X271545Y636641D01*
X271647Y636561D01*
X271731Y636515D01*
X271811Y636462D01*
X271929Y636409D01*
X272044Y636348D01*
X272135Y636318D01*
X272222Y636280D01*
X272349Y636249D01*
X272472Y636209D01*
X272567Y636196D01*
X272660Y636173D01*
X272789Y636165D01*
X272918Y636147D01*
X273014Y636151D01*
X273109Y636145D01*
X273238Y636160D01*
X273368Y636166D01*
X273461Y636186D01*
X273556Y636198D01*
X273681Y636235D01*
X273808Y636263D01*
X273896Y636300D01*
X273987Y636328D01*
X274103Y636387D01*
X274223Y636437D01*
X274303Y636489D01*
X274389Y636532D01*
X274492Y636611D01*
X274601Y636681D01*
X274699Y636767D01*
X274747Y636804D01*
X274778Y636837D01*
X274836Y636888D01*
X276240Y638293D01*
X277378Y638293D01*
X277413Y638296D01*
X277447Y638294D01*
X277636Y638316D01*
X277827Y638333D01*
X277860Y638342D01*
X277894Y638346D01*
X278077Y638401D01*
X278261Y638451D01*
X278292Y638466D01*
X278325Y638476D01*
X278496Y638563D01*
X278668Y638645D01*
X278696Y638665D01*
X278727Y638680D01*
X278879Y638796D01*
X279034Y638907D01*
X279058Y638932D01*
X279085Y638952D01*
X279214Y639092D01*
X279348Y639229D01*
X279367Y639258D01*
X279391Y639284D01*
X279493Y639445D01*
X279600Y639602D01*
X279614Y639634D01*
X279632Y639663D01*
X279705Y639840D01*
X279782Y640014D01*
X279790Y640048D01*
X279803Y640080D01*
X279843Y640267D01*
X279889Y640452D01*
X279891Y640486D01*
X279898Y640520D01*
X279917Y640832D01*
X279917Y641970D01*
X280021Y642094D01*
X280132Y642215D01*
X280165Y642267D01*
X280204Y642313D01*
X280286Y642456D01*
X280374Y642595D01*
X280397Y642652D01*
X280428Y642704D01*
X280483Y642859D01*
X280545Y643012D01*
X280558Y643071D01*
X280579Y643129D01*
X280605Y643291D01*
X280640Y643452D01*
X280645Y643529D01*
X280652Y643573D01*
X280651Y643634D01*
X280659Y643764D01*
X280659Y645621D01*
X300915Y645621D01*
X301561Y645448D01*
X302140Y645113D01*
X302613Y644640D01*
X302948Y644061D01*
X303121Y643415D01*
X303121Y623159D01*
X300464Y623159D01*
X300300Y623145D01*
X300135Y623138D01*
X300076Y623125D01*
X300015Y623119D01*
X299856Y623076D01*
X299696Y623040D01*
X299640Y623017D01*
X299581Y623001D01*
X299432Y622930D01*
X299280Y622867D01*
X299229Y622833D01*
X299195Y622817D01*
X297932Y622817D01*
X297897Y622814D01*
X297863Y622816D01*
X297674Y622794D01*
X297483Y622777D01*
X297450Y622768D01*
X297416Y622764D01*
X297233Y622709D01*
X297049Y622659D01*
X297018Y622644D01*
X296985Y622634D01*
X296814Y622547D01*
X296642Y622465D01*
X296614Y622445D01*
X296583Y622430D01*
X296431Y622314D01*
X296276Y622203D01*
X296252Y622178D01*
X296225Y622158D01*
X296096Y622018D01*
X295962Y621881D01*
X295943Y621852D01*
X295919Y621826D01*
X295817Y621665D01*
X295710Y621508D01*
X295696Y621476D01*
X295678Y621447D01*
X295605Y621270D01*
X295528Y621096D01*
X295520Y621062D01*
X295507Y621030D01*
X295467Y620843D01*
X295421Y620658D01*
X295419Y620624D01*
X295412Y620590D01*
X295393Y620278D01*
X295393Y619140D01*
X293588Y617336D01*
X293505Y617236D01*
X293414Y617143D01*
X293361Y617063D01*
X293299Y616990D01*
X293235Y616877D01*
X293162Y616770D01*
X293123Y616682D01*
X293076Y616599D01*
X293032Y616477D01*
X292980Y616358D01*
X292957Y616265D01*
X292925Y616175D01*
X292904Y616047D01*
X292873Y615920D01*
X292867Y615825D01*
X292852Y615731D01*
X292853Y615601D01*
X292845Y615471D01*
X292856Y615376D01*
X292858Y615281D01*
X292882Y615153D01*
X292898Y615024D01*
X292925Y614932D01*
X292943Y614838D01*
X292990Y614717D01*
X293028Y614593D01*
X293071Y614507D01*
X293106Y614418D01*
X293173Y614307D01*
X293232Y614192D01*
X293290Y614115D01*
X293340Y614034D01*
X293426Y613936D01*
X293504Y613833D01*
X293574Y613768D01*
X293638Y613696D01*
X293740Y613616D01*
X293835Y613528D01*
X293916Y613476D01*
X293991Y613417D01*
X294105Y613356D01*
X294215Y613286D01*
X294303Y613249D01*
X294388Y613204D01*
X294511Y613164D01*
X294632Y613115D01*
X294725Y613095D01*
X294816Y613065D01*
X294945Y613047D01*
X295072Y613020D01*
X295201Y613012D01*
X295262Y613004D01*
X295307Y613006D01*
X295384Y613001D01*
X303121Y613001D01*
X303121Y592745D01*
X302948Y592099D01*
X302613Y591520D01*
X302140Y591047D01*
X301561Y590712D01*
X300915Y590539D01*
X280659Y590539D01*
X280659Y598276D01*
X280648Y598406D01*
X280646Y598536D01*
X280628Y598629D01*
X280619Y598725D01*
X280585Y598850D01*
X280560Y598978D01*
X280526Y599067D01*
X280501Y599159D01*
X280445Y599276D01*
X280398Y599398D01*
X280348Y599480D01*
X280307Y599566D01*
X280232Y599671D01*
X280164Y599783D01*
X280101Y599854D01*
X280045Y599932D01*
X279952Y600023D01*
X279866Y600120D01*
X279791Y600179D01*
X279723Y600246D01*
X279615Y600319D01*
X279513Y600399D01*
X279429Y600444D01*
X279349Y600498D01*
X279231Y600551D01*
X279116Y600612D01*
X279025Y600642D01*
X278938Y600680D01*
X278811Y600711D01*
X278688Y600751D01*
X278593Y600764D01*
X278500Y600787D01*
X278371Y600795D01*
X278242Y600813D01*
X278146Y600809D01*
X278051Y600815D01*
X277922Y600800D01*
X277792Y600794D01*
X277699Y600774D01*
X277604Y600762D01*
X277479Y600725D01*
X277352Y600697D01*
X277264Y600660D01*
X277173Y600632D01*
X277057Y600573D01*
X276937Y600523D01*
X276857Y600471D01*
X276771Y600428D01*
X276668Y600349D01*
X276559Y600279D01*
X276461Y600193D01*
X276413Y600156D01*
X276382Y600123D01*
X276324Y600072D01*
X273670Y597417D01*
X273040Y597417D01*
X273006Y597414D01*
X272971Y597416D01*
X272782Y597394D01*
X272592Y597377D01*
X272558Y597368D01*
X272524Y597364D01*
X272341Y597309D01*
X272157Y597259D01*
X272126Y597244D01*
X272093Y597234D01*
X271922Y597147D01*
X271751Y597065D01*
X271722Y597045D01*
X271692Y597030D01*
X271540Y596914D01*
X271384Y596803D01*
X271360Y596778D01*
X271333Y596758D01*
X271204Y596618D01*
X271070Y596481D01*
X271051Y596452D01*
X271028Y596426D01*
X270925Y596265D01*
X270818Y596108D01*
X270804Y596076D01*
X270786Y596047D01*
X270713Y595870D01*
X270636Y595696D01*
X270628Y595662D01*
X270615Y595630D01*
X270575Y595443D01*
X270529Y595258D01*
X270527Y595224D01*
X270520Y595190D01*
X270501Y594878D01*
X270501Y590539D01*
X250245Y590539D01*
X249599Y590712D01*
X249020Y591047D01*
X248547Y591520D01*
X248212Y592099D01*
X248039Y592745D01*
X248039Y613001D01*
X273040Y613001D01*
X273074Y613004D01*
X273109Y613002D01*
X273298Y613024D01*
X273488Y613041D01*
G37*
%LPD*%
%LPC*%
G36*
X171509Y31985D02*
X171509Y31985D01*
X167395Y33690D01*
X164246Y36839D01*
X164170Y37022D01*
X164072Y37209D01*
X163975Y37399D01*
X163967Y37409D01*
X163961Y37421D01*
X163832Y37588D01*
X163703Y37757D01*
X163694Y37766D01*
X163686Y37777D01*
X163529Y37918D01*
X163372Y38063D01*
X163361Y38070D01*
X163351Y38078D01*
X163171Y38191D01*
X162992Y38304D01*
X162980Y38309D01*
X162969Y38316D01*
X162772Y38395D01*
X162576Y38475D01*
X162563Y38478D01*
X162551Y38483D01*
X162343Y38525D01*
X162136Y38570D01*
X162120Y38571D01*
X162110Y38573D01*
X162070Y38574D01*
X161824Y38589D01*
X154941Y38589D01*
X154777Y38575D01*
X154613Y38568D01*
X154554Y38555D01*
X154493Y38549D01*
X154334Y38506D01*
X154173Y38470D01*
X154117Y38447D01*
X154058Y38431D01*
X153910Y38360D01*
X153758Y38297D01*
X153707Y38264D01*
X153652Y38237D01*
X153518Y38142D01*
X153380Y38052D01*
X153322Y38001D01*
X153286Y37975D01*
X153243Y37932D01*
X153146Y37845D01*
X153129Y37829D01*
X136431Y37829D01*
X135229Y39031D01*
X135229Y53729D01*
X135238Y53738D01*
X135260Y53765D01*
X135286Y53787D01*
X135404Y53937D01*
X135527Y54083D01*
X135544Y54113D01*
X135565Y54141D01*
X135655Y54308D01*
X135750Y54474D01*
X135762Y54507D01*
X135778Y54537D01*
X135837Y54719D01*
X135901Y54898D01*
X135907Y54933D01*
X135917Y54966D01*
X135943Y55155D01*
X135974Y55343D01*
X135974Y55377D01*
X135979Y55412D01*
X135971Y55603D01*
X135968Y55793D01*
X135962Y55827D01*
X135960Y55862D01*
X135919Y56048D01*
X135883Y56235D01*
X135870Y56267D01*
X135863Y56301D01*
X135789Y56477D01*
X135720Y56655D01*
X135702Y56685D01*
X135689Y56717D01*
X135586Y56877D01*
X135487Y57040D01*
X135464Y57066D01*
X135445Y57095D01*
X135249Y57317D01*
X134912Y57899D01*
X134739Y58545D01*
X134739Y62131D01*
X144070Y62131D01*
X144104Y62134D01*
X144139Y62132D01*
X144328Y62154D01*
X144518Y62171D01*
X144552Y62180D01*
X144586Y62184D01*
X144767Y62238D01*
X144925Y62204D01*
X145110Y62159D01*
X145144Y62157D01*
X145178Y62150D01*
X145490Y62131D01*
X154821Y62131D01*
X154821Y58545D01*
X154648Y57899D01*
X154310Y57314D01*
X154300Y57302D01*
X154274Y57279D01*
X154156Y57130D01*
X154033Y56984D01*
X154016Y56953D01*
X153995Y56926D01*
X153904Y56758D01*
X153810Y56593D01*
X153798Y56560D01*
X153782Y56529D01*
X153723Y56348D01*
X153659Y56168D01*
X153653Y56134D01*
X153643Y56101D01*
X153617Y55912D01*
X153586Y55724D01*
X153586Y55690D01*
X153581Y55655D01*
X153589Y55465D01*
X153592Y55274D01*
X153598Y55240D01*
X153600Y55205D01*
X153641Y55020D01*
X153677Y54832D01*
X153690Y54799D01*
X153697Y54766D01*
X153771Y54590D01*
X153840Y54412D01*
X153858Y54382D01*
X153871Y54350D01*
X153974Y54190D01*
X154073Y54027D01*
X154096Y54001D01*
X154115Y53972D01*
X154322Y53738D01*
X154331Y53729D01*
X154331Y50310D01*
X154334Y50275D01*
X154332Y50241D01*
X154354Y50052D01*
X154371Y49861D01*
X154380Y49828D01*
X154384Y49794D01*
X154439Y49611D01*
X154489Y49427D01*
X154504Y49396D01*
X154514Y49363D01*
X154601Y49192D01*
X154683Y49020D01*
X154703Y48992D01*
X154718Y48961D01*
X154834Y48809D01*
X154945Y48654D01*
X154970Y48630D01*
X154990Y48603D01*
X155130Y48474D01*
X155267Y48340D01*
X155296Y48321D01*
X155322Y48297D01*
X155483Y48195D01*
X155640Y48088D01*
X155672Y48074D01*
X155701Y48056D01*
X155878Y47983D01*
X156052Y47906D01*
X156086Y47898D01*
X156118Y47885D01*
X156305Y47845D01*
X156490Y47799D01*
X156524Y47797D01*
X156558Y47790D01*
X156870Y47771D01*
X161824Y47771D01*
X162035Y47790D01*
X162246Y47806D01*
X162259Y47809D01*
X162272Y47811D01*
X162477Y47867D01*
X162682Y47920D01*
X162694Y47926D01*
X162707Y47929D01*
X162897Y48020D01*
X163091Y48109D01*
X163101Y48117D01*
X163113Y48123D01*
X163286Y48246D01*
X163459Y48368D01*
X163469Y48377D01*
X163479Y48385D01*
X163628Y48537D01*
X163777Y48687D01*
X163784Y48698D01*
X163793Y48707D01*
X163912Y48883D01*
X164033Y49057D01*
X164040Y49072D01*
X164046Y49080D01*
X164061Y49116D01*
X164170Y49338D01*
X164246Y49521D01*
X167395Y52670D01*
X168830Y53265D01*
X168857Y53279D01*
X168886Y53289D01*
X169056Y53383D01*
X169229Y53473D01*
X169253Y53492D01*
X169280Y53507D01*
X169431Y53630D01*
X169585Y53749D01*
X169605Y53772D01*
X169629Y53791D01*
X169756Y53939D01*
X169887Y54083D01*
X169903Y54109D01*
X169923Y54132D01*
X170022Y54301D01*
X170125Y54466D01*
X170136Y54494D01*
X170151Y54520D01*
X170219Y54703D01*
X170291Y54884D01*
X170297Y54914D01*
X170308Y54942D01*
X170342Y55134D01*
X170381Y55325D01*
X170382Y55356D01*
X170388Y55385D01*
X170388Y55580D01*
X170392Y55775D01*
X170388Y55805D01*
X170388Y55836D01*
X170353Y56027D01*
X170323Y56220D01*
X170313Y56249D01*
X170308Y56279D01*
X170240Y56462D01*
X170177Y56646D01*
X170162Y56673D01*
X170152Y56701D01*
X170053Y56869D01*
X169958Y57039D01*
X169938Y57063D01*
X169923Y57089D01*
X169796Y57237D01*
X169672Y57388D01*
X169649Y57407D01*
X169629Y57430D01*
X169478Y57554D01*
X169330Y57680D01*
X169304Y57696D01*
X169280Y57715D01*
X169011Y57873D01*
X167612Y58586D01*
X166124Y59667D01*
X164823Y60968D01*
X163742Y62456D01*
X162907Y64095D01*
X162339Y65844D01*
X162308Y66041D01*
X182880Y66041D01*
X203452Y66041D01*
X203421Y65844D01*
X202853Y64095D01*
X202018Y62456D01*
X200937Y60968D01*
X199636Y59667D01*
X198148Y58586D01*
X196749Y57873D01*
X196723Y57857D01*
X196695Y57845D01*
X196533Y57738D01*
X196367Y57634D01*
X196345Y57614D01*
X196320Y57597D01*
X196178Y57462D01*
X196034Y57331D01*
X196016Y57307D01*
X195994Y57286D01*
X195878Y57129D01*
X195760Y56975D01*
X195746Y56948D01*
X195728Y56923D01*
X195642Y56748D01*
X195553Y56575D01*
X195544Y56546D01*
X195530Y56518D01*
X195477Y56331D01*
X195419Y56145D01*
X195415Y56115D01*
X195407Y56085D01*
X195388Y55891D01*
X195364Y55698D01*
X195366Y55668D01*
X195363Y55637D01*
X195378Y55442D01*
X195388Y55248D01*
X195395Y55219D01*
X195398Y55188D01*
X195447Y55000D01*
X195492Y54810D01*
X195504Y54782D01*
X195512Y54753D01*
X195594Y54576D01*
X195671Y54397D01*
X195688Y54372D01*
X195701Y54344D01*
X195813Y54184D01*
X195921Y54022D01*
X195942Y54000D01*
X195959Y53975D01*
X196097Y53838D01*
X196233Y53697D01*
X196257Y53679D01*
X196279Y53658D01*
X196439Y53547D01*
X196597Y53433D01*
X196624Y53419D01*
X196649Y53402D01*
X196930Y53265D01*
X198365Y52670D01*
X201514Y49521D01*
X201590Y49338D01*
X201688Y49151D01*
X201785Y48961D01*
X201793Y48951D01*
X201799Y48939D01*
X201928Y48772D01*
X202057Y48603D01*
X202066Y48594D01*
X202074Y48583D01*
X202232Y48441D01*
X202388Y48297D01*
X202399Y48290D01*
X202409Y48282D01*
X202589Y48169D01*
X202768Y48056D01*
X202780Y48051D01*
X202791Y48044D01*
X202988Y47965D01*
X203184Y47885D01*
X203197Y47882D01*
X203209Y47877D01*
X203417Y47835D01*
X203624Y47790D01*
X203640Y47789D01*
X203650Y47787D01*
X203690Y47786D01*
X203936Y47771D01*
X208890Y47771D01*
X208925Y47774D01*
X208959Y47772D01*
X209148Y47794D01*
X209339Y47811D01*
X209372Y47820D01*
X209406Y47824D01*
X209589Y47879D01*
X209773Y47929D01*
X209804Y47944D01*
X209837Y47954D01*
X210008Y48041D01*
X210180Y48123D01*
X210208Y48143D01*
X210239Y48158D01*
X210391Y48274D01*
X210546Y48385D01*
X210570Y48410D01*
X210597Y48430D01*
X210726Y48570D01*
X210860Y48707D01*
X210879Y48736D01*
X210903Y48762D01*
X211005Y48923D01*
X211112Y49080D01*
X211126Y49112D01*
X211144Y49141D01*
X211217Y49318D01*
X211294Y49492D01*
X211302Y49526D01*
X211315Y49558D01*
X211355Y49745D01*
X211401Y49930D01*
X211403Y49964D01*
X211410Y49998D01*
X211429Y50310D01*
X211429Y53729D01*
X211438Y53738D01*
X211460Y53765D01*
X211486Y53787D01*
X211604Y53937D01*
X211727Y54083D01*
X211744Y54113D01*
X211765Y54141D01*
X211855Y54308D01*
X211950Y54474D01*
X211962Y54507D01*
X211978Y54537D01*
X212037Y54719D01*
X212101Y54898D01*
X212107Y54933D01*
X212117Y54966D01*
X212143Y55155D01*
X212174Y55343D01*
X212174Y55377D01*
X212179Y55412D01*
X212171Y55603D01*
X212168Y55793D01*
X212162Y55827D01*
X212160Y55862D01*
X212119Y56048D01*
X212083Y56235D01*
X212070Y56267D01*
X212063Y56301D01*
X211989Y56477D01*
X211920Y56655D01*
X211902Y56685D01*
X211889Y56717D01*
X211786Y56877D01*
X211687Y57040D01*
X211664Y57066D01*
X211645Y57095D01*
X211449Y57317D01*
X211112Y57899D01*
X210939Y58545D01*
X210939Y62131D01*
X220270Y62131D01*
X220304Y62134D01*
X220339Y62132D01*
X220528Y62154D01*
X220718Y62171D01*
X220752Y62180D01*
X220786Y62184D01*
X220967Y62238D01*
X221125Y62204D01*
X221310Y62159D01*
X221344Y62157D01*
X221378Y62150D01*
X221690Y62131D01*
X231021Y62131D01*
X231021Y58545D01*
X230848Y57899D01*
X230510Y57314D01*
X230500Y57302D01*
X230474Y57279D01*
X230356Y57130D01*
X230233Y56984D01*
X230216Y56953D01*
X230195Y56926D01*
X230104Y56758D01*
X230010Y56593D01*
X229998Y56560D01*
X229982Y56529D01*
X229923Y56348D01*
X229859Y56168D01*
X229853Y56134D01*
X229843Y56101D01*
X229817Y55912D01*
X229786Y55724D01*
X229786Y55690D01*
X229781Y55655D01*
X229789Y55465D01*
X229792Y55274D01*
X229798Y55240D01*
X229800Y55205D01*
X229841Y55020D01*
X229877Y54832D01*
X229890Y54799D01*
X229897Y54766D01*
X229971Y54590D01*
X230040Y54412D01*
X230058Y54382D01*
X230071Y54350D01*
X230174Y54190D01*
X230273Y54027D01*
X230296Y54001D01*
X230315Y53972D01*
X230522Y53738D01*
X230531Y53729D01*
X230531Y39031D01*
X229329Y37829D01*
X212631Y37829D01*
X212614Y37846D01*
X212488Y37951D01*
X212367Y38063D01*
X212316Y38095D01*
X212269Y38134D01*
X212126Y38216D01*
X211987Y38304D01*
X211931Y38328D01*
X211878Y38358D01*
X211723Y38413D01*
X211571Y38475D01*
X211511Y38488D01*
X211454Y38509D01*
X211291Y38535D01*
X211131Y38570D01*
X211054Y38575D01*
X211009Y38582D01*
X210948Y38581D01*
X210819Y38589D01*
X203936Y38589D01*
X203725Y38570D01*
X203514Y38554D01*
X203501Y38551D01*
X203488Y38549D01*
X203283Y38493D01*
X203078Y38440D01*
X203066Y38434D01*
X203053Y38431D01*
X202863Y38340D01*
X202669Y38251D01*
X202659Y38243D01*
X202647Y38237D01*
X202474Y38114D01*
X202301Y37992D01*
X202291Y37983D01*
X202281Y37975D01*
X202132Y37823D01*
X201983Y37673D01*
X201976Y37662D01*
X201967Y37653D01*
X201847Y37476D01*
X201727Y37303D01*
X201720Y37288D01*
X201714Y37280D01*
X201699Y37244D01*
X201590Y37022D01*
X201514Y36839D01*
X198365Y33690D01*
X194251Y31985D01*
X171509Y31985D01*
G37*
%LPD*%
%LPC*%
G36*
X379730Y45719D02*
X379730Y45719D01*
X359158Y45719D01*
X359189Y45916D01*
X359757Y47665D01*
X360592Y49304D01*
X361673Y50792D01*
X362974Y52093D01*
X364462Y53174D01*
X365861Y53887D01*
X365887Y53903D01*
X365915Y53915D01*
X366077Y54022D01*
X366243Y54126D01*
X366265Y54146D01*
X366290Y54163D01*
X366431Y54297D01*
X366576Y54429D01*
X366594Y54453D01*
X366616Y54474D01*
X366731Y54630D01*
X366850Y54785D01*
X366864Y54812D01*
X366882Y54837D01*
X366968Y55012D01*
X367057Y55185D01*
X367066Y55214D01*
X367080Y55242D01*
X367133Y55429D01*
X367191Y55615D01*
X367194Y55645D01*
X367203Y55675D01*
X367222Y55869D01*
X367246Y56062D01*
X367244Y56092D01*
X367247Y56123D01*
X367232Y56317D01*
X367221Y56512D01*
X367214Y56541D01*
X367212Y56572D01*
X367163Y56760D01*
X367118Y56950D01*
X367106Y56978D01*
X367098Y57007D01*
X367016Y57184D01*
X366939Y57363D01*
X366922Y57388D01*
X366909Y57416D01*
X366797Y57575D01*
X366689Y57738D01*
X366668Y57760D01*
X366651Y57785D01*
X366512Y57922D01*
X366377Y58063D01*
X366353Y58081D01*
X366331Y58102D01*
X366171Y58213D01*
X366013Y58327D01*
X365986Y58341D01*
X365961Y58358D01*
X365680Y58495D01*
X364245Y59090D01*
X361096Y62239D01*
X359391Y66353D01*
X359391Y70807D01*
X361096Y74921D01*
X364245Y78070D01*
X366330Y78934D01*
X366445Y78994D01*
X366564Y79046D01*
X366644Y79098D01*
X366729Y79143D01*
X366832Y79222D01*
X366940Y79294D01*
X367009Y79360D01*
X367085Y79418D01*
X367172Y79515D01*
X367266Y79605D01*
X367322Y79682D01*
X367386Y79753D01*
X367455Y79863D01*
X367532Y79968D01*
X367574Y80054D01*
X367624Y80135D01*
X367672Y80256D01*
X367729Y80372D01*
X367756Y80464D01*
X367791Y80553D01*
X367817Y80681D01*
X367852Y80806D01*
X367862Y80901D01*
X367881Y80994D01*
X367884Y81124D01*
X367897Y81254D01*
X367890Y81349D01*
X367892Y81444D01*
X367872Y81573D01*
X367862Y81703D01*
X367838Y81795D01*
X367823Y81889D01*
X367781Y82012D01*
X367748Y82138D01*
X367708Y82225D01*
X367677Y82315D01*
X367613Y82429D01*
X367559Y82547D01*
X367504Y82625D01*
X367457Y82708D01*
X367375Y82809D01*
X367300Y82916D01*
X367232Y82983D01*
X367172Y83057D01*
X367073Y83141D01*
X366981Y83233D01*
X366902Y83287D01*
X366830Y83349D01*
X366717Y83415D01*
X366610Y83489D01*
X366493Y83546D01*
X366441Y83577D01*
X366399Y83592D01*
X366330Y83626D01*
X364245Y84490D01*
X361096Y87639D01*
X359391Y91753D01*
X359391Y96207D01*
X361096Y100321D01*
X364245Y103470D01*
X368359Y105175D01*
X391101Y105175D01*
X395215Y103470D01*
X398364Y100321D01*
X400069Y96207D01*
X400069Y91753D01*
X398364Y87639D01*
X395215Y84490D01*
X393130Y83626D01*
X393015Y83566D01*
X392896Y83514D01*
X392816Y83462D01*
X392731Y83417D01*
X392629Y83338D01*
X392520Y83266D01*
X392451Y83200D01*
X392375Y83142D01*
X392288Y83045D01*
X392194Y82956D01*
X392138Y82878D01*
X392074Y82808D01*
X392005Y82697D01*
X391928Y82592D01*
X391886Y82506D01*
X391836Y82425D01*
X391788Y82305D01*
X391731Y82188D01*
X391704Y82096D01*
X391669Y82007D01*
X391643Y81880D01*
X391608Y81754D01*
X391598Y81659D01*
X391579Y81566D01*
X391576Y81436D01*
X391563Y81306D01*
X391570Y81211D01*
X391568Y81116D01*
X391588Y80987D01*
X391598Y80857D01*
X391622Y80765D01*
X391637Y80671D01*
X391679Y80548D01*
X391712Y80422D01*
X391752Y80335D01*
X391783Y80245D01*
X391847Y80131D01*
X391901Y80013D01*
X391956Y79935D01*
X392003Y79852D01*
X392085Y79751D01*
X392160Y79644D01*
X392227Y79577D01*
X392288Y79503D01*
X392387Y79419D01*
X392479Y79327D01*
X392558Y79273D01*
X392630Y79211D01*
X392743Y79145D01*
X392850Y79071D01*
X392966Y79014D01*
X393019Y78983D01*
X393061Y78968D01*
X393130Y78934D01*
X395215Y78070D01*
X398364Y74921D01*
X400069Y70807D01*
X400069Y66353D01*
X398364Y62239D01*
X395215Y59090D01*
X393780Y58495D01*
X393753Y58481D01*
X393724Y58471D01*
X393554Y58377D01*
X393381Y58287D01*
X393357Y58268D01*
X393330Y58253D01*
X393179Y58130D01*
X393025Y58011D01*
X393005Y57988D01*
X392981Y57969D01*
X392854Y57821D01*
X392723Y57677D01*
X392707Y57651D01*
X392687Y57628D01*
X392588Y57459D01*
X392485Y57294D01*
X392474Y57266D01*
X392459Y57240D01*
X392391Y57057D01*
X392319Y56876D01*
X392313Y56846D01*
X392302Y56818D01*
X392268Y56626D01*
X392229Y56435D01*
X392228Y56404D01*
X392223Y56375D01*
X392222Y56179D01*
X392218Y55985D01*
X392222Y55955D01*
X392222Y55924D01*
X392257Y55732D01*
X392287Y55540D01*
X392297Y55511D01*
X392302Y55481D01*
X392370Y55297D01*
X392433Y55114D01*
X392448Y55087D01*
X392458Y55059D01*
X392558Y54891D01*
X392652Y54721D01*
X392672Y54697D01*
X392687Y54671D01*
X392814Y54523D01*
X392938Y54372D01*
X392961Y54353D01*
X392981Y54330D01*
X393132Y54206D01*
X393280Y54080D01*
X393306Y54065D01*
X393330Y54045D01*
X393599Y53887D01*
X394998Y53174D01*
X396486Y52093D01*
X397787Y50792D01*
X398868Y49304D01*
X399703Y47665D01*
X400271Y45916D01*
X400302Y45719D01*
X379730Y45719D01*
X379730Y45719D01*
G37*
%LPD*%
%LPC*%
G36*
X398780Y217169D02*
X398780Y217169D01*
X378208Y217169D01*
X378239Y217366D01*
X378807Y219115D01*
X379642Y220754D01*
X380723Y222242D01*
X382024Y223543D01*
X383512Y224624D01*
X384911Y225337D01*
X384937Y225353D01*
X384965Y225365D01*
X385127Y225472D01*
X385293Y225576D01*
X385315Y225596D01*
X385340Y225613D01*
X385481Y225747D01*
X385626Y225879D01*
X385644Y225903D01*
X385666Y225924D01*
X385781Y226080D01*
X385900Y226235D01*
X385914Y226262D01*
X385932Y226287D01*
X386018Y226462D01*
X386107Y226635D01*
X386116Y226664D01*
X386130Y226692D01*
X386183Y226879D01*
X386241Y227065D01*
X386244Y227095D01*
X386253Y227125D01*
X386272Y227319D01*
X386296Y227512D01*
X386294Y227542D01*
X386297Y227573D01*
X386282Y227767D01*
X386271Y227962D01*
X386264Y227991D01*
X386262Y228022D01*
X386213Y228210D01*
X386168Y228400D01*
X386156Y228428D01*
X386148Y228457D01*
X386066Y228634D01*
X385989Y228813D01*
X385972Y228838D01*
X385959Y228866D01*
X385847Y229025D01*
X385739Y229188D01*
X385718Y229210D01*
X385701Y229235D01*
X385562Y229372D01*
X385427Y229513D01*
X385403Y229531D01*
X385381Y229552D01*
X385221Y229663D01*
X385063Y229777D01*
X385036Y229791D01*
X385011Y229808D01*
X384730Y229945D01*
X383295Y230540D01*
X380146Y233689D01*
X378441Y237803D01*
X378441Y242257D01*
X380146Y246371D01*
X383295Y249520D01*
X387409Y251225D01*
X410151Y251225D01*
X414265Y249520D01*
X417414Y246371D01*
X419119Y242257D01*
X419119Y237803D01*
X417414Y233689D01*
X414265Y230540D01*
X412830Y229945D01*
X412803Y229931D01*
X412774Y229921D01*
X412604Y229827D01*
X412431Y229737D01*
X412407Y229718D01*
X412380Y229703D01*
X412229Y229580D01*
X412075Y229461D01*
X412055Y229438D01*
X412031Y229419D01*
X411904Y229271D01*
X411773Y229127D01*
X411757Y229101D01*
X411737Y229078D01*
X411638Y228910D01*
X411535Y228744D01*
X411524Y228716D01*
X411509Y228690D01*
X411441Y228507D01*
X411369Y228326D01*
X411363Y228296D01*
X411352Y228268D01*
X411318Y228076D01*
X411279Y227885D01*
X411278Y227854D01*
X411273Y227825D01*
X411272Y227629D01*
X411268Y227435D01*
X411272Y227405D01*
X411272Y227374D01*
X411307Y227182D01*
X411337Y226990D01*
X411347Y226961D01*
X411352Y226931D01*
X411420Y226747D01*
X411483Y226564D01*
X411498Y226537D01*
X411508Y226509D01*
X411608Y226341D01*
X411702Y226171D01*
X411722Y226147D01*
X411737Y226121D01*
X411864Y225973D01*
X411988Y225822D01*
X412011Y225803D01*
X412031Y225780D01*
X412182Y225656D01*
X412330Y225530D01*
X412356Y225515D01*
X412380Y225495D01*
X412649Y225337D01*
X414048Y224624D01*
X415536Y223543D01*
X416837Y222242D01*
X417918Y220754D01*
X418753Y219115D01*
X419321Y217366D01*
X419352Y217169D01*
X398780Y217169D01*
X398780Y217169D01*
G37*
%LPD*%
%LPC*%
G36*
X199227Y324023D02*
X199227Y324023D01*
X197500Y324585D01*
X195881Y325409D01*
X194412Y326477D01*
X193127Y327762D01*
X192059Y329231D01*
X191210Y330899D01*
X191194Y330924D01*
X191182Y330952D01*
X191074Y331116D01*
X190971Y331280D01*
X190950Y331303D01*
X190934Y331328D01*
X190798Y331470D01*
X190668Y331613D01*
X190644Y331632D01*
X190623Y331654D01*
X190465Y331769D01*
X190311Y331888D01*
X190284Y331902D01*
X190260Y331920D01*
X190085Y332005D01*
X189911Y332095D01*
X189882Y332104D01*
X189855Y332117D01*
X189668Y332171D01*
X189481Y332228D01*
X189451Y332232D01*
X189422Y332240D01*
X189227Y332260D01*
X189034Y332284D01*
X189004Y332282D01*
X188974Y332285D01*
X188779Y332270D01*
X188585Y332259D01*
X188555Y332252D01*
X188525Y332250D01*
X188337Y332201D01*
X188147Y332156D01*
X188119Y332143D01*
X188089Y332136D01*
X187913Y332054D01*
X187734Y331976D01*
X187708Y331959D01*
X187681Y331947D01*
X187521Y331835D01*
X187359Y331727D01*
X187337Y331706D01*
X187312Y331688D01*
X187175Y331550D01*
X187034Y331415D01*
X187016Y331390D01*
X186995Y331369D01*
X186884Y331209D01*
X186769Y331051D01*
X186756Y331023D01*
X186739Y330998D01*
X186601Y330718D01*
X185898Y329020D01*
X182790Y325912D01*
X178728Y324229D01*
X174332Y324229D01*
X170270Y325912D01*
X167162Y329020D01*
X166176Y331400D01*
X166116Y331515D01*
X166064Y331635D01*
X166012Y331714D01*
X165967Y331799D01*
X165888Y331902D01*
X165816Y332010D01*
X165750Y332079D01*
X165692Y332155D01*
X165595Y332242D01*
X165506Y332336D01*
X165428Y332393D01*
X165357Y332457D01*
X165247Y332525D01*
X165142Y332602D01*
X165056Y332644D01*
X164975Y332695D01*
X164855Y332743D01*
X164738Y332800D01*
X164646Y332826D01*
X164557Y332861D01*
X164430Y332887D01*
X164304Y332923D01*
X164209Y332932D01*
X164116Y332951D01*
X163986Y332954D01*
X163856Y332967D01*
X163761Y332960D01*
X163666Y332962D01*
X163537Y332942D01*
X163407Y332932D01*
X163315Y332908D01*
X163221Y332893D01*
X163098Y332851D01*
X162972Y332818D01*
X162885Y332778D01*
X162795Y332747D01*
X162681Y332684D01*
X162563Y332629D01*
X162485Y332574D01*
X162402Y332528D01*
X162301Y332445D01*
X162194Y332371D01*
X162127Y332303D01*
X162053Y332242D01*
X161969Y332143D01*
X161877Y332051D01*
X161823Y331973D01*
X161761Y331900D01*
X161695Y331788D01*
X161621Y331681D01*
X161564Y331564D01*
X161533Y331511D01*
X161518Y331469D01*
X161484Y331400D01*
X160498Y329020D01*
X157390Y325912D01*
X153328Y324229D01*
X148932Y324229D01*
X144870Y325912D01*
X141762Y329020D01*
X140079Y333082D01*
X140079Y337478D01*
X141762Y341540D01*
X144870Y344648D01*
X148932Y346331D01*
X153328Y346331D01*
X157390Y344648D01*
X160498Y341540D01*
X161484Y339160D01*
X161544Y339045D01*
X161596Y338925D01*
X161648Y338846D01*
X161693Y338761D01*
X161772Y338658D01*
X161844Y338550D01*
X161910Y338481D01*
X161968Y338405D01*
X162065Y338318D01*
X162155Y338224D01*
X162232Y338167D01*
X162303Y338103D01*
X162413Y338035D01*
X162518Y337958D01*
X162604Y337916D01*
X162685Y337865D01*
X162806Y337817D01*
X162922Y337760D01*
X163014Y337734D01*
X163103Y337699D01*
X163231Y337673D01*
X163356Y337637D01*
X163451Y337628D01*
X163544Y337609D01*
X163674Y337606D01*
X163804Y337593D01*
X163899Y337600D01*
X163994Y337598D01*
X164123Y337618D01*
X164253Y337628D01*
X164345Y337652D01*
X164439Y337667D01*
X164562Y337709D01*
X164688Y337742D01*
X164775Y337782D01*
X164865Y337813D01*
X164979Y337876D01*
X165097Y337931D01*
X165175Y337986D01*
X165258Y338032D01*
X165359Y338115D01*
X165466Y338189D01*
X165533Y338257D01*
X165607Y338318D01*
X165691Y338416D01*
X165783Y338509D01*
X165837Y338588D01*
X165899Y338660D01*
X165965Y338772D01*
X166039Y338879D01*
X166096Y338996D01*
X166127Y339049D01*
X166142Y339091D01*
X166176Y339160D01*
X167162Y341540D01*
X170270Y344648D01*
X174332Y346331D01*
X178728Y346331D01*
X182790Y344648D01*
X185898Y341540D01*
X186601Y339842D01*
X186616Y339815D01*
X186625Y339787D01*
X186720Y339616D01*
X186810Y339443D01*
X186829Y339419D01*
X186843Y339393D01*
X186967Y339241D01*
X187086Y339087D01*
X187108Y339067D01*
X187127Y339043D01*
X187275Y338916D01*
X187420Y338786D01*
X187446Y338770D01*
X187469Y338750D01*
X187637Y338650D01*
X187802Y338548D01*
X187830Y338536D01*
X187857Y338521D01*
X188039Y338453D01*
X188221Y338381D01*
X188250Y338375D01*
X188279Y338364D01*
X188470Y338330D01*
X188662Y338291D01*
X188692Y338290D01*
X188722Y338285D01*
X188916Y338285D01*
X189112Y338280D01*
X189142Y338285D01*
X189172Y338285D01*
X189364Y338319D01*
X189557Y338349D01*
X189586Y338359D01*
X189615Y338364D01*
X189798Y338432D01*
X189983Y338495D01*
X190009Y338510D01*
X190038Y338521D01*
X190205Y338620D01*
X190376Y338715D01*
X190399Y338734D01*
X190426Y338749D01*
X190573Y338876D01*
X190724Y339000D01*
X190744Y339023D01*
X190767Y339043D01*
X190890Y339194D01*
X191017Y339342D01*
X191032Y339368D01*
X191051Y339392D01*
X191210Y339661D01*
X192059Y341329D01*
X193127Y342798D01*
X194412Y344083D01*
X195881Y345151D01*
X197500Y345975D01*
X199227Y346537D01*
X199391Y346562D01*
X199391Y335280D01*
X199391Y323998D01*
X199227Y324023D01*
G37*
%LPD*%
%LPC*%
G36*
X109847Y309119D02*
X109847Y309119D01*
X103966Y311555D01*
X99465Y316056D01*
X97029Y321937D01*
X97029Y328303D01*
X99465Y334184D01*
X103966Y338685D01*
X109847Y341121D01*
X116213Y341121D01*
X122094Y338685D01*
X126595Y334184D01*
X129031Y328303D01*
X129031Y321937D01*
X126595Y316056D01*
X122094Y311555D01*
X116213Y309119D01*
X109847Y309119D01*
G37*
%LPD*%
%LPC*%
G36*
X109847Y37339D02*
X109847Y37339D01*
X103966Y39775D01*
X99465Y44276D01*
X97029Y50157D01*
X97029Y56523D01*
X99465Y62404D01*
X103966Y66905D01*
X109847Y69341D01*
X116213Y69341D01*
X122094Y66905D01*
X126595Y62404D01*
X129031Y56523D01*
X129031Y50157D01*
X126595Y44276D01*
X122094Y39775D01*
X116213Y37339D01*
X109847Y37339D01*
G37*
%LPD*%
%LPC*%
G36*
X262247Y37339D02*
X262247Y37339D01*
X256366Y39775D01*
X251865Y44276D01*
X249429Y50157D01*
X249429Y56523D01*
X251865Y62404D01*
X256366Y66905D01*
X262247Y69341D01*
X268613Y69341D01*
X274494Y66905D01*
X278995Y62404D01*
X281431Y56523D01*
X281431Y50157D01*
X278995Y44276D01*
X274494Y39775D01*
X268613Y37339D01*
X262247Y37339D01*
G37*
%LPD*%
%LPC*%
G36*
X445769Y619759D02*
X445769Y619759D01*
X445769Y649290D01*
X445823Y649284D01*
X449190Y648614D01*
X452475Y647618D01*
X455647Y646304D01*
X458675Y644686D01*
X461529Y642779D01*
X464183Y640601D01*
X466611Y638173D01*
X468789Y635519D01*
X470696Y632665D01*
X472314Y629637D01*
X473628Y626465D01*
X474624Y623180D01*
X475294Y619813D01*
X475300Y619759D01*
X445769Y619759D01*
G37*
%LPD*%
%LPC*%
G36*
X48259Y48259D02*
X48259Y48259D01*
X48259Y77790D01*
X48313Y77784D01*
X51680Y77114D01*
X54965Y76118D01*
X58137Y74804D01*
X61165Y73186D01*
X64019Y71279D01*
X66673Y69101D01*
X69101Y66673D01*
X71279Y64019D01*
X73186Y61165D01*
X74804Y58137D01*
X76118Y54965D01*
X77114Y51680D01*
X77784Y48313D01*
X77790Y48259D01*
X48259Y48259D01*
G37*
%LPD*%
%LPC*%
G36*
X448309Y48259D02*
X448309Y48259D01*
X448309Y77790D01*
X448363Y77784D01*
X451730Y77114D01*
X455015Y76118D01*
X458187Y74804D01*
X461215Y73186D01*
X464069Y71279D01*
X466723Y69101D01*
X469151Y66673D01*
X471329Y64019D01*
X473236Y61165D01*
X474854Y58137D01*
X476168Y54965D01*
X477164Y51680D01*
X477834Y48313D01*
X477840Y48259D01*
X448309Y48259D01*
G37*
%LPD*%
%LPC*%
G36*
X406080Y619759D02*
X406080Y619759D01*
X406086Y619813D01*
X406756Y623180D01*
X407752Y626465D01*
X409066Y629637D01*
X410684Y632665D01*
X412591Y635519D01*
X414769Y638173D01*
X417197Y640601D01*
X419851Y642779D01*
X422705Y644686D01*
X425733Y646304D01*
X428905Y647618D01*
X432190Y648614D01*
X435557Y649284D01*
X435611Y649290D01*
X435611Y619759D01*
X406080Y619759D01*
G37*
%LPD*%
%LPC*%
G36*
X445769Y609601D02*
X445769Y609601D01*
X475300Y609601D01*
X475294Y609547D01*
X474624Y606180D01*
X473628Y602895D01*
X472314Y599723D01*
X470696Y596695D01*
X468789Y593841D01*
X466611Y591187D01*
X464183Y588759D01*
X461529Y586581D01*
X458675Y584674D01*
X455647Y583056D01*
X452475Y581742D01*
X449190Y580746D01*
X445823Y580076D01*
X445769Y580070D01*
X445769Y609601D01*
G37*
%LPD*%
%LPC*%
G36*
X448309Y38101D02*
X448309Y38101D01*
X477840Y38101D01*
X477834Y38047D01*
X477164Y34680D01*
X476168Y31395D01*
X474854Y28223D01*
X473236Y25195D01*
X471329Y22341D01*
X469151Y19687D01*
X466723Y17259D01*
X464069Y15081D01*
X461215Y13174D01*
X458187Y11556D01*
X455015Y10242D01*
X451730Y9246D01*
X448363Y8576D01*
X448309Y8570D01*
X448309Y38101D01*
G37*
%LPD*%
%LPC*%
G36*
X408620Y48259D02*
X408620Y48259D01*
X408626Y48313D01*
X409296Y51680D01*
X410292Y54965D01*
X411606Y58137D01*
X413224Y61165D01*
X415131Y64019D01*
X417309Y66673D01*
X419737Y69101D01*
X422391Y71279D01*
X425245Y73186D01*
X428273Y74804D01*
X431445Y76118D01*
X434730Y77114D01*
X438097Y77784D01*
X438151Y77790D01*
X438151Y48259D01*
X408620Y48259D01*
G37*
%LPD*%
%LPC*%
G36*
X8570Y48259D02*
X8570Y48259D01*
X8576Y48313D01*
X9246Y51680D01*
X10242Y54965D01*
X11556Y58137D01*
X13174Y61165D01*
X15081Y64019D01*
X17259Y66673D01*
X19687Y69101D01*
X22341Y71279D01*
X25195Y73186D01*
X28223Y74804D01*
X31395Y76118D01*
X34680Y77114D01*
X38047Y77784D01*
X38101Y77790D01*
X38101Y48259D01*
X8570Y48259D01*
G37*
%LPD*%
%LPC*%
G36*
X48259Y38101D02*
X48259Y38101D01*
X77790Y38101D01*
X77784Y38047D01*
X77114Y34680D01*
X76118Y31395D01*
X74804Y28223D01*
X73186Y25195D01*
X71279Y22341D01*
X69101Y19687D01*
X66673Y17259D01*
X64019Y15081D01*
X61165Y13174D01*
X58137Y11556D01*
X54965Y10242D01*
X51680Y9246D01*
X48313Y8576D01*
X48259Y8570D01*
X48259Y38101D01*
G37*
%LPD*%
%LPC*%
G36*
X438097Y8576D02*
X438097Y8576D01*
X434730Y9246D01*
X431445Y10242D01*
X428273Y11556D01*
X425245Y13174D01*
X422391Y15081D01*
X419737Y17259D01*
X417309Y19687D01*
X415131Y22341D01*
X413224Y25195D01*
X411606Y28223D01*
X410292Y31395D01*
X409296Y34680D01*
X408626Y38047D01*
X408620Y38101D01*
X438151Y38101D01*
X438151Y8570D01*
X438097Y8576D01*
G37*
%LPD*%
%LPC*%
G36*
X435557Y580076D02*
X435557Y580076D01*
X432190Y580746D01*
X428905Y581742D01*
X425733Y583056D01*
X422705Y584674D01*
X419851Y586581D01*
X417197Y588759D01*
X414769Y591187D01*
X412591Y593841D01*
X410684Y596695D01*
X409066Y599723D01*
X407752Y602895D01*
X406756Y606180D01*
X406086Y609547D01*
X406080Y609601D01*
X435611Y609601D01*
X435611Y580070D01*
X435557Y580076D01*
G37*
%LPD*%
%LPC*%
G36*
X38047Y8576D02*
X38047Y8576D01*
X34680Y9246D01*
X31395Y10242D01*
X28223Y11556D01*
X25195Y13174D01*
X22341Y15081D01*
X19687Y17259D01*
X17259Y19687D01*
X15081Y22341D01*
X13174Y25195D01*
X11556Y28223D01*
X10242Y31395D01*
X9246Y34680D01*
X8576Y38047D01*
X8570Y38101D01*
X38101Y38101D01*
X38101Y8570D01*
X38047Y8576D01*
G37*
%LPD*%
%LPC*%
G36*
X146059Y380219D02*
X146059Y380219D01*
X141851Y381962D01*
X138630Y385183D01*
X136887Y389391D01*
X136887Y393945D01*
X138630Y398153D01*
X141851Y401374D01*
X146059Y403117D01*
X150613Y403117D01*
X154821Y401374D01*
X158042Y398153D01*
X159785Y393945D01*
X159785Y389391D01*
X158042Y385183D01*
X154821Y381962D01*
X150613Y380219D01*
X146059Y380219D01*
G37*
%LPD*%
%LPC*%
G36*
X387359Y386569D02*
X387359Y386569D01*
X383151Y388312D01*
X379930Y391533D01*
X378187Y395741D01*
X378187Y400295D01*
X379930Y404503D01*
X383151Y407724D01*
X387359Y409467D01*
X391913Y409467D01*
X396121Y407724D01*
X399342Y404503D01*
X401085Y400295D01*
X401085Y395741D01*
X399342Y391533D01*
X396121Y388312D01*
X391913Y386569D01*
X387359Y386569D01*
G37*
%LPD*%
%LPC*%
G36*
X100847Y380219D02*
X100847Y380219D01*
X96639Y381962D01*
X93418Y385183D01*
X91675Y389391D01*
X91675Y393945D01*
X93418Y398153D01*
X96639Y401374D01*
X100847Y403117D01*
X105401Y403117D01*
X109609Y401374D01*
X112830Y398153D01*
X114573Y393945D01*
X114573Y389391D01*
X112830Y385183D01*
X109609Y381962D01*
X105401Y380219D01*
X100847Y380219D01*
G37*
%LPD*%
%LPC*%
G36*
X387359Y451593D02*
X387359Y451593D01*
X383151Y453336D01*
X379930Y456557D01*
X378187Y460765D01*
X378187Y465319D01*
X379930Y469527D01*
X383151Y472748D01*
X387359Y474491D01*
X391913Y474491D01*
X396121Y472748D01*
X399342Y469527D01*
X401085Y465319D01*
X401085Y460765D01*
X399342Y456557D01*
X396121Y453336D01*
X391913Y451593D01*
X387359Y451593D01*
G37*
%LPD*%
%LPC*%
G36*
X342147Y386569D02*
X342147Y386569D01*
X337939Y388312D01*
X334718Y391533D01*
X332975Y395741D01*
X332975Y400295D01*
X334718Y404503D01*
X337939Y407724D01*
X342147Y409467D01*
X346701Y409467D01*
X350909Y407724D01*
X354130Y404503D01*
X355873Y400295D01*
X355873Y395741D01*
X354130Y391533D01*
X350909Y388312D01*
X346701Y386569D01*
X342147Y386569D01*
G37*
%LPD*%
%LPC*%
G36*
X401319Y202945D02*
X401319Y202945D01*
X401319Y212091D01*
X419352Y212091D01*
X419321Y211894D01*
X418753Y210145D01*
X417918Y208506D01*
X416837Y207018D01*
X415536Y205717D01*
X414048Y204636D01*
X412409Y203801D01*
X410660Y203233D01*
X408844Y202945D01*
X401319Y202945D01*
G37*
%LPD*%
%LPC*%
G36*
X382269Y31495D02*
X382269Y31495D01*
X382269Y40641D01*
X400302Y40641D01*
X400271Y40444D01*
X399703Y38695D01*
X398868Y37056D01*
X397787Y35568D01*
X396486Y34267D01*
X394998Y33186D01*
X393359Y32351D01*
X391610Y31783D01*
X389794Y31495D01*
X382269Y31495D01*
G37*
%LPD*%
%LPC*%
G36*
X388716Y202945D02*
X388716Y202945D01*
X386900Y203233D01*
X385151Y203801D01*
X383512Y204636D01*
X382024Y205717D01*
X380723Y207018D01*
X379642Y208506D01*
X378807Y210145D01*
X378239Y211894D01*
X378208Y212091D01*
X396241Y212091D01*
X396241Y202945D01*
X388716Y202945D01*
G37*
%LPD*%
%LPC*%
G36*
X369666Y31495D02*
X369666Y31495D01*
X367850Y31783D01*
X366101Y32351D01*
X364462Y33186D01*
X362974Y34267D01*
X361673Y35568D01*
X360592Y37056D01*
X359757Y38695D01*
X359189Y40444D01*
X359158Y40641D01*
X377191Y40641D01*
X377191Y31495D01*
X369666Y31495D01*
G37*
%LPD*%
%LPC*%
G36*
X346963Y465581D02*
X346963Y465581D01*
X346963Y474727D01*
X347220Y474687D01*
X349007Y474106D01*
X350681Y473253D01*
X352202Y472148D01*
X353530Y470820D01*
X354635Y469299D01*
X355488Y467625D01*
X356069Y465838D01*
X356109Y465581D01*
X346963Y465581D01*
G37*
%LPD*%
%LPC*%
G36*
X105663Y459231D02*
X105663Y459231D01*
X105663Y468377D01*
X105920Y468337D01*
X107707Y467756D01*
X109381Y466903D01*
X110902Y465798D01*
X112230Y464470D01*
X113335Y462949D01*
X114188Y461275D01*
X114769Y459488D01*
X114809Y459231D01*
X105663Y459231D01*
G37*
%LPD*%
%LPC*%
G36*
X332739Y465581D02*
X332739Y465581D01*
X332779Y465838D01*
X333360Y467625D01*
X334213Y469299D01*
X335318Y470820D01*
X336646Y472148D01*
X338167Y473253D01*
X339841Y474106D01*
X341628Y474687D01*
X341885Y474727D01*
X341885Y465581D01*
X332739Y465581D01*
G37*
%LPD*%
%LPC*%
G36*
X105663Y454153D02*
X105663Y454153D01*
X114809Y454153D01*
X114769Y453896D01*
X114188Y452109D01*
X113335Y450435D01*
X112230Y448914D01*
X110902Y447586D01*
X109381Y446481D01*
X107707Y445628D01*
X105920Y445047D01*
X105663Y445007D01*
X105663Y454153D01*
G37*
%LPD*%
%LPC*%
G36*
X346963Y460503D02*
X346963Y460503D01*
X356109Y460503D01*
X356069Y460246D01*
X355488Y458459D01*
X354635Y456785D01*
X353530Y455264D01*
X352202Y453936D01*
X350681Y452831D01*
X349007Y451978D01*
X347220Y451397D01*
X346963Y451357D01*
X346963Y460503D01*
G37*
%LPD*%
%LPC*%
G36*
X91439Y459231D02*
X91439Y459231D01*
X91479Y459488D01*
X92060Y461275D01*
X92913Y462949D01*
X94018Y464470D01*
X95346Y465798D01*
X96867Y466903D01*
X98541Y467756D01*
X100328Y468337D01*
X100585Y468377D01*
X100585Y459231D01*
X91439Y459231D01*
G37*
%LPD*%
%LPC*%
G36*
X100328Y445047D02*
X100328Y445047D01*
X98541Y445628D01*
X96867Y446481D01*
X95346Y447586D01*
X94018Y448914D01*
X92913Y450435D01*
X92060Y452109D01*
X91479Y453896D01*
X91439Y454153D01*
X100585Y454153D01*
X100585Y445007D01*
X100328Y445047D01*
G37*
%LPD*%
%LPC*%
G36*
X341628Y451397D02*
X341628Y451397D01*
X339841Y451978D01*
X338167Y452831D01*
X336646Y453936D01*
X335318Y455264D01*
X334213Y456785D01*
X333360Y458459D01*
X332779Y460246D01*
X332739Y460503D01*
X341885Y460503D01*
X341885Y451357D01*
X341628Y451397D01*
G37*
%LPD*%
%LPC*%
G36*
X224229Y68629D02*
X224229Y68629D01*
X224229Y74421D01*
X228815Y74421D01*
X229461Y74248D01*
X230040Y73913D01*
X230513Y73440D01*
X230848Y72861D01*
X231021Y72215D01*
X231021Y68629D01*
X224229Y68629D01*
G37*
%LPD*%
%LPC*%
G36*
X148029Y68629D02*
X148029Y68629D01*
X148029Y74421D01*
X152615Y74421D01*
X153261Y74248D01*
X153840Y73913D01*
X154313Y73440D01*
X154648Y72861D01*
X154821Y72215D01*
X154821Y68629D01*
X148029Y68629D01*
G37*
%LPD*%
%LPC*%
G36*
X134739Y68629D02*
X134739Y68629D01*
X134739Y72215D01*
X134912Y72861D01*
X135247Y73440D01*
X135720Y73913D01*
X136299Y74248D01*
X136945Y74421D01*
X141531Y74421D01*
X141531Y68629D01*
X134739Y68629D01*
G37*
%LPD*%
%LPC*%
G36*
X210939Y68629D02*
X210939Y68629D01*
X210939Y72215D01*
X211112Y72861D01*
X211447Y73440D01*
X211920Y73913D01*
X212499Y74248D01*
X213145Y74421D01*
X217731Y74421D01*
X217731Y68629D01*
X210939Y68629D01*
G37*
%LPD*%
%LPC*%
G36*
X440689Y614679D02*
X440689Y614679D01*
X440689Y614681D01*
X440691Y614681D01*
X440691Y614679D01*
X440689Y614679D01*
G37*
%LPD*%
%LPC*%
G36*
X443229Y43179D02*
X443229Y43179D01*
X443229Y43181D01*
X443231Y43181D01*
X443231Y43179D01*
X443229Y43179D01*
G37*
%LPD*%
%LPC*%
G36*
X43179Y43179D02*
X43179Y43179D01*
X43179Y43181D01*
X43181Y43181D01*
X43181Y43179D01*
X43179Y43179D01*
G37*
%LPD*%
D10*
X144780Y46380D03*
X144780Y65380D03*
X220980Y46380D03*
X220980Y65380D03*
D11*
X389636Y240030D02*
X407924Y240030D01*
X407924Y214630D02*
X389636Y214630D01*
X122174Y513080D02*
X103886Y513080D01*
X103886Y538480D02*
X122174Y538480D01*
X122174Y563880D02*
X103886Y563880D01*
X103886Y589280D02*
X122174Y589280D01*
X122174Y614680D02*
X103886Y614680D01*
X103886Y640080D02*
X122174Y640080D01*
X370586Y93980D02*
X388874Y93980D01*
X388874Y68580D02*
X370586Y68580D01*
X370586Y43180D02*
X388874Y43180D01*
X192024Y43180D02*
X173736Y43180D01*
X173736Y68580D02*
X192024Y68580D01*
X192024Y93980D02*
X173736Y93980D01*
X173736Y119380D02*
X192024Y119380D01*
D12*
X227330Y335280D03*
D13*
X201930Y335280D03*
X176530Y335280D03*
X151130Y335280D03*
D14*
X275580Y618080D03*
D15*
X148336Y456692D03*
X148336Y391668D03*
X103124Y456692D03*
X103124Y391668D03*
X389636Y463042D03*
X389636Y398018D03*
X344424Y463042D03*
X344424Y398018D03*
D16*
X43180Y43180D03*
X443230Y43180D03*
X440690Y614680D03*
D17*
X303530Y252730D03*
D18*
X227330Y252730D01*
D17*
X227330Y252730D03*
D18*
X147980Y68580D02*
X144780Y65380D01*
X147980Y68580D02*
X182880Y68580D01*
D17*
X303530Y49530D03*
D18*
X278130Y74930D01*
X230530Y74930D02*
X220980Y65380D01*
X230530Y74930D02*
X278130Y74930D01*
X220980Y65380D02*
X186080Y65380D01*
X182880Y68580D01*
D17*
X240030Y621030D03*
D18*
X272630Y621030D01*
X275580Y618080D01*
D17*
X87630Y481330D03*
X87630Y640080D03*
X87630Y665480D03*
D18*
X62230Y665480D01*
X62230Y640080D02*
X87630Y640080D01*
D17*
X62230Y665480D03*
X62230Y640080D03*
D18*
X62230Y481330D02*
X87630Y481330D01*
D17*
X62230Y481330D03*
D18*
X147980Y43180D02*
X182880Y43180D01*
X147980Y43180D02*
X144780Y46380D01*
X217780Y43180D02*
X220980Y46380D01*
X217780Y43180D02*
X182880Y43180D01*
X62230Y640080D02*
X62230Y665480D01*
D17*
X220980Y246380D03*
D18*
X93980Y246380D01*
X62230Y278130D01*
X62230Y481330D01*
X62230Y665480D01*
D17*
X289560Y378460D03*
D19*
X246380Y335280D01*
X246380Y312420D01*
X297180Y261620D02*
X302260Y261620D01*
X314960Y248920D01*
X314960Y220980D02*
X233680Y139700D01*
X297180Y261620D02*
X246380Y312420D01*
X314960Y248920D02*
X314960Y220980D01*
X233680Y139700D02*
X160020Y139700D01*
X147320Y127000D01*
X147320Y101600D01*
X154940Y93980D01*
X182880Y93980D01*
D17*
X297180Y375920D03*
D19*
X297180Y358140D01*
X284480Y345440D01*
X284480Y289560D01*
X325120Y248920D02*
X325120Y220980D01*
X325120Y248920D02*
X284480Y289560D01*
X223520Y119380D02*
X182880Y119380D01*
X223520Y119380D02*
X325120Y220980D01*
D17*
X170180Y532130D03*
D19*
X195580Y506730D01*
X195580Y443230D02*
X214630Y424180D01*
X195580Y443230D02*
X195580Y506730D01*
X214630Y424180D02*
X214630Y252730D01*
D17*
X214630Y214630D03*
D19*
X214630Y240030D01*
D17*
X214630Y252730D03*
X214630Y240030D03*
X189230Y455930D03*
D19*
X189230Y500380D01*
X163830Y525780D01*
D17*
X163830Y525780D03*
X163830Y417830D03*
D19*
X163830Y513080D01*
X157480Y519430D01*
D17*
X157480Y519430D03*
X144780Y538480D03*
D19*
X347980Y538480D01*
X354330Y532130D01*
X354330Y519430D01*
X360680Y513080D01*
X392430Y513080D01*
D17*
X392430Y513080D03*
D20*
X144780Y576580D03*
D19*
X144780Y627380D01*
X182880Y665480D01*
X354330Y652780D02*
X397510Y652780D01*
X354330Y652780D02*
X341630Y665480D01*
X182880Y665480D01*
D20*
X397510Y652780D03*
X151130Y608330D03*
D19*
X201930Y659130D01*
X328930Y659130D02*
X347980Y640080D01*
X397510Y640080D01*
X328930Y659130D02*
X201930Y659130D01*
D20*
X397510Y640080D03*
D17*
X138430Y513080D03*
D19*
X138430Y652780D01*
D17*
X138430Y652780D03*
X259080Y640080D03*
X284480Y640080D03*
X297180Y640080D03*
X265430Y633730D03*
X278130Y633730D03*
X290830Y633730D03*
X259080Y627380D03*
X271780Y627380D03*
X284480Y627380D03*
X297180Y627380D03*
X290830Y621030D03*
X284480Y614680D03*
X265430Y608330D03*
X278130Y608330D03*
X290830Y608330D03*
X297180Y601980D03*
X284480Y601980D03*
X271780Y601980D03*
X259080Y601980D03*
M02*
