M48
;GenerationSoftware,Autodesk,EAGLE,9.6.2*%
;CreationDate,2021-05-06T07:20:36Z*%
FMAT,2
ICI,OFF
METRIC,TZ,000.000
T6C0.350
T5C1.000
T4C1.016
T3C2.032
T2C2.800
T1C3.600
%
G90
M71
T1
X44069Y61468
X4318Y4318
X44323Y4318
T2
X26543Y5334
X26543Y32512
X11303Y32512
X11303Y5334
T3
X24638Y27813
T4
X39878Y21463
X11303Y51308
X11303Y53848
X11303Y56388
X11303Y58928
X11303Y61468
X11303Y64008
X37973Y9398
X37973Y4318
X18288Y4318
X18288Y6858
X18288Y9398
X18288Y11938
X14834Y39167
X10312Y45669
X10312Y39167
X38964Y46304
X38964Y39802
X34442Y46304
X34442Y39802
X37973Y6858
X39878Y24003
X14834Y45669
T5
X17653Y33528
X15113Y33528
X22733Y33528
X20193Y33528
T6
X25908Y62738
X27178Y62738
X28448Y62738
X29718Y62738
X29083Y62103
X28448Y61468
X22098Y24638
X27813Y60833
X29083Y60833
X29718Y60198
X28448Y60198
X27178Y60198
X25908Y60198
X30353Y25273
X22733Y25273
X30353Y4953
X26543Y60833
X24003Y62103
X8763Y48133
X8763Y64008
X8763Y66548
X6223Y66548
X6223Y64008
X6223Y48133
X28956Y37846
X29718Y37592
X17018Y53213
X21463Y21463
X21463Y25273
X21463Y24003
X18923Y45593
X16383Y52578
X16383Y41783
X15748Y51943
X14478Y53848
X39243Y51308
X14478Y57658
X29718Y64008
X39751Y65278
X15113Y60833
X39751Y64008
X13843Y51308
X13843Y65278
X25908Y64008
X28448Y64008
X26543Y63373
X27813Y63373
X29083Y63373
M30