G04 EAGLE Gerber RS-274X export*
G75*
%MOMM*%
%FSLAX34Y34*%
%LPD*%
%INSoldermask Top*%
%IPPOS*%
%AMOC8*
5,1,8,0,0,1.08239X$1,22.5*%
G01*
%ADD10C,2.235200*%
%ADD11R,1.503200X1.703200*%
%ADD12R,1.703200X1.503200*%
%ADD13R,2.438400X1.422400*%
%ADD14R,2.403200X3.803200*%
%ADD15C,2.032000*%
%ADD16R,1.003200X1.003200*%
%ADD17R,2.003200X2.003200*%
%ADD18C,2.003200*%
%ADD19C,3.003200*%
%ADD20R,1.003200X1.103200*%
%ADD21R,3.203200X1.103200*%
%ADD22R,1.103200X3.203200*%
%ADD23R,5.203200X5.203200*%
%ADD24C,2.082800*%
%ADD25C,6.683200*%
%ADD26P,0.763734X8X22.500000*%
%ADD27C,0.705600*%


D10*
X246380Y278130D03*
D11*
X224130Y303530D03*
X205130Y303530D03*
X319380Y87630D03*
X300380Y87630D03*
X224130Y271780D03*
X205130Y271780D03*
D12*
X373380Y281280D03*
X373380Y262280D03*
X398780Y281280D03*
X398780Y262280D03*
X328930Y300380D03*
X328930Y319380D03*
X297180Y300380D03*
X297180Y319380D03*
X316230Y65380D03*
X316230Y46380D03*
D13*
X347218Y216916D03*
X347218Y240030D03*
X347218Y263144D03*
D14*
X285240Y240030D03*
D15*
X389636Y240030D02*
X407924Y240030D01*
X407924Y214630D02*
X389636Y214630D01*
X122174Y513080D02*
X103886Y513080D01*
X103886Y538480D02*
X122174Y538480D01*
X122174Y563880D02*
X103886Y563880D01*
X103886Y589280D02*
X122174Y589280D01*
X122174Y614680D02*
X103886Y614680D01*
X103886Y640080D02*
X122174Y640080D01*
X370586Y93980D02*
X388874Y93980D01*
X388874Y68580D02*
X370586Y68580D01*
X370586Y43180D02*
X388874Y43180D01*
X192024Y43180D02*
X173736Y43180D01*
X173736Y68580D02*
X192024Y68580D01*
X192024Y93980D02*
X173736Y93980D01*
X173736Y119380D02*
X192024Y119380D01*
D16*
X354330Y317380D03*
X354330Y302380D03*
D17*
X227330Y335280D03*
D18*
X201930Y335280D03*
X176530Y335280D03*
X151130Y335280D03*
D19*
X265430Y325120D03*
X113030Y325120D03*
X113030Y53340D03*
X265430Y53340D03*
D20*
X205130Y414180D03*
X224130Y414180D03*
X214630Y435180D03*
D11*
X332130Y347980D03*
X351130Y347980D03*
X198730Y367030D03*
X179730Y367030D03*
X147930Y367030D03*
X128930Y367030D03*
D12*
X138430Y287680D03*
X138430Y306680D03*
D11*
X167030Y436880D03*
X186030Y436880D03*
D12*
X170180Y306680D03*
X170180Y287680D03*
D21*
X195580Y528080D03*
X375580Y528080D03*
D22*
X228430Y513080D03*
X241130Y513080D03*
X253830Y513080D03*
X266530Y513080D03*
X279230Y513080D03*
X291930Y513080D03*
X304630Y513080D03*
X317330Y513080D03*
X330030Y513080D03*
X342730Y513080D03*
D21*
X195580Y540780D03*
X195580Y553480D03*
X195580Y566180D03*
X195580Y578880D03*
X195580Y591580D03*
X195580Y604280D03*
X195580Y616980D03*
X195580Y629680D03*
X195580Y642380D03*
X195580Y655080D03*
X195580Y667780D03*
X195580Y680480D03*
X195580Y693180D03*
X375580Y540780D03*
X375580Y553480D03*
X375580Y566180D03*
X375580Y578880D03*
X375580Y591580D03*
X375580Y604280D03*
X375580Y616980D03*
X375580Y629680D03*
X375580Y642380D03*
X375580Y655080D03*
X375580Y667780D03*
X375580Y680480D03*
X375580Y693180D03*
D23*
X275580Y618080D03*
D12*
X151130Y668680D03*
X151130Y687680D03*
X113030Y668680D03*
X113030Y687680D03*
D11*
X147980Y481330D03*
X166980Y481330D03*
X103530Y481330D03*
X122530Y481330D03*
D24*
X148336Y456692D03*
X148336Y391668D03*
X103124Y456692D03*
X103124Y391668D03*
X389636Y463042D03*
X389636Y398018D03*
X344424Y463042D03*
X344424Y398018D03*
D25*
X43180Y43180D03*
X443230Y43180D03*
X440690Y614680D03*
D26*
X303530Y252730D03*
X227330Y252730D03*
X303530Y49530D03*
X240030Y621030D03*
X87630Y481330D03*
X87630Y640080D03*
X87630Y665480D03*
X62230Y665480D03*
X62230Y640080D03*
X62230Y481330D03*
X220980Y246380D03*
X289560Y378460D03*
X297180Y375920D03*
X170180Y532130D03*
X214630Y214630D03*
X214630Y252730D03*
X214630Y240030D03*
X189230Y455930D03*
X163830Y525780D03*
X163830Y417830D03*
X157480Y519430D03*
X144780Y538480D03*
X392430Y513080D03*
D27*
X144780Y576580D03*
X397510Y652780D03*
X151130Y608330D03*
X397510Y640080D03*
D26*
X138430Y513080D03*
X138430Y652780D03*
X259080Y640080D03*
X284480Y640080D03*
X297180Y640080D03*
X265430Y633730D03*
X278130Y633730D03*
X290830Y633730D03*
X259080Y627380D03*
X271780Y627380D03*
X284480Y627380D03*
X297180Y627380D03*
X290830Y621030D03*
X284480Y614680D03*
X265430Y608330D03*
X278130Y608330D03*
X290830Y608330D03*
X297180Y601980D03*
X284480Y601980D03*
X271780Y601980D03*
X259080Y601980D03*
M02*
