%TF.GenerationSoftware,KiCad,Pcbnew,(6.0.2)*%
%TF.CreationDate,2022-05-13T11:42:35+02:00*%
%TF.ProjectId,shake-it-machine_pcb,7368616b-652d-4697-942d-6d616368696e,rev?*%
%TF.SameCoordinates,PXfad648a0PYf0f792d2*%
%TF.FileFunction,Paste,Bot*%
%TF.FilePolarity,Positive*%
%FSLAX46Y46*%
G04 Gerber Fmt 4.6, Leading zero omitted, Abs format (unit mm)*
G04 Created by KiCad (PCBNEW (6.0.2)) date 2022-05-13 11:42:35*
%MOMM*%
%LPD*%
G01*
G04 APERTURE LIST*
G04 Aperture macros list*
%AMRoundRect*
0 Rectangle with rounded corners*
0 $1 Rounding radius*
0 $2 $3 $4 $5 $6 $7 $8 $9 X,Y pos of 4 corners*
0 Add a 4 corners polygon primitive as box body*
4,1,4,$2,$3,$4,$5,$6,$7,$8,$9,$2,$3,0*
0 Add four circle primitives for the rounded corners*
1,1,$1+$1,$2,$3*
1,1,$1+$1,$4,$5*
1,1,$1+$1,$6,$7*
1,1,$1+$1,$8,$9*
0 Add four rect primitives between the rounded corners*
20,1,$1+$1,$2,$3,$4,$5,0*
20,1,$1+$1,$4,$5,$6,$7,0*
20,1,$1+$1,$6,$7,$8,$9,0*
20,1,$1+$1,$8,$9,$2,$3,0*%
G04 Aperture macros list end*
%ADD10R,2.500000X1.800000*%
%ADD11R,1.700000X1.300000*%
%ADD12R,1.600000X0.800000*%
%ADD13RoundRect,0.250000X0.337500X0.475000X-0.337500X0.475000X-0.337500X-0.475000X0.337500X-0.475000X0*%
%ADD14RoundRect,0.249999X0.450001X-0.350001X0.450001X0.350001X-0.450001X0.350001X-0.450001X-0.350001X0*%
%ADD15RoundRect,0.249999X-0.350001X-0.450001X0.350001X-0.450001X0.350001X0.450001X-0.350001X0.450001X0*%
%ADD16RoundRect,0.249999X-0.450001X0.350001X-0.450001X-0.350001X0.450001X-0.350001X0.450001X0.350001X0*%
%ADD17R,0.800000X1.600000*%
%ADD18RoundRect,0.250000X0.475000X-0.337500X0.475000X0.337500X-0.475000X0.337500X-0.475000X-0.337500X0*%
%ADD19RoundRect,0.250000X-0.337500X-0.475000X0.337500X-0.475000X0.337500X0.475000X-0.337500X0.475000X0*%
%ADD20RoundRect,0.250000X0.500000X0.925000X-0.500000X0.925000X-0.500000X-0.925000X0.500000X-0.925000X0*%
%ADD21R,1.500000X2.000000*%
%ADD22R,3.800000X2.000000*%
G04 APERTURE END LIST*
D10*
%TO.C,D8*%
X41122000Y95769522D03*
X37122000Y95769522D03*
%TD*%
D11*
%TO.C,D7*%
X33991200Y70747922D03*
X33991200Y67247922D03*
%TD*%
%TO.C,D9*%
X14661800Y75929522D03*
X14661800Y72429522D03*
%TD*%
D12*
%TO.C,Q17*%
X24948800Y76160722D03*
X24948800Y74230322D03*
X22812000Y75195522D03*
%TD*%
%TO.C,Q18*%
X20376800Y76160722D03*
X20376800Y74230322D03*
X18240000Y75195522D03*
%TD*%
D13*
%TO.C,C24*%
X20347500Y72147522D03*
X18272500Y72147522D03*
%TD*%
%TO.C,C23*%
X39651500Y67321522D03*
X37576500Y67321522D03*
%TD*%
D14*
%TO.C,R17*%
X54362000Y63019522D03*
X54362000Y65019522D03*
%TD*%
D15*
%TO.C,R13*%
X62252000Y65035522D03*
X64252000Y65035522D03*
%TD*%
D14*
%TO.C,R10*%
X59442000Y56653522D03*
X59442000Y58653522D03*
%TD*%
D16*
%TO.C,R8*%
X64014000Y56891522D03*
X64014000Y54891522D03*
%TD*%
D12*
%TO.C,Q8*%
X58476800Y75906722D03*
X58476800Y73976322D03*
X56340000Y74941522D03*
%TD*%
D17*
%TO.C,Q4*%
X58375200Y62952722D03*
X56444800Y62952722D03*
X57410000Y65089522D03*
%TD*%
D13*
%TO.C,C22*%
X58447500Y71893522D03*
X56372500Y71893522D03*
%TD*%
D11*
%TO.C,D4*%
X52482400Y75675522D03*
X52482400Y72175522D03*
%TD*%
D13*
%TO.C,C9*%
X16258100Y3999322D03*
X14183100Y3999322D03*
%TD*%
D18*
%TO.C,C10*%
X14128400Y6492422D03*
X14128400Y8567422D03*
%TD*%
D19*
%TO.C,C14*%
X20964900Y16089722D03*
X23039900Y16089722D03*
%TD*%
D20*
%TO.C,C15*%
X18801400Y16089722D03*
X15551400Y16089722D03*
%TD*%
D13*
%TO.C,C21*%
X77243500Y67321522D03*
X75168500Y67321522D03*
%TD*%
D11*
%TO.C,D3*%
X71811800Y70849522D03*
X71811800Y67349522D03*
%TD*%
D10*
%TO.C,D5*%
X78815600Y96531522D03*
X74815600Y96531522D03*
%TD*%
%TO.C,D6*%
X59689400Y96023522D03*
X55689400Y96023522D03*
%TD*%
%TO.C,D10*%
X22834000Y95515522D03*
X18834000Y95515522D03*
%TD*%
D17*
%TO.C,Q1*%
X83013200Y56040722D03*
X81082800Y56040722D03*
X82048000Y58177522D03*
%TD*%
%TO.C,Q2*%
X64217200Y60412722D03*
X62286800Y60412722D03*
X63252000Y62549522D03*
%TD*%
%TO.C,Q3*%
X76917200Y58380722D03*
X74986800Y58380722D03*
X75952000Y60517522D03*
%TD*%
D12*
%TO.C,Q5*%
X82098800Y71080722D03*
X82098800Y69150322D03*
X79962000Y70115522D03*
%TD*%
%TO.C,Q6*%
X77272800Y71080722D03*
X77272800Y69150322D03*
X75136000Y70115522D03*
%TD*%
%TO.C,Q7*%
X63302800Y75906722D03*
X63302800Y73976322D03*
X61166000Y74941522D03*
%TD*%
D17*
%TO.C,Q11*%
X45421200Y55786722D03*
X43490800Y55786722D03*
X44456000Y57923522D03*
%TD*%
%TO.C,Q12*%
X25355200Y60866722D03*
X23424800Y60866722D03*
X24390000Y63003522D03*
%TD*%
%TO.C,Q13*%
X39579200Y58380722D03*
X37648800Y58380722D03*
X38614000Y60517522D03*
%TD*%
%TO.C,Q14*%
X19513200Y63206722D03*
X17582800Y63206722D03*
X18548000Y65343522D03*
%TD*%
D12*
%TO.C,Q15*%
X45014800Y71080722D03*
X45014800Y69150322D03*
X42878000Y70115522D03*
%TD*%
%TO.C,Q16*%
X39680800Y71080722D03*
X39680800Y69150322D03*
X37544000Y70115522D03*
%TD*%
D16*
%TO.C,R7*%
X83064000Y53081522D03*
X83064000Y51081522D03*
%TD*%
D14*
%TO.C,R9*%
X78238000Y53113522D03*
X78238000Y55113522D03*
%TD*%
D15*
%TO.C,R11*%
X81048000Y60717522D03*
X83048000Y60717522D03*
%TD*%
D16*
%TO.C,R14*%
X78746000Y60701522D03*
X78746000Y58701522D03*
%TD*%
%TO.C,R15*%
X60204000Y65019522D03*
X60204000Y63019522D03*
%TD*%
D14*
%TO.C,R16*%
X72904000Y58701522D03*
X72904000Y60701522D03*
%TD*%
D16*
%TO.C,R22*%
X45472000Y53335522D03*
X45472000Y51335522D03*
%TD*%
D14*
%TO.C,R23*%
X41154000Y53367522D03*
X41154000Y55367522D03*
%TD*%
D16*
%TO.C,R26*%
X25406000Y57145522D03*
X25406000Y55145522D03*
%TD*%
D14*
%TO.C,R27*%
X21342000Y57177522D03*
X21342000Y59177522D03*
%TD*%
D15*
%TO.C,R28*%
X43456000Y60463522D03*
X45456000Y60463522D03*
%TD*%
D16*
%TO.C,R29*%
X41408000Y60193522D03*
X41408000Y58193522D03*
%TD*%
D15*
%TO.C,R30*%
X23644000Y65289522D03*
X25644000Y65289522D03*
%TD*%
D16*
%TO.C,R31*%
X21342000Y65273522D03*
X21342000Y63273522D03*
%TD*%
D14*
%TO.C,R32*%
X35566000Y58193522D03*
X35566000Y60193522D03*
%TD*%
D16*
%TO.C,R33*%
X15246000Y65273522D03*
X15246000Y63273522D03*
%TD*%
D21*
%TO.C,U3*%
X21076600Y6589722D03*
X18776600Y6589722D03*
D22*
X18776600Y12889722D03*
D21*
X16476600Y6589722D03*
%TD*%
M02*
