%TF.GenerationSoftware,KiCad,Pcbnew,(6.0.2)*%
%TF.CreationDate,2022-05-13T11:42:35+02:00*%
%TF.ProjectId,shake-it-machine_pcb,7368616b-652d-4697-942d-6d616368696e,rev?*%
%TF.SameCoordinates,PXfad648a0PYf0f792d2*%
%TF.FileFunction,Legend,Top*%
%TF.FilePolarity,Positive*%
%FSLAX46Y46*%
G04 Gerber Fmt 4.6, Leading zero omitted, Abs format (unit mm)*
G04 Created by KiCad (PCBNEW (6.0.2)) date 2022-05-13 11:42:35*
%MOMM*%
%LPD*%
G01*
G04 APERTURE LIST*
G04 Aperture macros list*
%AMRoundRect*
0 Rectangle with rounded corners*
0 $1 Rounding radius*
0 $2 $3 $4 $5 $6 $7 $8 $9 X,Y pos of 4 corners*
0 Add a 4 corners polygon primitive as box body*
4,1,4,$2,$3,$4,$5,$6,$7,$8,$9,$2,$3,0*
0 Add four circle primitives for the rounded corners*
1,1,$1+$1,$2,$3*
1,1,$1+$1,$4,$5*
1,1,$1+$1,$6,$7*
1,1,$1+$1,$8,$9*
0 Add four rect primitives between the rounded corners*
20,1,$1+$1,$2,$3,$4,$5,0*
20,1,$1+$1,$4,$5,$6,$7,0*
20,1,$1+$1,$6,$7,$8,$9,0*
20,1,$1+$1,$8,$9,$2,$3,0*%
G04 Aperture macros list end*
%ADD10C,0.150000*%
%ADD11C,0.120000*%
%ADD12C,0.127000*%
%ADD13C,0.200000*%
%ADD14C,0.240000*%
%ADD15C,0.100000*%
%ADD16R,1.248000X1.248000*%
%ADD17C,1.248000*%
%ADD18RoundRect,0.250000X0.600000X0.750000X-0.600000X0.750000X-0.600000X-0.750000X0.600000X-0.750000X0*%
%ADD19O,1.700000X2.000000*%
%ADD20RoundRect,0.250000X-0.337500X-0.475000X0.337500X-0.475000X0.337500X0.475000X-0.337500X0.475000X0*%
%ADD21RoundRect,0.249999X0.400001X-0.412501X0.400001X0.412501X-0.400001X0.412501X-0.400001X-0.412501X0*%
%ADD22RoundRect,0.249999X0.450001X-0.350001X0.450001X0.350001X-0.450001X0.350001X-0.450001X-0.350001X0*%
%ADD23R,3.000000X2.000000*%
%ADD24O,3.000000X2.000000*%
%ADD25R,2.000000X1.905000*%
%ADD26O,2.000000X1.905000*%
%ADD27R,1.600000X1.600000*%
%ADD28C,1.600000*%
%ADD29RoundRect,0.250000X-0.475000X0.337500X-0.475000X-0.337500X0.475000X-0.337500X0.475000X0.337500X0*%
%ADD30RoundRect,0.250000X-0.925000X0.500000X-0.925000X-0.500000X0.925000X-0.500000X0.925000X0.500000X0*%
%ADD31RoundRect,0.250000X0.475000X-0.337500X0.475000X0.337500X-0.475000X0.337500X-0.475000X-0.337500X0*%
%ADD32RoundRect,0.250000X-0.725000X0.600000X-0.725000X-0.600000X0.725000X-0.600000X0.725000X0.600000X0*%
%ADD33O,1.950000X1.700000*%
%ADD34RoundRect,0.150000X-0.625000X0.150000X-0.625000X-0.150000X0.625000X-0.150000X0.625000X0.150000X0*%
%ADD35RoundRect,0.249999X-0.650001X0.350001X-0.650001X-0.350001X0.650001X-0.350001X0.650001X0.350001X0*%
%ADD36RoundRect,0.249600X-0.650400X0.350400X-0.650400X-0.350400X0.650400X-0.350400X0.650400X0.350400X0*%
%ADD37RoundRect,0.249999X0.350001X0.450001X-0.350001X0.450001X-0.350001X-0.450001X0.350001X-0.450001X0*%
%ADD38RoundRect,0.249999X-0.450001X0.350001X-0.450001X-0.350001X0.450001X-0.350001X0.450001X0.350001X0*%
%ADD39RoundRect,0.249999X-0.350001X-0.450001X0.350001X-0.450001X0.350001X0.450001X-0.350001X0.450001X0*%
%ADD40R,1.600000X1.400000*%
%ADD41RoundRect,0.213900X0.251100X-0.511100X0.251100X0.511100X-0.251100X0.511100X-0.251100X-0.511100X0*%
%ADD42R,4.000000X4.000000*%
%ADD43RoundRect,0.249999X0.412501X0.400001X-0.412501X0.400001X-0.412501X-0.400001X0.412501X-0.400001X0*%
%ADD44R,3.000000X3.000000*%
%ADD45C,3.000000*%
%ADD46R,1.500000X1.000000*%
%ADD47O,1.500000X1.000000*%
%ADD48C,0.800000*%
%ADD49C,6.400000*%
%ADD50C,2.400000*%
%ADD51O,2.400000X2.400000*%
G04 APERTURE END LIST*
D10*
X8311800Y14870522D02*
X8337200Y19264722D01*
D11*
X6356000Y9917522D02*
X7880000Y11060522D01*
X6356000Y9028522D02*
X7499000Y9790522D01*
X8134000Y8520522D02*
X8515000Y8520522D01*
X6229000Y54748522D02*
X5594000Y54748522D01*
X6229000Y57796522D02*
X5594000Y57796522D01*
X6229000Y59320522D02*
X5594000Y59320522D01*
X6737000Y6488522D02*
X8642000Y6488522D01*
X6102000Y56272522D02*
X8388000Y56272522D01*
X7499000Y9790522D02*
X8642000Y9790522D01*
D10*
X9785000Y16369122D02*
X8337200Y16369122D01*
D11*
X7626000Y59066522D02*
X8007000Y59066522D01*
X6229000Y54748522D02*
X8388000Y54748522D01*
X6102000Y51700522D02*
X5594000Y51700522D01*
D10*
X9785000Y16369122D02*
X11258200Y16369122D01*
D11*
X6102000Y53224522D02*
X8388000Y53224522D01*
X7880000Y11060522D02*
X8642000Y11060522D01*
X6229000Y59320522D02*
X7245000Y59320522D01*
D10*
X8337200Y19264722D02*
X11258200Y19264722D01*
D11*
X6102000Y51700522D02*
X8388000Y51700522D01*
X6991000Y7885522D02*
X8134000Y8520522D01*
X7245000Y59320522D02*
X7626000Y59066522D01*
X6356000Y12076522D02*
X8007000Y13727522D01*
D10*
X11258200Y19264722D02*
X11258200Y14870522D01*
X11258200Y14870522D02*
X8311800Y14870522D01*
D11*
X8007000Y12584522D02*
X8642000Y12584522D01*
X7245000Y57796522D02*
X6229000Y57796522D01*
X6102000Y53224522D02*
X5594000Y53224522D01*
X8007000Y57542522D02*
X7626000Y57542522D01*
X8007000Y13727522D02*
X8642000Y13727522D01*
X6356000Y6869522D02*
X6737000Y6488522D01*
D10*
X9785000Y19264722D02*
X9785000Y16369122D01*
D11*
X6102000Y56272522D02*
X5594000Y56272522D01*
X7626000Y57542522D02*
X7245000Y57796522D01*
X6356000Y10933522D02*
X8007000Y12584522D01*
D10*
X77261667Y89562426D02*
X77261667Y90038617D01*
X77547381Y89467188D02*
X76547381Y89800522D01*
X77547381Y90133855D01*
X79064762Y22491617D02*
X79112381Y22634474D01*
X79112381Y22872569D01*
X79064762Y22967807D01*
X79017143Y23015426D01*
X78921905Y23063045D01*
X78826667Y23063045D01*
X78731429Y23015426D01*
X78683810Y22967807D01*
X78636191Y22872569D01*
X78588572Y22682093D01*
X78540953Y22586855D01*
X78493334Y22539236D01*
X78398096Y22491617D01*
X78302858Y22491617D01*
X78207620Y22539236D01*
X78160000Y22586855D01*
X78112381Y22682093D01*
X78112381Y22920188D01*
X78160000Y23063045D01*
X79112381Y23491617D02*
X78112381Y23491617D01*
X79112381Y23920188D02*
X78588572Y23920188D01*
X78493334Y23872569D01*
X78445715Y23777331D01*
X78445715Y23634474D01*
X78493334Y23539236D01*
X78540953Y23491617D01*
X79112381Y24824950D02*
X78588572Y24824950D01*
X78493334Y24777331D01*
X78445715Y24682093D01*
X78445715Y24491617D01*
X78493334Y24396379D01*
X79064762Y24824950D02*
X79112381Y24729712D01*
X79112381Y24491617D01*
X79064762Y24396379D01*
X78969524Y24348760D01*
X78874286Y24348760D01*
X78779048Y24396379D01*
X78731429Y24491617D01*
X78731429Y24729712D01*
X78683810Y24824950D01*
X79112381Y25301141D02*
X78112381Y25301141D01*
X78731429Y25396379D02*
X79112381Y25682093D01*
X78445715Y25682093D02*
X78826667Y25301141D01*
X79064762Y26491617D02*
X79112381Y26396379D01*
X79112381Y26205902D01*
X79064762Y26110664D01*
X78969524Y26063045D01*
X78588572Y26063045D01*
X78493334Y26110664D01*
X78445715Y26205902D01*
X78445715Y26396379D01*
X78493334Y26491617D01*
X78588572Y26539236D01*
X78683810Y26539236D01*
X78779048Y26063045D01*
X79112381Y27729712D02*
X78445715Y27729712D01*
X78112381Y27729712D02*
X78160000Y27682093D01*
X78207620Y27729712D01*
X78160000Y27777331D01*
X78112381Y27729712D01*
X78207620Y27729712D01*
X78445715Y28063045D02*
X78445715Y28443998D01*
X78112381Y28205902D02*
X78969524Y28205902D01*
X79064762Y28253522D01*
X79112381Y28348760D01*
X79112381Y28443998D01*
X78731429Y29539236D02*
X78731429Y30301141D01*
X79112381Y31539236D02*
X78112381Y31539236D01*
X78826667Y31872569D01*
X78112381Y32205902D01*
X79112381Y32205902D01*
X79112381Y33110664D02*
X78588572Y33110664D01*
X78493334Y33063045D01*
X78445715Y32967807D01*
X78445715Y32777331D01*
X78493334Y32682093D01*
X79064762Y33110664D02*
X79112381Y33015426D01*
X79112381Y32777331D01*
X79064762Y32682093D01*
X78969524Y32634474D01*
X78874286Y32634474D01*
X78779048Y32682093D01*
X78731429Y32777331D01*
X78731429Y33015426D01*
X78683810Y33110664D01*
X79112381Y33586855D02*
X78445715Y33586855D01*
X78112381Y33586855D02*
X78160000Y33539236D01*
X78207620Y33586855D01*
X78160000Y33634474D01*
X78112381Y33586855D01*
X78207620Y33586855D01*
X78445715Y34063045D02*
X79112381Y34063045D01*
X78540953Y34063045D02*
X78493334Y34110664D01*
X78445715Y34205902D01*
X78445715Y34348760D01*
X78493334Y34443998D01*
X78588572Y34491617D01*
X79112381Y34491617D01*
X78731429Y34967807D02*
X78731429Y35729712D01*
X79112381Y36205902D02*
X78112381Y36205902D01*
X78493334Y36205902D02*
X78445715Y36301141D01*
X78445715Y36491617D01*
X78493334Y36586855D01*
X78540953Y36634474D01*
X78636191Y36682093D01*
X78921905Y36682093D01*
X79017143Y36634474D01*
X79064762Y36586855D01*
X79112381Y36491617D01*
X79112381Y36301141D01*
X79064762Y36205902D01*
X79112381Y37253522D02*
X79064762Y37158283D01*
X79017143Y37110664D01*
X78921905Y37063045D01*
X78636191Y37063045D01*
X78540953Y37110664D01*
X78493334Y37158283D01*
X78445715Y37253522D01*
X78445715Y37396379D01*
X78493334Y37491617D01*
X78540953Y37539236D01*
X78636191Y37586855D01*
X78921905Y37586855D01*
X79017143Y37539236D01*
X79064762Y37491617D01*
X79112381Y37396379D01*
X79112381Y37253522D01*
X79112381Y38443998D02*
X78588572Y38443998D01*
X78493334Y38396379D01*
X78445715Y38301141D01*
X78445715Y38110664D01*
X78493334Y38015426D01*
X79064762Y38443998D02*
X79112381Y38348760D01*
X79112381Y38110664D01*
X79064762Y38015426D01*
X78969524Y37967807D01*
X78874286Y37967807D01*
X78779048Y38015426D01*
X78731429Y38110664D01*
X78731429Y38348760D01*
X78683810Y38443998D01*
X79112381Y38920188D02*
X78445715Y38920188D01*
X78636191Y38920188D02*
X78540953Y38967807D01*
X78493334Y39015426D01*
X78445715Y39110664D01*
X78445715Y39205902D01*
X79112381Y39967807D02*
X78112381Y39967807D01*
X79064762Y39967807D02*
X79112381Y39872569D01*
X79112381Y39682093D01*
X79064762Y39586855D01*
X79017143Y39539236D01*
X78921905Y39491617D01*
X78636191Y39491617D01*
X78540953Y39539236D01*
X78493334Y39586855D01*
X78445715Y39682093D01*
X78445715Y39872569D01*
X78493334Y39967807D01*
X80198572Y23515426D02*
X80246191Y23658283D01*
X80293810Y23705902D01*
X80389048Y23753522D01*
X80531905Y23753522D01*
X80627143Y23705902D01*
X80674762Y23658283D01*
X80722381Y23563045D01*
X80722381Y23182093D01*
X79722381Y23182093D01*
X79722381Y23515426D01*
X79770000Y23610664D01*
X79817620Y23658283D01*
X79912858Y23705902D01*
X80008096Y23705902D01*
X80103334Y23658283D01*
X80150953Y23610664D01*
X80198572Y23515426D01*
X80198572Y23182093D01*
X80055715Y24086855D02*
X80722381Y24324950D01*
X80055715Y24563045D02*
X80722381Y24324950D01*
X80960477Y24229712D01*
X81008096Y24182093D01*
X81055715Y24086855D01*
X80198572Y26039236D02*
X80198572Y25705902D01*
X80722381Y25705902D02*
X79722381Y25705902D01*
X79722381Y26182093D01*
X80674762Y26943998D02*
X80722381Y26848760D01*
X80722381Y26658283D01*
X80674762Y26563045D01*
X80579524Y26515426D01*
X80198572Y26515426D01*
X80103334Y26563045D01*
X80055715Y26658283D01*
X80055715Y26848760D01*
X80103334Y26943998D01*
X80198572Y26991617D01*
X80293810Y26991617D01*
X80389048Y26515426D01*
X80722381Y27420188D02*
X80055715Y27420188D01*
X80246191Y27420188D02*
X80150953Y27467807D01*
X80103334Y27515426D01*
X80055715Y27610664D01*
X80055715Y27705902D01*
X80055715Y28039236D02*
X80722381Y28039236D01*
X80150953Y28039236D02*
X80103334Y28086855D01*
X80055715Y28182093D01*
X80055715Y28324950D01*
X80103334Y28420188D01*
X80198572Y28467807D01*
X80722381Y28467807D01*
X80722381Y29372569D02*
X80198572Y29372569D01*
X80103334Y29324950D01*
X80055715Y29229712D01*
X80055715Y29039236D01*
X80103334Y28943998D01*
X80674762Y29372569D02*
X80722381Y29277331D01*
X80722381Y29039236D01*
X80674762Y28943998D01*
X80579524Y28896379D01*
X80484286Y28896379D01*
X80389048Y28943998D01*
X80341429Y29039236D01*
X80341429Y29277331D01*
X80293810Y29372569D01*
X80055715Y29848760D02*
X80722381Y29848760D01*
X80150953Y29848760D02*
X80103334Y29896379D01*
X80055715Y29991617D01*
X80055715Y30134474D01*
X80103334Y30229712D01*
X80198572Y30277331D01*
X80722381Y30277331D01*
X80722381Y31182093D02*
X79722381Y31182093D01*
X80674762Y31182093D02*
X80722381Y31086855D01*
X80722381Y30896379D01*
X80674762Y30801141D01*
X80627143Y30753522D01*
X80531905Y30705902D01*
X80246191Y30705902D01*
X80150953Y30753522D01*
X80103334Y30801141D01*
X80055715Y30896379D01*
X80055715Y31086855D01*
X80103334Y31182093D01*
X80722381Y31801141D02*
X80674762Y31705902D01*
X80627143Y31658283D01*
X80531905Y31610664D01*
X80246191Y31610664D01*
X80150953Y31658283D01*
X80103334Y31705902D01*
X80055715Y31801141D01*
X80055715Y31943998D01*
X80103334Y32039236D01*
X80150953Y32086855D01*
X80246191Y32134474D01*
X80531905Y32134474D01*
X80627143Y32086855D01*
X80674762Y32039236D01*
X80722381Y31943998D01*
X80722381Y31801141D01*
X80722381Y33324950D02*
X79722381Y33324950D01*
X79722381Y33563045D01*
X79770000Y33705902D01*
X79865239Y33801141D01*
X79960477Y33848760D01*
X80150953Y33896379D01*
X80293810Y33896379D01*
X80484286Y33848760D01*
X80579524Y33801141D01*
X80674762Y33705902D01*
X80722381Y33563045D01*
X80722381Y33324950D01*
X80674762Y34705902D02*
X80722381Y34610664D01*
X80722381Y34420188D01*
X80674762Y34324950D01*
X80579524Y34277331D01*
X80198572Y34277331D01*
X80103334Y34324950D01*
X80055715Y34420188D01*
X80055715Y34610664D01*
X80103334Y34705902D01*
X80198572Y34753522D01*
X80293810Y34753522D01*
X80389048Y34277331D01*
X80674762Y35610664D02*
X80722381Y35515426D01*
X80722381Y35324950D01*
X80674762Y35229712D01*
X80627143Y35182093D01*
X80531905Y35134474D01*
X80246191Y35134474D01*
X80150953Y35182093D01*
X80103334Y35229712D01*
X80055715Y35324950D01*
X80055715Y35515426D01*
X80103334Y35610664D01*
X80722381Y36182093D02*
X80674762Y36086855D01*
X80579524Y36039236D01*
X79722381Y36039236D01*
X80674762Y36943998D02*
X80722381Y36848760D01*
X80722381Y36658283D01*
X80674762Y36563045D01*
X80579524Y36515426D01*
X80198572Y36515426D01*
X80103334Y36563045D01*
X80055715Y36658283D01*
X80055715Y36848760D01*
X80103334Y36943998D01*
X80198572Y36991617D01*
X80293810Y36991617D01*
X80389048Y36515426D01*
X80722381Y37420188D02*
X80055715Y37420188D01*
X80246191Y37420188D02*
X80150953Y37467807D01*
X80103334Y37515426D01*
X80055715Y37610664D01*
X80055715Y37705902D01*
X80674762Y38467807D02*
X80722381Y38372569D01*
X80722381Y38182093D01*
X80674762Y38086855D01*
X80627143Y38039236D01*
X80531905Y37991617D01*
X80246191Y37991617D01*
X80150953Y38039236D01*
X80103334Y38086855D01*
X80055715Y38182093D01*
X80055715Y38372569D01*
X80103334Y38467807D01*
X80055715Y39324950D02*
X81055715Y39324950D01*
X80674762Y39324950D02*
X80722381Y39229712D01*
X80722381Y39039236D01*
X80674762Y38943998D01*
X80627143Y38896379D01*
X80531905Y38848760D01*
X80246191Y38848760D01*
X80150953Y38896379D01*
X80103334Y38943998D01*
X80055715Y39039236D01*
X80055715Y39229712D01*
X80103334Y39324950D01*
X81665715Y29824950D02*
X82332381Y30063045D01*
X81665715Y30301141D01*
X82332381Y31205902D02*
X82332381Y30634474D01*
X82332381Y30920188D02*
X81332381Y30920188D01*
X81475239Y30824950D01*
X81570477Y30729712D01*
X81618096Y30634474D01*
X82237143Y31634474D02*
X82284762Y31682093D01*
X82332381Y31634474D01*
X82284762Y31586855D01*
X82237143Y31634474D01*
X82332381Y31634474D01*
X81427620Y32063045D02*
X81380000Y32110664D01*
X81332381Y32205902D01*
X81332381Y32443998D01*
X81380000Y32539236D01*
X81427620Y32586855D01*
X81522858Y32634474D01*
X81618096Y32634474D01*
X81760953Y32586855D01*
X82332381Y32015426D01*
X82332381Y32634474D01*
X9189858Y12528950D02*
X9332715Y12481331D01*
X9380334Y12433712D01*
X9427953Y12338474D01*
X9427953Y12195617D01*
X9380334Y12100379D01*
X9332715Y12052760D01*
X9237477Y12005141D01*
X8856524Y12005141D01*
X8856524Y13005141D01*
X9189858Y13005141D01*
X9285096Y12957522D01*
X9332715Y12909902D01*
X9380334Y12814664D01*
X9380334Y12719426D01*
X9332715Y12624188D01*
X9285096Y12576569D01*
X9189858Y12528950D01*
X8856524Y12528950D01*
X10047000Y13005141D02*
X10237477Y13005141D01*
X10332715Y12957522D01*
X10427953Y12862283D01*
X10475572Y12671807D01*
X10475572Y12338474D01*
X10427953Y12147998D01*
X10332715Y12052760D01*
X10237477Y12005141D01*
X10047000Y12005141D01*
X9951762Y12052760D01*
X9856524Y12147998D01*
X9808905Y12338474D01*
X9808905Y12671807D01*
X9856524Y12862283D01*
X9951762Y12957522D01*
X10047000Y13005141D01*
X11094620Y13005141D02*
X11285096Y13005141D01*
X11380334Y12957522D01*
X11475572Y12862283D01*
X11523191Y12671807D01*
X11523191Y12338474D01*
X11475572Y12147998D01*
X11380334Y12052760D01*
X11285096Y12005141D01*
X11094620Y12005141D01*
X10999381Y12052760D01*
X10904143Y12147998D01*
X10856524Y12338474D01*
X10856524Y12671807D01*
X10904143Y12862283D01*
X10999381Y12957522D01*
X11094620Y13005141D01*
X11808905Y13005141D02*
X12380334Y13005141D01*
X12094620Y12005141D02*
X12094620Y13005141D01*
X8896096Y10211141D02*
X9467524Y10211141D01*
X9181810Y9211141D02*
X9181810Y10211141D01*
X9705620Y10211141D02*
X10372286Y9211141D01*
X10372286Y10211141D02*
X9705620Y9211141D01*
X8919905Y13798950D02*
X9253239Y13798950D01*
X9396096Y13275141D02*
X8919905Y13275141D01*
X8919905Y14275141D01*
X9396096Y14275141D01*
X9824667Y13275141D02*
X9824667Y14275141D01*
X10396096Y13275141D01*
X10396096Y14275141D01*
X9491334Y10608141D02*
X9158000Y11084331D01*
X8919905Y10608141D02*
X8919905Y11608141D01*
X9300858Y11608141D01*
X9396096Y11560522D01*
X9443715Y11512902D01*
X9491334Y11417664D01*
X9491334Y11274807D01*
X9443715Y11179569D01*
X9396096Y11131950D01*
X9300858Y11084331D01*
X8919905Y11084331D01*
X9824667Y11608141D02*
X10491334Y10608141D01*
X10491334Y11608141D02*
X9824667Y10608141D01*
X8372286Y57598093D02*
X9134191Y57598093D01*
X8753239Y57217141D02*
X8753239Y57979045D01*
X10086572Y58217141D02*
X9610381Y58217141D01*
X9562762Y57740950D01*
X9610381Y57788569D01*
X9705620Y57836188D01*
X9943715Y57836188D01*
X10038953Y57788569D01*
X10086572Y57740950D01*
X10134191Y57645712D01*
X10134191Y57407617D01*
X10086572Y57312379D01*
X10038953Y57264760D01*
X9943715Y57217141D01*
X9705620Y57217141D01*
X9610381Y57264760D01*
X9562762Y57312379D01*
X10419905Y58217141D02*
X10753239Y57217141D01*
X11086572Y58217141D01*
X9150096Y53597522D02*
X9054858Y53645141D01*
X8912000Y53645141D01*
X8769143Y53597522D01*
X8673905Y53502283D01*
X8626286Y53407045D01*
X8578667Y53216569D01*
X8578667Y53073712D01*
X8626286Y52883236D01*
X8673905Y52787998D01*
X8769143Y52692760D01*
X8912000Y52645141D01*
X9007239Y52645141D01*
X9150096Y52692760D01*
X9197715Y52740379D01*
X9197715Y53073712D01*
X9007239Y53073712D01*
X9626286Y52645141D02*
X9626286Y53645141D01*
X10197715Y52645141D01*
X10197715Y53645141D01*
X10673905Y52645141D02*
X10673905Y53645141D01*
X10912000Y53645141D01*
X11054858Y53597522D01*
X11150096Y53502283D01*
X11197715Y53407045D01*
X11245334Y53216569D01*
X11245334Y53073712D01*
X11197715Y52883236D01*
X11150096Y52787998D01*
X11054858Y52692760D01*
X10912000Y52645141D01*
X10673905Y52645141D01*
X32018000Y9663617D02*
X31970381Y9568379D01*
X31970381Y9425522D01*
X32018000Y9282664D01*
X32113239Y9187426D01*
X32208477Y9139807D01*
X32398953Y9092188D01*
X32541810Y9092188D01*
X32732286Y9139807D01*
X32827524Y9187426D01*
X32922762Y9282664D01*
X32970381Y9425522D01*
X32970381Y9520760D01*
X32922762Y9663617D01*
X32875143Y9711236D01*
X32541810Y9711236D01*
X32541810Y9520760D01*
X32970381Y10139807D02*
X31970381Y10139807D01*
X32970381Y10711236D01*
X31970381Y10711236D01*
X32970381Y11187426D02*
X31970381Y11187426D01*
X31970381Y11425522D01*
X32018000Y11568379D01*
X32113239Y11663617D01*
X32208477Y11711236D01*
X32398953Y11758855D01*
X32541810Y11758855D01*
X32732286Y11711236D01*
X32827524Y11663617D01*
X32922762Y11568379D01*
X32970381Y11425522D01*
X32970381Y11187426D01*
X9661753Y25197141D02*
X9661753Y24482855D01*
X9614134Y24339998D01*
X9518896Y24244760D01*
X9376039Y24197141D01*
X9280800Y24197141D01*
X10614134Y24197141D02*
X10137943Y24197141D01*
X10137943Y25197141D01*
X11518896Y24292379D02*
X11471277Y24244760D01*
X11328420Y24197141D01*
X11233181Y24197141D01*
X11090324Y24244760D01*
X10995086Y24339998D01*
X10947467Y24435236D01*
X10899848Y24625712D01*
X10899848Y24768569D01*
X10947467Y24959045D01*
X10995086Y25054283D01*
X11090324Y25149522D01*
X11233181Y25197141D01*
X11328420Y25197141D01*
X11471277Y25149522D01*
X11518896Y25101902D01*
X12233181Y25197141D02*
X12233181Y24482855D01*
X12185562Y24339998D01*
X12090324Y24244760D01*
X11947467Y24197141D01*
X11852229Y24197141D01*
X13185562Y24197141D02*
X12709372Y24197141D01*
X12709372Y25197141D01*
X14090324Y24292379D02*
X14042705Y24244760D01*
X13899848Y24197141D01*
X13804610Y24197141D01*
X13661753Y24244760D01*
X13566515Y24339998D01*
X13518896Y24435236D01*
X13471277Y24625712D01*
X13471277Y24768569D01*
X13518896Y24959045D01*
X13566515Y25054283D01*
X13661753Y25149522D01*
X13804610Y25197141D01*
X13899848Y25197141D01*
X14042705Y25149522D01*
X14090324Y25101902D01*
X14804610Y25197141D02*
X14804610Y24482855D01*
X14756991Y24339998D01*
X14661753Y24244760D01*
X14518896Y24197141D01*
X14423658Y24197141D01*
X15756991Y24197141D02*
X15280800Y24197141D01*
X15280800Y25197141D01*
X16661753Y24292379D02*
X16614134Y24244760D01*
X16471277Y24197141D01*
X16376039Y24197141D01*
X16233181Y24244760D01*
X16137943Y24339998D01*
X16090324Y24435236D01*
X16042705Y24625712D01*
X16042705Y24768569D01*
X16090324Y24959045D01*
X16137943Y25054283D01*
X16233181Y25149522D01*
X16376039Y25197141D01*
X16471277Y25197141D01*
X16614134Y25149522D01*
X16661753Y25101902D01*
X17376039Y25197141D02*
X17376039Y24482855D01*
X17328420Y24339998D01*
X17233181Y24244760D01*
X17090324Y24197141D01*
X16995086Y24197141D01*
X18328420Y24197141D02*
X17852229Y24197141D01*
X17852229Y25197141D01*
X19233181Y24292379D02*
X19185562Y24244760D01*
X19042705Y24197141D01*
X18947467Y24197141D01*
X18804610Y24244760D01*
X18709372Y24339998D01*
X18661753Y24435236D01*
X18614134Y24625712D01*
X18614134Y24768569D01*
X18661753Y24959045D01*
X18709372Y25054283D01*
X18804610Y25149522D01*
X18947467Y25197141D01*
X19042705Y25197141D01*
X19185562Y25149522D01*
X19233181Y25101902D01*
X21153067Y88800426D02*
X21153067Y89276617D01*
X21438781Y88705188D02*
X20438781Y89038522D01*
X21438781Y89371855D01*
X8896096Y55169141D02*
X9467524Y55169141D01*
X9181810Y54169141D02*
X9181810Y55169141D01*
X9705620Y55169141D02*
X10372286Y54169141D01*
X10372286Y55169141D02*
X9705620Y54169141D01*
X25628667Y35166760D02*
X25771524Y35119141D01*
X26009620Y35119141D01*
X26104858Y35166760D01*
X26152477Y35214379D01*
X26200096Y35309617D01*
X26200096Y35404855D01*
X26152477Y35500093D01*
X26104858Y35547712D01*
X26009620Y35595331D01*
X25819143Y35642950D01*
X25723905Y35690569D01*
X25676286Y35738188D01*
X25628667Y35833426D01*
X25628667Y35928664D01*
X25676286Y36023902D01*
X25723905Y36071522D01*
X25819143Y36119141D01*
X26057239Y36119141D01*
X26200096Y36071522D01*
X26485810Y36119141D02*
X27057239Y36119141D01*
X26771524Y35119141D02*
X26771524Y36119141D01*
X27342953Y35404855D02*
X27819143Y35404855D01*
X27247715Y35119141D02*
X27581048Y36119141D01*
X27914381Y35119141D01*
X28104858Y36119141D02*
X28676286Y36119141D01*
X28390572Y35119141D02*
X28390572Y36119141D01*
X29009620Y36119141D02*
X29009620Y35309617D01*
X29057239Y35214379D01*
X29104858Y35166760D01*
X29200096Y35119141D01*
X29390572Y35119141D01*
X29485810Y35166760D01*
X29533429Y35214379D01*
X29581048Y35309617D01*
X29581048Y36119141D01*
X30009620Y35166760D02*
X30152477Y35119141D01*
X30390572Y35119141D01*
X30485810Y35166760D01*
X30533429Y35214379D01*
X30581048Y35309617D01*
X30581048Y35404855D01*
X30533429Y35500093D01*
X30485810Y35547712D01*
X30390572Y35595331D01*
X30200096Y35642950D01*
X30104858Y35690569D01*
X30057239Y35738188D01*
X30009620Y35833426D01*
X30009620Y35928664D01*
X30057239Y36023902D01*
X30104858Y36071522D01*
X30200096Y36119141D01*
X30438191Y36119141D01*
X30581048Y36071522D01*
X32295334Y35119141D02*
X31723905Y35119141D01*
X32009620Y35119141D02*
X32009620Y36119141D01*
X31914381Y35976283D01*
X31819143Y35881045D01*
X31723905Y35833426D01*
X20278477Y97196741D02*
X20278477Y98196741D01*
X20611810Y97482455D01*
X20945143Y98196741D01*
X20945143Y97196741D01*
X21945143Y97196741D02*
X21373715Y97196741D01*
X21659429Y97196741D02*
X21659429Y98196741D01*
X21564191Y98053883D01*
X21468953Y97958645D01*
X21373715Y97911026D01*
X25755667Y23609760D02*
X25898524Y23562141D01*
X26136620Y23562141D01*
X26231858Y23609760D01*
X26279477Y23657379D01*
X26327096Y23752617D01*
X26327096Y23847855D01*
X26279477Y23943093D01*
X26231858Y23990712D01*
X26136620Y24038331D01*
X25946143Y24085950D01*
X25850905Y24133569D01*
X25803286Y24181188D01*
X25755667Y24276426D01*
X25755667Y24371664D01*
X25803286Y24466902D01*
X25850905Y24514522D01*
X25946143Y24562141D01*
X26184239Y24562141D01*
X26327096Y24514522D01*
X26612810Y24562141D02*
X27184239Y24562141D01*
X26898524Y23562141D02*
X26898524Y24562141D01*
X27469953Y23847855D02*
X27946143Y23847855D01*
X27374715Y23562141D02*
X27708048Y24562141D01*
X28041381Y23562141D01*
X28231858Y24562141D02*
X28803286Y24562141D01*
X28517572Y23562141D02*
X28517572Y24562141D01*
X29136620Y24562141D02*
X29136620Y23752617D01*
X29184239Y23657379D01*
X29231858Y23609760D01*
X29327096Y23562141D01*
X29517572Y23562141D01*
X29612810Y23609760D01*
X29660429Y23657379D01*
X29708048Y23752617D01*
X29708048Y24562141D01*
X30136620Y23609760D02*
X30279477Y23562141D01*
X30517572Y23562141D01*
X30612810Y23609760D01*
X30660429Y23657379D01*
X30708048Y23752617D01*
X30708048Y23847855D01*
X30660429Y23943093D01*
X30612810Y23990712D01*
X30517572Y24038331D01*
X30327096Y24085950D01*
X30231858Y24133569D01*
X30184239Y24181188D01*
X30136620Y24276426D01*
X30136620Y24371664D01*
X30184239Y24466902D01*
X30231858Y24514522D01*
X30327096Y24562141D01*
X30565191Y24562141D01*
X30708048Y24514522D01*
X31850905Y24466902D02*
X31898524Y24514522D01*
X31993762Y24562141D01*
X32231858Y24562141D01*
X32327096Y24514522D01*
X32374715Y24466902D01*
X32422334Y24371664D01*
X32422334Y24276426D01*
X32374715Y24133569D01*
X31803286Y23562141D01*
X32422334Y23562141D01*
X84811829Y15094350D02*
X84954686Y15046731D01*
X85002305Y14999112D01*
X85049924Y14903874D01*
X85049924Y14761017D01*
X85002305Y14665779D01*
X84954686Y14618160D01*
X84859448Y14570541D01*
X84478496Y14570541D01*
X84478496Y15570541D01*
X84811829Y15570541D01*
X84907067Y15522922D01*
X84954686Y15475302D01*
X85002305Y15380064D01*
X85002305Y15284826D01*
X84954686Y15189588D01*
X84907067Y15141969D01*
X84811829Y15094350D01*
X84478496Y15094350D01*
X38287077Y97450741D02*
X38287077Y98450741D01*
X38620410Y97736455D01*
X38953743Y98450741D01*
X38953743Y97450741D01*
X39382315Y98355502D02*
X39429934Y98403122D01*
X39525172Y98450741D01*
X39763267Y98450741D01*
X39858505Y98403122D01*
X39906124Y98355502D01*
X39953743Y98260264D01*
X39953743Y98165026D01*
X39906124Y98022169D01*
X39334696Y97450741D01*
X39953743Y97450741D01*
X9150096Y52073522D02*
X9054858Y52121141D01*
X8912000Y52121141D01*
X8769143Y52073522D01*
X8673905Y51978283D01*
X8626286Y51883045D01*
X8578667Y51692569D01*
X8578667Y51549712D01*
X8626286Y51359236D01*
X8673905Y51263998D01*
X8769143Y51168760D01*
X8912000Y51121141D01*
X9007239Y51121141D01*
X9150096Y51168760D01*
X9197715Y51216379D01*
X9197715Y51549712D01*
X9007239Y51549712D01*
X9626286Y51121141D02*
X9626286Y52121141D01*
X10197715Y51121141D01*
X10197715Y52121141D01*
X10673905Y51121141D02*
X10673905Y52121141D01*
X10912000Y52121141D01*
X11054858Y52073522D01*
X11150096Y51978283D01*
X11197715Y51883045D01*
X11245334Y51692569D01*
X11245334Y51549712D01*
X11197715Y51359236D01*
X11150096Y51263998D01*
X11054858Y51168760D01*
X10912000Y51121141D01*
X10673905Y51121141D01*
X84469429Y43040760D02*
X84612286Y42993141D01*
X84850381Y42993141D01*
X84945620Y43040760D01*
X84993239Y43088379D01*
X85040858Y43183617D01*
X85040858Y43278855D01*
X84993239Y43374093D01*
X84945620Y43421712D01*
X84850381Y43469331D01*
X84659905Y43516950D01*
X84564667Y43564569D01*
X84517048Y43612188D01*
X84469429Y43707426D01*
X84469429Y43802664D01*
X84517048Y43897902D01*
X84564667Y43945522D01*
X84659905Y43993141D01*
X84898001Y43993141D01*
X85040858Y43945522D01*
X85326572Y43993141D02*
X85898001Y43993141D01*
X85612286Y42993141D02*
X85612286Y43993141D01*
X86231334Y43516950D02*
X86564667Y43516950D01*
X86707523Y42993141D02*
X86231334Y42993141D01*
X86231334Y43993141D01*
X86707523Y43993141D01*
X87136095Y42993141D02*
X87136095Y43993141D01*
X87517047Y43993141D01*
X87612285Y43945522D01*
X87659904Y43897902D01*
X87707523Y43802664D01*
X87707523Y43659807D01*
X87659904Y43564569D01*
X87612285Y43516950D01*
X87517047Y43469331D01*
X87136095Y43469331D01*
X88136095Y42993141D02*
X88136095Y43993141D01*
X88517047Y43993141D01*
X88612285Y43945522D01*
X88659904Y43897902D01*
X88707523Y43802664D01*
X88707523Y43659807D01*
X88659904Y43564569D01*
X88612285Y43516950D01*
X88517047Y43469331D01*
X88136095Y43469331D01*
X89136095Y43516950D02*
X89469428Y43516950D01*
X89612285Y42993141D02*
X89136095Y42993141D01*
X89136095Y43993141D01*
X89612285Y43993141D01*
X90612285Y42993141D02*
X90278952Y43469331D01*
X90040857Y42993141D02*
X90040857Y43993141D01*
X90421809Y43993141D01*
X90517047Y43945522D01*
X90564666Y43897902D01*
X90612285Y43802664D01*
X90612285Y43659807D01*
X90564666Y43564569D01*
X90517047Y43516950D01*
X90421809Y43469331D01*
X90040857Y43469331D01*
X92326571Y42993141D02*
X91755142Y42993141D01*
X92040857Y42993141D02*
X92040857Y43993141D01*
X91945619Y43850283D01*
X91850380Y43755045D01*
X91755142Y43707426D01*
X84502305Y17320055D02*
X84978496Y17320055D01*
X84407067Y17034341D02*
X84740400Y18034341D01*
X85073734Y17034341D01*
X57983067Y89181426D02*
X57983067Y89657617D01*
X58268781Y89086188D02*
X57268781Y89419522D01*
X58268781Y89752855D01*
X84222905Y39214855D02*
X84699096Y39214855D01*
X84127667Y38929141D02*
X84461000Y39929141D01*
X84794334Y38929141D01*
X56956077Y97450741D02*
X56956077Y98450741D01*
X57289410Y97736455D01*
X57622743Y98450741D01*
X57622743Y97450741D01*
X58003696Y98450741D02*
X58622743Y98450741D01*
X58289410Y98069788D01*
X58432267Y98069788D01*
X58527505Y98022169D01*
X58575124Y97974550D01*
X58622743Y97879312D01*
X58622743Y97641217D01*
X58575124Y97545979D01*
X58527505Y97498360D01*
X58432267Y97450741D01*
X58146553Y97450741D01*
X58051315Y97498360D01*
X58003696Y97545979D01*
X84529296Y9592141D02*
X84529296Y10592141D01*
X84767391Y10592141D01*
X84910248Y10544522D01*
X85005486Y10449283D01*
X85053105Y10354045D01*
X85100724Y10163569D01*
X85100724Y10020712D01*
X85053105Y9830236D01*
X85005486Y9734998D01*
X84910248Y9639760D01*
X84767391Y9592141D01*
X84529296Y9592141D01*
X85075324Y12151179D02*
X85027705Y12103560D01*
X84884848Y12055941D01*
X84789610Y12055941D01*
X84646753Y12103560D01*
X84551515Y12198798D01*
X84503896Y12294036D01*
X84456277Y12484512D01*
X84456277Y12627369D01*
X84503896Y12817845D01*
X84551515Y12913083D01*
X84646753Y13008322D01*
X84789610Y13055941D01*
X84884848Y13055941D01*
X85027705Y13008322D01*
X85075324Y12960702D01*
X9404096Y8893522D02*
X9308858Y8941141D01*
X9166000Y8941141D01*
X9023143Y8893522D01*
X8927905Y8798283D01*
X8880286Y8703045D01*
X8832667Y8512569D01*
X8832667Y8369712D01*
X8880286Y8179236D01*
X8927905Y8083998D01*
X9023143Y7988760D01*
X9166000Y7941141D01*
X9261239Y7941141D01*
X9404096Y7988760D01*
X9451715Y8036379D01*
X9451715Y8369712D01*
X9261239Y8369712D01*
X9880286Y7941141D02*
X9880286Y8941141D01*
X10451715Y7941141D01*
X10451715Y8941141D01*
X10927905Y7941141D02*
X10927905Y8941141D01*
X11166000Y8941141D01*
X11308858Y8893522D01*
X11404096Y8798283D01*
X11451715Y8703045D01*
X11499334Y8512569D01*
X11499334Y8369712D01*
X11451715Y8179236D01*
X11404096Y8083998D01*
X11308858Y7988760D01*
X11166000Y7941141D01*
X10927905Y7941141D01*
X8912096Y6925093D02*
X9674000Y6925093D01*
X9293048Y6544141D02*
X9293048Y7306045D01*
X10054953Y7544141D02*
X10674000Y7544141D01*
X10340667Y7163188D01*
X10483524Y7163188D01*
X10578762Y7115569D01*
X10626381Y7067950D01*
X10674000Y6972712D01*
X10674000Y6734617D01*
X10626381Y6639379D01*
X10578762Y6591760D01*
X10483524Y6544141D01*
X10197810Y6544141D01*
X10102572Y6591760D01*
X10054953Y6639379D01*
X10959715Y7544141D02*
X11293048Y6544141D01*
X11626381Y7544141D01*
X11864477Y7544141D02*
X12483524Y7544141D01*
X12150191Y7163188D01*
X12293048Y7163188D01*
X12388286Y7115569D01*
X12435905Y7067950D01*
X12483524Y6972712D01*
X12483524Y6734617D01*
X12435905Y6639379D01*
X12388286Y6591760D01*
X12293048Y6544141D01*
X12007334Y6544141D01*
X11912096Y6591760D01*
X11864477Y6639379D01*
X39923667Y89562426D02*
X39923667Y90038617D01*
X40209381Y89467188D02*
X39209381Y89800522D01*
X40209381Y90133855D01*
X84532429Y36912950D02*
X84675286Y36865331D01*
X84722905Y36817712D01*
X84770524Y36722474D01*
X84770524Y36579617D01*
X84722905Y36484379D01*
X84675286Y36436760D01*
X84580048Y36389141D01*
X84199096Y36389141D01*
X84199096Y37389141D01*
X84532429Y37389141D01*
X84627667Y37341522D01*
X84675286Y37293902D01*
X84722905Y37198664D01*
X84722905Y37103426D01*
X84675286Y37008188D01*
X84627667Y36960569D01*
X84532429Y36912950D01*
X84199096Y36912950D01*
X3206448Y19904493D02*
X3968353Y19904493D01*
X3587400Y19523541D02*
X3587400Y20285445D01*
X27509429Y9139807D02*
X27509429Y9901712D01*
X27890381Y9520760D02*
X27128477Y9520760D01*
X26890381Y10854093D02*
X26890381Y10377902D01*
X27366572Y10330283D01*
X27318953Y10377902D01*
X27271334Y10473141D01*
X27271334Y10711236D01*
X27318953Y10806474D01*
X27366572Y10854093D01*
X27461810Y10901712D01*
X27699905Y10901712D01*
X27795143Y10854093D01*
X27842762Y10806474D01*
X27890381Y10711236D01*
X27890381Y10473141D01*
X27842762Y10377902D01*
X27795143Y10330283D01*
X26890381Y11187426D02*
X27890381Y11520760D01*
X26890381Y11854093D01*
X9491334Y55693141D02*
X9158000Y56169331D01*
X8919905Y55693141D02*
X8919905Y56693141D01*
X9300858Y56693141D01*
X9396096Y56645522D01*
X9443715Y56597902D01*
X9491334Y56502664D01*
X9491334Y56359807D01*
X9443715Y56264569D01*
X9396096Y56216950D01*
X9300858Y56169331D01*
X8919905Y56169331D01*
X9824667Y56693141D02*
X10491334Y55693141D01*
X10491334Y56693141D02*
X9824667Y55693141D01*
X516210Y62408141D02*
X1087639Y62408141D01*
X801924Y61408141D02*
X801924Y62408141D01*
X1563829Y61408141D02*
X1468591Y61455760D01*
X1420972Y61503379D01*
X1373353Y61598617D01*
X1373353Y61884331D01*
X1420972Y61979569D01*
X1468591Y62027188D01*
X1563829Y62074807D01*
X1706686Y62074807D01*
X1801924Y62027188D01*
X1849543Y61979569D01*
X1897162Y61884331D01*
X1897162Y61598617D01*
X1849543Y61503379D01*
X1801924Y61455760D01*
X1706686Y61408141D01*
X1563829Y61408141D01*
X2754305Y62074807D02*
X2754305Y61408141D01*
X2325734Y62074807D02*
X2325734Y61550998D01*
X2373353Y61455760D01*
X2468591Y61408141D01*
X2611448Y61408141D01*
X2706686Y61455760D01*
X2754305Y61503379D01*
X3659067Y61455760D02*
X3563829Y61408141D01*
X3373353Y61408141D01*
X3278115Y61455760D01*
X3230496Y61503379D01*
X3182877Y61598617D01*
X3182877Y61884331D01*
X3230496Y61979569D01*
X3278115Y62027188D01*
X3373353Y62074807D01*
X3563829Y62074807D01*
X3659067Y62027188D01*
X4087639Y61408141D02*
X4087639Y62408141D01*
X4516210Y61408141D02*
X4516210Y61931950D01*
X4468591Y62027188D01*
X4373353Y62074807D01*
X4230496Y62074807D01*
X4135258Y62027188D01*
X4087639Y61979569D01*
X5706686Y61455760D02*
X5849543Y61408141D01*
X6087639Y61408141D01*
X6182877Y61455760D01*
X6230496Y61503379D01*
X6278115Y61598617D01*
X6278115Y61693855D01*
X6230496Y61789093D01*
X6182877Y61836712D01*
X6087639Y61884331D01*
X5897162Y61931950D01*
X5801924Y61979569D01*
X5754305Y62027188D01*
X5706686Y62122426D01*
X5706686Y62217664D01*
X5754305Y62312902D01*
X5801924Y62360522D01*
X5897162Y62408141D01*
X6135258Y62408141D01*
X6278115Y62360522D01*
X7135258Y61455760D02*
X7040020Y61408141D01*
X6849543Y61408141D01*
X6754305Y61455760D01*
X6706686Y61503379D01*
X6659067Y61598617D01*
X6659067Y61884331D01*
X6706686Y61979569D01*
X6754305Y62027188D01*
X6849543Y62074807D01*
X7040020Y62074807D01*
X7135258Y62027188D01*
X7563829Y61408141D02*
X7563829Y62074807D01*
X7563829Y61884331D02*
X7611448Y61979569D01*
X7659067Y62027188D01*
X7754305Y62074807D01*
X7849543Y62074807D01*
X8563829Y61455760D02*
X8468591Y61408141D01*
X8278115Y61408141D01*
X8182877Y61455760D01*
X8135258Y61550998D01*
X8135258Y61931950D01*
X8182877Y62027188D01*
X8278115Y62074807D01*
X8468591Y62074807D01*
X8563829Y62027188D01*
X8611448Y61931950D01*
X8611448Y61836712D01*
X8135258Y61741474D01*
X9420972Y61455760D02*
X9325734Y61408141D01*
X9135258Y61408141D01*
X9040020Y61455760D01*
X8992400Y61550998D01*
X8992400Y61931950D01*
X9040020Y62027188D01*
X9135258Y62074807D01*
X9325734Y62074807D01*
X9420972Y62027188D01*
X9468591Y61931950D01*
X9468591Y61836712D01*
X8992400Y61741474D01*
X9897162Y62074807D02*
X9897162Y61408141D01*
X9897162Y61979569D02*
X9944781Y62027188D01*
X10040020Y62074807D01*
X10182877Y62074807D01*
X10278115Y62027188D01*
X10325734Y61931950D01*
X10325734Y61408141D01*
X83682029Y21501560D02*
X83824886Y21453941D01*
X84062981Y21453941D01*
X84158220Y21501560D01*
X84205839Y21549179D01*
X84253458Y21644417D01*
X84253458Y21739655D01*
X84205839Y21834893D01*
X84158220Y21882512D01*
X84062981Y21930131D01*
X83872505Y21977750D01*
X83777267Y22025369D01*
X83729648Y22072988D01*
X83682029Y22168226D01*
X83682029Y22263464D01*
X83729648Y22358702D01*
X83777267Y22406322D01*
X83872505Y22453941D01*
X84110601Y22453941D01*
X84253458Y22406322D01*
X84539172Y22453941D02*
X85110601Y22453941D01*
X84824886Y21453941D02*
X84824886Y22453941D01*
X85443934Y21977750D02*
X85777267Y21977750D01*
X85920124Y21453941D02*
X85443934Y21453941D01*
X85443934Y22453941D01*
X85920124Y22453941D01*
X86348696Y21453941D02*
X86348696Y22453941D01*
X86729647Y22453941D01*
X86824885Y22406322D01*
X86872504Y22358702D01*
X86920123Y22263464D01*
X86920123Y22120607D01*
X86872504Y22025369D01*
X86824885Y21977750D01*
X86729647Y21930131D01*
X86348696Y21930131D01*
X87348695Y21453941D02*
X87348695Y22453941D01*
X87729647Y22453941D01*
X87824885Y22406322D01*
X87872504Y22358702D01*
X87920123Y22263464D01*
X87920123Y22120607D01*
X87872504Y22025369D01*
X87824885Y21977750D01*
X87729647Y21930131D01*
X87348695Y21930131D01*
X88348695Y21977750D02*
X88682028Y21977750D01*
X88824885Y21453941D02*
X88348695Y21453941D01*
X88348695Y22453941D01*
X88824885Y22453941D01*
X89824885Y21453941D02*
X89491552Y21930131D01*
X89253457Y21453941D02*
X89253457Y22453941D01*
X89634409Y22453941D01*
X89729647Y22406322D01*
X89777266Y22358702D01*
X89824885Y22263464D01*
X89824885Y22120607D01*
X89777266Y22025369D01*
X89729647Y21977750D01*
X89634409Y21930131D01*
X89253457Y21930131D01*
X90967742Y22358702D02*
X91015361Y22406322D01*
X91110600Y22453941D01*
X91348695Y22453941D01*
X91443933Y22406322D01*
X91491552Y22358702D01*
X91539171Y22263464D01*
X91539171Y22168226D01*
X91491552Y22025369D01*
X90920123Y21453941D01*
X91539171Y21453941D01*
X76056877Y97882541D02*
X76056877Y98882541D01*
X76390210Y98168255D01*
X76723543Y98882541D01*
X76723543Y97882541D01*
X77628305Y98549207D02*
X77628305Y97882541D01*
X77390210Y98930160D02*
X77152115Y98215874D01*
X77771162Y98215874D01*
X84770524Y33944379D02*
X84722905Y33896760D01*
X84580048Y33849141D01*
X84484810Y33849141D01*
X84341953Y33896760D01*
X84246715Y33991998D01*
X84199096Y34087236D01*
X84151477Y34277712D01*
X84151477Y34420569D01*
X84199096Y34611045D01*
X84246715Y34706283D01*
X84341953Y34801522D01*
X84484810Y34849141D01*
X84580048Y34849141D01*
X84722905Y34801522D01*
X84770524Y34753902D01*
X9378696Y72647522D02*
X9283458Y72695141D01*
X9140600Y72695141D01*
X8997743Y72647522D01*
X8902505Y72552283D01*
X8854886Y72457045D01*
X8807267Y72266569D01*
X8807267Y72123712D01*
X8854886Y71933236D01*
X8902505Y71837998D01*
X8997743Y71742760D01*
X9140600Y71695141D01*
X9235839Y71695141D01*
X9378696Y71742760D01*
X9426315Y71790379D01*
X9426315Y72123712D01*
X9235839Y72123712D01*
X9854886Y71695141D02*
X9854886Y72695141D01*
X10426315Y71695141D01*
X10426315Y72695141D01*
X10902505Y71695141D02*
X10902505Y72695141D01*
X11140600Y72695141D01*
X11283458Y72647522D01*
X11378696Y72552283D01*
X11426315Y72457045D01*
X11473934Y72266569D01*
X11473934Y72123712D01*
X11426315Y71933236D01*
X11378696Y71837998D01*
X11283458Y71742760D01*
X11140600Y71695141D01*
X10902505Y71695141D01*
X84199096Y31309141D02*
X84199096Y32309141D01*
X84437191Y32309141D01*
X84580048Y32261522D01*
X84675286Y32166283D01*
X84722905Y32071045D01*
X84770524Y31880569D01*
X84770524Y31737712D01*
X84722905Y31547236D01*
X84675286Y31451998D01*
X84580048Y31356760D01*
X84437191Y31309141D01*
X84199096Y31309141D01*
X8378696Y76038493D02*
X9140600Y76038493D01*
X8759648Y75657541D02*
X8759648Y76419445D01*
X10140600Y75657541D02*
X9569172Y75657541D01*
X9854886Y75657541D02*
X9854886Y76657541D01*
X9759648Y76514683D01*
X9664410Y76419445D01*
X9569172Y76371826D01*
X10521553Y76562302D02*
X10569172Y76609922D01*
X10664410Y76657541D01*
X10902505Y76657541D01*
X10997743Y76609922D01*
X11045362Y76562302D01*
X11092981Y76467064D01*
X11092981Y76371826D01*
X11045362Y76228969D01*
X10473934Y75657541D01*
X11092981Y75657541D01*
X11378696Y76657541D02*
X11712029Y75657541D01*
X12045362Y76657541D01*
X8372286Y59122093D02*
X9134191Y59122093D01*
X8753239Y58741141D02*
X8753239Y59503045D01*
X10086572Y59741141D02*
X9610381Y59741141D01*
X9562762Y59264950D01*
X9610381Y59312569D01*
X9705620Y59360188D01*
X9943715Y59360188D01*
X10038953Y59312569D01*
X10086572Y59264950D01*
X10134191Y59169712D01*
X10134191Y58931617D01*
X10086572Y58836379D01*
X10038953Y58788760D01*
X9943715Y58741141D01*
X9705620Y58741141D01*
X9610381Y58788760D01*
X9562762Y58836379D01*
X10419905Y59741141D02*
X10753239Y58741141D01*
X11086572Y59741141D01*
X3760620Y47692141D02*
X3427286Y48168331D01*
X3189191Y47692141D02*
X3189191Y48692141D01*
X3570143Y48692141D01*
X3665381Y48644522D01*
X3713000Y48596902D01*
X3760620Y48501664D01*
X3760620Y48358807D01*
X3713000Y48263569D01*
X3665381Y48215950D01*
X3570143Y48168331D01*
X3189191Y48168331D01*
X4189191Y48215950D02*
X4522524Y48215950D01*
X4665381Y47692141D02*
X4189191Y47692141D01*
X4189191Y48692141D01*
X4665381Y48692141D01*
X5046334Y47739760D02*
X5189191Y47692141D01*
X5427286Y47692141D01*
X5522524Y47739760D01*
X5570143Y47787379D01*
X5617762Y47882617D01*
X5617762Y47977855D01*
X5570143Y48073093D01*
X5522524Y48120712D01*
X5427286Y48168331D01*
X5236810Y48215950D01*
X5141572Y48263569D01*
X5093953Y48311188D01*
X5046334Y48406426D01*
X5046334Y48501664D01*
X5093953Y48596902D01*
X5141572Y48644522D01*
X5236810Y48692141D01*
X5474905Y48692141D01*
X5617762Y48644522D01*
X6046334Y48215950D02*
X6379667Y48215950D01*
X6522524Y47692141D02*
X6046334Y47692141D01*
X6046334Y48692141D01*
X6522524Y48692141D01*
X6808239Y48692141D02*
X7379667Y48692141D01*
X7093953Y47692141D02*
X7093953Y48692141D01*
%TO.C,U1*%
X67047781Y31660017D02*
X67857305Y31660017D01*
X67952543Y31707636D01*
X68000162Y31755255D01*
X68047781Y31850493D01*
X68047781Y32040969D01*
X68000162Y32136207D01*
X67952543Y32183826D01*
X67857305Y32231445D01*
X67047781Y32231445D01*
X68047781Y33231445D02*
X68047781Y32660017D01*
X68047781Y32945731D02*
X67047781Y32945731D01*
X67190639Y32850493D01*
X67285877Y32755255D01*
X67333496Y32660017D01*
%TO.C,J9*%
X76558467Y95910741D02*
X76558467Y95196455D01*
X76510848Y95053598D01*
X76415610Y94958360D01*
X76272753Y94910741D01*
X76177515Y94910741D01*
X77082277Y94910741D02*
X77272753Y94910741D01*
X77367991Y94958360D01*
X77415610Y95005979D01*
X77510848Y95148836D01*
X77558467Y95339312D01*
X77558467Y95720264D01*
X77510848Y95815502D01*
X77463229Y95863122D01*
X77367991Y95910741D01*
X77177515Y95910741D01*
X77082277Y95863122D01*
X77034658Y95815502D01*
X76987039Y95720264D01*
X76987039Y95482169D01*
X77034658Y95386931D01*
X77082277Y95339312D01*
X77177515Y95291693D01*
X77367991Y95291693D01*
X77463229Y95339312D01*
X77510848Y95386931D01*
X77558467Y95482169D01*
%TO.C,C7*%
X74032734Y7858579D02*
X73985115Y7810960D01*
X73842258Y7763341D01*
X73747020Y7763341D01*
X73604162Y7810960D01*
X73508924Y7906198D01*
X73461305Y8001436D01*
X73413686Y8191912D01*
X73413686Y8334769D01*
X73461305Y8525245D01*
X73508924Y8620483D01*
X73604162Y8715722D01*
X73747020Y8763341D01*
X73842258Y8763341D01*
X73985115Y8715722D01*
X74032734Y8668102D01*
X74366067Y8763341D02*
X75032734Y8763341D01*
X74604162Y7763341D01*
%TO.C,D11*%
X76642715Y85817541D02*
X76642715Y86817541D01*
X76880810Y86817541D01*
X77023667Y86769922D01*
X77118905Y86674683D01*
X77166524Y86579445D01*
X77214143Y86388969D01*
X77214143Y86246112D01*
X77166524Y86055636D01*
X77118905Y85960398D01*
X77023667Y85865160D01*
X76880810Y85817541D01*
X76642715Y85817541D01*
X78166524Y85817541D02*
X77595096Y85817541D01*
X77880810Y85817541D02*
X77880810Y86817541D01*
X77785572Y86674683D01*
X77690334Y86579445D01*
X77595096Y86531826D01*
X79118905Y85817541D02*
X78547477Y85817541D01*
X78833191Y85817541D02*
X78833191Y86817541D01*
X78737953Y86674683D01*
X78642715Y86579445D01*
X78547477Y86531826D01*
%TO.C,D12*%
X57287915Y85715941D02*
X57287915Y86715941D01*
X57526010Y86715941D01*
X57668867Y86668322D01*
X57764105Y86573083D01*
X57811724Y86477845D01*
X57859343Y86287369D01*
X57859343Y86144512D01*
X57811724Y85954036D01*
X57764105Y85858798D01*
X57668867Y85763560D01*
X57526010Y85715941D01*
X57287915Y85715941D01*
X58811724Y85715941D02*
X58240296Y85715941D01*
X58526010Y85715941D02*
X58526010Y86715941D01*
X58430772Y86573083D01*
X58335534Y86477845D01*
X58240296Y86430226D01*
X59192677Y86620702D02*
X59240296Y86668322D01*
X59335534Y86715941D01*
X59573629Y86715941D01*
X59668867Y86668322D01*
X59716486Y86620702D01*
X59764105Y86525464D01*
X59764105Y86430226D01*
X59716486Y86287369D01*
X59145058Y85715941D01*
X59764105Y85715941D01*
%TO.C,D13*%
X39330115Y85715941D02*
X39330115Y86715941D01*
X39568210Y86715941D01*
X39711067Y86668322D01*
X39806305Y86573083D01*
X39853924Y86477845D01*
X39901543Y86287369D01*
X39901543Y86144512D01*
X39853924Y85954036D01*
X39806305Y85858798D01*
X39711067Y85763560D01*
X39568210Y85715941D01*
X39330115Y85715941D01*
X40853924Y85715941D02*
X40282496Y85715941D01*
X40568210Y85715941D02*
X40568210Y86715941D01*
X40472972Y86573083D01*
X40377734Y86477845D01*
X40282496Y86430226D01*
X41187258Y86715941D02*
X41806305Y86715941D01*
X41472972Y86334988D01*
X41615829Y86334988D01*
X41711067Y86287369D01*
X41758686Y86239750D01*
X41806305Y86144512D01*
X41806305Y85906417D01*
X41758686Y85811179D01*
X41711067Y85763560D01*
X41615829Y85715941D01*
X41330115Y85715941D01*
X41234877Y85763560D01*
X41187258Y85811179D01*
%TO.C,D14*%
X20483315Y85817541D02*
X20483315Y86817541D01*
X20721410Y86817541D01*
X20864267Y86769922D01*
X20959505Y86674683D01*
X21007124Y86579445D01*
X21054743Y86388969D01*
X21054743Y86246112D01*
X21007124Y86055636D01*
X20959505Y85960398D01*
X20864267Y85865160D01*
X20721410Y85817541D01*
X20483315Y85817541D01*
X22007124Y85817541D02*
X21435696Y85817541D01*
X21721410Y85817541D02*
X21721410Y86817541D01*
X21626172Y86674683D01*
X21530934Y86579445D01*
X21435696Y86531826D01*
X22864267Y86484207D02*
X22864267Y85817541D01*
X22626172Y86865160D02*
X22388077Y86150874D01*
X23007124Y86150874D01*
%TO.C,R38*%
X69390943Y85233341D02*
X69057610Y85709531D01*
X68819515Y85233341D02*
X68819515Y86233341D01*
X69200467Y86233341D01*
X69295705Y86185722D01*
X69343324Y86138102D01*
X69390943Y86042864D01*
X69390943Y85900007D01*
X69343324Y85804769D01*
X69295705Y85757150D01*
X69200467Y85709531D01*
X68819515Y85709531D01*
X69724277Y86233341D02*
X70343324Y86233341D01*
X70009991Y85852388D01*
X70152848Y85852388D01*
X70248086Y85804769D01*
X70295705Y85757150D01*
X70343324Y85661912D01*
X70343324Y85423817D01*
X70295705Y85328579D01*
X70248086Y85280960D01*
X70152848Y85233341D01*
X69867134Y85233341D01*
X69771896Y85280960D01*
X69724277Y85328579D01*
X70914753Y85804769D02*
X70819515Y85852388D01*
X70771896Y85900007D01*
X70724277Y85995245D01*
X70724277Y86042864D01*
X70771896Y86138102D01*
X70819515Y86185722D01*
X70914753Y86233341D01*
X71105229Y86233341D01*
X71200467Y86185722D01*
X71248086Y86138102D01*
X71295705Y86042864D01*
X71295705Y85995245D01*
X71248086Y85900007D01*
X71200467Y85852388D01*
X71105229Y85804769D01*
X70914753Y85804769D01*
X70819515Y85757150D01*
X70771896Y85709531D01*
X70724277Y85614293D01*
X70724277Y85423817D01*
X70771896Y85328579D01*
X70819515Y85280960D01*
X70914753Y85233341D01*
X71105229Y85233341D01*
X71200467Y85280960D01*
X71248086Y85328579D01*
X71295705Y85423817D01*
X71295705Y85614293D01*
X71248086Y85709531D01*
X71200467Y85757150D01*
X71105229Y85804769D01*
%TO.C,R39*%
X50340943Y84953941D02*
X50007610Y85430131D01*
X49769515Y84953941D02*
X49769515Y85953941D01*
X50150467Y85953941D01*
X50245705Y85906322D01*
X50293324Y85858702D01*
X50340943Y85763464D01*
X50340943Y85620607D01*
X50293324Y85525369D01*
X50245705Y85477750D01*
X50150467Y85430131D01*
X49769515Y85430131D01*
X50674277Y85953941D02*
X51293324Y85953941D01*
X50959991Y85572988D01*
X51102848Y85572988D01*
X51198086Y85525369D01*
X51245705Y85477750D01*
X51293324Y85382512D01*
X51293324Y85144417D01*
X51245705Y85049179D01*
X51198086Y85001560D01*
X51102848Y84953941D01*
X50817134Y84953941D01*
X50721896Y85001560D01*
X50674277Y85049179D01*
X51769515Y84953941D02*
X51959991Y84953941D01*
X52055229Y85001560D01*
X52102848Y85049179D01*
X52198086Y85192036D01*
X52245705Y85382512D01*
X52245705Y85763464D01*
X52198086Y85858702D01*
X52150467Y85906322D01*
X52055229Y85953941D01*
X51864753Y85953941D01*
X51769515Y85906322D01*
X51721896Y85858702D01*
X51674277Y85763464D01*
X51674277Y85525369D01*
X51721896Y85430131D01*
X51769515Y85382512D01*
X51864753Y85334893D01*
X52055229Y85334893D01*
X52150467Y85382512D01*
X52198086Y85430131D01*
X52245705Y85525369D01*
%TO.C,R40*%
X31570343Y85004741D02*
X31237010Y85480931D01*
X30998915Y85004741D02*
X30998915Y86004741D01*
X31379867Y86004741D01*
X31475105Y85957122D01*
X31522724Y85909502D01*
X31570343Y85814264D01*
X31570343Y85671407D01*
X31522724Y85576169D01*
X31475105Y85528550D01*
X31379867Y85480931D01*
X30998915Y85480931D01*
X32427486Y85671407D02*
X32427486Y85004741D01*
X32189391Y86052360D02*
X31951296Y85338074D01*
X32570343Y85338074D01*
X33141772Y86004741D02*
X33237010Y86004741D01*
X33332248Y85957122D01*
X33379867Y85909502D01*
X33427486Y85814264D01*
X33475105Y85623788D01*
X33475105Y85385693D01*
X33427486Y85195217D01*
X33379867Y85099979D01*
X33332248Y85052360D01*
X33237010Y85004741D01*
X33141772Y85004741D01*
X33046534Y85052360D01*
X32998915Y85099979D01*
X32951296Y85195217D01*
X32903677Y85385693D01*
X32903677Y85623788D01*
X32951296Y85814264D01*
X32998915Y85909502D01*
X33046534Y85957122D01*
X33141772Y86004741D01*
%TO.C,R41*%
X11504343Y84496741D02*
X11171010Y84972931D01*
X10932915Y84496741D02*
X10932915Y85496741D01*
X11313867Y85496741D01*
X11409105Y85449122D01*
X11456724Y85401502D01*
X11504343Y85306264D01*
X11504343Y85163407D01*
X11456724Y85068169D01*
X11409105Y85020550D01*
X11313867Y84972931D01*
X10932915Y84972931D01*
X12361486Y85163407D02*
X12361486Y84496741D01*
X12123391Y85544360D02*
X11885296Y84830074D01*
X12504343Y84830074D01*
X13409105Y84496741D02*
X12837677Y84496741D01*
X13123391Y84496741D02*
X13123391Y85496741D01*
X13028153Y85353883D01*
X12932915Y85258645D01*
X12837677Y85211026D01*
%TO.C,F1*%
X73518372Y65946788D02*
X73518372Y65613455D01*
X74042181Y65613455D02*
X73042181Y65613455D01*
X73042181Y66089645D01*
X74042181Y66994407D02*
X74042181Y66422979D01*
X74042181Y66708693D02*
X73042181Y66708693D01*
X73185039Y66613455D01*
X73280277Y66518217D01*
X73327896Y66422979D01*
%TO.C,F2*%
X54341372Y65946788D02*
X54341372Y65613455D01*
X54865181Y65613455D02*
X53865181Y65613455D01*
X53865181Y66089645D01*
X53960420Y66422979D02*
X53912800Y66470598D01*
X53865181Y66565836D01*
X53865181Y66803931D01*
X53912800Y66899169D01*
X53960420Y66946788D01*
X54055658Y66994407D01*
X54150896Y66994407D01*
X54293753Y66946788D01*
X54865181Y66375360D01*
X54865181Y66994407D01*
%TO.C,F3*%
X35672372Y66073788D02*
X35672372Y65740455D01*
X36196181Y65740455D02*
X35196181Y65740455D01*
X35196181Y66216645D01*
X35196181Y66502360D02*
X35196181Y67121407D01*
X35577134Y66788074D01*
X35577134Y66930931D01*
X35624753Y67026169D01*
X35672372Y67073788D01*
X35767610Y67121407D01*
X36005705Y67121407D01*
X36100943Y67073788D01*
X36148562Y67026169D01*
X36196181Y66930931D01*
X36196181Y66645217D01*
X36148562Y66549979D01*
X36100943Y66502360D01*
%TO.C,F4*%
X15606372Y65565788D02*
X15606372Y65232455D01*
X16130181Y65232455D02*
X15130181Y65232455D01*
X15130181Y65708645D01*
X15463515Y66518169D02*
X16130181Y66518169D01*
X15082562Y66280074D02*
X15796848Y66041979D01*
X15796848Y66661026D01*
%TO.C,Q20*%
X10507620Y90372093D02*
X10460000Y90276855D01*
X10364762Y90181617D01*
X10221905Y90038760D01*
X10174286Y89943522D01*
X10174286Y89848283D01*
X10412381Y89895902D02*
X10364762Y89800664D01*
X10269524Y89705426D01*
X10079048Y89657807D01*
X9745715Y89657807D01*
X9555239Y89705426D01*
X9460000Y89800664D01*
X9412381Y89895902D01*
X9412381Y90086379D01*
X9460000Y90181617D01*
X9555239Y90276855D01*
X9745715Y90324474D01*
X10079048Y90324474D01*
X10269524Y90276855D01*
X10364762Y90181617D01*
X10412381Y90086379D01*
X10412381Y89895902D01*
X9507620Y90705426D02*
X9460000Y90753045D01*
X9412381Y90848283D01*
X9412381Y91086379D01*
X9460000Y91181617D01*
X9507620Y91229236D01*
X9602858Y91276855D01*
X9698096Y91276855D01*
X9840953Y91229236D01*
X10412381Y90657807D01*
X10412381Y91276855D01*
X9412381Y91895902D02*
X9412381Y91991141D01*
X9460000Y92086379D01*
X9507620Y92133998D01*
X9602858Y92181617D01*
X9793334Y92229236D01*
X10031429Y92229236D01*
X10221905Y92181617D01*
X10317143Y92133998D01*
X10364762Y92086379D01*
X10412381Y91991141D01*
X10412381Y91895902D01*
X10364762Y91800664D01*
X10317143Y91753045D01*
X10221905Y91705426D01*
X10031429Y91657807D01*
X9793334Y91657807D01*
X9602858Y91705426D01*
X9507620Y91753045D01*
X9460000Y91800664D01*
X9412381Y91895902D01*
%TO.C,J8*%
X57229067Y95631341D02*
X57229067Y94917055D01*
X57181448Y94774198D01*
X57086210Y94678960D01*
X56943353Y94631341D01*
X56848115Y94631341D01*
X57848115Y95202769D02*
X57752877Y95250388D01*
X57705258Y95298007D01*
X57657639Y95393245D01*
X57657639Y95440864D01*
X57705258Y95536102D01*
X57752877Y95583722D01*
X57848115Y95631341D01*
X58038591Y95631341D01*
X58133829Y95583722D01*
X58181448Y95536102D01*
X58229067Y95440864D01*
X58229067Y95393245D01*
X58181448Y95298007D01*
X58133829Y95250388D01*
X58038591Y95202769D01*
X57848115Y95202769D01*
X57752877Y95155150D01*
X57705258Y95107531D01*
X57657639Y95012293D01*
X57657639Y94821817D01*
X57705258Y94726579D01*
X57752877Y94678960D01*
X57848115Y94631341D01*
X58038591Y94631341D01*
X58133829Y94678960D01*
X58181448Y94726579D01*
X58229067Y94821817D01*
X58229067Y95012293D01*
X58181448Y95107531D01*
X58133829Y95155150D01*
X58038591Y95202769D01*
%TO.C,R4*%
X33097381Y31975855D02*
X32621191Y31642522D01*
X33097381Y31404426D02*
X32097381Y31404426D01*
X32097381Y31785379D01*
X32145000Y31880617D01*
X32192620Y31928236D01*
X32287858Y31975855D01*
X32430715Y31975855D01*
X32525953Y31928236D01*
X32573572Y31880617D01*
X32621191Y31785379D01*
X32621191Y31404426D01*
X32430715Y32832998D02*
X33097381Y32832998D01*
X32049762Y32594902D02*
X32764048Y32356807D01*
X32764048Y32975855D01*
%TO.C,C1*%
X74007334Y27594379D02*
X73959715Y27546760D01*
X73816858Y27499141D01*
X73721620Y27499141D01*
X73578762Y27546760D01*
X73483524Y27641998D01*
X73435905Y27737236D01*
X73388286Y27927712D01*
X73388286Y28070569D01*
X73435905Y28261045D01*
X73483524Y28356283D01*
X73578762Y28451522D01*
X73721620Y28499141D01*
X73816858Y28499141D01*
X73959715Y28451522D01*
X74007334Y28403902D01*
X74959715Y27499141D02*
X74388286Y27499141D01*
X74674000Y27499141D02*
X74674000Y28499141D01*
X74578762Y28356283D01*
X74483524Y28261045D01*
X74388286Y28213426D01*
%TO.C,C2*%
X46880134Y15199179D02*
X46832515Y15151560D01*
X46689658Y15103941D01*
X46594420Y15103941D01*
X46451562Y15151560D01*
X46356324Y15246798D01*
X46308705Y15342036D01*
X46261086Y15532512D01*
X46261086Y15675369D01*
X46308705Y15865845D01*
X46356324Y15961083D01*
X46451562Y16056322D01*
X46594420Y16103941D01*
X46689658Y16103941D01*
X46832515Y16056322D01*
X46880134Y16008702D01*
X47261086Y16008702D02*
X47308705Y16056322D01*
X47403943Y16103941D01*
X47642039Y16103941D01*
X47737277Y16056322D01*
X47784896Y16008702D01*
X47832515Y15913464D01*
X47832515Y15818226D01*
X47784896Y15675369D01*
X47213467Y15103941D01*
X47832515Y15103941D01*
%TO.C,C3*%
X38717143Y35506455D02*
X38764762Y35458836D01*
X38812381Y35315979D01*
X38812381Y35220741D01*
X38764762Y35077883D01*
X38669524Y34982645D01*
X38574286Y34935026D01*
X38383810Y34887407D01*
X38240953Y34887407D01*
X38050477Y34935026D01*
X37955239Y34982645D01*
X37860000Y35077883D01*
X37812381Y35220741D01*
X37812381Y35315979D01*
X37860000Y35458836D01*
X37907620Y35506455D01*
X37812381Y35839788D02*
X37812381Y36458836D01*
X38193334Y36125502D01*
X38193334Y36268360D01*
X38240953Y36363598D01*
X38288572Y36411217D01*
X38383810Y36458836D01*
X38621905Y36458836D01*
X38717143Y36411217D01*
X38764762Y36363598D01*
X38812381Y36268360D01*
X38812381Y35982645D01*
X38764762Y35887407D01*
X38717143Y35839788D01*
%TO.C,C4*%
X74007334Y29880379D02*
X73959715Y29832760D01*
X73816858Y29785141D01*
X73721620Y29785141D01*
X73578762Y29832760D01*
X73483524Y29927998D01*
X73435905Y30023236D01*
X73388286Y30213712D01*
X73388286Y30356569D01*
X73435905Y30547045D01*
X73483524Y30642283D01*
X73578762Y30737522D01*
X73721620Y30785141D01*
X73816858Y30785141D01*
X73959715Y30737522D01*
X74007334Y30689902D01*
X74864477Y30451807D02*
X74864477Y29785141D01*
X74626381Y30832760D02*
X74388286Y30118474D01*
X75007334Y30118474D01*
%TO.C,C5*%
X73397734Y10855779D02*
X73350115Y10808160D01*
X73207258Y10760541D01*
X73112020Y10760541D01*
X72969162Y10808160D01*
X72873924Y10903398D01*
X72826305Y10998636D01*
X72778686Y11189112D01*
X72778686Y11331969D01*
X72826305Y11522445D01*
X72873924Y11617683D01*
X72969162Y11712922D01*
X73112020Y11760541D01*
X73207258Y11760541D01*
X73350115Y11712922D01*
X73397734Y11665302D01*
X74302496Y11760541D02*
X73826305Y11760541D01*
X73778686Y11284350D01*
X73826305Y11331969D01*
X73921543Y11379588D01*
X74159639Y11379588D01*
X74254877Y11331969D01*
X74302496Y11284350D01*
X74350115Y11189112D01*
X74350115Y10951017D01*
X74302496Y10855779D01*
X74254877Y10808160D01*
X74159639Y10760541D01*
X73921543Y10760541D01*
X73826305Y10808160D01*
X73778686Y10855779D01*
%TO.C,C6*%
X39047343Y15618255D02*
X39094962Y15570636D01*
X39142581Y15427779D01*
X39142581Y15332541D01*
X39094962Y15189683D01*
X38999724Y15094445D01*
X38904486Y15046826D01*
X38714010Y14999207D01*
X38571153Y14999207D01*
X38380677Y15046826D01*
X38285439Y15094445D01*
X38190200Y15189683D01*
X38142581Y15332541D01*
X38142581Y15427779D01*
X38190200Y15570636D01*
X38237820Y15618255D01*
X38142581Y16475398D02*
X38142581Y16284922D01*
X38190200Y16189683D01*
X38237820Y16142064D01*
X38380677Y16046826D01*
X38571153Y15999207D01*
X38952105Y15999207D01*
X39047343Y16046826D01*
X39094962Y16094445D01*
X39142581Y16189683D01*
X39142581Y16380160D01*
X39094962Y16475398D01*
X39047343Y16523017D01*
X38952105Y16570636D01*
X38714010Y16570636D01*
X38618772Y16523017D01*
X38571153Y16475398D01*
X38523534Y16380160D01*
X38523534Y16189683D01*
X38571153Y16094445D01*
X38618772Y16046826D01*
X38714010Y15999207D01*
%TO.C,C8*%
X41317534Y36763779D02*
X41269915Y36716160D01*
X41127058Y36668541D01*
X41031820Y36668541D01*
X40888962Y36716160D01*
X40793724Y36811398D01*
X40746105Y36906636D01*
X40698486Y37097112D01*
X40698486Y37239969D01*
X40746105Y37430445D01*
X40793724Y37525683D01*
X40888962Y37620922D01*
X41031820Y37668541D01*
X41127058Y37668541D01*
X41269915Y37620922D01*
X41317534Y37573302D01*
X41888962Y37239969D02*
X41793724Y37287588D01*
X41746105Y37335207D01*
X41698486Y37430445D01*
X41698486Y37478064D01*
X41746105Y37573302D01*
X41793724Y37620922D01*
X41888962Y37668541D01*
X42079439Y37668541D01*
X42174677Y37620922D01*
X42222296Y37573302D01*
X42269915Y37478064D01*
X42269915Y37430445D01*
X42222296Y37335207D01*
X42174677Y37287588D01*
X42079439Y37239969D01*
X41888962Y37239969D01*
X41793724Y37192350D01*
X41746105Y37144731D01*
X41698486Y37049493D01*
X41698486Y36859017D01*
X41746105Y36763779D01*
X41793724Y36716160D01*
X41888962Y36668541D01*
X42079439Y36668541D01*
X42174677Y36716160D01*
X42222296Y36763779D01*
X42269915Y36859017D01*
X42269915Y37049493D01*
X42222296Y37144731D01*
X42174677Y37192350D01*
X42079439Y37239969D01*
%TO.C,C17*%
X9040543Y3159579D02*
X8992924Y3111960D01*
X8850067Y3064341D01*
X8754829Y3064341D01*
X8611972Y3111960D01*
X8516734Y3207198D01*
X8469115Y3302436D01*
X8421496Y3492912D01*
X8421496Y3635769D01*
X8469115Y3826245D01*
X8516734Y3921483D01*
X8611972Y4016722D01*
X8754829Y4064341D01*
X8850067Y4064341D01*
X8992924Y4016722D01*
X9040543Y3969102D01*
X9992924Y3064341D02*
X9421496Y3064341D01*
X9707210Y3064341D02*
X9707210Y4064341D01*
X9611972Y3921483D01*
X9516734Y3826245D01*
X9421496Y3778626D01*
X10326258Y4064341D02*
X10992924Y4064341D01*
X10564353Y3064341D01*
%TO.C,C18*%
X1269715Y16743807D02*
X1231620Y16705712D01*
X1117334Y16667617D01*
X1041143Y16667617D01*
X926858Y16705712D01*
X850667Y16781902D01*
X812572Y16858093D01*
X774477Y17010474D01*
X774477Y17124760D01*
X812572Y17277141D01*
X850667Y17353331D01*
X926858Y17429522D01*
X1041143Y17467617D01*
X1117334Y17467617D01*
X1231620Y17429522D01*
X1269715Y17391426D01*
X2031620Y16667617D02*
X1574477Y16667617D01*
X1803048Y16667617D02*
X1803048Y17467617D01*
X1726858Y17353331D01*
X1650667Y17277141D01*
X1574477Y17239045D01*
X2488762Y17124760D02*
X2412572Y17162855D01*
X2374477Y17200950D01*
X2336381Y17277141D01*
X2336381Y17315236D01*
X2374477Y17391426D01*
X2412572Y17429522D01*
X2488762Y17467617D01*
X2641143Y17467617D01*
X2717334Y17429522D01*
X2755429Y17391426D01*
X2793524Y17315236D01*
X2793524Y17277141D01*
X2755429Y17200950D01*
X2717334Y17162855D01*
X2641143Y17124760D01*
X2488762Y17124760D01*
X2412572Y17086664D01*
X2374477Y17048569D01*
X2336381Y16972379D01*
X2336381Y16819998D01*
X2374477Y16743807D01*
X2412572Y16705712D01*
X2488762Y16667617D01*
X2641143Y16667617D01*
X2717334Y16705712D01*
X2755429Y16743807D01*
X2793524Y16819998D01*
X2793524Y16972379D01*
X2755429Y17048569D01*
X2717334Y17086664D01*
X2641143Y17124760D01*
%TO.C,C19*%
X9270715Y15296007D02*
X9232620Y15257912D01*
X9118334Y15219817D01*
X9042143Y15219817D01*
X8927858Y15257912D01*
X8851667Y15334102D01*
X8813572Y15410293D01*
X8775477Y15562674D01*
X8775477Y15676960D01*
X8813572Y15829341D01*
X8851667Y15905531D01*
X8927858Y15981722D01*
X9042143Y16019817D01*
X9118334Y16019817D01*
X9232620Y15981722D01*
X9270715Y15943626D01*
X10032620Y15219817D02*
X9575477Y15219817D01*
X9804048Y15219817D02*
X9804048Y16019817D01*
X9727858Y15905531D01*
X9651667Y15829341D01*
X9575477Y15791245D01*
X10413572Y15219817D02*
X10565953Y15219817D01*
X10642143Y15257912D01*
X10680239Y15296007D01*
X10756429Y15410293D01*
X10794524Y15562674D01*
X10794524Y15867436D01*
X10756429Y15943626D01*
X10718334Y15981722D01*
X10642143Y16019817D01*
X10489762Y16019817D01*
X10413572Y15981722D01*
X10375477Y15943626D01*
X10337381Y15867436D01*
X10337381Y15676960D01*
X10375477Y15600769D01*
X10413572Y15562674D01*
X10489762Y15524579D01*
X10642143Y15524579D01*
X10718334Y15562674D01*
X10756429Y15600769D01*
X10794524Y15676960D01*
%TO.C,C20*%
X10832715Y17251836D02*
X10870810Y17213741D01*
X10908905Y17099455D01*
X10908905Y17023264D01*
X10870810Y16908979D01*
X10794620Y16832788D01*
X10718429Y16794693D01*
X10566048Y16756598D01*
X10451762Y16756598D01*
X10299381Y16794693D01*
X10223191Y16832788D01*
X10147000Y16908979D01*
X10108905Y17023264D01*
X10108905Y17099455D01*
X10147000Y17213741D01*
X10185096Y17251836D01*
X10185096Y17556598D02*
X10147000Y17594693D01*
X10108905Y17670883D01*
X10108905Y17861360D01*
X10147000Y17937550D01*
X10185096Y17975645D01*
X10261286Y18013741D01*
X10337477Y18013741D01*
X10451762Y17975645D01*
X10908905Y17518502D01*
X10908905Y18013741D01*
X10108905Y18508979D02*
X10108905Y18585169D01*
X10147000Y18661360D01*
X10185096Y18699455D01*
X10261286Y18737550D01*
X10413667Y18775645D01*
X10604143Y18775645D01*
X10756524Y18737550D01*
X10832715Y18699455D01*
X10870810Y18661360D01*
X10908905Y18585169D01*
X10908905Y18508979D01*
X10870810Y18432788D01*
X10832715Y18394693D01*
X10756524Y18356598D01*
X10604143Y18318502D01*
X10413667Y18318502D01*
X10261286Y18356598D01*
X10185096Y18394693D01*
X10147000Y18432788D01*
X10108905Y18508979D01*
%TO.C,J2*%
X87240780Y35085788D02*
X87955066Y35085788D01*
X88097923Y35038169D01*
X88193161Y34942931D01*
X88240780Y34800074D01*
X88240780Y34704836D01*
X87336019Y35514360D02*
X87288400Y35561979D01*
X87240780Y35657217D01*
X87240780Y35895312D01*
X87288400Y35990550D01*
X87336019Y36038169D01*
X87431257Y36085788D01*
X87526495Y36085788D01*
X87669352Y36038169D01*
X88240780Y35466741D01*
X88240780Y36085788D01*
%TO.C,J3*%
X87240780Y13267188D02*
X87955066Y13267188D01*
X88097923Y13219569D01*
X88193161Y13124331D01*
X88240780Y12981474D01*
X88240780Y12886236D01*
X87240780Y13648141D02*
X87240780Y14267188D01*
X87621733Y13933855D01*
X87621733Y14076712D01*
X87669352Y14171950D01*
X87716971Y14219569D01*
X87812209Y14267188D01*
X88050304Y14267188D01*
X88145542Y14219569D01*
X88193161Y14171950D01*
X88240780Y14076712D01*
X88240780Y13790998D01*
X88193161Y13695760D01*
X88145542Y13648141D01*
%TO.C,J5*%
X20500667Y94843941D02*
X20500667Y94129655D01*
X20453048Y93986798D01*
X20357810Y93891560D01*
X20214953Y93843941D01*
X20119715Y93843941D01*
X21453048Y94843941D02*
X20976858Y94843941D01*
X20929239Y94367750D01*
X20976858Y94415369D01*
X21072096Y94462988D01*
X21310191Y94462988D01*
X21405429Y94415369D01*
X21453048Y94367750D01*
X21500667Y94272512D01*
X21500667Y94034417D01*
X21453048Y93939179D01*
X21405429Y93891560D01*
X21310191Y93843941D01*
X21072096Y93843941D01*
X20976858Y93891560D01*
X20929239Y93939179D01*
%TO.C,J6*%
X1337981Y9177788D02*
X2052267Y9177788D01*
X2195124Y9130169D01*
X2290362Y9034931D01*
X2337981Y8892074D01*
X2337981Y8796836D01*
X1337981Y10082550D02*
X1337981Y9892074D01*
X1385600Y9796836D01*
X1433220Y9749217D01*
X1576077Y9653979D01*
X1766553Y9606360D01*
X2147505Y9606360D01*
X2242743Y9653979D01*
X2290362Y9701598D01*
X2337981Y9796836D01*
X2337981Y9987312D01*
X2290362Y10082550D01*
X2242743Y10130169D01*
X2147505Y10177788D01*
X1909410Y10177788D01*
X1814172Y10130169D01*
X1766553Y10082550D01*
X1718934Y9987312D01*
X1718934Y9796836D01*
X1766553Y9701598D01*
X1814172Y9653979D01*
X1909410Y9606360D01*
%TO.C,J7*%
X38610867Y95631341D02*
X38610867Y94917055D01*
X38563248Y94774198D01*
X38468010Y94678960D01*
X38325153Y94631341D01*
X38229915Y94631341D01*
X38991820Y95631341D02*
X39658486Y95631341D01*
X39229915Y94631341D01*
%TO.C,Q9*%
X66133620Y91610283D02*
X66086000Y91515045D01*
X65990762Y91419807D01*
X65847905Y91276950D01*
X65800286Y91181712D01*
X65800286Y91086474D01*
X66038381Y91134093D02*
X65990762Y91038855D01*
X65895524Y90943617D01*
X65705048Y90895998D01*
X65371715Y90895998D01*
X65181239Y90943617D01*
X65086000Y91038855D01*
X65038381Y91134093D01*
X65038381Y91324569D01*
X65086000Y91419807D01*
X65181239Y91515045D01*
X65371715Y91562664D01*
X65705048Y91562664D01*
X65895524Y91515045D01*
X65990762Y91419807D01*
X66038381Y91324569D01*
X66038381Y91134093D01*
X66038381Y92038855D02*
X66038381Y92229331D01*
X65990762Y92324569D01*
X65943143Y92372188D01*
X65800286Y92467426D01*
X65609810Y92515045D01*
X65228858Y92515045D01*
X65133620Y92467426D01*
X65086000Y92419807D01*
X65038381Y92324569D01*
X65038381Y92134093D01*
X65086000Y92038855D01*
X65133620Y91991236D01*
X65228858Y91943617D01*
X65466953Y91943617D01*
X65562191Y91991236D01*
X65609810Y92038855D01*
X65657429Y92134093D01*
X65657429Y92324569D01*
X65609810Y92419807D01*
X65562191Y92467426D01*
X65466953Y92515045D01*
%TO.C,Q10*%
X47083620Y90880093D02*
X47036000Y90784855D01*
X46940762Y90689617D01*
X46797905Y90546760D01*
X46750286Y90451522D01*
X46750286Y90356283D01*
X46988381Y90403902D02*
X46940762Y90308664D01*
X46845524Y90213426D01*
X46655048Y90165807D01*
X46321715Y90165807D01*
X46131239Y90213426D01*
X46036000Y90308664D01*
X45988381Y90403902D01*
X45988381Y90594379D01*
X46036000Y90689617D01*
X46131239Y90784855D01*
X46321715Y90832474D01*
X46655048Y90832474D01*
X46845524Y90784855D01*
X46940762Y90689617D01*
X46988381Y90594379D01*
X46988381Y90403902D01*
X46988381Y91784855D02*
X46988381Y91213426D01*
X46988381Y91499141D02*
X45988381Y91499141D01*
X46131239Y91403902D01*
X46226477Y91308664D01*
X46274096Y91213426D01*
X45988381Y92403902D02*
X45988381Y92499141D01*
X46036000Y92594379D01*
X46083620Y92641998D01*
X46178858Y92689617D01*
X46369334Y92737236D01*
X46607429Y92737236D01*
X46797905Y92689617D01*
X46893143Y92641998D01*
X46940762Y92594379D01*
X46988381Y92499141D01*
X46988381Y92403902D01*
X46940762Y92308664D01*
X46893143Y92261045D01*
X46797905Y92213426D01*
X46607429Y92165807D01*
X46369334Y92165807D01*
X46178858Y92213426D01*
X46083620Y92261045D01*
X46036000Y92308664D01*
X45988381Y92403902D01*
%TO.C,Q19*%
X28795620Y90880093D02*
X28748000Y90784855D01*
X28652762Y90689617D01*
X28509905Y90546760D01*
X28462286Y90451522D01*
X28462286Y90356283D01*
X28700381Y90403902D02*
X28652762Y90308664D01*
X28557524Y90213426D01*
X28367048Y90165807D01*
X28033715Y90165807D01*
X27843239Y90213426D01*
X27748000Y90308664D01*
X27700381Y90403902D01*
X27700381Y90594379D01*
X27748000Y90689617D01*
X27843239Y90784855D01*
X28033715Y90832474D01*
X28367048Y90832474D01*
X28557524Y90784855D01*
X28652762Y90689617D01*
X28700381Y90594379D01*
X28700381Y90403902D01*
X28700381Y91784855D02*
X28700381Y91213426D01*
X28700381Y91499141D02*
X27700381Y91499141D01*
X27843239Y91403902D01*
X27938477Y91308664D01*
X27986096Y91213426D01*
X28700381Y92261045D02*
X28700381Y92451522D01*
X28652762Y92546760D01*
X28605143Y92594379D01*
X28462286Y92689617D01*
X28271810Y92737236D01*
X27890858Y92737236D01*
X27795620Y92689617D01*
X27748000Y92641998D01*
X27700381Y92546760D01*
X27700381Y92356283D01*
X27748000Y92261045D01*
X27795620Y92213426D01*
X27890858Y92165807D01*
X28128953Y92165807D01*
X28224191Y92213426D01*
X28271810Y92261045D01*
X28319429Y92356283D01*
X28319429Y92546760D01*
X28271810Y92641998D01*
X28224191Y92689617D01*
X28128953Y92737236D01*
%TO.C,R1*%
X73905734Y35881141D02*
X73572400Y36357331D01*
X73334305Y35881141D02*
X73334305Y36881141D01*
X73715258Y36881141D01*
X73810496Y36833522D01*
X73858115Y36785902D01*
X73905734Y36690664D01*
X73905734Y36547807D01*
X73858115Y36452569D01*
X73810496Y36404950D01*
X73715258Y36357331D01*
X73334305Y36357331D01*
X74858115Y35881141D02*
X74286686Y35881141D01*
X74572400Y35881141D02*
X74572400Y36881141D01*
X74477162Y36738283D01*
X74381924Y36643045D01*
X74286686Y36595426D01*
%TO.C,R2*%
X12040781Y44929855D02*
X11564591Y44596522D01*
X12040781Y44358426D02*
X11040781Y44358426D01*
X11040781Y44739379D01*
X11088400Y44834617D01*
X11136020Y44882236D01*
X11231258Y44929855D01*
X11374115Y44929855D01*
X11469353Y44882236D01*
X11516972Y44834617D01*
X11564591Y44739379D01*
X11564591Y44358426D01*
X11136020Y45310807D02*
X11088400Y45358426D01*
X11040781Y45453664D01*
X11040781Y45691760D01*
X11088400Y45786998D01*
X11136020Y45834617D01*
X11231258Y45882236D01*
X11326496Y45882236D01*
X11469353Y45834617D01*
X12040781Y45263188D01*
X12040781Y45882236D01*
%TO.C,R5*%
X9486505Y17531188D02*
X9105553Y17264522D01*
X9486505Y17074045D02*
X8686505Y17074045D01*
X8686505Y17378807D01*
X8724600Y17454998D01*
X8762696Y17493093D01*
X8838886Y17531188D01*
X8953172Y17531188D01*
X9029362Y17493093D01*
X9067458Y17454998D01*
X9105553Y17378807D01*
X9105553Y17074045D01*
X8686505Y18254998D02*
X8686505Y17874045D01*
X9067458Y17835950D01*
X9029362Y17874045D01*
X8991267Y17950236D01*
X8991267Y18140712D01*
X9029362Y18216902D01*
X9067458Y18254998D01*
X9143648Y18293093D01*
X9334124Y18293093D01*
X9410315Y18254998D01*
X9448410Y18216902D01*
X9486505Y18140712D01*
X9486505Y17950236D01*
X9448410Y17874045D01*
X9410315Y17835950D01*
%TO.C,R6*%
X17543134Y44313941D02*
X17209800Y44790131D01*
X16971705Y44313941D02*
X16971705Y45313941D01*
X17352658Y45313941D01*
X17447896Y45266322D01*
X17495515Y45218702D01*
X17543134Y45123464D01*
X17543134Y44980607D01*
X17495515Y44885369D01*
X17447896Y44837750D01*
X17352658Y44790131D01*
X16971705Y44790131D01*
X18400277Y45313941D02*
X18209800Y45313941D01*
X18114562Y45266322D01*
X18066943Y45218702D01*
X17971705Y45075845D01*
X17924086Y44885369D01*
X17924086Y44504417D01*
X17971705Y44409179D01*
X18019324Y44361560D01*
X18114562Y44313941D01*
X18305039Y44313941D01*
X18400277Y44361560D01*
X18447896Y44409179D01*
X18495515Y44504417D01*
X18495515Y44742512D01*
X18447896Y44837750D01*
X18400277Y44885369D01*
X18305039Y44932988D01*
X18114562Y44932988D01*
X18019324Y44885369D01*
X17971705Y44837750D01*
X17924086Y44742512D01*
%TO.C,R12*%
X42543143Y28337341D02*
X42209810Y28813531D01*
X41971715Y28337341D02*
X41971715Y29337341D01*
X42352667Y29337341D01*
X42447905Y29289722D01*
X42495524Y29242102D01*
X42543143Y29146864D01*
X42543143Y29004007D01*
X42495524Y28908769D01*
X42447905Y28861150D01*
X42352667Y28813531D01*
X41971715Y28813531D01*
X43495524Y28337341D02*
X42924096Y28337341D01*
X43209810Y28337341D02*
X43209810Y29337341D01*
X43114572Y29194483D01*
X43019334Y29099245D01*
X42924096Y29051626D01*
X43876477Y29242102D02*
X43924096Y29289722D01*
X44019334Y29337341D01*
X44257429Y29337341D01*
X44352667Y29289722D01*
X44400286Y29242102D01*
X44447905Y29146864D01*
X44447905Y29051626D01*
X44400286Y28908769D01*
X43828858Y28337341D01*
X44447905Y28337341D01*
%TO.C,R24*%
X73200943Y15865941D02*
X72867610Y16342131D01*
X72629515Y15865941D02*
X72629515Y16865941D01*
X73010467Y16865941D01*
X73105705Y16818322D01*
X73153324Y16770702D01*
X73200943Y16675464D01*
X73200943Y16532607D01*
X73153324Y16437369D01*
X73105705Y16389750D01*
X73010467Y16342131D01*
X72629515Y16342131D01*
X73581896Y16770702D02*
X73629515Y16818322D01*
X73724753Y16865941D01*
X73962848Y16865941D01*
X74058086Y16818322D01*
X74105705Y16770702D01*
X74153324Y16675464D01*
X74153324Y16580226D01*
X74105705Y16437369D01*
X73534277Y15865941D01*
X74153324Y15865941D01*
X75010467Y16532607D02*
X75010467Y15865941D01*
X74772372Y16913560D02*
X74534277Y16199274D01*
X75153324Y16199274D01*
%TO.C,R25*%
X41958943Y7839541D02*
X41625610Y8315731D01*
X41387515Y7839541D02*
X41387515Y8839541D01*
X41768467Y8839541D01*
X41863705Y8791922D01*
X41911324Y8744302D01*
X41958943Y8649064D01*
X41958943Y8506207D01*
X41911324Y8410969D01*
X41863705Y8363350D01*
X41768467Y8315731D01*
X41387515Y8315731D01*
X42339896Y8744302D02*
X42387515Y8791922D01*
X42482753Y8839541D01*
X42720848Y8839541D01*
X42816086Y8791922D01*
X42863705Y8744302D01*
X42911324Y8649064D01*
X42911324Y8553826D01*
X42863705Y8410969D01*
X42292277Y7839541D01*
X42911324Y7839541D01*
X43816086Y8839541D02*
X43339896Y8839541D01*
X43292277Y8363350D01*
X43339896Y8410969D01*
X43435134Y8458588D01*
X43673229Y8458588D01*
X43768467Y8410969D01*
X43816086Y8363350D01*
X43863705Y8268112D01*
X43863705Y8030017D01*
X43816086Y7934779D01*
X43768467Y7887160D01*
X43673229Y7839541D01*
X43435134Y7839541D01*
X43339896Y7887160D01*
X43292277Y7934779D01*
%TO.C,U2*%
X67200181Y12229017D02*
X68009705Y12229017D01*
X68104943Y12276636D01*
X68152562Y12324255D01*
X68200181Y12419493D01*
X68200181Y12609969D01*
X68152562Y12705207D01*
X68104943Y12752826D01*
X68009705Y12800445D01*
X67200181Y12800445D01*
X67295420Y13229017D02*
X67247800Y13276636D01*
X67200181Y13371874D01*
X67200181Y13609969D01*
X67247800Y13705207D01*
X67295420Y13752826D01*
X67390658Y13800445D01*
X67485896Y13800445D01*
X67628753Y13752826D01*
X68200181Y13181398D01*
X68200181Y13800445D01*
%TO.C,SW1*%
X4082867Y43345560D02*
X4225724Y43297941D01*
X4463820Y43297941D01*
X4559058Y43345560D01*
X4606677Y43393179D01*
X4654296Y43488417D01*
X4654296Y43583655D01*
X4606677Y43678893D01*
X4559058Y43726512D01*
X4463820Y43774131D01*
X4273343Y43821750D01*
X4178105Y43869369D01*
X4130486Y43916988D01*
X4082867Y44012226D01*
X4082867Y44107464D01*
X4130486Y44202702D01*
X4178105Y44250322D01*
X4273343Y44297941D01*
X4511439Y44297941D01*
X4654296Y44250322D01*
X4987629Y44297941D02*
X5225724Y43297941D01*
X5416200Y44012226D01*
X5606677Y43297941D01*
X5844772Y44297941D01*
X6749534Y43297941D02*
X6178105Y43297941D01*
X6463820Y43297941D02*
X6463820Y44297941D01*
X6368581Y44155083D01*
X6273343Y44059845D01*
X6178105Y44012226D01*
%TO.C,R3*%
X33097381Y27276855D02*
X32621191Y26943522D01*
X33097381Y26705426D02*
X32097381Y26705426D01*
X32097381Y27086379D01*
X32145000Y27181617D01*
X32192620Y27229236D01*
X32287858Y27276855D01*
X32430715Y27276855D01*
X32525953Y27229236D01*
X32573572Y27181617D01*
X32621191Y27086379D01*
X32621191Y26705426D01*
X32097381Y27610188D02*
X32097381Y28229236D01*
X32478334Y27895902D01*
X32478334Y28038760D01*
X32525953Y28133998D01*
X32573572Y28181617D01*
X32668810Y28229236D01*
X32906905Y28229236D01*
X33002143Y28181617D01*
X33049762Y28133998D01*
X33097381Y28038760D01*
X33097381Y27753045D01*
X33049762Y27657807D01*
X33002143Y27610188D01*
%TO.C,A1*%
X12837040Y28534117D02*
X12837040Y29011372D01*
X13123393Y28438666D02*
X12121157Y28772744D01*
X13123393Y29106823D01*
X13123393Y29965882D02*
X13123393Y29393176D01*
X13123393Y29679529D02*
X12121157Y29679529D01*
X12264334Y29584078D01*
X12359785Y29488627D01*
X12407510Y29393176D01*
%TO.C,D1*%
X27207905Y28642141D02*
X27207905Y29642141D01*
X27446000Y29642141D01*
X27588858Y29594522D01*
X27684096Y29499283D01*
X27731715Y29404045D01*
X27779334Y29213569D01*
X27779334Y29070712D01*
X27731715Y28880236D01*
X27684096Y28784998D01*
X27588858Y28689760D01*
X27446000Y28642141D01*
X27207905Y28642141D01*
X28731715Y28642141D02*
X28160286Y28642141D01*
X28446000Y28642141D02*
X28446000Y29642141D01*
X28350762Y29499283D01*
X28255524Y29404045D01*
X28160286Y29356426D01*
%TO.C,D2*%
X27055505Y33163341D02*
X27055505Y34163341D01*
X27293600Y34163341D01*
X27436458Y34115722D01*
X27531696Y34020483D01*
X27579315Y33925245D01*
X27626934Y33734769D01*
X27626934Y33591912D01*
X27579315Y33401436D01*
X27531696Y33306198D01*
X27436458Y33210960D01*
X27293600Y33163341D01*
X27055505Y33163341D01*
X28007886Y34068102D02*
X28055505Y34115722D01*
X28150743Y34163341D01*
X28388839Y34163341D01*
X28484077Y34115722D01*
X28531696Y34068102D01*
X28579315Y33972864D01*
X28579315Y33877626D01*
X28531696Y33734769D01*
X27960267Y33163341D01*
X28579315Y33163341D01*
%TO.C,J1*%
X6163981Y72728588D02*
X6878267Y72728588D01*
X7021124Y72680969D01*
X7116362Y72585731D01*
X7163981Y72442874D01*
X7163981Y72347636D01*
X7163981Y73728588D02*
X7163981Y73157160D01*
X7163981Y73442874D02*
X6163981Y73442874D01*
X6306839Y73347636D01*
X6402077Y73252398D01*
X6449696Y73157160D01*
%TO.C,C12*%
X29544143Y49076464D02*
X29591762Y49028845D01*
X29639381Y48885988D01*
X29639381Y48790750D01*
X29591762Y48647893D01*
X29496524Y48552655D01*
X29401286Y48505036D01*
X29210810Y48457417D01*
X29067953Y48457417D01*
X28877477Y48505036D01*
X28782239Y48552655D01*
X28687000Y48647893D01*
X28639381Y48790750D01*
X28639381Y48885988D01*
X28687000Y49028845D01*
X28734620Y49076464D01*
X29639381Y50028845D02*
X29639381Y49457417D01*
X29639381Y49743131D02*
X28639381Y49743131D01*
X28782239Y49647893D01*
X28877477Y49552655D01*
X28925096Y49457417D01*
X28734620Y50409798D02*
X28687000Y50457417D01*
X28639381Y50552655D01*
X28639381Y50790750D01*
X28687000Y50885988D01*
X28734620Y50933607D01*
X28829858Y50981226D01*
X28925096Y50981226D01*
X29067953Y50933607D01*
X29639381Y50362179D01*
X29639381Y50981226D01*
%TO.C,C16*%
X3325543Y86192179D02*
X3277924Y86144560D01*
X3135067Y86096941D01*
X3039829Y86096941D01*
X2896972Y86144560D01*
X2801734Y86239798D01*
X2754115Y86335036D01*
X2706496Y86525512D01*
X2706496Y86668369D01*
X2754115Y86858845D01*
X2801734Y86954083D01*
X2896972Y87049322D01*
X3039829Y87096941D01*
X3135067Y87096941D01*
X3277924Y87049322D01*
X3325543Y87001702D01*
X4277924Y86096941D02*
X3706496Y86096941D01*
X3992210Y86096941D02*
X3992210Y87096941D01*
X3896972Y86954083D01*
X3801734Y86858845D01*
X3706496Y86811226D01*
X5135067Y87096941D02*
X4944591Y87096941D01*
X4849353Y87049322D01*
X4801734Y87001702D01*
X4706496Y86858845D01*
X4658877Y86668369D01*
X4658877Y86287417D01*
X4706496Y86192179D01*
X4754115Y86144560D01*
X4849353Y86096941D01*
X5039829Y86096941D01*
X5135067Y86144560D01*
X5182686Y86192179D01*
X5230305Y86287417D01*
X5230305Y86525512D01*
X5182686Y86620750D01*
X5135067Y86668369D01*
X5039829Y86715988D01*
X4849353Y86715988D01*
X4754115Y86668369D01*
X4706496Y86620750D01*
X4658877Y86525512D01*
%TO.C,C13*%
X49559343Y48949464D02*
X49606962Y48901845D01*
X49654581Y48758988D01*
X49654581Y48663750D01*
X49606962Y48520893D01*
X49511724Y48425655D01*
X49416486Y48378036D01*
X49226010Y48330417D01*
X49083153Y48330417D01*
X48892677Y48378036D01*
X48797439Y48425655D01*
X48702200Y48520893D01*
X48654581Y48663750D01*
X48654581Y48758988D01*
X48702200Y48901845D01*
X48749820Y48949464D01*
X49654581Y49901845D02*
X49654581Y49330417D01*
X49654581Y49616131D02*
X48654581Y49616131D01*
X48797439Y49520893D01*
X48892677Y49425655D01*
X48940296Y49330417D01*
X48654581Y50235179D02*
X48654581Y50854226D01*
X49035534Y50520893D01*
X49035534Y50663750D01*
X49083153Y50758988D01*
X49130772Y50806607D01*
X49226010Y50854226D01*
X49464105Y50854226D01*
X49559343Y50806607D01*
X49606962Y50758988D01*
X49654581Y50663750D01*
X49654581Y50378036D01*
X49606962Y50282798D01*
X49559343Y50235179D01*
%TO.C,C11*%
X68533143Y48644664D02*
X68580762Y48597045D01*
X68628381Y48454188D01*
X68628381Y48358950D01*
X68580762Y48216093D01*
X68485524Y48120855D01*
X68390286Y48073236D01*
X68199810Y48025617D01*
X68056953Y48025617D01*
X67866477Y48073236D01*
X67771239Y48120855D01*
X67676000Y48216093D01*
X67628381Y48358950D01*
X67628381Y48454188D01*
X67676000Y48597045D01*
X67723620Y48644664D01*
X68628381Y49597045D02*
X68628381Y49025617D01*
X68628381Y49311331D02*
X67628381Y49311331D01*
X67771239Y49216093D01*
X67866477Y49120855D01*
X67914096Y49025617D01*
X68628381Y50549426D02*
X68628381Y49977998D01*
X68628381Y50263712D02*
X67628381Y50263712D01*
X67771239Y50168474D01*
X67866477Y50073236D01*
X67914096Y49977998D01*
%TO.C,J10*%
X2049181Y54167598D02*
X2763467Y54167598D01*
X2906324Y54119979D01*
X3001562Y54024741D01*
X3049181Y53881883D01*
X3049181Y53786645D01*
X3049181Y55167598D02*
X3049181Y54596169D01*
X3049181Y54881883D02*
X2049181Y54881883D01*
X2192039Y54786645D01*
X2287277Y54691407D01*
X2334896Y54596169D01*
X2049181Y55786645D02*
X2049181Y55881883D01*
X2096800Y55977122D01*
X2144420Y56024741D01*
X2239658Y56072360D01*
X2430134Y56119979D01*
X2668229Y56119979D01*
X2858705Y56072360D01*
X2953943Y56024741D01*
X3001562Y55977122D01*
X3049181Y55881883D01*
X3049181Y55786645D01*
X3001562Y55691407D01*
X2953943Y55643788D01*
X2858705Y55596169D01*
X2668229Y55548550D01*
X2430134Y55548550D01*
X2239658Y55596169D01*
X2144420Y55643788D01*
X2096800Y55691407D01*
X2049181Y55786645D01*
%TO.C,J4*%
X29543067Y7417141D02*
X29543067Y6702855D01*
X29495448Y6559998D01*
X29400210Y6464760D01*
X29257353Y6417141D01*
X29162115Y6417141D01*
X30447829Y7083807D02*
X30447829Y6417141D01*
X30209734Y7464760D02*
X29971639Y6750474D01*
X30590686Y6750474D01*
D12*
%TO.C,U1*%
X68326000Y35442522D02*
X68326000Y28842522D01*
X48526000Y35442522D02*
X48526000Y28842522D01*
D13*
X67416000Y37142522D02*
G75*
G03*
X67416000Y37142522I-100000J0D01*
G01*
D11*
%TO.C,J9*%
X79584000Y90733522D02*
X80834000Y90733522D01*
X72924000Y96993522D02*
X72924000Y91023522D01*
X77234000Y91033522D02*
X77234000Y91783522D01*
X80544000Y96993522D02*
X72924000Y96993522D01*
X72924000Y91023522D02*
X80544000Y91023522D01*
X80834000Y90733522D02*
X80834000Y91983522D01*
X76234000Y91783522D02*
X76234000Y91033522D01*
X72934000Y91033522D02*
X74734000Y91033522D01*
X73684000Y93283522D02*
X73684000Y96233522D01*
X80534000Y91783522D02*
X78734000Y91783522D01*
X78734000Y91783522D02*
X78734000Y91033522D01*
X74734000Y91033522D02*
X74734000Y91783522D01*
X72934000Y91783522D02*
X72934000Y91033522D01*
X80544000Y91023522D02*
X80544000Y96993522D01*
X80534000Y91033522D02*
X80534000Y91783522D01*
X80534000Y93283522D02*
X79784000Y93283522D01*
X73684000Y96233522D02*
X76734000Y96233522D01*
X78734000Y91033522D02*
X80534000Y91033522D01*
X79784000Y93283522D02*
X79784000Y96233522D01*
X76234000Y91033522D02*
X77234000Y91033522D01*
X72934000Y93283522D02*
X73684000Y93283522D01*
X77234000Y91783522D02*
X76234000Y91783522D01*
X79784000Y96233522D02*
X76734000Y96233522D01*
X74734000Y91783522D02*
X72934000Y91783522D01*
%TO.C,C7*%
X70559948Y8039522D02*
X71082452Y8039522D01*
X70559948Y9509522D02*
X71082452Y9509522D01*
%TO.C,D11*%
X76354000Y86318022D02*
X76354000Y89203022D01*
X74534000Y89203022D02*
X74534000Y86318022D01*
X74534000Y86318022D02*
X76354000Y86318022D01*
%TO.C,D12*%
X55230000Y88895522D02*
X55230000Y86010522D01*
X57050000Y86010522D02*
X57050000Y88895522D01*
X55230000Y86010522D02*
X57050000Y86010522D01*
%TO.C,D13*%
X39016000Y86264522D02*
X39016000Y89149522D01*
X37196000Y89149522D02*
X37196000Y86264522D01*
X37196000Y86264522D02*
X39016000Y86264522D01*
%TO.C,D14*%
X18400000Y85756522D02*
X20220000Y85756522D01*
X20220000Y85756522D02*
X20220000Y88641522D01*
X18400000Y88641522D02*
X18400000Y85756522D01*
%TO.C,R38*%
X73893000Y87922458D02*
X73893000Y88376586D01*
X72423000Y87922458D02*
X72423000Y88376586D01*
%TO.C,R39*%
X53373000Y87668458D02*
X53373000Y88122586D01*
X54843000Y87668458D02*
X54843000Y88122586D01*
%TO.C,R40*%
X35339000Y87922458D02*
X35339000Y88376586D01*
X36809000Y87922458D02*
X36809000Y88376586D01*
%TO.C,R41*%
X16543000Y87414458D02*
X16543000Y87868586D01*
X18013000Y87414458D02*
X18013000Y87868586D01*
%TO.C,F1*%
X84664200Y85838122D02*
X84611000Y47788922D01*
X71611000Y47788922D02*
X71659400Y85863522D01*
X78111000Y47788922D02*
X71611000Y47788922D01*
X78161800Y85838122D02*
X84664200Y85838122D01*
X78161800Y85838122D02*
X71659400Y85863522D01*
X78136400Y47788922D02*
X84611000Y47788922D01*
X81111000Y66813522D02*
G75*
G03*
X81111000Y66813522I-3000000J0D01*
G01*
%TO.C,F2*%
X58959400Y47788922D02*
X65434000Y47788922D01*
X58984800Y85838122D02*
X52482400Y85863522D01*
X58984800Y85838122D02*
X65487200Y85838122D01*
X52434000Y47788922D02*
X52482400Y85863522D01*
X58934000Y47788922D02*
X52434000Y47788922D01*
X65487200Y85838122D02*
X65434000Y47788922D01*
X61934000Y66813522D02*
G75*
G03*
X61934000Y66813522I-3000000J0D01*
G01*
%TO.C,F3*%
X40315800Y85965122D02*
X46818200Y85965122D01*
X40290400Y47915922D02*
X46765000Y47915922D01*
X33765000Y47915922D02*
X33813400Y85990522D01*
X40315800Y85965122D02*
X33813400Y85990522D01*
X46818200Y85965122D02*
X46765000Y47915922D01*
X40265000Y47915922D02*
X33765000Y47915922D01*
X43265000Y66940522D02*
G75*
G03*
X43265000Y66940522I-3000000J0D01*
G01*
%TO.C,F4*%
X13699000Y47407922D02*
X13747400Y85482522D01*
X20249800Y85457122D02*
X26752200Y85457122D01*
X26752200Y85457122D02*
X26699000Y47407922D01*
X20224400Y47407922D02*
X26699000Y47407922D01*
X20199000Y47407922D02*
X13699000Y47407922D01*
X20249800Y85457122D02*
X13747400Y85482522D01*
X23199000Y66432522D02*
G75*
G03*
X23199000Y66432522I-3000000J0D01*
G01*
%TO.C,Q20*%
X10960000Y89093522D02*
X12470000Y89093522D01*
X10960000Y85823522D02*
X10960000Y96063522D01*
X10960000Y85823522D02*
X15601000Y85823522D01*
X10960000Y96063522D02*
X15601000Y96063522D01*
X15601000Y85823522D02*
X15601000Y96063522D01*
X12470000Y85823522D02*
X12470000Y96063522D01*
X10960000Y92794522D02*
X12470000Y92794522D01*
%TO.C,J8*%
X58184000Y90779522D02*
X58184000Y91529522D01*
X57184000Y91529522D02*
X57184000Y90779522D01*
X58184000Y91529522D02*
X57184000Y91529522D01*
X61784000Y90479522D02*
X61784000Y91729522D01*
X61484000Y93029522D02*
X60734000Y93029522D01*
X57184000Y90779522D02*
X58184000Y90779522D01*
X55684000Y91529522D02*
X53884000Y91529522D01*
X53874000Y90769522D02*
X61494000Y90769522D01*
X59684000Y90779522D02*
X61484000Y90779522D01*
X61494000Y90769522D02*
X61494000Y96739522D01*
X61484000Y90779522D02*
X61484000Y91529522D01*
X53884000Y91529522D02*
X53884000Y90779522D01*
X55684000Y90779522D02*
X55684000Y91529522D01*
X59684000Y91529522D02*
X59684000Y90779522D01*
X54634000Y93029522D02*
X54634000Y95979522D01*
X53874000Y96739522D02*
X53874000Y90769522D01*
X53884000Y93029522D02*
X54634000Y93029522D01*
X60734000Y93029522D02*
X60734000Y95979522D01*
X60734000Y95979522D02*
X57684000Y95979522D01*
X53884000Y90779522D02*
X55684000Y90779522D01*
X60534000Y90479522D02*
X61784000Y90479522D01*
X54634000Y95979522D02*
X57684000Y95979522D01*
X61494000Y96739522D02*
X53874000Y96739522D01*
X61484000Y91529522D02*
X59684000Y91529522D01*
%TO.C,R4*%
X31602000Y32779058D02*
X31602000Y33233186D01*
X30132000Y32779058D02*
X30132000Y33233186D01*
%TO.C,C1*%
X70382148Y28838922D02*
X70904652Y28838922D01*
X70382148Y27368922D02*
X70904652Y27368922D01*
%TO.C,C2*%
X43873200Y12933322D02*
X42277200Y12933322D01*
X47363200Y12693322D02*
X45953200Y12693322D01*
X43873200Y13733322D02*
X41866200Y13733322D01*
X47603200Y13013322D02*
X45953200Y13013322D01*
X47974200Y13773322D02*
X45953200Y13773322D01*
X48023200Y13933322D02*
X45953200Y13933322D01*
X47987200Y13813322D02*
X45953200Y13813322D01*
X43873200Y13293322D02*
X42057200Y13293322D01*
X48143200Y14814322D02*
X41683200Y14814322D01*
X47005200Y12333322D02*
X42821200Y12333322D01*
X48054200Y14053322D02*
X45953200Y14053322D01*
X43873200Y13933322D02*
X41803200Y13933322D01*
X43873200Y13853322D02*
X41827200Y13853322D01*
X43873200Y13453322D02*
X41979200Y13453322D01*
X47095200Y12413322D02*
X42731200Y12413322D01*
X47809200Y13373322D02*
X45953200Y13373322D01*
X43873200Y12653322D02*
X42497200Y12653322D01*
X43873200Y14414322D02*
X41707200Y14414322D01*
X46175200Y11813322D02*
X43651200Y11813322D01*
X47549200Y12933322D02*
X45953200Y12933322D01*
X43873200Y12613322D02*
X42533200Y12613322D01*
X46263200Y11853322D02*
X43563200Y11853322D01*
X43873200Y13693322D02*
X41880200Y13693322D01*
X47899200Y13573322D02*
X45953200Y13573322D01*
X47655200Y13093322D02*
X45953200Y13093322D01*
X43873200Y14334322D02*
X41718200Y14334322D01*
X43873200Y12773322D02*
X42397200Y12773322D01*
X43873200Y14374322D02*
X41712200Y14374322D01*
X47703200Y13173322D02*
X45953200Y13173322D01*
X47293200Y12613322D02*
X45953200Y12613322D01*
X43873200Y13373322D02*
X42017200Y13373322D01*
X43873200Y14454322D02*
X41702200Y14454322D01*
X43873200Y13773322D02*
X41852200Y13773322D01*
X47256200Y12573322D02*
X45953200Y12573322D01*
X46908200Y12253322D02*
X42918200Y12253322D01*
X45715200Y11653322D02*
X44111200Y11653322D01*
X47829200Y13413322D02*
X45953200Y13413322D01*
X43873200Y14534322D02*
X41695200Y14534322D01*
X47178200Y12493322D02*
X42648200Y12493322D01*
X46803200Y12173322D02*
X43023200Y12173322D01*
X48140200Y14654322D02*
X41686200Y14654322D01*
X43873200Y14053322D02*
X41772200Y14053322D01*
X43873200Y13013322D02*
X42223200Y13013322D01*
X43873200Y13653322D02*
X41895200Y13653322D01*
X43873200Y14574322D02*
X41691200Y14574322D01*
X48102200Y14294322D02*
X45953200Y14294322D01*
X48095200Y14254322D02*
X45953200Y14254322D01*
X47629200Y13053322D02*
X45953200Y13053322D01*
X48143200Y14774322D02*
X41683200Y14774322D01*
X43873200Y14174322D02*
X41746200Y14174322D01*
X47429200Y12773322D02*
X45953200Y12773322D01*
X47461200Y12813322D02*
X45953200Y12813322D01*
X43873200Y13213322D02*
X42101200Y13213322D01*
X47218200Y12533322D02*
X45953200Y12533322D01*
X43873200Y13133322D02*
X42147200Y13133322D01*
X43873200Y14494322D02*
X41698200Y14494322D01*
X43873200Y13533322D02*
X41943200Y13533322D01*
X43873200Y14134322D02*
X41754200Y14134322D01*
X47329200Y12653322D02*
X45953200Y12653322D01*
X47883200Y13533322D02*
X45953200Y13533322D01*
X48072200Y14134322D02*
X45953200Y14134322D01*
X43873200Y13973322D02*
X41792200Y13973322D01*
X43873200Y14093322D02*
X41763200Y14093322D01*
X48124200Y14454322D02*
X45953200Y14454322D01*
X43873200Y12573322D02*
X42570200Y12573322D01*
X48137200Y14614322D02*
X41689200Y14614322D01*
X47847200Y13453322D02*
X45953200Y13453322D01*
X43873200Y13093322D02*
X42171200Y13093322D01*
X47050200Y12373322D02*
X42776200Y12373322D01*
X47865200Y13493322D02*
X45953200Y13493322D01*
X46857200Y12213322D02*
X42969200Y12213322D01*
X43873200Y13053322D02*
X42197200Y13053322D01*
X47747200Y13253322D02*
X45953200Y13253322D01*
X48034200Y13973322D02*
X45953200Y13973322D01*
X47679200Y13133322D02*
X45953200Y13133322D01*
X48108200Y14334322D02*
X45953200Y14334322D01*
X45853200Y11693322D02*
X43973200Y11693322D01*
X43873200Y12533322D02*
X42608200Y12533322D01*
X47397200Y12733322D02*
X45953200Y12733322D01*
X46957200Y12293322D02*
X42869200Y12293322D01*
X43873200Y13493322D02*
X41961200Y13493322D01*
X47769200Y13293322D02*
X45953200Y13293322D01*
X47999200Y13853322D02*
X45953200Y13853322D01*
X47931200Y13653322D02*
X45953200Y13653322D01*
X43873200Y13333322D02*
X42037200Y13333322D01*
X43873200Y12893322D02*
X42306200Y12893322D01*
X43873200Y13613322D02*
X41911200Y13613322D01*
X43873200Y12853322D02*
X42335200Y12853322D01*
X46752200Y18314563D02*
X46752200Y17684563D01*
X47946200Y13693322D02*
X45953200Y13693322D01*
X43873200Y14254322D02*
X41731200Y14254322D01*
X47137200Y12453322D02*
X42689200Y12453322D01*
X48088200Y14214322D02*
X45953200Y14214322D01*
X47915200Y13613322D02*
X45953200Y13613322D01*
X43873200Y14294322D02*
X41724200Y14294322D01*
X46494200Y11973322D02*
X43332200Y11973322D01*
X48063200Y14093322D02*
X45953200Y14093322D01*
X43873200Y13173322D02*
X42123200Y13173322D01*
X43873200Y12813322D02*
X42365200Y12813322D01*
X46689200Y12093322D02*
X43137200Y12093322D01*
X43873200Y12733322D02*
X42429200Y12733322D01*
X47789200Y13333322D02*
X45953200Y13333322D01*
X47725200Y13213322D02*
X45953200Y13213322D01*
X47491200Y12853322D02*
X45953200Y12853322D01*
X48141200Y14694322D02*
X41685200Y14694322D01*
X43873200Y13413322D02*
X41997200Y13413322D01*
X43873200Y12693322D02*
X42463200Y12693322D01*
X43873200Y14214322D02*
X41738200Y14214322D01*
X45972200Y11733322D02*
X43854200Y11733322D01*
X43873200Y13893322D02*
X41815200Y13893322D01*
X46422200Y11933322D02*
X43404200Y11933322D01*
X46345200Y11893322D02*
X43481200Y11893322D01*
X45315200Y11573322D02*
X44511200Y11573322D01*
X47577200Y12973322D02*
X45953200Y12973322D01*
X48119200Y14414322D02*
X45953200Y14414322D01*
X48011200Y13893322D02*
X45953200Y13893322D01*
X47067200Y17999563D02*
X46437200Y17999563D01*
X43873200Y13253322D02*
X42079200Y13253322D01*
X46078200Y11773322D02*
X43748200Y11773322D01*
X47960200Y13733322D02*
X45953200Y13733322D01*
X46563200Y12013322D02*
X43263200Y12013322D01*
X48114200Y14374322D02*
X45953200Y14374322D01*
X46747200Y12133322D02*
X43079200Y12133322D01*
X45546200Y11613322D02*
X44280200Y11613322D01*
X48135200Y14574322D02*
X45953200Y14574322D01*
X43873200Y13573322D02*
X41927200Y13573322D01*
X46627200Y12053322D02*
X43199200Y12053322D01*
X48128200Y14494322D02*
X45953200Y14494322D01*
X47520200Y12893322D02*
X45953200Y12893322D01*
X48131200Y14534322D02*
X45953200Y14534322D01*
X48080200Y14174322D02*
X45953200Y14174322D01*
X43873200Y12973322D02*
X42249200Y12973322D01*
X48143200Y14734322D02*
X41683200Y14734322D01*
X48044200Y14013322D02*
X45953200Y14013322D01*
X43873200Y14013322D02*
X41782200Y14013322D01*
X43873200Y13813322D02*
X41839200Y13813322D01*
X48183200Y14814322D02*
G75*
G03*
X48183200Y14814322I-3270000J0D01*
G01*
%TO.C,C3*%
X40720600Y34816774D02*
X40720600Y34294270D01*
X39250600Y34816774D02*
X39250600Y34294270D01*
%TO.C,C4*%
X70382148Y29477122D02*
X70904652Y29477122D01*
X70382148Y30947122D02*
X70904652Y30947122D01*
%TO.C,C5*%
X70559948Y10071522D02*
X71082452Y10071522D01*
X70559948Y11541522D02*
X71082452Y11541522D01*
%TO.C,C6*%
X41101600Y16249374D02*
X41101600Y15726870D01*
X39631600Y16249374D02*
X39631600Y15726870D01*
%TO.C,C8*%
X47719800Y32979522D02*
X45673800Y32979522D01*
X43593800Y32099522D02*
X41969800Y32099522D01*
X43593800Y32059522D02*
X41997800Y32059522D01*
X43593800Y33260522D02*
X41474800Y33260522D01*
X43593800Y32739522D02*
X41631800Y32739522D01*
X43593800Y33700522D02*
X41411800Y33700522D01*
X47013800Y31739522D02*
X45673800Y31739522D01*
X46976800Y31699522D02*
X45673800Y31699522D01*
X43593800Y33460522D02*
X41438800Y33460522D01*
X47844800Y33580522D02*
X45673800Y33580522D01*
X45895800Y30939522D02*
X43371800Y30939522D01*
X47211800Y31979522D02*
X45673800Y31979522D01*
X47822800Y33420522D02*
X45673800Y33420522D01*
X43593800Y33580522D02*
X41422800Y33580522D01*
X47861800Y33820522D02*
X41405800Y33820522D01*
X46523800Y31299522D02*
X42743800Y31299522D01*
X43593800Y32539522D02*
X41717800Y32539522D01*
X43593800Y32339522D02*
X41821800Y32339522D01*
X43593800Y32459522D02*
X41757800Y32459522D01*
X47774800Y33179522D02*
X45673800Y33179522D01*
X47349800Y32179522D02*
X45673800Y32179522D01*
X46725800Y31459522D02*
X42541800Y31459522D01*
X47635800Y32739522D02*
X45673800Y32739522D01*
X43593800Y31779522D02*
X42217800Y31779522D01*
X46898800Y31619522D02*
X42368800Y31619522D01*
X47489800Y32419522D02*
X45673800Y32419522D01*
X47731800Y33019522D02*
X45673800Y33019522D01*
X43593800Y31979522D02*
X42055800Y31979522D01*
X43593800Y31939522D02*
X42085800Y31939522D01*
X43593800Y33620522D02*
X41418800Y33620522D01*
X45435800Y30779522D02*
X43831800Y30779522D01*
X47707800Y32939522D02*
X45673800Y32939522D01*
X43593800Y31699522D02*
X42290800Y31699522D01*
X46857800Y31579522D02*
X42409800Y31579522D01*
X47467800Y32379522D02*
X45673800Y32379522D01*
X43593800Y32019522D02*
X42026800Y32019522D01*
X47857800Y33740522D02*
X41409800Y33740522D01*
X47619800Y32699522D02*
X45673800Y32699522D01*
X43593800Y32779522D02*
X41615800Y32779522D01*
X47509800Y32459522D02*
X45673800Y32459522D01*
X47549800Y32539522D02*
X45673800Y32539522D01*
X43593800Y32139522D02*
X41943800Y32139522D01*
X43593800Y32499522D02*
X41737800Y32499522D01*
X43593800Y32619522D02*
X41681800Y32619522D01*
X43593800Y32659522D02*
X41663800Y32659522D01*
X45266800Y30739522D02*
X44000800Y30739522D01*
X43593800Y31659522D02*
X42328800Y31659522D01*
X43593800Y32259522D02*
X41867800Y32259522D01*
X43593800Y33420522D02*
X41444800Y33420522D01*
X47754800Y33099522D02*
X45673800Y33099522D01*
X43593800Y32379522D02*
X41799800Y32379522D01*
X46472800Y37440763D02*
X46472800Y36810763D01*
X43593800Y32699522D02*
X41647800Y32699522D01*
X47855800Y33700522D02*
X45673800Y33700522D01*
X43593800Y33179522D02*
X41492800Y33179522D01*
X43593800Y33340522D02*
X41458800Y33340522D01*
X47445800Y32339522D02*
X45673800Y32339522D01*
X46815800Y31539522D02*
X42451800Y31539522D01*
X47863800Y33860522D02*
X41403800Y33860522D01*
X47743800Y33059522D02*
X45673800Y33059522D01*
X47375800Y32219522D02*
X45673800Y32219522D01*
X47863800Y33940522D02*
X41403800Y33940522D01*
X46467800Y31259522D02*
X42799800Y31259522D01*
X43593800Y33099522D02*
X41512800Y33099522D01*
X47297800Y32099522D02*
X45673800Y32099522D01*
X43593800Y33540522D02*
X41427800Y33540522D01*
X46577800Y31339522D02*
X42689800Y31339522D01*
X45983800Y30979522D02*
X43283800Y30979522D01*
X43593800Y32299522D02*
X41843800Y32299522D01*
X46142800Y31059522D02*
X43124800Y31059522D01*
X43593800Y32939522D02*
X41559800Y32939522D01*
X47323800Y32139522D02*
X45673800Y32139522D01*
X43593800Y32819522D02*
X41600800Y32819522D01*
X47181800Y31939522D02*
X45673800Y31939522D01*
X47848800Y33620522D02*
X45673800Y33620522D01*
X46770800Y31499522D02*
X42496800Y31499522D01*
X46677800Y31419522D02*
X42589800Y31419522D01*
X43593800Y32979522D02*
X41547800Y32979522D01*
X47585800Y32619522D02*
X45673800Y32619522D01*
X47269800Y32059522D02*
X45673800Y32059522D01*
X43593800Y33300522D02*
X41466800Y33300522D01*
X47828800Y33460522D02*
X45673800Y33460522D01*
X45692800Y30859522D02*
X43574800Y30859522D01*
X47651800Y32779522D02*
X45673800Y32779522D01*
X43593800Y33219522D02*
X41483800Y33219522D01*
X43593800Y32579522D02*
X41699800Y32579522D01*
X47423800Y32299522D02*
X45673800Y32299522D01*
X47815800Y33380522D02*
X45673800Y33380522D01*
X43593800Y32179522D02*
X41917800Y32179522D01*
X46347800Y31179522D02*
X42919800Y31179522D01*
X47783800Y33219522D02*
X45673800Y33219522D01*
X46409800Y31219522D02*
X42857800Y31219522D01*
X43593800Y31739522D02*
X42253800Y31739522D01*
X47666800Y32819522D02*
X45673800Y32819522D01*
X47863800Y33900522D02*
X41403800Y33900522D01*
X47800800Y33300522D02*
X45673800Y33300522D01*
X47764800Y33139522D02*
X45673800Y33139522D01*
X47149800Y31899522D02*
X45673800Y31899522D01*
X43593800Y31899522D02*
X42117800Y31899522D01*
X45573800Y30819522D02*
X43693800Y30819522D01*
X43593800Y32419522D02*
X41777800Y32419522D01*
X43593800Y32899522D02*
X41572800Y32899522D01*
X43593800Y32219522D02*
X41891800Y32219522D01*
X47694800Y32899522D02*
X45673800Y32899522D01*
X45035800Y30699522D02*
X44231800Y30699522D01*
X46787800Y37125763D02*
X46157800Y37125763D01*
X43593800Y31859522D02*
X42149800Y31859522D01*
X47240800Y32019522D02*
X45673800Y32019522D01*
X47529800Y32499522D02*
X45673800Y32499522D01*
X43593800Y33019522D02*
X41535800Y33019522D01*
X43593800Y31819522D02*
X42183800Y31819522D01*
X47049800Y31779522D02*
X45673800Y31779522D01*
X47603800Y32659522D02*
X45673800Y32659522D01*
X47083800Y31819522D02*
X45673800Y31819522D01*
X46628800Y31379522D02*
X42638800Y31379522D01*
X46283800Y31139522D02*
X42983800Y31139522D01*
X47792800Y33260522D02*
X45673800Y33260522D01*
X46214800Y31099522D02*
X43052800Y31099522D01*
X47567800Y32579522D02*
X45673800Y32579522D01*
X45798800Y30899522D02*
X43468800Y30899522D01*
X47808800Y33340522D02*
X45673800Y33340522D01*
X43593800Y33500522D02*
X41432800Y33500522D01*
X47834800Y33500522D02*
X45673800Y33500522D01*
X47860800Y33780522D02*
X41406800Y33780522D01*
X43593800Y33139522D02*
X41502800Y33139522D01*
X46065800Y31019522D02*
X43201800Y31019522D01*
X47839800Y33540522D02*
X45673800Y33540522D01*
X43593800Y33059522D02*
X41523800Y33059522D01*
X47117800Y31859522D02*
X45673800Y31859522D01*
X47399800Y32259522D02*
X45673800Y32259522D01*
X43593800Y32859522D02*
X41586800Y32859522D01*
X43593800Y33660522D02*
X41415800Y33660522D01*
X47680800Y32859522D02*
X45673800Y32859522D01*
X47851800Y33660522D02*
X45673800Y33660522D01*
X43593800Y33380522D02*
X41451800Y33380522D01*
X46938800Y31659522D02*
X45673800Y31659522D01*
X47903800Y33940522D02*
G75*
G03*
X47903800Y33940522I-3270000J0D01*
G01*
%TO.C,C17*%
X8431548Y6080522D02*
X8954052Y6080522D01*
X8431548Y4610522D02*
X8954052Y4610522D01*
%TO.C,C18*%
X274000Y19664522D02*
X274000Y15279522D01*
X3294000Y15279522D02*
X3294000Y19664522D01*
X3294000Y19664522D02*
X274000Y19664522D01*
%TO.C,C19*%
X5485148Y16113522D02*
X6007652Y16113522D01*
X5485148Y14643522D02*
X6007652Y14643522D01*
%TO.C,C20*%
X7599000Y18038270D02*
X7599000Y18560774D01*
X6129000Y18038270D02*
X6129000Y18560774D01*
%TO.C,J2*%
X92418000Y42231522D02*
X91168000Y42231522D01*
X89868000Y30081522D02*
X86918000Y30081522D01*
X89868000Y41181522D02*
X86918000Y41181522D01*
X92118000Y31131522D02*
X91368000Y31131522D01*
X89868000Y29331522D02*
X89868000Y30081522D01*
X92128000Y41941522D02*
X86158000Y41941522D01*
X92118000Y41931522D02*
X91368000Y41931522D01*
X86158000Y29321522D02*
X92128000Y29321522D01*
X91368000Y38631522D02*
X91368000Y32631522D01*
X86918000Y30081522D02*
X86918000Y35631522D01*
X91368000Y40131522D02*
X92118000Y40131522D01*
X91368000Y41931522D02*
X91368000Y40131522D01*
X92128000Y29321522D02*
X92128000Y41941522D01*
X86918000Y41181522D02*
X86918000Y35631522D01*
X91368000Y29331522D02*
X92118000Y29331522D01*
X92118000Y32631522D02*
X92118000Y38631522D01*
X92418000Y40981522D02*
X92418000Y42231522D01*
X89868000Y41931522D02*
X89868000Y41181522D01*
X91368000Y31131522D02*
X91368000Y29331522D01*
X92118000Y29331522D02*
X92118000Y31131522D01*
X86158000Y41941522D02*
X86158000Y29321522D01*
X92118000Y40131522D02*
X92118000Y41931522D01*
X92118000Y38631522D02*
X91368000Y38631522D01*
X91368000Y32631522D02*
X92118000Y32631522D01*
%TO.C,J3*%
X89868000Y8237522D02*
X86918000Y8237522D01*
X92418000Y20387522D02*
X91168000Y20387522D01*
X92128000Y20097522D02*
X86158000Y20097522D01*
X89868000Y19337522D02*
X86918000Y19337522D01*
X91368000Y9287522D02*
X91368000Y7487522D01*
X91368000Y20087522D02*
X91368000Y18287522D01*
X91368000Y18287522D02*
X92118000Y18287522D01*
X91368000Y16787522D02*
X91368000Y10787522D01*
X91368000Y10787522D02*
X92118000Y10787522D01*
X92128000Y7477522D02*
X92128000Y20097522D01*
X92118000Y20087522D02*
X91368000Y20087522D01*
X91368000Y7487522D02*
X92118000Y7487522D01*
X92118000Y16787522D02*
X91368000Y16787522D01*
X86158000Y20097522D02*
X86158000Y7477522D01*
X86158000Y7477522D02*
X92128000Y7477522D01*
X89868000Y7487522D02*
X89868000Y8237522D01*
X86918000Y19337522D02*
X86918000Y13787522D01*
X92418000Y19137522D02*
X92418000Y20387522D01*
X89868000Y20087522D02*
X89868000Y19337522D01*
X92118000Y10787522D02*
X92118000Y16787522D01*
X86918000Y8237522D02*
X86918000Y13787522D01*
X92118000Y18287522D02*
X92118000Y20087522D01*
X92118000Y7487522D02*
X92118000Y9287522D01*
X92118000Y9287522D02*
X91368000Y9287522D01*
%TO.C,J5*%
X24954000Y89717522D02*
X24954000Y90967522D01*
X23704000Y89717522D02*
X24954000Y89717522D01*
X24664000Y95977522D02*
X17044000Y95977522D01*
X18854000Y90767522D02*
X17054000Y90767522D01*
X24664000Y90007522D02*
X24664000Y95977522D01*
X20354000Y90767522D02*
X20354000Y90017522D01*
X22854000Y90767522D02*
X22854000Y90017522D01*
X17044000Y90007522D02*
X24664000Y90007522D01*
X20354000Y90017522D02*
X21354000Y90017522D01*
X17804000Y95217522D02*
X20854000Y95217522D01*
X24654000Y90017522D02*
X24654000Y90767522D01*
X17044000Y95977522D02*
X17044000Y90007522D01*
X17054000Y90017522D02*
X18854000Y90017522D01*
X17054000Y90767522D02*
X17054000Y90017522D01*
X17804000Y92267522D02*
X17804000Y95217522D01*
X21354000Y90767522D02*
X20354000Y90767522D01*
X24654000Y90767522D02*
X22854000Y90767522D01*
X22854000Y90017522D02*
X24654000Y90017522D01*
X21354000Y90017522D02*
X21354000Y90767522D01*
X17054000Y92267522D02*
X17804000Y92267522D01*
X23904000Y95217522D02*
X20854000Y95217522D01*
X23904000Y92267522D02*
X23904000Y95217522D01*
X18854000Y90017522D02*
X18854000Y90767522D01*
X24654000Y92267522D02*
X23904000Y92267522D01*
%TO.C,J6*%
X5093000Y5299522D02*
X5093000Y6349522D01*
X5093000Y13519522D02*
X5093000Y12469522D01*
X2593000Y5299522D02*
X5093000Y5299522D01*
X2593000Y13519522D02*
X5093000Y13519522D01*
X5093000Y12469522D02*
X6083000Y12469522D01*
X623000Y12349522D02*
X623000Y6469522D01*
%TO.C,J7*%
X42942000Y90779522D02*
X42942000Y91529522D01*
X35332000Y90769522D02*
X42952000Y90769522D01*
X42942000Y93029522D02*
X42192000Y93029522D01*
X35342000Y93029522D02*
X36092000Y93029522D01*
X42952000Y96739522D02*
X35332000Y96739522D01*
X39642000Y90779522D02*
X39642000Y91529522D01*
X38642000Y90779522D02*
X39642000Y90779522D01*
X35342000Y91529522D02*
X35342000Y90779522D01*
X36092000Y95979522D02*
X39142000Y95979522D01*
X41992000Y90479522D02*
X43242000Y90479522D01*
X41142000Y91529522D02*
X41142000Y90779522D01*
X35332000Y96739522D02*
X35332000Y90769522D01*
X35342000Y90779522D02*
X37142000Y90779522D01*
X39642000Y91529522D02*
X38642000Y91529522D01*
X38642000Y91529522D02*
X38642000Y90779522D01*
X42952000Y90769522D02*
X42952000Y96739522D01*
X42942000Y91529522D02*
X41142000Y91529522D01*
X37142000Y90779522D02*
X37142000Y91529522D01*
X41142000Y90779522D02*
X42942000Y90779522D01*
X36092000Y93029522D02*
X36092000Y95979522D01*
X42192000Y95979522D02*
X39142000Y95979522D01*
X42192000Y93029522D02*
X42192000Y95979522D01*
X43242000Y90479522D02*
X43242000Y91729522D01*
X37142000Y91529522D02*
X35342000Y91529522D01*
%TO.C,Q9*%
X66586000Y96825522D02*
X71227000Y96825522D01*
X66586000Y86585522D02*
X66586000Y96825522D01*
X66586000Y89855522D02*
X68096000Y89855522D01*
X71227000Y86585522D02*
X71227000Y96825522D01*
X66586000Y86585522D02*
X71227000Y86585522D01*
X68096000Y86585522D02*
X68096000Y96825522D01*
X66586000Y93556522D02*
X68096000Y93556522D01*
%TO.C,Q10*%
X47536000Y86331522D02*
X47536000Y96571522D01*
X47536000Y86331522D02*
X52177000Y86331522D01*
X47536000Y93302522D02*
X49046000Y93302522D01*
X49046000Y86331522D02*
X49046000Y96571522D01*
X47536000Y96571522D02*
X52177000Y96571522D01*
X52177000Y86331522D02*
X52177000Y96571522D01*
X47536000Y89601522D02*
X49046000Y89601522D01*
%TO.C,Q19*%
X29248000Y89601522D02*
X30758000Y89601522D01*
X29248000Y86331522D02*
X29248000Y96571522D01*
X29248000Y96571522D02*
X33889000Y96571522D01*
X33889000Y86331522D02*
X33889000Y96571522D01*
X29248000Y93302522D02*
X30758000Y93302522D01*
X30758000Y86331522D02*
X30758000Y96571522D01*
X29248000Y86331522D02*
X33889000Y86331522D01*
%TO.C,R1*%
X70768864Y35293722D02*
X70314736Y35293722D01*
X70768864Y36763722D02*
X70314736Y36763722D01*
%TO.C,R2*%
X12374200Y42402586D02*
X12374200Y41948458D01*
X10904200Y42402586D02*
X10904200Y41948458D01*
%TO.C,R5*%
X4097000Y18072458D02*
X4097000Y18526586D01*
X5567000Y18072458D02*
X5567000Y18526586D01*
%TO.C,R6*%
X18394000Y42513586D02*
X18394000Y42059458D01*
X16924000Y42513586D02*
X16924000Y42059458D01*
%TO.C,R12*%
X46108536Y28762722D02*
X46562664Y28762722D01*
X46108536Y27292722D02*
X46562664Y27292722D01*
%TO.C,R24*%
X70921264Y16269122D02*
X70467136Y16269122D01*
X70921264Y17739122D02*
X70467136Y17739122D01*
%TO.C,R25*%
X46235536Y8014122D02*
X46689664Y8014122D01*
X46235536Y9484122D02*
X46689664Y9484122D01*
D12*
%TO.C,U2*%
X68503800Y16240122D02*
X68503800Y9640122D01*
X48703800Y16240122D02*
X48703800Y9640122D01*
D13*
X67593800Y17940122D02*
G75*
G03*
X67593800Y17940122I-100000J0D01*
G01*
D11*
%TO.C,SW1*%
X2440000Y40449522D02*
X8240000Y40449522D01*
X10440000Y41399522D02*
X10440000Y40399522D01*
X2240000Y42399522D02*
X2240000Y44999522D01*
X8440000Y42399522D02*
X8440000Y44999522D01*
X10440000Y40399522D02*
X9440000Y40399522D01*
X2340000Y46949522D02*
X8340000Y46949522D01*
%TO.C,R3*%
X30182800Y26781586D02*
X30182800Y26327458D01*
X31652800Y26781586D02*
X31652800Y26327458D01*
D12*
%TO.C,A1*%
X25104000Y39237522D02*
X24904000Y39237522D01*
X-6296000Y39237522D02*
X454000Y39237522D01*
X454000Y21237522D02*
X-6296000Y21237522D01*
X-6296000Y21237522D02*
X-6296000Y39237522D01*
X24954000Y21237522D02*
X25104000Y21237522D01*
X25104000Y21237522D02*
X25104000Y39237522D01*
D14*
X1124000Y20137522D02*
G75*
G03*
X1124000Y20137522I-120000J0D01*
G01*
D11*
%TO.C,D1*%
X29704000Y28404322D02*
X26819000Y28404322D01*
X29704000Y26584322D02*
X29704000Y28404322D01*
X26819000Y26584322D02*
X29704000Y26584322D01*
%TO.C,D2*%
X26742800Y31105522D02*
X29627800Y31105522D01*
X29627800Y31105522D02*
X29627800Y32925522D01*
X29627800Y32925522D02*
X26742800Y32925522D01*
%TO.C,J1*%
X285400Y78472122D02*
X285400Y68312122D01*
X7905400Y68312122D02*
X7905400Y78472122D01*
X285400Y68312122D02*
X7905400Y68312122D01*
X7905400Y78472122D02*
X285400Y78472122D01*
X1555400Y68312122D02*
X1555400Y78472122D01*
%TO.C,C12*%
X31602000Y49458070D02*
X31602000Y49980574D01*
X30132000Y49458070D02*
X30132000Y49980574D01*
%TO.C,C16*%
X4983000Y84066322D02*
X6755000Y84066322D01*
X4983000Y83346322D02*
X7053000Y83346322D01*
X2778000Y85506322D02*
X5108000Y85506322D01*
X1109000Y84026322D02*
X2903000Y84026322D01*
X4983000Y82985322D02*
X7132000Y82985322D01*
X4983000Y84386322D02*
X6550000Y84386322D01*
X1201000Y84186322D02*
X2903000Y84186322D01*
X1365000Y84426322D02*
X2903000Y84426322D01*
X1279000Y84306322D02*
X2903000Y84306322D01*
X4983000Y83546322D02*
X6990000Y83546322D01*
X2593000Y85426322D02*
X5293000Y85426322D01*
X1806000Y84906322D02*
X6080000Y84906322D01*
X4983000Y84026322D02*
X6777000Y84026322D01*
X1789000Y79280081D02*
X2419000Y79280081D01*
X728000Y82785322D02*
X2903000Y82785322D01*
X941000Y83666322D02*
X2903000Y83666322D01*
X4983000Y83266322D02*
X7074000Y83266322D01*
X3310000Y85666322D02*
X4576000Y85666322D01*
X4983000Y84146322D02*
X6709000Y84146322D01*
X1087000Y83986322D02*
X2903000Y83986322D01*
X748000Y82945322D02*
X2903000Y82945322D01*
X1427000Y84506322D02*
X2903000Y84506322D01*
X4983000Y83226322D02*
X7084000Y83226322D01*
X925000Y83626322D02*
X2903000Y83626322D01*
X715000Y82585322D02*
X7171000Y82585322D01*
X4983000Y83105322D02*
X7110000Y83105322D01*
X1307000Y84346322D02*
X2903000Y84346322D01*
X754000Y82985322D02*
X2903000Y82985322D01*
X4983000Y83786322D02*
X6895000Y83786322D01*
X1253000Y84266322D02*
X2903000Y84266322D01*
X713000Y82545322D02*
X7173000Y82545322D01*
X4983000Y83186322D02*
X7093000Y83186322D01*
X793000Y83186322D02*
X2903000Y83186322D01*
X3141000Y85626322D02*
X4745000Y85626322D01*
X4983000Y83946322D02*
X6819000Y83946322D01*
X4983000Y82865322D02*
X7149000Y82865322D01*
X896000Y83546322D02*
X2903000Y83546322D01*
X2229000Y85226322D02*
X5657000Y85226322D01*
X2434000Y85346322D02*
X5452000Y85346322D01*
X4983000Y84746322D02*
X6248000Y84746322D01*
X4983000Y83866322D02*
X6859000Y83866322D01*
X768000Y83065322D02*
X2903000Y83065322D01*
X869000Y83466322D02*
X2903000Y83466322D01*
X1600000Y84706322D02*
X2903000Y84706322D01*
X776000Y83105322D02*
X2903000Y83105322D01*
X4983000Y82785322D02*
X7158000Y82785322D01*
X1153000Y84106322D02*
X2903000Y84106322D01*
X4983000Y83466322D02*
X7017000Y83466322D01*
X1395000Y84466322D02*
X2903000Y84466322D01*
X4983000Y84586322D02*
X6393000Y84586322D01*
X1761000Y84866322D02*
X6125000Y84866322D01*
X1047000Y83906322D02*
X2903000Y83906322D01*
X4983000Y84266322D02*
X6633000Y84266322D01*
X4983000Y84186322D02*
X6685000Y84186322D01*
X4983000Y83826322D02*
X6877000Y83826322D01*
X1563000Y84666322D02*
X2903000Y84666322D01*
X1948000Y85026322D02*
X5938000Y85026322D01*
X737000Y82865322D02*
X2903000Y82865322D01*
X833000Y83346322D02*
X2903000Y83346322D01*
X742000Y82905322D02*
X2903000Y82905322D01*
X4983000Y84106322D02*
X6733000Y84106322D01*
X4983000Y83666322D02*
X6945000Y83666322D01*
X857000Y83426322D02*
X2903000Y83426322D01*
X2362000Y85306322D02*
X5524000Y85306322D01*
X4983000Y84666322D02*
X6323000Y84666322D01*
X4983000Y84426322D02*
X6521000Y84426322D01*
X845000Y83386322D02*
X2903000Y83386322D01*
X4983000Y83586322D02*
X6976000Y83586322D01*
X822000Y83306322D02*
X2903000Y83306322D01*
X1899000Y84986322D02*
X5987000Y84986322D01*
X4983000Y84706322D02*
X6286000Y84706322D01*
X725000Y82745322D02*
X2903000Y82745322D01*
X1177000Y84146322D02*
X2903000Y84146322D01*
X4983000Y83506322D02*
X7004000Y83506322D01*
X1638000Y84746322D02*
X2903000Y84746322D01*
X3003000Y85586322D02*
X4883000Y85586322D01*
X2167000Y85186322D02*
X5719000Y85186322D01*
X1009000Y83826322D02*
X2903000Y83826322D01*
X1678000Y84786322D02*
X6208000Y84786322D01*
X4983000Y83986322D02*
X6799000Y83986322D01*
X4983000Y83706322D02*
X6929000Y83706322D01*
X802000Y83226322D02*
X2903000Y83226322D01*
X732000Y82825322D02*
X2903000Y82825322D01*
X1027000Y83866322D02*
X2903000Y83866322D01*
X1719000Y84826322D02*
X6167000Y84826322D01*
X4983000Y84546322D02*
X6427000Y84546322D01*
X910000Y83586322D02*
X2903000Y83586322D01*
X3541000Y85706322D02*
X4345000Y85706322D01*
X1336000Y84386322D02*
X2903000Y84386322D01*
X1851000Y84946322D02*
X6035000Y84946322D01*
X957000Y83706322D02*
X2903000Y83706322D01*
X1131000Y84066322D02*
X2903000Y84066322D01*
X973000Y83746322D02*
X2903000Y83746322D01*
X4983000Y84626322D02*
X6359000Y84626322D01*
X2884000Y85546322D02*
X5002000Y85546322D01*
X1527000Y84626322D02*
X2903000Y84626322D01*
X4983000Y84346322D02*
X6579000Y84346322D01*
X4983000Y83626322D02*
X6961000Y83626322D01*
X882000Y83506322D02*
X2903000Y83506322D01*
X4983000Y83025322D02*
X7125000Y83025322D01*
X4983000Y83906322D02*
X6839000Y83906322D01*
X784000Y83145322D02*
X2903000Y83145322D01*
X2293000Y85266322D02*
X5593000Y85266322D01*
X4983000Y82825322D02*
X7154000Y82825322D01*
X4983000Y84466322D02*
X6491000Y84466322D01*
X2109000Y85146322D02*
X5777000Y85146322D01*
X761000Y83025322D02*
X2903000Y83025322D01*
X4983000Y82945322D02*
X7138000Y82945322D01*
X719000Y82665322D02*
X7167000Y82665322D01*
X1493000Y84586322D02*
X2903000Y84586322D01*
X991000Y83786322D02*
X2903000Y83786322D01*
X4983000Y84226322D02*
X6659000Y84226322D01*
X2053000Y85106322D02*
X5833000Y85106322D01*
X4983000Y83746322D02*
X6913000Y83746322D01*
X713000Y82465322D02*
X7173000Y82465322D01*
X721000Y82705322D02*
X2903000Y82705322D01*
X2104000Y78965081D02*
X2104000Y79595081D01*
X1067000Y83946322D02*
X2903000Y83946322D01*
X1459000Y84546322D02*
X2903000Y84546322D01*
X1227000Y84226322D02*
X2903000Y84226322D01*
X2511000Y85386322D02*
X5375000Y85386322D01*
X4983000Y83065322D02*
X7118000Y83065322D01*
X4983000Y82745322D02*
X7161000Y82745322D01*
X713000Y82505322D02*
X7173000Y82505322D01*
X4983000Y82905322D02*
X7144000Y82905322D01*
X4983000Y83426322D02*
X7029000Y83426322D01*
X4983000Y83306322D02*
X7064000Y83306322D01*
X4983000Y84506322D02*
X6459000Y84506322D01*
X4983000Y83386322D02*
X7041000Y83386322D01*
X4983000Y84306322D02*
X6607000Y84306322D01*
X4983000Y83145322D02*
X7102000Y83145322D01*
X812000Y83266322D02*
X2903000Y83266322D01*
X716000Y82625322D02*
X7170000Y82625322D01*
X2681000Y85466322D02*
X5205000Y85466322D01*
X4983000Y82705322D02*
X7165000Y82705322D01*
X1999000Y85066322D02*
X5887000Y85066322D01*
X7213000Y82465322D02*
G75*
G03*
X7213000Y82465322I-3270000J0D01*
G01*
%TO.C,C13*%
X51617200Y49331070D02*
X51617200Y49853574D01*
X50147200Y49331070D02*
X50147200Y49853574D01*
%TO.C,C11*%
X69121000Y49026270D02*
X69121000Y49548774D01*
X70591000Y49026270D02*
X70591000Y49548774D01*
%TO.C,J10*%
X107600Y59295122D02*
X3587400Y59295122D01*
X183800Y50227322D02*
X107600Y50227322D01*
X107600Y60768322D02*
X107600Y59269722D01*
X4755800Y50227322D02*
X6152800Y50227322D01*
X4730400Y60768322D02*
X6152800Y60768322D01*
X4755800Y50227322D02*
X183800Y50227322D01*
X4730400Y60768322D02*
X107600Y60768322D01*
X3587400Y51776722D02*
X3587400Y59295122D01*
X107600Y50227322D02*
X107600Y51776722D01*
X107600Y51776722D02*
X107600Y59295122D01*
X6152800Y60768322D02*
X6152800Y50227322D01*
X3587400Y51776722D02*
X107600Y51776722D01*
D15*
X5924200Y59498322D02*
X5924200Y59091922D01*
X5924200Y59091922D02*
X5644800Y59295122D01*
X5644800Y59295122D02*
X5924200Y59498322D01*
G36*
X5924200Y59091922D02*
G01*
X5644800Y59295122D01*
X5924200Y59498322D01*
X5924200Y59091922D01*
G37*
X5924200Y59091922D02*
X5644800Y59295122D01*
X5924200Y59498322D01*
X5924200Y59091922D01*
D11*
%TO.C,J4*%
X35058000Y1789522D02*
X24898000Y1789522D01*
X24898000Y519522D02*
X35058000Y519522D01*
X35058000Y519522D02*
X35058000Y8139522D01*
X35058000Y8139522D02*
X24898000Y8139522D01*
X24898000Y8139522D02*
X24898000Y519522D01*
%TD*%
%LPC*%
D16*
%TO.C,U1*%
X67316000Y35952522D03*
D17*
X64776000Y35952522D03*
X62236000Y35952522D03*
X59696000Y35952522D03*
X57156000Y35952522D03*
X54616000Y35952522D03*
X52076000Y35952522D03*
X49536000Y35952522D03*
X49536000Y28332522D03*
X52076000Y28332522D03*
X54616000Y28332522D03*
X57156000Y28332522D03*
X59696000Y28332522D03*
X62236000Y28332522D03*
X64776000Y28332522D03*
X67316000Y28332522D03*
%TD*%
D18*
%TO.C,J9*%
X77984000Y93483522D03*
D19*
X75484000Y93483522D03*
%TD*%
D20*
%TO.C,C7*%
X69783700Y8774522D03*
X71858700Y8774522D03*
%TD*%
D21*
%TO.C,D11*%
X75444000Y87240522D03*
X75444000Y89165522D03*
%TD*%
%TO.C,D12*%
X56140000Y86933022D03*
X56140000Y88858022D03*
%TD*%
%TO.C,D13*%
X38106000Y87187022D03*
X38106000Y89112022D03*
%TD*%
%TO.C,D14*%
X19310000Y86679022D03*
X19310000Y88604022D03*
%TD*%
D22*
%TO.C,R38*%
X73158000Y87149522D03*
X73158000Y89149522D03*
%TD*%
%TO.C,R39*%
X54108000Y86895522D03*
X54108000Y88895522D03*
%TD*%
%TO.C,R40*%
X36074000Y87149522D03*
X36074000Y89149522D03*
%TD*%
%TO.C,R41*%
X17278000Y86641522D03*
X17278000Y88641522D03*
%TD*%
D23*
%TO.C,F1*%
X78111000Y49795522D03*
D24*
X78111000Y83813522D03*
%TD*%
D23*
%TO.C,F2*%
X58934000Y49795522D03*
D24*
X58934000Y83813522D03*
%TD*%
D23*
%TO.C,F3*%
X40265000Y49922522D03*
D24*
X40265000Y83940522D03*
%TD*%
D23*
%TO.C,F4*%
X20199000Y49414522D03*
D24*
X20199000Y83432522D03*
%TD*%
D25*
%TO.C,Q20*%
X14230000Y88403522D03*
D26*
X14230000Y90943522D03*
X14230000Y93483522D03*
%TD*%
D18*
%TO.C,J8*%
X58934000Y93229522D03*
D19*
X56434000Y93229522D03*
%TD*%
D22*
%TO.C,R4*%
X30867000Y32006122D03*
X30867000Y34006122D03*
%TD*%
D20*
%TO.C,C1*%
X69605900Y28103922D03*
X71680900Y28103922D03*
%TD*%
D27*
%TO.C,C2*%
X44913200Y16064322D03*
D28*
X44913200Y13564322D03*
%TD*%
D29*
%TO.C,C3*%
X39985600Y35593022D03*
X39985600Y33518022D03*
%TD*%
D20*
%TO.C,C4*%
X69605900Y30212122D03*
X71680900Y30212122D03*
%TD*%
%TO.C,C5*%
X69783700Y10806522D03*
X71858700Y10806522D03*
%TD*%
D29*
%TO.C,C6*%
X40366600Y17025622D03*
X40366600Y14950622D03*
%TD*%
D27*
%TO.C,C8*%
X44633800Y35190522D03*
D28*
X44633800Y32690522D03*
%TD*%
D20*
%TO.C,C17*%
X7655300Y5345522D03*
X9730300Y5345522D03*
%TD*%
D30*
%TO.C,C18*%
X1784000Y18654522D03*
X1784000Y15404522D03*
%TD*%
D20*
%TO.C,C19*%
X4708900Y15378522D03*
X6783900Y15378522D03*
%TD*%
D31*
%TO.C,C20*%
X6864000Y17262022D03*
X6864000Y19337022D03*
%TD*%
D32*
%TO.C,J2*%
X89668000Y39381522D03*
D33*
X89668000Y36881522D03*
X89668000Y34381522D03*
X89668000Y31881522D03*
%TD*%
D32*
%TO.C,J3*%
X89668000Y17537522D03*
D33*
X89668000Y15037522D03*
X89668000Y12537522D03*
X89668000Y10037522D03*
%TD*%
D18*
%TO.C,J5*%
X22104000Y92467522D03*
D19*
X19604000Y92467522D03*
%TD*%
D34*
%TO.C,J6*%
X5308000Y11909522D03*
X5308000Y10909522D03*
X5308000Y9909522D03*
X5308000Y8909522D03*
X5308000Y7909522D03*
X5308000Y6909522D03*
D35*
X1433000Y5609522D03*
D36*
X1433000Y13209522D03*
%TD*%
D18*
%TO.C,J7*%
X40392000Y93229522D03*
D19*
X37892000Y93229522D03*
%TD*%
D25*
%TO.C,Q9*%
X69856000Y89165522D03*
D26*
X69856000Y91705522D03*
X69856000Y94245522D03*
%TD*%
D25*
%TO.C,Q10*%
X50806000Y88911522D03*
D26*
X50806000Y91451522D03*
X50806000Y93991522D03*
%TD*%
D25*
%TO.C,Q19*%
X32518000Y88911522D03*
D26*
X32518000Y91451522D03*
X32518000Y93991522D03*
%TD*%
D37*
%TO.C,R1*%
X71541800Y36028722D03*
X69541800Y36028722D03*
%TD*%
D38*
%TO.C,R2*%
X11639200Y43175522D03*
X11639200Y41175522D03*
%TD*%
D22*
%TO.C,R5*%
X4832000Y17299522D03*
X4832000Y19299522D03*
%TD*%
D38*
%TO.C,R6*%
X17659000Y43286522D03*
X17659000Y41286522D03*
%TD*%
D39*
%TO.C,R12*%
X45335600Y28027722D03*
X47335600Y28027722D03*
%TD*%
D37*
%TO.C,R24*%
X71694200Y17004122D03*
X69694200Y17004122D03*
%TD*%
D39*
%TO.C,R25*%
X45462600Y8749122D03*
X47462600Y8749122D03*
%TD*%
D16*
%TO.C,U2*%
X67493800Y16750122D03*
D17*
X64953800Y16750122D03*
X62413800Y16750122D03*
X59873800Y16750122D03*
X57333800Y16750122D03*
X54793800Y16750122D03*
X52253800Y16750122D03*
X49713800Y16750122D03*
X49713800Y9130122D03*
X52253800Y9130122D03*
X54793800Y9130122D03*
X57333800Y9130122D03*
X59873800Y9130122D03*
X62413800Y9130122D03*
X64953800Y9130122D03*
X67493800Y9130122D03*
%TD*%
D40*
%TO.C,SW1*%
X9340000Y41449522D03*
X1340000Y41449522D03*
X9340000Y45949522D03*
X1340000Y45949522D03*
%TD*%
D38*
%TO.C,R3*%
X30917800Y27554522D03*
X30917800Y25554522D03*
%TD*%
D41*
%TO.C,A1*%
X1144000Y21427522D03*
X2414000Y21427522D03*
X3684000Y21427522D03*
X4954000Y21427522D03*
X6224000Y21427522D03*
X7494000Y21427522D03*
X8764000Y21427522D03*
X10034000Y21427522D03*
X11304000Y21427522D03*
X12574000Y21427522D03*
X13844000Y21427522D03*
X15114000Y21427522D03*
X16384000Y21427522D03*
X17654000Y21427522D03*
X18924000Y21427522D03*
X20194000Y21427522D03*
X21464000Y21427522D03*
X22734000Y21427522D03*
X24004000Y21427522D03*
X24004000Y39047522D03*
X22734000Y39047522D03*
X21464000Y39047522D03*
X20194000Y39047522D03*
X18924000Y39047522D03*
X17654000Y39047522D03*
X16384000Y39047522D03*
X15114000Y39047522D03*
X13844000Y39047522D03*
X12574000Y39047522D03*
X11304000Y39047522D03*
X10034000Y39047522D03*
X8764000Y39047522D03*
X7494000Y39047522D03*
X6224000Y39047522D03*
X4954000Y39047522D03*
X3684000Y39047522D03*
X2414000Y39047522D03*
X1144000Y39047522D03*
D42*
X8934000Y28857522D03*
%TD*%
D43*
%TO.C,D1*%
X28781500Y27494322D03*
X26856500Y27494322D03*
%TD*%
%TO.C,D2*%
X28705300Y32015522D03*
X26780300Y32015522D03*
%TD*%
D44*
%TO.C,J1*%
X4095400Y75932122D03*
D45*
X4095400Y70852122D03*
%TD*%
D31*
%TO.C,C12*%
X30867000Y48681822D03*
X30867000Y50756822D03*
%TD*%
D27*
%TO.C,C16*%
X3943000Y81215322D03*
D28*
X3943000Y83715322D03*
%TD*%
D31*
%TO.C,C13*%
X50882200Y48554822D03*
X50882200Y50629822D03*
%TD*%
%TO.C,C11*%
X69856000Y48250022D03*
X69856000Y50325022D03*
%TD*%
D46*
%TO.C,J10*%
X4781200Y59251322D03*
D47*
X4781200Y57751322D03*
X4781200Y56251322D03*
X4781200Y54751322D03*
X4781200Y53251322D03*
X4781200Y51751322D03*
%TD*%
D44*
%TO.C,J4*%
X27438000Y4329522D03*
D45*
X32518000Y4329522D03*
%TD*%
D48*
%TO.C,H2*%
X86379000Y95504000D03*
D49*
X88779000Y95504000D03*
D48*
X90476056Y93806944D03*
X87081944Y97201056D03*
X88779000Y93104000D03*
X87081944Y93806944D03*
X88779000Y97904000D03*
X90476056Y97201056D03*
X91179000Y95504000D03*
%TD*%
%TO.C,H3*%
X6021056Y96947056D03*
X2626944Y93552944D03*
X4324000Y97650000D03*
X1924000Y95250000D03*
D49*
X4324000Y95250000D03*
D48*
X2626944Y96947056D03*
X4324000Y92850000D03*
X6724000Y95250000D03*
X6021056Y93552944D03*
%TD*%
%TO.C,H4*%
X81286000Y1283000D03*
X81286000Y6083000D03*
X82983056Y5380056D03*
X79588944Y5380056D03*
X82983056Y1985944D03*
X78886000Y3683000D03*
X79588944Y1985944D03*
D49*
X81286000Y3683000D03*
D48*
X83686000Y3683000D03*
%TD*%
D50*
%TO.C,R18*%
X67824000Y64019522D03*
D51*
X88144000Y64019522D03*
%TD*%
D50*
%TO.C,R20*%
X67570000Y73925522D03*
D51*
X87890000Y73925522D03*
%TD*%
D50*
%TO.C,R34*%
X49028000Y64019522D03*
D51*
X28708000Y64019522D03*
%TD*%
D50*
%TO.C,R36*%
X28708000Y74179522D03*
D51*
X49028000Y74179522D03*
%TD*%
D50*
%TO.C,R37*%
X10166000Y79513522D03*
D51*
X30486000Y79513522D03*
%TD*%
D50*
%TO.C,R35*%
X30486000Y68845522D03*
D51*
X10166000Y68845522D03*
%TD*%
D50*
%TO.C,R21*%
X48520000Y79005522D03*
D51*
X68840000Y79005522D03*
%TD*%
D50*
%TO.C,R19*%
X48520000Y68591522D03*
D51*
X68840000Y68591522D03*
%TD*%
M02*
