%TF.GenerationSoftware,KiCad,Pcbnew,(6.0.2)*%
%TF.CreationDate,2022-05-13T11:42:35+02:00*%
%TF.ProjectId,shake-it-machine_pcb,7368616b-652d-4697-942d-6d616368696e,rev?*%
%TF.SameCoordinates,PXfad648a0PYf0f792d2*%
%TF.FileFunction,Paste,Top*%
%TF.FilePolarity,Positive*%
%FSLAX46Y46*%
G04 Gerber Fmt 4.6, Leading zero omitted, Abs format (unit mm)*
G04 Created by KiCad (PCBNEW (6.0.2)) date 2022-05-13 11:42:35*
%MOMM*%
%LPD*%
G01*
G04 APERTURE LIST*
G04 Aperture macros list*
%AMRoundRect*
0 Rectangle with rounded corners*
0 $1 Rounding radius*
0 $2 $3 $4 $5 $6 $7 $8 $9 X,Y pos of 4 corners*
0 Add a 4 corners polygon primitive as box body*
4,1,4,$2,$3,$4,$5,$6,$7,$8,$9,$2,$3,0*
0 Add four circle primitives for the rounded corners*
1,1,$1+$1,$2,$3*
1,1,$1+$1,$4,$5*
1,1,$1+$1,$6,$7*
1,1,$1+$1,$8,$9*
0 Add four rect primitives between the rounded corners*
20,1,$1+$1,$2,$3,$4,$5,0*
20,1,$1+$1,$4,$5,$6,$7,0*
20,1,$1+$1,$6,$7,$8,$9,0*
20,1,$1+$1,$8,$9,$2,$3,0*%
G04 Aperture macros list end*
%ADD10C,0.010000*%
%ADD11RoundRect,0.250000X-0.337500X-0.475000X0.337500X-0.475000X0.337500X0.475000X-0.337500X0.475000X0*%
%ADD12RoundRect,0.249999X0.400001X-0.412501X0.400001X0.412501X-0.400001X0.412501X-0.400001X-0.412501X0*%
%ADD13RoundRect,0.249999X0.450001X-0.350001X0.450001X0.350001X-0.450001X0.350001X-0.450001X-0.350001X0*%
%ADD14RoundRect,0.250000X-0.475000X0.337500X-0.475000X-0.337500X0.475000X-0.337500X0.475000X0.337500X0*%
%ADD15RoundRect,0.250000X-0.925000X0.500000X-0.925000X-0.500000X0.925000X-0.500000X0.925000X0.500000X0*%
%ADD16RoundRect,0.250000X0.475000X-0.337500X0.475000X0.337500X-0.475000X0.337500X-0.475000X-0.337500X0*%
%ADD17RoundRect,0.150000X-0.625000X0.150000X-0.625000X-0.150000X0.625000X-0.150000X0.625000X0.150000X0*%
%ADD18RoundRect,0.249999X-0.650001X0.350001X-0.650001X-0.350001X0.650001X-0.350001X0.650001X0.350001X0*%
%ADD19RoundRect,0.249600X-0.650400X0.350400X-0.650400X-0.350400X0.650400X-0.350400X0.650400X0.350400X0*%
%ADD20RoundRect,0.249999X0.350001X0.450001X-0.350001X0.450001X-0.350001X-0.450001X0.350001X-0.450001X0*%
%ADD21RoundRect,0.249999X-0.450001X0.350001X-0.450001X-0.350001X0.450001X-0.350001X0.450001X0.350001X0*%
%ADD22RoundRect,0.249999X-0.350001X-0.450001X0.350001X-0.450001X0.350001X0.450001X-0.350001X0.450001X0*%
%ADD23R,1.600000X1.400000*%
%ADD24RoundRect,0.213900X0.251100X-0.511100X0.251100X0.511100X-0.251100X0.511100X-0.251100X-0.511100X0*%
%ADD25RoundRect,0.249999X0.412501X0.400001X-0.412501X0.400001X-0.412501X-0.400001X0.412501X-0.400001X0*%
G04 APERTURE END LIST*
D10*
%TO.C,A1*%
X7669000Y27589052D02*
X7669000Y30122522D01*
X7669000Y30122522D02*
X10200044Y30122522D01*
X10200044Y30122522D02*
X10200044Y27589052D01*
X10200044Y27589052D02*
X7669000Y27589052D01*
G36*
X10200044Y27589052D02*
G01*
X7669000Y27589052D01*
X7669000Y30122522D01*
X10200044Y30122522D01*
X10200044Y27589052D01*
G37*
X10200044Y27589052D02*
X7669000Y27589052D01*
X7669000Y30122522D01*
X10200044Y30122522D01*
X10200044Y27589052D01*
%TD*%
D11*
%TO.C,C7*%
X69783700Y8774522D03*
X71858700Y8774522D03*
%TD*%
D12*
%TO.C,D11*%
X75444000Y87240522D03*
X75444000Y89165522D03*
%TD*%
%TO.C,D12*%
X56140000Y86933022D03*
X56140000Y88858022D03*
%TD*%
%TO.C,D13*%
X38106000Y87187022D03*
X38106000Y89112022D03*
%TD*%
%TO.C,D14*%
X19310000Y86679022D03*
X19310000Y88604022D03*
%TD*%
D13*
%TO.C,R38*%
X73158000Y87149522D03*
X73158000Y89149522D03*
%TD*%
%TO.C,R39*%
X54108000Y86895522D03*
X54108000Y88895522D03*
%TD*%
%TO.C,R40*%
X36074000Y87149522D03*
X36074000Y89149522D03*
%TD*%
%TO.C,R41*%
X17278000Y86641522D03*
X17278000Y88641522D03*
%TD*%
%TO.C,R4*%
X30867000Y32006122D03*
X30867000Y34006122D03*
%TD*%
D11*
%TO.C,C1*%
X69605900Y28103922D03*
X71680900Y28103922D03*
%TD*%
D14*
%TO.C,C3*%
X39985600Y35593022D03*
X39985600Y33518022D03*
%TD*%
D11*
%TO.C,C4*%
X69605900Y30212122D03*
X71680900Y30212122D03*
%TD*%
%TO.C,C5*%
X69783700Y10806522D03*
X71858700Y10806522D03*
%TD*%
D14*
%TO.C,C6*%
X40366600Y17025622D03*
X40366600Y14950622D03*
%TD*%
D11*
%TO.C,C17*%
X7655300Y5345522D03*
X9730300Y5345522D03*
%TD*%
D15*
%TO.C,C18*%
X1784000Y18654522D03*
X1784000Y15404522D03*
%TD*%
D11*
%TO.C,C19*%
X4708900Y15378522D03*
X6783900Y15378522D03*
%TD*%
D16*
%TO.C,C20*%
X6864000Y17262022D03*
X6864000Y19337022D03*
%TD*%
D17*
%TO.C,J6*%
X5308000Y11909522D03*
X5308000Y10909522D03*
X5308000Y9909522D03*
X5308000Y8909522D03*
X5308000Y7909522D03*
X5308000Y6909522D03*
D18*
X1433000Y5609522D03*
D19*
X1433000Y13209522D03*
%TD*%
D20*
%TO.C,R1*%
X71541800Y36028722D03*
X69541800Y36028722D03*
%TD*%
D21*
%TO.C,R2*%
X11639200Y43175522D03*
X11639200Y41175522D03*
%TD*%
D13*
%TO.C,R5*%
X4832000Y17299522D03*
X4832000Y19299522D03*
%TD*%
D21*
%TO.C,R6*%
X17659000Y43286522D03*
X17659000Y41286522D03*
%TD*%
D22*
%TO.C,R12*%
X45335600Y28027722D03*
X47335600Y28027722D03*
%TD*%
D20*
%TO.C,R24*%
X71694200Y17004122D03*
X69694200Y17004122D03*
%TD*%
D22*
%TO.C,R25*%
X45462600Y8749122D03*
X47462600Y8749122D03*
%TD*%
D23*
%TO.C,SW1*%
X9340000Y41449522D03*
X1340000Y41449522D03*
X9340000Y45949522D03*
X1340000Y45949522D03*
%TD*%
D21*
%TO.C,R3*%
X30917800Y27554522D03*
X30917800Y25554522D03*
%TD*%
D24*
%TO.C,A1*%
X1144000Y21427522D03*
X2414000Y21427522D03*
X3684000Y21427522D03*
X4954000Y21427522D03*
X6224000Y21427522D03*
X7494000Y21427522D03*
X8764000Y21427522D03*
X10034000Y21427522D03*
X11304000Y21427522D03*
X12574000Y21427522D03*
X13844000Y21427522D03*
X15114000Y21427522D03*
X16384000Y21427522D03*
X17654000Y21427522D03*
X18924000Y21427522D03*
X20194000Y21427522D03*
X21464000Y21427522D03*
X22734000Y21427522D03*
X24004000Y21427522D03*
X24004000Y39047522D03*
X22734000Y39047522D03*
X21464000Y39047522D03*
X20194000Y39047522D03*
X18924000Y39047522D03*
X17654000Y39047522D03*
X16384000Y39047522D03*
X15114000Y39047522D03*
X13844000Y39047522D03*
X12574000Y39047522D03*
X11304000Y39047522D03*
X10034000Y39047522D03*
X8764000Y39047522D03*
X7494000Y39047522D03*
X6224000Y39047522D03*
X4954000Y39047522D03*
X3684000Y39047522D03*
X2414000Y39047522D03*
X1144000Y39047522D03*
%TD*%
D25*
%TO.C,D1*%
X28781500Y27494322D03*
X26856500Y27494322D03*
%TD*%
%TO.C,D2*%
X28705300Y32015522D03*
X26780300Y32015522D03*
%TD*%
D16*
%TO.C,C12*%
X30867000Y48681822D03*
X30867000Y50756822D03*
%TD*%
%TO.C,C13*%
X50882200Y48554822D03*
X50882200Y50629822D03*
%TD*%
%TO.C,C11*%
X69856000Y48250022D03*
X69856000Y50325022D03*
%TD*%
M02*
