%TF.GenerationSoftware,KiCad,Pcbnew,(6.0.2)*%
%TF.CreationDate,2022-05-13T11:42:35+02:00*%
%TF.ProjectId,shake-it-machine_pcb,7368616b-652d-4697-942d-6d616368696e,rev?*%
%TF.SameCoordinates,PXfad648a0PYf0f792d2*%
%TF.FileFunction,Soldermask,Bot*%
%TF.FilePolarity,Negative*%
%FSLAX46Y46*%
G04 Gerber Fmt 4.6, Leading zero omitted, Abs format (unit mm)*
G04 Created by KiCad (PCBNEW (6.0.2)) date 2022-05-13 11:42:35*
%MOMM*%
%LPD*%
G01*
G04 APERTURE LIST*
G04 Aperture macros list*
%AMRoundRect*
0 Rectangle with rounded corners*
0 $1 Rounding radius*
0 $2 $3 $4 $5 $6 $7 $8 $9 X,Y pos of 4 corners*
0 Add a 4 corners polygon primitive as box body*
4,1,4,$2,$3,$4,$5,$6,$7,$8,$9,$2,$3,0*
0 Add four circle primitives for the rounded corners*
1,1,$1+$1,$2,$3*
1,1,$1+$1,$4,$5*
1,1,$1+$1,$6,$7*
1,1,$1+$1,$8,$9*
0 Add four rect primitives between the rounded corners*
20,1,$1+$1,$2,$3,$4,$5,0*
20,1,$1+$1,$4,$5,$6,$7,0*
20,1,$1+$1,$6,$7,$8,$9,0*
20,1,$1+$1,$8,$9,$2,$3,0*%
G04 Aperture macros list end*
%ADD10C,0.100000*%
%ADD11R,1.248000X1.248000*%
%ADD12C,1.248000*%
%ADD13RoundRect,0.250000X0.600000X0.750000X-0.600000X0.750000X-0.600000X-0.750000X0.600000X-0.750000X0*%
%ADD14O,1.700000X2.000000*%
%ADD15R,3.000000X2.000000*%
%ADD16O,3.000000X2.000000*%
%ADD17R,2.000000X1.905000*%
%ADD18O,2.000000X1.905000*%
%ADD19R,1.600000X1.600000*%
%ADD20C,1.600000*%
%ADD21RoundRect,0.250000X-0.725000X0.600000X-0.725000X-0.600000X0.725000X-0.600000X0.725000X0.600000X0*%
%ADD22O,1.950000X1.700000*%
%ADD23R,3.000000X3.000000*%
%ADD24C,3.000000*%
%ADD25R,1.500000X1.000000*%
%ADD26O,1.500000X1.000000*%
%ADD27C,0.800000*%
%ADD28C,6.400000*%
%ADD29R,2.500000X1.800000*%
%ADD30R,1.700000X1.300000*%
%ADD31C,2.400000*%
%ADD32O,2.400000X2.400000*%
%ADD33R,1.600000X0.800000*%
%ADD34RoundRect,0.250000X0.337500X0.475000X-0.337500X0.475000X-0.337500X-0.475000X0.337500X-0.475000X0*%
%ADD35RoundRect,0.249999X0.450001X-0.350001X0.450001X0.350001X-0.450001X0.350001X-0.450001X-0.350001X0*%
%ADD36RoundRect,0.249999X-0.350001X-0.450001X0.350001X-0.450001X0.350001X0.450001X-0.350001X0.450001X0*%
%ADD37RoundRect,0.249999X-0.450001X0.350001X-0.450001X-0.350001X0.450001X-0.350001X0.450001X0.350001X0*%
%ADD38R,0.800000X1.600000*%
%ADD39RoundRect,0.250000X0.475000X-0.337500X0.475000X0.337500X-0.475000X0.337500X-0.475000X-0.337500X0*%
%ADD40RoundRect,0.250000X-0.337500X-0.475000X0.337500X-0.475000X0.337500X0.475000X-0.337500X0.475000X0*%
%ADD41RoundRect,0.250000X0.500000X0.925000X-0.500000X0.925000X-0.500000X-0.925000X0.500000X-0.925000X0*%
%ADD42R,1.500000X2.000000*%
%ADD43R,3.800000X2.000000*%
G04 APERTURE END LIST*
D10*
X11436000Y26427522D02*
X6356000Y26427522D01*
X6356000Y26427522D02*
X6356000Y31253522D01*
X6356000Y31253522D02*
X11436000Y31253522D01*
X11436000Y31253522D02*
X11436000Y26427522D01*
G36*
X11436000Y26427522D02*
G01*
X6356000Y26427522D01*
X6356000Y31253522D01*
X11436000Y31253522D01*
X11436000Y26427522D01*
G37*
X11436000Y26427522D02*
X6356000Y26427522D01*
X6356000Y31253522D01*
X11436000Y31253522D01*
X11436000Y26427522D01*
D11*
%TO.C,U1*%
X67316000Y35952522D03*
D12*
X64776000Y35952522D03*
X62236000Y35952522D03*
X59696000Y35952522D03*
X57156000Y35952522D03*
X54616000Y35952522D03*
X52076000Y35952522D03*
X49536000Y35952522D03*
X49536000Y28332522D03*
X52076000Y28332522D03*
X54616000Y28332522D03*
X57156000Y28332522D03*
X59696000Y28332522D03*
X62236000Y28332522D03*
X64776000Y28332522D03*
X67316000Y28332522D03*
%TD*%
D13*
%TO.C,J9*%
X77984000Y93483522D03*
D14*
X75484000Y93483522D03*
%TD*%
D15*
%TO.C,F1*%
X78111000Y49795522D03*
D16*
X78111000Y83813522D03*
%TD*%
D15*
%TO.C,F2*%
X58934000Y49795522D03*
D16*
X58934000Y83813522D03*
%TD*%
D15*
%TO.C,F3*%
X40265000Y49922522D03*
D16*
X40265000Y83940522D03*
%TD*%
D15*
%TO.C,F4*%
X20199000Y49414522D03*
D16*
X20199000Y83432522D03*
%TD*%
D17*
%TO.C,Q20*%
X14230000Y88403522D03*
D18*
X14230000Y90943522D03*
X14230000Y93483522D03*
%TD*%
D13*
%TO.C,J8*%
X58934000Y93229522D03*
D14*
X56434000Y93229522D03*
%TD*%
D19*
%TO.C,C2*%
X44913200Y16064322D03*
D20*
X44913200Y13564322D03*
%TD*%
D19*
%TO.C,C8*%
X44633800Y35190522D03*
D20*
X44633800Y32690522D03*
%TD*%
D21*
%TO.C,J2*%
X89668000Y39381522D03*
D22*
X89668000Y36881522D03*
X89668000Y34381522D03*
X89668000Y31881522D03*
%TD*%
D21*
%TO.C,J3*%
X89668000Y17537522D03*
D22*
X89668000Y15037522D03*
X89668000Y12537522D03*
X89668000Y10037522D03*
%TD*%
D13*
%TO.C,J5*%
X22104000Y92467522D03*
D14*
X19604000Y92467522D03*
%TD*%
D13*
%TO.C,J7*%
X40392000Y93229522D03*
D14*
X37892000Y93229522D03*
%TD*%
D17*
%TO.C,Q9*%
X69856000Y89165522D03*
D18*
X69856000Y91705522D03*
X69856000Y94245522D03*
%TD*%
D17*
%TO.C,Q10*%
X50806000Y88911522D03*
D18*
X50806000Y91451522D03*
X50806000Y93991522D03*
%TD*%
D17*
%TO.C,Q19*%
X32518000Y88911522D03*
D18*
X32518000Y91451522D03*
X32518000Y93991522D03*
%TD*%
D11*
%TO.C,U2*%
X67493800Y16750122D03*
D12*
X64953800Y16750122D03*
X62413800Y16750122D03*
X59873800Y16750122D03*
X57333800Y16750122D03*
X54793800Y16750122D03*
X52253800Y16750122D03*
X49713800Y16750122D03*
X49713800Y9130122D03*
X52253800Y9130122D03*
X54793800Y9130122D03*
X57333800Y9130122D03*
X59873800Y9130122D03*
X62413800Y9130122D03*
X64953800Y9130122D03*
X67493800Y9130122D03*
%TD*%
D23*
%TO.C,J1*%
X4095400Y75932122D03*
D24*
X4095400Y70852122D03*
%TD*%
D19*
%TO.C,C16*%
X3943000Y81215322D03*
D20*
X3943000Y83715322D03*
%TD*%
D25*
%TO.C,J10*%
X4781200Y59251322D03*
D26*
X4781200Y57751322D03*
X4781200Y56251322D03*
X4781200Y54751322D03*
X4781200Y53251322D03*
X4781200Y51751322D03*
%TD*%
D23*
%TO.C,J4*%
X27438000Y4329522D03*
D24*
X32518000Y4329522D03*
%TD*%
D27*
%TO.C,H2*%
X86379000Y95504000D03*
D28*
X88779000Y95504000D03*
D27*
X90476056Y93806944D03*
X87081944Y97201056D03*
X88779000Y93104000D03*
X87081944Y93806944D03*
X88779000Y97904000D03*
X90476056Y97201056D03*
X91179000Y95504000D03*
%TD*%
%TO.C,H3*%
X6021056Y96947056D03*
X2626944Y93552944D03*
X4324000Y97650000D03*
X1924000Y95250000D03*
D28*
X4324000Y95250000D03*
D27*
X2626944Y96947056D03*
X4324000Y92850000D03*
X6724000Y95250000D03*
X6021056Y93552944D03*
%TD*%
%TO.C,H4*%
X81286000Y1283000D03*
X81286000Y6083000D03*
X82983056Y5380056D03*
X79588944Y5380056D03*
X82983056Y1985944D03*
X78886000Y3683000D03*
X79588944Y1985944D03*
D28*
X81286000Y3683000D03*
D27*
X83686000Y3683000D03*
%TD*%
D29*
%TO.C,D8*%
X41122000Y95769522D03*
X37122000Y95769522D03*
%TD*%
D30*
%TO.C,D7*%
X33991200Y70747922D03*
X33991200Y67247922D03*
%TD*%
D31*
%TO.C,R18*%
X67824000Y64019522D03*
D32*
X88144000Y64019522D03*
%TD*%
D31*
%TO.C,R20*%
X67570000Y73925522D03*
D32*
X87890000Y73925522D03*
%TD*%
D31*
%TO.C,R34*%
X49028000Y64019522D03*
D32*
X28708000Y64019522D03*
%TD*%
D31*
%TO.C,R36*%
X28708000Y74179522D03*
D32*
X49028000Y74179522D03*
%TD*%
D31*
%TO.C,R37*%
X10166000Y79513522D03*
D32*
X30486000Y79513522D03*
%TD*%
D30*
%TO.C,D9*%
X14661800Y75929522D03*
X14661800Y72429522D03*
%TD*%
D33*
%TO.C,Q17*%
X24948800Y76160722D03*
X24948800Y74230322D03*
X22812000Y75195522D03*
%TD*%
%TO.C,Q18*%
X20376800Y76160722D03*
X20376800Y74230322D03*
X18240000Y75195522D03*
%TD*%
D34*
%TO.C,C24*%
X20347500Y72147522D03*
X18272500Y72147522D03*
%TD*%
D31*
%TO.C,R35*%
X30486000Y68845522D03*
D32*
X10166000Y68845522D03*
%TD*%
D34*
%TO.C,C23*%
X39651500Y67321522D03*
X37576500Y67321522D03*
%TD*%
D31*
%TO.C,R21*%
X48520000Y79005522D03*
D32*
X68840000Y79005522D03*
%TD*%
D31*
%TO.C,R19*%
X48520000Y68591522D03*
D32*
X68840000Y68591522D03*
%TD*%
D35*
%TO.C,R17*%
X54362000Y63019522D03*
X54362000Y65019522D03*
%TD*%
D36*
%TO.C,R13*%
X62252000Y65035522D03*
X64252000Y65035522D03*
%TD*%
D35*
%TO.C,R10*%
X59442000Y56653522D03*
X59442000Y58653522D03*
%TD*%
D37*
%TO.C,R8*%
X64014000Y56891522D03*
X64014000Y54891522D03*
%TD*%
D33*
%TO.C,Q8*%
X58476800Y75906722D03*
X58476800Y73976322D03*
X56340000Y74941522D03*
%TD*%
D38*
%TO.C,Q4*%
X58375200Y62952722D03*
X56444800Y62952722D03*
X57410000Y65089522D03*
%TD*%
D34*
%TO.C,C22*%
X58447500Y71893522D03*
X56372500Y71893522D03*
%TD*%
D30*
%TO.C,D4*%
X52482400Y75675522D03*
X52482400Y72175522D03*
%TD*%
D34*
%TO.C,C9*%
X16258100Y3999322D03*
X14183100Y3999322D03*
%TD*%
D39*
%TO.C,C10*%
X14128400Y6492422D03*
X14128400Y8567422D03*
%TD*%
D40*
%TO.C,C14*%
X20964900Y16089722D03*
X23039900Y16089722D03*
%TD*%
D41*
%TO.C,C15*%
X18801400Y16089722D03*
X15551400Y16089722D03*
%TD*%
D34*
%TO.C,C21*%
X77243500Y67321522D03*
X75168500Y67321522D03*
%TD*%
D30*
%TO.C,D3*%
X71811800Y70849522D03*
X71811800Y67349522D03*
%TD*%
D29*
%TO.C,D5*%
X78815600Y96531522D03*
X74815600Y96531522D03*
%TD*%
%TO.C,D6*%
X59689400Y96023522D03*
X55689400Y96023522D03*
%TD*%
%TO.C,D10*%
X22834000Y95515522D03*
X18834000Y95515522D03*
%TD*%
D38*
%TO.C,Q1*%
X83013200Y56040722D03*
X81082800Y56040722D03*
X82048000Y58177522D03*
%TD*%
%TO.C,Q2*%
X64217200Y60412722D03*
X62286800Y60412722D03*
X63252000Y62549522D03*
%TD*%
%TO.C,Q3*%
X76917200Y58380722D03*
X74986800Y58380722D03*
X75952000Y60517522D03*
%TD*%
D33*
%TO.C,Q5*%
X82098800Y71080722D03*
X82098800Y69150322D03*
X79962000Y70115522D03*
%TD*%
%TO.C,Q6*%
X77272800Y71080722D03*
X77272800Y69150322D03*
X75136000Y70115522D03*
%TD*%
%TO.C,Q7*%
X63302800Y75906722D03*
X63302800Y73976322D03*
X61166000Y74941522D03*
%TD*%
D38*
%TO.C,Q11*%
X45421200Y55786722D03*
X43490800Y55786722D03*
X44456000Y57923522D03*
%TD*%
%TO.C,Q12*%
X25355200Y60866722D03*
X23424800Y60866722D03*
X24390000Y63003522D03*
%TD*%
%TO.C,Q13*%
X39579200Y58380722D03*
X37648800Y58380722D03*
X38614000Y60517522D03*
%TD*%
%TO.C,Q14*%
X19513200Y63206722D03*
X17582800Y63206722D03*
X18548000Y65343522D03*
%TD*%
D33*
%TO.C,Q15*%
X45014800Y71080722D03*
X45014800Y69150322D03*
X42878000Y70115522D03*
%TD*%
%TO.C,Q16*%
X39680800Y71080722D03*
X39680800Y69150322D03*
X37544000Y70115522D03*
%TD*%
D37*
%TO.C,R7*%
X83064000Y53081522D03*
X83064000Y51081522D03*
%TD*%
D35*
%TO.C,R9*%
X78238000Y53113522D03*
X78238000Y55113522D03*
%TD*%
D36*
%TO.C,R11*%
X81048000Y60717522D03*
X83048000Y60717522D03*
%TD*%
D37*
%TO.C,R14*%
X78746000Y60701522D03*
X78746000Y58701522D03*
%TD*%
%TO.C,R15*%
X60204000Y65019522D03*
X60204000Y63019522D03*
%TD*%
D35*
%TO.C,R16*%
X72904000Y58701522D03*
X72904000Y60701522D03*
%TD*%
D37*
%TO.C,R22*%
X45472000Y53335522D03*
X45472000Y51335522D03*
%TD*%
D35*
%TO.C,R23*%
X41154000Y53367522D03*
X41154000Y55367522D03*
%TD*%
D37*
%TO.C,R26*%
X25406000Y57145522D03*
X25406000Y55145522D03*
%TD*%
D35*
%TO.C,R27*%
X21342000Y57177522D03*
X21342000Y59177522D03*
%TD*%
D36*
%TO.C,R28*%
X43456000Y60463522D03*
X45456000Y60463522D03*
%TD*%
D37*
%TO.C,R29*%
X41408000Y60193522D03*
X41408000Y58193522D03*
%TD*%
D36*
%TO.C,R30*%
X23644000Y65289522D03*
X25644000Y65289522D03*
%TD*%
D37*
%TO.C,R31*%
X21342000Y65273522D03*
X21342000Y63273522D03*
%TD*%
D35*
%TO.C,R32*%
X35566000Y58193522D03*
X35566000Y60193522D03*
%TD*%
D37*
%TO.C,R33*%
X15246000Y65273522D03*
X15246000Y63273522D03*
%TD*%
D42*
%TO.C,U3*%
X21076600Y6589722D03*
X18776600Y6589722D03*
D43*
X18776600Y12889722D03*
D42*
X16476600Y6589722D03*
%TD*%
M02*
