G04 EAGLE Gerber X2 export*
%TF.Part,Single*%
%TF.FileFunction,Copper,L1,Top,Mixed*%
%TF.FilePolarity,Positive*%
%TF.GenerationSoftware,Autodesk,EAGLE,9.6.2*%
%TF.CreationDate,2022-05-02T11:32:10Z*%
G75*
%MOMM*%
%FSLAX46Y46*%
%LPD*%
%INTop Copper*%
%AMOC8*
5,1,8,0,0,1.08239X$1,22.5*%
G01*
%ADD10R,1.500000X1.300000*%
%ADD11R,1.300000X1.500000*%
%ADD12C,1.524000*%
%ADD13R,1.200000X1.200000*%
%ADD14R,2.000000X2.000000*%
%ADD15R,0.550000X1.500000*%
%ADD16R,1.500000X0.550000*%
%ADD17R,2.950000X1.950000*%
%ADD18C,0.508000*%
%ADD19C,0.406400*%
%ADD20C,1.106400*%
%ADD21C,1.016000*%
%ADD22C,0.304800*%
%ADD23C,0.300000*%
%ADD24C,0.508000*%


D10*
X27311400Y7656700D03*
X27311400Y5756700D03*
D11*
X26251400Y14106700D03*
X24351400Y14106700D03*
D10*
X16081400Y17366700D03*
X16081400Y15466700D03*
X22271400Y15346700D03*
X22271400Y17246700D03*
X24341400Y18216700D03*
X24341400Y16316700D03*
D12*
X25261400Y4448700D02*
X25261400Y2924700D01*
X22721400Y2924700D02*
X22721400Y4448700D01*
X20181400Y4448700D02*
X20181400Y2924700D01*
X17641400Y2924700D02*
X17641400Y4448700D01*
X32970200Y40844800D02*
X34494200Y40844800D01*
X34494200Y38304800D02*
X32970200Y38304800D01*
X32970200Y35764800D02*
X34494200Y35764800D01*
X34494200Y33224800D02*
X32970200Y33224800D01*
X32970200Y30684800D02*
X34494200Y30684800D01*
X34494200Y28144800D02*
X32970200Y28144800D01*
X32970200Y25604800D02*
X34494200Y25604800D01*
X34494200Y23064800D02*
X32970200Y23064800D01*
X32970200Y20524800D02*
X34494200Y20524800D01*
X34494200Y17984800D02*
X32970200Y17984800D01*
X32970200Y15444800D02*
X34494200Y15444800D01*
X34494200Y12904800D02*
X32970200Y12904800D01*
X32970200Y10364800D02*
X34494200Y10364800D01*
X34494200Y7824800D02*
X32970200Y7824800D01*
X32970200Y5284800D02*
X34494200Y5284800D01*
X11760200Y40843200D02*
X10236200Y40843200D01*
X10236200Y38303200D02*
X11760200Y38303200D01*
X11760200Y35763200D02*
X10236200Y35763200D01*
X10236200Y33223200D02*
X11760200Y33223200D01*
X11760200Y30683200D02*
X10236200Y30683200D01*
X10236200Y28143200D02*
X11760200Y28143200D01*
X11760200Y25603200D02*
X10236200Y25603200D01*
X10236200Y23063200D02*
X11760200Y23063200D01*
X11760200Y20523200D02*
X10236200Y20523200D01*
X10236200Y17983200D02*
X11760200Y17983200D01*
X11760200Y15443200D02*
X10236200Y15443200D01*
X10236200Y12903200D02*
X11760200Y12903200D01*
X11760200Y10363200D02*
X10236200Y10363200D01*
X10236200Y7823200D02*
X11760200Y7823200D01*
X11760200Y5283200D02*
X10236200Y5283200D01*
D13*
X24241400Y12216700D03*
X26341400Y12216700D03*
X29571400Y40036700D03*
X29571400Y42136700D03*
D10*
X16091400Y13316700D03*
X16091400Y11416700D03*
X27511400Y39826700D03*
X27511400Y41726700D03*
X22231400Y11316700D03*
X22231400Y13216700D03*
D14*
X16731400Y7816700D03*
X24731400Y7816700D03*
D15*
X19211400Y21126700D03*
X20011400Y21126700D03*
X20811400Y21126700D03*
X21611400Y21126700D03*
X22411400Y21126700D03*
X23211400Y21126700D03*
X24011400Y21126700D03*
X24811400Y21126700D03*
D16*
X26211400Y22526700D03*
X26211400Y23326700D03*
X26211400Y24126700D03*
X26211400Y24926700D03*
X26211400Y25726700D03*
X26211400Y26526700D03*
X26211400Y27326700D03*
X26211400Y28126700D03*
D15*
X24811400Y29526700D03*
X24011400Y29526700D03*
X23211400Y29526700D03*
X22411400Y29526700D03*
X21611400Y29526700D03*
X20811400Y29526700D03*
X20011400Y29526700D03*
X19211400Y29526700D03*
D16*
X17811400Y28126700D03*
X17811400Y27326700D03*
X17811400Y26526700D03*
X17811400Y25726700D03*
X17811400Y24926700D03*
X17811400Y24126700D03*
X17811400Y23326700D03*
X17811400Y22526700D03*
D17*
X19101400Y18426700D03*
X19101400Y14126700D03*
D18*
X14400000Y1810000D03*
X32330000Y1800000D03*
X15320000Y41150000D03*
D19*
X22411400Y21126700D02*
X22411400Y18849900D01*
X22861400Y18399900D01*
X23229831Y18399900D01*
X23413031Y18216700D01*
X24341400Y18216700D01*
D20*
X29988200Y5666700D03*
D21*
X30420900Y5234000D01*
X33248700Y5234000D01*
D22*
X27511400Y39056700D02*
X27511400Y39826700D01*
X27511400Y39056700D02*
X27921400Y38646700D01*
D20*
X27921400Y38646700D03*
D23*
X27311400Y5756700D02*
X28771400Y5756700D01*
X29761400Y4766700D01*
X32781400Y4766700D01*
X33248700Y5234000D01*
D24*
X24341400Y16316700D02*
X23484875Y16316700D01*
X23250875Y16550700D01*
X22967400Y16550700D01*
X22271400Y17246700D01*
X24341400Y14116700D02*
X24351400Y14106700D01*
X24341400Y14116700D02*
X24341400Y15196700D01*
X24371400Y15226700D02*
X24371400Y16286700D01*
X24341400Y16316700D01*
X24371400Y15226700D02*
X24341400Y15196700D01*
D19*
X21611400Y19926863D02*
X21611400Y21126700D01*
X21611400Y19926863D02*
X21679600Y19858663D01*
X21679600Y17838500D01*
X22271400Y17246700D01*
D22*
X16833200Y15466700D02*
X16081400Y15466700D01*
X16833200Y15466700D02*
X17371400Y16004900D01*
D20*
X17371400Y16004900D03*
X24341400Y15196700D03*
D22*
X24341400Y16316700D02*
X25289200Y16316700D01*
X25369200Y16236700D01*
D20*
X25369200Y16236700D03*
X27593600Y16176700D03*
D22*
X27593600Y9944500D01*
X29988200Y7549900D02*
X29988200Y5666700D01*
X29988200Y7549900D02*
X27593600Y9944500D01*
D21*
X33681400Y5234000D02*
X33732200Y5284800D01*
X33681400Y5234000D02*
X33248700Y5234000D01*
D23*
X16106400Y11401700D02*
X16091400Y11416700D01*
X26341400Y12216700D02*
X26476400Y12081700D01*
X26576400Y11981700D01*
X26476400Y13881700D02*
X26251400Y14106700D01*
X26476400Y13881700D02*
X26476400Y13766700D01*
X26476400Y12081700D01*
D24*
X26486400Y18641700D02*
X25561400Y19566700D01*
X26486400Y18641700D02*
X26486400Y13776700D01*
X26476400Y13766700D01*
X26576400Y13781700D02*
X26251400Y14106700D01*
X26576400Y13781700D02*
X26576400Y11981700D01*
X24037400Y4910700D02*
X25261400Y3686700D01*
X24037400Y4910700D02*
X24037400Y4993806D01*
X22661400Y6369806D02*
X22661400Y8066700D01*
X22661400Y6369806D02*
X24037400Y4993806D01*
X22661400Y8066700D02*
X22411400Y8316700D01*
X20961400Y9766700D01*
X17361400Y9766700D01*
X16106400Y11021700D01*
X16106400Y11401700D01*
X22441400Y8316700D02*
X26341400Y12216700D01*
X22441400Y8316700D02*
X22411400Y8316700D01*
D19*
X23233200Y21104900D02*
X23211400Y21126700D01*
X23233200Y21104900D02*
X23233200Y20168269D01*
X23834769Y19566700D01*
X25561400Y19566700D01*
D22*
X29571400Y40036700D02*
X27881400Y41726700D01*
X27511400Y41726700D01*
X22231400Y13216700D02*
X23021400Y12426700D01*
X24031400Y12426700D02*
X24241400Y12216700D01*
X24031400Y12426700D02*
X23021400Y12426700D01*
D23*
X24811400Y29526700D02*
X25771400Y29526700D01*
X25851400Y29446700D01*
D20*
X25851400Y29446700D03*
X20561400Y11166700D03*
D23*
X20711400Y11316700D01*
X22231400Y11316700D01*
X22231400Y10082519D01*
X22414309Y9899609D01*
D20*
X22414309Y9899609D03*
X14373975Y8066700D03*
D23*
X13161400Y9279275D01*
X13161400Y9866700D01*
X12880800Y10147300D01*
D22*
X12664900Y10363200D01*
X10998200Y10363200D01*
D23*
X19101400Y18426700D02*
X20011400Y19336700D01*
X20011400Y21126700D01*
X19101400Y18426700D02*
X18041400Y17366700D01*
X16081400Y17366700D01*
D22*
X19101400Y17706700D02*
X19101400Y18426700D01*
X19101400Y17706700D02*
X19811400Y16996700D01*
D20*
X19811400Y16996700D03*
X16492975Y20987075D03*
D22*
X15986200Y20480300D01*
X10998200Y15492300D02*
X10998200Y15443200D01*
X10998200Y15492300D02*
X13669400Y18163500D01*
X14964863Y20480300D02*
X15986200Y20480300D01*
X14964863Y20480300D02*
X13669400Y19184838D01*
X13669400Y18163500D01*
D23*
X21026400Y17266700D02*
X21026400Y19588094D01*
X20811400Y19803094D01*
X20811400Y21126700D01*
X19601400Y14626700D02*
X19101400Y14126700D01*
X19601400Y14626700D02*
X20951400Y15976700D01*
X20951400Y16223094D01*
X21046400Y16318094D01*
X21046400Y17286700D01*
X21026400Y17266700D01*
D24*
X20321400Y15346700D02*
X22271400Y15346700D01*
X20321400Y15346700D02*
X19601400Y14626700D01*
D22*
X19101400Y14126700D02*
X19101400Y15706700D01*
X18871400Y15936700D01*
D20*
X18871400Y15936700D03*
X15381400Y19474700D03*
D22*
X14893494Y19073900D02*
X14274200Y18454606D01*
X14274200Y13346700D01*
X14980600Y19073900D02*
X15381400Y19474700D01*
X14980600Y19073900D02*
X14893494Y19073900D01*
X13830700Y12903200D02*
X10998200Y12903200D01*
X13830700Y12903200D02*
X14274200Y13346700D01*
D23*
X16531400Y7816700D02*
X16731400Y7816700D01*
X16051400Y13276700D02*
X16091400Y13316700D01*
X16731400Y7816700D02*
X16731400Y7596700D01*
X16731400Y6096700D01*
X17641400Y5186700D02*
X17641400Y3686700D01*
X17641400Y5186700D02*
X16731400Y6096700D01*
D22*
X17938800Y19854100D02*
X19211400Y21126700D01*
X17938800Y19854100D02*
X17439013Y19854100D01*
X16054013Y18469100D01*
X15144013Y18469100D02*
X14879000Y18204088D01*
X14879000Y13206700D01*
X14879000Y9449100D01*
X16731400Y7596700D01*
X16054013Y18469100D02*
X15144013Y18469100D01*
X16091400Y13316700D02*
X15981400Y13206700D01*
X14879000Y13206700D01*
X26211400Y28126700D02*
X31210300Y28126700D01*
X33732200Y25604800D01*
D23*
X30901400Y27326700D02*
X26211400Y27326700D01*
X31707400Y26520700D02*
X31707400Y25064669D01*
X31707400Y26520700D02*
X30901400Y27326700D01*
D22*
X31707400Y25064669D02*
X33707269Y23064800D01*
X33732200Y23064800D01*
D23*
X30647400Y26526700D02*
X26211400Y26526700D01*
X30647400Y26526700D02*
X31087400Y26086700D01*
X31087400Y23144669D01*
D22*
X33707269Y20524800D01*
X33732200Y20524800D01*
D23*
X30201400Y25726700D02*
X26211400Y25726700D01*
X30467400Y25460700D02*
X30467400Y22856138D01*
X30507400Y22816138D01*
X30467400Y25460700D02*
X30201400Y25726700D01*
D22*
X30507400Y22816138D02*
X30507400Y21209600D01*
X33732200Y17984800D01*
D23*
X29547400Y24926700D02*
X26211400Y24926700D01*
X29547400Y24926700D02*
X29847400Y24626700D01*
X29847400Y22687606D01*
X29857400Y22677606D01*
D22*
X29857400Y20602600D01*
X31800000Y18660000D01*
X31755800Y18487825D02*
X31755800Y17481775D01*
X31800000Y18532025D02*
X31800000Y18660000D01*
X31800000Y18532025D02*
X31755800Y18487825D01*
X33732200Y15505375D02*
X33732200Y15444800D01*
X33732200Y15505375D02*
X31755800Y17481775D01*
D23*
X29047400Y24126700D02*
X26211400Y24126700D01*
X29047400Y24126700D02*
X29227400Y23946700D01*
X29227400Y22349075D01*
D22*
X29227400Y20262600D01*
X33732200Y12965375D02*
X33732200Y12904800D01*
X31151000Y15546575D02*
X31151000Y18339000D01*
X31151000Y15546575D02*
X33732200Y12965375D01*
X31151000Y18339000D02*
X29227400Y20262600D01*
D23*
X28447400Y23326700D02*
X26211400Y23326700D01*
X28447400Y23326700D02*
X28597400Y23176700D01*
X28597400Y22140544D01*
D22*
X28597400Y19842600D01*
X30420000Y13677000D02*
X33732200Y10364800D01*
X30420000Y18020000D02*
X28597400Y19842600D01*
X30420000Y18020000D02*
X30420000Y13677000D01*
X27992600Y20745500D02*
X26211400Y22526700D01*
X27992600Y20745500D02*
X27992600Y19592081D01*
X29815200Y17769481D01*
X33732200Y7885375D02*
X33732200Y7824800D01*
X29815200Y11802375D02*
X29815200Y17769481D01*
X29815200Y11802375D02*
X33732200Y7885375D01*
D23*
X24011400Y29526700D02*
X24011400Y33216700D01*
X25061400Y34266700D01*
D22*
X27963300Y34266700D01*
X31755800Y30474200D02*
X31755800Y30181775D01*
X33732200Y28205375D02*
X33732200Y28144800D01*
X33732200Y28205375D02*
X31755800Y30181775D01*
X31755800Y30474200D02*
X27963300Y34266700D01*
D23*
X23211400Y34716700D02*
X23211400Y29526700D01*
X23211400Y34716700D02*
X23461400Y34966700D01*
D22*
X29866800Y34966700D01*
X31755800Y33077700D02*
X31755800Y32721775D01*
X33732200Y30745375D02*
X33732200Y30684800D01*
X33732200Y30745375D02*
X31755800Y32721775D01*
X31755800Y33077700D02*
X29866800Y34966700D01*
D23*
X22411400Y35149638D02*
X22411400Y29526700D01*
X22411400Y35149638D02*
X22954200Y35692438D01*
D22*
X30677763Y35692438D01*
X33145400Y33224800D02*
X33732200Y33224800D01*
X33145400Y33224800D02*
X30677763Y35692438D01*
D23*
X21611400Y35268169D02*
X21611400Y29526700D01*
X21611400Y35268169D02*
X22675666Y36332434D01*
D22*
X33164566Y36332434D01*
X33732200Y35764800D01*
D23*
X20811400Y35406700D02*
X20811400Y29526700D01*
X28776944Y36963500D02*
X29584844Y37771400D01*
X28776944Y36963500D02*
X22368200Y36963500D01*
X20811400Y35406700D01*
D22*
X29584844Y37771400D02*
X30118244Y38304800D01*
X33732200Y38304800D01*
D23*
X20011400Y34916700D02*
X20011400Y29526700D01*
X20011400Y34916700D02*
X16840800Y38087300D01*
D22*
X16624900Y38303200D01*
X10998200Y38303200D01*
D23*
X19211400Y33216700D02*
X19211400Y29526700D01*
X19211400Y33216700D02*
X16561400Y35866700D01*
D22*
X11101700Y35866700D01*
X10998200Y35763200D01*
D23*
X17811400Y32216700D02*
X17811400Y28126700D01*
X17811400Y32216700D02*
X17020800Y33007300D01*
D22*
X16804900Y33223200D01*
X10998200Y33223200D01*
D23*
X16620144Y27326700D02*
X17811400Y27326700D01*
X16620144Y27326700D02*
X16170772Y27776072D01*
D20*
X16170772Y27776072D03*
X18601400Y6796700D03*
D23*
X22721400Y4146700D02*
X22721400Y3686700D01*
X22721400Y4146700D02*
X20071400Y6796700D01*
X18601400Y6796700D01*
X17811400Y26526700D02*
X16001400Y26526700D01*
X14761400Y27766700D02*
X14761400Y30666700D01*
X14361400Y31066700D01*
X14761400Y27766700D02*
X16001400Y26526700D01*
D22*
X14361400Y31066700D02*
X11381700Y31066700D01*
X10998200Y30683200D01*
D23*
X14161400Y27357300D02*
X14161400Y26958169D01*
X15392869Y25726700D02*
X17811400Y25726700D01*
X15392869Y25726700D02*
X14161400Y26958169D01*
D22*
X14161400Y27357300D02*
X13375500Y28143200D01*
X10998200Y28143200D01*
D23*
X14864338Y24926700D02*
X17811400Y24926700D01*
X14864338Y24926700D02*
X14162869Y25628169D01*
D22*
X11023169Y25628169D01*
X10998200Y25603200D01*
X17738800Y24054100D02*
X17811400Y24126700D01*
X12905975Y23063200D02*
X10998200Y23063200D01*
X13896875Y24054100D02*
X17738800Y24054100D01*
X13896875Y24054100D02*
X12905975Y23063200D01*
D23*
X17760600Y23275900D02*
X17811400Y23326700D01*
X17760600Y23275900D02*
X14021400Y23275900D01*
D22*
X14021400Y23241600D01*
X11303000Y20523200D01*
X10998200Y20523200D01*
X17293800Y22009100D02*
X17811400Y22526700D01*
X17293800Y22009100D02*
X14287500Y22009100D01*
X12974600Y20696200D01*
X12974600Y20020175D01*
X10998200Y18043775D02*
X10998200Y17983200D01*
X10998200Y18043775D02*
X12974600Y20020175D01*
X24811400Y21126700D02*
X24821400Y21116700D01*
X25931400Y21116700D01*
D20*
X25931400Y21116700D03*
X14761400Y5006700D03*
D22*
X13261400Y6506700D01*
X13261400Y7256700D01*
X12694900Y7823200D02*
X10998200Y7823200D01*
X12694900Y7823200D02*
X13261400Y7256700D01*
D23*
X24891400Y7656700D02*
X27311400Y7656700D01*
X24891400Y7656700D02*
X24731400Y7816700D01*
M02*
