G04 EAGLE Gerber X2 export*
%TF.Part,Single*%
%TF.FileFunction,Copper,L1,Top,Mixed*%
%TF.FilePolarity,Positive*%
%TF.GenerationSoftware,Autodesk,EAGLE,9.6.2*%
%TF.CreationDate,2022-05-08T16:50:48Z*%
G75*
%MOMM*%
%FSLAX46Y46*%
%LPD*%
%INTop Copper*%
%AMOC8*
5,1,8,0,0,1.08239X$1,22.5*%
G01*
%ADD10R,1.500000X1.300000*%
%ADD11R,1.300000X1.500000*%
%ADD12C,1.524000*%
%ADD13R,1.200000X1.200000*%
%ADD14R,2.000000X2.000000*%
%ADD15R,0.550000X1.500000*%
%ADD16R,1.500000X0.550000*%
%ADD17R,2.950000X1.950000*%
%ADD18C,0.508000*%
%ADD19R,2.000000X1.500000*%
%ADD20R,2.000000X3.800000*%
%ADD21C,0.406400*%
%ADD22C,1.050000*%
%ADD23C,1.016000*%
%ADD24C,0.300000*%
%ADD25C,0.508000*%
%ADD26C,0.304800*%
%ADD27C,0.812800*%
%ADD28C,0.254000*%


D10*
X18167400Y7402700D03*
X18167400Y5502700D03*
D11*
X17107400Y13852700D03*
X15207400Y13852700D03*
D10*
X6937400Y17112700D03*
X6937400Y15212700D03*
X13127400Y15092700D03*
X13127400Y16992700D03*
X5018400Y41063700D03*
X5018400Y39163700D03*
X17813400Y37821700D03*
X17813400Y35921700D03*
X19668400Y39044700D03*
X19668400Y37144700D03*
X7128400Y41063700D03*
X7128400Y39163700D03*
X15197400Y17962700D03*
X15197400Y16062700D03*
D12*
X16117400Y4194700D02*
X16117400Y2670700D01*
X13577400Y2670700D02*
X13577400Y4194700D01*
X11037400Y4194700D02*
X11037400Y2670700D01*
X8497400Y2670700D02*
X8497400Y4194700D01*
X23826200Y40590800D02*
X25350200Y40590800D01*
X25350200Y38050800D02*
X23826200Y38050800D01*
X23826200Y35510800D02*
X25350200Y35510800D01*
X25350200Y32970800D02*
X23826200Y32970800D01*
X23826200Y30430800D02*
X25350200Y30430800D01*
X25350200Y27890800D02*
X23826200Y27890800D01*
X23826200Y25350800D02*
X25350200Y25350800D01*
X25350200Y22810800D02*
X23826200Y22810800D01*
X23826200Y20270800D02*
X25350200Y20270800D01*
X25350200Y17730800D02*
X23826200Y17730800D01*
X23826200Y15190800D02*
X25350200Y15190800D01*
X25350200Y12650800D02*
X23826200Y12650800D01*
X23826200Y10110800D02*
X25350200Y10110800D01*
X25350200Y7570800D02*
X23826200Y7570800D01*
X23826200Y5030800D02*
X25350200Y5030800D01*
X2616200Y40589200D02*
X1092200Y40589200D01*
X1092200Y38049200D02*
X2616200Y38049200D01*
X2616200Y35509200D02*
X1092200Y35509200D01*
X1092200Y32969200D02*
X2616200Y32969200D01*
X2616200Y30429200D02*
X1092200Y30429200D01*
X1092200Y27889200D02*
X2616200Y27889200D01*
X2616200Y25349200D02*
X1092200Y25349200D01*
X1092200Y22809200D02*
X2616200Y22809200D01*
X2616200Y20269200D02*
X1092200Y20269200D01*
X1092200Y17729200D02*
X2616200Y17729200D01*
X2616200Y15189200D02*
X1092200Y15189200D01*
X1092200Y12649200D02*
X2616200Y12649200D01*
X2616200Y10109200D02*
X1092200Y10109200D01*
X1092200Y7569200D02*
X2616200Y7569200D01*
X2616200Y5029200D02*
X1092200Y5029200D01*
D13*
X15097400Y11962700D03*
X17197400Y11962700D03*
X17799600Y41751300D03*
X17799600Y39651300D03*
D10*
X6947400Y13062700D03*
X6947400Y11162700D03*
D11*
X21641300Y41481400D03*
X19741300Y41481400D03*
D10*
X13087400Y11062700D03*
X13087400Y12962700D03*
D14*
X7587400Y7562700D03*
X15587400Y7562700D03*
D15*
X10067400Y20872700D03*
X10867400Y20872700D03*
X11667400Y20872700D03*
X12467400Y20872700D03*
X13267400Y20872700D03*
X14067400Y20872700D03*
X14867400Y20872700D03*
X15667400Y20872700D03*
D16*
X17067400Y22272700D03*
X17067400Y23072700D03*
X17067400Y23872700D03*
X17067400Y24672700D03*
X17067400Y25472700D03*
X17067400Y26272700D03*
X17067400Y27072700D03*
X17067400Y27872700D03*
D15*
X15667400Y29272700D03*
X14867400Y29272700D03*
X14067400Y29272700D03*
X13267400Y29272700D03*
X12467400Y29272700D03*
X11667400Y29272700D03*
X10867400Y29272700D03*
X10067400Y29272700D03*
D16*
X8667400Y27872700D03*
X8667400Y27072700D03*
X8667400Y26272700D03*
X8667400Y25472700D03*
X8667400Y24672700D03*
X8667400Y23872700D03*
X8667400Y23072700D03*
X8667400Y22272700D03*
D17*
X9957400Y18172700D03*
X9957400Y13872700D03*
D18*
X4621000Y2445000D03*
X23821000Y1292000D03*
X4017000Y36705000D03*
D19*
X15723000Y36943000D03*
X15723000Y39243000D03*
X15723000Y41543000D03*
D20*
X9423000Y39243000D03*
D21*
X13267400Y20872700D02*
X13267400Y18595900D01*
X13717400Y18145900D01*
X14085831Y18145900D01*
X14269031Y17962700D01*
X15197400Y17962700D01*
D22*
X20844200Y5412700D03*
D23*
X21276900Y4980000D01*
X24104700Y4980000D01*
D24*
X19627400Y5502700D02*
X18167400Y5502700D01*
X19627400Y5502700D02*
X20617400Y4512700D01*
X23637400Y4512700D01*
X24104700Y4980000D01*
D25*
X15197400Y16062700D02*
X14340875Y16062700D01*
X14106875Y16296700D01*
X13823400Y16296700D01*
X13127400Y16992700D01*
X15197400Y13862700D02*
X15207400Y13852700D01*
X15197400Y13862700D02*
X15197400Y14942700D01*
X15227400Y14972700D02*
X15227400Y16032700D01*
X15197400Y16062700D01*
X15227400Y14972700D02*
X15197400Y14942700D01*
D21*
X12467400Y19672863D02*
X12467400Y20872700D01*
X12467400Y19672863D02*
X12535600Y19604663D01*
X12535600Y17584500D01*
X13127400Y16992700D01*
D26*
X7689200Y15212700D02*
X6937400Y15212700D01*
X7689200Y15212700D02*
X8227400Y15750900D01*
D22*
X8227400Y15750900D03*
X15197400Y14942700D03*
D26*
X15197400Y16062700D02*
X16145200Y16062700D01*
X16225200Y15982700D01*
D22*
X16225200Y15982700D03*
X18449600Y15922700D03*
D26*
X18449600Y9690500D01*
X20844200Y7295900D02*
X20844200Y5412700D01*
X20844200Y7295900D02*
X18449600Y9690500D01*
D23*
X24537400Y4980000D02*
X24588200Y5030800D01*
X24537400Y4980000D02*
X24104700Y4980000D01*
X17813400Y35921700D02*
X17808100Y35927000D01*
X19480700Y36957000D02*
X19668400Y37144700D01*
X17921100Y35814000D02*
X17813400Y35921700D01*
X7128400Y39163700D02*
X5018400Y39163700D01*
X7128400Y39163700D02*
X7665000Y38627100D01*
X7665000Y37029025D01*
X8245025Y36449000D01*
X15229000Y36449000D02*
X15723000Y36943000D01*
X15229000Y36449000D02*
X8245025Y36449000D01*
X18048100Y35687000D02*
X19939000Y35687000D01*
X18048100Y35687000D02*
X17813400Y35921700D01*
D22*
X19939000Y35687000D03*
D24*
X21641300Y41481400D02*
X22196900Y42037000D01*
X22860000Y42037000D01*
D22*
X22860000Y42037000D03*
D23*
X17813400Y35921700D02*
X15756300Y35921700D01*
X15229000Y36449000D01*
X19668400Y35957600D02*
X19668400Y37144700D01*
X19668400Y35957600D02*
X19939000Y35687000D01*
D24*
X6947400Y11162700D02*
X6962400Y11147700D01*
X17197400Y11962700D02*
X17332400Y11827700D01*
X17432400Y11727700D01*
X17332400Y13627700D02*
X17107400Y13852700D01*
X17332400Y13627700D02*
X17332400Y13512700D01*
X17332400Y11827700D01*
D25*
X17342400Y18387700D02*
X16417400Y19312700D01*
X17342400Y18387700D02*
X17342400Y13522700D01*
X17332400Y13512700D01*
X17432400Y13527700D02*
X17107400Y13852700D01*
X17432400Y13527700D02*
X17432400Y11727700D01*
X14893400Y4656700D02*
X16117400Y3432700D01*
X14893400Y4656700D02*
X14893400Y4739806D01*
X13517400Y6115806D02*
X13517400Y7812700D01*
X13517400Y6115806D02*
X14893400Y4739806D01*
X13517400Y7812700D02*
X13267400Y8062700D01*
X11817400Y9512700D01*
X8217400Y9512700D01*
X6962400Y10767700D01*
X6962400Y11147700D01*
X13297400Y8062700D02*
X17197400Y11962700D01*
X13297400Y8062700D02*
X13267400Y8062700D01*
D21*
X14089200Y20850900D02*
X14067400Y20872700D01*
X14089200Y20850900D02*
X14089200Y19914269D01*
X14690769Y19312700D01*
X16417400Y19312700D01*
D23*
X15723000Y39243000D02*
X9423000Y39243000D01*
D27*
X19588400Y38964700D02*
X19668400Y39044700D01*
D23*
X16128300Y38837700D02*
X15723000Y39243000D01*
X16131300Y39651300D01*
X17799600Y39651300D01*
X19569800Y39651300D01*
X19315800Y39397300D02*
X19668400Y39044700D01*
X23748400Y39751000D02*
X24588200Y40590800D01*
X19669500Y39751000D02*
X19569800Y39651300D01*
X19315800Y39397300D01*
X19669500Y39751000D02*
X23748400Y39751000D01*
X17813400Y39637500D02*
X17799600Y39651300D01*
X17799600Y37835500D01*
X17813400Y37821700D01*
X2328700Y41063700D02*
X1854200Y40589200D01*
X2328700Y41063700D02*
X5018400Y41063700D01*
X7128400Y41063700D01*
X8101700Y42037000D01*
X13970000Y42037000D01*
X14464000Y41543000D02*
X15723000Y41543000D01*
X14464000Y41543000D02*
X13970000Y42037000D01*
D24*
X19323600Y41063700D02*
X19741300Y41481400D01*
D28*
X19471400Y41751300D02*
X17799600Y41751300D01*
X19471400Y41751300D02*
X19741300Y41481400D01*
D26*
X13087400Y12962700D02*
X13877400Y12172700D01*
X14887400Y12172700D02*
X15097400Y11962700D01*
X14887400Y12172700D02*
X13877400Y12172700D01*
D24*
X15667400Y29272700D02*
X16627400Y29272700D01*
X16707400Y29192700D01*
D22*
X16707400Y29192700D03*
X11417400Y10912700D03*
D24*
X11567400Y11062700D01*
X13087400Y11062700D01*
X13087400Y9828519D01*
X13270309Y9645609D01*
D22*
X13270309Y9645609D03*
X5229975Y7812700D03*
D24*
X4017400Y9025275D01*
X4017400Y9612700D01*
X3736800Y9893300D01*
D26*
X3520900Y10109200D01*
X1854200Y10109200D01*
D24*
X9957400Y18172700D02*
X10867400Y19082700D01*
X10867400Y20872700D01*
X9957400Y18172700D02*
X8897400Y17112700D01*
X6937400Y17112700D01*
D26*
X9957400Y17452700D02*
X9957400Y18172700D01*
X9957400Y17452700D02*
X10667400Y16742700D01*
D22*
X10667400Y16742700D03*
X7348975Y20733075D03*
D26*
X6842200Y20226300D01*
X1854200Y15238300D02*
X1854200Y15189200D01*
X1854200Y15238300D02*
X4525400Y17909500D01*
X5820863Y20226300D02*
X6842200Y20226300D01*
X5820863Y20226300D02*
X4525400Y18930838D01*
X4525400Y17909500D01*
D24*
X11882400Y17012700D02*
X11882400Y19334094D01*
X11667400Y19549094D01*
X11667400Y20872700D01*
X10457400Y14372700D02*
X9957400Y13872700D01*
X10457400Y14372700D02*
X11807400Y15722700D01*
X11807400Y15969094D01*
X11902400Y16064094D01*
X11902400Y17032700D01*
X11882400Y17012700D01*
D25*
X11177400Y15092700D02*
X13127400Y15092700D01*
X11177400Y15092700D02*
X10457400Y14372700D01*
D26*
X9957400Y13872700D02*
X9957400Y15452700D01*
X9727400Y15682700D01*
D22*
X9727400Y15682700D03*
X6237400Y19220700D03*
D26*
X5749494Y18819900D02*
X5130200Y18200606D01*
X5130200Y13092700D01*
X5836600Y18819900D02*
X6237400Y19220700D01*
X5836600Y18819900D02*
X5749494Y18819900D01*
X4686700Y12649200D02*
X1854200Y12649200D01*
X4686700Y12649200D02*
X5130200Y13092700D01*
D24*
X7387400Y7562700D02*
X7587400Y7562700D01*
X6907400Y13022700D02*
X6947400Y13062700D01*
X7587400Y7562700D02*
X7587400Y7342700D01*
X7587400Y5842700D01*
X8497400Y4932700D02*
X8497400Y3432700D01*
X8497400Y4932700D02*
X7587400Y5842700D01*
D26*
X8794800Y19600100D02*
X10067400Y20872700D01*
X8794800Y19600100D02*
X8295013Y19600100D01*
X6910013Y18215100D01*
X6000013Y18215100D02*
X5735000Y17950088D01*
X5735000Y12952700D01*
X5735000Y9195100D01*
X7587400Y7342700D01*
X6910013Y18215100D02*
X6000013Y18215100D01*
X6947400Y13062700D02*
X6837400Y12952700D01*
X5735000Y12952700D01*
X17067400Y27872700D02*
X22066300Y27872700D01*
X24588200Y25350800D01*
D24*
X21757400Y27072700D02*
X17067400Y27072700D01*
X22563400Y26266700D02*
X22563400Y24810669D01*
X22563400Y26266700D02*
X21757400Y27072700D01*
D26*
X22563400Y24810669D02*
X24563269Y22810800D01*
X24588200Y22810800D01*
D24*
X21503400Y26272700D02*
X17067400Y26272700D01*
X21503400Y26272700D02*
X21943400Y25832700D01*
X21943400Y22890669D01*
D26*
X24563269Y20270800D01*
X24588200Y20270800D01*
D24*
X21057400Y25472700D02*
X17067400Y25472700D01*
X21323400Y25206700D02*
X21323400Y22602138D01*
X21363400Y22562138D01*
X21323400Y25206700D02*
X21057400Y25472700D01*
D26*
X21363400Y22562138D02*
X21363400Y20955600D01*
X24588200Y17730800D01*
D24*
X20403400Y24672700D02*
X17067400Y24672700D01*
X20403400Y24672700D02*
X20703400Y24372700D01*
X20703400Y22433606D01*
X20713400Y22423606D01*
D26*
X20713400Y20348600D01*
X22656000Y18406000D01*
X22611800Y18233825D02*
X22611800Y17227775D01*
X22656000Y18278025D02*
X22656000Y18406000D01*
X22656000Y18278025D02*
X22611800Y18233825D01*
X24588200Y15251375D02*
X24588200Y15190800D01*
X24588200Y15251375D02*
X22611800Y17227775D01*
D24*
X19903400Y23872700D02*
X17067400Y23872700D01*
X19903400Y23872700D02*
X20083400Y23692700D01*
X20083400Y22095075D01*
D26*
X20083400Y20008600D01*
X24588200Y12711375D02*
X24588200Y12650800D01*
X22007000Y15292575D02*
X22007000Y18085000D01*
X22007000Y15292575D02*
X24588200Y12711375D01*
X22007000Y18085000D02*
X20083400Y20008600D01*
D24*
X19303400Y23072700D02*
X17067400Y23072700D01*
X19303400Y23072700D02*
X19453400Y22922700D01*
X19453400Y21886544D01*
D26*
X19453400Y19588600D01*
X21276000Y13423000D02*
X24588200Y10110800D01*
X21276000Y17766000D02*
X19453400Y19588600D01*
X21276000Y17766000D02*
X21276000Y13423000D01*
X18848600Y20491500D02*
X17067400Y22272700D01*
X18848600Y20491500D02*
X18848600Y19338081D01*
X20671200Y17515481D01*
X24588200Y7631375D02*
X24588200Y7570800D01*
X20671200Y11548375D02*
X20671200Y17515481D01*
X20671200Y11548375D02*
X24588200Y7631375D01*
D24*
X14867400Y29272700D02*
X14992400Y29397700D01*
X14992400Y30188388D01*
X15792013Y30988000D01*
X21491000Y30988000D02*
X24588200Y27890800D01*
X21491000Y30988000D02*
X15792013Y30988000D01*
X14192400Y29397700D02*
X14067400Y29272700D01*
X14192400Y29397700D02*
X14192400Y30188388D01*
X15627013Y31623000D01*
X23396000Y31623000D02*
X24588200Y30430800D01*
X23396000Y31623000D02*
X15627013Y31623000D01*
X13392400Y29397700D02*
X13267400Y29272700D01*
X13392400Y29397700D02*
X13392400Y30188388D01*
X16605013Y33401000D01*
X24158000Y33401000D02*
X24588200Y32970800D01*
X24158000Y33401000D02*
X16605013Y33401000D01*
X12592400Y29397700D02*
X12467400Y29272700D01*
X12592400Y29397700D02*
X12592400Y30188388D01*
X22445619Y35510800D02*
X24588200Y35510800D01*
X22445619Y35510800D02*
X21055819Y34121000D01*
X16525013Y34121000D02*
X12592400Y30188388D01*
X16525013Y34121000D02*
X21055819Y34121000D01*
X11792400Y29397700D02*
X11667400Y29272700D01*
X11792400Y29397700D02*
X11792400Y30188388D01*
X16275013Y34671000D01*
X20828000Y34671000D01*
X21463000Y35306000D01*
X21463000Y37846000D01*
X21667800Y38050800D01*
X24588200Y38050800D01*
X10867400Y29272700D02*
X10742400Y29397700D01*
X10742400Y31691419D01*
X4384619Y38049200D01*
X1854200Y38049200D01*
D26*
X1957700Y35612700D02*
X1854200Y35509200D01*
D24*
X6146800Y35509200D01*
X10067400Y31588600D02*
X10067400Y29272700D01*
X10067400Y31588600D02*
X6146800Y35509200D01*
X8667400Y31962700D02*
X8667400Y27872700D01*
X8667400Y31962700D02*
X7876800Y32753300D01*
D26*
X7660900Y32969200D01*
X1854200Y32969200D01*
D24*
X7476144Y27072700D02*
X8667400Y27072700D01*
X7476144Y27072700D02*
X7026772Y27522072D01*
D22*
X7026772Y27522072D03*
X9457400Y6542700D03*
D24*
X13577400Y3892700D02*
X13577400Y3432700D01*
X13577400Y3892700D02*
X10927400Y6542700D01*
X9457400Y6542700D01*
X8667400Y26272700D02*
X6857400Y26272700D01*
X5617400Y27512700D02*
X5617400Y30412700D01*
X5217400Y30812700D01*
X5617400Y27512700D02*
X6857400Y26272700D01*
D26*
X5217400Y30812700D02*
X2237700Y30812700D01*
X1854200Y30429200D01*
D24*
X5017400Y27103300D02*
X5017400Y26704169D01*
X6248869Y25472700D02*
X8667400Y25472700D01*
X6248869Y25472700D02*
X5017400Y26704169D01*
D26*
X5017400Y27103300D02*
X4231500Y27889200D01*
X1854200Y27889200D01*
D24*
X5720338Y24672700D02*
X8667400Y24672700D01*
X5720338Y24672700D02*
X5018869Y25374169D01*
D26*
X1879169Y25374169D01*
X1854200Y25349200D01*
X8594800Y23800100D02*
X8667400Y23872700D01*
X3761975Y22809200D02*
X1854200Y22809200D01*
X4752875Y23800100D02*
X8594800Y23800100D01*
X4752875Y23800100D02*
X3761975Y22809200D01*
D24*
X8616600Y23021900D02*
X8667400Y23072700D01*
X8616600Y23021900D02*
X4877400Y23021900D01*
D26*
X4877400Y22987600D01*
X2159000Y20269200D01*
X1854200Y20269200D01*
X8149800Y21755100D02*
X8667400Y22272700D01*
X8149800Y21755100D02*
X5143500Y21755100D01*
X3830600Y20442200D01*
X3830600Y19766175D01*
X1854200Y17789775D02*
X1854200Y17729200D01*
X1854200Y17789775D02*
X3830600Y19766175D01*
X15667400Y20872700D02*
X15677400Y20862700D01*
X16787400Y20862700D01*
D22*
X16787400Y20862700D03*
X5617400Y4752700D03*
D26*
X4117400Y6252700D01*
X4117400Y7002700D01*
X3550900Y7569200D02*
X1854200Y7569200D01*
X3550900Y7569200D02*
X4117400Y7002700D01*
D24*
X15747400Y7402700D02*
X18167400Y7402700D01*
X15747400Y7402700D02*
X15587400Y7562700D01*
M02*
