G04 EAGLE Gerber X2 export*
%TF.Part,Single*%
%TF.FileFunction,Copper,L2,Bot,Mixed*%
%TF.FilePolarity,Positive*%
%TF.GenerationSoftware,Autodesk,EAGLE,9.6.2*%
%TF.CreationDate,2022-05-08T12:24:25Z*%
G75*
%MOMM*%
%FSLAX46Y46*%
%LPD*%
%INBottom Copper*%
%AMOC8*
5,1,8,0,0,1.08239X$1,22.5*%
G01*
%ADD10R,1.500000X1.300000*%
%ADD11R,1.500000X2.000000*%
%ADD12R,3.800000X2.000000*%
%ADD13C,1.524000*%
%ADD14C,0.508000*%
%ADD15C,1.016000*%
%ADD16C,1.106400*%
%ADD17C,0.304800*%
%ADD18C,0.300000*%

G36*
X19337359Y6243953D02*
X19337359Y6243953D01*
X19344616Y6243703D01*
X19369159Y6245950D01*
X19393719Y6247494D01*
X19400841Y6248850D01*
X19408069Y6249513D01*
X19432116Y6254809D01*
X19456309Y6259419D01*
X19463216Y6261659D01*
X19470294Y6263219D01*
X19493456Y6271472D01*
X19516916Y6279084D01*
X19523491Y6282175D01*
X19530316Y6284606D01*
X19552294Y6295709D01*
X19574584Y6306184D01*
X19580703Y6310063D01*
X19587188Y6313338D01*
X19607647Y6327138D01*
X19628406Y6340291D01*
X19633991Y6344903D01*
X19640016Y6348966D01*
X19657344Y6364188D01*
X19677538Y6380863D01*
X19683300Y6386984D01*
X19689334Y6392288D01*
X22650831Y9353784D01*
X22658338Y9362297D01*
X22666528Y9370197D01*
X22679413Y9386200D01*
X22692972Y9401575D01*
X22699356Y9410966D01*
X22706491Y9419825D01*
X22717263Y9437300D01*
X22728800Y9454269D01*
X22733969Y9464400D01*
X22739925Y9474066D01*
X22748413Y9492722D01*
X22757750Y9511031D01*
X22761613Y9521738D01*
X22766309Y9532066D01*
X22772394Y9551638D01*
X22779366Y9570969D01*
X22781853Y9582066D01*
X22785225Y9592909D01*
X22788819Y9613131D01*
X22793306Y9633144D01*
X22794384Y9644441D01*
X22796375Y9655644D01*
X22797409Y9676172D01*
X22799356Y9696575D01*
X22799013Y9707916D01*
X22799584Y9719281D01*
X22798044Y9739759D01*
X22797419Y9760263D01*
X22795653Y9771491D01*
X22794800Y9782822D01*
X22790709Y9802928D01*
X22787522Y9823206D01*
X22784363Y9834131D01*
X22782100Y9845259D01*
X22775763Y9863875D01*
X22769825Y9884419D01*
X22764822Y9896025D01*
X22764200Y9897853D01*
X22764200Y10322041D01*
X22925881Y10712375D01*
X23235097Y11021591D01*
X23245316Y11033178D01*
X23256281Y11044103D01*
X23266388Y11057075D01*
X23277238Y11069381D01*
X23285919Y11082150D01*
X23295438Y11094369D01*
X23303844Y11108513D01*
X23313066Y11122075D01*
X23320084Y11135834D01*
X23327994Y11149144D01*
X23334553Y11164203D01*
X23342016Y11178838D01*
X23347269Y11193409D01*
X23353434Y11207563D01*
X23358047Y11223288D01*
X23363631Y11238775D01*
X23367019Y11253884D01*
X23371366Y11268706D01*
X23373978Y11284919D01*
X23377572Y11300950D01*
X23379041Y11316344D01*
X23381500Y11331613D01*
X23382063Y11348031D01*
X23383622Y11364381D01*
X23383153Y11379834D01*
X23383681Y11395294D01*
X23382184Y11411650D01*
X23381684Y11428069D01*
X23379281Y11443353D01*
X23377872Y11458747D01*
X23374338Y11474788D01*
X23371788Y11491013D01*
X23367491Y11505869D01*
X23364166Y11520972D01*
X23358656Y11536438D01*
X23354091Y11552225D01*
X23347966Y11566434D01*
X23342778Y11580994D01*
X23335375Y11595647D01*
X23328869Y11610741D01*
X23321013Y11624072D01*
X23314044Y11637866D01*
X23304859Y11651484D01*
X23296522Y11665634D01*
X23287075Y11677856D01*
X23278419Y11690694D01*
X23267888Y11702681D01*
X23257556Y11716050D01*
X23245625Y11728025D01*
X23235097Y11740013D01*
X22925878Y12049228D01*
X22764200Y12439556D01*
X22764200Y12862041D01*
X22925878Y13252369D01*
X22982697Y13309184D01*
X22992950Y13320813D01*
X23003881Y13331703D01*
X23013966Y13344650D01*
X23024838Y13356978D01*
X23033525Y13369753D01*
X23043041Y13381969D01*
X23051441Y13396100D01*
X23060666Y13409669D01*
X23067694Y13423447D01*
X23075594Y13436741D01*
X23082150Y13451791D01*
X23089616Y13466431D01*
X23094866Y13480988D01*
X23101038Y13495159D01*
X23105659Y13510916D01*
X23111231Y13526369D01*
X23114616Y13541459D01*
X23118969Y13556303D01*
X23121581Y13572519D01*
X23125175Y13588544D01*
X23126644Y13603944D01*
X23129103Y13619209D01*
X23129666Y13635622D01*
X23131225Y13651975D01*
X23130756Y13667431D01*
X23131284Y13682891D01*
X23129788Y13699247D01*
X23129288Y13715663D01*
X23126884Y13730944D01*
X23125475Y13746344D01*
X23121941Y13762388D01*
X23119391Y13778609D01*
X23115097Y13793463D01*
X23111769Y13808569D01*
X23106256Y13824044D01*
X23101694Y13839819D01*
X23095572Y13854022D01*
X23090381Y13868591D01*
X23082978Y13883244D01*
X23076475Y13898334D01*
X23068622Y13911663D01*
X23061650Y13925463D01*
X23052469Y13939075D01*
X23044128Y13953231D01*
X23034663Y13965475D01*
X23026022Y13978291D01*
X23015519Y13990250D01*
X23005163Y14003647D01*
X22993206Y14015650D01*
X22982700Y14027609D01*
X17149597Y19860709D01*
X17144166Y19865497D01*
X17139206Y19870809D01*
X17120247Y19886591D01*
X17101806Y19902850D01*
X17095822Y19906919D01*
X17090231Y19911572D01*
X17069431Y19924863D01*
X17049113Y19938678D01*
X17042659Y19941969D01*
X17036538Y19945881D01*
X17014266Y19956450D01*
X16992350Y19967628D01*
X16985531Y19970088D01*
X16978972Y19973200D01*
X16955572Y19980891D01*
X16932413Y19989244D01*
X16925334Y19990831D01*
X16918441Y19993097D01*
X16894234Y19997803D01*
X16870238Y20003184D01*
X16863028Y20003872D01*
X16855894Y20005259D01*
X16832825Y20006753D01*
X16806806Y20009234D01*
X16798428Y20008978D01*
X16790388Y20009500D01*
X16617688Y20009500D01*
X16304097Y20139394D01*
X16064094Y20379397D01*
X15934200Y20692988D01*
X15934200Y21032409D01*
X16064094Y21346000D01*
X16304097Y21586003D01*
X16617688Y21715897D01*
X16957109Y21715897D01*
X17270700Y21586003D01*
X17510703Y21346000D01*
X17640597Y21032409D01*
X17640597Y20859709D01*
X17641053Y20852475D01*
X17640803Y20845219D01*
X17643050Y20820675D01*
X17644594Y20796116D01*
X17645950Y20788994D01*
X17646613Y20781766D01*
X17651909Y20757719D01*
X17656519Y20733525D01*
X17658759Y20726619D01*
X17660319Y20719541D01*
X17668594Y20696316D01*
X17676184Y20672919D01*
X17679275Y20666344D01*
X17681706Y20659519D01*
X17692809Y20637541D01*
X17703284Y20615250D01*
X17707163Y20609131D01*
X17710438Y20602647D01*
X17724238Y20582188D01*
X17737391Y20561428D01*
X17742003Y20555844D01*
X17746066Y20549819D01*
X17761288Y20532491D01*
X17777963Y20512297D01*
X17784084Y20506534D01*
X17789388Y20500500D01*
X22352488Y15937397D01*
X22364094Y15927163D01*
X22375003Y15916213D01*
X22387947Y15906128D01*
X22400278Y15895256D01*
X22413072Y15886556D01*
X22425269Y15877056D01*
X22439388Y15868666D01*
X22452972Y15859428D01*
X22466753Y15852400D01*
X22480044Y15844500D01*
X22495094Y15837944D01*
X22509734Y15830478D01*
X22524291Y15825228D01*
X22538463Y15819056D01*
X22554209Y15814438D01*
X22569672Y15808863D01*
X22584775Y15805475D01*
X22599603Y15801128D01*
X22615816Y15798516D01*
X22631847Y15794922D01*
X22647247Y15793453D01*
X22662513Y15790994D01*
X22678925Y15790431D01*
X22695278Y15788872D01*
X22710734Y15789341D01*
X22726194Y15788813D01*
X22742550Y15790309D01*
X22758966Y15790809D01*
X22774247Y15793213D01*
X22789644Y15794622D01*
X22805688Y15798156D01*
X22821909Y15800706D01*
X22836759Y15805000D01*
X22851872Y15808328D01*
X22867350Y15813844D01*
X22883122Y15818403D01*
X22897313Y15824519D01*
X22911894Y15829716D01*
X22926581Y15837134D01*
X22941634Y15843625D01*
X22954934Y15851463D01*
X22968766Y15858450D01*
X22982394Y15867641D01*
X22996531Y15875972D01*
X23008772Y15885431D01*
X23021591Y15894078D01*
X23033550Y15904581D01*
X23046947Y15914938D01*
X23058950Y15926894D01*
X23070909Y15937400D01*
X23235100Y16101594D01*
X23245313Y16113175D01*
X23256281Y16124103D01*
X23266400Y16137091D01*
X23277241Y16149388D01*
X23285916Y16162144D01*
X23295438Y16174369D01*
X23303841Y16188506D01*
X23313069Y16202078D01*
X23320088Y16215844D01*
X23327994Y16229144D01*
X23334556Y16244216D01*
X23342016Y16258841D01*
X23347263Y16273391D01*
X23353434Y16287563D01*
X23358056Y16303319D01*
X23363631Y16318781D01*
X23367013Y16333866D01*
X23371366Y16348706D01*
X23373981Y16364944D01*
X23377572Y16380956D01*
X23379038Y16396334D01*
X23381500Y16411613D01*
X23382063Y16428038D01*
X23383622Y16444384D01*
X23383153Y16459838D01*
X23383681Y16475294D01*
X23382184Y16491647D01*
X23381684Y16508075D01*
X23379281Y16523366D01*
X23377872Y16538747D01*
X23374341Y16554772D01*
X23371788Y16571019D01*
X23367491Y16585881D01*
X23364166Y16600972D01*
X23358650Y16616453D01*
X23354088Y16632228D01*
X23347975Y16646409D01*
X23342778Y16660994D01*
X23335363Y16675672D01*
X23328866Y16690744D01*
X23321019Y16704063D01*
X23314044Y16717866D01*
X23304863Y16731481D01*
X23296519Y16745641D01*
X23287069Y16757866D01*
X23278419Y16770694D01*
X23267888Y16782681D01*
X23257553Y16796053D01*
X23245631Y16808019D01*
X23235097Y16820013D01*
X22925878Y17129228D01*
X22764200Y17519556D01*
X22764200Y17942041D01*
X22925881Y18332375D01*
X23235097Y18641591D01*
X23245316Y18653178D01*
X23256281Y18664103D01*
X23266388Y18677075D01*
X23277238Y18689381D01*
X23285919Y18702150D01*
X23295438Y18714369D01*
X23303844Y18728513D01*
X23313066Y18742075D01*
X23320084Y18755834D01*
X23327994Y18769144D01*
X23334553Y18784203D01*
X23342016Y18798838D01*
X23347269Y18813409D01*
X23353434Y18827563D01*
X23358047Y18843288D01*
X23363631Y18858775D01*
X23367019Y18873884D01*
X23371366Y18888706D01*
X23373978Y18904919D01*
X23377572Y18920950D01*
X23379041Y18936344D01*
X23381500Y18951613D01*
X23382063Y18968031D01*
X23383622Y18984381D01*
X23383153Y18999834D01*
X23383681Y19015294D01*
X23382184Y19031650D01*
X23381684Y19048069D01*
X23379281Y19063353D01*
X23377872Y19078747D01*
X23374338Y19094788D01*
X23371788Y19111013D01*
X23367491Y19125869D01*
X23364166Y19140972D01*
X23358656Y19156438D01*
X23354091Y19172225D01*
X23347966Y19186434D01*
X23342778Y19200994D01*
X23335375Y19215647D01*
X23328869Y19230741D01*
X23321013Y19244072D01*
X23314044Y19257866D01*
X23304859Y19271484D01*
X23296522Y19285634D01*
X23287075Y19297856D01*
X23278419Y19310694D01*
X23267888Y19322681D01*
X23257556Y19336050D01*
X23245625Y19348025D01*
X23235097Y19360013D01*
X22925878Y19669228D01*
X22764200Y20059556D01*
X22764200Y20482041D01*
X22925881Y20872375D01*
X23235097Y21181591D01*
X23245316Y21193178D01*
X23256281Y21204103D01*
X23266388Y21217075D01*
X23277238Y21229381D01*
X23285919Y21242150D01*
X23295438Y21254369D01*
X23303844Y21268513D01*
X23313066Y21282075D01*
X23320084Y21295834D01*
X23327994Y21309144D01*
X23334553Y21324203D01*
X23342016Y21338838D01*
X23347269Y21353409D01*
X23353434Y21367563D01*
X23358047Y21383288D01*
X23363631Y21398775D01*
X23367019Y21413884D01*
X23371366Y21428706D01*
X23373978Y21444919D01*
X23377572Y21460950D01*
X23379041Y21476344D01*
X23381500Y21491613D01*
X23382063Y21508031D01*
X23383622Y21524381D01*
X23383153Y21539834D01*
X23383681Y21555294D01*
X23382184Y21571650D01*
X23381684Y21588069D01*
X23379281Y21603353D01*
X23377872Y21618747D01*
X23374338Y21634788D01*
X23371788Y21651013D01*
X23367491Y21665869D01*
X23364166Y21680972D01*
X23358656Y21696438D01*
X23354091Y21712225D01*
X23347966Y21726434D01*
X23342778Y21740994D01*
X23335375Y21755647D01*
X23328869Y21770741D01*
X23321013Y21784072D01*
X23314044Y21797866D01*
X23304859Y21811484D01*
X23296522Y21825634D01*
X23287075Y21837856D01*
X23278419Y21850694D01*
X23267888Y21862681D01*
X23257556Y21876050D01*
X23245625Y21888025D01*
X23235097Y21900013D01*
X22925878Y22209228D01*
X22764200Y22599556D01*
X22764200Y23022041D01*
X22925881Y23412375D01*
X23235097Y23721591D01*
X23245316Y23733178D01*
X23256281Y23744103D01*
X23266388Y23757075D01*
X23277238Y23769381D01*
X23285919Y23782150D01*
X23295438Y23794369D01*
X23303844Y23808513D01*
X23313066Y23822075D01*
X23320084Y23835834D01*
X23327994Y23849144D01*
X23334553Y23864203D01*
X23342016Y23878838D01*
X23347269Y23893409D01*
X23353434Y23907563D01*
X23358047Y23923288D01*
X23363631Y23938775D01*
X23367019Y23953884D01*
X23371366Y23968706D01*
X23373978Y23984919D01*
X23377572Y24000950D01*
X23379041Y24016344D01*
X23381500Y24031613D01*
X23382063Y24048031D01*
X23383622Y24064381D01*
X23383153Y24079834D01*
X23383681Y24095294D01*
X23382184Y24111650D01*
X23381684Y24128069D01*
X23379281Y24143353D01*
X23377872Y24158747D01*
X23374338Y24174788D01*
X23371788Y24191013D01*
X23367491Y24205869D01*
X23364166Y24220972D01*
X23358656Y24236438D01*
X23354091Y24252225D01*
X23347966Y24266434D01*
X23342778Y24280994D01*
X23335375Y24295647D01*
X23328869Y24310741D01*
X23321013Y24324072D01*
X23314044Y24337866D01*
X23304859Y24351484D01*
X23296522Y24365634D01*
X23287075Y24377856D01*
X23278419Y24390694D01*
X23267888Y24402681D01*
X23257556Y24416050D01*
X23245625Y24428025D01*
X23235097Y24440013D01*
X22925878Y24749228D01*
X22764200Y25139556D01*
X22764200Y25562041D01*
X22925881Y25952375D01*
X23235097Y26261591D01*
X23245316Y26273178D01*
X23256281Y26284103D01*
X23266388Y26297075D01*
X23277238Y26309381D01*
X23285919Y26322150D01*
X23295438Y26334369D01*
X23303844Y26348513D01*
X23313066Y26362075D01*
X23320084Y26375834D01*
X23327994Y26389144D01*
X23334553Y26404203D01*
X23342016Y26418838D01*
X23347269Y26433409D01*
X23353434Y26447563D01*
X23358047Y26463288D01*
X23363631Y26478775D01*
X23367019Y26493884D01*
X23371366Y26508706D01*
X23373978Y26524919D01*
X23377572Y26540950D01*
X23379041Y26556344D01*
X23381500Y26571613D01*
X23382063Y26588031D01*
X23383622Y26604381D01*
X23383153Y26619834D01*
X23383681Y26635294D01*
X23382184Y26651650D01*
X23381684Y26668069D01*
X23379281Y26683353D01*
X23377872Y26698747D01*
X23374338Y26714788D01*
X23371788Y26731013D01*
X23367491Y26745869D01*
X23364166Y26760972D01*
X23358656Y26776438D01*
X23354091Y26792225D01*
X23347966Y26806434D01*
X23342778Y26820994D01*
X23335375Y26835647D01*
X23328869Y26850741D01*
X23321013Y26864072D01*
X23314044Y26877866D01*
X23304859Y26891484D01*
X23296522Y26905634D01*
X23287075Y26917856D01*
X23278419Y26930694D01*
X23267888Y26942681D01*
X23257556Y26956050D01*
X23245625Y26968025D01*
X23235097Y26980013D01*
X22925878Y27289228D01*
X22764200Y27679556D01*
X22764200Y28102041D01*
X22925881Y28492375D01*
X23235097Y28801591D01*
X23245316Y28813178D01*
X23256281Y28824103D01*
X23266388Y28837075D01*
X23277238Y28849381D01*
X23285919Y28862150D01*
X23295438Y28874369D01*
X23303844Y28888513D01*
X23313066Y28902075D01*
X23320084Y28915834D01*
X23327994Y28929144D01*
X23334553Y28944203D01*
X23342016Y28958838D01*
X23347269Y28973409D01*
X23353434Y28987563D01*
X23358047Y29003288D01*
X23363631Y29018775D01*
X23367019Y29033884D01*
X23371366Y29048706D01*
X23373978Y29064919D01*
X23377572Y29080950D01*
X23379041Y29096344D01*
X23381500Y29111613D01*
X23382063Y29128031D01*
X23383622Y29144381D01*
X23383153Y29159834D01*
X23383681Y29175294D01*
X23382184Y29191650D01*
X23381684Y29208069D01*
X23379281Y29223353D01*
X23377872Y29238747D01*
X23374338Y29254788D01*
X23371788Y29271013D01*
X23367491Y29285869D01*
X23364166Y29300972D01*
X23358656Y29316438D01*
X23354091Y29332225D01*
X23347966Y29346434D01*
X23342778Y29360994D01*
X23335375Y29375647D01*
X23328869Y29390741D01*
X23321013Y29404072D01*
X23314044Y29417866D01*
X23304859Y29431484D01*
X23296522Y29445634D01*
X23287075Y29457856D01*
X23278419Y29470694D01*
X23267888Y29482681D01*
X23257556Y29496050D01*
X23245625Y29508025D01*
X23235097Y29520013D01*
X22925878Y29829228D01*
X22764200Y30219556D01*
X22764200Y30642041D01*
X22925881Y31032375D01*
X23235097Y31341591D01*
X23245316Y31353178D01*
X23256281Y31364103D01*
X23266388Y31377075D01*
X23277238Y31389381D01*
X23285919Y31402150D01*
X23295438Y31414369D01*
X23303844Y31428513D01*
X23313066Y31442075D01*
X23320084Y31455834D01*
X23327994Y31469144D01*
X23334553Y31484203D01*
X23342016Y31498838D01*
X23347269Y31513409D01*
X23353434Y31527563D01*
X23358047Y31543288D01*
X23363631Y31558775D01*
X23367019Y31573884D01*
X23371366Y31588706D01*
X23373978Y31604919D01*
X23377572Y31620950D01*
X23379041Y31636344D01*
X23381500Y31651613D01*
X23382063Y31668031D01*
X23383622Y31684381D01*
X23383153Y31699834D01*
X23383681Y31715294D01*
X23382184Y31731650D01*
X23381684Y31748069D01*
X23379281Y31763353D01*
X23377872Y31778747D01*
X23374338Y31794788D01*
X23371788Y31811013D01*
X23367491Y31825869D01*
X23364166Y31840972D01*
X23358656Y31856438D01*
X23354091Y31872225D01*
X23347966Y31886434D01*
X23342778Y31900994D01*
X23335375Y31915647D01*
X23328869Y31930741D01*
X23321013Y31944072D01*
X23314044Y31957866D01*
X23304859Y31971484D01*
X23296522Y31985634D01*
X23287075Y31997856D01*
X23278419Y32010694D01*
X23267888Y32022681D01*
X23257556Y32036050D01*
X23245625Y32048025D01*
X23235097Y32060013D01*
X22925878Y32369228D01*
X22764200Y32759556D01*
X22764200Y33182041D01*
X22925881Y33572375D01*
X23235097Y33881591D01*
X23245316Y33893178D01*
X23256281Y33904103D01*
X23266388Y33917075D01*
X23277238Y33929381D01*
X23285919Y33942150D01*
X23295438Y33954369D01*
X23303844Y33968513D01*
X23313066Y33982075D01*
X23320084Y33995834D01*
X23327994Y34009144D01*
X23334553Y34024203D01*
X23342016Y34038838D01*
X23347269Y34053409D01*
X23353434Y34067563D01*
X23358047Y34083288D01*
X23363631Y34098775D01*
X23367019Y34113884D01*
X23371366Y34128706D01*
X23373978Y34144919D01*
X23377572Y34160950D01*
X23379041Y34176344D01*
X23381500Y34191613D01*
X23382063Y34208031D01*
X23383622Y34224381D01*
X23383153Y34239834D01*
X23383681Y34255294D01*
X23382184Y34271650D01*
X23381684Y34288069D01*
X23379281Y34303353D01*
X23377872Y34318747D01*
X23374338Y34334788D01*
X23371788Y34351013D01*
X23367491Y34365869D01*
X23364166Y34380972D01*
X23358656Y34396438D01*
X23354091Y34412225D01*
X23347966Y34426434D01*
X23342778Y34440994D01*
X23335375Y34455647D01*
X23328869Y34470741D01*
X23321013Y34484072D01*
X23314044Y34497866D01*
X23304859Y34511484D01*
X23296522Y34525634D01*
X23287075Y34537856D01*
X23278419Y34550694D01*
X23267888Y34562681D01*
X23257556Y34576050D01*
X23245625Y34588025D01*
X23235097Y34600013D01*
X22925878Y34909228D01*
X22764200Y35299556D01*
X22764200Y35722041D01*
X22925881Y36112375D01*
X23235097Y36421591D01*
X23245316Y36433178D01*
X23256281Y36444103D01*
X23266388Y36457075D01*
X23277238Y36469381D01*
X23285919Y36482150D01*
X23295438Y36494369D01*
X23303844Y36508513D01*
X23313066Y36522075D01*
X23320084Y36535834D01*
X23327994Y36549144D01*
X23334553Y36564203D01*
X23342016Y36578838D01*
X23347269Y36593409D01*
X23353434Y36607563D01*
X23358047Y36623288D01*
X23363631Y36638775D01*
X23367019Y36653884D01*
X23371366Y36668706D01*
X23373978Y36684919D01*
X23377572Y36700950D01*
X23379041Y36716344D01*
X23381500Y36731613D01*
X23382063Y36748031D01*
X23383622Y36764381D01*
X23383153Y36779834D01*
X23383681Y36795294D01*
X23382184Y36811650D01*
X23381684Y36828069D01*
X23379281Y36843353D01*
X23377872Y36858747D01*
X23374338Y36874788D01*
X23371788Y36891013D01*
X23367491Y36905869D01*
X23364166Y36920972D01*
X23358656Y36936438D01*
X23354091Y36952225D01*
X23347966Y36966434D01*
X23342778Y36980994D01*
X23335375Y36995647D01*
X23328869Y37010741D01*
X23321013Y37024072D01*
X23314044Y37037866D01*
X23304859Y37051484D01*
X23296522Y37065634D01*
X23287075Y37077856D01*
X23278419Y37090694D01*
X23267888Y37102681D01*
X23257556Y37116050D01*
X23245625Y37128025D01*
X23235097Y37140013D01*
X22925878Y37449228D01*
X22764200Y37839556D01*
X22764200Y38262041D01*
X22925881Y38652375D01*
X23235097Y38961591D01*
X23245316Y38973178D01*
X23256278Y38984100D01*
X23266381Y38997069D01*
X23277238Y39009381D01*
X23285922Y39022153D01*
X23295438Y39034369D01*
X23303841Y39048509D01*
X23313066Y39062075D01*
X23320091Y39075847D01*
X23327991Y39089141D01*
X23334547Y39104191D01*
X23342016Y39118838D01*
X23347269Y39133400D01*
X23353434Y39147559D01*
X23358050Y39163303D01*
X23363631Y39178775D01*
X23367016Y39193872D01*
X23371366Y39208703D01*
X23373978Y39224928D01*
X23377572Y39240950D01*
X23379041Y39256334D01*
X23381500Y39271609D01*
X23382063Y39288025D01*
X23383622Y39304381D01*
X23383153Y39319834D01*
X23383681Y39335291D01*
X23382184Y39351644D01*
X23381684Y39368069D01*
X23379281Y39383356D01*
X23377872Y39398744D01*
X23374347Y39414744D01*
X23371788Y39431013D01*
X23367491Y39445881D01*
X23364166Y39460969D01*
X23358659Y39476419D01*
X23354091Y39492225D01*
X23347959Y39506450D01*
X23342778Y39520991D01*
X23335378Y39535638D01*
X23328869Y39550741D01*
X23321019Y39564063D01*
X23314047Y39577863D01*
X23304859Y39591484D01*
X23296522Y39605634D01*
X23287066Y39617869D01*
X23278419Y39630691D01*
X23267909Y39642656D01*
X23257556Y39656050D01*
X23245603Y39668050D01*
X23235097Y39680009D01*
X23049197Y39865909D01*
X23043766Y39870697D01*
X23038806Y39876009D01*
X23019847Y39891791D01*
X23001406Y39908050D01*
X22995422Y39912119D01*
X22989831Y39916772D01*
X22969031Y39930063D01*
X22948713Y39943878D01*
X22942259Y39947169D01*
X22936138Y39951081D01*
X22913866Y39961650D01*
X22891950Y39972828D01*
X22885131Y39975288D01*
X22878572Y39978400D01*
X22855172Y39986091D01*
X22832013Y39994444D01*
X22824934Y39996031D01*
X22818041Y39998297D01*
X22793834Y40003003D01*
X22769838Y40008384D01*
X22762628Y40009072D01*
X22755494Y40010459D01*
X22732425Y40011953D01*
X22706406Y40014434D01*
X22698028Y40014178D01*
X22689988Y40014700D01*
X22069397Y40014700D01*
X22053959Y40013731D01*
X22038500Y40013759D01*
X22022191Y40011734D01*
X22005803Y40010703D01*
X21990622Y40007809D01*
X21975269Y40005903D01*
X21959341Y40001850D01*
X21943213Y39998778D01*
X21928513Y39994009D01*
X21913519Y39990194D01*
X21898225Y39984181D01*
X21882606Y39979113D01*
X21868625Y39972544D01*
X21854219Y39966878D01*
X21839791Y39958994D01*
X21824938Y39952013D01*
X21811875Y39943734D01*
X21798306Y39936319D01*
X21784981Y39926694D01*
X21771116Y39917906D01*
X21759216Y39908078D01*
X21746656Y39899006D01*
X21734641Y39887788D01*
X21721984Y39877334D01*
X21711384Y39866069D01*
X21700088Y39855519D01*
X21689575Y39842891D01*
X21678322Y39830928D01*
X21669228Y39818444D01*
X21659325Y39806544D01*
X21650472Y39792691D01*
X21640809Y39779422D01*
X21633344Y39765881D01*
X21625016Y39752850D01*
X21617972Y39738009D01*
X21610041Y39723625D01*
X21604331Y39709263D01*
X21597697Y39695284D01*
X21592563Y39679663D01*
X21586500Y39664416D01*
X21582638Y39649469D01*
X21577800Y39634753D01*
X21574659Y39618597D01*
X21570556Y39602725D01*
X21568594Y39587416D01*
X21565638Y39572206D01*
X21564606Y39556284D01*
X21562459Y39539522D01*
X21562428Y39522613D01*
X21561397Y39506700D01*
X21561397Y39430713D01*
X20557431Y39430713D01*
X20541994Y39429744D01*
X20526534Y39429772D01*
X20510225Y39427747D01*
X20493838Y39426716D01*
X20478656Y39423822D01*
X20463303Y39421916D01*
X20447375Y39417863D01*
X20431247Y39414791D01*
X20416547Y39410022D01*
X20401553Y39406206D01*
X20386259Y39400194D01*
X20370641Y39395125D01*
X20356659Y39388556D01*
X20342253Y39382891D01*
X20327825Y39375006D01*
X20312972Y39368025D01*
X20299909Y39359747D01*
X20286341Y39352331D01*
X20273016Y39342706D01*
X20259150Y39333919D01*
X20247250Y39324091D01*
X20234691Y39315019D01*
X20222675Y39303800D01*
X20210019Y39293347D01*
X20209994Y39293322D01*
X20209969Y39293300D01*
X20199369Y39282034D01*
X20188122Y39271531D01*
X20188072Y39271484D01*
X20177559Y39258856D01*
X20166306Y39246894D01*
X20157213Y39234409D01*
X20147309Y39222509D01*
X20138456Y39208656D01*
X20128794Y39195388D01*
X20121328Y39181847D01*
X20113000Y39168816D01*
X20105956Y39153975D01*
X20098025Y39139591D01*
X20092316Y39125228D01*
X20085681Y39111250D01*
X20080547Y39095628D01*
X20074484Y39080381D01*
X20070622Y39065434D01*
X20065784Y39050719D01*
X20062644Y39034563D01*
X20058541Y39018691D01*
X20056578Y39003381D01*
X20053622Y38988172D01*
X20052591Y38972250D01*
X20050444Y38955488D01*
X20050413Y38938578D01*
X20049381Y38922666D01*
X20049381Y38018700D01*
X19782381Y38018700D01*
X19733316Y38028459D01*
X19687078Y38047613D01*
X19640744Y38078572D01*
X19615500Y38093238D01*
X19590159Y38108300D01*
X19587819Y38109319D01*
X19585647Y38110581D01*
X19558772Y38121969D01*
X19531741Y38133741D01*
X19529303Y38134456D01*
X19526978Y38135441D01*
X19498803Y38143397D01*
X19470597Y38151669D01*
X19468094Y38152072D01*
X19465659Y38152759D01*
X19436744Y38157122D01*
X19407688Y38161803D01*
X19405144Y38161891D01*
X19402656Y38162266D01*
X19373525Y38162972D01*
X19344006Y38163981D01*
X19341466Y38163750D01*
X19338956Y38163809D01*
X19309853Y38160853D01*
X19280556Y38158169D01*
X19278091Y38157625D01*
X19275563Y38157369D01*
X19246934Y38150763D01*
X19218328Y38144463D01*
X19215944Y38143613D01*
X19213478Y38143044D01*
X19185803Y38132872D01*
X19158309Y38123072D01*
X19156075Y38121941D01*
X19153672Y38121059D01*
X19127419Y38107463D01*
X19101438Y38094338D01*
X19099347Y38092928D01*
X19097091Y38091759D01*
X19072922Y38075106D01*
X19048609Y38058709D01*
X19046731Y38057059D01*
X19044622Y38055606D01*
X19016803Y38030772D01*
X18999291Y38015388D01*
X18979303Y37995397D01*
X18937716Y37967609D01*
X18891481Y37948459D01*
X18842419Y37938700D01*
X18575413Y37938700D01*
X18575413Y38842666D01*
X18574444Y38858103D01*
X18574472Y38873563D01*
X18572447Y38889859D01*
X18571416Y38906259D01*
X18568522Y38921441D01*
X18566616Y38936794D01*
X18562563Y38952722D01*
X18559491Y38968850D01*
X18554722Y38983550D01*
X18550906Y38998544D01*
X18544894Y39013838D01*
X18539825Y39029456D01*
X18533256Y39043438D01*
X18527591Y39057844D01*
X18519706Y39072272D01*
X18512725Y39087125D01*
X18504447Y39100188D01*
X18497031Y39113756D01*
X18487406Y39127081D01*
X18478619Y39140947D01*
X18468791Y39152847D01*
X18459719Y39165406D01*
X18448500Y39177422D01*
X18438047Y39190078D01*
X18438009Y39190113D01*
X18438000Y39190125D01*
X18426759Y39200703D01*
X18416231Y39211975D01*
X18416184Y39212022D01*
X18403569Y39222522D01*
X18391594Y39233788D01*
X18379109Y39242881D01*
X18367209Y39252784D01*
X18353356Y39261638D01*
X18340088Y39271300D01*
X18326547Y39278766D01*
X18313516Y39287094D01*
X18298675Y39294138D01*
X18284291Y39302069D01*
X18269928Y39307778D01*
X18255950Y39314413D01*
X18240328Y39319547D01*
X18225081Y39325609D01*
X18210134Y39329472D01*
X18195419Y39334309D01*
X18179263Y39337450D01*
X18163391Y39341553D01*
X18148081Y39343516D01*
X18132872Y39346472D01*
X18116950Y39347503D01*
X18100188Y39349650D01*
X18083278Y39349681D01*
X18067366Y39350713D01*
X17063400Y39350713D01*
X17063400Y39426700D01*
X17062431Y39442138D01*
X17062459Y39457597D01*
X17060434Y39473906D01*
X17059403Y39490294D01*
X17056509Y39505475D01*
X17054603Y39520828D01*
X17050550Y39536756D01*
X17047478Y39552884D01*
X17042709Y39567584D01*
X17038894Y39582578D01*
X17032881Y39597872D01*
X17027813Y39613491D01*
X17021244Y39627472D01*
X17015578Y39641878D01*
X17007694Y39656306D01*
X17000713Y39671159D01*
X16992434Y39684222D01*
X16985019Y39697791D01*
X16975394Y39711116D01*
X16966606Y39724981D01*
X16956778Y39736881D01*
X16947706Y39749441D01*
X16936488Y39761456D01*
X16926034Y39774113D01*
X16914769Y39784713D01*
X16904219Y39796009D01*
X16891591Y39806522D01*
X16879628Y39817775D01*
X16867144Y39826869D01*
X16855244Y39836772D01*
X16841391Y39845625D01*
X16828122Y39855288D01*
X16814581Y39862753D01*
X16801550Y39871081D01*
X16786709Y39878125D01*
X16772325Y39886056D01*
X16757963Y39891766D01*
X16743984Y39898400D01*
X16728363Y39903534D01*
X16713116Y39909597D01*
X16698169Y39913459D01*
X16683453Y39918297D01*
X16667297Y39921438D01*
X16651425Y39925541D01*
X16636116Y39927503D01*
X16620906Y39930459D01*
X16604984Y39931491D01*
X16588222Y39933638D01*
X16571313Y39933669D01*
X16555400Y39934700D01*
X16205397Y39934700D01*
X16189959Y39933731D01*
X16174500Y39933759D01*
X16158191Y39931734D01*
X16141803Y39930703D01*
X16126622Y39927809D01*
X16111269Y39925903D01*
X16095341Y39921850D01*
X16079213Y39918778D01*
X16064513Y39914009D01*
X16049519Y39910194D01*
X16034225Y39904181D01*
X16018606Y39899113D01*
X16004625Y39892544D01*
X15990219Y39886878D01*
X15975791Y39878994D01*
X15960938Y39872013D01*
X15947875Y39863734D01*
X15934306Y39856319D01*
X15920981Y39846694D01*
X15907116Y39837906D01*
X15895216Y39828078D01*
X15882656Y39819006D01*
X15870641Y39807788D01*
X15857984Y39797334D01*
X15847384Y39786069D01*
X15836088Y39775519D01*
X15825575Y39762891D01*
X15814322Y39750928D01*
X15805228Y39738444D01*
X15795325Y39726544D01*
X15786472Y39712691D01*
X15776809Y39699422D01*
X15769344Y39685881D01*
X15761016Y39672850D01*
X15753972Y39658009D01*
X15746041Y39643625D01*
X15740331Y39629263D01*
X15733697Y39615284D01*
X15728563Y39599663D01*
X15722500Y39584416D01*
X15718638Y39569469D01*
X15713800Y39554753D01*
X15710659Y39538597D01*
X15706556Y39522725D01*
X15704594Y39507416D01*
X15701638Y39492206D01*
X15700606Y39476284D01*
X15698459Y39459522D01*
X15698431Y39445525D01*
X15651725Y39332759D01*
X15567338Y39248372D01*
X15460153Y39203975D01*
X15442606Y39195381D01*
X15424613Y39187625D01*
X15413984Y39181363D01*
X15402928Y39175947D01*
X15386581Y39165216D01*
X15369719Y39155278D01*
X15359969Y39147744D01*
X15349666Y39140978D01*
X15334772Y39128269D01*
X15319303Y39116313D01*
X15310584Y39107625D01*
X15301197Y39099616D01*
X15288006Y39085134D01*
X15274159Y39071341D01*
X15266591Y39061625D01*
X15258288Y39052509D01*
X15247031Y39036516D01*
X15235003Y39021075D01*
X15228697Y39010466D01*
X15221616Y39000403D01*
X15212456Y38983141D01*
X15202450Y38966303D01*
X15197525Y38954994D01*
X15191753Y38944116D01*
X15184819Y38925822D01*
X15177006Y38907884D01*
X15173541Y38896072D01*
X15169169Y38884534D01*
X15164578Y38865503D01*
X15159075Y38846741D01*
X15157116Y38834569D01*
X15154225Y38822594D01*
X15152053Y38803153D01*
X15148941Y38783834D01*
X15148519Y38771522D01*
X15147150Y38759269D01*
X15147428Y38739709D01*
X15146759Y38720153D01*
X15147884Y38707875D01*
X15148059Y38695559D01*
X15150784Y38676197D01*
X15152569Y38656700D01*
X15155222Y38644653D01*
X15156938Y38632463D01*
X15162066Y38613588D01*
X15166275Y38594472D01*
X15170406Y38582878D01*
X15173641Y38570972D01*
X15181106Y38552850D01*
X15187663Y38534453D01*
X15193213Y38523469D01*
X15197913Y38512059D01*
X15207572Y38495044D01*
X15216394Y38477581D01*
X15223288Y38467359D01*
X15229369Y38456647D01*
X15241081Y38440975D01*
X15252022Y38424753D01*
X15259956Y38415719D01*
X15267516Y38405606D01*
X15282359Y38390216D01*
X15295344Y38375434D01*
X18457644Y35213138D01*
X18880384Y34790397D01*
X19003397Y34493419D01*
X19003397Y34171978D01*
X18880384Y33875000D01*
X18653097Y33647713D01*
X18356119Y33524700D01*
X17287325Y33524700D01*
X17258006Y33522856D01*
X17228741Y33521309D01*
X17226259Y33520863D01*
X17223731Y33520703D01*
X17194834Y33515197D01*
X17166034Y33510006D01*
X17163631Y33509253D01*
X17161141Y33508778D01*
X17133188Y33499706D01*
X17105234Y33490944D01*
X17102938Y33489894D01*
X17100534Y33489113D01*
X17073991Y33476641D01*
X17047300Y33464419D01*
X17045150Y33463084D01*
X17042866Y33462013D01*
X17018197Y33446381D01*
X16993141Y33430850D01*
X16991163Y33429247D01*
X16989044Y33427906D01*
X16966447Y33409247D01*
X16943613Y33390766D01*
X16941872Y33388953D01*
X16939913Y33387334D01*
X16919806Y33365966D01*
X16899488Y33344797D01*
X16897972Y33342756D01*
X16896250Y33340928D01*
X16879006Y33317253D01*
X16861469Y33293666D01*
X16860231Y33291472D01*
X16858738Y33289422D01*
X16844503Y33263609D01*
X16830147Y33238175D01*
X16829197Y33235850D01*
X16827969Y33233625D01*
X16817088Y33206253D01*
X16806019Y33179203D01*
X16805378Y33176806D01*
X16804428Y33174416D01*
X16795066Y33138188D01*
X16794091Y33134541D01*
X16772488Y33082381D01*
X16744688Y33040778D01*
X16709319Y33005409D01*
X16667716Y32977609D01*
X16621481Y32958459D01*
X16572419Y32948700D01*
X16305413Y32948700D01*
X16305413Y33016700D01*
X16304444Y33032138D01*
X16304472Y33047597D01*
X16302447Y33063906D01*
X16301416Y33080294D01*
X16298522Y33095475D01*
X16296616Y33110828D01*
X16292563Y33126756D01*
X16289491Y33142884D01*
X16284722Y33157584D01*
X16280906Y33172578D01*
X16274894Y33187872D01*
X16269825Y33203491D01*
X16263256Y33217472D01*
X16257591Y33231878D01*
X16249706Y33246306D01*
X16242725Y33261159D01*
X16234447Y33274222D01*
X16227031Y33287791D01*
X16217406Y33301116D01*
X16208619Y33314981D01*
X16198791Y33326881D01*
X16189719Y33339441D01*
X16178500Y33351456D01*
X16168047Y33364113D01*
X16156781Y33374713D01*
X16146231Y33386009D01*
X16133603Y33396522D01*
X16121641Y33407775D01*
X16109156Y33416869D01*
X16097256Y33426772D01*
X16083403Y33435625D01*
X16070134Y33445288D01*
X16056594Y33452753D01*
X16043563Y33461081D01*
X16028722Y33468125D01*
X16014338Y33476056D01*
X15999975Y33481766D01*
X15985997Y33488400D01*
X15970375Y33493534D01*
X15955128Y33499597D01*
X15940181Y33503459D01*
X15925466Y33508297D01*
X15909309Y33511438D01*
X15893438Y33515541D01*
X15878128Y33517503D01*
X15862919Y33520459D01*
X15846997Y33521491D01*
X15830234Y33523638D01*
X15813325Y33523669D01*
X15797413Y33524700D01*
X15797381Y33524700D01*
X15781947Y33523731D01*
X15766516Y33523759D01*
X15766484Y33523759D01*
X15750175Y33521734D01*
X15733788Y33520703D01*
X15718606Y33517809D01*
X15703253Y33515903D01*
X15687325Y33511850D01*
X15671197Y33508778D01*
X15656497Y33504009D01*
X15641503Y33500194D01*
X15626209Y33494181D01*
X15610591Y33489113D01*
X15596609Y33482544D01*
X15582203Y33476878D01*
X15567775Y33468994D01*
X15552922Y33462013D01*
X15539859Y33453734D01*
X15526291Y33446319D01*
X15512966Y33436694D01*
X15499100Y33427906D01*
X15487200Y33418078D01*
X15474641Y33409006D01*
X15462625Y33397788D01*
X15449969Y33387334D01*
X15439369Y33376069D01*
X15428072Y33365519D01*
X15417559Y33352891D01*
X15406306Y33340928D01*
X15397213Y33328444D01*
X15387309Y33316544D01*
X15378456Y33302691D01*
X15368794Y33289422D01*
X15361328Y33275881D01*
X15353000Y33262850D01*
X15345956Y33248009D01*
X15338025Y33233625D01*
X15332316Y33219263D01*
X15325681Y33205284D01*
X15320547Y33189663D01*
X15314484Y33174416D01*
X15310622Y33159469D01*
X15305784Y33144753D01*
X15302644Y33128597D01*
X15298541Y33112725D01*
X15296578Y33097416D01*
X15293622Y33082206D01*
X15292591Y33066284D01*
X15290444Y33049522D01*
X15290413Y33032613D01*
X15289381Y33016700D01*
X15289381Y32948700D01*
X15022378Y32948700D01*
X14973316Y32958459D01*
X14900906Y32988453D01*
X14889900Y32992222D01*
X14879216Y32996863D01*
X14859756Y33002547D01*
X14840625Y33009097D01*
X14829241Y33011456D01*
X14818050Y33014725D01*
X14798041Y33017925D01*
X14778234Y33022031D01*
X14766625Y33022950D01*
X14755134Y33024788D01*
X14734916Y33025459D01*
X14714716Y33027056D01*
X14703088Y33026513D01*
X14691450Y33026900D01*
X14671281Y33025031D01*
X14651066Y33024088D01*
X14639591Y33022094D01*
X14628003Y33021019D01*
X14608253Y33016647D01*
X14588288Y33013175D01*
X14577144Y33009756D01*
X14565794Y33007244D01*
X14546747Y33000434D01*
X14527372Y32994491D01*
X14516756Y32989709D01*
X14505794Y32985791D01*
X14497375Y32981525D01*
X14307075Y32902700D01*
X12687728Y32902700D01*
X12541806Y32963144D01*
X12534922Y32965500D01*
X12528338Y32968497D01*
X12504888Y32975788D01*
X12481525Y32983788D01*
X12474400Y32985266D01*
X12467491Y32987413D01*
X12443259Y32991719D01*
X12419134Y32996722D01*
X12411916Y32997294D01*
X12404756Y32998566D01*
X12380122Y32999809D01*
X12355613Y33001747D01*
X12348372Y33001409D01*
X12341119Y33001775D01*
X12316547Y32999925D01*
X12291966Y32998778D01*
X12284816Y32997534D01*
X12277581Y32996991D01*
X12253428Y32992078D01*
X12229188Y32987866D01*
X12222266Y32985744D01*
X12215141Y32984294D01*
X12193225Y32976834D01*
X12168272Y32969181D01*
X12160644Y32965747D01*
X12152997Y32963144D01*
X12007072Y32902700D01*
X10799394Y32902700D01*
X10783956Y32901731D01*
X10768497Y32901759D01*
X10752188Y32899734D01*
X10735800Y32898703D01*
X10720622Y32895813D01*
X10705263Y32893903D01*
X10689325Y32889847D01*
X10673209Y32886778D01*
X10658519Y32882013D01*
X10643513Y32878194D01*
X10628216Y32872178D01*
X10612603Y32867113D01*
X10598606Y32860534D01*
X10584213Y32854875D01*
X10569797Y32846997D01*
X10554934Y32840013D01*
X10541881Y32831741D01*
X10528300Y32824319D01*
X10514969Y32814688D01*
X10501113Y32805906D01*
X10489194Y32796063D01*
X10476653Y32787003D01*
X10464659Y32775803D01*
X10451981Y32765334D01*
X10441372Y32754059D01*
X10430081Y32743516D01*
X10419575Y32730891D01*
X10408319Y32718928D01*
X10399213Y32706425D01*
X10389322Y32694541D01*
X10380478Y32680700D01*
X10370806Y32667422D01*
X10363328Y32653859D01*
X10355013Y32640847D01*
X10347978Y32626022D01*
X10340038Y32611625D01*
X10334325Y32597256D01*
X10327694Y32583284D01*
X10322559Y32567666D01*
X10316497Y32552416D01*
X10312631Y32537456D01*
X10307797Y32522750D01*
X10304659Y32506606D01*
X10300553Y32490725D01*
X10298591Y32475406D01*
X10295634Y32460203D01*
X10294603Y32444288D01*
X10292456Y32427522D01*
X10292425Y32410609D01*
X10291394Y32394697D01*
X10291397Y31757678D01*
X10281638Y31708616D01*
X10262488Y31662381D01*
X10234688Y31620778D01*
X10199319Y31585409D01*
X10157716Y31557609D01*
X10111481Y31538459D01*
X10062419Y31528700D01*
X9795413Y31528700D01*
X9795413Y32432666D01*
X9794444Y32448103D01*
X9794472Y32463563D01*
X9792447Y32479872D01*
X9791416Y32496259D01*
X9788522Y32511441D01*
X9786616Y32526794D01*
X9782563Y32542722D01*
X9779491Y32558850D01*
X9774722Y32573550D01*
X9770906Y32588544D01*
X9764894Y32603838D01*
X9759825Y32619456D01*
X9753256Y32633438D01*
X9747591Y32647844D01*
X9739706Y32662272D01*
X9732725Y32677125D01*
X9724447Y32690188D01*
X9717031Y32703756D01*
X9707406Y32717081D01*
X9698619Y32730947D01*
X9688791Y32742847D01*
X9679719Y32755406D01*
X9668500Y32767422D01*
X9658047Y32780078D01*
X9658009Y32780113D01*
X9658000Y32780125D01*
X9646759Y32790703D01*
X9636231Y32801975D01*
X9636184Y32802022D01*
X9623556Y32812534D01*
X9611594Y32823788D01*
X9599109Y32832881D01*
X9587209Y32842784D01*
X9573356Y32851638D01*
X9560088Y32861300D01*
X9546547Y32868766D01*
X9533516Y32877094D01*
X9518675Y32884138D01*
X9504291Y32892069D01*
X9489928Y32897778D01*
X9475950Y32904413D01*
X9460328Y32909547D01*
X9445081Y32915609D01*
X9430134Y32919472D01*
X9415419Y32924309D01*
X9399263Y32927450D01*
X9383391Y32931553D01*
X9368081Y32933516D01*
X9352872Y32936472D01*
X9336950Y32937503D01*
X9320188Y32939650D01*
X9303278Y32939681D01*
X9287366Y32940713D01*
X7620000Y32940713D01*
X7604563Y32939744D01*
X7589103Y32939772D01*
X7572794Y32937747D01*
X7556406Y32936716D01*
X7541225Y32933822D01*
X7525872Y32931916D01*
X7509944Y32927863D01*
X7493816Y32924791D01*
X7479116Y32920022D01*
X7464122Y32916206D01*
X7448828Y32910194D01*
X7433209Y32905125D01*
X7419228Y32898556D01*
X7404822Y32892891D01*
X7390394Y32885006D01*
X7375541Y32878025D01*
X7362478Y32869747D01*
X7348909Y32862331D01*
X7335584Y32852706D01*
X7321719Y32843919D01*
X7309819Y32834091D01*
X7297259Y32825019D01*
X7285244Y32813800D01*
X7272588Y32803347D01*
X7261988Y32792081D01*
X7250691Y32781531D01*
X7240178Y32768903D01*
X7228925Y32756941D01*
X7219831Y32744456D01*
X7209928Y32732556D01*
X7201075Y32718703D01*
X7191413Y32705434D01*
X7183947Y32691894D01*
X7175619Y32678863D01*
X7168575Y32664022D01*
X7160644Y32649638D01*
X7154934Y32635275D01*
X7148300Y32621297D01*
X7143166Y32605675D01*
X7137103Y32590428D01*
X7133241Y32575481D01*
X7128403Y32560766D01*
X7125263Y32544609D01*
X7121159Y32528738D01*
X7119197Y32513428D01*
X7116241Y32498219D01*
X7115209Y32482297D01*
X7113063Y32465534D01*
X7113031Y32448625D01*
X7112000Y32432713D01*
X7112000Y32432681D01*
X7112969Y32417247D01*
X7112941Y32401816D01*
X7112941Y32401784D01*
X7114966Y32385475D01*
X7115997Y32369088D01*
X7118891Y32353906D01*
X7120797Y32338553D01*
X7124850Y32322625D01*
X7127922Y32306497D01*
X7132691Y32291797D01*
X7136506Y32276803D01*
X7142519Y32261509D01*
X7147588Y32245891D01*
X7154156Y32231909D01*
X7159822Y32217503D01*
X7167706Y32203075D01*
X7174688Y32188222D01*
X7182966Y32175159D01*
X7190381Y32161591D01*
X7200006Y32148266D01*
X7208794Y32134400D01*
X7218622Y32122500D01*
X7227694Y32109941D01*
X7238913Y32097925D01*
X7249366Y32085269D01*
X7260631Y32074669D01*
X7271181Y32063372D01*
X7283809Y32052859D01*
X7295772Y32041606D01*
X7308256Y32032513D01*
X7320156Y32022609D01*
X7334009Y32013756D01*
X7347278Y32004094D01*
X7360819Y31996628D01*
X7373850Y31988300D01*
X7388691Y31981256D01*
X7403075Y31973325D01*
X7417438Y31967616D01*
X7431416Y31960981D01*
X7447038Y31955847D01*
X7462284Y31949784D01*
X7477231Y31945922D01*
X7491947Y31941084D01*
X7508103Y31937944D01*
X7523975Y31933841D01*
X7539284Y31931878D01*
X7554494Y31928922D01*
X7570416Y31927891D01*
X7587178Y31925744D01*
X7604088Y31925713D01*
X7620000Y31924681D01*
X8779381Y31924681D01*
X8779381Y31528700D01*
X8512381Y31528700D01*
X8463313Y31538459D01*
X8426809Y31553581D01*
X8419938Y31555934D01*
X8413316Y31558947D01*
X8389822Y31566250D01*
X8366531Y31574228D01*
X8359409Y31575706D01*
X8352469Y31577863D01*
X8328253Y31582166D01*
X8304138Y31587166D01*
X8296878Y31587741D01*
X8289734Y31589009D01*
X8265175Y31590247D01*
X8240619Y31592191D01*
X8233359Y31591853D01*
X8226097Y31592219D01*
X8201547Y31590369D01*
X8176969Y31589225D01*
X8169809Y31587981D01*
X8162559Y31587434D01*
X8138438Y31582528D01*
X8114194Y31578313D01*
X8107244Y31576181D01*
X8100119Y31574731D01*
X8078253Y31567291D01*
X8053275Y31559628D01*
X8045631Y31556184D01*
X8037978Y31553581D01*
X8001469Y31538456D01*
X7952419Y31528700D01*
X7620000Y31528700D01*
X7604563Y31527731D01*
X7589103Y31527759D01*
X7572794Y31525734D01*
X7556406Y31524703D01*
X7541225Y31521809D01*
X7525872Y31519903D01*
X7509944Y31515850D01*
X7493816Y31512778D01*
X7479116Y31508009D01*
X7464122Y31504194D01*
X7448828Y31498181D01*
X7433209Y31493113D01*
X7419228Y31486544D01*
X7404822Y31480878D01*
X7390394Y31472994D01*
X7375541Y31466013D01*
X7362478Y31457734D01*
X7348909Y31450319D01*
X7335584Y31440694D01*
X7321719Y31431906D01*
X7309819Y31422078D01*
X7297259Y31413006D01*
X7285244Y31401788D01*
X7272588Y31391334D01*
X7261988Y31380069D01*
X7250691Y31369519D01*
X7240178Y31356891D01*
X7228925Y31344928D01*
X7219831Y31332444D01*
X7209928Y31320544D01*
X7201075Y31306691D01*
X7191413Y31293422D01*
X7183947Y31279881D01*
X7175619Y31266850D01*
X7168575Y31252009D01*
X7160644Y31237625D01*
X7154934Y31223263D01*
X7148300Y31209284D01*
X7143166Y31193663D01*
X7137103Y31178416D01*
X7133241Y31163469D01*
X7128403Y31148753D01*
X7125263Y31132597D01*
X7121159Y31116725D01*
X7119197Y31101416D01*
X7116241Y31086206D01*
X7115209Y31070284D01*
X7113063Y31053522D01*
X7113031Y31036613D01*
X7112000Y31020700D01*
X7112000Y28749697D01*
X7112713Y28738369D01*
X7112506Y28727003D01*
X7114709Y28706569D01*
X7115997Y28686103D01*
X7118122Y28674953D01*
X7119341Y28663650D01*
X7124081Y28643663D01*
X7127922Y28623513D01*
X7131425Y28612716D01*
X7134050Y28601653D01*
X7141250Y28582438D01*
X7147588Y28562906D01*
X7152425Y28552609D01*
X7156406Y28541988D01*
X7165972Y28523788D01*
X7174688Y28505238D01*
X7180769Y28495644D01*
X7186053Y28485588D01*
X7197822Y28468728D01*
X7208794Y28451416D01*
X7216013Y28442675D01*
X7222528Y28433341D01*
X7236303Y28418103D01*
X7249366Y28402284D01*
X7257644Y28394494D01*
X7265256Y28386075D01*
X7280819Y28372691D01*
X7295772Y28358622D01*
X7304950Y28351938D01*
X7313569Y28344525D01*
X7330694Y28333188D01*
X7347278Y28321109D01*
X7357219Y28315628D01*
X7366697Y28309353D01*
X7384369Y28300656D01*
X7403075Y28290341D01*
X7414803Y28285678D01*
X7425597Y28280366D01*
X7510072Y28245375D01*
X7750075Y28005372D01*
X7879969Y27691781D01*
X7879969Y27515688D01*
X7880425Y27508453D01*
X7880175Y27501197D01*
X7882422Y27476653D01*
X7883966Y27452094D01*
X7885322Y27444972D01*
X7885984Y27437744D01*
X7891281Y27413697D01*
X7895891Y27389503D01*
X7898131Y27382597D01*
X7899691Y27375519D01*
X7907944Y27352356D01*
X7915556Y27328897D01*
X7918647Y27322322D01*
X7921078Y27315497D01*
X7932181Y27293519D01*
X7942656Y27271228D01*
X7946534Y27265109D01*
X7949809Y27258625D01*
X7963609Y27238166D01*
X7976763Y27217406D01*
X7981375Y27211822D01*
X7985438Y27205797D01*
X8000659Y27188469D01*
X8017334Y27168275D01*
X8023456Y27162513D01*
X8028759Y27156478D01*
X11873563Y23311672D01*
X11891284Y23296044D01*
X11908544Y23279806D01*
X11915191Y23274966D01*
X11921353Y23269531D01*
X11940903Y23256238D01*
X11960050Y23242294D01*
X11967259Y23238319D01*
X11974047Y23233703D01*
X11995103Y23222966D01*
X12015847Y23211525D01*
X12023491Y23208488D01*
X12030809Y23204753D01*
X12053084Y23196719D01*
X12075056Y23187984D01*
X12083000Y23185931D01*
X12090747Y23183138D01*
X12113875Y23177953D01*
X12136747Y23172041D01*
X12144894Y23170997D01*
X12152922Y23169197D01*
X12176497Y23166947D01*
X12199950Y23163944D01*
X12208163Y23163928D01*
X12216353Y23163147D01*
X12240028Y23163866D01*
X12263669Y23163822D01*
X12271816Y23164834D01*
X12280041Y23165084D01*
X12303431Y23168763D01*
X12326900Y23171678D01*
X12334866Y23173706D01*
X12342984Y23174981D01*
X12365716Y23181553D01*
X12388650Y23187388D01*
X12396297Y23190394D01*
X12404197Y23192678D01*
X12425906Y23202034D01*
X12447950Y23210703D01*
X12455178Y23214653D01*
X12462709Y23217900D01*
X12483097Y23229913D01*
X12503863Y23241263D01*
X12510516Y23246069D01*
X12517606Y23250247D01*
X12536313Y23264706D01*
X12555513Y23278575D01*
X12561534Y23284197D01*
X12568022Y23289213D01*
X12584766Y23305894D01*
X12602081Y23322063D01*
X12607341Y23328381D01*
X12613163Y23334181D01*
X12627697Y23352838D01*
X12642844Y23371038D01*
X12647272Y23377966D01*
X12652322Y23384450D01*
X12664406Y23404784D01*
X12677153Y23424731D01*
X12680681Y23432166D01*
X12684875Y23439222D01*
X12694306Y23460878D01*
X12704472Y23482297D01*
X12707044Y23490122D01*
X12710319Y23497641D01*
X12716966Y23520306D01*
X12724369Y23542828D01*
X12725941Y23550906D01*
X12728250Y23558784D01*
X12732009Y23582125D01*
X12736531Y23605375D01*
X12737053Y23613422D01*
X12738384Y23621691D01*
X12739125Y23643313D01*
X12739709Y23647875D01*
X12739722Y23654669D01*
X12740772Y23670881D01*
X12740772Y24885581D01*
X12809281Y25050978D01*
X12935863Y25177559D01*
X13101259Y25246069D01*
X13280281Y25246069D01*
X13445678Y25177559D01*
X13572259Y25050978D01*
X13644591Y24876350D01*
X13644766Y24873588D01*
X13649188Y24850375D01*
X13652869Y24826966D01*
X13655153Y24819059D01*
X13656691Y24810997D01*
X13663984Y24788516D01*
X13670566Y24765756D01*
X13673822Y24758203D01*
X13676356Y24750391D01*
X13686413Y24728991D01*
X13695788Y24707241D01*
X13699966Y24700150D01*
X13703456Y24692722D01*
X13716088Y24672791D01*
X13728134Y24652344D01*
X13733181Y24645816D01*
X13737563Y24638900D01*
X13752609Y24620678D01*
X13767100Y24601931D01*
X13772891Y24596116D01*
X13778134Y24589769D01*
X13795388Y24573538D01*
X13812072Y24556788D01*
X13818559Y24551734D01*
X13824541Y24546106D01*
X13843647Y24532191D01*
X13862338Y24517631D01*
X13869409Y24513428D01*
X13876047Y24508594D01*
X13896763Y24497169D01*
X13917113Y24485075D01*
X13924647Y24481794D01*
X13931844Y24477825D01*
X13953844Y24469078D01*
X13975528Y24459634D01*
X13983413Y24457322D01*
X13991053Y24454284D01*
X14013947Y24448369D01*
X14036672Y24441703D01*
X14044800Y24440394D01*
X14052744Y24438341D01*
X14076181Y24435338D01*
X14099578Y24431569D01*
X14107803Y24431288D01*
X14115947Y24430244D01*
X14139581Y24430200D01*
X14163259Y24429388D01*
X14171453Y24430138D01*
X14179666Y24430122D01*
X14203147Y24433041D01*
X14226713Y24435197D01*
X14234738Y24436966D01*
X14242897Y24437978D01*
X14265844Y24443816D01*
X14288941Y24448903D01*
X14296678Y24451659D01*
X14304647Y24453688D01*
X14326706Y24462359D01*
X14348959Y24470291D01*
X14356275Y24473988D01*
X14363947Y24477003D01*
X14384763Y24488381D01*
X14405831Y24499025D01*
X14412641Y24503619D01*
X14419859Y24507563D01*
X14439056Y24521431D01*
X14458659Y24534650D01*
X14464697Y24539953D01*
X14471509Y24544875D01*
X14490678Y24562775D01*
X14507978Y24577972D01*
X16108609Y26178606D01*
X16113400Y26184038D01*
X16118709Y26188997D01*
X16134456Y26207919D01*
X16150753Y26226397D01*
X16154834Y26232400D01*
X16159472Y26237972D01*
X16172744Y26258741D01*
X16186578Y26279091D01*
X16189869Y26285544D01*
X16193781Y26291666D01*
X16204350Y26313938D01*
X16215528Y26335853D01*
X16217988Y26342672D01*
X16221100Y26349231D01*
X16228791Y26372631D01*
X16237144Y26395791D01*
X16238731Y26402869D01*
X16240997Y26409763D01*
X16245703Y26433969D01*
X16251084Y26457966D01*
X16251772Y26465175D01*
X16253159Y26472309D01*
X16254653Y26495378D01*
X16257134Y26521397D01*
X16256878Y26529775D01*
X16257400Y26537816D01*
X16257400Y28225675D01*
X16256944Y28232913D01*
X16257194Y28240169D01*
X16254947Y28264719D01*
X16253403Y28289269D01*
X16252047Y28296388D01*
X16251384Y28303622D01*
X16246081Y28327697D01*
X16241478Y28351859D01*
X16239241Y28358753D01*
X16237678Y28365850D01*
X16229406Y28389063D01*
X16221813Y28412466D01*
X16218728Y28419031D01*
X16216291Y28425869D01*
X16205181Y28447853D01*
X16194713Y28470134D01*
X16190831Y28476263D01*
X16187556Y28482741D01*
X16173775Y28503172D01*
X16160606Y28523956D01*
X16155988Y28529547D01*
X16151928Y28535569D01*
X16136716Y28552888D01*
X16120034Y28573088D01*
X16113909Y28578850D01*
X16108606Y28584888D01*
X15984094Y28709397D01*
X15854200Y29022988D01*
X15854200Y29362409D01*
X15984094Y29676000D01*
X16224097Y29916003D01*
X16537688Y30045897D01*
X16877109Y30045897D01*
X17190700Y29916003D01*
X17430703Y29676000D01*
X17560597Y29362409D01*
X17560597Y29022988D01*
X17430703Y28709397D01*
X17306191Y28584888D01*
X17301400Y28579453D01*
X17296088Y28574494D01*
X17280334Y28555566D01*
X17264047Y28537097D01*
X17259969Y28531097D01*
X17255325Y28525519D01*
X17242038Y28504725D01*
X17228222Y28484403D01*
X17224934Y28477959D01*
X17221016Y28471825D01*
X17210438Y28449538D01*
X17199272Y28427644D01*
X17196813Y28420828D01*
X17193697Y28414259D01*
X17185988Y28390809D01*
X17177656Y28367703D01*
X17176072Y28360644D01*
X17173800Y28353728D01*
X17169091Y28329506D01*
X17163713Y28305528D01*
X17163025Y28298313D01*
X17161638Y28291181D01*
X17160144Y28268128D01*
X17157663Y28242100D01*
X17157919Y28233719D01*
X17157397Y28225675D01*
X17157397Y26051488D01*
X17088888Y25886091D01*
X14660188Y23457391D01*
X14655400Y23451959D01*
X14650088Y23447000D01*
X14634306Y23428041D01*
X14618047Y23409600D01*
X14613978Y23403616D01*
X14609325Y23398025D01*
X14596034Y23377225D01*
X14582219Y23356906D01*
X14578928Y23350453D01*
X14575016Y23344331D01*
X14564447Y23322059D01*
X14553269Y23300144D01*
X14550809Y23293325D01*
X14547697Y23286766D01*
X14540006Y23263366D01*
X14531653Y23240206D01*
X14530066Y23233128D01*
X14527800Y23226234D01*
X14523094Y23202028D01*
X14517713Y23178031D01*
X14517025Y23170822D01*
X14515638Y23163688D01*
X14514144Y23140619D01*
X14511663Y23114600D01*
X14511919Y23106222D01*
X14511397Y23098181D01*
X14511397Y13467188D01*
X14442888Y13301794D01*
X13789559Y12648469D01*
X13784756Y12643022D01*
X13779459Y12638075D01*
X13763697Y12619138D01*
X13747419Y12600675D01*
X13743347Y12594688D01*
X13738697Y12589100D01*
X13725416Y12568316D01*
X13711591Y12547984D01*
X13708291Y12541516D01*
X13704388Y12535406D01*
X13693838Y12513178D01*
X13682641Y12491222D01*
X13680178Y12484391D01*
X13677069Y12477841D01*
X13669381Y12454453D01*
X13661025Y12431281D01*
X13659438Y12424203D01*
X13657172Y12417309D01*
X13652466Y12393103D01*
X13647084Y12369106D01*
X13646397Y12361897D01*
X13645009Y12354763D01*
X13643516Y12331700D01*
X13641034Y12305678D01*
X13641291Y12297297D01*
X13640769Y12289256D01*
X13640769Y10692169D01*
X13641225Y10684931D01*
X13640975Y10677675D01*
X13643222Y10653125D01*
X13644766Y10628575D01*
X13646122Y10621456D01*
X13646784Y10614222D01*
X13652084Y10590156D01*
X13656691Y10565984D01*
X13658928Y10559084D01*
X13660491Y10551997D01*
X13668756Y10528803D01*
X13676356Y10505378D01*
X13679441Y10498813D01*
X13681878Y10491975D01*
X13692988Y10469991D01*
X13703456Y10447709D01*
X13707338Y10441581D01*
X13710613Y10435103D01*
X13724413Y10414641D01*
X13737563Y10393888D01*
X13742166Y10388313D01*
X13746238Y10382275D01*
X13761503Y10364897D01*
X13778134Y10344756D01*
X13784241Y10339009D01*
X13789559Y10332956D01*
X13993616Y10128903D01*
X14123506Y9815319D01*
X14123506Y9475897D01*
X13993613Y9162306D01*
X13753609Y8922303D01*
X13440019Y8792409D01*
X13100600Y8792409D01*
X12878850Y8884263D01*
X12868075Y8887953D01*
X12857684Y8892478D01*
X12838022Y8898244D01*
X12818569Y8904906D01*
X12807434Y8907216D01*
X12796541Y8910409D01*
X12776275Y8913675D01*
X12756178Y8917841D01*
X12744850Y8918738D01*
X12733634Y8920544D01*
X12713128Y8921247D01*
X12692656Y8922866D01*
X12681306Y8922338D01*
X12669953Y8922725D01*
X12649503Y8920853D01*
X12629009Y8919897D01*
X12617822Y8917953D01*
X12606500Y8916916D01*
X12586444Y8912497D01*
X12566231Y8908984D01*
X12555375Y8905653D01*
X12544275Y8903209D01*
X12524931Y8896316D01*
X12505316Y8890300D01*
X12494963Y8885638D01*
X12484253Y8881822D01*
X12465919Y8872559D01*
X12447216Y8864138D01*
X12437534Y8858222D01*
X12427381Y8853091D01*
X12410331Y8841591D01*
X12392850Y8830906D01*
X12383988Y8823825D01*
X12374553Y8817463D01*
X12359753Y8804463D01*
X12343069Y8791131D01*
X12334266Y8782075D01*
X12325234Y8774141D01*
X10661800Y7110706D01*
X10646172Y7092984D01*
X10629934Y7075725D01*
X10625094Y7069078D01*
X10619659Y7062916D01*
X10606366Y7043366D01*
X10592422Y7024219D01*
X10588447Y7017009D01*
X10583831Y7010222D01*
X10573094Y6989166D01*
X10561653Y6968422D01*
X10558616Y6960778D01*
X10554881Y6953459D01*
X10546847Y6931184D01*
X10538113Y6909213D01*
X10536059Y6901269D01*
X10533266Y6893522D01*
X10528081Y6870394D01*
X10522169Y6847522D01*
X10521125Y6839375D01*
X10519325Y6831347D01*
X10517075Y6807772D01*
X10514072Y6784319D01*
X10514056Y6776106D01*
X10513275Y6767916D01*
X10513994Y6744241D01*
X10513950Y6720600D01*
X10514963Y6712453D01*
X10515213Y6704228D01*
X10518891Y6680838D01*
X10521806Y6657369D01*
X10523834Y6649403D01*
X10525109Y6641284D01*
X10531681Y6618553D01*
X10537516Y6595619D01*
X10540522Y6587972D01*
X10542806Y6580072D01*
X10552169Y6558350D01*
X10560831Y6536319D01*
X10564775Y6529100D01*
X10568028Y6521556D01*
X10580056Y6501144D01*
X10591391Y6480406D01*
X10596197Y6473753D01*
X10600375Y6466663D01*
X10614834Y6447956D01*
X10628703Y6428756D01*
X10634325Y6422734D01*
X10639341Y6416247D01*
X10656022Y6399503D01*
X10672191Y6382188D01*
X10678509Y6376928D01*
X10684309Y6371106D01*
X10702966Y6356572D01*
X10721166Y6341425D01*
X10728094Y6336997D01*
X10734578Y6331947D01*
X10754913Y6319863D01*
X10774859Y6307116D01*
X10782294Y6303588D01*
X10789350Y6299394D01*
X10811006Y6289963D01*
X10832425Y6279797D01*
X10840250Y6277225D01*
X10847769Y6273950D01*
X10870434Y6267303D01*
X10892956Y6259900D01*
X10901034Y6258328D01*
X10908913Y6256019D01*
X10932253Y6252259D01*
X10955503Y6247738D01*
X10963550Y6247216D01*
X10971819Y6245884D01*
X10997963Y6244988D01*
X11021009Y6243497D01*
X19330125Y6243497D01*
X19337359Y6243953D01*
G37*
G36*
X30048838Y3975666D02*
X30048838Y3975666D01*
X30064297Y3975638D01*
X30080606Y3977663D01*
X30096994Y3978694D01*
X30112175Y3981588D01*
X30127528Y3983494D01*
X30143456Y3987547D01*
X30159584Y3990619D01*
X30174284Y3995388D01*
X30189278Y3999203D01*
X30204572Y4005216D01*
X30220191Y4010284D01*
X30234172Y4016853D01*
X30248578Y4022519D01*
X30263006Y4030403D01*
X30277859Y4037384D01*
X30290922Y4045663D01*
X30304491Y4053078D01*
X30317816Y4062703D01*
X30331681Y4071491D01*
X30343581Y4081319D01*
X30356141Y4090391D01*
X30368156Y4101609D01*
X30380813Y4112063D01*
X30391413Y4123328D01*
X30402709Y4133878D01*
X30413222Y4146506D01*
X30424475Y4158469D01*
X30433569Y4170953D01*
X30443472Y4182853D01*
X30452325Y4196706D01*
X30461988Y4209975D01*
X30469453Y4223516D01*
X30477781Y4236547D01*
X30484825Y4251388D01*
X30492756Y4265772D01*
X30498466Y4280134D01*
X30505100Y4294113D01*
X30510234Y4309734D01*
X30516297Y4324981D01*
X30520159Y4339928D01*
X30524997Y4354644D01*
X30528138Y4370800D01*
X30532241Y4386672D01*
X30534203Y4401981D01*
X30537159Y4417191D01*
X30538191Y4433113D01*
X30540338Y4449875D01*
X30540369Y4466784D01*
X30541400Y4482697D01*
X30541400Y39077731D01*
X30542500Y39080388D01*
X30548844Y39098916D01*
X30556069Y39117084D01*
X30559150Y39129006D01*
X30563144Y39140669D01*
X30567122Y39159847D01*
X30572013Y39178775D01*
X30573575Y39190975D01*
X30576081Y39203059D01*
X30577628Y39222606D01*
X30580109Y39241978D01*
X30580134Y39254275D01*
X30581106Y39266578D01*
X30580194Y39286141D01*
X30580231Y39305697D01*
X30578713Y39317934D01*
X30578138Y39330228D01*
X30574791Y39349494D01*
X30572375Y39368928D01*
X30569338Y39380869D01*
X30567228Y39393006D01*
X30561491Y39411709D01*
X30556666Y39430678D01*
X30552153Y39442156D01*
X30548544Y39453922D01*
X30540525Y39471728D01*
X30533350Y39489978D01*
X30527431Y39500809D01*
X30522381Y39512022D01*
X30512169Y39528731D01*
X30502791Y39545891D01*
X30495591Y39555856D01*
X30489153Y39566391D01*
X30476934Y39581681D01*
X30465478Y39597541D01*
X30457059Y39606556D01*
X30449378Y39616169D01*
X30435359Y39629794D01*
X30421991Y39644109D01*
X30412513Y39651997D01*
X30403684Y39660578D01*
X30388072Y39672341D01*
X30373016Y39684872D01*
X30362631Y39691506D01*
X30352794Y39698919D01*
X30335819Y39708641D01*
X30319322Y39719181D01*
X30308172Y39724472D01*
X30297500Y39730584D01*
X30279472Y39738094D01*
X30261756Y39746500D01*
X30250034Y39750353D01*
X30238681Y39755081D01*
X30219850Y39760275D01*
X30201225Y39766397D01*
X30189109Y39768753D01*
X30177256Y39772022D01*
X30157916Y39774819D01*
X30138678Y39778559D01*
X30126669Y39779338D01*
X30114194Y39781141D01*
X30092831Y39781528D01*
X30073172Y39782800D01*
X27245397Y39782800D01*
X27229959Y39781831D01*
X27214500Y39781859D01*
X27198191Y39779834D01*
X27181803Y39778803D01*
X27166622Y39775909D01*
X27151269Y39774003D01*
X27135341Y39769950D01*
X27119213Y39766878D01*
X27104513Y39762109D01*
X27089519Y39758294D01*
X27074225Y39752281D01*
X27058606Y39747213D01*
X27044625Y39740644D01*
X27030219Y39734978D01*
X27015791Y39727094D01*
X27000938Y39720113D01*
X26987875Y39711834D01*
X26974306Y39704419D01*
X26960981Y39694794D01*
X26947116Y39686006D01*
X26935216Y39676178D01*
X26922656Y39667106D01*
X26910641Y39655888D01*
X26897984Y39645434D01*
X26887384Y39634169D01*
X26876088Y39623619D01*
X26865575Y39610991D01*
X26854322Y39599028D01*
X26845228Y39586544D01*
X26835325Y39574644D01*
X26826472Y39560791D01*
X26816809Y39547522D01*
X26809344Y39533981D01*
X26801016Y39520950D01*
X26793972Y39506109D01*
X26786041Y39491725D01*
X26780331Y39477363D01*
X26773697Y39463384D01*
X26768563Y39447763D01*
X26762500Y39432516D01*
X26758638Y39417569D01*
X26753800Y39402853D01*
X26750659Y39386697D01*
X26746556Y39370825D01*
X26744594Y39355516D01*
X26741638Y39340306D01*
X26740606Y39324384D01*
X26738459Y39307622D01*
X26738428Y39290713D01*
X26737397Y39274800D01*
X26737397Y4482697D01*
X26738366Y4467259D01*
X26738338Y4451800D01*
X26740363Y4435491D01*
X26741394Y4419103D01*
X26744288Y4403919D01*
X26746194Y4388569D01*
X26750247Y4372641D01*
X26753319Y4356513D01*
X26758088Y4341813D01*
X26761903Y4326819D01*
X26767916Y4311525D01*
X26772984Y4295906D01*
X26779553Y4281925D01*
X26785219Y4267519D01*
X26793103Y4253091D01*
X26800084Y4238238D01*
X26808363Y4225175D01*
X26815778Y4211606D01*
X26825403Y4198281D01*
X26834191Y4184416D01*
X26844019Y4172516D01*
X26853091Y4159956D01*
X26864309Y4147941D01*
X26874763Y4135284D01*
X26886028Y4124684D01*
X26896578Y4113388D01*
X26909206Y4102875D01*
X26921169Y4091622D01*
X26933653Y4082528D01*
X26945553Y4072625D01*
X26959406Y4063772D01*
X26972675Y4054109D01*
X26986216Y4046644D01*
X26999247Y4038316D01*
X27014088Y4031272D01*
X27028472Y4023341D01*
X27042834Y4017631D01*
X27056813Y4010997D01*
X27072434Y4005863D01*
X27087681Y3999800D01*
X27102628Y3995938D01*
X27117344Y3991100D01*
X27133500Y3987959D01*
X27149372Y3983856D01*
X27164681Y3981894D01*
X27179891Y3978938D01*
X27195813Y3977906D01*
X27212575Y3975759D01*
X27229484Y3975728D01*
X27245397Y3974697D01*
X30033400Y3974697D01*
X30048838Y3975666D01*
G37*
G36*
X10091616Y10096834D02*
X10091616Y10096834D01*
X10111213Y10097116D01*
X10123400Y10098831D01*
X10135675Y10099603D01*
X10154922Y10103269D01*
X10174309Y10106000D01*
X10186175Y10109225D01*
X10198266Y10111528D01*
X10216891Y10117572D01*
X10235797Y10122709D01*
X10247175Y10127397D01*
X10258872Y10131194D01*
X10276597Y10139525D01*
X10294709Y10146988D01*
X10305413Y10153066D01*
X10316541Y10158294D01*
X10333056Y10168759D01*
X10350119Y10178447D01*
X10360000Y10185834D01*
X10370363Y10192400D01*
X10385441Y10204850D01*
X10401153Y10216597D01*
X10410003Y10225134D01*
X10419494Y10232972D01*
X10432925Y10247247D01*
X10447013Y10260838D01*
X10454728Y10270419D01*
X10463156Y10279378D01*
X10474688Y10295213D01*
X10486972Y10310469D01*
X10493425Y10320938D01*
X10500669Y10330884D01*
X10510131Y10348041D01*
X10520403Y10364709D01*
X10525494Y10375900D01*
X10531438Y10386681D01*
X10538684Y10404906D01*
X10546781Y10422713D01*
X10550428Y10434450D01*
X10554978Y10445891D01*
X10559875Y10464844D01*
X10565694Y10483559D01*
X10567847Y10495691D01*
X10570922Y10507581D01*
X10573406Y10526988D01*
X10576838Y10546294D01*
X10577456Y10558588D01*
X10579019Y10570784D01*
X10579056Y10590375D01*
X10580041Y10609931D01*
X10579116Y10622188D01*
X10579141Y10634503D01*
X10576722Y10653963D01*
X10575253Y10673469D01*
X10572803Y10685513D01*
X10571284Y10697734D01*
X10566453Y10716728D01*
X10564200Y10727800D01*
X10564200Y11082409D01*
X10694094Y11396000D01*
X10934097Y11636003D01*
X11247688Y11765897D01*
X11423781Y11765897D01*
X11431016Y11766353D01*
X11438272Y11766103D01*
X11462816Y11768350D01*
X11487375Y11769894D01*
X11494497Y11771250D01*
X11501725Y11771913D01*
X11525772Y11777209D01*
X11549966Y11781819D01*
X11556872Y11784059D01*
X11563950Y11785619D01*
X11587113Y11793872D01*
X11610572Y11801484D01*
X11617147Y11804575D01*
X11623972Y11807006D01*
X11645950Y11818109D01*
X11668241Y11828584D01*
X11674359Y11832463D01*
X11680844Y11835738D01*
X11701303Y11849538D01*
X11722063Y11862691D01*
X11727647Y11867303D01*
X11733672Y11871366D01*
X11751022Y11886606D01*
X11771194Y11903263D01*
X11776941Y11909369D01*
X11782991Y11914684D01*
X12591981Y12723672D01*
X12596784Y12729119D01*
X12602081Y12734066D01*
X12617844Y12753003D01*
X12634122Y12771466D01*
X12638194Y12777453D01*
X12642844Y12783041D01*
X12656113Y12803806D01*
X12669950Y12824156D01*
X12673250Y12830625D01*
X12677153Y12836734D01*
X12687703Y12858963D01*
X12698900Y12880919D01*
X12701363Y12887750D01*
X12704472Y12894300D01*
X12712159Y12917688D01*
X12720516Y12940859D01*
X12722103Y12947938D01*
X12724369Y12954831D01*
X12729075Y12979038D01*
X12734456Y13003034D01*
X12735144Y13010244D01*
X12736531Y13017378D01*
X12738025Y13040441D01*
X12740506Y13066463D01*
X12740250Y13074844D01*
X12740772Y13082884D01*
X12740772Y20961253D01*
X12740316Y20968488D01*
X12740566Y20975744D01*
X12738319Y21000288D01*
X12736775Y21024847D01*
X12735419Y21031969D01*
X12734756Y21039197D01*
X12729459Y21063244D01*
X12724850Y21087438D01*
X12722609Y21094344D01*
X12721050Y21101422D01*
X12712797Y21124584D01*
X12705184Y21148044D01*
X12702094Y21154619D01*
X12699663Y21161444D01*
X12688559Y21183422D01*
X12678084Y21205713D01*
X12674206Y21211831D01*
X12670931Y21218316D01*
X12657131Y21238775D01*
X12643978Y21259534D01*
X12639366Y21265119D01*
X12635303Y21271144D01*
X12620081Y21288472D01*
X12603406Y21308666D01*
X12597284Y21314428D01*
X12591981Y21320463D01*
X7979209Y25933238D01*
X7961488Y25948866D01*
X7944228Y25965103D01*
X7937581Y25969944D01*
X7931419Y25975378D01*
X7911869Y25988672D01*
X7892722Y26002616D01*
X7885513Y26006591D01*
X7878725Y26011206D01*
X7857669Y26021944D01*
X7836925Y26033384D01*
X7829281Y26036422D01*
X7821963Y26040156D01*
X7799688Y26048191D01*
X7777716Y26056925D01*
X7769772Y26058978D01*
X7762025Y26061772D01*
X7738897Y26066956D01*
X7716025Y26072869D01*
X7707878Y26073913D01*
X7699850Y26075713D01*
X7676275Y26077963D01*
X7652822Y26080966D01*
X7644609Y26080981D01*
X7636419Y26081763D01*
X7612744Y26081044D01*
X7589103Y26081088D01*
X7580956Y26080075D01*
X7572731Y26079825D01*
X7549341Y26076147D01*
X7525872Y26073231D01*
X7517906Y26071203D01*
X7509788Y26069928D01*
X7487056Y26063356D01*
X7464122Y26057522D01*
X7456475Y26054516D01*
X7448575Y26052231D01*
X7426866Y26042875D01*
X7404822Y26034206D01*
X7397594Y26030256D01*
X7390063Y26027009D01*
X7369675Y26014997D01*
X7348909Y26003647D01*
X7342256Y25998841D01*
X7335166Y25994663D01*
X7316459Y25980203D01*
X7297259Y25966334D01*
X7291238Y25960713D01*
X7284750Y25955697D01*
X7268006Y25939016D01*
X7250691Y25922847D01*
X7245431Y25916528D01*
X7239609Y25910728D01*
X7225075Y25892072D01*
X7209928Y25873872D01*
X7205500Y25866944D01*
X7200450Y25860459D01*
X7188366Y25840125D01*
X7175619Y25820178D01*
X7172091Y25812744D01*
X7167897Y25805688D01*
X7158466Y25784031D01*
X7148300Y25762613D01*
X7145728Y25754788D01*
X7142453Y25747269D01*
X7135806Y25724603D01*
X7128403Y25702081D01*
X7126831Y25694003D01*
X7124522Y25686125D01*
X7120763Y25662784D01*
X7116241Y25639534D01*
X7115719Y25631488D01*
X7114388Y25623219D01*
X7113491Y25597075D01*
X7112000Y25574028D01*
X7112000Y22094159D01*
X7112713Y22082831D01*
X7112506Y22071463D01*
X7114709Y22051028D01*
X7115997Y22030566D01*
X7118122Y22019416D01*
X7119341Y22008113D01*
X7124081Y21988125D01*
X7127922Y21967975D01*
X7131425Y21957178D01*
X7134050Y21946116D01*
X7141253Y21926891D01*
X7147588Y21907369D01*
X7152422Y21897081D01*
X7156406Y21886447D01*
X7165963Y21868269D01*
X7174688Y21849700D01*
X7180756Y21840122D01*
X7186053Y21830047D01*
X7197828Y21813184D01*
X7208794Y21795878D01*
X7216025Y21787122D01*
X7222531Y21777803D01*
X7236278Y21762594D01*
X7249366Y21746747D01*
X7257650Y21738953D01*
X7265259Y21730534D01*
X7280822Y21717150D01*
X7295772Y21703084D01*
X7304950Y21696400D01*
X7313569Y21688988D01*
X7330684Y21677656D01*
X7347278Y21665572D01*
X7357234Y21660081D01*
X7366700Y21653816D01*
X7384353Y21645128D01*
X7403075Y21634803D01*
X7414806Y21630138D01*
X7425597Y21624828D01*
X7832275Y21456378D01*
X8072278Y21216375D01*
X8202172Y20902784D01*
X8202172Y20563363D01*
X8122459Y20370925D01*
X8118775Y20360169D01*
X8114241Y20349756D01*
X8108463Y20330050D01*
X8101816Y20310644D01*
X8099513Y20299531D01*
X8096309Y20288613D01*
X8093041Y20268331D01*
X8088878Y20248250D01*
X8087981Y20236922D01*
X8086175Y20225706D01*
X8085472Y20205203D01*
X8083853Y20184731D01*
X8084381Y20173378D01*
X8083994Y20162025D01*
X8085866Y20141575D01*
X8086822Y20121081D01*
X8088766Y20109888D01*
X8089803Y20098572D01*
X8094213Y20078547D01*
X8097731Y20058306D01*
X8101069Y20047425D01*
X8103509Y20036344D01*
X8110388Y20017044D01*
X8116416Y19997388D01*
X8121091Y19987006D01*
X8124897Y19976325D01*
X8134138Y19958031D01*
X8142578Y19939291D01*
X8148506Y19929594D01*
X8153628Y19919453D01*
X8165100Y19902441D01*
X8175809Y19884922D01*
X8182909Y19876038D01*
X8189256Y19866625D01*
X8202241Y19851841D01*
X8215584Y19835144D01*
X8224644Y19826341D01*
X8232578Y19817306D01*
X10305200Y17744688D01*
X10310631Y17739897D01*
X10315591Y17734588D01*
X10334513Y17718841D01*
X10352991Y17702544D01*
X10358994Y17698463D01*
X10364566Y17693825D01*
X10385334Y17680553D01*
X10405684Y17666719D01*
X10412138Y17663428D01*
X10418259Y17659516D01*
X10440531Y17648947D01*
X10462447Y17637769D01*
X10469266Y17635309D01*
X10475825Y17632197D01*
X10499225Y17624506D01*
X10522384Y17616153D01*
X10529463Y17614566D01*
X10536356Y17612300D01*
X10560563Y17607594D01*
X10584559Y17602213D01*
X10591769Y17601525D01*
X10598903Y17600138D01*
X10621972Y17598644D01*
X10647991Y17596163D01*
X10656369Y17596419D01*
X10664409Y17595897D01*
X10837109Y17595897D01*
X11150700Y17466003D01*
X11390703Y17226000D01*
X11520597Y16912409D01*
X11520597Y16572988D01*
X11390703Y16259397D01*
X11150700Y16019394D01*
X10894194Y15913147D01*
X10884003Y15908156D01*
X10873419Y15903994D01*
X10855394Y15894141D01*
X10836972Y15885119D01*
X10827463Y15878878D01*
X10817506Y15873434D01*
X10800897Y15861434D01*
X10783706Y15850150D01*
X10775063Y15842772D01*
X10765856Y15836122D01*
X10750831Y15822091D01*
X10735241Y15808784D01*
X10727600Y15800397D01*
X10719288Y15792634D01*
X10706156Y15776856D01*
X10692331Y15761681D01*
X10685794Y15752394D01*
X10678525Y15743659D01*
X10667456Y15726338D01*
X10655659Y15709575D01*
X10650341Y15699553D01*
X10644216Y15689966D01*
X10635413Y15671416D01*
X10625794Y15653288D01*
X10621766Y15642659D01*
X10616897Y15632400D01*
X10610488Y15612903D01*
X10603213Y15593706D01*
X10600550Y15582666D01*
X10597000Y15571869D01*
X10593078Y15551700D01*
X10588269Y15531766D01*
X10588228Y15531413D01*
X10450703Y15199397D01*
X10210700Y14959394D01*
X9897109Y14829500D01*
X9557688Y14829500D01*
X9244097Y14959394D01*
X9004094Y15199397D01*
X8874200Y15512988D01*
X8874200Y15733688D01*
X8873744Y15740922D01*
X8873994Y15748178D01*
X8871747Y15772722D01*
X8870203Y15797281D01*
X8868847Y15804403D01*
X8868184Y15811631D01*
X8862888Y15835678D01*
X8858278Y15859872D01*
X8856038Y15866778D01*
X8854478Y15873856D01*
X8846225Y15897019D01*
X8838613Y15920478D01*
X8835522Y15927053D01*
X8833091Y15933878D01*
X8821988Y15955856D01*
X8811513Y15978147D01*
X8807634Y15984266D01*
X8804359Y15990750D01*
X8790559Y16011209D01*
X8777406Y16031969D01*
X8772794Y16037553D01*
X8768731Y16043578D01*
X8753491Y16060928D01*
X8736834Y16081100D01*
X8730728Y16086847D01*
X8725413Y16092897D01*
X7979213Y16839100D01*
X7961459Y16854753D01*
X7944228Y16870966D01*
X7937584Y16875803D01*
X7931419Y16881241D01*
X7911853Y16894544D01*
X7892722Y16908478D01*
X7885528Y16912447D01*
X7878728Y16917069D01*
X7857631Y16927828D01*
X7836925Y16939247D01*
X7829297Y16942281D01*
X7821966Y16946019D01*
X7799666Y16954059D01*
X7777716Y16962788D01*
X7769775Y16964841D01*
X7762025Y16967634D01*
X7738897Y16972819D01*
X7716025Y16978731D01*
X7707878Y16979775D01*
X7699850Y16981575D01*
X7676272Y16983825D01*
X7652822Y16986828D01*
X7644613Y16986844D01*
X7636422Y16987625D01*
X7612747Y16986906D01*
X7589103Y16986950D01*
X7580956Y16985938D01*
X7572731Y16985688D01*
X7549341Y16982009D01*
X7525872Y16979094D01*
X7517906Y16977066D01*
X7509788Y16975791D01*
X7487056Y16969219D01*
X7464122Y16963384D01*
X7456475Y16960378D01*
X7448575Y16958094D01*
X7426866Y16948738D01*
X7404822Y16940069D01*
X7397594Y16936119D01*
X7390063Y16932872D01*
X7369675Y16920859D01*
X7348909Y16909509D01*
X7342256Y16904703D01*
X7335166Y16900525D01*
X7316459Y16886066D01*
X7297259Y16872197D01*
X7291238Y16866575D01*
X7284750Y16861559D01*
X7268006Y16844878D01*
X7250691Y16828709D01*
X7245431Y16822391D01*
X7239609Y16816591D01*
X7225094Y16797956D01*
X7209928Y16779734D01*
X7205488Y16772784D01*
X7200453Y16766322D01*
X7188394Y16746031D01*
X7175619Y16726041D01*
X7172088Y16718603D01*
X7167897Y16711550D01*
X7158466Y16689894D01*
X7148300Y16668475D01*
X7145728Y16660650D01*
X7142453Y16653131D01*
X7135806Y16630466D01*
X7128403Y16607944D01*
X7126831Y16599866D01*
X7124522Y16591988D01*
X7120763Y16568647D01*
X7116241Y16545397D01*
X7115719Y16537350D01*
X7114388Y16529081D01*
X7113491Y16502938D01*
X7112000Y16479891D01*
X7112000Y10603606D01*
X7112969Y10588169D01*
X7112941Y10572709D01*
X7114966Y10556400D01*
X7115997Y10540013D01*
X7118891Y10524831D01*
X7120797Y10509478D01*
X7124850Y10493550D01*
X7127922Y10477422D01*
X7132691Y10462722D01*
X7136506Y10447728D01*
X7142519Y10432434D01*
X7147588Y10416816D01*
X7154156Y10402834D01*
X7159822Y10388428D01*
X7167706Y10374000D01*
X7174688Y10359147D01*
X7182966Y10346084D01*
X7190381Y10332516D01*
X7200006Y10319191D01*
X7208794Y10305325D01*
X7218622Y10293425D01*
X7227694Y10280866D01*
X7238913Y10268850D01*
X7249366Y10256194D01*
X7260631Y10245594D01*
X7271181Y10234297D01*
X7283809Y10223784D01*
X7295772Y10212531D01*
X7308256Y10203438D01*
X7320156Y10193534D01*
X7334009Y10184681D01*
X7347278Y10175019D01*
X7360819Y10167553D01*
X7373850Y10159225D01*
X7388691Y10152181D01*
X7403075Y10144250D01*
X7417438Y10138541D01*
X7431416Y10131906D01*
X7447038Y10126772D01*
X7462284Y10120709D01*
X7477231Y10116847D01*
X7491947Y10112009D01*
X7508103Y10108869D01*
X7523975Y10104766D01*
X7539284Y10102803D01*
X7554494Y10099847D01*
X7570416Y10098816D01*
X7587178Y10096669D01*
X7604088Y10096638D01*
X7620000Y10095606D01*
X10072081Y10095606D01*
X10091616Y10096834D01*
G37*
G36*
X22318503Y314184D02*
X22318503Y314184D01*
X22342134Y314903D01*
X22350244Y316178D01*
X22358450Y316694D01*
X22381713Y321125D01*
X22405081Y324800D01*
X22412972Y327081D01*
X22421041Y328619D01*
X22443534Y335919D01*
X22466291Y342497D01*
X22473841Y345753D01*
X22481647Y348284D01*
X22503044Y358341D01*
X22524803Y367719D01*
X22531891Y371894D01*
X22539316Y375384D01*
X22559278Y388034D01*
X22579700Y400069D01*
X22586213Y405103D01*
X22593138Y409491D01*
X22611356Y424538D01*
X22630116Y439034D01*
X22635938Y444834D01*
X22642269Y450063D01*
X22658484Y467297D01*
X22675256Y484006D01*
X22680306Y490491D01*
X22685931Y496469D01*
X22699878Y515616D01*
X22714409Y534275D01*
X22718597Y541322D01*
X22723444Y547975D01*
X22734884Y568722D01*
X22746966Y589047D01*
X22750244Y596578D01*
X22754213Y603772D01*
X22762963Y625784D01*
X22772406Y647466D01*
X22774716Y655344D01*
X22777753Y662981D01*
X22783659Y685834D01*
X22790338Y708609D01*
X22791647Y716741D01*
X22793697Y724672D01*
X22796700Y748119D01*
X22800469Y771516D01*
X22800750Y779728D01*
X22801794Y787875D01*
X22801838Y811519D01*
X22802650Y835197D01*
X22801900Y843391D01*
X22801916Y851594D01*
X22799000Y875050D01*
X22796841Y898650D01*
X22795072Y906681D01*
X22794059Y914825D01*
X22788222Y937769D01*
X22783131Y960878D01*
X22780378Y968606D01*
X22778350Y976575D01*
X22769678Y998628D01*
X22761744Y1020897D01*
X22758047Y1028216D01*
X22755034Y1035875D01*
X22743678Y1056653D01*
X22733009Y1077769D01*
X22728409Y1084591D01*
X22724475Y1091788D01*
X22710625Y1110959D01*
X22697381Y1130597D01*
X22692075Y1136638D01*
X22687163Y1143438D01*
X22669294Y1162572D01*
X22654059Y1179916D01*
X22647666Y1186306D01*
X22551000Y1419684D01*
X22551000Y1675544D01*
X22557934Y1692984D01*
X22561016Y1704903D01*
X22565013Y1716575D01*
X22568991Y1735763D01*
X22573878Y1754675D01*
X22575444Y1766884D01*
X22577947Y1778966D01*
X22579491Y1798494D01*
X22581975Y1817878D01*
X22582000Y1830181D01*
X22582972Y1842484D01*
X22582059Y1862047D01*
X22582097Y1881597D01*
X22580578Y1893828D01*
X22580003Y1906134D01*
X22576653Y1925416D01*
X22574241Y1944828D01*
X22571206Y1956753D01*
X22569094Y1968913D01*
X22563347Y1987647D01*
X22558531Y2006578D01*
X22554028Y2018034D01*
X22550409Y2029828D01*
X22542378Y2047663D01*
X22535216Y2065878D01*
X22529297Y2076706D01*
X22524244Y2087928D01*
X22514034Y2104631D01*
X22504656Y2121791D01*
X22497450Y2131763D01*
X22491016Y2142294D01*
X22478813Y2157566D01*
X22467344Y2173441D01*
X22458919Y2182463D01*
X22451241Y2192072D01*
X22437225Y2205694D01*
X22423856Y2220009D01*
X22414378Y2227897D01*
X22405547Y2236481D01*
X22389934Y2248241D01*
X22374881Y2260772D01*
X22364488Y2267413D01*
X22354653Y2274822D01*
X22337684Y2284541D01*
X22321188Y2295081D01*
X22310050Y2300369D01*
X22299363Y2306488D01*
X22281313Y2314003D01*
X22263622Y2322400D01*
X22251906Y2326250D01*
X22240541Y2330984D01*
X22221688Y2336184D01*
X22203091Y2342297D01*
X22190994Y2344650D01*
X22179116Y2347925D01*
X22159756Y2350722D01*
X22140544Y2354459D01*
X22128531Y2355238D01*
X22116053Y2357041D01*
X22094700Y2357428D01*
X22075038Y2358700D01*
X17477097Y2358700D01*
X17465769Y2357988D01*
X17454397Y2358194D01*
X17433956Y2355988D01*
X17413503Y2354703D01*
X17402356Y2352578D01*
X17391047Y2351359D01*
X17371047Y2346616D01*
X17350913Y2342778D01*
X17340125Y2339278D01*
X17329050Y2336650D01*
X17309806Y2329441D01*
X17290306Y2323113D01*
X17280031Y2318284D01*
X17269381Y2314294D01*
X17251197Y2304734D01*
X17232638Y2296013D01*
X17223050Y2289938D01*
X17212981Y2284644D01*
X17196122Y2272872D01*
X17178816Y2261906D01*
X17170072Y2254684D01*
X17160738Y2248169D01*
X17145522Y2234413D01*
X17129684Y2221334D01*
X17121875Y2213034D01*
X17113472Y2205438D01*
X17100119Y2189909D01*
X17086022Y2174928D01*
X17079322Y2165731D01*
X17071925Y2157128D01*
X17060606Y2140031D01*
X17048509Y2123422D01*
X17043022Y2113469D01*
X17036750Y2103997D01*
X17028059Y2086338D01*
X17019613Y2071019D01*
X16718975Y1770381D01*
X16328641Y1608700D01*
X15906156Y1608700D01*
X15515822Y1770381D01*
X15206606Y2079597D01*
X15195019Y2089816D01*
X15184094Y2100781D01*
X15171122Y2110888D01*
X15158816Y2121738D01*
X15146047Y2130419D01*
X15133828Y2139938D01*
X15119684Y2148344D01*
X15106122Y2157566D01*
X15092363Y2164584D01*
X15079053Y2172494D01*
X15063994Y2179053D01*
X15049359Y2186516D01*
X15034788Y2191769D01*
X15020634Y2197934D01*
X15004909Y2202547D01*
X14989422Y2208131D01*
X14974313Y2211519D01*
X14959491Y2215866D01*
X14943278Y2218478D01*
X14927247Y2222072D01*
X14911853Y2223541D01*
X14896584Y2226000D01*
X14880166Y2226563D01*
X14863816Y2228122D01*
X14848363Y2227653D01*
X14832903Y2228181D01*
X14816547Y2226684D01*
X14800128Y2226184D01*
X14784844Y2223781D01*
X14769450Y2222372D01*
X14753409Y2218838D01*
X14737184Y2216288D01*
X14722328Y2211991D01*
X14707225Y2208666D01*
X14691759Y2203156D01*
X14675972Y2198591D01*
X14661763Y2192466D01*
X14647203Y2187278D01*
X14632550Y2179875D01*
X14617456Y2173369D01*
X14604125Y2165513D01*
X14590331Y2158544D01*
X14576713Y2149359D01*
X14562563Y2141022D01*
X14550341Y2131575D01*
X14537503Y2122919D01*
X14525516Y2112388D01*
X14512147Y2102056D01*
X14500172Y2090125D01*
X14488184Y2079597D01*
X14178969Y1770378D01*
X13788641Y1608700D01*
X13366156Y1608700D01*
X12975828Y1770378D01*
X12622200Y2124009D01*
X12604594Y2139534D01*
X12587497Y2155644D01*
X12580700Y2160603D01*
X12574406Y2166150D01*
X12554981Y2179359D01*
X12536016Y2193191D01*
X12528678Y2197244D01*
X12521716Y2201978D01*
X12500747Y2212672D01*
X12480241Y2224000D01*
X12472453Y2227103D01*
X12464953Y2230928D01*
X12442831Y2238906D01*
X12421050Y2247584D01*
X12412925Y2249691D01*
X12405013Y2252544D01*
X12382063Y2257691D01*
X12359369Y2263572D01*
X12351047Y2264644D01*
X12342841Y2266484D01*
X12319469Y2268713D01*
X12296172Y2271716D01*
X12287766Y2271738D01*
X12279409Y2272534D01*
X12255934Y2271819D01*
X12232456Y2271881D01*
X12224128Y2270853D01*
X12215719Y2270597D01*
X12192525Y2266950D01*
X12169219Y2264072D01*
X12161063Y2262003D01*
X12152775Y2260700D01*
X12130253Y2254188D01*
X12107456Y2248406D01*
X12099625Y2245334D01*
X12091566Y2243003D01*
X12070025Y2233719D01*
X12048141Y2225131D01*
X12040759Y2221103D01*
X12033050Y2217781D01*
X12012831Y2205869D01*
X11992206Y2194616D01*
X11985388Y2189697D01*
X11978153Y2185434D01*
X11959603Y2171097D01*
X11940528Y2157338D01*
X11934372Y2151597D01*
X11927738Y2146469D01*
X11911100Y2129897D01*
X11893928Y2113881D01*
X11888675Y2107556D01*
X11882597Y2101500D01*
X11866656Y2081038D01*
X11851994Y2063378D01*
X11812344Y2008800D01*
X11699288Y1895744D01*
X11569906Y1801744D01*
X11545413Y1789266D01*
X11545413Y3432666D01*
X11544444Y3448103D01*
X11544472Y3463563D01*
X11542447Y3479872D01*
X11541416Y3496259D01*
X11538522Y3511441D01*
X11536616Y3526794D01*
X11532563Y3542722D01*
X11529491Y3558850D01*
X11524722Y3573550D01*
X11520906Y3588544D01*
X11514894Y3603838D01*
X11509825Y3619456D01*
X11503263Y3633419D01*
X11497591Y3647844D01*
X11489706Y3662272D01*
X11482725Y3677125D01*
X11474447Y3690188D01*
X11467031Y3703756D01*
X11457406Y3717081D01*
X11448619Y3730947D01*
X11438791Y3742847D01*
X11429719Y3755406D01*
X11418500Y3767422D01*
X11408047Y3780078D01*
X11396781Y3790678D01*
X11386231Y3801975D01*
X11373603Y3812488D01*
X11361641Y3823741D01*
X11349156Y3832834D01*
X11337256Y3842738D01*
X11323403Y3851591D01*
X11310134Y3861253D01*
X11296594Y3868719D01*
X11283563Y3877047D01*
X11268722Y3884091D01*
X11254338Y3892022D01*
X11239975Y3897731D01*
X11225997Y3904366D01*
X11210375Y3909500D01*
X11195128Y3915563D01*
X11180181Y3919425D01*
X11165466Y3924263D01*
X11149309Y3927403D01*
X11133438Y3931506D01*
X11118128Y3933469D01*
X11102919Y3936425D01*
X11086997Y3937456D01*
X11070234Y3939603D01*
X11053325Y3939634D01*
X11037413Y3940666D01*
X11037381Y3940666D01*
X11021947Y3939697D01*
X11006516Y3939725D01*
X11006484Y3939725D01*
X10990175Y3937700D01*
X10973788Y3936669D01*
X10958606Y3933775D01*
X10943253Y3931869D01*
X10927325Y3927816D01*
X10911197Y3924744D01*
X10896497Y3919975D01*
X10881503Y3916159D01*
X10866209Y3910147D01*
X10850591Y3905078D01*
X10836609Y3898509D01*
X10822203Y3892844D01*
X10807775Y3884959D01*
X10792922Y3877978D01*
X10779859Y3869700D01*
X10766291Y3862284D01*
X10752966Y3852659D01*
X10739100Y3843872D01*
X10727200Y3834044D01*
X10714641Y3824972D01*
X10702625Y3813753D01*
X10689969Y3803300D01*
X10679369Y3792034D01*
X10668072Y3781484D01*
X10657559Y3768856D01*
X10646306Y3756894D01*
X10637213Y3744409D01*
X10627309Y3732509D01*
X10618456Y3718656D01*
X10608794Y3705388D01*
X10601328Y3691847D01*
X10593000Y3678816D01*
X10585956Y3663975D01*
X10578025Y3649591D01*
X10572316Y3635228D01*
X10565681Y3621250D01*
X10560547Y3605628D01*
X10554484Y3590381D01*
X10550622Y3575434D01*
X10545784Y3560719D01*
X10542644Y3544563D01*
X10538541Y3528691D01*
X10536578Y3513381D01*
X10533622Y3498172D01*
X10532591Y3482250D01*
X10530444Y3465488D01*
X10530413Y3448578D01*
X10529381Y3432666D01*
X10529381Y1789266D01*
X10504891Y1801744D01*
X10375509Y1895744D01*
X10262453Y2008800D01*
X10222803Y2063378D01*
X10207806Y2081509D01*
X10193475Y2100053D01*
X10187556Y2105994D01*
X10182194Y2112478D01*
X10165063Y2128572D01*
X10148506Y2145194D01*
X10141881Y2150353D01*
X10135756Y2156109D01*
X10116769Y2169916D01*
X10098241Y2184350D01*
X10091013Y2188644D01*
X10084222Y2193584D01*
X10063656Y2204906D01*
X10043466Y2216906D01*
X10035766Y2220259D01*
X10028403Y2224313D01*
X10006550Y2232981D01*
X9985047Y2242347D01*
X9976994Y2244709D01*
X9969178Y2247809D01*
X9946447Y2253666D01*
X9923903Y2260278D01*
X9915600Y2261616D01*
X9907475Y2263709D01*
X9884188Y2266675D01*
X9860997Y2270413D01*
X9852609Y2270700D01*
X9844269Y2271763D01*
X9820775Y2271791D01*
X9797316Y2272594D01*
X9788947Y2271828D01*
X9780550Y2271838D01*
X9757263Y2268928D01*
X9733863Y2266784D01*
X9725650Y2264975D01*
X9717322Y2263934D01*
X9694584Y2258131D01*
X9671638Y2253078D01*
X9663722Y2250259D01*
X9655584Y2248181D01*
X9633744Y2239575D01*
X9611616Y2231691D01*
X9604116Y2227903D01*
X9596300Y2224822D01*
X9575694Y2213541D01*
X9554744Y2202956D01*
X9547778Y2198259D01*
X9540409Y2194225D01*
X9521413Y2180481D01*
X9501916Y2167331D01*
X9495716Y2161884D01*
X9488788Y2156872D01*
X9469881Y2139194D01*
X9452597Y2124009D01*
X9098969Y1770378D01*
X8708641Y1608700D01*
X8286159Y1608700D01*
X7814406Y1804109D01*
X7795869Y1810459D01*
X7777716Y1817675D01*
X7765803Y1820753D01*
X7754125Y1824753D01*
X7734938Y1828731D01*
X7716025Y1833619D01*
X7703816Y1835184D01*
X7691734Y1837688D01*
X7672206Y1839231D01*
X7652822Y1841716D01*
X7640516Y1841741D01*
X7628213Y1842713D01*
X7608653Y1841800D01*
X7589103Y1841838D01*
X7576872Y1840319D01*
X7564566Y1839744D01*
X7545306Y1836397D01*
X7525872Y1833981D01*
X7513916Y1830941D01*
X7501788Y1828831D01*
X7483113Y1823103D01*
X7464122Y1818272D01*
X7452628Y1813753D01*
X7440872Y1810147D01*
X7423078Y1802134D01*
X7404822Y1794956D01*
X7393988Y1789034D01*
X7382772Y1783984D01*
X7366084Y1773784D01*
X7348909Y1764397D01*
X7338913Y1757175D01*
X7328406Y1750753D01*
X7313144Y1738559D01*
X7297259Y1727084D01*
X7288250Y1718669D01*
X7278625Y1710981D01*
X7264981Y1696944D01*
X7250691Y1683597D01*
X7242806Y1674125D01*
X7234219Y1665288D01*
X7222459Y1649675D01*
X7209928Y1634622D01*
X7203288Y1624228D01*
X7195878Y1614394D01*
X7186166Y1597431D01*
X7175619Y1580928D01*
X7170325Y1569775D01*
X7164213Y1559100D01*
X7156703Y1541069D01*
X7148300Y1523363D01*
X7144447Y1511644D01*
X7139716Y1500281D01*
X7134519Y1481434D01*
X7128403Y1462831D01*
X7126050Y1450725D01*
X7122775Y1438853D01*
X7119978Y1419506D01*
X7116241Y1400284D01*
X7115463Y1388266D01*
X7113659Y1375791D01*
X7113456Y1364597D01*
X7113063Y1361519D01*
X7113041Y1350875D01*
X7112000Y1334778D01*
X7112000Y820697D01*
X7112969Y805259D01*
X7112941Y789800D01*
X7114966Y773491D01*
X7115997Y757103D01*
X7118891Y741922D01*
X7120797Y726569D01*
X7124850Y710641D01*
X7127922Y694513D01*
X7132691Y679813D01*
X7136506Y664819D01*
X7142519Y649525D01*
X7147588Y633906D01*
X7154156Y619925D01*
X7159822Y605519D01*
X7167706Y591091D01*
X7174688Y576238D01*
X7182966Y563175D01*
X7190381Y549606D01*
X7200006Y536281D01*
X7208794Y522416D01*
X7218622Y510516D01*
X7227694Y497956D01*
X7238913Y485941D01*
X7249366Y473284D01*
X7260631Y462684D01*
X7271181Y451388D01*
X7283809Y440875D01*
X7295772Y429622D01*
X7308256Y420528D01*
X7320156Y410625D01*
X7334009Y401772D01*
X7347278Y392109D01*
X7360819Y384644D01*
X7373850Y376316D01*
X7388691Y369272D01*
X7403075Y361341D01*
X7417438Y355631D01*
X7431416Y348997D01*
X7447038Y343863D01*
X7462284Y337800D01*
X7477231Y333938D01*
X7491947Y329100D01*
X7508103Y325959D01*
X7523975Y321856D01*
X7539284Y319894D01*
X7554494Y316938D01*
X7570416Y315906D01*
X7587178Y313759D01*
X7604088Y313728D01*
X7620000Y312697D01*
X22294856Y312697D01*
X22318503Y314184D01*
G37*
G36*
X22432559Y3976625D02*
X22432559Y3976625D01*
X22464697Y3978597D01*
X22465088Y3978672D01*
X22465456Y3978694D01*
X22495450Y3984409D01*
X22527306Y3990428D01*
X22527681Y3990550D01*
X22528047Y3990619D01*
X22557209Y4000081D01*
X22587944Y4010003D01*
X22588300Y4010169D01*
X22588653Y4010284D01*
X22616438Y4023341D01*
X22645650Y4037016D01*
X22645978Y4037222D01*
X22646322Y4037384D01*
X22672378Y4053897D01*
X22699525Y4071041D01*
X22699831Y4071291D01*
X22700144Y4071491D01*
X22724325Y4091459D01*
X22748716Y4111541D01*
X22748972Y4111813D01*
X22749275Y4112063D01*
X22771088Y4135247D01*
X22792450Y4157881D01*
X22792678Y4158191D01*
X22792938Y4158469D01*
X22811775Y4184331D01*
X22830038Y4209331D01*
X22830216Y4209653D01*
X22830450Y4209975D01*
X22845322Y4236947D01*
X22860891Y4265081D01*
X22861028Y4265428D01*
X22861219Y4265772D01*
X22873022Y4295463D01*
X22884522Y4324256D01*
X22884619Y4324625D01*
X22884759Y4324981D01*
X22892425Y4354644D01*
X22900559Y4385922D01*
X22900609Y4386309D01*
X22900703Y4386672D01*
X22904613Y4417191D01*
X22908750Y4449113D01*
X22908750Y4449494D01*
X22908800Y4449875D01*
X22908859Y4481038D01*
X22908969Y4512828D01*
X22908922Y4513216D01*
X22908922Y4513594D01*
X22907781Y4522781D01*
X24588166Y4522781D01*
X24603603Y4523750D01*
X24619063Y4523722D01*
X24635372Y4525747D01*
X24651759Y4526778D01*
X24666941Y4529672D01*
X24682294Y4531578D01*
X24698222Y4535631D01*
X24714350Y4538703D01*
X24729050Y4543472D01*
X24744044Y4547288D01*
X24759338Y4553300D01*
X24774956Y4558369D01*
X24788938Y4564938D01*
X24803344Y4570603D01*
X24817772Y4578488D01*
X24832625Y4585469D01*
X24845688Y4593747D01*
X24859256Y4601163D01*
X24872581Y4610788D01*
X24886447Y4619575D01*
X24898347Y4629403D01*
X24910906Y4638475D01*
X24922922Y4649694D01*
X24935578Y4660147D01*
X24946178Y4671413D01*
X24957475Y4681963D01*
X24967988Y4694591D01*
X24979241Y4706553D01*
X24988334Y4719038D01*
X24998238Y4730938D01*
X25007091Y4744791D01*
X25016753Y4758059D01*
X25024219Y4771600D01*
X25032547Y4784631D01*
X25039591Y4799472D01*
X25047522Y4813856D01*
X25053231Y4828219D01*
X25059866Y4842197D01*
X25065000Y4857819D01*
X25071063Y4873066D01*
X25074925Y4888013D01*
X25079763Y4902728D01*
X25082903Y4918884D01*
X25087006Y4934756D01*
X25088969Y4950066D01*
X25091925Y4965275D01*
X25092956Y4981197D01*
X25095103Y4997959D01*
X25095103Y4997991D01*
X25095134Y5014866D01*
X25096166Y5030781D01*
X25096166Y5030813D01*
X25095197Y5046250D01*
X25095225Y5061709D01*
X25093200Y5078019D01*
X25092169Y5094406D01*
X25089275Y5109588D01*
X25087369Y5124941D01*
X25083316Y5140869D01*
X25080244Y5156997D01*
X25075475Y5171697D01*
X25071659Y5186691D01*
X25065647Y5201984D01*
X25060578Y5217603D01*
X25054009Y5231584D01*
X25048344Y5245991D01*
X25040459Y5260419D01*
X25033478Y5275272D01*
X25025203Y5288331D01*
X25017784Y5301903D01*
X25008159Y5315228D01*
X24999372Y5329094D01*
X24989544Y5340994D01*
X24980472Y5353553D01*
X24969253Y5365569D01*
X24958800Y5378225D01*
X24947534Y5388825D01*
X24936984Y5400122D01*
X24924356Y5410634D01*
X24912394Y5421888D01*
X24899909Y5430981D01*
X24888009Y5440884D01*
X24874156Y5449738D01*
X24860888Y5459400D01*
X24847347Y5466866D01*
X24834316Y5475194D01*
X24819475Y5482238D01*
X24805091Y5490169D01*
X24790728Y5495878D01*
X24776750Y5502513D01*
X24761128Y5507647D01*
X24745881Y5513709D01*
X24730934Y5517572D01*
X24716219Y5522409D01*
X24700063Y5525550D01*
X24684191Y5529653D01*
X24668881Y5531616D01*
X24653672Y5534572D01*
X24637750Y5535603D01*
X24620988Y5537750D01*
X24604078Y5537781D01*
X24588166Y5538813D01*
X22944766Y5538813D01*
X22957244Y5563306D01*
X23051244Y5692688D01*
X23164309Y5805753D01*
X23218881Y5845400D01*
X23236972Y5860363D01*
X23255547Y5874719D01*
X23261497Y5880647D01*
X23267981Y5886009D01*
X23284075Y5903138D01*
X23300688Y5919688D01*
X23305847Y5926309D01*
X23311613Y5932447D01*
X23325425Y5951444D01*
X23339847Y5969956D01*
X23344147Y5977191D01*
X23349084Y5983981D01*
X23360409Y6004553D01*
X23372400Y6024728D01*
X23375750Y6032422D01*
X23379813Y6039800D01*
X23388478Y6061644D01*
X23397844Y6083147D01*
X23400209Y6091216D01*
X23403309Y6099028D01*
X23409163Y6121744D01*
X23415775Y6144291D01*
X23417113Y6152597D01*
X23419209Y6160731D01*
X23422175Y6184019D01*
X23425909Y6207197D01*
X23426197Y6215597D01*
X23427259Y6223938D01*
X23427288Y6247416D01*
X23428091Y6270878D01*
X23427325Y6279247D01*
X23427334Y6287656D01*
X23424419Y6310972D01*
X23422281Y6334331D01*
X23420475Y6342531D01*
X23419431Y6350881D01*
X23413619Y6373653D01*
X23408575Y6396556D01*
X23405759Y6404456D01*
X23403675Y6412622D01*
X23395059Y6434488D01*
X23387188Y6456578D01*
X23383400Y6464075D01*
X23380316Y6471903D01*
X23369041Y6492500D01*
X23358456Y6513450D01*
X23353756Y6520422D01*
X23349719Y6527794D01*
X23335944Y6546831D01*
X23322828Y6566278D01*
X23317403Y6572456D01*
X23312366Y6579416D01*
X23294622Y6598388D01*
X23279506Y6615597D01*
X22925881Y6969222D01*
X22812625Y7242650D01*
X22804025Y7260209D01*
X22796275Y7278188D01*
X22790013Y7288816D01*
X22784597Y7299872D01*
X22773859Y7316228D01*
X22763928Y7333081D01*
X22756403Y7342816D01*
X22749628Y7353138D01*
X22736909Y7368038D01*
X22724963Y7383497D01*
X22716263Y7392231D01*
X22708263Y7401603D01*
X22693806Y7414772D01*
X22679994Y7428638D01*
X22670275Y7436209D01*
X22661159Y7444513D01*
X22645163Y7455769D01*
X22629725Y7467797D01*
X22619116Y7474103D01*
X22609053Y7481184D01*
X22591775Y7490350D01*
X22574953Y7500350D01*
X22563669Y7505266D01*
X22552766Y7511050D01*
X22534434Y7517997D01*
X22516534Y7525794D01*
X22504728Y7529256D01*
X22493184Y7533631D01*
X22474153Y7538222D01*
X22455391Y7543725D01*
X22443219Y7545684D01*
X22431244Y7548575D01*
X22411803Y7550747D01*
X22392484Y7553859D01*
X22380172Y7554281D01*
X22367919Y7555650D01*
X22348359Y7555372D01*
X22328803Y7556041D01*
X22316525Y7554916D01*
X22304206Y7554741D01*
X22284841Y7552016D01*
X22265350Y7550231D01*
X22253309Y7547578D01*
X22241109Y7545863D01*
X22222234Y7540734D01*
X22203125Y7536525D01*
X22191509Y7532388D01*
X22179622Y7529156D01*
X22161544Y7521709D01*
X22143103Y7515138D01*
X22132094Y7509575D01*
X22120706Y7504884D01*
X22103700Y7495231D01*
X22086231Y7486406D01*
X22076022Y7479519D01*
X22065294Y7473431D01*
X22049603Y7461703D01*
X22033403Y7450778D01*
X22024372Y7442847D01*
X22014256Y7435284D01*
X21998866Y7420441D01*
X21984084Y7407456D01*
X19984203Y5407575D01*
X19817922Y5338700D01*
X17553309Y5338700D01*
X17533788Y5337472D01*
X17514219Y5337194D01*
X17502009Y5335475D01*
X17489716Y5334703D01*
X17470503Y5331044D01*
X17451122Y5328316D01*
X17439225Y5325084D01*
X17427125Y5322778D01*
X17408522Y5316741D01*
X17389631Y5311609D01*
X17378234Y5306916D01*
X17366519Y5303113D01*
X17348816Y5294794D01*
X17330719Y5287338D01*
X17319994Y5281250D01*
X17308850Y5276013D01*
X17292347Y5265556D01*
X17275306Y5255881D01*
X17265416Y5248488D01*
X17255028Y5241906D01*
X17239950Y5229456D01*
X17224269Y5217734D01*
X17215409Y5209191D01*
X17205897Y5201334D01*
X17192478Y5187072D01*
X17178406Y5173500D01*
X17170678Y5163900D01*
X17162234Y5154928D01*
X17150713Y5139106D01*
X17138444Y5123872D01*
X17131984Y5113394D01*
X17124722Y5103422D01*
X17115266Y5086272D01*
X17105006Y5069631D01*
X17099906Y5058419D01*
X17093953Y5047625D01*
X17086728Y5029456D01*
X17078622Y5011634D01*
X17074956Y4999847D01*
X17070413Y4988416D01*
X17065525Y4969506D01*
X17059706Y4950788D01*
X17057544Y4938628D01*
X17054469Y4926725D01*
X17051988Y4907363D01*
X17048556Y4888053D01*
X17047934Y4875716D01*
X17046372Y4863522D01*
X17046334Y4843991D01*
X17045347Y4824416D01*
X17046275Y4812109D01*
X17046250Y4799803D01*
X17048663Y4780391D01*
X17050131Y4760878D01*
X17052588Y4748803D01*
X17054106Y4736572D01*
X17058928Y4717622D01*
X17062828Y4698438D01*
X17066706Y4687044D01*
X17069816Y4674822D01*
X17077644Y4654913D01*
X17083981Y4636294D01*
X17190741Y4378563D01*
X17192247Y4372641D01*
X17195319Y4356513D01*
X17200088Y4341813D01*
X17203903Y4326819D01*
X17209916Y4311525D01*
X17214984Y4295906D01*
X17221553Y4281925D01*
X17227219Y4267519D01*
X17235103Y4253091D01*
X17242084Y4238238D01*
X17250363Y4225175D01*
X17257778Y4211606D01*
X17267403Y4198281D01*
X17276191Y4184416D01*
X17286019Y4172516D01*
X17295091Y4159956D01*
X17306309Y4147941D01*
X17316763Y4135284D01*
X17328028Y4124684D01*
X17338578Y4113388D01*
X17351206Y4102875D01*
X17363169Y4091622D01*
X17375653Y4082528D01*
X17387553Y4072625D01*
X17401406Y4063772D01*
X17414675Y4054109D01*
X17428216Y4046644D01*
X17441247Y4038316D01*
X17456088Y4031272D01*
X17470472Y4023341D01*
X17484834Y4017631D01*
X17498813Y4010997D01*
X17514434Y4005863D01*
X17529681Y3999800D01*
X17544628Y3995938D01*
X17559344Y3991100D01*
X17575500Y3987959D01*
X17591372Y3983856D01*
X17606681Y3981894D01*
X17621891Y3978938D01*
X17637813Y3977906D01*
X17654575Y3975759D01*
X17671484Y3975728D01*
X17687397Y3974697D01*
X22401863Y3974697D01*
X22432559Y3976625D01*
G37*
G36*
X25644838Y313666D02*
X25644838Y313666D01*
X25660297Y313638D01*
X25676606Y315663D01*
X25692994Y316694D01*
X25708175Y319588D01*
X25723528Y321494D01*
X25739456Y325547D01*
X25755584Y328619D01*
X25770284Y333388D01*
X25785278Y337203D01*
X25800572Y343216D01*
X25816191Y348284D01*
X25830172Y354853D01*
X25844578Y360519D01*
X25859006Y368403D01*
X25873859Y375384D01*
X25886922Y383663D01*
X25900491Y391078D01*
X25913816Y400703D01*
X25927681Y409491D01*
X25939581Y419319D01*
X25952141Y428391D01*
X25964156Y439609D01*
X25976813Y450063D01*
X25987413Y461328D01*
X25998709Y471878D01*
X26009222Y484506D01*
X26020475Y496469D01*
X26029569Y508953D01*
X26039472Y520853D01*
X26048325Y534706D01*
X26057988Y547975D01*
X26065453Y561516D01*
X26073781Y574547D01*
X26080825Y589388D01*
X26088756Y603772D01*
X26094466Y618134D01*
X26101100Y632113D01*
X26106234Y647734D01*
X26112297Y662981D01*
X26116159Y677928D01*
X26120997Y692644D01*
X26124138Y708800D01*
X26128241Y724672D01*
X26130203Y739981D01*
X26133159Y755191D01*
X26134191Y771113D01*
X26136338Y787875D01*
X26136369Y804784D01*
X26137400Y820697D01*
X26137400Y1850700D01*
X26136456Y1865722D01*
X26136459Y1867594D01*
X26136434Y1867806D01*
X26136459Y1881597D01*
X26134434Y1897906D01*
X26133403Y1914294D01*
X26130509Y1929475D01*
X26128603Y1944828D01*
X26124550Y1960756D01*
X26121478Y1976884D01*
X26116709Y1991584D01*
X26112894Y2006578D01*
X26106881Y2021872D01*
X26101813Y2037491D01*
X26095244Y2051472D01*
X26089578Y2065878D01*
X26081694Y2080306D01*
X26074713Y2095159D01*
X26066434Y2108222D01*
X26059019Y2121791D01*
X26049394Y2135116D01*
X26040606Y2148981D01*
X26030778Y2160881D01*
X26021706Y2173441D01*
X26010488Y2185456D01*
X26000034Y2198113D01*
X25988769Y2208713D01*
X25978219Y2220009D01*
X25965591Y2230522D01*
X25953628Y2241775D01*
X25941144Y2250869D01*
X25929244Y2260772D01*
X25915391Y2269625D01*
X25902122Y2279288D01*
X25888581Y2286753D01*
X25875550Y2295081D01*
X25860709Y2302125D01*
X25846325Y2310056D01*
X25831963Y2315766D01*
X25817984Y2322400D01*
X25802363Y2327534D01*
X25787116Y2333597D01*
X25772169Y2337459D01*
X25757453Y2342297D01*
X25741297Y2345438D01*
X25725425Y2349541D01*
X25710116Y2351503D01*
X25694906Y2354459D01*
X25678984Y2355491D01*
X25662222Y2357638D01*
X25645313Y2357669D01*
X25629400Y2358700D01*
X24296959Y2358700D01*
X24277438Y2357472D01*
X24257869Y2357194D01*
X24245659Y2355475D01*
X24233366Y2354703D01*
X24214153Y2351044D01*
X24194772Y2348316D01*
X24182875Y2345084D01*
X24170775Y2342778D01*
X24152172Y2336741D01*
X24133281Y2331609D01*
X24121884Y2326916D01*
X24110169Y2323113D01*
X24092466Y2314794D01*
X24074369Y2307338D01*
X24063644Y2301250D01*
X24052500Y2296013D01*
X24035997Y2285556D01*
X24018956Y2275881D01*
X24009066Y2268488D01*
X23998678Y2261906D01*
X23983600Y2249456D01*
X23967919Y2237734D01*
X23959059Y2229191D01*
X23949547Y2221334D01*
X23936128Y2207072D01*
X23922056Y2193500D01*
X23914328Y2183900D01*
X23905884Y2174928D01*
X23894363Y2159106D01*
X23882094Y2143872D01*
X23875634Y2133394D01*
X23868372Y2123422D01*
X23858916Y2106272D01*
X23848656Y2089631D01*
X23843556Y2078419D01*
X23837603Y2067625D01*
X23830378Y2049456D01*
X23822272Y2031634D01*
X23818606Y2019847D01*
X23814063Y2008416D01*
X23809175Y1989506D01*
X23803356Y1970788D01*
X23801194Y1958628D01*
X23798119Y1946725D01*
X23795638Y1927363D01*
X23792206Y1908053D01*
X23791584Y1895716D01*
X23790022Y1883522D01*
X23789984Y1864000D01*
X23788997Y1844416D01*
X23789925Y1832109D01*
X23789900Y1819803D01*
X23792313Y1800394D01*
X23793781Y1780875D01*
X23796238Y1768797D01*
X23797756Y1756572D01*
X23802575Y1737628D01*
X23806478Y1718438D01*
X23810356Y1707044D01*
X23813466Y1694822D01*
X23820997Y1675669D01*
X23820997Y1419684D01*
X23724331Y1186306D01*
X23717938Y1179916D01*
X23702288Y1162169D01*
X23686066Y1144925D01*
X23681222Y1138275D01*
X23675797Y1132122D01*
X23662516Y1112591D01*
X23648553Y1093419D01*
X23644578Y1086209D01*
X23639969Y1079431D01*
X23629244Y1058403D01*
X23617784Y1037622D01*
X23614741Y1029966D01*
X23611019Y1022669D01*
X23602997Y1000428D01*
X23594244Y978413D01*
X23592191Y970469D01*
X23589400Y962731D01*
X23584209Y939591D01*
X23578300Y916722D01*
X23577259Y908594D01*
X23575456Y900556D01*
X23573203Y876941D01*
X23570203Y853519D01*
X23570188Y845319D01*
X23569406Y837128D01*
X23570125Y813453D01*
X23570081Y789800D01*
X23571094Y781650D01*
X23571344Y773438D01*
X23575022Y750047D01*
X23577938Y726569D01*
X23579963Y718616D01*
X23581238Y710494D01*
X23587816Y687744D01*
X23593647Y664819D01*
X23596653Y657175D01*
X23598934Y649281D01*
X23608291Y627575D01*
X23616963Y605519D01*
X23620913Y598294D01*
X23624156Y590766D01*
X23636181Y570359D01*
X23647522Y549606D01*
X23652316Y542969D01*
X23656500Y535869D01*
X23670984Y517128D01*
X23684834Y497956D01*
X23690450Y491944D01*
X23695466Y485453D01*
X23712153Y468700D01*
X23728322Y451388D01*
X23734641Y446128D01*
X23740434Y440313D01*
X23759091Y425778D01*
X23777297Y410625D01*
X23784222Y406200D01*
X23790700Y401153D01*
X23811053Y389053D01*
X23830991Y376316D01*
X23838409Y372797D01*
X23845472Y368597D01*
X23867159Y359150D01*
X23888556Y348997D01*
X23896372Y346428D01*
X23903891Y343153D01*
X23926556Y336506D01*
X23949088Y329100D01*
X23957169Y327528D01*
X23965034Y325222D01*
X23988372Y321459D01*
X24011634Y316938D01*
X24019669Y316419D01*
X24027941Y315084D01*
X24054103Y314188D01*
X24077141Y312697D01*
X25629400Y312697D01*
X25644838Y313666D01*
G37*
%LPC*%
G36*
X21065413Y38018700D02*
X21065413Y38018700D01*
X21065413Y38414681D01*
X21561397Y38414681D01*
X21561397Y38247678D01*
X21551638Y38198616D01*
X21532488Y38152381D01*
X21504688Y38110778D01*
X21469319Y38075409D01*
X21427716Y38047609D01*
X21381481Y38028459D01*
X21332419Y38018700D01*
X21065413Y38018700D01*
G37*
%LPD*%
%LPC*%
G36*
X17292381Y37938700D02*
X17292381Y37938700D01*
X17243316Y37948459D01*
X17197081Y37967609D01*
X17155478Y37995409D01*
X17120109Y38030778D01*
X17092309Y38072381D01*
X17073159Y38118616D01*
X17063400Y38167678D01*
X17063400Y38334681D01*
X17559381Y38334681D01*
X17559381Y37938700D01*
X17292381Y37938700D01*
G37*
%LPD*%
D10*
X7177400Y34332700D03*
X7177400Y32432700D03*
X18067400Y40742700D03*
X18067400Y38842700D03*
X20557400Y40822700D03*
X20557400Y38922700D03*
X9287400Y34332700D03*
X9287400Y32432700D03*
D11*
X15797400Y34202700D03*
X13497400Y34202700D03*
X11197400Y34202700D03*
D12*
X13497400Y40502700D03*
D13*
X16117400Y4194700D02*
X16117400Y2670700D01*
X13577400Y2670700D02*
X13577400Y4194700D01*
X11037400Y4194700D02*
X11037400Y2670700D01*
X8497400Y2670700D02*
X8497400Y4194700D01*
X23826200Y40590800D02*
X25350200Y40590800D01*
X25350200Y38050800D02*
X23826200Y38050800D01*
X23826200Y35510800D02*
X25350200Y35510800D01*
X25350200Y32970800D02*
X23826200Y32970800D01*
X23826200Y30430800D02*
X25350200Y30430800D01*
X25350200Y27890800D02*
X23826200Y27890800D01*
X23826200Y25350800D02*
X25350200Y25350800D01*
X25350200Y22810800D02*
X23826200Y22810800D01*
X23826200Y20270800D02*
X25350200Y20270800D01*
X25350200Y17730800D02*
X23826200Y17730800D01*
X23826200Y15190800D02*
X25350200Y15190800D01*
X25350200Y12650800D02*
X23826200Y12650800D01*
X23826200Y10110800D02*
X25350200Y10110800D01*
X25350200Y7570800D02*
X23826200Y7570800D01*
X23826200Y5030800D02*
X25350200Y5030800D01*
X2616200Y40589200D02*
X1092200Y40589200D01*
X1092200Y38049200D02*
X2616200Y38049200D01*
X2616200Y35509200D02*
X1092200Y35509200D01*
X1092200Y32969200D02*
X2616200Y32969200D01*
X2616200Y30429200D02*
X1092200Y30429200D01*
X1092200Y27889200D02*
X2616200Y27889200D01*
X2616200Y25349200D02*
X1092200Y25349200D01*
X1092200Y22809200D02*
X2616200Y22809200D01*
X2616200Y20269200D02*
X1092200Y20269200D01*
X1092200Y17729200D02*
X2616200Y17729200D01*
X2616200Y15189200D02*
X1092200Y15189200D01*
X1092200Y12649200D02*
X2616200Y12649200D01*
X2616200Y10109200D02*
X1092200Y10109200D01*
X1092200Y7569200D02*
X2616200Y7569200D01*
X2616200Y5029200D02*
X1092200Y5029200D01*
D14*
X5256000Y1556000D03*
X23186000Y1546000D03*
X6176000Y40896000D03*
D15*
X20477400Y38842700D02*
X20557400Y38922700D01*
X20477400Y38842700D02*
X18067400Y38842700D01*
X26957400Y38392700D01*
X22767400Y34202700D02*
X15797400Y34202700D01*
X22767400Y34202700D02*
X27211400Y38646700D01*
X19188100Y31930000D02*
X16915400Y34202700D01*
X15797400Y34202700D01*
X9287400Y32432700D02*
X7177400Y32432700D01*
X20557400Y38922700D02*
X28605400Y38922700D01*
X30033400Y37494700D01*
X30033400Y5412700D01*
X20844200Y5412700D01*
D16*
X20844200Y5412700D03*
D15*
X24572900Y5046100D02*
X24588200Y5030800D01*
D16*
X18777400Y38392700D03*
D17*
X26957400Y38392700D01*
D16*
X8227400Y15750900D03*
X15197400Y14942700D03*
D17*
X16129600Y15874900D02*
X17511063Y15874900D01*
X16129600Y15874900D02*
X15197400Y14942700D01*
D16*
X16225200Y15982700D03*
D17*
X18389600Y15982700D01*
X18449600Y15922700D01*
D16*
X18449600Y15922700D03*
D15*
X19188100Y31930000D02*
X9790100Y31930000D01*
X9287400Y32432700D01*
X8236200Y15750900D02*
X8227400Y15750900D01*
X24588200Y5030800D02*
X24588200Y1280000D01*
X20240000Y1280000D01*
X14741400Y1280000D01*
X10992200Y5029200D01*
X1854200Y5029200D01*
X11037400Y3432700D02*
X18087300Y3432700D01*
X20240000Y1280000D01*
X20477400Y40742700D02*
X20557400Y40822700D01*
X20477400Y40742700D02*
X18067400Y40742700D01*
X13737400Y40742700D01*
X13497400Y40502700D01*
X31349400Y3454700D02*
X31061400Y3166700D01*
X16383400Y3166700D01*
X16117400Y3432700D01*
X31349400Y3454700D02*
X31349400Y38917019D01*
X33255081Y40822700D01*
X33023181Y40590800D02*
X24588200Y40590800D01*
X20557400Y40822700D02*
X33255081Y40822700D01*
X11197400Y41330700D02*
X11197400Y34202700D01*
X9287400Y34332700D02*
X18195400Y34332700D01*
X18071400Y34456700D02*
X17941400Y34586700D01*
X11197400Y41330700D01*
X18071400Y34456700D02*
X18195400Y34332700D01*
X9287400Y34332700D02*
X7177400Y34332700D01*
X13684900Y40840200D01*
X13684900Y40843200D01*
X13684900Y40840200D02*
X2105200Y40840200D01*
X1854200Y40589200D01*
D16*
X16707400Y29192700D03*
D18*
X16707400Y26141000D01*
X14061400Y23495000D01*
X14061400Y13556700D01*
X11417400Y10912700D01*
D16*
X11417400Y10912700D03*
X13270309Y9645609D03*
D18*
X7062884Y9645609D01*
X5229975Y7812700D01*
D16*
X5229975Y7812700D03*
X10667400Y16742700D03*
D17*
X7348975Y20061125D01*
X7348975Y20733075D01*
D16*
X7348975Y20733075D03*
X9727400Y15682700D03*
D17*
X9727400Y15730700D01*
X6237400Y19220700D01*
D16*
X6237400Y19220700D03*
X7026772Y27522072D03*
D18*
X12936772Y21612072D01*
X13190772Y10276072D02*
X9457400Y6542700D01*
X13190772Y10276072D02*
X13190772Y24796072D01*
D16*
X9457400Y6542700D03*
X16787400Y20862700D03*
X5617400Y4752700D03*
D17*
X6655800Y5791100D01*
X16787400Y20862700D02*
X25793469Y11856631D01*
X19727938Y5791100D01*
X6655800Y5791100D01*
M02*
