G04 EAGLE Gerber X2 export*
%TF.Part,Single*%
%TF.FileFunction,Legend,Bot,1*%
%TF.FilePolarity,Positive*%
%TF.GenerationSoftware,Autodesk,EAGLE,9.6.2*%
%TF.CreationDate,2022-05-02T11:32:10Z*%
G75*
%MOMM*%
%FSLAX46Y46*%
%LPD*%
%INSilkscreen Bottom*%
%AMOC8*
5,1,8,0,0,1.08239X$1,22.5*%
G01*
%ADD10C,0.101600*%
%ADD11C,0.203200*%
%ADD12C,0.152400*%
%ADD13C,0.127000*%


D10*
X13832200Y33770259D02*
X13832200Y33510616D01*
X13832276Y33504342D01*
X13832503Y33498072D01*
X13832882Y33491809D01*
X13833412Y33485557D01*
X13834093Y33479319D01*
X13834925Y33473100D01*
X13835906Y33466903D01*
X13837037Y33460731D01*
X13838317Y33454589D01*
X13839745Y33448479D01*
X13841320Y33442406D01*
X13843041Y33436372D01*
X13844908Y33430382D01*
X13846919Y33424438D01*
X13849073Y33418545D01*
X13851368Y33412706D01*
X13853804Y33406923D01*
X13856380Y33401202D01*
X13859092Y33395544D01*
X13861941Y33389953D01*
X13864923Y33384433D01*
X13868039Y33378987D01*
X13871285Y33373617D01*
X13874660Y33368328D01*
X13878161Y33363121D01*
X13881788Y33358001D01*
X13885537Y33352970D01*
X13889406Y33348031D01*
X13893394Y33343187D01*
X13897498Y33338440D01*
X13901715Y33333794D01*
X13906043Y33329252D01*
X13910480Y33324815D01*
X13915022Y33320487D01*
X13919668Y33316270D01*
X13924415Y33312166D01*
X13929259Y33308178D01*
X13934198Y33304309D01*
X13939229Y33300560D01*
X13944349Y33296933D01*
X13949556Y33293432D01*
X13954845Y33290057D01*
X13960215Y33286811D01*
X13965661Y33283695D01*
X13971181Y33280713D01*
X13976772Y33277864D01*
X13982430Y33275152D01*
X13988151Y33272576D01*
X13993934Y33270140D01*
X13999773Y33267845D01*
X14005666Y33265691D01*
X14011610Y33263680D01*
X14017600Y33261813D01*
X14023634Y33260092D01*
X14029707Y33258517D01*
X14035817Y33257089D01*
X14041959Y33255809D01*
X14048131Y33254678D01*
X14054328Y33253697D01*
X14060547Y33252865D01*
X14066785Y33252184D01*
X14073037Y33251654D01*
X14079300Y33251275D01*
X14085570Y33251048D01*
X14091844Y33250972D01*
X14740953Y33250972D01*
X14747325Y33251050D01*
X14753693Y33251285D01*
X14760054Y33251676D01*
X14766403Y33252222D01*
X14772736Y33252925D01*
X14779051Y33253782D01*
X14785342Y33254795D01*
X14791607Y33255961D01*
X14797842Y33257281D01*
X14804042Y33258753D01*
X14810204Y33260377D01*
X14816324Y33262152D01*
X14822399Y33264077D01*
X14828425Y33266150D01*
X14834398Y33268370D01*
X14840315Y33270736D01*
X14846172Y33273247D01*
X14851966Y33275901D01*
X14857692Y33278696D01*
X14863349Y33281630D01*
X14868932Y33284703D01*
X14874437Y33287912D01*
X14879863Y33291255D01*
X14885204Y33294730D01*
X14890459Y33298335D01*
X14895624Y33302068D01*
X14900695Y33305926D01*
X14905670Y33309908D01*
X14910546Y33314011D01*
X14915320Y33318232D01*
X14919989Y33322569D01*
X14924550Y33327020D01*
X14929000Y33331581D01*
X14933338Y33336250D01*
X14937559Y33341023D01*
X14941662Y33345899D01*
X14945644Y33350875D01*
X14949502Y33355946D01*
X14953235Y33361111D01*
X14956841Y33366365D01*
X14960316Y33371707D01*
X14963659Y33377132D01*
X14966867Y33382638D01*
X14969940Y33388220D01*
X14972875Y33393877D01*
X14975670Y33399604D01*
X14978324Y33405397D01*
X14980835Y33411254D01*
X14983201Y33417171D01*
X14985421Y33423144D01*
X14987494Y33429170D01*
X14989419Y33435245D01*
X14991194Y33441365D01*
X14992818Y33447527D01*
X14994291Y33453727D01*
X14995610Y33459962D01*
X14996777Y33466227D01*
X14997789Y33472518D01*
X14998647Y33478833D01*
X14999349Y33485166D01*
X14999896Y33491515D01*
X15000287Y33497876D01*
X15000522Y33504244D01*
X15000600Y33510616D01*
X15000600Y33770259D01*
X13832200Y34206791D02*
X13832200Y34596256D01*
X13832276Y34602530D01*
X13832503Y34608800D01*
X13832882Y34615063D01*
X13833412Y34621315D01*
X13834093Y34627553D01*
X13834925Y34633772D01*
X13835906Y34639969D01*
X13837037Y34646141D01*
X13838317Y34652283D01*
X13839745Y34658393D01*
X13841320Y34664466D01*
X13843041Y34670500D01*
X13844908Y34676490D01*
X13846919Y34682434D01*
X13849073Y34688327D01*
X13851368Y34694166D01*
X13853804Y34699949D01*
X13856380Y34705670D01*
X13859092Y34711328D01*
X13861941Y34716919D01*
X13864923Y34722439D01*
X13868039Y34727885D01*
X13871285Y34733255D01*
X13874660Y34738544D01*
X13878161Y34743751D01*
X13881788Y34748871D01*
X13885537Y34753902D01*
X13889406Y34758841D01*
X13893394Y34763685D01*
X13897498Y34768432D01*
X13901715Y34773078D01*
X13906043Y34777620D01*
X13910480Y34782057D01*
X13915022Y34786385D01*
X13919668Y34790602D01*
X13924415Y34794706D01*
X13929259Y34798694D01*
X13934198Y34802563D01*
X13939229Y34806312D01*
X13944349Y34809939D01*
X13949556Y34813440D01*
X13954845Y34816815D01*
X13960215Y34820061D01*
X13965661Y34823177D01*
X13971181Y34826159D01*
X13976772Y34829008D01*
X13982430Y34831720D01*
X13988151Y34834296D01*
X13993934Y34836732D01*
X13999773Y34839027D01*
X14005666Y34841181D01*
X14011610Y34843192D01*
X14017600Y34845059D01*
X14023634Y34846780D01*
X14029707Y34848355D01*
X14035817Y34849783D01*
X14041959Y34851063D01*
X14048131Y34852194D01*
X14054328Y34853175D01*
X14060547Y34854007D01*
X14066785Y34854688D01*
X14073037Y34855218D01*
X14079300Y34855597D01*
X14085570Y34855824D01*
X14091844Y34855900D01*
X14221666Y34855900D01*
X14227940Y34855824D01*
X14234210Y34855597D01*
X14240473Y34855218D01*
X14246725Y34854688D01*
X14252963Y34854007D01*
X14259182Y34853175D01*
X14265379Y34852194D01*
X14271551Y34851063D01*
X14277693Y34849783D01*
X14283803Y34848355D01*
X14289876Y34846780D01*
X14295910Y34845059D01*
X14301900Y34843192D01*
X14307844Y34841181D01*
X14313737Y34839027D01*
X14319576Y34836732D01*
X14325359Y34834296D01*
X14331080Y34831720D01*
X14336738Y34829008D01*
X14342329Y34826159D01*
X14347849Y34823177D01*
X14353295Y34820061D01*
X14358665Y34816815D01*
X14363954Y34813440D01*
X14369161Y34809939D01*
X14374281Y34806312D01*
X14379312Y34802563D01*
X14384251Y34798694D01*
X14389095Y34794706D01*
X14393842Y34790602D01*
X14398488Y34786385D01*
X14403030Y34782057D01*
X14407467Y34777620D01*
X14411795Y34773078D01*
X14416012Y34768432D01*
X14420116Y34763685D01*
X14424104Y34758841D01*
X14427973Y34753902D01*
X14431722Y34748871D01*
X14435349Y34743751D01*
X14438850Y34738544D01*
X14442225Y34733255D01*
X14445471Y34727885D01*
X14448587Y34722439D01*
X14451569Y34716919D01*
X14454418Y34711328D01*
X14457130Y34705670D01*
X14459706Y34699949D01*
X14462142Y34694166D01*
X14464437Y34688327D01*
X14466591Y34682434D01*
X14468602Y34676490D01*
X14470469Y34670500D01*
X14472190Y34664466D01*
X14473765Y34658393D01*
X14475193Y34652283D01*
X14476473Y34646141D01*
X14477604Y34639969D01*
X14478585Y34633772D01*
X14479417Y34627553D01*
X14480098Y34621315D01*
X14480628Y34615063D01*
X14481007Y34608800D01*
X14481234Y34602530D01*
X14481310Y34596256D01*
X14481309Y34596256D02*
X14481309Y34206791D01*
X15000600Y34206791D01*
X15000600Y34855900D01*
X24722200Y40420616D02*
X24722200Y40680259D01*
X24722200Y40420616D02*
X24722276Y40414342D01*
X24722503Y40408072D01*
X24722882Y40401809D01*
X24723412Y40395557D01*
X24724093Y40389319D01*
X24724925Y40383100D01*
X24725906Y40376903D01*
X24727037Y40370731D01*
X24728317Y40364589D01*
X24729745Y40358479D01*
X24731320Y40352406D01*
X24733041Y40346372D01*
X24734908Y40340382D01*
X24736919Y40334438D01*
X24739073Y40328545D01*
X24741368Y40322706D01*
X24743804Y40316923D01*
X24746380Y40311202D01*
X24749092Y40305544D01*
X24751941Y40299953D01*
X24754923Y40294433D01*
X24758039Y40288987D01*
X24761285Y40283617D01*
X24764660Y40278328D01*
X24768161Y40273121D01*
X24771788Y40268001D01*
X24775537Y40262970D01*
X24779406Y40258031D01*
X24783394Y40253187D01*
X24787498Y40248440D01*
X24791715Y40243794D01*
X24796043Y40239252D01*
X24800480Y40234815D01*
X24805022Y40230487D01*
X24809668Y40226270D01*
X24814415Y40222166D01*
X24819259Y40218178D01*
X24824198Y40214309D01*
X24829229Y40210560D01*
X24834349Y40206933D01*
X24839556Y40203432D01*
X24844845Y40200057D01*
X24850215Y40196811D01*
X24855661Y40193695D01*
X24861181Y40190713D01*
X24866772Y40187864D01*
X24872430Y40185152D01*
X24878151Y40182576D01*
X24883934Y40180140D01*
X24889773Y40177845D01*
X24895666Y40175691D01*
X24901610Y40173680D01*
X24907600Y40171813D01*
X24913634Y40170092D01*
X24919707Y40168517D01*
X24925817Y40167089D01*
X24931959Y40165809D01*
X24938131Y40164678D01*
X24944328Y40163697D01*
X24950547Y40162865D01*
X24956785Y40162184D01*
X24963037Y40161654D01*
X24969300Y40161275D01*
X24975570Y40161048D01*
X24981844Y40160972D01*
X25630953Y40160972D01*
X25637325Y40161050D01*
X25643693Y40161285D01*
X25650054Y40161676D01*
X25656403Y40162222D01*
X25662736Y40162925D01*
X25669051Y40163782D01*
X25675342Y40164795D01*
X25681607Y40165961D01*
X25687842Y40167281D01*
X25694042Y40168753D01*
X25700204Y40170377D01*
X25706324Y40172152D01*
X25712399Y40174077D01*
X25718425Y40176150D01*
X25724398Y40178370D01*
X25730315Y40180736D01*
X25736172Y40183247D01*
X25741966Y40185901D01*
X25747692Y40188696D01*
X25753349Y40191630D01*
X25758932Y40194703D01*
X25764437Y40197912D01*
X25769863Y40201255D01*
X25775204Y40204730D01*
X25780459Y40208335D01*
X25785624Y40212068D01*
X25790695Y40215926D01*
X25795670Y40219908D01*
X25800546Y40224011D01*
X25805320Y40228232D01*
X25809989Y40232569D01*
X25814550Y40237020D01*
X25819000Y40241581D01*
X25823338Y40246250D01*
X25827559Y40251023D01*
X25831662Y40255899D01*
X25835644Y40260875D01*
X25839502Y40265946D01*
X25843235Y40271111D01*
X25846841Y40276365D01*
X25850316Y40281707D01*
X25853659Y40287132D01*
X25856867Y40292638D01*
X25859940Y40298220D01*
X25862875Y40303877D01*
X25865670Y40309604D01*
X25868324Y40315397D01*
X25870835Y40321254D01*
X25873201Y40327171D01*
X25875421Y40333144D01*
X25877494Y40339170D01*
X25879419Y40345245D01*
X25881194Y40351365D01*
X25882818Y40357527D01*
X25884291Y40363727D01*
X25885610Y40369962D01*
X25886777Y40376227D01*
X25887789Y40382518D01*
X25888647Y40388833D01*
X25889349Y40395166D01*
X25889896Y40401515D01*
X25890287Y40407876D01*
X25890522Y40414244D01*
X25890600Y40420616D01*
X25890600Y40680259D01*
X25371309Y41116791D02*
X25371309Y41506256D01*
X25371310Y41506256D02*
X25371234Y41512530D01*
X25371007Y41518800D01*
X25370628Y41525063D01*
X25370098Y41531315D01*
X25369417Y41537553D01*
X25368585Y41543772D01*
X25367604Y41549969D01*
X25366473Y41556141D01*
X25365193Y41562283D01*
X25363765Y41568393D01*
X25362190Y41574466D01*
X25360469Y41580500D01*
X25358602Y41586490D01*
X25356591Y41592434D01*
X25354437Y41598327D01*
X25352142Y41604166D01*
X25349706Y41609949D01*
X25347130Y41615670D01*
X25344418Y41621328D01*
X25341569Y41626919D01*
X25338587Y41632439D01*
X25335471Y41637885D01*
X25332225Y41643255D01*
X25328850Y41648544D01*
X25325349Y41653751D01*
X25321722Y41658871D01*
X25317973Y41663902D01*
X25314104Y41668841D01*
X25310116Y41673685D01*
X25306012Y41678432D01*
X25301795Y41683078D01*
X25297467Y41687620D01*
X25293030Y41692057D01*
X25288488Y41696385D01*
X25283842Y41700602D01*
X25279095Y41704706D01*
X25274251Y41708694D01*
X25269312Y41712563D01*
X25264281Y41716312D01*
X25259161Y41719939D01*
X25253954Y41723440D01*
X25248665Y41726815D01*
X25243295Y41730061D01*
X25237849Y41733177D01*
X25232329Y41736159D01*
X25226738Y41739008D01*
X25221080Y41741720D01*
X25215359Y41744296D01*
X25209576Y41746732D01*
X25203737Y41749027D01*
X25197844Y41751181D01*
X25191900Y41753192D01*
X25185910Y41755059D01*
X25179876Y41756780D01*
X25173803Y41758355D01*
X25167693Y41759783D01*
X25161551Y41761063D01*
X25155379Y41762194D01*
X25149182Y41763175D01*
X25142963Y41764007D01*
X25136725Y41764688D01*
X25130473Y41765218D01*
X25124210Y41765597D01*
X25117940Y41765824D01*
X25111666Y41765900D01*
X25046753Y41765900D01*
X25038850Y41765804D01*
X25030951Y41765515D01*
X25023062Y41765034D01*
X25015187Y41764361D01*
X25007330Y41763497D01*
X24999497Y41762441D01*
X24991692Y41761195D01*
X24983920Y41759760D01*
X24976185Y41758135D01*
X24968491Y41756323D01*
X24960845Y41754324D01*
X24953249Y41752139D01*
X24945708Y41749770D01*
X24938228Y41747218D01*
X24930812Y41744485D01*
X24923464Y41741571D01*
X24916190Y41738480D01*
X24908993Y41735213D01*
X24901878Y41731771D01*
X24894849Y41728157D01*
X24887910Y41724373D01*
X24881065Y41720421D01*
X24874318Y41716304D01*
X24867673Y41712023D01*
X24861135Y41707582D01*
X24854707Y41702983D01*
X24848393Y41698229D01*
X24842196Y41693322D01*
X24836121Y41688267D01*
X24830171Y41683064D01*
X24824349Y41677719D01*
X24818659Y41672233D01*
X24813104Y41666610D01*
X24807688Y41660854D01*
X24802413Y41654967D01*
X24797284Y41648954D01*
X24792302Y41642817D01*
X24787472Y41636561D01*
X24782795Y41630190D01*
X24778275Y41623706D01*
X24773914Y41617114D01*
X24769714Y41610418D01*
X24765679Y41603622D01*
X24761811Y41596729D01*
X24758112Y41589745D01*
X24754584Y41582672D01*
X24751229Y41575515D01*
X24748049Y41568279D01*
X24745047Y41560968D01*
X24742223Y41553586D01*
X24739580Y41546137D01*
X24737120Y41538626D01*
X24734842Y41531057D01*
X24732750Y41523435D01*
X24730844Y41515764D01*
X24729126Y41508050D01*
X24727596Y41500295D01*
X24726255Y41492506D01*
X24725104Y41484686D01*
X24724144Y41476841D01*
X24723375Y41468975D01*
X24722798Y41461092D01*
X24722414Y41453197D01*
X24722221Y41445296D01*
X24722221Y41437392D01*
X24722414Y41429491D01*
X24722798Y41421596D01*
X24723375Y41413713D01*
X24724144Y41405847D01*
X24725104Y41398002D01*
X24726255Y41390182D01*
X24727596Y41382393D01*
X24729126Y41374638D01*
X24730844Y41366924D01*
X24732750Y41359253D01*
X24734842Y41351631D01*
X24737120Y41344062D01*
X24739580Y41336551D01*
X24742223Y41329102D01*
X24745047Y41321720D01*
X24748049Y41314409D01*
X24751229Y41307173D01*
X24754584Y41300016D01*
X24758112Y41292943D01*
X24761811Y41285959D01*
X24765679Y41279066D01*
X24769714Y41272270D01*
X24773914Y41265574D01*
X24778275Y41258982D01*
X24782795Y41252498D01*
X24787472Y41246127D01*
X24792302Y41239871D01*
X24797284Y41233734D01*
X24802413Y41227721D01*
X24807688Y41221834D01*
X24813104Y41216078D01*
X24818659Y41210455D01*
X24824349Y41204969D01*
X24830171Y41199624D01*
X24836121Y41194421D01*
X24842196Y41189366D01*
X24848393Y41184459D01*
X24854707Y41179705D01*
X24861135Y41175106D01*
X24867673Y41170665D01*
X24874318Y41166384D01*
X24881065Y41162267D01*
X24887910Y41158315D01*
X24894849Y41154531D01*
X24901878Y41150917D01*
X24908993Y41147475D01*
X24916190Y41144208D01*
X24923464Y41141117D01*
X24930812Y41138203D01*
X24938228Y41135470D01*
X24945708Y41132918D01*
X24953249Y41130549D01*
X24960845Y41128364D01*
X24968491Y41126365D01*
X24976185Y41124553D01*
X24983920Y41122928D01*
X24991692Y41121493D01*
X24999497Y41120247D01*
X25007330Y41119191D01*
X25015187Y41118327D01*
X25023062Y41117654D01*
X25030951Y41117173D01*
X25038850Y41116884D01*
X25046753Y41116788D01*
X25046753Y41116791D02*
X25371309Y41116791D01*
X25371309Y41116790D02*
X25384053Y41116946D01*
X25396789Y41117416D01*
X25409510Y41118197D01*
X25422208Y41119291D01*
X25434876Y41120695D01*
X25447505Y41122410D01*
X25460088Y41124435D01*
X25472617Y41126768D01*
X25485086Y41129408D01*
X25497486Y41132352D01*
X25509810Y41135601D01*
X25522051Y41139150D01*
X25534201Y41142999D01*
X25546252Y41147145D01*
X25558199Y41151586D01*
X25570032Y41156318D01*
X25581746Y41161340D01*
X25593334Y41166647D01*
X25604787Y41172237D01*
X25616100Y41178107D01*
X25627266Y41184252D01*
X25638277Y41190670D01*
X25649128Y41197356D01*
X25659811Y41204306D01*
X25670320Y41211516D01*
X25680649Y41218982D01*
X25690792Y41226699D01*
X25700743Y41234663D01*
X25710495Y41242868D01*
X25720042Y41251311D01*
X25729380Y41259985D01*
X25738502Y41268886D01*
X25747403Y41278008D01*
X25756077Y41287345D01*
X25764520Y41296893D01*
X25772725Y41306645D01*
X25780689Y41316595D01*
X25788406Y41326738D01*
X25795872Y41337067D01*
X25803083Y41347577D01*
X25810033Y41358260D01*
X25816719Y41369110D01*
X25823136Y41380122D01*
X25829282Y41391287D01*
X25835151Y41402600D01*
X25840742Y41414053D01*
X25846049Y41425641D01*
X25851070Y41437355D01*
X25855803Y41449189D01*
X25860244Y41461135D01*
X25864390Y41473187D01*
X25868239Y41485336D01*
X25871789Y41497577D01*
X25875037Y41509901D01*
X25877982Y41522301D01*
X25880621Y41534770D01*
X25882954Y41547299D01*
X25884979Y41559882D01*
X25886694Y41572511D01*
X25888099Y41585179D01*
X25889193Y41597877D01*
X25889974Y41610598D01*
X25890444Y41623334D01*
X25890600Y41636078D01*
X31667841Y41817500D02*
X31927484Y41817500D01*
X31933758Y41817576D01*
X31940028Y41817803D01*
X31946291Y41818182D01*
X31952543Y41818712D01*
X31958781Y41819393D01*
X31965000Y41820225D01*
X31971197Y41821206D01*
X31977369Y41822337D01*
X31983511Y41823617D01*
X31989621Y41825045D01*
X31995694Y41826620D01*
X32001728Y41828341D01*
X32007718Y41830208D01*
X32013662Y41832219D01*
X32019555Y41834373D01*
X32025394Y41836668D01*
X32031177Y41839104D01*
X32036898Y41841680D01*
X32042556Y41844392D01*
X32048147Y41847241D01*
X32053667Y41850223D01*
X32059113Y41853339D01*
X32064483Y41856585D01*
X32069772Y41859960D01*
X32074979Y41863461D01*
X32080099Y41867088D01*
X32085130Y41870837D01*
X32090069Y41874706D01*
X32094913Y41878694D01*
X32099660Y41882798D01*
X32104306Y41887015D01*
X32108848Y41891343D01*
X32113285Y41895780D01*
X32117613Y41900322D01*
X32121830Y41904968D01*
X32125934Y41909715D01*
X32129922Y41914559D01*
X32133791Y41919498D01*
X32137540Y41924529D01*
X32141167Y41929649D01*
X32144668Y41934856D01*
X32148043Y41940145D01*
X32151289Y41945515D01*
X32154405Y41950961D01*
X32157387Y41956481D01*
X32160236Y41962072D01*
X32162948Y41967730D01*
X32165524Y41973451D01*
X32167960Y41979234D01*
X32170255Y41985073D01*
X32172409Y41990966D01*
X32174420Y41996910D01*
X32176287Y42002900D01*
X32178008Y42008934D01*
X32179583Y42015007D01*
X32181011Y42021117D01*
X32182291Y42027259D01*
X32183422Y42033431D01*
X32184403Y42039628D01*
X32185235Y42045847D01*
X32185916Y42052085D01*
X32186446Y42058337D01*
X32186825Y42064600D01*
X32187052Y42070870D01*
X32187128Y42077144D01*
X32187128Y42726253D01*
X32187052Y42732527D01*
X32186825Y42738797D01*
X32186446Y42745060D01*
X32185916Y42751312D01*
X32185235Y42757550D01*
X32184403Y42763769D01*
X32183422Y42769966D01*
X32182291Y42776138D01*
X32181011Y42782280D01*
X32179583Y42788390D01*
X32178008Y42794463D01*
X32176287Y42800497D01*
X32174420Y42806487D01*
X32172409Y42812431D01*
X32170255Y42818324D01*
X32167960Y42824163D01*
X32165524Y42829946D01*
X32162948Y42835667D01*
X32160236Y42841325D01*
X32157387Y42846916D01*
X32154405Y42852436D01*
X32151289Y42857882D01*
X32148043Y42863252D01*
X32144668Y42868541D01*
X32141167Y42873748D01*
X32137540Y42878868D01*
X32133791Y42883899D01*
X32129922Y42888838D01*
X32125934Y42893682D01*
X32121830Y42898429D01*
X32117613Y42903075D01*
X32113285Y42907617D01*
X32108848Y42912054D01*
X32104306Y42916382D01*
X32099660Y42920599D01*
X32094913Y42924703D01*
X32090069Y42928691D01*
X32085130Y42932560D01*
X32080099Y42936309D01*
X32074979Y42939936D01*
X32069772Y42943437D01*
X32064483Y42946812D01*
X32059113Y42950058D01*
X32053667Y42953174D01*
X32048147Y42956156D01*
X32042556Y42959005D01*
X32036898Y42961717D01*
X32031177Y42964293D01*
X32025394Y42966729D01*
X32019555Y42969024D01*
X32013662Y42971178D01*
X32007718Y42973189D01*
X32001728Y42975056D01*
X31995694Y42976777D01*
X31989621Y42978352D01*
X31983511Y42979780D01*
X31977369Y42981060D01*
X31971197Y42982191D01*
X31965000Y42983172D01*
X31958781Y42984004D01*
X31952543Y42984685D01*
X31946291Y42985215D01*
X31940028Y42985594D01*
X31933758Y42985821D01*
X31927484Y42985897D01*
X31927484Y42985900D02*
X31667841Y42985900D01*
X31231309Y42985900D02*
X31231309Y42856075D01*
X31231309Y42985900D02*
X30582200Y42985900D01*
X30906756Y41817500D01*
X15942200Y33770259D02*
X15942200Y33510616D01*
X15942276Y33504342D01*
X15942503Y33498072D01*
X15942882Y33491809D01*
X15943412Y33485557D01*
X15944093Y33479319D01*
X15944925Y33473100D01*
X15945906Y33466903D01*
X15947037Y33460731D01*
X15948317Y33454589D01*
X15949745Y33448479D01*
X15951320Y33442406D01*
X15953041Y33436372D01*
X15954908Y33430382D01*
X15956919Y33424438D01*
X15959073Y33418545D01*
X15961368Y33412706D01*
X15963804Y33406923D01*
X15966380Y33401202D01*
X15969092Y33395544D01*
X15971941Y33389953D01*
X15974923Y33384433D01*
X15978039Y33378987D01*
X15981285Y33373617D01*
X15984660Y33368328D01*
X15988161Y33363121D01*
X15991788Y33358001D01*
X15995537Y33352970D01*
X15999406Y33348031D01*
X16003394Y33343187D01*
X16007498Y33338440D01*
X16011715Y33333794D01*
X16016043Y33329252D01*
X16020480Y33324815D01*
X16025022Y33320487D01*
X16029668Y33316270D01*
X16034415Y33312166D01*
X16039259Y33308178D01*
X16044198Y33304309D01*
X16049229Y33300560D01*
X16054349Y33296933D01*
X16059556Y33293432D01*
X16064845Y33290057D01*
X16070215Y33286811D01*
X16075661Y33283695D01*
X16081181Y33280713D01*
X16086772Y33277864D01*
X16092430Y33275152D01*
X16098151Y33272576D01*
X16103934Y33270140D01*
X16109773Y33267845D01*
X16115666Y33265691D01*
X16121610Y33263680D01*
X16127600Y33261813D01*
X16133634Y33260092D01*
X16139707Y33258517D01*
X16145817Y33257089D01*
X16151959Y33255809D01*
X16158131Y33254678D01*
X16164328Y33253697D01*
X16170547Y33252865D01*
X16176785Y33252184D01*
X16183037Y33251654D01*
X16189300Y33251275D01*
X16195570Y33251048D01*
X16201844Y33250972D01*
X16850953Y33250972D01*
X16857325Y33251050D01*
X16863693Y33251285D01*
X16870054Y33251676D01*
X16876403Y33252222D01*
X16882736Y33252925D01*
X16889051Y33253782D01*
X16895342Y33254795D01*
X16901607Y33255961D01*
X16907842Y33257281D01*
X16914042Y33258753D01*
X16920204Y33260377D01*
X16926324Y33262152D01*
X16932399Y33264077D01*
X16938425Y33266150D01*
X16944398Y33268370D01*
X16950315Y33270736D01*
X16956172Y33273247D01*
X16961966Y33275901D01*
X16967692Y33278696D01*
X16973349Y33281630D01*
X16978932Y33284703D01*
X16984437Y33287912D01*
X16989863Y33291255D01*
X16995204Y33294730D01*
X17000459Y33298335D01*
X17005624Y33302068D01*
X17010695Y33305926D01*
X17015670Y33309908D01*
X17020546Y33314011D01*
X17025320Y33318232D01*
X17029989Y33322569D01*
X17034550Y33327020D01*
X17039000Y33331581D01*
X17043338Y33336250D01*
X17047559Y33341023D01*
X17051662Y33345899D01*
X17055644Y33350875D01*
X17059502Y33355946D01*
X17063235Y33361111D01*
X17066841Y33366365D01*
X17070316Y33371707D01*
X17073659Y33377132D01*
X17076867Y33382638D01*
X17079940Y33388220D01*
X17082875Y33393877D01*
X17085670Y33399604D01*
X17088324Y33405397D01*
X17090835Y33411254D01*
X17093201Y33417171D01*
X17095421Y33423144D01*
X17097494Y33429170D01*
X17099419Y33435245D01*
X17101194Y33441365D01*
X17102818Y33447527D01*
X17104291Y33453727D01*
X17105610Y33459962D01*
X17106777Y33466227D01*
X17107789Y33472518D01*
X17108647Y33478833D01*
X17109349Y33485166D01*
X17109896Y33491515D01*
X17110287Y33497876D01*
X17110522Y33504244D01*
X17110600Y33510616D01*
X17110600Y33770259D01*
X16266753Y34206791D02*
X16274656Y34206887D01*
X16282555Y34207176D01*
X16290444Y34207657D01*
X16298319Y34208330D01*
X16306175Y34209194D01*
X16314008Y34210250D01*
X16321813Y34211496D01*
X16329586Y34212931D01*
X16337321Y34214556D01*
X16345014Y34216368D01*
X16352661Y34218367D01*
X16360256Y34220552D01*
X16367797Y34222921D01*
X16375277Y34225473D01*
X16382693Y34228206D01*
X16390041Y34231119D01*
X16397315Y34234211D01*
X16404512Y34237478D01*
X16411627Y34240920D01*
X16418656Y34244534D01*
X16425595Y34248318D01*
X16432440Y34252270D01*
X16439187Y34256387D01*
X16445831Y34260668D01*
X16452369Y34265108D01*
X16458797Y34269707D01*
X16465111Y34274461D01*
X16471308Y34279368D01*
X16477383Y34284424D01*
X16483333Y34289626D01*
X16489155Y34294972D01*
X16494845Y34300457D01*
X16500400Y34306080D01*
X16505816Y34311836D01*
X16511090Y34317723D01*
X16516220Y34323736D01*
X16521201Y34329873D01*
X16526032Y34336128D01*
X16530709Y34342500D01*
X16535229Y34348984D01*
X16539590Y34355575D01*
X16543789Y34362271D01*
X16547824Y34369068D01*
X16551692Y34375960D01*
X16555392Y34382945D01*
X16558920Y34390017D01*
X16562275Y34397174D01*
X16565454Y34404410D01*
X16568457Y34411721D01*
X16571280Y34419103D01*
X16573923Y34426552D01*
X16576384Y34434063D01*
X16578661Y34441632D01*
X16580753Y34449254D01*
X16582659Y34456924D01*
X16584377Y34464639D01*
X16585907Y34472393D01*
X16587248Y34480182D01*
X16588399Y34488002D01*
X16589359Y34495847D01*
X16590128Y34503714D01*
X16590705Y34511596D01*
X16591089Y34519491D01*
X16591282Y34527392D01*
X16591282Y34535296D01*
X16591089Y34543197D01*
X16590705Y34551092D01*
X16590128Y34558974D01*
X16589359Y34566841D01*
X16588399Y34574686D01*
X16587248Y34582506D01*
X16585907Y34590295D01*
X16584377Y34598049D01*
X16582659Y34605764D01*
X16580753Y34613434D01*
X16578661Y34621056D01*
X16576384Y34628625D01*
X16573923Y34636136D01*
X16571280Y34643585D01*
X16568457Y34650967D01*
X16565454Y34658278D01*
X16562275Y34665514D01*
X16558920Y34672671D01*
X16555392Y34679743D01*
X16551692Y34686728D01*
X16547824Y34693621D01*
X16543789Y34700417D01*
X16539590Y34707113D01*
X16535229Y34713704D01*
X16530709Y34720188D01*
X16526032Y34726560D01*
X16521201Y34732815D01*
X16516220Y34738952D01*
X16511090Y34744965D01*
X16505816Y34750852D01*
X16500400Y34756608D01*
X16494845Y34762231D01*
X16489155Y34767716D01*
X16483333Y34773062D01*
X16477383Y34778264D01*
X16471308Y34783320D01*
X16465111Y34788227D01*
X16458797Y34792981D01*
X16452369Y34797580D01*
X16445831Y34802020D01*
X16439187Y34806301D01*
X16432440Y34810418D01*
X16425595Y34814370D01*
X16418656Y34818154D01*
X16411627Y34821768D01*
X16404512Y34825210D01*
X16397315Y34828477D01*
X16390041Y34831569D01*
X16382693Y34834482D01*
X16375277Y34837215D01*
X16367797Y34839767D01*
X16360256Y34842136D01*
X16352661Y34844321D01*
X16345014Y34846320D01*
X16337321Y34848132D01*
X16329586Y34849757D01*
X16321813Y34851192D01*
X16314008Y34852438D01*
X16306175Y34853494D01*
X16298319Y34854358D01*
X16290444Y34855031D01*
X16282555Y34855512D01*
X16274656Y34855801D01*
X16266753Y34855897D01*
X16266753Y34855900D02*
X16258850Y34855804D01*
X16250951Y34855515D01*
X16243062Y34855034D01*
X16235187Y34854361D01*
X16227330Y34853497D01*
X16219497Y34852441D01*
X16211692Y34851195D01*
X16203920Y34849760D01*
X16196185Y34848135D01*
X16188491Y34846323D01*
X16180845Y34844324D01*
X16173249Y34842139D01*
X16165708Y34839770D01*
X16158228Y34837218D01*
X16150812Y34834485D01*
X16143464Y34831571D01*
X16136190Y34828480D01*
X16128993Y34825213D01*
X16121878Y34821771D01*
X16114849Y34818157D01*
X16107910Y34814373D01*
X16101065Y34810421D01*
X16094318Y34806304D01*
X16087673Y34802023D01*
X16081135Y34797582D01*
X16074707Y34792983D01*
X16068393Y34788229D01*
X16062196Y34783322D01*
X16056121Y34778267D01*
X16050171Y34773064D01*
X16044349Y34767719D01*
X16038659Y34762233D01*
X16033104Y34756610D01*
X16027688Y34750854D01*
X16022413Y34744967D01*
X16017284Y34738954D01*
X16012302Y34732817D01*
X16007472Y34726561D01*
X16002795Y34720190D01*
X15998275Y34713706D01*
X15993914Y34707114D01*
X15989714Y34700418D01*
X15985679Y34693622D01*
X15981811Y34686729D01*
X15978112Y34679745D01*
X15974584Y34672672D01*
X15971229Y34665515D01*
X15968049Y34658279D01*
X15965047Y34650968D01*
X15962223Y34643586D01*
X15959580Y34636137D01*
X15957120Y34628626D01*
X15954842Y34621057D01*
X15952750Y34613435D01*
X15950844Y34605764D01*
X15949126Y34598050D01*
X15947596Y34590295D01*
X15946255Y34582506D01*
X15945104Y34574686D01*
X15944144Y34566841D01*
X15943375Y34558975D01*
X15942798Y34551092D01*
X15942414Y34543197D01*
X15942221Y34535296D01*
X15942221Y34527392D01*
X15942414Y34519491D01*
X15942798Y34511596D01*
X15943375Y34503713D01*
X15944144Y34495847D01*
X15945104Y34488002D01*
X15946255Y34480182D01*
X15947596Y34472393D01*
X15949126Y34464638D01*
X15950844Y34456924D01*
X15952750Y34449253D01*
X15954842Y34441631D01*
X15957120Y34434062D01*
X15959580Y34426551D01*
X15962223Y34419102D01*
X15965047Y34411720D01*
X15968049Y34404409D01*
X15971229Y34397173D01*
X15974584Y34390016D01*
X15978112Y34382943D01*
X15981811Y34375959D01*
X15985679Y34369066D01*
X15989714Y34362270D01*
X15993914Y34355574D01*
X15998275Y34348982D01*
X16002795Y34342498D01*
X16007472Y34336127D01*
X16012302Y34329871D01*
X16017284Y34323734D01*
X16022413Y34317721D01*
X16027688Y34311834D01*
X16033104Y34306078D01*
X16038659Y34300455D01*
X16044349Y34294969D01*
X16050171Y34289624D01*
X16056121Y34284421D01*
X16062196Y34279366D01*
X16068393Y34274459D01*
X16074707Y34269705D01*
X16081135Y34265106D01*
X16087673Y34260665D01*
X16094318Y34256384D01*
X16101065Y34252267D01*
X16107910Y34248315D01*
X16114849Y34244531D01*
X16121878Y34240917D01*
X16128993Y34237475D01*
X16136190Y34234208D01*
X16143464Y34231117D01*
X16150812Y34228203D01*
X16158228Y34225470D01*
X16165708Y34222918D01*
X16173249Y34220549D01*
X16180845Y34218364D01*
X16188491Y34216365D01*
X16196185Y34214553D01*
X16203920Y34212928D01*
X16211692Y34211493D01*
X16219497Y34210247D01*
X16227330Y34209191D01*
X16235187Y34208327D01*
X16243062Y34207654D01*
X16250951Y34207173D01*
X16258850Y34206884D01*
X16266753Y34206788D01*
X16850953Y34271700D02*
X16857276Y34271777D01*
X16863594Y34272008D01*
X16869906Y34272393D01*
X16876206Y34272931D01*
X16882491Y34273623D01*
X16888757Y34274467D01*
X16895001Y34275464D01*
X16901219Y34276612D01*
X16907407Y34277912D01*
X16913562Y34279362D01*
X16919679Y34280961D01*
X16925756Y34282709D01*
X16931789Y34284604D01*
X16937773Y34286646D01*
X16943706Y34288832D01*
X16949584Y34291163D01*
X16955403Y34293636D01*
X16961161Y34296250D01*
X16966853Y34299003D01*
X16972476Y34301894D01*
X16978027Y34304922D01*
X16983503Y34308083D01*
X16988901Y34311377D01*
X16994216Y34314801D01*
X16999447Y34318354D01*
X17004589Y34322033D01*
X17009641Y34325837D01*
X17014598Y34329762D01*
X17019458Y34333807D01*
X17024218Y34337968D01*
X17028876Y34342245D01*
X17033428Y34346634D01*
X17037872Y34351132D01*
X17042205Y34355737D01*
X17046424Y34360446D01*
X17050528Y34365257D01*
X17054513Y34370166D01*
X17058377Y34375171D01*
X17062119Y34380268D01*
X17065735Y34385455D01*
X17069224Y34390728D01*
X17072583Y34396085D01*
X17075811Y34401522D01*
X17078906Y34407036D01*
X17081865Y34412624D01*
X17084688Y34418282D01*
X17087372Y34424007D01*
X17089915Y34429796D01*
X17092317Y34435645D01*
X17094576Y34441551D01*
X17096690Y34447510D01*
X17098659Y34453519D01*
X17100481Y34459574D01*
X17102154Y34465671D01*
X17103679Y34471808D01*
X17105054Y34477980D01*
X17106278Y34484183D01*
X17107351Y34490414D01*
X17108271Y34496670D01*
X17109039Y34502946D01*
X17109654Y34509240D01*
X17110116Y34515546D01*
X17110424Y34521861D01*
X17110578Y34528182D01*
X17110578Y34534506D01*
X17110424Y34540827D01*
X17110116Y34547142D01*
X17109654Y34553448D01*
X17109039Y34559742D01*
X17108271Y34566018D01*
X17107351Y34572274D01*
X17106278Y34578505D01*
X17105054Y34584708D01*
X17103679Y34590880D01*
X17102154Y34597017D01*
X17100481Y34603114D01*
X17098659Y34609169D01*
X17096690Y34615178D01*
X17094576Y34621137D01*
X17092317Y34627043D01*
X17089915Y34632892D01*
X17087372Y34638681D01*
X17084688Y34644406D01*
X17081865Y34650064D01*
X17078906Y34655652D01*
X17075811Y34661166D01*
X17072583Y34666603D01*
X17069224Y34671960D01*
X17065735Y34677233D01*
X17062119Y34682420D01*
X17058377Y34687517D01*
X17054513Y34692522D01*
X17050528Y34697431D01*
X17046424Y34702242D01*
X17042205Y34706951D01*
X17037872Y34711556D01*
X17033428Y34716054D01*
X17028876Y34720443D01*
X17024218Y34724720D01*
X17019458Y34728881D01*
X17014598Y34732926D01*
X17009641Y34736851D01*
X17004589Y34740655D01*
X16999447Y34744334D01*
X16994216Y34747887D01*
X16988901Y34751311D01*
X16983503Y34754605D01*
X16978027Y34757766D01*
X16972476Y34760794D01*
X16966853Y34763685D01*
X16961161Y34766438D01*
X16955403Y34769052D01*
X16949584Y34771525D01*
X16943706Y34773856D01*
X16937773Y34776042D01*
X16931789Y34778084D01*
X16925756Y34779979D01*
X16919679Y34781727D01*
X16913562Y34783326D01*
X16907407Y34784776D01*
X16901219Y34786076D01*
X16895001Y34787224D01*
X16888757Y34788221D01*
X16882491Y34789065D01*
X16876206Y34789757D01*
X16869906Y34790295D01*
X16863594Y34790680D01*
X16857276Y34790911D01*
X16850953Y34790988D01*
X16850953Y34790991D02*
X16844630Y34790914D01*
X16838311Y34790683D01*
X16832000Y34790298D01*
X16825700Y34789760D01*
X16819415Y34789068D01*
X16813148Y34788224D01*
X16806904Y34787227D01*
X16800686Y34786079D01*
X16794498Y34784779D01*
X16788343Y34783329D01*
X16782226Y34781730D01*
X16776149Y34779982D01*
X16770117Y34778087D01*
X16764132Y34776045D01*
X16758199Y34773858D01*
X16752321Y34771528D01*
X16746502Y34769055D01*
X16740744Y34766441D01*
X16735052Y34763688D01*
X16729428Y34760796D01*
X16723877Y34757769D01*
X16718401Y34754607D01*
X16713004Y34751313D01*
X16707688Y34747889D01*
X16702458Y34744336D01*
X16697315Y34740657D01*
X16692264Y34736854D01*
X16687306Y34732928D01*
X16682446Y34728884D01*
X16677686Y34724722D01*
X16673028Y34720445D01*
X16668476Y34716057D01*
X16664032Y34711558D01*
X16659699Y34706953D01*
X16655480Y34702244D01*
X16651376Y34697433D01*
X16647391Y34692524D01*
X16643526Y34687519D01*
X16639785Y34682422D01*
X16636168Y34677235D01*
X16632680Y34671961D01*
X16629320Y34666605D01*
X16626092Y34661168D01*
X16622997Y34655653D01*
X16620038Y34650066D01*
X16617215Y34644407D01*
X16614532Y34638682D01*
X16611988Y34632893D01*
X16609586Y34627044D01*
X16607327Y34621138D01*
X16605213Y34615179D01*
X16603244Y34609170D01*
X16601422Y34603115D01*
X16599749Y34597017D01*
X16598224Y34590881D01*
X16596849Y34584709D01*
X16595625Y34578505D01*
X16594552Y34572274D01*
X16593632Y34566018D01*
X16592864Y34559742D01*
X16592249Y34553449D01*
X16591787Y34547142D01*
X16591479Y34540827D01*
X16591325Y34534506D01*
X16591325Y34528182D01*
X16591479Y34521861D01*
X16591787Y34515546D01*
X16592249Y34509239D01*
X16592864Y34502946D01*
X16593632Y34496670D01*
X16594552Y34490414D01*
X16595625Y34484183D01*
X16596849Y34477979D01*
X16598224Y34471807D01*
X16599749Y34465671D01*
X16601422Y34459573D01*
X16603244Y34453518D01*
X16605213Y34447509D01*
X16607327Y34441550D01*
X16609586Y34435644D01*
X16611988Y34429795D01*
X16614532Y34424006D01*
X16617215Y34418281D01*
X16620038Y34412622D01*
X16622997Y34407035D01*
X16626092Y34401521D01*
X16629320Y34396083D01*
X16632680Y34390727D01*
X16636168Y34385453D01*
X16639785Y34380266D01*
X16643526Y34375169D01*
X16647391Y34370164D01*
X16651376Y34365255D01*
X16655480Y34360444D01*
X16659699Y34355735D01*
X16664032Y34351130D01*
X16668476Y34346631D01*
X16673028Y34342243D01*
X16677686Y34337966D01*
X16682446Y34333804D01*
X16687306Y34329760D01*
X16692264Y34325834D01*
X16697315Y34322031D01*
X16702458Y34318352D01*
X16707688Y34314799D01*
X16713004Y34311375D01*
X16718401Y34308081D01*
X16723877Y34304919D01*
X16729428Y34301892D01*
X16735052Y34299000D01*
X16740744Y34296247D01*
X16746502Y34293633D01*
X16752321Y34291160D01*
X16758199Y34288830D01*
X16764132Y34286643D01*
X16770117Y34284601D01*
X16776149Y34282706D01*
X16782226Y34280958D01*
X16788343Y34279359D01*
X16794498Y34277909D01*
X16800686Y34276609D01*
X16806904Y34275461D01*
X16813148Y34274464D01*
X16819415Y34273620D01*
X16825700Y34272928D01*
X16832000Y34272390D01*
X16838311Y34272005D01*
X16844630Y34271774D01*
X16850953Y34271697D01*
D11*
X19364400Y35828700D02*
X19364400Y39384700D01*
X19364400Y35828700D02*
X25918400Y35828700D01*
X25918400Y39384700D01*
X19364400Y39384700D01*
D10*
X23500778Y38376700D02*
X23500778Y37208300D01*
X23630600Y37208300D02*
X23370956Y37208300D01*
X23370956Y38376700D02*
X23630600Y38376700D01*
X22654609Y37208300D02*
X22394966Y37208300D01*
X22654609Y37208300D02*
X22660883Y37208376D01*
X22667153Y37208603D01*
X22673416Y37208982D01*
X22679668Y37209512D01*
X22685906Y37210193D01*
X22692125Y37211025D01*
X22698322Y37212006D01*
X22704494Y37213137D01*
X22710636Y37214417D01*
X22716746Y37215845D01*
X22722819Y37217420D01*
X22728853Y37219141D01*
X22734843Y37221008D01*
X22740787Y37223019D01*
X22746680Y37225173D01*
X22752519Y37227468D01*
X22758302Y37229904D01*
X22764023Y37232480D01*
X22769681Y37235192D01*
X22775272Y37238041D01*
X22780792Y37241023D01*
X22786238Y37244139D01*
X22791608Y37247385D01*
X22796897Y37250760D01*
X22802104Y37254261D01*
X22807224Y37257888D01*
X22812255Y37261637D01*
X22817194Y37265506D01*
X22822038Y37269494D01*
X22826785Y37273598D01*
X22831431Y37277815D01*
X22835973Y37282143D01*
X22840410Y37286580D01*
X22844738Y37291122D01*
X22848955Y37295768D01*
X22853059Y37300515D01*
X22857047Y37305359D01*
X22860916Y37310298D01*
X22864665Y37315329D01*
X22868292Y37320449D01*
X22871793Y37325656D01*
X22875168Y37330945D01*
X22878414Y37336315D01*
X22881530Y37341761D01*
X22884512Y37347281D01*
X22887361Y37352872D01*
X22890073Y37358530D01*
X22892649Y37364251D01*
X22895085Y37370034D01*
X22897380Y37375873D01*
X22899534Y37381766D01*
X22901545Y37387710D01*
X22903412Y37393700D01*
X22905133Y37399734D01*
X22906708Y37405807D01*
X22908136Y37411917D01*
X22909416Y37418059D01*
X22910547Y37424231D01*
X22911528Y37430428D01*
X22912360Y37436647D01*
X22913041Y37442885D01*
X22913571Y37449137D01*
X22913950Y37455400D01*
X22914177Y37461670D01*
X22914253Y37467944D01*
X22914253Y38117053D01*
X22914177Y38123327D01*
X22913950Y38129597D01*
X22913571Y38135860D01*
X22913041Y38142112D01*
X22912360Y38148350D01*
X22911528Y38154569D01*
X22910547Y38160766D01*
X22909416Y38166938D01*
X22908136Y38173080D01*
X22906708Y38179190D01*
X22905133Y38185263D01*
X22903412Y38191297D01*
X22901545Y38197287D01*
X22899534Y38203231D01*
X22897380Y38209124D01*
X22895085Y38214963D01*
X22892649Y38220746D01*
X22890073Y38226467D01*
X22887361Y38232125D01*
X22884512Y38237716D01*
X22881530Y38243236D01*
X22878414Y38248682D01*
X22875168Y38254052D01*
X22871793Y38259341D01*
X22868292Y38264548D01*
X22864665Y38269668D01*
X22860916Y38274699D01*
X22857047Y38279638D01*
X22853059Y38284482D01*
X22848955Y38289229D01*
X22844738Y38293875D01*
X22840410Y38298417D01*
X22835973Y38302854D01*
X22831431Y38307182D01*
X22826785Y38311399D01*
X22822038Y38315503D01*
X22817194Y38319491D01*
X22812255Y38323360D01*
X22807224Y38327109D01*
X22802104Y38330736D01*
X22796897Y38334237D01*
X22791608Y38337612D01*
X22786238Y38340858D01*
X22780792Y38343974D01*
X22775272Y38346956D01*
X22769681Y38349805D01*
X22764023Y38352517D01*
X22758302Y38355093D01*
X22752519Y38357529D01*
X22746680Y38359824D01*
X22740787Y38361978D01*
X22734843Y38363989D01*
X22728853Y38365856D01*
X22722819Y38367577D01*
X22716746Y38369152D01*
X22710636Y38370580D01*
X22704494Y38371860D01*
X22698322Y38372991D01*
X22692125Y38373972D01*
X22685906Y38374804D01*
X22679668Y38375485D01*
X22673416Y38376015D01*
X22667153Y38376394D01*
X22660883Y38376621D01*
X22654609Y38376697D01*
X22654609Y38376700D02*
X22394966Y38376700D01*
X21958434Y38117053D02*
X21633881Y38376700D01*
X21633881Y37208300D01*
X21958434Y37208300D02*
X21309325Y37208300D01*
D12*
X32462200Y10999800D02*
X32462200Y9729800D01*
X33097200Y9094800D01*
X34367200Y9094800D01*
X35002200Y9729800D01*
X33097200Y9094800D02*
X32462200Y8459800D01*
X32462200Y7189800D01*
X33097200Y6554800D01*
X34367200Y6554800D01*
X35002200Y7189800D01*
X35002200Y8459800D01*
X34367200Y9094800D01*
X32462200Y13539800D02*
X33097200Y14174800D01*
X32462200Y13539800D02*
X32462200Y12269800D01*
X33097200Y11634800D01*
X34367200Y11634800D01*
X35002200Y12269800D01*
X35002200Y13539800D01*
X34367200Y14174800D01*
X33097200Y11634800D02*
X32462200Y10999800D01*
X34367200Y11634800D02*
X35002200Y10999800D01*
X35002200Y9729800D01*
X32462200Y17349800D02*
X32462200Y18619800D01*
X32462200Y17349800D02*
X33097200Y16714800D01*
X34367200Y16714800D01*
X35002200Y17349800D01*
X33097200Y16714800D02*
X32462200Y16079800D01*
X32462200Y14809800D01*
X33097200Y14174800D01*
X34367200Y14174800D01*
X35002200Y14809800D01*
X35002200Y16079800D01*
X34367200Y16714800D01*
X32462200Y21159800D02*
X33097200Y21794800D01*
X32462200Y21159800D02*
X32462200Y19889800D01*
X33097200Y19254800D01*
X34367200Y19254800D01*
X35002200Y19889800D01*
X35002200Y21159800D01*
X34367200Y21794800D01*
X33097200Y19254800D02*
X32462200Y18619800D01*
X34367200Y19254800D02*
X35002200Y18619800D01*
X35002200Y17349800D01*
X32462200Y24969800D02*
X32462200Y26239800D01*
X32462200Y24969800D02*
X33097200Y24334800D01*
X34367200Y24334800D01*
X35002200Y24969800D01*
X33097200Y24334800D02*
X32462200Y23699800D01*
X32462200Y22429800D01*
X33097200Y21794800D01*
X34367200Y21794800D01*
X35002200Y22429800D01*
X35002200Y23699800D01*
X34367200Y24334800D01*
X32462200Y28779800D02*
X33097200Y29414800D01*
X32462200Y28779800D02*
X32462200Y27509800D01*
X33097200Y26874800D01*
X34367200Y26874800D01*
X35002200Y27509800D01*
X35002200Y28779800D01*
X34367200Y29414800D01*
X33097200Y26874800D02*
X32462200Y26239800D01*
X34367200Y26874800D02*
X35002200Y26239800D01*
X35002200Y24969800D01*
X32462200Y32589800D02*
X32462200Y33859800D01*
X32462200Y32589800D02*
X33097200Y31954800D01*
X34367200Y31954800D01*
X35002200Y32589800D01*
X33097200Y31954800D02*
X32462200Y31319800D01*
X32462200Y30049800D01*
X33097200Y29414800D01*
X34367200Y29414800D01*
X35002200Y30049800D01*
X35002200Y31319800D01*
X34367200Y31954800D01*
X32462200Y36399800D02*
X33097200Y37034800D01*
X32462200Y36399800D02*
X32462200Y35129800D01*
X33097200Y34494800D01*
X34367200Y34494800D01*
X35002200Y35129800D01*
X35002200Y36399800D01*
X34367200Y37034800D01*
X33097200Y34494800D02*
X32462200Y33859800D01*
X34367200Y34494800D02*
X35002200Y33859800D01*
X35002200Y32589800D01*
X32462200Y40209800D02*
X32462200Y41479800D01*
X32462200Y40209800D02*
X33097200Y39574800D01*
X34367200Y39574800D01*
X35002200Y40209800D01*
X33097200Y39574800D02*
X32462200Y38939800D01*
X32462200Y37669800D01*
X33097200Y37034800D01*
X34367200Y37034800D01*
X35002200Y37669800D01*
X35002200Y38939800D01*
X34367200Y39574800D01*
X34367200Y42114800D02*
X33097200Y42114800D01*
X32462200Y41479800D01*
X34367200Y42114800D02*
X35002200Y41479800D01*
X35002200Y40209800D01*
X33097200Y6554800D02*
X32462200Y5919800D01*
X32462200Y4649800D01*
X33097200Y4014800D01*
X34367200Y4014800D01*
X35002200Y4649800D01*
X35002200Y5919800D01*
X34367200Y6554800D01*
D13*
X31166400Y21108231D02*
X30277400Y21108231D01*
X30271262Y21108157D01*
X30265128Y21107934D01*
X30259002Y21107564D01*
X30252885Y21107045D01*
X30246784Y21106379D01*
X30240700Y21105566D01*
X30234637Y21104605D01*
X30228600Y21103499D01*
X30222591Y21102247D01*
X30216614Y21100850D01*
X30210672Y21099309D01*
X30204770Y21097625D01*
X30198910Y21095799D01*
X30193095Y21093832D01*
X30187330Y21091725D01*
X30181618Y21089479D01*
X30175961Y21087096D01*
X30170364Y21084577D01*
X30164829Y21081923D01*
X30159360Y21079137D01*
X30153960Y21076219D01*
X30148632Y21073171D01*
X30143379Y21069996D01*
X30138205Y21066694D01*
X30133112Y21063269D01*
X30128103Y21059721D01*
X30123181Y21056054D01*
X30118349Y21052268D01*
X30113610Y21048367D01*
X30108967Y21044353D01*
X30104422Y21040227D01*
X30099978Y21035993D01*
X30095638Y21031653D01*
X30091404Y21027209D01*
X30087278Y21022664D01*
X30083264Y21018021D01*
X30079363Y21013282D01*
X30075577Y21008450D01*
X30071910Y21003528D01*
X30068362Y20998519D01*
X30064937Y20993426D01*
X30061635Y20988252D01*
X30058460Y20982999D01*
X30055412Y20977671D01*
X30052494Y20972271D01*
X30049708Y20966802D01*
X30047054Y20961267D01*
X30044535Y20955670D01*
X30042152Y20950013D01*
X30039906Y20944301D01*
X30037799Y20938536D01*
X30035832Y20932721D01*
X30034006Y20926861D01*
X30032322Y20920959D01*
X30030781Y20915017D01*
X30029384Y20909040D01*
X30028132Y20903031D01*
X30027026Y20896994D01*
X30026065Y20890931D01*
X30025252Y20884847D01*
X30024586Y20878746D01*
X30024067Y20872629D01*
X30023697Y20866503D01*
X30023474Y20860369D01*
X30023400Y20854231D01*
X30023400Y20727231D01*
X30023400Y21706250D02*
X31166400Y21706250D01*
X31166400Y22023750D01*
X31166306Y22031481D01*
X31166023Y22039208D01*
X31165553Y22046926D01*
X31164895Y22054630D01*
X31164049Y22062316D01*
X31163017Y22069978D01*
X31161798Y22077614D01*
X31160393Y22085217D01*
X31158804Y22092784D01*
X31157031Y22100310D01*
X31155075Y22107791D01*
X31152938Y22115221D01*
X31150621Y22122598D01*
X31148124Y22129916D01*
X31145450Y22137171D01*
X31142600Y22144358D01*
X31139576Y22151475D01*
X31136380Y22158515D01*
X31133013Y22165475D01*
X31129477Y22172352D01*
X31125776Y22179140D01*
X31121910Y22185836D01*
X31117882Y22192436D01*
X31113694Y22198936D01*
X31109350Y22205332D01*
X31104851Y22211621D01*
X31100200Y22217798D01*
X31095400Y22223860D01*
X31090454Y22229803D01*
X31085365Y22235624D01*
X31080136Y22241319D01*
X31074769Y22246885D01*
X31069269Y22252319D01*
X31063637Y22257618D01*
X31057879Y22262777D01*
X31051996Y22267795D01*
X31045993Y22272669D01*
X31039873Y22277394D01*
X31033640Y22281969D01*
X31027298Y22286392D01*
X31020849Y22290658D01*
X31014299Y22294766D01*
X31007650Y22298713D01*
X31000907Y22302497D01*
X30994074Y22306116D01*
X30987155Y22309568D01*
X30980155Y22312849D01*
X30973076Y22315960D01*
X30965923Y22318897D01*
X30958701Y22321659D01*
X30951415Y22324245D01*
X30944067Y22326652D01*
X30936663Y22328879D01*
X30929206Y22330926D01*
X30921702Y22332791D01*
X30914155Y22334472D01*
X30906570Y22335969D01*
X30898950Y22337280D01*
X30891300Y22338406D01*
X30883625Y22339345D01*
X30875930Y22340097D01*
X30868219Y22340662D01*
X30860496Y22341038D01*
X30852766Y22341226D01*
X30845034Y22341226D01*
X30837304Y22341038D01*
X30829581Y22340662D01*
X30821870Y22340097D01*
X30814175Y22339345D01*
X30806500Y22338406D01*
X30798850Y22337280D01*
X30791230Y22335969D01*
X30783645Y22334472D01*
X30776098Y22332791D01*
X30768594Y22330926D01*
X30761137Y22328879D01*
X30753733Y22326652D01*
X30746385Y22324245D01*
X30739099Y22321659D01*
X30731877Y22318897D01*
X30724724Y22315960D01*
X30717645Y22312849D01*
X30710645Y22309568D01*
X30703726Y22306116D01*
X30696893Y22302497D01*
X30690150Y22298713D01*
X30683501Y22294766D01*
X30676951Y22290658D01*
X30670502Y22286392D01*
X30664160Y22281969D01*
X30657927Y22277394D01*
X30651807Y22272669D01*
X30645804Y22267795D01*
X30639921Y22262777D01*
X30634163Y22257618D01*
X30628531Y22252319D01*
X30623031Y22246885D01*
X30617664Y22241319D01*
X30612435Y22235624D01*
X30607346Y22229803D01*
X30602400Y22223860D01*
X30597600Y22217798D01*
X30592949Y22211621D01*
X30588450Y22205332D01*
X30584106Y22198936D01*
X30579918Y22192436D01*
X30575890Y22185836D01*
X30572024Y22179140D01*
X30568323Y22172352D01*
X30564787Y22165475D01*
X30561420Y22158515D01*
X30558224Y22151475D01*
X30555200Y22144358D01*
X30552350Y22137171D01*
X30549676Y22129916D01*
X30547179Y22122598D01*
X30544862Y22115221D01*
X30542725Y22107791D01*
X30540769Y22100310D01*
X30538996Y22092784D01*
X30537407Y22085217D01*
X30536002Y22077614D01*
X30534783Y22069978D01*
X30533751Y22062316D01*
X30532905Y22054630D01*
X30532247Y22046926D01*
X30531777Y22039208D01*
X30531494Y22031481D01*
X30531400Y22023750D01*
X30531400Y21706250D01*
X31166400Y23141350D02*
X31166317Y23148255D01*
X31166066Y23155156D01*
X31165649Y23162048D01*
X31165066Y23168929D01*
X31164317Y23175793D01*
X31163401Y23182638D01*
X31162321Y23189458D01*
X31161077Y23196250D01*
X31159668Y23203010D01*
X31158097Y23209734D01*
X31156363Y23216419D01*
X31154469Y23223059D01*
X31152414Y23229652D01*
X31150201Y23236193D01*
X31147831Y23242678D01*
X31145304Y23249105D01*
X31142623Y23255468D01*
X31139789Y23261765D01*
X31136804Y23267992D01*
X31133669Y23274145D01*
X31130386Y23280220D01*
X31126958Y23286214D01*
X31123385Y23292123D01*
X31119671Y23297945D01*
X31115818Y23303675D01*
X31111827Y23309310D01*
X31107701Y23314847D01*
X31103442Y23320282D01*
X31099053Y23325614D01*
X31094537Y23330837D01*
X31089896Y23335950D01*
X31085132Y23340950D01*
X31080250Y23345832D01*
X31075250Y23350596D01*
X31070137Y23355237D01*
X31064914Y23359753D01*
X31059582Y23364142D01*
X31054147Y23368401D01*
X31048610Y23372527D01*
X31042975Y23376518D01*
X31037245Y23380371D01*
X31031423Y23384085D01*
X31025514Y23387658D01*
X31019520Y23391086D01*
X31013445Y23394369D01*
X31007292Y23397504D01*
X31001065Y23400489D01*
X30994768Y23403323D01*
X30988405Y23406004D01*
X30981978Y23408531D01*
X30975493Y23410901D01*
X30968952Y23413114D01*
X30962359Y23415169D01*
X30955719Y23417063D01*
X30949034Y23418797D01*
X30942310Y23420368D01*
X30935550Y23421777D01*
X30928758Y23423021D01*
X30921938Y23424101D01*
X30915093Y23425017D01*
X30908229Y23425766D01*
X30901348Y23426349D01*
X30894456Y23426766D01*
X30887555Y23427017D01*
X30880650Y23427100D01*
X31166400Y23141350D02*
X31166293Y23132473D01*
X31165971Y23123600D01*
X31165434Y23114738D01*
X31164684Y23105892D01*
X31163719Y23097066D01*
X31162542Y23088267D01*
X31161152Y23079498D01*
X31159550Y23070766D01*
X31157738Y23062074D01*
X31155716Y23053430D01*
X31153486Y23044836D01*
X31151049Y23036299D01*
X31148405Y23027824D01*
X31145558Y23019415D01*
X31142508Y23011077D01*
X31139257Y23002815D01*
X31135808Y22994635D01*
X31132162Y22986540D01*
X31128321Y22978536D01*
X31124287Y22970626D01*
X31120064Y22962817D01*
X31115653Y22955113D01*
X31111056Y22947517D01*
X31106278Y22940034D01*
X31101320Y22932670D01*
X31096185Y22925427D01*
X31090877Y22918310D01*
X31085398Y22911325D01*
X31079752Y22904473D01*
X31073942Y22897760D01*
X31067971Y22891190D01*
X31061843Y22884766D01*
X31055561Y22878492D01*
X31049130Y22872371D01*
X31042553Y22866408D01*
X31035833Y22860606D01*
X31028975Y22854968D01*
X31021982Y22849498D01*
X31014859Y22844198D01*
X31007611Y22839072D01*
X31000240Y22834123D01*
X30992752Y22829353D01*
X30985150Y22824766D01*
X30977440Y22820364D01*
X30969626Y22816150D01*
X30961712Y22812126D01*
X30953704Y22808295D01*
X30945604Y22804658D01*
X30937420Y22801218D01*
X30929154Y22797978D01*
X30920813Y22794938D01*
X30912400Y22792100D01*
X30658400Y23331850D02*
X30663660Y23337239D01*
X30669052Y23342498D01*
X30674570Y23347623D01*
X30680213Y23352611D01*
X30685976Y23357459D01*
X30691856Y23362164D01*
X30697851Y23366724D01*
X30703955Y23371135D01*
X30710166Y23375395D01*
X30716479Y23379501D01*
X30722891Y23383451D01*
X30729398Y23387243D01*
X30735996Y23390873D01*
X30742682Y23394341D01*
X30749450Y23397644D01*
X30756297Y23400780D01*
X30763220Y23403746D01*
X30770213Y23406542D01*
X30777272Y23409166D01*
X30784394Y23411615D01*
X30791574Y23413889D01*
X30798807Y23415987D01*
X30806090Y23417906D01*
X30813417Y23419645D01*
X30820785Y23421205D01*
X30828189Y23422583D01*
X30835625Y23423779D01*
X30843087Y23424793D01*
X30850573Y23425623D01*
X30858076Y23426269D01*
X30865593Y23426730D01*
X30873119Y23427008D01*
X30880650Y23427100D01*
X30658400Y23331850D02*
X30023400Y22792100D01*
X30023400Y23427100D01*
D12*
X9728200Y10998200D02*
X9728200Y9728200D01*
X10363200Y9093200D01*
X11633200Y9093200D01*
X12268200Y9728200D01*
X10363200Y9093200D02*
X9728200Y8458200D01*
X9728200Y7188200D01*
X10363200Y6553200D01*
X11633200Y6553200D01*
X12268200Y7188200D01*
X12268200Y8458200D01*
X11633200Y9093200D01*
X9728200Y13538200D02*
X10363200Y14173200D01*
X9728200Y13538200D02*
X9728200Y12268200D01*
X10363200Y11633200D01*
X11633200Y11633200D01*
X12268200Y12268200D01*
X12268200Y13538200D01*
X11633200Y14173200D01*
X10363200Y11633200D02*
X9728200Y10998200D01*
X11633200Y11633200D02*
X12268200Y10998200D01*
X12268200Y9728200D01*
X9728200Y17348200D02*
X9728200Y18618200D01*
X9728200Y17348200D02*
X10363200Y16713200D01*
X11633200Y16713200D01*
X12268200Y17348200D01*
X10363200Y16713200D02*
X9728200Y16078200D01*
X9728200Y14808200D01*
X10363200Y14173200D01*
X11633200Y14173200D01*
X12268200Y14808200D01*
X12268200Y16078200D01*
X11633200Y16713200D01*
X9728200Y21158200D02*
X10363200Y21793200D01*
X9728200Y21158200D02*
X9728200Y19888200D01*
X10363200Y19253200D01*
X11633200Y19253200D01*
X12268200Y19888200D01*
X12268200Y21158200D01*
X11633200Y21793200D01*
X10363200Y19253200D02*
X9728200Y18618200D01*
X11633200Y19253200D02*
X12268200Y18618200D01*
X12268200Y17348200D01*
X9728200Y24968200D02*
X9728200Y26238200D01*
X9728200Y24968200D02*
X10363200Y24333200D01*
X11633200Y24333200D01*
X12268200Y24968200D01*
X10363200Y24333200D02*
X9728200Y23698200D01*
X9728200Y22428200D01*
X10363200Y21793200D01*
X11633200Y21793200D01*
X12268200Y22428200D01*
X12268200Y23698200D01*
X11633200Y24333200D01*
X9728200Y28778200D02*
X10363200Y29413200D01*
X9728200Y28778200D02*
X9728200Y27508200D01*
X10363200Y26873200D01*
X11633200Y26873200D01*
X12268200Y27508200D01*
X12268200Y28778200D01*
X11633200Y29413200D01*
X10363200Y26873200D02*
X9728200Y26238200D01*
X11633200Y26873200D02*
X12268200Y26238200D01*
X12268200Y24968200D01*
X9728200Y32588200D02*
X9728200Y33858200D01*
X9728200Y32588200D02*
X10363200Y31953200D01*
X11633200Y31953200D01*
X12268200Y32588200D01*
X10363200Y31953200D02*
X9728200Y31318200D01*
X9728200Y30048200D01*
X10363200Y29413200D01*
X11633200Y29413200D01*
X12268200Y30048200D01*
X12268200Y31318200D01*
X11633200Y31953200D01*
X9728200Y36398200D02*
X10363200Y37033200D01*
X9728200Y36398200D02*
X9728200Y35128200D01*
X10363200Y34493200D01*
X11633200Y34493200D01*
X12268200Y35128200D01*
X12268200Y36398200D01*
X11633200Y37033200D01*
X10363200Y34493200D02*
X9728200Y33858200D01*
X11633200Y34493200D02*
X12268200Y33858200D01*
X12268200Y32588200D01*
X9728200Y40208200D02*
X9728200Y41478200D01*
X9728200Y40208200D02*
X10363200Y39573200D01*
X11633200Y39573200D01*
X12268200Y40208200D01*
X10363200Y39573200D02*
X9728200Y38938200D01*
X9728200Y37668200D01*
X10363200Y37033200D01*
X11633200Y37033200D01*
X12268200Y37668200D01*
X12268200Y38938200D01*
X11633200Y39573200D01*
X11633200Y42113200D02*
X10363200Y42113200D01*
X9728200Y41478200D01*
X11633200Y42113200D02*
X12268200Y41478200D01*
X12268200Y40208200D01*
X10363200Y6553200D02*
X9728200Y5918200D01*
X9728200Y4648200D01*
X10363200Y4013200D01*
X11633200Y4013200D01*
X12268200Y4648200D01*
X12268200Y5918200D01*
X11633200Y6553200D01*
D13*
X13186900Y22487031D02*
X14075900Y22487031D01*
X13186900Y22487031D02*
X13180762Y22486957D01*
X13174628Y22486734D01*
X13168502Y22486364D01*
X13162385Y22485845D01*
X13156284Y22485179D01*
X13150200Y22484366D01*
X13144137Y22483405D01*
X13138100Y22482299D01*
X13132091Y22481047D01*
X13126114Y22479650D01*
X13120172Y22478109D01*
X13114270Y22476425D01*
X13108410Y22474599D01*
X13102595Y22472632D01*
X13096830Y22470525D01*
X13091118Y22468279D01*
X13085461Y22465896D01*
X13079864Y22463377D01*
X13074329Y22460723D01*
X13068860Y22457937D01*
X13063460Y22455019D01*
X13058132Y22451971D01*
X13052879Y22448796D01*
X13047705Y22445494D01*
X13042612Y22442069D01*
X13037603Y22438521D01*
X13032681Y22434854D01*
X13027849Y22431068D01*
X13023110Y22427167D01*
X13018467Y22423153D01*
X13013922Y22419027D01*
X13009478Y22414793D01*
X13005138Y22410453D01*
X13000904Y22406009D01*
X12996778Y22401464D01*
X12992764Y22396821D01*
X12988863Y22392082D01*
X12985077Y22387250D01*
X12981410Y22382328D01*
X12977862Y22377319D01*
X12974437Y22372226D01*
X12971135Y22367052D01*
X12967960Y22361799D01*
X12964912Y22356471D01*
X12961994Y22351071D01*
X12959208Y22345602D01*
X12956554Y22340067D01*
X12954035Y22334470D01*
X12951652Y22328813D01*
X12949406Y22323101D01*
X12947299Y22317336D01*
X12945332Y22311521D01*
X12943506Y22305661D01*
X12941822Y22299759D01*
X12940281Y22293817D01*
X12938884Y22287840D01*
X12937632Y22281831D01*
X12936526Y22275794D01*
X12935565Y22269731D01*
X12934752Y22263647D01*
X12934086Y22257546D01*
X12933567Y22251429D01*
X12933197Y22245303D01*
X12932974Y22239169D01*
X12932900Y22233031D01*
X12932900Y22106031D01*
X12932900Y23085050D02*
X14075900Y23085050D01*
X14075900Y23402550D01*
X14075806Y23410281D01*
X14075523Y23418008D01*
X14075053Y23425726D01*
X14074395Y23433430D01*
X14073549Y23441116D01*
X14072517Y23448778D01*
X14071298Y23456414D01*
X14069893Y23464017D01*
X14068304Y23471584D01*
X14066531Y23479110D01*
X14064575Y23486591D01*
X14062438Y23494021D01*
X14060121Y23501398D01*
X14057624Y23508716D01*
X14054950Y23515971D01*
X14052100Y23523158D01*
X14049076Y23530275D01*
X14045880Y23537315D01*
X14042513Y23544275D01*
X14038977Y23551152D01*
X14035276Y23557940D01*
X14031410Y23564636D01*
X14027382Y23571236D01*
X14023194Y23577736D01*
X14018850Y23584132D01*
X14014351Y23590421D01*
X14009700Y23596598D01*
X14004900Y23602660D01*
X13999954Y23608603D01*
X13994865Y23614424D01*
X13989636Y23620119D01*
X13984269Y23625685D01*
X13978769Y23631119D01*
X13973137Y23636418D01*
X13967379Y23641577D01*
X13961496Y23646595D01*
X13955493Y23651469D01*
X13949373Y23656194D01*
X13943140Y23660769D01*
X13936798Y23665192D01*
X13930349Y23669458D01*
X13923799Y23673566D01*
X13917150Y23677513D01*
X13910407Y23681297D01*
X13903574Y23684916D01*
X13896655Y23688368D01*
X13889655Y23691649D01*
X13882576Y23694760D01*
X13875423Y23697697D01*
X13868201Y23700459D01*
X13860915Y23703045D01*
X13853567Y23705452D01*
X13846163Y23707679D01*
X13838706Y23709726D01*
X13831202Y23711591D01*
X13823655Y23713272D01*
X13816070Y23714769D01*
X13808450Y23716080D01*
X13800800Y23717206D01*
X13793125Y23718145D01*
X13785430Y23718897D01*
X13777719Y23719462D01*
X13769996Y23719838D01*
X13762266Y23720026D01*
X13754534Y23720026D01*
X13746804Y23719838D01*
X13739081Y23719462D01*
X13731370Y23718897D01*
X13723675Y23718145D01*
X13716000Y23717206D01*
X13708350Y23716080D01*
X13700730Y23714769D01*
X13693145Y23713272D01*
X13685598Y23711591D01*
X13678094Y23709726D01*
X13670637Y23707679D01*
X13663233Y23705452D01*
X13655885Y23703045D01*
X13648599Y23700459D01*
X13641377Y23697697D01*
X13634224Y23694760D01*
X13627145Y23691649D01*
X13620145Y23688368D01*
X13613226Y23684916D01*
X13606393Y23681297D01*
X13599650Y23677513D01*
X13593001Y23673566D01*
X13586451Y23669458D01*
X13580002Y23665192D01*
X13573660Y23660769D01*
X13567427Y23656194D01*
X13561307Y23651469D01*
X13555304Y23646595D01*
X13549421Y23641577D01*
X13543663Y23636418D01*
X13538031Y23631119D01*
X13532531Y23625685D01*
X13527164Y23620119D01*
X13521935Y23614424D01*
X13516846Y23608603D01*
X13511900Y23602660D01*
X13507100Y23596598D01*
X13502449Y23590421D01*
X13497950Y23584132D01*
X13493606Y23577736D01*
X13489418Y23571236D01*
X13485390Y23564636D01*
X13481524Y23557940D01*
X13477823Y23551152D01*
X13474287Y23544275D01*
X13470920Y23537315D01*
X13467724Y23530275D01*
X13464700Y23523158D01*
X13461850Y23515971D01*
X13459176Y23508716D01*
X13456679Y23501398D01*
X13454362Y23494021D01*
X13452225Y23486591D01*
X13450269Y23479110D01*
X13448496Y23471584D01*
X13446907Y23464017D01*
X13445502Y23456414D01*
X13444283Y23448778D01*
X13443251Y23441116D01*
X13442405Y23433430D01*
X13441747Y23425726D01*
X13441277Y23418008D01*
X13440994Y23410281D01*
X13440900Y23402550D01*
X13440900Y23085050D01*
X12932900Y24170900D02*
X12932900Y24488400D01*
X12932994Y24496131D01*
X12933277Y24503858D01*
X12933747Y24511576D01*
X12934405Y24519280D01*
X12935251Y24526966D01*
X12936283Y24534628D01*
X12937502Y24542264D01*
X12938907Y24549867D01*
X12940496Y24557434D01*
X12942269Y24564960D01*
X12944225Y24572441D01*
X12946362Y24579871D01*
X12948679Y24587248D01*
X12951176Y24594566D01*
X12953850Y24601821D01*
X12956700Y24609008D01*
X12959724Y24616125D01*
X12962920Y24623165D01*
X12966287Y24630125D01*
X12969823Y24637002D01*
X12973524Y24643790D01*
X12977390Y24650486D01*
X12981418Y24657086D01*
X12985606Y24663586D01*
X12989950Y24669982D01*
X12994449Y24676271D01*
X12999100Y24682448D01*
X13003900Y24688510D01*
X13008846Y24694453D01*
X13013935Y24700274D01*
X13019164Y24705969D01*
X13024531Y24711535D01*
X13030031Y24716969D01*
X13035663Y24722268D01*
X13041421Y24727427D01*
X13047304Y24732445D01*
X13053307Y24737319D01*
X13059427Y24742044D01*
X13065660Y24746619D01*
X13072002Y24751042D01*
X13078451Y24755308D01*
X13085001Y24759416D01*
X13091650Y24763363D01*
X13098393Y24767147D01*
X13105226Y24770766D01*
X13112145Y24774218D01*
X13119145Y24777499D01*
X13126224Y24780610D01*
X13133377Y24783547D01*
X13140599Y24786309D01*
X13147885Y24788895D01*
X13155233Y24791302D01*
X13162637Y24793529D01*
X13170094Y24795576D01*
X13177598Y24797441D01*
X13185145Y24799122D01*
X13192730Y24800619D01*
X13200350Y24801930D01*
X13208000Y24803056D01*
X13215675Y24803995D01*
X13223370Y24804747D01*
X13231081Y24805312D01*
X13238804Y24805688D01*
X13246534Y24805876D01*
X13254266Y24805876D01*
X13261996Y24805688D01*
X13269719Y24805312D01*
X13277430Y24804747D01*
X13285125Y24803995D01*
X13292800Y24803056D01*
X13300450Y24801930D01*
X13308070Y24800619D01*
X13315655Y24799122D01*
X13323202Y24797441D01*
X13330706Y24795576D01*
X13338163Y24793529D01*
X13345567Y24791302D01*
X13352915Y24788895D01*
X13360201Y24786309D01*
X13367423Y24783547D01*
X13374576Y24780610D01*
X13381655Y24777499D01*
X13388655Y24774218D01*
X13395574Y24770766D01*
X13402407Y24767147D01*
X13409150Y24763363D01*
X13415799Y24759416D01*
X13422349Y24755308D01*
X13428798Y24751042D01*
X13435140Y24746619D01*
X13441373Y24742044D01*
X13447493Y24737319D01*
X13453496Y24732445D01*
X13459379Y24727427D01*
X13465137Y24722268D01*
X13470769Y24716969D01*
X13476269Y24711535D01*
X13481636Y24705969D01*
X13486865Y24700274D01*
X13491954Y24694453D01*
X13496900Y24688510D01*
X13501700Y24682448D01*
X13506351Y24676271D01*
X13510850Y24669982D01*
X13515194Y24663586D01*
X13519382Y24657086D01*
X13523410Y24650486D01*
X13527276Y24643790D01*
X13530977Y24637002D01*
X13534513Y24630125D01*
X13537880Y24623165D01*
X13541076Y24616125D01*
X13544100Y24609008D01*
X13546950Y24601821D01*
X13549624Y24594566D01*
X13552121Y24587248D01*
X13554438Y24579871D01*
X13556575Y24572441D01*
X13558531Y24564960D01*
X13560304Y24557434D01*
X13561893Y24549867D01*
X13563298Y24542264D01*
X13564517Y24534628D01*
X13565549Y24526966D01*
X13566395Y24519280D01*
X13567053Y24511576D01*
X13567523Y24503858D01*
X13567806Y24496131D01*
X13567900Y24488400D01*
X14075900Y24551900D02*
X14075900Y24170900D01*
X14075900Y24551900D02*
X14075825Y24558085D01*
X14075599Y24564267D01*
X14075222Y24570441D01*
X14074696Y24576604D01*
X14074019Y24582752D01*
X14073193Y24588883D01*
X14072218Y24594991D01*
X14071095Y24601074D01*
X14069823Y24607127D01*
X14068405Y24613148D01*
X14066840Y24619133D01*
X14065131Y24625077D01*
X14063276Y24630978D01*
X14061279Y24636833D01*
X14059140Y24642637D01*
X14056860Y24648387D01*
X14054441Y24654080D01*
X14051884Y24659712D01*
X14049190Y24665280D01*
X14046362Y24670782D01*
X14043401Y24676212D01*
X14040308Y24681569D01*
X14037085Y24686849D01*
X14033735Y24692049D01*
X14030260Y24697166D01*
X14026661Y24702197D01*
X14022940Y24707138D01*
X14019100Y24711988D01*
X14015144Y24716742D01*
X14011072Y24721399D01*
X14006889Y24725955D01*
X14002595Y24730408D01*
X13998195Y24734755D01*
X13993690Y24738994D01*
X13989083Y24743122D01*
X13984377Y24747136D01*
X13979575Y24751035D01*
X13974679Y24754815D01*
X13969692Y24758476D01*
X13964618Y24762013D01*
X13959459Y24765426D01*
X13954219Y24768713D01*
X13948900Y24771870D01*
X13943506Y24774898D01*
X13938040Y24777793D01*
X13932504Y24780554D01*
X13926904Y24783180D01*
X13921241Y24785668D01*
X13915519Y24788018D01*
X13909741Y24790227D01*
X13903912Y24792296D01*
X13898033Y24794221D01*
X13892110Y24796004D01*
X13886145Y24797641D01*
X13880142Y24799132D01*
X13874104Y24800477D01*
X13868036Y24801675D01*
X13861940Y24802724D01*
X13855820Y24803625D01*
X13849680Y24804376D01*
X13843524Y24804978D01*
X13837355Y24805429D01*
X13831177Y24805731D01*
X13824993Y24805881D01*
X13818807Y24805881D01*
X13812623Y24805731D01*
X13806445Y24805429D01*
X13800276Y24804978D01*
X13794120Y24804376D01*
X13787980Y24803625D01*
X13781860Y24802724D01*
X13775764Y24801675D01*
X13769696Y24800477D01*
X13763658Y24799132D01*
X13757655Y24797641D01*
X13751690Y24796004D01*
X13745767Y24794221D01*
X13739888Y24792296D01*
X13734059Y24790227D01*
X13728281Y24788018D01*
X13722559Y24785668D01*
X13716896Y24783180D01*
X13711296Y24780554D01*
X13705760Y24777793D01*
X13700294Y24774898D01*
X13694900Y24771870D01*
X13689581Y24768713D01*
X13684341Y24765426D01*
X13679182Y24762013D01*
X13674108Y24758476D01*
X13669121Y24754815D01*
X13664225Y24751035D01*
X13659423Y24747136D01*
X13654717Y24743122D01*
X13650110Y24738994D01*
X13645605Y24734755D01*
X13641205Y24730408D01*
X13636911Y24725955D01*
X13632728Y24721399D01*
X13628656Y24716742D01*
X13624700Y24711988D01*
X13620860Y24707138D01*
X13617139Y24702197D01*
X13613540Y24697166D01*
X13610065Y24692049D01*
X13606715Y24686849D01*
X13603492Y24681569D01*
X13600399Y24676212D01*
X13597438Y24670782D01*
X13594610Y24665280D01*
X13591916Y24659712D01*
X13589359Y24654080D01*
X13586940Y24648387D01*
X13584660Y24642637D01*
X13582521Y24636833D01*
X13580524Y24630978D01*
X13578669Y24625077D01*
X13576960Y24619133D01*
X13575395Y24613148D01*
X13573977Y24607127D01*
X13572705Y24601074D01*
X13571582Y24594991D01*
X13570607Y24588883D01*
X13569781Y24582752D01*
X13569104Y24576604D01*
X13568578Y24570441D01*
X13568201Y24564267D01*
X13567975Y24558085D01*
X13567900Y24551900D01*
X13567900Y24297900D01*
M02*
