G04 EAGLE Gerber X2 export*
%TF.Part,Single*%
%TF.FileFunction,Legend,Top,1*%
%TF.FilePolarity,Positive*%
%TF.GenerationSoftware,Autodesk,EAGLE,9.6.2*%
%TF.CreationDate,2022-05-02T11:32:10Z*%
G75*
%MOMM*%
%FSLAX46Y46*%
%LPD*%
%INSilkscreen Top*%
%AMOC8*
5,1,8,0,0,1.08239X$1,22.5*%
G01*
%ADD10C,0.101600*%
%ADD11C,0.152400*%
%ADD12C,0.762000*%
%ADD13R,0.762000X0.508000*%
%ADD14R,0.762000X1.016000*%
%ADD15C,0.127000*%
%ADD16R,0.300000X0.150000*%
%ADD17R,0.300000X0.300000*%
%ADD18R,0.150000X0.300000*%
%ADD19C,0.254000*%
%ADD20C,0.508000*%
%ADD21C,0.200000*%
%ADD22C,0.447213*%


D10*
X29800600Y6840259D02*
X29800600Y6580616D01*
X29800524Y6574342D01*
X29800297Y6568072D01*
X29799918Y6561809D01*
X29799388Y6555557D01*
X29798707Y6549319D01*
X29797875Y6543100D01*
X29796894Y6536903D01*
X29795763Y6530731D01*
X29794483Y6524589D01*
X29793055Y6518479D01*
X29791480Y6512406D01*
X29789759Y6506372D01*
X29787892Y6500382D01*
X29785881Y6494438D01*
X29783727Y6488545D01*
X29781432Y6482706D01*
X29778996Y6476923D01*
X29776420Y6471202D01*
X29773708Y6465544D01*
X29770859Y6459953D01*
X29767877Y6454433D01*
X29764761Y6448987D01*
X29761515Y6443617D01*
X29758140Y6438328D01*
X29754639Y6433121D01*
X29751012Y6428001D01*
X29747263Y6422970D01*
X29743394Y6418031D01*
X29739406Y6413187D01*
X29735302Y6408440D01*
X29731085Y6403794D01*
X29726757Y6399252D01*
X29722320Y6394815D01*
X29717778Y6390487D01*
X29713132Y6386270D01*
X29708385Y6382166D01*
X29703541Y6378178D01*
X29698602Y6374309D01*
X29693571Y6370560D01*
X29688451Y6366933D01*
X29683244Y6363432D01*
X29677955Y6360057D01*
X29672585Y6356811D01*
X29667139Y6353695D01*
X29661619Y6350713D01*
X29656028Y6347864D01*
X29650370Y6345152D01*
X29644649Y6342576D01*
X29638866Y6340140D01*
X29633027Y6337845D01*
X29627134Y6335691D01*
X29621190Y6333680D01*
X29615200Y6331813D01*
X29609166Y6330092D01*
X29603093Y6328517D01*
X29596983Y6327089D01*
X29590841Y6325809D01*
X29584669Y6324678D01*
X29578472Y6323697D01*
X29572253Y6322865D01*
X29566015Y6322184D01*
X29559763Y6321654D01*
X29553500Y6321275D01*
X29547230Y6321048D01*
X29540956Y6320972D01*
X28891847Y6320972D01*
X28885475Y6321050D01*
X28879107Y6321285D01*
X28872746Y6321676D01*
X28866397Y6322222D01*
X28860064Y6322925D01*
X28853749Y6323782D01*
X28847457Y6324795D01*
X28841193Y6325961D01*
X28834958Y6327281D01*
X28828758Y6328753D01*
X28822596Y6330377D01*
X28816476Y6332152D01*
X28810401Y6334077D01*
X28804375Y6336150D01*
X28798402Y6338370D01*
X28792485Y6340736D01*
X28786628Y6343247D01*
X28780834Y6345900D01*
X28775107Y6348695D01*
X28769451Y6351630D01*
X28763868Y6354703D01*
X28758362Y6357912D01*
X28752937Y6361255D01*
X28747595Y6364730D01*
X28742340Y6368335D01*
X28737176Y6372068D01*
X28732104Y6375926D01*
X28727129Y6379908D01*
X28722253Y6384011D01*
X28717479Y6388232D01*
X28712810Y6392569D01*
X28708249Y6397020D01*
X28703798Y6401580D01*
X28699461Y6406249D01*
X28695240Y6411023D01*
X28691137Y6415899D01*
X28687155Y6420874D01*
X28683296Y6425946D01*
X28679563Y6431110D01*
X28675958Y6436365D01*
X28672483Y6441706D01*
X28669140Y6447132D01*
X28665931Y6452637D01*
X28662858Y6458220D01*
X28659923Y6463876D01*
X28657128Y6469603D01*
X28654474Y6475397D01*
X28651963Y6481254D01*
X28649597Y6487171D01*
X28647377Y6493144D01*
X28645304Y6499170D01*
X28643379Y6505245D01*
X28641604Y6511365D01*
X28639980Y6517527D01*
X28638507Y6523727D01*
X28637187Y6529961D01*
X28636021Y6536226D01*
X28635008Y6542518D01*
X28634150Y6548832D01*
X28633448Y6555166D01*
X28632901Y6561515D01*
X28632510Y6567876D01*
X28632275Y6574244D01*
X28632197Y6580616D01*
X28632200Y6580616D02*
X28632200Y6840259D01*
X28891847Y7276791D02*
X28632200Y7601344D01*
X29800600Y7601344D01*
X29800600Y7276791D02*
X29800600Y7925900D01*
X24291963Y11617500D02*
X24032319Y11617500D01*
X24026045Y11617576D01*
X24019775Y11617803D01*
X24013512Y11618182D01*
X24007260Y11618712D01*
X24001022Y11619393D01*
X23994803Y11620225D01*
X23988606Y11621206D01*
X23982434Y11622337D01*
X23976292Y11623617D01*
X23970182Y11625045D01*
X23964109Y11626620D01*
X23958075Y11628341D01*
X23952085Y11630208D01*
X23946141Y11632219D01*
X23940248Y11634373D01*
X23934409Y11636668D01*
X23928626Y11639104D01*
X23922905Y11641680D01*
X23917247Y11644392D01*
X23911656Y11647241D01*
X23906136Y11650223D01*
X23900690Y11653339D01*
X23895320Y11656585D01*
X23890031Y11659960D01*
X23884824Y11663461D01*
X23879704Y11667088D01*
X23874673Y11670837D01*
X23869734Y11674706D01*
X23864890Y11678694D01*
X23860143Y11682798D01*
X23855497Y11687015D01*
X23850955Y11691343D01*
X23846518Y11695780D01*
X23842190Y11700322D01*
X23837973Y11704968D01*
X23833869Y11709715D01*
X23829881Y11714559D01*
X23826012Y11719498D01*
X23822263Y11724529D01*
X23818636Y11729649D01*
X23815135Y11734856D01*
X23811760Y11740145D01*
X23808514Y11745515D01*
X23805398Y11750961D01*
X23802416Y11756481D01*
X23799567Y11762072D01*
X23796855Y11767730D01*
X23794279Y11773451D01*
X23791843Y11779234D01*
X23789548Y11785073D01*
X23787394Y11790966D01*
X23785383Y11796910D01*
X23783516Y11802900D01*
X23781795Y11808934D01*
X23780220Y11815007D01*
X23778792Y11821117D01*
X23777512Y11827259D01*
X23776381Y11833431D01*
X23775400Y11839628D01*
X23774568Y11845847D01*
X23773887Y11852085D01*
X23773357Y11858337D01*
X23772978Y11864600D01*
X23772751Y11870870D01*
X23772675Y11877144D01*
X23772675Y12526253D01*
X23772753Y12532625D01*
X23772988Y12538993D01*
X23773379Y12545354D01*
X23773925Y12551703D01*
X23774628Y12558036D01*
X23775485Y12564351D01*
X23776498Y12570642D01*
X23777664Y12576907D01*
X23778984Y12583142D01*
X23780456Y12589342D01*
X23782080Y12595504D01*
X23783855Y12601624D01*
X23785780Y12607699D01*
X23787853Y12613725D01*
X23790073Y12619698D01*
X23792439Y12625615D01*
X23794950Y12631472D01*
X23797604Y12637266D01*
X23800399Y12642992D01*
X23803333Y12648649D01*
X23806406Y12654232D01*
X23809615Y12659737D01*
X23812958Y12665163D01*
X23816433Y12670504D01*
X23820038Y12675759D01*
X23823771Y12680924D01*
X23827629Y12685995D01*
X23831611Y12690970D01*
X23835714Y12695846D01*
X23839935Y12700620D01*
X23844272Y12705289D01*
X23848723Y12709850D01*
X23853284Y12714300D01*
X23857953Y12718638D01*
X23862726Y12722859D01*
X23867602Y12726962D01*
X23872578Y12730944D01*
X23877649Y12734802D01*
X23882814Y12738535D01*
X23888068Y12742141D01*
X23893410Y12745616D01*
X23898835Y12748959D01*
X23904341Y12752167D01*
X23909923Y12755240D01*
X23915580Y12758175D01*
X23921307Y12760970D01*
X23927100Y12763624D01*
X23932957Y12766135D01*
X23938874Y12768501D01*
X23944847Y12770721D01*
X23950873Y12772794D01*
X23956948Y12774719D01*
X23963068Y12776494D01*
X23969230Y12778118D01*
X23975430Y12779591D01*
X23981665Y12780910D01*
X23987930Y12782077D01*
X23994221Y12783089D01*
X24000536Y12783947D01*
X24006869Y12784649D01*
X24013218Y12785196D01*
X24019579Y12785587D01*
X24025947Y12785822D01*
X24032319Y12785900D01*
X24291963Y12785900D01*
X24728494Y12526253D02*
X25053047Y12785900D01*
X25053047Y11617500D01*
X24728494Y11617500D02*
X25377603Y11617500D01*
X25871491Y12201700D02*
X25871765Y12224684D01*
X25872588Y12247656D01*
X25873959Y12270601D01*
X25875878Y12293507D01*
X25878342Y12316360D01*
X25881352Y12339148D01*
X25884905Y12361858D01*
X25888998Y12384477D01*
X25893631Y12406991D01*
X25898799Y12429388D01*
X25904501Y12451656D01*
X25910733Y12473781D01*
X25917491Y12495751D01*
X25924772Y12517554D01*
X25932571Y12539176D01*
X25940884Y12560607D01*
X25949706Y12581832D01*
X25959032Y12602841D01*
X25968857Y12623622D01*
X25968855Y12623622D02*
X25970816Y12629125D01*
X25972911Y12634578D01*
X25975138Y12639979D01*
X25977496Y12645323D01*
X25979983Y12650609D01*
X25982597Y12655833D01*
X25985338Y12660992D01*
X25988204Y12666082D01*
X25991193Y12671101D01*
X25994302Y12676047D01*
X25997532Y12680915D01*
X26000878Y12685703D01*
X26004340Y12690408D01*
X26007916Y12695027D01*
X26011602Y12699559D01*
X26015398Y12703999D01*
X26019301Y12708346D01*
X26023308Y12712596D01*
X26027418Y12716748D01*
X26031627Y12720799D01*
X26035934Y12724746D01*
X26040335Y12728587D01*
X26044828Y12732320D01*
X26049411Y12735942D01*
X26054081Y12739452D01*
X26058834Y12742847D01*
X26063669Y12746126D01*
X26068582Y12749286D01*
X26073571Y12752326D01*
X26078631Y12755244D01*
X26083762Y12758037D01*
X26088959Y12760705D01*
X26094219Y12763246D01*
X26099539Y12765658D01*
X26104917Y12767941D01*
X26110348Y12770091D01*
X26115830Y12772109D01*
X26121360Y12773993D01*
X26126933Y12775742D01*
X26132548Y12777355D01*
X26138200Y12778830D01*
X26143887Y12780168D01*
X26149604Y12781367D01*
X26155349Y12782427D01*
X26161117Y12783347D01*
X26166907Y12784126D01*
X26172714Y12784764D01*
X26178534Y12785261D01*
X26184365Y12785616D01*
X26190203Y12785829D01*
X26196044Y12785900D01*
X26201885Y12785829D01*
X26207723Y12785616D01*
X26213554Y12785261D01*
X26219374Y12784764D01*
X26225181Y12784126D01*
X26230971Y12783347D01*
X26236740Y12782427D01*
X26242484Y12781367D01*
X26248202Y12780168D01*
X26253888Y12778830D01*
X26259540Y12777354D01*
X26265155Y12775742D01*
X26270729Y12773993D01*
X26276258Y12772109D01*
X26281740Y12770091D01*
X26287172Y12767940D01*
X26292549Y12765658D01*
X26297870Y12763246D01*
X26303130Y12760705D01*
X26308327Y12758037D01*
X26313457Y12755244D01*
X26318518Y12752326D01*
X26323506Y12749286D01*
X26328419Y12746126D01*
X26333254Y12742847D01*
X26338008Y12739452D01*
X26342677Y12735942D01*
X26347260Y12732319D01*
X26351753Y12728586D01*
X26356155Y12724745D01*
X26360461Y12720798D01*
X26364671Y12716748D01*
X26368780Y12712596D01*
X26372787Y12708345D01*
X26376690Y12703999D01*
X26380486Y12699558D01*
X26384173Y12695027D01*
X26387748Y12690407D01*
X26391210Y12685702D01*
X26394557Y12680914D01*
X26397786Y12676046D01*
X26400896Y12671101D01*
X26403884Y12666081D01*
X26406750Y12660991D01*
X26409491Y12655832D01*
X26412106Y12650608D01*
X26414593Y12645322D01*
X26416950Y12639978D01*
X26419177Y12634577D01*
X26421272Y12629124D01*
X26423234Y12623621D01*
X26423234Y12623622D02*
X26433059Y12602841D01*
X26442385Y12581832D01*
X26451207Y12560607D01*
X26459520Y12539176D01*
X26467319Y12517554D01*
X26474600Y12495751D01*
X26481358Y12473781D01*
X26487590Y12451656D01*
X26493292Y12429388D01*
X26498460Y12406991D01*
X26503093Y12384477D01*
X26507186Y12361858D01*
X26510739Y12339148D01*
X26513749Y12316360D01*
X26516213Y12293507D01*
X26518132Y12270601D01*
X26519503Y12247656D01*
X26520326Y12224684D01*
X26520600Y12201700D01*
X25871490Y12201700D02*
X25871764Y12178715D01*
X25872587Y12155744D01*
X25873958Y12132799D01*
X25875877Y12109893D01*
X25878341Y12087039D01*
X25881351Y12064251D01*
X25884904Y12041541D01*
X25888997Y12018922D01*
X25893630Y11996407D01*
X25898798Y11974010D01*
X25904500Y11951742D01*
X25910732Y11929617D01*
X25917490Y11907646D01*
X25924770Y11885844D01*
X25932569Y11864221D01*
X25940882Y11842791D01*
X25949704Y11821565D01*
X25959031Y11800556D01*
X25968856Y11779775D01*
X25970817Y11774272D01*
X25972912Y11768819D01*
X25975139Y11763419D01*
X25977497Y11758074D01*
X25979984Y11752788D01*
X25982599Y11747565D01*
X25985340Y11742406D01*
X25988205Y11737316D01*
X25991194Y11732297D01*
X25994304Y11727351D01*
X25997533Y11722484D01*
X26000879Y11717696D01*
X26004342Y11712990D01*
X26007917Y11708371D01*
X26011604Y11703840D01*
X26015400Y11699399D01*
X26019302Y11695053D01*
X26023310Y11690802D01*
X26027419Y11686651D01*
X26031628Y11682600D01*
X26035935Y11678653D01*
X26040336Y11674812D01*
X26044830Y11671079D01*
X26049412Y11667457D01*
X26054082Y11663947D01*
X26058835Y11660552D01*
X26063670Y11657273D01*
X26068583Y11654113D01*
X26073572Y11651073D01*
X26078633Y11648156D01*
X26083763Y11645362D01*
X26088960Y11642694D01*
X26094220Y11640153D01*
X26099540Y11637741D01*
X26104918Y11635459D01*
X26110349Y11633309D01*
X26115831Y11631291D01*
X26121360Y11629407D01*
X26126934Y11627658D01*
X26132549Y11626045D01*
X26138201Y11624570D01*
X26143887Y11623232D01*
X26149604Y11622033D01*
X26155349Y11620973D01*
X26161118Y11620053D01*
X26166907Y11619274D01*
X26172714Y11618636D01*
X26178534Y11618139D01*
X26184365Y11617784D01*
X26190203Y11617571D01*
X26196044Y11617500D01*
X26423235Y11779775D02*
X26433060Y11800555D01*
X26442386Y11821565D01*
X26451208Y11842790D01*
X26459521Y11864221D01*
X26467320Y11885844D01*
X26474600Y11907646D01*
X26481358Y11929617D01*
X26487590Y11951742D01*
X26493292Y11974010D01*
X26498460Y11996407D01*
X26503093Y12018922D01*
X26507187Y12041541D01*
X26510739Y12064251D01*
X26513749Y12087039D01*
X26516213Y12109893D01*
X26518132Y12132799D01*
X26519503Y12155744D01*
X26520326Y12178715D01*
X26520600Y12201700D01*
X26423233Y11779776D02*
X26421271Y11774273D01*
X26419176Y11768820D01*
X26416949Y11763420D01*
X26414592Y11758075D01*
X26412105Y11752789D01*
X26409490Y11747566D01*
X26406749Y11742407D01*
X26403883Y11737316D01*
X26400895Y11732297D01*
X26397785Y11727352D01*
X26394556Y11722484D01*
X26391209Y11717696D01*
X26387747Y11712991D01*
X26384171Y11708371D01*
X26380485Y11703840D01*
X26376689Y11699400D01*
X26372786Y11695053D01*
X26368779Y11690803D01*
X26364669Y11686651D01*
X26360460Y11682601D01*
X26356153Y11678654D01*
X26351752Y11674813D01*
X26347259Y11671080D01*
X26342676Y11667457D01*
X26338006Y11663947D01*
X26333253Y11660552D01*
X26328418Y11657273D01*
X26323505Y11654113D01*
X26318517Y11651073D01*
X26313456Y11648156D01*
X26308325Y11645362D01*
X26303129Y11642694D01*
X26297869Y11640153D01*
X26292548Y11637741D01*
X26287171Y11635459D01*
X26281739Y11633309D01*
X26276257Y11631291D01*
X26270728Y11629407D01*
X26265154Y11627658D01*
X26259540Y11626045D01*
X26253887Y11624570D01*
X26248201Y11623232D01*
X26242484Y11622033D01*
X26236739Y11620973D01*
X26230970Y11620053D01*
X26225181Y11619274D01*
X26219374Y11618636D01*
X26213554Y11618139D01*
X26207723Y11617784D01*
X26201885Y11617571D01*
X26196044Y11617500D01*
X25936400Y11877144D02*
X26455691Y12526253D01*
X18570600Y16290616D02*
X18570600Y16550259D01*
X18570600Y16290616D02*
X18570524Y16284342D01*
X18570297Y16278072D01*
X18569918Y16271809D01*
X18569388Y16265557D01*
X18568707Y16259319D01*
X18567875Y16253100D01*
X18566894Y16246903D01*
X18565763Y16240731D01*
X18564483Y16234589D01*
X18563055Y16228479D01*
X18561480Y16222406D01*
X18559759Y16216372D01*
X18557892Y16210382D01*
X18555881Y16204438D01*
X18553727Y16198545D01*
X18551432Y16192706D01*
X18548996Y16186923D01*
X18546420Y16181202D01*
X18543708Y16175544D01*
X18540859Y16169953D01*
X18537877Y16164433D01*
X18534761Y16158987D01*
X18531515Y16153617D01*
X18528140Y16148328D01*
X18524639Y16143121D01*
X18521012Y16138001D01*
X18517263Y16132970D01*
X18513394Y16128031D01*
X18509406Y16123187D01*
X18505302Y16118440D01*
X18501085Y16113794D01*
X18496757Y16109252D01*
X18492320Y16104815D01*
X18487778Y16100487D01*
X18483132Y16096270D01*
X18478385Y16092166D01*
X18473541Y16088178D01*
X18468602Y16084309D01*
X18463571Y16080560D01*
X18458451Y16076933D01*
X18453244Y16073432D01*
X18447955Y16070057D01*
X18442585Y16066811D01*
X18437139Y16063695D01*
X18431619Y16060713D01*
X18426028Y16057864D01*
X18420370Y16055152D01*
X18414649Y16052576D01*
X18408866Y16050140D01*
X18403027Y16047845D01*
X18397134Y16045691D01*
X18391190Y16043680D01*
X18385200Y16041813D01*
X18379166Y16040092D01*
X18373093Y16038517D01*
X18366983Y16037089D01*
X18360841Y16035809D01*
X18354669Y16034678D01*
X18348472Y16033697D01*
X18342253Y16032865D01*
X18336015Y16032184D01*
X18329763Y16031654D01*
X18323500Y16031275D01*
X18317230Y16031048D01*
X18310956Y16030972D01*
X17661847Y16030972D01*
X17655475Y16031050D01*
X17649107Y16031285D01*
X17642746Y16031676D01*
X17636397Y16032222D01*
X17630064Y16032925D01*
X17623749Y16033782D01*
X17617457Y16034795D01*
X17611193Y16035961D01*
X17604958Y16037281D01*
X17598758Y16038753D01*
X17592596Y16040377D01*
X17586476Y16042152D01*
X17580401Y16044077D01*
X17574375Y16046150D01*
X17568402Y16048370D01*
X17562485Y16050736D01*
X17556628Y16053247D01*
X17550834Y16055900D01*
X17545107Y16058695D01*
X17539451Y16061630D01*
X17533868Y16064703D01*
X17528362Y16067912D01*
X17522937Y16071255D01*
X17517595Y16074730D01*
X17512340Y16078335D01*
X17507176Y16082068D01*
X17502104Y16085926D01*
X17497129Y16089908D01*
X17492253Y16094011D01*
X17487479Y16098232D01*
X17482810Y16102569D01*
X17478249Y16107020D01*
X17473798Y16111580D01*
X17469461Y16116249D01*
X17465240Y16121023D01*
X17461137Y16125899D01*
X17457155Y16130874D01*
X17453296Y16135946D01*
X17449563Y16141110D01*
X17445958Y16146365D01*
X17442483Y16151706D01*
X17439140Y16157132D01*
X17435931Y16162637D01*
X17432858Y16168220D01*
X17429923Y16173876D01*
X17427128Y16179603D01*
X17424474Y16185397D01*
X17421963Y16191254D01*
X17419597Y16197171D01*
X17417377Y16203144D01*
X17415304Y16209170D01*
X17413379Y16215245D01*
X17411604Y16221365D01*
X17409980Y16227527D01*
X17408507Y16233727D01*
X17407187Y16239961D01*
X17406021Y16246226D01*
X17405008Y16252518D01*
X17404150Y16258832D01*
X17403448Y16265166D01*
X17402901Y16271515D01*
X17402510Y16277876D01*
X17402275Y16284244D01*
X17402197Y16290616D01*
X17402200Y16290616D02*
X17402200Y16550259D01*
X17402200Y17343800D02*
X17402285Y17350858D01*
X17402541Y17357912D01*
X17402967Y17364958D01*
X17403564Y17371992D01*
X17404330Y17379009D01*
X17405265Y17386005D01*
X17406369Y17392977D01*
X17407642Y17399920D01*
X17409082Y17406831D01*
X17410688Y17413704D01*
X17412460Y17420537D01*
X17414396Y17427325D01*
X17416496Y17434064D01*
X17418759Y17440750D01*
X17421182Y17447380D01*
X17423764Y17453949D01*
X17426505Y17460454D01*
X17429402Y17466891D01*
X17432454Y17473256D01*
X17435658Y17479546D01*
X17439014Y17485756D01*
X17442519Y17491883D01*
X17446170Y17497924D01*
X17449967Y17503874D01*
X17453906Y17509732D01*
X17457986Y17515492D01*
X17462204Y17521152D01*
X17466557Y17526709D01*
X17471043Y17532158D01*
X17475660Y17537498D01*
X17480404Y17542725D01*
X17485274Y17547835D01*
X17490265Y17552826D01*
X17495375Y17557696D01*
X17500602Y17562440D01*
X17505942Y17567057D01*
X17511391Y17571543D01*
X17516948Y17575896D01*
X17522608Y17580114D01*
X17528368Y17584194D01*
X17534226Y17588133D01*
X17540176Y17591930D01*
X17546217Y17595581D01*
X17552344Y17599086D01*
X17558554Y17602442D01*
X17564844Y17605646D01*
X17571209Y17608698D01*
X17577646Y17611595D01*
X17584151Y17614336D01*
X17590720Y17616918D01*
X17597350Y17619341D01*
X17604036Y17621604D01*
X17610775Y17623704D01*
X17617563Y17625640D01*
X17624396Y17627412D01*
X17631269Y17629018D01*
X17638180Y17630458D01*
X17645123Y17631731D01*
X17652095Y17632835D01*
X17659091Y17633770D01*
X17666108Y17634536D01*
X17673142Y17635133D01*
X17680188Y17635559D01*
X17687242Y17635815D01*
X17694300Y17635900D01*
X17402200Y17343800D02*
X17402310Y17334725D01*
X17402639Y17325656D01*
X17403187Y17316597D01*
X17403955Y17307554D01*
X17404940Y17298532D01*
X17406144Y17289537D01*
X17407565Y17280573D01*
X17409202Y17271647D01*
X17411054Y17262762D01*
X17413121Y17253925D01*
X17415401Y17245141D01*
X17417893Y17236414D01*
X17420595Y17227750D01*
X17423506Y17219154D01*
X17426623Y17210631D01*
X17429946Y17202186D01*
X17433472Y17193824D01*
X17437200Y17185549D01*
X17441126Y17177367D01*
X17445249Y17169282D01*
X17449567Y17161299D01*
X17454076Y17153423D01*
X17458774Y17145659D01*
X17463659Y17138010D01*
X17468727Y17130481D01*
X17473976Y17123078D01*
X17479402Y17115803D01*
X17485003Y17108662D01*
X17490775Y17101658D01*
X17496714Y17094796D01*
X17502817Y17088080D01*
X17509082Y17081513D01*
X17515503Y17075100D01*
X17522077Y17068843D01*
X17528801Y17062748D01*
X17535670Y17056817D01*
X17542681Y17051054D01*
X17549829Y17045461D01*
X17557110Y17040044D01*
X17564520Y17034804D01*
X17572054Y17029745D01*
X17579709Y17024869D01*
X17587479Y17020180D01*
X17595361Y17015681D01*
X17603349Y17011373D01*
X17611438Y17007260D01*
X17619625Y17003343D01*
X17627904Y16999626D01*
X17636271Y16996110D01*
X17644720Y16992797D01*
X17653247Y16989689D01*
X17661847Y16986789D01*
X17921490Y17538534D02*
X17916113Y17544043D01*
X17910602Y17549419D01*
X17904961Y17554657D01*
X17899193Y17559756D01*
X17893301Y17564712D01*
X17887290Y17569522D01*
X17881163Y17574182D01*
X17874923Y17578691D01*
X17868574Y17583046D01*
X17862120Y17587244D01*
X17855565Y17591281D01*
X17848914Y17595157D01*
X17842169Y17598869D01*
X17835335Y17602413D01*
X17828416Y17605790D01*
X17821416Y17608995D01*
X17814340Y17612028D01*
X17807192Y17614886D01*
X17799975Y17617567D01*
X17792695Y17620071D01*
X17785356Y17622396D01*
X17777962Y17624540D01*
X17770518Y17626501D01*
X17763027Y17628280D01*
X17755496Y17629874D01*
X17747927Y17631283D01*
X17740326Y17632506D01*
X17732697Y17633541D01*
X17725046Y17634390D01*
X17717376Y17635050D01*
X17709691Y17635522D01*
X17701998Y17635806D01*
X17694300Y17635900D01*
X17921491Y17538534D02*
X18570600Y16986791D01*
X18570600Y17635900D01*
X20950600Y15596788D02*
X20950600Y15337144D01*
X20950524Y15330870D01*
X20950297Y15324600D01*
X20949918Y15318337D01*
X20949388Y15312085D01*
X20948707Y15305847D01*
X20947875Y15299628D01*
X20946894Y15293431D01*
X20945763Y15287259D01*
X20944483Y15281117D01*
X20943055Y15275007D01*
X20941480Y15268934D01*
X20939759Y15262900D01*
X20937892Y15256910D01*
X20935881Y15250966D01*
X20933727Y15245073D01*
X20931432Y15239234D01*
X20928996Y15233451D01*
X20926420Y15227730D01*
X20923708Y15222072D01*
X20920859Y15216481D01*
X20917877Y15210961D01*
X20914761Y15205515D01*
X20911515Y15200145D01*
X20908140Y15194856D01*
X20904639Y15189649D01*
X20901012Y15184529D01*
X20897263Y15179498D01*
X20893394Y15174559D01*
X20889406Y15169715D01*
X20885302Y15164968D01*
X20881085Y15160322D01*
X20876757Y15155780D01*
X20872320Y15151343D01*
X20867778Y15147015D01*
X20863132Y15142798D01*
X20858385Y15138694D01*
X20853541Y15134706D01*
X20848602Y15130837D01*
X20843571Y15127088D01*
X20838451Y15123461D01*
X20833244Y15119960D01*
X20827955Y15116585D01*
X20822585Y15113339D01*
X20817139Y15110223D01*
X20811619Y15107241D01*
X20806028Y15104392D01*
X20800370Y15101680D01*
X20794649Y15099104D01*
X20788866Y15096668D01*
X20783027Y15094373D01*
X20777134Y15092219D01*
X20771190Y15090208D01*
X20765200Y15088341D01*
X20759166Y15086620D01*
X20753093Y15085045D01*
X20746983Y15083617D01*
X20740841Y15082337D01*
X20734669Y15081206D01*
X20728472Y15080225D01*
X20722253Y15079393D01*
X20716015Y15078712D01*
X20709763Y15078182D01*
X20703500Y15077803D01*
X20697230Y15077576D01*
X20690956Y15077500D01*
X20041847Y15077500D01*
X20035475Y15077578D01*
X20029107Y15077813D01*
X20022746Y15078204D01*
X20016397Y15078750D01*
X20010064Y15079453D01*
X20003749Y15080310D01*
X19997457Y15081323D01*
X19991193Y15082489D01*
X19984958Y15083809D01*
X19978758Y15085281D01*
X19972596Y15086905D01*
X19966476Y15088680D01*
X19960401Y15090605D01*
X19954375Y15092678D01*
X19948402Y15094898D01*
X19942485Y15097264D01*
X19936628Y15099775D01*
X19930834Y15102428D01*
X19925107Y15105223D01*
X19919451Y15108158D01*
X19913868Y15111231D01*
X19908362Y15114440D01*
X19902937Y15117783D01*
X19897595Y15121258D01*
X19892340Y15124863D01*
X19887176Y15128596D01*
X19882104Y15132454D01*
X19877129Y15136436D01*
X19872253Y15140539D01*
X19867479Y15144760D01*
X19862810Y15149097D01*
X19858249Y15153548D01*
X19853798Y15158108D01*
X19849461Y15162777D01*
X19845240Y15167551D01*
X19841137Y15172427D01*
X19837155Y15177402D01*
X19833296Y15182474D01*
X19829563Y15187638D01*
X19825958Y15192893D01*
X19822483Y15198234D01*
X19819140Y15203660D01*
X19815931Y15209165D01*
X19812858Y15214748D01*
X19809923Y15220404D01*
X19807128Y15226131D01*
X19804474Y15231925D01*
X19801963Y15237782D01*
X19799597Y15243699D01*
X19797377Y15249672D01*
X19795304Y15255698D01*
X19793379Y15261773D01*
X19791604Y15267893D01*
X19789980Y15274055D01*
X19788507Y15280255D01*
X19787187Y15286489D01*
X19786021Y15292754D01*
X19785008Y15299046D01*
X19784150Y15305360D01*
X19783448Y15311694D01*
X19782901Y15318043D01*
X19782510Y15324404D01*
X19782275Y15330772D01*
X19782197Y15337144D01*
X19782200Y15337144D02*
X19782200Y15596788D01*
X20950600Y16033319D02*
X20950600Y16357872D01*
X20950504Y16365775D01*
X20950215Y16373674D01*
X20949734Y16381563D01*
X20949061Y16389438D01*
X20948197Y16397295D01*
X20947141Y16405128D01*
X20945895Y16412933D01*
X20944460Y16420705D01*
X20942835Y16428440D01*
X20941023Y16436134D01*
X20939024Y16443780D01*
X20936839Y16451376D01*
X20934470Y16458917D01*
X20931918Y16466397D01*
X20929185Y16473813D01*
X20926271Y16481161D01*
X20923180Y16488435D01*
X20919913Y16495632D01*
X20916471Y16502747D01*
X20912857Y16509776D01*
X20909073Y16516715D01*
X20905121Y16523560D01*
X20901004Y16530307D01*
X20896723Y16536952D01*
X20892282Y16543490D01*
X20887683Y16549918D01*
X20882929Y16556232D01*
X20878022Y16562429D01*
X20872967Y16568504D01*
X20867764Y16574454D01*
X20862419Y16580276D01*
X20856933Y16585966D01*
X20851310Y16591521D01*
X20845554Y16596937D01*
X20839667Y16602212D01*
X20833654Y16607341D01*
X20827517Y16612323D01*
X20821261Y16617153D01*
X20814890Y16621830D01*
X20808406Y16626350D01*
X20801814Y16630711D01*
X20795118Y16634911D01*
X20788322Y16638946D01*
X20781429Y16642814D01*
X20774445Y16646513D01*
X20767372Y16650041D01*
X20760215Y16653396D01*
X20752979Y16656576D01*
X20745668Y16659578D01*
X20738286Y16662402D01*
X20730837Y16665045D01*
X20723326Y16667505D01*
X20715757Y16669783D01*
X20708135Y16671875D01*
X20700464Y16673781D01*
X20692750Y16675499D01*
X20684995Y16677029D01*
X20677206Y16678370D01*
X20669386Y16679521D01*
X20661541Y16680481D01*
X20653675Y16681250D01*
X20645792Y16681827D01*
X20637897Y16682211D01*
X20629996Y16682404D01*
X20622092Y16682404D01*
X20614191Y16682211D01*
X20606296Y16681827D01*
X20598413Y16681250D01*
X20590547Y16680481D01*
X20582702Y16679521D01*
X20574882Y16678370D01*
X20567093Y16677029D01*
X20559338Y16675499D01*
X20551624Y16673781D01*
X20543953Y16671875D01*
X20536331Y16669783D01*
X20528762Y16667505D01*
X20521251Y16665045D01*
X20513802Y16662402D01*
X20506420Y16659578D01*
X20499109Y16656576D01*
X20491873Y16653396D01*
X20484716Y16650041D01*
X20477643Y16646513D01*
X20470659Y16642814D01*
X20463766Y16638946D01*
X20456970Y16634911D01*
X20450274Y16630711D01*
X20443682Y16626350D01*
X20437198Y16621830D01*
X20430827Y16617153D01*
X20424571Y16612323D01*
X20418434Y16607341D01*
X20412421Y16602212D01*
X20406534Y16596937D01*
X20400778Y16591521D01*
X20395155Y16585966D01*
X20389669Y16580276D01*
X20384324Y16574454D01*
X20379121Y16568504D01*
X20374066Y16562429D01*
X20369159Y16556232D01*
X20364405Y16549918D01*
X20359806Y16543490D01*
X20355365Y16536952D01*
X20351084Y16530307D01*
X20346967Y16523560D01*
X20343015Y16516715D01*
X20339231Y16509776D01*
X20335617Y16502747D01*
X20332175Y16495632D01*
X20328908Y16488435D01*
X20325817Y16481161D01*
X20322903Y16473813D01*
X20320170Y16466397D01*
X20317618Y16458917D01*
X20315249Y16451376D01*
X20313064Y16443780D01*
X20311065Y16436134D01*
X20309253Y16428440D01*
X20307628Y16420705D01*
X20306193Y16412933D01*
X20304947Y16405128D01*
X20303891Y16397295D01*
X20303027Y16389438D01*
X20302354Y16381563D01*
X20301873Y16373674D01*
X20301584Y16365775D01*
X20301488Y16357872D01*
X19782200Y16422784D02*
X19782200Y16033319D01*
X19782200Y16422784D02*
X19782277Y16429107D01*
X19782508Y16435425D01*
X19782893Y16441737D01*
X19783431Y16448037D01*
X19784123Y16454322D01*
X19784967Y16460588D01*
X19785964Y16466832D01*
X19787112Y16473050D01*
X19788412Y16479238D01*
X19789862Y16485393D01*
X19791461Y16491510D01*
X19793209Y16497587D01*
X19795104Y16503620D01*
X19797146Y16509604D01*
X19799332Y16515537D01*
X19801663Y16521415D01*
X19804136Y16527234D01*
X19806750Y16532992D01*
X19809503Y16538684D01*
X19812394Y16544307D01*
X19815422Y16549858D01*
X19818583Y16555334D01*
X19821877Y16560732D01*
X19825301Y16566047D01*
X19828854Y16571278D01*
X19832533Y16576420D01*
X19836337Y16581472D01*
X19840262Y16586429D01*
X19844307Y16591289D01*
X19848468Y16596049D01*
X19852745Y16600707D01*
X19857134Y16605259D01*
X19861632Y16609703D01*
X19866237Y16614036D01*
X19870946Y16618255D01*
X19875757Y16622359D01*
X19880666Y16626344D01*
X19885671Y16630208D01*
X19890768Y16633950D01*
X19895955Y16637566D01*
X19901228Y16641055D01*
X19906585Y16644414D01*
X19912022Y16647642D01*
X19917536Y16650737D01*
X19923124Y16653696D01*
X19928782Y16656519D01*
X19934507Y16659203D01*
X19940296Y16661746D01*
X19946145Y16664148D01*
X19952051Y16666407D01*
X19958010Y16668521D01*
X19964019Y16670490D01*
X19970074Y16672312D01*
X19976171Y16673985D01*
X19982308Y16675510D01*
X19988480Y16676885D01*
X19994683Y16678109D01*
X20000914Y16679182D01*
X20007170Y16680102D01*
X20013446Y16680870D01*
X20019740Y16681485D01*
X20026046Y16681947D01*
X20032361Y16682255D01*
X20038682Y16682409D01*
X20045006Y16682409D01*
X20051327Y16682255D01*
X20057642Y16681947D01*
X20063948Y16681485D01*
X20070242Y16680870D01*
X20076518Y16680102D01*
X20082774Y16679182D01*
X20089005Y16678109D01*
X20095208Y16676885D01*
X20101380Y16675510D01*
X20107517Y16673985D01*
X20113614Y16672312D01*
X20119669Y16670490D01*
X20125678Y16668521D01*
X20131637Y16666407D01*
X20137543Y16664148D01*
X20143392Y16661746D01*
X20149181Y16659203D01*
X20154906Y16656519D01*
X20160564Y16653696D01*
X20166152Y16650737D01*
X20171666Y16647642D01*
X20177103Y16644414D01*
X20182460Y16641055D01*
X20187733Y16637566D01*
X20192920Y16633950D01*
X20198017Y16630208D01*
X20203022Y16626344D01*
X20207931Y16622359D01*
X20212742Y16618255D01*
X20217451Y16614036D01*
X20222056Y16609703D01*
X20226554Y16605259D01*
X20230943Y16600707D01*
X20235220Y16596049D01*
X20239381Y16591289D01*
X20243426Y16586429D01*
X20247351Y16581472D01*
X20251155Y16576420D01*
X20254834Y16571278D01*
X20258387Y16566047D01*
X20261811Y16560732D01*
X20265105Y16555334D01*
X20268266Y16549858D01*
X20271294Y16544307D01*
X20274185Y16538684D01*
X20276938Y16532992D01*
X20279552Y16527234D01*
X20282025Y16521415D01*
X20284356Y16515537D01*
X20286542Y16509604D01*
X20288584Y16503620D01*
X20290479Y16497587D01*
X20292227Y16491510D01*
X20293826Y16485393D01*
X20295276Y16479238D01*
X20296576Y16473050D01*
X20297724Y16466832D01*
X20298721Y16460588D01*
X20299565Y16454322D01*
X20300257Y16448037D01*
X20300795Y16441737D01*
X20301180Y16435425D01*
X20301411Y16429107D01*
X20301488Y16422784D01*
X20301491Y16422784D02*
X20301491Y16163141D01*
X26830600Y17140616D02*
X26830600Y17400259D01*
X26830600Y17140616D02*
X26830524Y17134342D01*
X26830297Y17128072D01*
X26829918Y17121809D01*
X26829388Y17115557D01*
X26828707Y17109319D01*
X26827875Y17103100D01*
X26826894Y17096903D01*
X26825763Y17090731D01*
X26824483Y17084589D01*
X26823055Y17078479D01*
X26821480Y17072406D01*
X26819759Y17066372D01*
X26817892Y17060382D01*
X26815881Y17054438D01*
X26813727Y17048545D01*
X26811432Y17042706D01*
X26808996Y17036923D01*
X26806420Y17031202D01*
X26803708Y17025544D01*
X26800859Y17019953D01*
X26797877Y17014433D01*
X26794761Y17008987D01*
X26791515Y17003617D01*
X26788140Y16998328D01*
X26784639Y16993121D01*
X26781012Y16988001D01*
X26777263Y16982970D01*
X26773394Y16978031D01*
X26769406Y16973187D01*
X26765302Y16968440D01*
X26761085Y16963794D01*
X26756757Y16959252D01*
X26752320Y16954815D01*
X26747778Y16950487D01*
X26743132Y16946270D01*
X26738385Y16942166D01*
X26733541Y16938178D01*
X26728602Y16934309D01*
X26723571Y16930560D01*
X26718451Y16926933D01*
X26713244Y16923432D01*
X26707955Y16920057D01*
X26702585Y16916811D01*
X26697139Y16913695D01*
X26691619Y16910713D01*
X26686028Y16907864D01*
X26680370Y16905152D01*
X26674649Y16902576D01*
X26668866Y16900140D01*
X26663027Y16897845D01*
X26657134Y16895691D01*
X26651190Y16893680D01*
X26645200Y16891813D01*
X26639166Y16890092D01*
X26633093Y16888517D01*
X26626983Y16887089D01*
X26620841Y16885809D01*
X26614669Y16884678D01*
X26608472Y16883697D01*
X26602253Y16882865D01*
X26596015Y16882184D01*
X26589763Y16881654D01*
X26583500Y16881275D01*
X26577230Y16881048D01*
X26570956Y16880972D01*
X25921847Y16880972D01*
X25915475Y16881050D01*
X25909107Y16881285D01*
X25902746Y16881676D01*
X25896397Y16882222D01*
X25890064Y16882925D01*
X25883749Y16883782D01*
X25877457Y16884795D01*
X25871193Y16885961D01*
X25864958Y16887281D01*
X25858758Y16888753D01*
X25852596Y16890377D01*
X25846476Y16892152D01*
X25840401Y16894077D01*
X25834375Y16896150D01*
X25828402Y16898370D01*
X25822485Y16900736D01*
X25816628Y16903247D01*
X25810834Y16905900D01*
X25805107Y16908695D01*
X25799451Y16911630D01*
X25793868Y16914703D01*
X25788362Y16917912D01*
X25782937Y16921255D01*
X25777595Y16924730D01*
X25772340Y16928335D01*
X25767176Y16932068D01*
X25762104Y16935926D01*
X25757129Y16939908D01*
X25752253Y16944011D01*
X25747479Y16948232D01*
X25742810Y16952569D01*
X25738249Y16957020D01*
X25733798Y16961580D01*
X25729461Y16966249D01*
X25725240Y16971023D01*
X25721137Y16975899D01*
X25717155Y16980874D01*
X25713296Y16985946D01*
X25709563Y16991110D01*
X25705958Y16996365D01*
X25702483Y17001706D01*
X25699140Y17007132D01*
X25695931Y17012637D01*
X25692858Y17018220D01*
X25689923Y17023876D01*
X25687128Y17029603D01*
X25684474Y17035397D01*
X25681963Y17041254D01*
X25679597Y17047171D01*
X25677377Y17053144D01*
X25675304Y17059170D01*
X25673379Y17065245D01*
X25671604Y17071365D01*
X25669980Y17077527D01*
X25668507Y17083727D01*
X25667187Y17089961D01*
X25666021Y17096226D01*
X25665008Y17102518D01*
X25664150Y17108832D01*
X25663448Y17115166D01*
X25662901Y17121515D01*
X25662510Y17127876D01*
X25662275Y17134244D01*
X25662197Y17140616D01*
X25662200Y17140616D02*
X25662200Y17400259D01*
X26311313Y18096434D02*
X26311313Y18485900D01*
X26311313Y18096434D02*
X26311237Y18090160D01*
X26311010Y18083890D01*
X26310631Y18077627D01*
X26310101Y18071375D01*
X26309420Y18065137D01*
X26308588Y18058918D01*
X26307607Y18052721D01*
X26306476Y18046549D01*
X26305196Y18040407D01*
X26303768Y18034297D01*
X26302193Y18028224D01*
X26300472Y18022190D01*
X26298605Y18016200D01*
X26296594Y18010256D01*
X26294440Y18004363D01*
X26292145Y17998524D01*
X26289709Y17992741D01*
X26287133Y17987020D01*
X26284421Y17981362D01*
X26281572Y17975771D01*
X26278590Y17970251D01*
X26275474Y17964805D01*
X26272228Y17959435D01*
X26268853Y17954146D01*
X26265352Y17948939D01*
X26261725Y17943819D01*
X26257976Y17938788D01*
X26254107Y17933849D01*
X26250119Y17929005D01*
X26246015Y17924258D01*
X26241798Y17919612D01*
X26237470Y17915070D01*
X26233033Y17910633D01*
X26228491Y17906305D01*
X26223845Y17902088D01*
X26219098Y17897984D01*
X26214254Y17893996D01*
X26209315Y17890127D01*
X26204284Y17886378D01*
X26199164Y17882751D01*
X26193957Y17879250D01*
X26188668Y17875875D01*
X26183298Y17872629D01*
X26177852Y17869513D01*
X26172332Y17866531D01*
X26166741Y17863682D01*
X26161083Y17860970D01*
X26155362Y17858394D01*
X26149579Y17855958D01*
X26143740Y17853663D01*
X26137847Y17851509D01*
X26131903Y17849498D01*
X26125913Y17847631D01*
X26119879Y17845910D01*
X26113806Y17844335D01*
X26107696Y17842907D01*
X26101554Y17841627D01*
X26095382Y17840496D01*
X26089185Y17839515D01*
X26082966Y17838683D01*
X26076728Y17838002D01*
X26070476Y17837472D01*
X26064213Y17837093D01*
X26057943Y17836866D01*
X26051669Y17836790D01*
X26051669Y17836791D02*
X25986756Y17836791D01*
X25978853Y17836887D01*
X25970954Y17837176D01*
X25963065Y17837657D01*
X25955190Y17838330D01*
X25947334Y17839194D01*
X25939501Y17840250D01*
X25931696Y17841496D01*
X25923923Y17842931D01*
X25916188Y17844556D01*
X25908495Y17846368D01*
X25900848Y17848367D01*
X25893253Y17850552D01*
X25885712Y17852921D01*
X25878232Y17855473D01*
X25870816Y17858206D01*
X25863468Y17861119D01*
X25856194Y17864211D01*
X25848997Y17867478D01*
X25841882Y17870920D01*
X25834853Y17874534D01*
X25827914Y17878318D01*
X25821069Y17882270D01*
X25814322Y17886387D01*
X25807678Y17890668D01*
X25801140Y17895108D01*
X25794712Y17899707D01*
X25788398Y17904461D01*
X25782201Y17909368D01*
X25776126Y17914424D01*
X25770176Y17919626D01*
X25764354Y17924972D01*
X25758664Y17930457D01*
X25753109Y17936080D01*
X25747693Y17941836D01*
X25742419Y17947723D01*
X25737289Y17953736D01*
X25732308Y17959873D01*
X25727477Y17966128D01*
X25722800Y17972500D01*
X25718280Y17978984D01*
X25713919Y17985575D01*
X25709720Y17992271D01*
X25705685Y17999068D01*
X25701817Y18005960D01*
X25698117Y18012945D01*
X25694589Y18020017D01*
X25691234Y18027174D01*
X25688055Y18034410D01*
X25685052Y18041721D01*
X25682229Y18049103D01*
X25679586Y18056552D01*
X25677125Y18064063D01*
X25674848Y18071632D01*
X25672756Y18079254D01*
X25670850Y18086924D01*
X25669132Y18094639D01*
X25667602Y18102393D01*
X25666261Y18110182D01*
X25665110Y18118002D01*
X25664150Y18125847D01*
X25663381Y18133714D01*
X25662804Y18141596D01*
X25662420Y18149491D01*
X25662227Y18157392D01*
X25662227Y18165296D01*
X25662420Y18173197D01*
X25662804Y18181092D01*
X25663381Y18188974D01*
X25664150Y18196841D01*
X25665110Y18204686D01*
X25666261Y18212506D01*
X25667602Y18220295D01*
X25669132Y18228049D01*
X25670850Y18235764D01*
X25672756Y18243434D01*
X25674848Y18251056D01*
X25677125Y18258625D01*
X25679586Y18266136D01*
X25682229Y18273585D01*
X25685052Y18280967D01*
X25688055Y18288278D01*
X25691234Y18295514D01*
X25694589Y18302671D01*
X25698117Y18309743D01*
X25701817Y18316728D01*
X25705685Y18323621D01*
X25709720Y18330417D01*
X25713919Y18337113D01*
X25718280Y18343704D01*
X25722800Y18350188D01*
X25727477Y18356560D01*
X25732308Y18362815D01*
X25737289Y18368952D01*
X25742419Y18374965D01*
X25747693Y18380852D01*
X25753109Y18386608D01*
X25758664Y18392231D01*
X25764354Y18397716D01*
X25770176Y18403062D01*
X25776126Y18408264D01*
X25782201Y18413320D01*
X25788398Y18418227D01*
X25794712Y18422981D01*
X25801140Y18427580D01*
X25807678Y18432020D01*
X25814322Y18436301D01*
X25821069Y18440418D01*
X25827914Y18444370D01*
X25834853Y18448154D01*
X25841882Y18451768D01*
X25848997Y18455210D01*
X25856194Y18458477D01*
X25863468Y18461569D01*
X25870816Y18464482D01*
X25878232Y18467215D01*
X25885712Y18469767D01*
X25893253Y18472136D01*
X25900848Y18474321D01*
X25908495Y18476320D01*
X25916188Y18478132D01*
X25923923Y18479757D01*
X25931696Y18481192D01*
X25939501Y18482438D01*
X25947334Y18483494D01*
X25955190Y18484358D01*
X25963065Y18485031D01*
X25970954Y18485512D01*
X25978853Y18485801D01*
X25986756Y18485897D01*
X25986756Y18485900D02*
X26311313Y18485900D01*
X26311313Y18485901D02*
X26323861Y18485749D01*
X26336402Y18485295D01*
X26348928Y18484537D01*
X26361432Y18483477D01*
X26373906Y18482115D01*
X26386344Y18480452D01*
X26398739Y18478489D01*
X26411082Y18476227D01*
X26423367Y18473667D01*
X26435587Y18470811D01*
X26447734Y18467661D01*
X26459801Y18464219D01*
X26471782Y18460485D01*
X26483669Y18456464D01*
X26495455Y18452156D01*
X26507134Y18447564D01*
X26518698Y18442692D01*
X26530142Y18437542D01*
X26541457Y18432117D01*
X26552638Y18426420D01*
X26563678Y18420454D01*
X26574571Y18414224D01*
X26585310Y18407732D01*
X26595889Y18400982D01*
X26606302Y18393979D01*
X26616543Y18386726D01*
X26626605Y18379228D01*
X26636483Y18371489D01*
X26646172Y18363513D01*
X26655665Y18355306D01*
X26664956Y18346871D01*
X26674042Y18338215D01*
X26682915Y18329342D01*
X26691571Y18320256D01*
X26700006Y18310965D01*
X26708213Y18301472D01*
X26716189Y18291783D01*
X26723928Y18281905D01*
X26731426Y18271843D01*
X26738679Y18261602D01*
X26745682Y18251189D01*
X26752432Y18240610D01*
X26758924Y18229871D01*
X26765154Y18218978D01*
X26771120Y18207938D01*
X26776817Y18196757D01*
X26782242Y18185442D01*
X26787392Y18173998D01*
X26792264Y18162434D01*
X26796856Y18150755D01*
X26801164Y18138969D01*
X26805185Y18127082D01*
X26808919Y18115101D01*
X26812361Y18103034D01*
X26815511Y18090887D01*
X26818367Y18078667D01*
X26820927Y18066382D01*
X26823189Y18054039D01*
X26825152Y18041644D01*
X26826815Y18029206D01*
X26828177Y18016732D01*
X26829237Y18004228D01*
X26829995Y17991702D01*
X26830449Y17979161D01*
X26830601Y17966613D01*
D11*
X26531400Y1781700D02*
X23991400Y1781700D01*
X23991400Y-758300D01*
X26531400Y-758300D01*
X26531400Y1781700D01*
D12*
X25261400Y-1393300D02*
X25261400Y-7108300D01*
D11*
X23991400Y1781700D02*
X21451400Y1781700D01*
X21451400Y-758300D01*
X23991400Y-758300D01*
D12*
X22721400Y-1393300D02*
X22721400Y-7108300D01*
D11*
X21451400Y1781700D02*
X18911400Y1781700D01*
X18911400Y-758300D01*
X21451400Y-758300D01*
D12*
X20181400Y-1393300D02*
X20181400Y-7108300D01*
D11*
X18911400Y1781700D02*
X16371400Y1781700D01*
X16371400Y-758300D01*
X18911400Y-758300D01*
D12*
X17641400Y-1393300D02*
X17641400Y-7108300D01*
D13*
X25261400Y-1012300D03*
X22721400Y-1012300D03*
X20181400Y-1012300D03*
X17641400Y-1012300D03*
D14*
X25261400Y2289700D03*
X22721400Y2289700D03*
X20181400Y2289700D03*
X17641400Y2289700D03*
D15*
X27229900Y1304331D02*
X28118900Y1304331D01*
X28125038Y1304257D01*
X28131172Y1304034D01*
X28137298Y1303664D01*
X28143415Y1303145D01*
X28149516Y1302479D01*
X28155600Y1301666D01*
X28161663Y1300705D01*
X28167700Y1299599D01*
X28173709Y1298347D01*
X28179686Y1296950D01*
X28185628Y1295409D01*
X28191530Y1293725D01*
X28197390Y1291899D01*
X28203205Y1289932D01*
X28208970Y1287825D01*
X28214682Y1285579D01*
X28220339Y1283196D01*
X28225936Y1280677D01*
X28231471Y1278023D01*
X28236940Y1275237D01*
X28242340Y1272319D01*
X28247668Y1269271D01*
X28252921Y1266096D01*
X28258095Y1262794D01*
X28263188Y1259369D01*
X28268197Y1255821D01*
X28273119Y1252154D01*
X28277951Y1248368D01*
X28282690Y1244467D01*
X28287333Y1240453D01*
X28291878Y1236327D01*
X28296322Y1232093D01*
X28300662Y1227753D01*
X28304896Y1223309D01*
X28309022Y1218764D01*
X28313036Y1214121D01*
X28316937Y1209382D01*
X28320723Y1204550D01*
X28324390Y1199628D01*
X28327938Y1194619D01*
X28331363Y1189526D01*
X28334665Y1184352D01*
X28337840Y1179099D01*
X28340888Y1173771D01*
X28343806Y1168371D01*
X28346592Y1162902D01*
X28349246Y1157367D01*
X28351765Y1151770D01*
X28354148Y1146113D01*
X28356394Y1140401D01*
X28358501Y1134636D01*
X28360468Y1128821D01*
X28362294Y1122961D01*
X28363978Y1117059D01*
X28365519Y1111117D01*
X28366916Y1105140D01*
X28368168Y1099131D01*
X28369274Y1093094D01*
X28370235Y1087031D01*
X28371048Y1080947D01*
X28371714Y1074846D01*
X28372233Y1068729D01*
X28372603Y1062603D01*
X28372826Y1056469D01*
X28372900Y1050331D01*
X28372900Y923331D01*
X28372900Y1902350D02*
X27229900Y1902350D01*
X27229900Y2219850D01*
X27229994Y2227581D01*
X27230277Y2235308D01*
X27230747Y2243026D01*
X27231405Y2250730D01*
X27232251Y2258416D01*
X27233283Y2266078D01*
X27234502Y2273714D01*
X27235907Y2281317D01*
X27237496Y2288884D01*
X27239269Y2296410D01*
X27241225Y2303891D01*
X27243362Y2311321D01*
X27245679Y2318698D01*
X27248176Y2326016D01*
X27250850Y2333271D01*
X27253700Y2340458D01*
X27256724Y2347575D01*
X27259920Y2354615D01*
X27263287Y2361575D01*
X27266823Y2368452D01*
X27270524Y2375240D01*
X27274390Y2381936D01*
X27278418Y2388536D01*
X27282606Y2395036D01*
X27286950Y2401432D01*
X27291449Y2407721D01*
X27296100Y2413898D01*
X27300900Y2419960D01*
X27305846Y2425903D01*
X27310935Y2431724D01*
X27316164Y2437419D01*
X27321531Y2442985D01*
X27327031Y2448419D01*
X27332663Y2453718D01*
X27338421Y2458877D01*
X27344304Y2463895D01*
X27350307Y2468769D01*
X27356427Y2473494D01*
X27362660Y2478069D01*
X27369002Y2482492D01*
X27375451Y2486758D01*
X27382001Y2490866D01*
X27388650Y2494813D01*
X27395393Y2498597D01*
X27402226Y2502216D01*
X27409145Y2505668D01*
X27416145Y2508949D01*
X27423224Y2512060D01*
X27430377Y2514997D01*
X27437599Y2517759D01*
X27444885Y2520345D01*
X27452233Y2522752D01*
X27459637Y2524979D01*
X27467094Y2527026D01*
X27474598Y2528891D01*
X27482145Y2530572D01*
X27489730Y2532069D01*
X27497350Y2533380D01*
X27505000Y2534506D01*
X27512675Y2535445D01*
X27520370Y2536197D01*
X27528081Y2536762D01*
X27535804Y2537138D01*
X27543534Y2537326D01*
X27551266Y2537326D01*
X27558996Y2537138D01*
X27566719Y2536762D01*
X27574430Y2536197D01*
X27582125Y2535445D01*
X27589800Y2534506D01*
X27597450Y2533380D01*
X27605070Y2532069D01*
X27612655Y2530572D01*
X27620202Y2528891D01*
X27627706Y2527026D01*
X27635163Y2524979D01*
X27642567Y2522752D01*
X27649915Y2520345D01*
X27657201Y2517759D01*
X27664423Y2514997D01*
X27671576Y2512060D01*
X27678655Y2508949D01*
X27685655Y2505668D01*
X27692574Y2502216D01*
X27699407Y2498597D01*
X27706150Y2494813D01*
X27712799Y2490866D01*
X27719349Y2486758D01*
X27725798Y2482492D01*
X27732140Y2478069D01*
X27738373Y2473494D01*
X27744493Y2468769D01*
X27750496Y2463895D01*
X27756379Y2458877D01*
X27762137Y2453718D01*
X27767769Y2448419D01*
X27773269Y2442985D01*
X27778636Y2437419D01*
X27783865Y2431724D01*
X27788954Y2425903D01*
X27793900Y2419960D01*
X27798700Y2413898D01*
X27803351Y2407721D01*
X27807850Y2401432D01*
X27812194Y2395036D01*
X27816382Y2388536D01*
X27820410Y2381936D01*
X27824276Y2375240D01*
X27827977Y2368452D01*
X27831513Y2361575D01*
X27834880Y2354615D01*
X27838076Y2347575D01*
X27841100Y2340458D01*
X27843950Y2333271D01*
X27846624Y2326016D01*
X27849121Y2318698D01*
X27851438Y2311321D01*
X27853575Y2303891D01*
X27855531Y2296410D01*
X27857304Y2288884D01*
X27858893Y2281317D01*
X27860298Y2273714D01*
X27861517Y2266078D01*
X27862549Y2258416D01*
X27863395Y2250730D01*
X27864053Y2243026D01*
X27864523Y2235308D01*
X27864806Y2227581D01*
X27864900Y2219850D01*
X27864900Y1902350D01*
X27483900Y2988200D02*
X27229900Y3305700D01*
X28372900Y3305700D01*
X28372900Y2988200D02*
X28372900Y3623200D01*
D16*
X25141400Y11616700D03*
X25141400Y12816700D03*
D17*
X25141400Y12216700D03*
D10*
X22701453Y10895900D02*
X22701453Y9727500D01*
X23220741Y9727500D01*
X23692053Y9727500D02*
X24211341Y9727500D01*
X23692053Y9727500D02*
X23692053Y10895900D01*
X24211341Y10895900D01*
X24081519Y10376609D02*
X23692053Y10376609D01*
X24680394Y10895900D02*
X24680394Y9727500D01*
X24680394Y10895900D02*
X25004947Y10895900D01*
X25012789Y10895805D01*
X25020627Y10895521D01*
X25028456Y10895047D01*
X25036271Y10894385D01*
X25044068Y10893534D01*
X25051842Y10892494D01*
X25059588Y10891267D01*
X25067303Y10889854D01*
X25074981Y10888254D01*
X25082618Y10886469D01*
X25090210Y10884500D01*
X25097752Y10882348D01*
X25105240Y10880015D01*
X25112670Y10877502D01*
X25120036Y10874809D01*
X25127335Y10871940D01*
X25134563Y10868894D01*
X25141715Y10865676D01*
X25148787Y10862285D01*
X25155776Y10858724D01*
X25162676Y10854996D01*
X25169484Y10851101D01*
X25176196Y10847044D01*
X25182808Y10842825D01*
X25189316Y10838448D01*
X25195716Y10833915D01*
X25202005Y10829229D01*
X25208179Y10824392D01*
X25214234Y10819407D01*
X25220167Y10814278D01*
X25225975Y10809006D01*
X25231653Y10803596D01*
X25237199Y10798050D01*
X25242609Y10792372D01*
X25247881Y10786564D01*
X25253010Y10780631D01*
X25257995Y10774576D01*
X25262832Y10768402D01*
X25267518Y10762113D01*
X25272051Y10755713D01*
X25276428Y10749205D01*
X25280647Y10742593D01*
X25284704Y10735881D01*
X25288599Y10729073D01*
X25292327Y10722173D01*
X25295888Y10715184D01*
X25299279Y10708112D01*
X25302497Y10700960D01*
X25305543Y10693732D01*
X25308412Y10686433D01*
X25311105Y10679067D01*
X25313618Y10671637D01*
X25315951Y10664149D01*
X25318103Y10656607D01*
X25320072Y10649015D01*
X25321857Y10641378D01*
X25323457Y10633700D01*
X25324870Y10625985D01*
X25326097Y10618239D01*
X25327137Y10610465D01*
X25327988Y10602668D01*
X25328650Y10594853D01*
X25329124Y10587024D01*
X25329408Y10579186D01*
X25329503Y10571344D01*
X25329503Y10052053D01*
X25329408Y10044211D01*
X25329124Y10036373D01*
X25328650Y10028544D01*
X25327988Y10020729D01*
X25327137Y10012932D01*
X25326097Y10005158D01*
X25324870Y9997412D01*
X25323457Y9989697D01*
X25321857Y9982019D01*
X25320072Y9974382D01*
X25318103Y9966790D01*
X25315951Y9959248D01*
X25313618Y9951760D01*
X25311104Y9944331D01*
X25308412Y9936964D01*
X25305542Y9929665D01*
X25302497Y9922437D01*
X25299278Y9915285D01*
X25295888Y9908213D01*
X25292327Y9901225D01*
X25288598Y9894325D01*
X25284704Y9887517D01*
X25280647Y9880805D01*
X25276428Y9874193D01*
X25272051Y9867685D01*
X25267518Y9861285D01*
X25262832Y9854996D01*
X25257995Y9848822D01*
X25253010Y9842766D01*
X25247880Y9836833D01*
X25242609Y9831026D01*
X25237199Y9825348D01*
X25231653Y9819802D01*
X25225975Y9814392D01*
X25220167Y9809120D01*
X25214234Y9803991D01*
X25208179Y9799006D01*
X25202005Y9794169D01*
X25195716Y9789483D01*
X25189316Y9784950D01*
X25182807Y9780573D01*
X25176196Y9776355D01*
X25169484Y9772297D01*
X25162676Y9768403D01*
X25155775Y9764675D01*
X25148787Y9761114D01*
X25141715Y9757723D01*
X25134563Y9754504D01*
X25127335Y9751459D01*
X25120036Y9748590D01*
X25112669Y9745898D01*
X25105240Y9743384D01*
X25097752Y9741051D01*
X25090210Y9738899D01*
X25082618Y9736930D01*
X25074981Y9735146D01*
X25067303Y9733546D01*
X25059588Y9732132D01*
X25051842Y9730905D01*
X25044068Y9729866D01*
X25036271Y9729015D01*
X25028456Y9728352D01*
X25020627Y9727879D01*
X25012789Y9727595D01*
X25004947Y9727500D01*
X24680394Y9727500D01*
X25861491Y10636253D02*
X26186044Y10895900D01*
X26186044Y9727500D01*
X25861491Y9727500D02*
X26510600Y9727500D01*
D18*
X30171400Y40936700D03*
X28971400Y40936700D03*
D17*
X29571400Y40936700D03*
D10*
X30892200Y38496753D02*
X32060600Y38496753D01*
X32060600Y39016041D01*
X32060600Y39487353D02*
X32060600Y40006641D01*
X32060600Y39487353D02*
X30892200Y39487353D01*
X30892200Y40006641D01*
X31411491Y39876819D02*
X31411491Y39487353D01*
X30892200Y40475694D02*
X32060600Y40475694D01*
X30892200Y40475694D02*
X30892200Y40800247D01*
X30892295Y40808089D01*
X30892579Y40815927D01*
X30893053Y40823756D01*
X30893715Y40831571D01*
X30894566Y40839368D01*
X30895606Y40847142D01*
X30896833Y40854888D01*
X30898246Y40862603D01*
X30899846Y40870281D01*
X30901631Y40877918D01*
X30903600Y40885510D01*
X30905752Y40893052D01*
X30908085Y40900540D01*
X30910598Y40907970D01*
X30913291Y40915336D01*
X30916160Y40922635D01*
X30919206Y40929863D01*
X30922424Y40937015D01*
X30925815Y40944087D01*
X30929376Y40951076D01*
X30933104Y40957976D01*
X30936999Y40964784D01*
X30941056Y40971496D01*
X30945275Y40978108D01*
X30949652Y40984616D01*
X30954185Y40991016D01*
X30958871Y40997305D01*
X30963708Y41003479D01*
X30968693Y41009534D01*
X30973822Y41015467D01*
X30979094Y41021275D01*
X30984504Y41026953D01*
X30990050Y41032499D01*
X30995728Y41037909D01*
X31001536Y41043181D01*
X31007469Y41048310D01*
X31013524Y41053295D01*
X31019698Y41058132D01*
X31025987Y41062818D01*
X31032387Y41067351D01*
X31038895Y41071728D01*
X31045507Y41075947D01*
X31052219Y41080004D01*
X31059027Y41083899D01*
X31065927Y41087627D01*
X31072916Y41091188D01*
X31079988Y41094579D01*
X31087140Y41097797D01*
X31094368Y41100843D01*
X31101667Y41103712D01*
X31109033Y41106405D01*
X31116463Y41108918D01*
X31123951Y41111251D01*
X31131493Y41113403D01*
X31139085Y41115372D01*
X31146722Y41117157D01*
X31154400Y41118757D01*
X31162115Y41120170D01*
X31169861Y41121397D01*
X31177635Y41122437D01*
X31185432Y41123288D01*
X31193247Y41123950D01*
X31201076Y41124424D01*
X31208914Y41124708D01*
X31216756Y41124803D01*
X31736047Y41124803D01*
X31743889Y41124708D01*
X31751727Y41124424D01*
X31759556Y41123950D01*
X31767371Y41123288D01*
X31775168Y41122437D01*
X31782942Y41121397D01*
X31790688Y41120170D01*
X31798403Y41118757D01*
X31806081Y41117157D01*
X31813718Y41115372D01*
X31821310Y41113403D01*
X31828852Y41111251D01*
X31836340Y41108918D01*
X31843769Y41106404D01*
X31851136Y41103712D01*
X31858435Y41100842D01*
X31865663Y41097797D01*
X31872815Y41094578D01*
X31879887Y41091188D01*
X31886875Y41087627D01*
X31893775Y41083898D01*
X31900583Y41080004D01*
X31907295Y41075947D01*
X31913907Y41071728D01*
X31920415Y41067351D01*
X31926815Y41062818D01*
X31933104Y41058132D01*
X31939278Y41053295D01*
X31945334Y41048310D01*
X31951267Y41043180D01*
X31957074Y41037909D01*
X31962752Y41032499D01*
X31968298Y41026953D01*
X31973708Y41021275D01*
X31978980Y41015467D01*
X31984109Y41009534D01*
X31989094Y41003479D01*
X31993931Y40997305D01*
X31998617Y40991016D01*
X32003150Y40984616D01*
X32007527Y40978107D01*
X32011745Y40971496D01*
X32015803Y40964784D01*
X32019697Y40957976D01*
X32023425Y40951075D01*
X32026986Y40944087D01*
X32030377Y40937015D01*
X32033596Y40929863D01*
X32036641Y40922635D01*
X32039510Y40915336D01*
X32042202Y40907969D01*
X32044716Y40900540D01*
X32047049Y40893052D01*
X32049201Y40885510D01*
X32051170Y40877918D01*
X32052954Y40870281D01*
X32054554Y40862603D01*
X32055968Y40854888D01*
X32057195Y40847142D01*
X32058234Y40839368D01*
X32059085Y40831571D01*
X32059748Y40823756D01*
X32060221Y40815927D01*
X32060505Y40808089D01*
X32060600Y40800247D01*
X32060600Y40475694D01*
X30892200Y42013800D02*
X30892285Y42020858D01*
X30892541Y42027912D01*
X30892967Y42034958D01*
X30893564Y42041992D01*
X30894330Y42049009D01*
X30895265Y42056005D01*
X30896369Y42062977D01*
X30897642Y42069920D01*
X30899082Y42076831D01*
X30900688Y42083704D01*
X30902460Y42090537D01*
X30904396Y42097325D01*
X30906496Y42104064D01*
X30908759Y42110750D01*
X30911182Y42117380D01*
X30913764Y42123949D01*
X30916505Y42130454D01*
X30919402Y42136891D01*
X30922454Y42143256D01*
X30925658Y42149546D01*
X30929014Y42155756D01*
X30932519Y42161883D01*
X30936170Y42167924D01*
X30939967Y42173874D01*
X30943906Y42179732D01*
X30947986Y42185492D01*
X30952204Y42191152D01*
X30956557Y42196709D01*
X30961043Y42202158D01*
X30965660Y42207498D01*
X30970404Y42212725D01*
X30975274Y42217835D01*
X30980265Y42222826D01*
X30985375Y42227696D01*
X30990602Y42232440D01*
X30995942Y42237057D01*
X31001391Y42241543D01*
X31006948Y42245896D01*
X31012608Y42250114D01*
X31018368Y42254194D01*
X31024226Y42258133D01*
X31030176Y42261930D01*
X31036217Y42265581D01*
X31042344Y42269086D01*
X31048554Y42272442D01*
X31054844Y42275646D01*
X31061209Y42278698D01*
X31067646Y42281595D01*
X31074151Y42284336D01*
X31080720Y42286918D01*
X31087350Y42289341D01*
X31094036Y42291604D01*
X31100775Y42293704D01*
X31107563Y42295640D01*
X31114396Y42297412D01*
X31121269Y42299018D01*
X31128180Y42300458D01*
X31135123Y42301731D01*
X31142095Y42302835D01*
X31149091Y42303770D01*
X31156108Y42304536D01*
X31163142Y42305133D01*
X31170188Y42305559D01*
X31177242Y42305815D01*
X31184300Y42305900D01*
X30892200Y42013800D02*
X30892310Y42004725D01*
X30892639Y41995656D01*
X30893187Y41986597D01*
X30893955Y41977554D01*
X30894940Y41968532D01*
X30896144Y41959537D01*
X30897565Y41950573D01*
X30899202Y41941647D01*
X30901054Y41932762D01*
X30903121Y41923925D01*
X30905401Y41915141D01*
X30907893Y41906414D01*
X30910595Y41897750D01*
X30913506Y41889154D01*
X30916623Y41880631D01*
X30919946Y41872186D01*
X30923472Y41863824D01*
X30927200Y41855549D01*
X30931126Y41847367D01*
X30935249Y41839282D01*
X30939567Y41831299D01*
X30944076Y41823423D01*
X30948774Y41815659D01*
X30953659Y41808010D01*
X30958727Y41800481D01*
X30963976Y41793078D01*
X30969402Y41785803D01*
X30975003Y41778662D01*
X30980775Y41771658D01*
X30986714Y41764796D01*
X30992817Y41758080D01*
X30999082Y41751513D01*
X31005503Y41745100D01*
X31012077Y41738843D01*
X31018801Y41732748D01*
X31025670Y41726817D01*
X31032681Y41721054D01*
X31039829Y41715461D01*
X31047110Y41710044D01*
X31054520Y41704804D01*
X31062054Y41699745D01*
X31069709Y41694869D01*
X31077479Y41690180D01*
X31085361Y41685681D01*
X31093349Y41681373D01*
X31101438Y41677260D01*
X31109625Y41673343D01*
X31117904Y41669626D01*
X31126271Y41666110D01*
X31134720Y41662797D01*
X31143247Y41659689D01*
X31151847Y41656789D01*
X31411490Y42208534D02*
X31406113Y42214043D01*
X31400602Y42219419D01*
X31394961Y42224657D01*
X31389193Y42229756D01*
X31383301Y42234712D01*
X31377290Y42239522D01*
X31371163Y42244182D01*
X31364923Y42248691D01*
X31358574Y42253046D01*
X31352120Y42257244D01*
X31345565Y42261281D01*
X31338914Y42265157D01*
X31332169Y42268869D01*
X31325335Y42272413D01*
X31318416Y42275790D01*
X31311416Y42278995D01*
X31304340Y42282028D01*
X31297192Y42284886D01*
X31289975Y42287567D01*
X31282695Y42290071D01*
X31275356Y42292396D01*
X31267962Y42294540D01*
X31260518Y42296501D01*
X31253027Y42298280D01*
X31245496Y42299874D01*
X31237927Y42301283D01*
X31230326Y42302506D01*
X31222697Y42303541D01*
X31215046Y42304390D01*
X31207376Y42305050D01*
X31199691Y42305522D01*
X31191998Y42305806D01*
X31184300Y42305900D01*
X31411491Y42208534D02*
X32060600Y41656791D01*
X32060600Y42305900D01*
X18580600Y11166156D02*
X17412200Y11166156D01*
X17412200Y11490709D01*
X17412296Y11498612D01*
X17412585Y11506511D01*
X17413066Y11514400D01*
X17413739Y11522275D01*
X17414603Y11530132D01*
X17415659Y11537965D01*
X17416905Y11545770D01*
X17418340Y11553542D01*
X17419965Y11561277D01*
X17421777Y11568971D01*
X17423776Y11576617D01*
X17425961Y11584213D01*
X17428330Y11591754D01*
X17430882Y11599234D01*
X17433615Y11606650D01*
X17436529Y11613998D01*
X17439620Y11621272D01*
X17442887Y11628469D01*
X17446329Y11635584D01*
X17449943Y11642613D01*
X17453727Y11649552D01*
X17457679Y11656397D01*
X17461796Y11663144D01*
X17466077Y11669789D01*
X17470518Y11676327D01*
X17475117Y11682755D01*
X17479871Y11689069D01*
X17484778Y11695266D01*
X17489833Y11701341D01*
X17495036Y11707291D01*
X17500381Y11713113D01*
X17505867Y11718803D01*
X17511490Y11724358D01*
X17517246Y11729774D01*
X17523133Y11735049D01*
X17529146Y11740178D01*
X17535283Y11745160D01*
X17541539Y11749990D01*
X17547910Y11754667D01*
X17554394Y11759187D01*
X17560986Y11763548D01*
X17567682Y11767748D01*
X17574478Y11771783D01*
X17581371Y11775651D01*
X17588355Y11779350D01*
X17595428Y11782878D01*
X17602585Y11786233D01*
X17609821Y11789413D01*
X17617132Y11792415D01*
X17624514Y11795239D01*
X17631963Y11797882D01*
X17639474Y11800342D01*
X17647043Y11802620D01*
X17654665Y11804712D01*
X17662336Y11806618D01*
X17670050Y11808336D01*
X17677805Y11809866D01*
X17685594Y11811207D01*
X17693414Y11812358D01*
X17701259Y11813318D01*
X17709125Y11814087D01*
X17717008Y11814664D01*
X17724903Y11815048D01*
X17732804Y11815241D01*
X17740708Y11815241D01*
X17748609Y11815048D01*
X17756504Y11814664D01*
X17764387Y11814087D01*
X17772253Y11813318D01*
X17780098Y11812358D01*
X17787918Y11811207D01*
X17795707Y11809866D01*
X17803462Y11808336D01*
X17811176Y11806618D01*
X17818847Y11804712D01*
X17826469Y11802620D01*
X17834038Y11800342D01*
X17841549Y11797882D01*
X17848998Y11795239D01*
X17856380Y11792415D01*
X17863691Y11789413D01*
X17870927Y11786233D01*
X17878084Y11782878D01*
X17885157Y11779350D01*
X17892141Y11775651D01*
X17899034Y11771783D01*
X17905830Y11767748D01*
X17912526Y11763548D01*
X17919118Y11759187D01*
X17925602Y11754667D01*
X17931973Y11749990D01*
X17938229Y11745160D01*
X17944366Y11740178D01*
X17950379Y11735049D01*
X17956266Y11729774D01*
X17962022Y11724358D01*
X17967645Y11718803D01*
X17973131Y11713113D01*
X17978476Y11707291D01*
X17983679Y11701341D01*
X17988734Y11695266D01*
X17993641Y11689069D01*
X17998395Y11682755D01*
X18002994Y11676327D01*
X18007435Y11669789D01*
X18011716Y11663144D01*
X18015833Y11656397D01*
X18019785Y11649552D01*
X18023569Y11642613D01*
X18027183Y11635584D01*
X18030625Y11628469D01*
X18033892Y11621272D01*
X18036983Y11613998D01*
X18039897Y11606650D01*
X18042630Y11599234D01*
X18045182Y11591754D01*
X18047551Y11584213D01*
X18049736Y11576617D01*
X18051735Y11568971D01*
X18053547Y11561277D01*
X18055172Y11553542D01*
X18056607Y11545770D01*
X18057853Y11537965D01*
X18058909Y11530132D01*
X18059773Y11522275D01*
X18060446Y11514400D01*
X18060927Y11506511D01*
X18061216Y11498612D01*
X18061312Y11490709D01*
X18061313Y11490709D02*
X18061313Y11166156D01*
X18061313Y11555622D02*
X18580600Y11815266D01*
X17671847Y12301791D02*
X17412200Y12626344D01*
X18580600Y12626344D01*
X18580600Y12301791D02*
X18580600Y12950900D01*
X25022200Y40192500D02*
X26190600Y40192500D01*
X25022200Y40192500D02*
X25022200Y40517053D01*
X25022296Y40524956D01*
X25022585Y40532855D01*
X25023066Y40540744D01*
X25023739Y40548619D01*
X25024603Y40556476D01*
X25025659Y40564309D01*
X25026905Y40572114D01*
X25028340Y40579886D01*
X25029965Y40587621D01*
X25031777Y40595315D01*
X25033776Y40602961D01*
X25035961Y40610557D01*
X25038330Y40618098D01*
X25040882Y40625578D01*
X25043615Y40632994D01*
X25046529Y40640342D01*
X25049620Y40647616D01*
X25052887Y40654813D01*
X25056329Y40661928D01*
X25059943Y40668957D01*
X25063727Y40675896D01*
X25067679Y40682741D01*
X25071796Y40689488D01*
X25076077Y40696133D01*
X25080518Y40702671D01*
X25085117Y40709099D01*
X25089871Y40715413D01*
X25094778Y40721610D01*
X25099833Y40727685D01*
X25105036Y40733635D01*
X25110381Y40739457D01*
X25115867Y40745147D01*
X25121490Y40750702D01*
X25127246Y40756118D01*
X25133133Y40761393D01*
X25139146Y40766522D01*
X25145283Y40771504D01*
X25151539Y40776334D01*
X25157910Y40781011D01*
X25164394Y40785531D01*
X25170986Y40789892D01*
X25177682Y40794092D01*
X25184478Y40798127D01*
X25191371Y40801995D01*
X25198355Y40805694D01*
X25205428Y40809222D01*
X25212585Y40812577D01*
X25219821Y40815757D01*
X25227132Y40818759D01*
X25234514Y40821583D01*
X25241963Y40824226D01*
X25249474Y40826686D01*
X25257043Y40828964D01*
X25264665Y40831056D01*
X25272336Y40832962D01*
X25280050Y40834680D01*
X25287805Y40836210D01*
X25295594Y40837551D01*
X25303414Y40838702D01*
X25311259Y40839662D01*
X25319125Y40840431D01*
X25327008Y40841008D01*
X25334903Y40841392D01*
X25342804Y40841585D01*
X25350708Y40841585D01*
X25358609Y40841392D01*
X25366504Y40841008D01*
X25374387Y40840431D01*
X25382253Y40839662D01*
X25390098Y40838702D01*
X25397918Y40837551D01*
X25405707Y40836210D01*
X25413462Y40834680D01*
X25421176Y40832962D01*
X25428847Y40831056D01*
X25436469Y40828964D01*
X25444038Y40826686D01*
X25451549Y40824226D01*
X25458998Y40821583D01*
X25466380Y40818759D01*
X25473691Y40815757D01*
X25480927Y40812577D01*
X25488084Y40809222D01*
X25495157Y40805694D01*
X25502141Y40801995D01*
X25509034Y40798127D01*
X25515830Y40794092D01*
X25522526Y40789892D01*
X25529118Y40785531D01*
X25535602Y40781011D01*
X25541973Y40776334D01*
X25548229Y40771504D01*
X25554366Y40766522D01*
X25560379Y40761393D01*
X25566266Y40756118D01*
X25572022Y40750702D01*
X25577645Y40745147D01*
X25583131Y40739457D01*
X25588476Y40733635D01*
X25593679Y40727685D01*
X25598734Y40721610D01*
X25603641Y40715413D01*
X25608395Y40709099D01*
X25612994Y40702671D01*
X25617435Y40696133D01*
X25621716Y40689488D01*
X25625833Y40682741D01*
X25629785Y40675896D01*
X25633569Y40668957D01*
X25637183Y40661928D01*
X25640625Y40654813D01*
X25643892Y40647616D01*
X25646983Y40640342D01*
X25649897Y40632994D01*
X25652630Y40625578D01*
X25655182Y40618098D01*
X25657551Y40610557D01*
X25659736Y40602961D01*
X25661735Y40595315D01*
X25663547Y40587621D01*
X25665172Y40579886D01*
X25666607Y40572114D01*
X25667853Y40564309D01*
X25668909Y40556476D01*
X25669773Y40548619D01*
X25670446Y40540744D01*
X25670927Y40532855D01*
X25671216Y40524956D01*
X25671312Y40517053D01*
X25671313Y40517053D02*
X25671313Y40192500D01*
X25671313Y40581966D02*
X26190600Y40841609D01*
X25314300Y41977244D02*
X25307242Y41977159D01*
X25300188Y41976903D01*
X25293142Y41976477D01*
X25286108Y41975880D01*
X25279091Y41975114D01*
X25272095Y41974179D01*
X25265123Y41973075D01*
X25258180Y41971802D01*
X25251269Y41970362D01*
X25244396Y41968756D01*
X25237563Y41966984D01*
X25230775Y41965048D01*
X25224036Y41962948D01*
X25217350Y41960685D01*
X25210720Y41958262D01*
X25204151Y41955680D01*
X25197646Y41952939D01*
X25191209Y41950042D01*
X25184844Y41946990D01*
X25178554Y41943786D01*
X25172344Y41940430D01*
X25166217Y41936925D01*
X25160176Y41933274D01*
X25154226Y41929477D01*
X25148368Y41925538D01*
X25142608Y41921458D01*
X25136948Y41917240D01*
X25131391Y41912887D01*
X25125942Y41908401D01*
X25120602Y41903784D01*
X25115375Y41899040D01*
X25110265Y41894170D01*
X25105274Y41889179D01*
X25100404Y41884069D01*
X25095660Y41878842D01*
X25091043Y41873502D01*
X25086557Y41868053D01*
X25082204Y41862496D01*
X25077986Y41856836D01*
X25073906Y41851076D01*
X25069967Y41845218D01*
X25066170Y41839268D01*
X25062519Y41833227D01*
X25059014Y41827100D01*
X25055658Y41820890D01*
X25052454Y41814600D01*
X25049402Y41808235D01*
X25046505Y41801798D01*
X25043764Y41795293D01*
X25041182Y41788724D01*
X25038759Y41782094D01*
X25036496Y41775408D01*
X25034396Y41768669D01*
X25032460Y41761881D01*
X25030688Y41755048D01*
X25029082Y41748175D01*
X25027642Y41741264D01*
X25026369Y41734321D01*
X25025265Y41727349D01*
X25024330Y41720353D01*
X25023564Y41713336D01*
X25022967Y41706302D01*
X25022541Y41699256D01*
X25022285Y41692202D01*
X25022200Y41685144D01*
X25022310Y41676069D01*
X25022639Y41667000D01*
X25023187Y41657941D01*
X25023955Y41648898D01*
X25024940Y41639876D01*
X25026144Y41630881D01*
X25027565Y41621917D01*
X25029202Y41612991D01*
X25031054Y41604106D01*
X25033121Y41595269D01*
X25035401Y41586485D01*
X25037893Y41577758D01*
X25040595Y41569094D01*
X25043506Y41560498D01*
X25046623Y41551975D01*
X25049946Y41543530D01*
X25053472Y41535168D01*
X25057200Y41526893D01*
X25061126Y41518711D01*
X25065249Y41510626D01*
X25069567Y41502643D01*
X25074076Y41494767D01*
X25078774Y41487003D01*
X25083659Y41479354D01*
X25088727Y41471825D01*
X25093976Y41464422D01*
X25099402Y41457147D01*
X25105003Y41450006D01*
X25110775Y41443002D01*
X25116714Y41436140D01*
X25122817Y41429424D01*
X25129082Y41422857D01*
X25135503Y41416444D01*
X25142077Y41410187D01*
X25148801Y41404092D01*
X25155670Y41398161D01*
X25162681Y41392398D01*
X25169829Y41386805D01*
X25177110Y41381388D01*
X25184520Y41376148D01*
X25192054Y41371089D01*
X25199709Y41366213D01*
X25207479Y41361524D01*
X25215361Y41357025D01*
X25223349Y41352717D01*
X25231438Y41348604D01*
X25239625Y41344687D01*
X25247904Y41340970D01*
X25256271Y41337454D01*
X25264720Y41334141D01*
X25273247Y41331033D01*
X25281847Y41328133D01*
X25541490Y41879878D02*
X25536113Y41885387D01*
X25530602Y41890763D01*
X25524961Y41896001D01*
X25519193Y41901100D01*
X25513301Y41906056D01*
X25507290Y41910866D01*
X25501163Y41915526D01*
X25494923Y41920035D01*
X25488574Y41924390D01*
X25482120Y41928588D01*
X25475565Y41932625D01*
X25468914Y41936501D01*
X25462169Y41940213D01*
X25455335Y41943757D01*
X25448416Y41947134D01*
X25441416Y41950339D01*
X25434340Y41953372D01*
X25427192Y41956230D01*
X25419975Y41958911D01*
X25412695Y41961415D01*
X25405356Y41963740D01*
X25397962Y41965884D01*
X25390518Y41967845D01*
X25383027Y41969624D01*
X25375496Y41971218D01*
X25367927Y41972627D01*
X25360326Y41973850D01*
X25352697Y41974885D01*
X25345046Y41975734D01*
X25337376Y41976394D01*
X25329691Y41976866D01*
X25321998Y41977150D01*
X25314300Y41977244D01*
X25541491Y41879878D02*
X26190600Y41328134D01*
X26190600Y41977244D01*
X20910600Y11682500D02*
X19742200Y11682500D01*
X19742200Y12007053D01*
X19742296Y12014956D01*
X19742585Y12022855D01*
X19743066Y12030744D01*
X19743739Y12038619D01*
X19744603Y12046476D01*
X19745659Y12054309D01*
X19746905Y12062114D01*
X19748340Y12069886D01*
X19749965Y12077621D01*
X19751777Y12085315D01*
X19753776Y12092961D01*
X19755961Y12100557D01*
X19758330Y12108098D01*
X19760882Y12115578D01*
X19763615Y12122994D01*
X19766529Y12130342D01*
X19769620Y12137616D01*
X19772887Y12144813D01*
X19776329Y12151928D01*
X19779943Y12158957D01*
X19783727Y12165896D01*
X19787679Y12172741D01*
X19791796Y12179488D01*
X19796077Y12186133D01*
X19800518Y12192671D01*
X19805117Y12199099D01*
X19809871Y12205413D01*
X19814778Y12211610D01*
X19819833Y12217685D01*
X19825036Y12223635D01*
X19830381Y12229457D01*
X19835867Y12235147D01*
X19841490Y12240702D01*
X19847246Y12246118D01*
X19853133Y12251393D01*
X19859146Y12256522D01*
X19865283Y12261504D01*
X19871539Y12266334D01*
X19877910Y12271011D01*
X19884394Y12275531D01*
X19890986Y12279892D01*
X19897682Y12284092D01*
X19904478Y12288127D01*
X19911371Y12291995D01*
X19918355Y12295694D01*
X19925428Y12299222D01*
X19932585Y12302577D01*
X19939821Y12305757D01*
X19947132Y12308759D01*
X19954514Y12311583D01*
X19961963Y12314226D01*
X19969474Y12316686D01*
X19977043Y12318964D01*
X19984665Y12321056D01*
X19992336Y12322962D01*
X20000050Y12324680D01*
X20007805Y12326210D01*
X20015594Y12327551D01*
X20023414Y12328702D01*
X20031259Y12329662D01*
X20039125Y12330431D01*
X20047008Y12331008D01*
X20054903Y12331392D01*
X20062804Y12331585D01*
X20070708Y12331585D01*
X20078609Y12331392D01*
X20086504Y12331008D01*
X20094387Y12330431D01*
X20102253Y12329662D01*
X20110098Y12328702D01*
X20117918Y12327551D01*
X20125707Y12326210D01*
X20133462Y12324680D01*
X20141176Y12322962D01*
X20148847Y12321056D01*
X20156469Y12318964D01*
X20164038Y12316686D01*
X20171549Y12314226D01*
X20178998Y12311583D01*
X20186380Y12308759D01*
X20193691Y12305757D01*
X20200927Y12302577D01*
X20208084Y12299222D01*
X20215157Y12295694D01*
X20222141Y12291995D01*
X20229034Y12288127D01*
X20235830Y12284092D01*
X20242526Y12279892D01*
X20249118Y12275531D01*
X20255602Y12271011D01*
X20261973Y12266334D01*
X20268229Y12261504D01*
X20274366Y12256522D01*
X20280379Y12251393D01*
X20286266Y12246118D01*
X20292022Y12240702D01*
X20297645Y12235147D01*
X20303131Y12229457D01*
X20308476Y12223635D01*
X20313679Y12217685D01*
X20318734Y12211610D01*
X20323641Y12205413D01*
X20328395Y12199099D01*
X20332994Y12192671D01*
X20337435Y12186133D01*
X20341716Y12179488D01*
X20345833Y12172741D01*
X20349785Y12165896D01*
X20353569Y12158957D01*
X20357183Y12151928D01*
X20360625Y12144813D01*
X20363892Y12137616D01*
X20366983Y12130342D01*
X20369897Y12122994D01*
X20372630Y12115578D01*
X20375182Y12108098D01*
X20377551Y12100557D01*
X20379736Y12092961D01*
X20381735Y12085315D01*
X20383547Y12077621D01*
X20385172Y12069886D01*
X20386607Y12062114D01*
X20387853Y12054309D01*
X20388909Y12046476D01*
X20389773Y12038619D01*
X20390446Y12030744D01*
X20390927Y12022855D01*
X20391216Y12014956D01*
X20391312Y12007053D01*
X20391313Y12007053D02*
X20391313Y11682500D01*
X20391313Y12071966D02*
X20910600Y12331609D01*
X20910600Y12818134D02*
X20910600Y13142688D01*
X20910504Y13150591D01*
X20910215Y13158490D01*
X20909734Y13166379D01*
X20909061Y13174254D01*
X20908197Y13182111D01*
X20907141Y13189944D01*
X20905895Y13197749D01*
X20904460Y13205521D01*
X20902835Y13213256D01*
X20901023Y13220950D01*
X20899024Y13228596D01*
X20896839Y13236192D01*
X20894470Y13243733D01*
X20891918Y13251213D01*
X20889185Y13258629D01*
X20886271Y13265977D01*
X20883180Y13273251D01*
X20879913Y13280448D01*
X20876471Y13287563D01*
X20872857Y13294592D01*
X20869073Y13301531D01*
X20865121Y13308376D01*
X20861004Y13315123D01*
X20856723Y13321768D01*
X20852282Y13328306D01*
X20847683Y13334734D01*
X20842929Y13341048D01*
X20838022Y13347245D01*
X20832967Y13353320D01*
X20827764Y13359270D01*
X20822419Y13365092D01*
X20816933Y13370782D01*
X20811310Y13376337D01*
X20805554Y13381753D01*
X20799667Y13387028D01*
X20793654Y13392157D01*
X20787517Y13397139D01*
X20781261Y13401969D01*
X20774890Y13406646D01*
X20768406Y13411166D01*
X20761814Y13415527D01*
X20755118Y13419727D01*
X20748322Y13423762D01*
X20741429Y13427630D01*
X20734445Y13431329D01*
X20727372Y13434857D01*
X20720215Y13438212D01*
X20712979Y13441392D01*
X20705668Y13444394D01*
X20698286Y13447218D01*
X20690837Y13449861D01*
X20683326Y13452321D01*
X20675757Y13454599D01*
X20668135Y13456691D01*
X20660464Y13458597D01*
X20652750Y13460315D01*
X20644995Y13461845D01*
X20637206Y13463186D01*
X20629386Y13464337D01*
X20621541Y13465297D01*
X20613675Y13466066D01*
X20605792Y13466643D01*
X20597897Y13467027D01*
X20589996Y13467220D01*
X20582092Y13467220D01*
X20574191Y13467027D01*
X20566296Y13466643D01*
X20558413Y13466066D01*
X20550547Y13465297D01*
X20542702Y13464337D01*
X20534882Y13463186D01*
X20527093Y13461845D01*
X20519338Y13460315D01*
X20511624Y13458597D01*
X20503953Y13456691D01*
X20496331Y13454599D01*
X20488762Y13452321D01*
X20481251Y13449861D01*
X20473802Y13447218D01*
X20466420Y13444394D01*
X20459109Y13441392D01*
X20451873Y13438212D01*
X20444716Y13434857D01*
X20437643Y13431329D01*
X20430659Y13427630D01*
X20423766Y13423762D01*
X20416970Y13419727D01*
X20410274Y13415527D01*
X20403682Y13411166D01*
X20397198Y13406646D01*
X20390827Y13401969D01*
X20384571Y13397139D01*
X20378434Y13392157D01*
X20372421Y13387028D01*
X20366534Y13381753D01*
X20360778Y13376337D01*
X20355155Y13370782D01*
X20349669Y13365092D01*
X20344324Y13359270D01*
X20339121Y13353320D01*
X20334066Y13347245D01*
X20329159Y13341048D01*
X20324405Y13334734D01*
X20319806Y13328306D01*
X20315365Y13321768D01*
X20311084Y13315123D01*
X20306967Y13308376D01*
X20303015Y13301531D01*
X20299231Y13294592D01*
X20295617Y13287563D01*
X20292175Y13280448D01*
X20288908Y13273251D01*
X20285817Y13265977D01*
X20282903Y13258629D01*
X20280170Y13251213D01*
X20277618Y13243733D01*
X20275249Y13236192D01*
X20273064Y13228596D01*
X20271065Y13220950D01*
X20269253Y13213256D01*
X20267628Y13205521D01*
X20266193Y13197749D01*
X20264947Y13189944D01*
X20263891Y13182111D01*
X20263027Y13174254D01*
X20262354Y13166379D01*
X20261873Y13158490D01*
X20261584Y13150591D01*
X20261488Y13142688D01*
X19742200Y13207600D02*
X19742200Y12818134D01*
X19742200Y13207600D02*
X19742277Y13213923D01*
X19742508Y13220241D01*
X19742893Y13226553D01*
X19743431Y13232853D01*
X19744123Y13239138D01*
X19744967Y13245404D01*
X19745964Y13251648D01*
X19747112Y13257866D01*
X19748412Y13264054D01*
X19749862Y13270209D01*
X19751461Y13276326D01*
X19753209Y13282403D01*
X19755104Y13288436D01*
X19757146Y13294420D01*
X19759332Y13300353D01*
X19761663Y13306231D01*
X19764136Y13312050D01*
X19766750Y13317808D01*
X19769503Y13323500D01*
X19772394Y13329123D01*
X19775422Y13334674D01*
X19778583Y13340150D01*
X19781877Y13345548D01*
X19785301Y13350863D01*
X19788854Y13356094D01*
X19792533Y13361236D01*
X19796337Y13366288D01*
X19800262Y13371245D01*
X19804307Y13376105D01*
X19808468Y13380865D01*
X19812745Y13385523D01*
X19817134Y13390075D01*
X19821632Y13394519D01*
X19826237Y13398852D01*
X19830946Y13403071D01*
X19835757Y13407175D01*
X19840666Y13411160D01*
X19845671Y13415024D01*
X19850768Y13418766D01*
X19855955Y13422382D01*
X19861228Y13425871D01*
X19866585Y13429230D01*
X19872022Y13432458D01*
X19877536Y13435553D01*
X19883124Y13438512D01*
X19888782Y13441335D01*
X19894507Y13444019D01*
X19900296Y13446562D01*
X19906145Y13448964D01*
X19912051Y13451223D01*
X19918010Y13453337D01*
X19924019Y13455306D01*
X19930074Y13457128D01*
X19936171Y13458801D01*
X19942308Y13460326D01*
X19948480Y13461701D01*
X19954683Y13462925D01*
X19960914Y13463998D01*
X19967170Y13464918D01*
X19973446Y13465686D01*
X19979740Y13466301D01*
X19986046Y13466763D01*
X19992361Y13467071D01*
X19998682Y13467225D01*
X20005006Y13467225D01*
X20011327Y13467071D01*
X20017642Y13466763D01*
X20023948Y13466301D01*
X20030242Y13465686D01*
X20036518Y13464918D01*
X20042774Y13463998D01*
X20049005Y13462925D01*
X20055208Y13461701D01*
X20061380Y13460326D01*
X20067517Y13458801D01*
X20073614Y13457128D01*
X20079669Y13455306D01*
X20085678Y13453337D01*
X20091637Y13451223D01*
X20097543Y13448964D01*
X20103392Y13446562D01*
X20109181Y13444019D01*
X20114906Y13441335D01*
X20120564Y13438512D01*
X20126152Y13435553D01*
X20131666Y13432458D01*
X20137103Y13429230D01*
X20142460Y13425871D01*
X20147733Y13422382D01*
X20152920Y13418766D01*
X20158017Y13415024D01*
X20163022Y13411160D01*
X20167931Y13407175D01*
X20172742Y13403071D01*
X20177451Y13398852D01*
X20182056Y13394519D01*
X20186554Y13390075D01*
X20190943Y13385523D01*
X20195220Y13380865D01*
X20199381Y13376105D01*
X20203426Y13371245D01*
X20207351Y13366288D01*
X20211155Y13361236D01*
X20214834Y13356094D01*
X20218387Y13350863D01*
X20221811Y13345548D01*
X20225105Y13340150D01*
X20228266Y13334674D01*
X20231294Y13329123D01*
X20234185Y13323500D01*
X20236938Y13317808D01*
X20239552Y13312050D01*
X20242025Y13306231D01*
X20244356Y13300353D01*
X20246542Y13294420D01*
X20248584Y13288436D01*
X20250479Y13282403D01*
X20252227Y13276326D01*
X20253826Y13270209D01*
X20255276Y13264054D01*
X20256576Y13257866D01*
X20257724Y13251648D01*
X20258721Y13245404D01*
X20259565Y13239138D01*
X20260257Y13232853D01*
X20260795Y13226553D01*
X20261180Y13220241D01*
X20261411Y13213923D01*
X20261488Y13207600D01*
X20261491Y13207600D02*
X20261491Y12947956D01*
D19*
X17731400Y6066700D02*
X23731400Y6066700D01*
X23731400Y9566700D02*
X17731400Y9566700D01*
D15*
X19231400Y7066700D02*
X22231400Y7066700D01*
X22231400Y8566700D01*
X19231400Y8566700D01*
X19231400Y7066700D01*
D20*
X16181400Y9816700D03*
D10*
X17666006Y10372100D02*
X17672293Y10372176D01*
X17678575Y10372404D01*
X17684851Y10372783D01*
X17691115Y10373315D01*
X17697365Y10373997D01*
X17703597Y10374830D01*
X17709806Y10375814D01*
X17715990Y10376947D01*
X17722145Y10378229D01*
X17728267Y10379660D01*
X17734353Y10381238D01*
X17740398Y10382963D01*
X17746401Y10384833D01*
X17752356Y10386848D01*
X17758261Y10389006D01*
X17764112Y10391307D01*
X17769906Y10393748D01*
X17775639Y10396328D01*
X17781308Y10399046D01*
X17786910Y10401900D01*
X17792441Y10404889D01*
X17797898Y10408010D01*
X17803278Y10411263D01*
X17808579Y10414644D01*
X17813795Y10418153D01*
X17818926Y10421787D01*
X17823967Y10425543D01*
X17828916Y10429421D01*
X17833770Y10433416D01*
X17838526Y10437528D01*
X17843181Y10441754D01*
X17847733Y10446091D01*
X17852178Y10450536D01*
X17856515Y10455088D01*
X17860741Y10459743D01*
X17864853Y10464499D01*
X17868848Y10469353D01*
X17872726Y10474302D01*
X17876482Y10479343D01*
X17880116Y10484474D01*
X17883625Y10489690D01*
X17887006Y10494991D01*
X17890259Y10500371D01*
X17893380Y10505828D01*
X17896369Y10511359D01*
X17899223Y10516961D01*
X17901941Y10522630D01*
X17904521Y10528363D01*
X17906962Y10534157D01*
X17909263Y10540008D01*
X17911421Y10545913D01*
X17913436Y10551868D01*
X17915306Y10557871D01*
X17917031Y10563916D01*
X17918609Y10570002D01*
X17920040Y10576124D01*
X17921322Y10582279D01*
X17922455Y10588463D01*
X17923439Y10594672D01*
X17924272Y10600904D01*
X17924954Y10607154D01*
X17925486Y10613418D01*
X17925865Y10619694D01*
X17926093Y10625976D01*
X17926169Y10632263D01*
X17666006Y10372100D02*
X17652857Y10372257D01*
X17639716Y10372729D01*
X17626590Y10373515D01*
X17613486Y10374615D01*
X17600413Y10376028D01*
X17587377Y10377754D01*
X17574385Y10379790D01*
X17561447Y10382137D01*
X17548568Y10384793D01*
X17535757Y10387757D01*
X17523020Y10391025D01*
X17510365Y10394598D01*
X17497799Y10398473D01*
X17485329Y10402647D01*
X17472963Y10407118D01*
X17460707Y10411883D01*
X17448569Y10416941D01*
X17436555Y10422287D01*
X17424672Y10427919D01*
X17412928Y10433834D01*
X17401329Y10440029D01*
X17389881Y10446499D01*
X17378591Y10453241D01*
X17367466Y10460251D01*
X17356511Y10467525D01*
X17345734Y10475059D01*
X17335140Y10482849D01*
X17324736Y10490891D01*
X17314526Y10499178D01*
X17304518Y10507708D01*
X17294717Y10516475D01*
X17285129Y10525473D01*
X17275758Y10534699D01*
X17308278Y11282675D02*
X17308354Y11288962D01*
X17308582Y11295244D01*
X17308961Y11301520D01*
X17309493Y11307785D01*
X17310175Y11314034D01*
X17311008Y11320266D01*
X17311992Y11326476D01*
X17313125Y11332660D01*
X17314407Y11338814D01*
X17315838Y11344937D01*
X17317416Y11351022D01*
X17319141Y11357068D01*
X17321011Y11363070D01*
X17323026Y11369026D01*
X17325185Y11374931D01*
X17327485Y11380782D01*
X17329926Y11386576D01*
X17332506Y11392309D01*
X17335224Y11397978D01*
X17338079Y11403580D01*
X17341067Y11409111D01*
X17344189Y11414568D01*
X17347441Y11419948D01*
X17350823Y11425249D01*
X17354332Y11430465D01*
X17357965Y11435596D01*
X17361722Y11440637D01*
X17365599Y11445586D01*
X17369595Y11450440D01*
X17373707Y11455196D01*
X17377933Y11459851D01*
X17382270Y11464403D01*
X17386715Y11468848D01*
X17391267Y11473185D01*
X17395922Y11477411D01*
X17400678Y11481523D01*
X17405532Y11485519D01*
X17410481Y11489396D01*
X17415523Y11493152D01*
X17420653Y11496786D01*
X17425870Y11500295D01*
X17431170Y11503676D01*
X17436551Y11506929D01*
X17442008Y11510050D01*
X17447539Y11513039D01*
X17453141Y11515893D01*
X17458810Y11518611D01*
X17464543Y11521191D01*
X17470337Y11523632D01*
X17476188Y11525932D01*
X17482093Y11528091D01*
X17488049Y11530105D01*
X17494051Y11531976D01*
X17500097Y11533701D01*
X17506182Y11535279D01*
X17512305Y11536709D01*
X17518459Y11537992D01*
X17524643Y11539125D01*
X17530853Y11540108D01*
X17537085Y11540941D01*
X17543335Y11541624D01*
X17549599Y11542155D01*
X17555875Y11542534D01*
X17562158Y11542762D01*
X17568444Y11542838D01*
X17568444Y11542841D02*
X17580069Y11542702D01*
X17591688Y11542287D01*
X17603293Y11541594D01*
X17614878Y11540625D01*
X17626437Y11539381D01*
X17637963Y11537861D01*
X17649450Y11536067D01*
X17660890Y11534000D01*
X17672278Y11531661D01*
X17683608Y11529051D01*
X17694871Y11526172D01*
X17706063Y11523025D01*
X17717177Y11519612D01*
X17728206Y11515936D01*
X17739144Y11511997D01*
X17749986Y11507800D01*
X17760724Y11503345D01*
X17771353Y11498635D01*
X17781867Y11493673D01*
X17792260Y11488463D01*
X17802525Y11483006D01*
X17812658Y11477306D01*
X17822652Y11471366D01*
X17832501Y11465190D01*
X17842201Y11458780D01*
X17851745Y11452142D01*
X17861128Y11445277D01*
X17438359Y11055031D02*
X17432902Y11058336D01*
X17427526Y11061772D01*
X17422235Y11065337D01*
X17417031Y11069029D01*
X17411919Y11072845D01*
X17406899Y11076783D01*
X17401976Y11080842D01*
X17397153Y11085018D01*
X17392432Y11089309D01*
X17387816Y11093713D01*
X17383308Y11098228D01*
X17378910Y11102849D01*
X17374624Y11107576D01*
X17370454Y11112405D01*
X17366402Y11117333D01*
X17362470Y11122357D01*
X17358661Y11127475D01*
X17354976Y11132683D01*
X17351418Y11137979D01*
X17347989Y11143359D01*
X17344691Y11148821D01*
X17341526Y11154360D01*
X17338495Y11159974D01*
X17335601Y11165660D01*
X17332845Y11171414D01*
X17330228Y11177233D01*
X17327753Y11183113D01*
X17325421Y11189051D01*
X17323232Y11195044D01*
X17321189Y11201088D01*
X17319293Y11207180D01*
X17317544Y11213316D01*
X17315943Y11219492D01*
X17314493Y11225705D01*
X17313192Y11231951D01*
X17312043Y11238226D01*
X17311046Y11244528D01*
X17310201Y11250852D01*
X17309509Y11257194D01*
X17308971Y11263551D01*
X17308586Y11269920D01*
X17308355Y11276295D01*
X17308278Y11282675D01*
X17796088Y10859907D02*
X17801545Y10856602D01*
X17806921Y10853166D01*
X17812212Y10849601D01*
X17817416Y10845909D01*
X17822528Y10842093D01*
X17827548Y10838155D01*
X17832471Y10834096D01*
X17837294Y10829920D01*
X17842015Y10825629D01*
X17846631Y10821225D01*
X17851139Y10816710D01*
X17855537Y10812089D01*
X17859823Y10807362D01*
X17863993Y10802533D01*
X17868045Y10797605D01*
X17871977Y10792581D01*
X17875786Y10787463D01*
X17879471Y10782255D01*
X17883029Y10776959D01*
X17886458Y10771579D01*
X17889756Y10766117D01*
X17892921Y10760578D01*
X17895952Y10754964D01*
X17898846Y10749278D01*
X17901602Y10743524D01*
X17904219Y10737705D01*
X17906694Y10731825D01*
X17909026Y10725887D01*
X17911215Y10719894D01*
X17913258Y10713850D01*
X17915154Y10707758D01*
X17916903Y10701622D01*
X17918504Y10695446D01*
X17919954Y10689233D01*
X17921255Y10682987D01*
X17922404Y10676712D01*
X17923401Y10670410D01*
X17924246Y10664086D01*
X17924938Y10657744D01*
X17925476Y10651387D01*
X17925861Y10645018D01*
X17926092Y10638643D01*
X17926169Y10632263D01*
X17796088Y10859906D02*
X17438359Y11055031D01*
X18340253Y11542841D02*
X18600416Y10372100D01*
X18860581Y11152594D01*
X19120747Y10372100D01*
X19380909Y11542841D01*
X19833166Y11282675D02*
X20158369Y11542841D01*
X20158369Y10372100D01*
X19833166Y10372100D02*
X20483575Y10372100D01*
D21*
X18911400Y22226700D02*
X18911400Y28426700D01*
X25111400Y28426700D01*
X25111400Y22226700D01*
X18911400Y22226700D01*
D22*
X18411400Y21026700D03*
D10*
X16425059Y20267409D02*
X15579400Y20267409D01*
X16425059Y20267409D02*
X16432979Y20267505D01*
X16440895Y20267795D01*
X16448801Y20268277D01*
X16456693Y20268951D01*
X16464566Y20269817D01*
X16472416Y20270875D01*
X16480238Y20272124D01*
X16488027Y20273562D01*
X16495778Y20275190D01*
X16503488Y20277007D01*
X16511151Y20279010D01*
X16518763Y20281199D01*
X16526320Y20283574D01*
X16533816Y20286131D01*
X16541248Y20288870D01*
X16548611Y20291790D01*
X16555901Y20294888D01*
X16563114Y20298162D01*
X16570244Y20301611D01*
X16577288Y20305233D01*
X16584242Y20309025D01*
X16591102Y20312985D01*
X16597863Y20317112D01*
X16604521Y20321401D01*
X16611074Y20325852D01*
X16617516Y20330461D01*
X16623843Y20335225D01*
X16630053Y20340142D01*
X16636141Y20345208D01*
X16642104Y20350422D01*
X16647939Y20355779D01*
X16653641Y20361277D01*
X16659208Y20366911D01*
X16664635Y20372680D01*
X16669921Y20378579D01*
X16675061Y20384605D01*
X16680054Y20390755D01*
X16684895Y20397024D01*
X16689581Y20403409D01*
X16694111Y20409907D01*
X16698482Y20416513D01*
X16702690Y20423223D01*
X16706734Y20430034D01*
X16710610Y20436941D01*
X16714318Y20443941D01*
X16717853Y20451029D01*
X16721215Y20458201D01*
X16724402Y20465452D01*
X16727410Y20472779D01*
X16730240Y20480177D01*
X16732889Y20487642D01*
X16735355Y20495169D01*
X16737636Y20502754D01*
X16739733Y20510392D01*
X16741643Y20518079D01*
X16743365Y20525811D01*
X16744899Y20533582D01*
X16746242Y20541388D01*
X16747396Y20549224D01*
X16748358Y20557086D01*
X16749128Y20564969D01*
X16749706Y20572869D01*
X16750092Y20580780D01*
X16750285Y20588699D01*
X16750285Y20596619D01*
X16750092Y20604538D01*
X16749706Y20612449D01*
X16749128Y20620349D01*
X16748358Y20628232D01*
X16747396Y20636094D01*
X16746242Y20643930D01*
X16744899Y20651736D01*
X16743365Y20659507D01*
X16741643Y20667239D01*
X16739733Y20674926D01*
X16737636Y20682564D01*
X16735355Y20690149D01*
X16732889Y20697676D01*
X16730240Y20705141D01*
X16727410Y20712539D01*
X16724402Y20719866D01*
X16721215Y20727117D01*
X16717853Y20734289D01*
X16714318Y20741377D01*
X16710610Y20748377D01*
X16706734Y20755284D01*
X16702690Y20762095D01*
X16698482Y20768805D01*
X16694111Y20775411D01*
X16689581Y20781909D01*
X16684895Y20788294D01*
X16680054Y20794563D01*
X16675061Y20800713D01*
X16669921Y20806739D01*
X16664635Y20812638D01*
X16659208Y20818407D01*
X16653641Y20824041D01*
X16647939Y20829539D01*
X16642104Y20834896D01*
X16636141Y20840110D01*
X16630053Y20845176D01*
X16623843Y20850093D01*
X16617516Y20854857D01*
X16611074Y20859466D01*
X16604521Y20863917D01*
X16597863Y20868206D01*
X16591102Y20872333D01*
X16584242Y20876293D01*
X16577288Y20880085D01*
X16570244Y20883707D01*
X16563114Y20887156D01*
X16555901Y20890430D01*
X16548611Y20893528D01*
X16541248Y20896448D01*
X16533816Y20899187D01*
X16526320Y20901744D01*
X16518763Y20904119D01*
X16511151Y20906308D01*
X16503488Y20908311D01*
X16495778Y20910128D01*
X16488027Y20911756D01*
X16480238Y20913194D01*
X16472416Y20914443D01*
X16464566Y20915501D01*
X16456693Y20916367D01*
X16448801Y20917041D01*
X16440895Y20917523D01*
X16432979Y20917813D01*
X16425059Y20917909D01*
X16425059Y20917913D02*
X15579400Y20917913D01*
X15839603Y21450844D02*
X15579400Y21776094D01*
X16750309Y21776094D01*
X16750309Y21450844D02*
X16750309Y22101347D01*
D15*
X20801400Y18776700D02*
X20801400Y13776700D01*
X17401400Y13776700D02*
X17401400Y18776700D01*
D10*
X17996641Y17031759D02*
X18386841Y16478975D01*
X18777041Y17031759D01*
X18386841Y16478975D02*
X18386841Y15861159D01*
X19206650Y16771625D02*
X19531816Y17031759D01*
X19531816Y15861159D01*
X19856981Y15861159D02*
X19206650Y15861159D01*
M02*
