G04 EAGLE Gerber X2 export*
%TF.Part,Single*%
%TF.FileFunction,Legend,Bot,1*%
%TF.FilePolarity,Positive*%
%TF.GenerationSoftware,Autodesk,EAGLE,9.6.2*%
%TF.CreationDate,2022-05-08T16:50:48Z*%
G75*
%MOMM*%
%FSLAX46Y46*%
%LPD*%
%INSilkscreen Bottom*%
%AMOC8*
5,1,8,0,0,1.08239X$1,22.5*%
G01*
%ADD10C,0.152400*%
%ADD11C,0.127000*%


D10*
X23318200Y10745800D02*
X23318200Y9475800D01*
X23953200Y8840800D01*
X25223200Y8840800D01*
X25858200Y9475800D01*
X23953200Y8840800D02*
X23318200Y8205800D01*
X23318200Y6935800D01*
X23953200Y6300800D01*
X25223200Y6300800D01*
X25858200Y6935800D01*
X25858200Y8205800D01*
X25223200Y8840800D01*
X23318200Y13285800D02*
X23953200Y13920800D01*
X23318200Y13285800D02*
X23318200Y12015800D01*
X23953200Y11380800D01*
X25223200Y11380800D01*
X25858200Y12015800D01*
X25858200Y13285800D01*
X25223200Y13920800D01*
X23953200Y11380800D02*
X23318200Y10745800D01*
X25223200Y11380800D02*
X25858200Y10745800D01*
X25858200Y9475800D01*
X23318200Y17095800D02*
X23318200Y18365800D01*
X23318200Y17095800D02*
X23953200Y16460800D01*
X25223200Y16460800D01*
X25858200Y17095800D01*
X23953200Y16460800D02*
X23318200Y15825800D01*
X23318200Y14555800D01*
X23953200Y13920800D01*
X25223200Y13920800D01*
X25858200Y14555800D01*
X25858200Y15825800D01*
X25223200Y16460800D01*
X23318200Y20905800D02*
X23953200Y21540800D01*
X23318200Y20905800D02*
X23318200Y19635800D01*
X23953200Y19000800D01*
X25223200Y19000800D01*
X25858200Y19635800D01*
X25858200Y20905800D01*
X25223200Y21540800D01*
X23953200Y19000800D02*
X23318200Y18365800D01*
X25223200Y19000800D02*
X25858200Y18365800D01*
X25858200Y17095800D01*
X23318200Y24715800D02*
X23318200Y25985800D01*
X23318200Y24715800D02*
X23953200Y24080800D01*
X25223200Y24080800D01*
X25858200Y24715800D01*
X23953200Y24080800D02*
X23318200Y23445800D01*
X23318200Y22175800D01*
X23953200Y21540800D01*
X25223200Y21540800D01*
X25858200Y22175800D01*
X25858200Y23445800D01*
X25223200Y24080800D01*
X23318200Y28525800D02*
X23953200Y29160800D01*
X23318200Y28525800D02*
X23318200Y27255800D01*
X23953200Y26620800D01*
X25223200Y26620800D01*
X25858200Y27255800D01*
X25858200Y28525800D01*
X25223200Y29160800D01*
X23953200Y26620800D02*
X23318200Y25985800D01*
X25223200Y26620800D02*
X25858200Y25985800D01*
X25858200Y24715800D01*
X23318200Y32335800D02*
X23318200Y33605800D01*
X23318200Y32335800D02*
X23953200Y31700800D01*
X25223200Y31700800D01*
X25858200Y32335800D01*
X23953200Y31700800D02*
X23318200Y31065800D01*
X23318200Y29795800D01*
X23953200Y29160800D01*
X25223200Y29160800D01*
X25858200Y29795800D01*
X25858200Y31065800D01*
X25223200Y31700800D01*
X23318200Y36145800D02*
X23953200Y36780800D01*
X23318200Y36145800D02*
X23318200Y34875800D01*
X23953200Y34240800D01*
X25223200Y34240800D01*
X25858200Y34875800D01*
X25858200Y36145800D01*
X25223200Y36780800D01*
X23953200Y34240800D02*
X23318200Y33605800D01*
X25223200Y34240800D02*
X25858200Y33605800D01*
X25858200Y32335800D01*
X23318200Y39955800D02*
X23318200Y41225800D01*
X23318200Y39955800D02*
X23953200Y39320800D01*
X25223200Y39320800D01*
X25858200Y39955800D01*
X23953200Y39320800D02*
X23318200Y38685800D01*
X23318200Y37415800D01*
X23953200Y36780800D01*
X25223200Y36780800D01*
X25858200Y37415800D01*
X25858200Y38685800D01*
X25223200Y39320800D01*
X25223200Y41860800D02*
X23953200Y41860800D01*
X23318200Y41225800D01*
X25223200Y41860800D02*
X25858200Y41225800D01*
X25858200Y39955800D01*
X23953200Y6300800D02*
X23318200Y5665800D01*
X23318200Y4395800D01*
X23953200Y3760800D01*
X25223200Y3760800D01*
X25858200Y4395800D01*
X25858200Y5665800D01*
X25223200Y6300800D01*
D11*
X22022400Y20854231D02*
X21133400Y20854231D01*
X21127262Y20854157D01*
X21121128Y20853934D01*
X21115002Y20853564D01*
X21108885Y20853045D01*
X21102784Y20852379D01*
X21096700Y20851566D01*
X21090637Y20850605D01*
X21084600Y20849499D01*
X21078591Y20848247D01*
X21072614Y20846850D01*
X21066672Y20845309D01*
X21060770Y20843625D01*
X21054910Y20841799D01*
X21049095Y20839832D01*
X21043330Y20837725D01*
X21037618Y20835479D01*
X21031961Y20833096D01*
X21026364Y20830577D01*
X21020829Y20827923D01*
X21015360Y20825137D01*
X21009960Y20822219D01*
X21004632Y20819171D01*
X20999379Y20815996D01*
X20994205Y20812694D01*
X20989112Y20809269D01*
X20984103Y20805721D01*
X20979181Y20802054D01*
X20974349Y20798268D01*
X20969610Y20794367D01*
X20964967Y20790353D01*
X20960422Y20786227D01*
X20955978Y20781993D01*
X20951638Y20777653D01*
X20947404Y20773209D01*
X20943278Y20768664D01*
X20939264Y20764021D01*
X20935363Y20759282D01*
X20931577Y20754450D01*
X20927910Y20749528D01*
X20924362Y20744519D01*
X20920937Y20739426D01*
X20917635Y20734252D01*
X20914460Y20728999D01*
X20911412Y20723671D01*
X20908494Y20718271D01*
X20905708Y20712802D01*
X20903054Y20707267D01*
X20900535Y20701670D01*
X20898152Y20696013D01*
X20895906Y20690301D01*
X20893799Y20684536D01*
X20891832Y20678721D01*
X20890006Y20672861D01*
X20888322Y20666959D01*
X20886781Y20661017D01*
X20885384Y20655040D01*
X20884132Y20649031D01*
X20883026Y20642994D01*
X20882065Y20636931D01*
X20881252Y20630847D01*
X20880586Y20624746D01*
X20880067Y20618629D01*
X20879697Y20612503D01*
X20879474Y20606369D01*
X20879400Y20600231D01*
X20879400Y20473231D01*
X20879400Y21452250D02*
X22022400Y21452250D01*
X22022400Y21769750D01*
X22022306Y21777481D01*
X22022023Y21785208D01*
X22021553Y21792926D01*
X22020895Y21800630D01*
X22020049Y21808316D01*
X22019017Y21815978D01*
X22017798Y21823614D01*
X22016393Y21831217D01*
X22014804Y21838784D01*
X22013031Y21846310D01*
X22011075Y21853791D01*
X22008938Y21861221D01*
X22006621Y21868598D01*
X22004124Y21875916D01*
X22001450Y21883171D01*
X21998600Y21890358D01*
X21995576Y21897475D01*
X21992380Y21904515D01*
X21989013Y21911475D01*
X21985477Y21918352D01*
X21981776Y21925140D01*
X21977910Y21931836D01*
X21973882Y21938436D01*
X21969694Y21944936D01*
X21965350Y21951332D01*
X21960851Y21957621D01*
X21956200Y21963798D01*
X21951400Y21969860D01*
X21946454Y21975803D01*
X21941365Y21981624D01*
X21936136Y21987319D01*
X21930769Y21992885D01*
X21925269Y21998319D01*
X21919637Y22003618D01*
X21913879Y22008777D01*
X21907996Y22013795D01*
X21901993Y22018669D01*
X21895873Y22023394D01*
X21889640Y22027969D01*
X21883298Y22032392D01*
X21876849Y22036658D01*
X21870299Y22040766D01*
X21863650Y22044713D01*
X21856907Y22048497D01*
X21850074Y22052116D01*
X21843155Y22055568D01*
X21836155Y22058849D01*
X21829076Y22061960D01*
X21821923Y22064897D01*
X21814701Y22067659D01*
X21807415Y22070245D01*
X21800067Y22072652D01*
X21792663Y22074879D01*
X21785206Y22076926D01*
X21777702Y22078791D01*
X21770155Y22080472D01*
X21762570Y22081969D01*
X21754950Y22083280D01*
X21747300Y22084406D01*
X21739625Y22085345D01*
X21731930Y22086097D01*
X21724219Y22086662D01*
X21716496Y22087038D01*
X21708766Y22087226D01*
X21701034Y22087226D01*
X21693304Y22087038D01*
X21685581Y22086662D01*
X21677870Y22086097D01*
X21670175Y22085345D01*
X21662500Y22084406D01*
X21654850Y22083280D01*
X21647230Y22081969D01*
X21639645Y22080472D01*
X21632098Y22078791D01*
X21624594Y22076926D01*
X21617137Y22074879D01*
X21609733Y22072652D01*
X21602385Y22070245D01*
X21595099Y22067659D01*
X21587877Y22064897D01*
X21580724Y22061960D01*
X21573645Y22058849D01*
X21566645Y22055568D01*
X21559726Y22052116D01*
X21552893Y22048497D01*
X21546150Y22044713D01*
X21539501Y22040766D01*
X21532951Y22036658D01*
X21526502Y22032392D01*
X21520160Y22027969D01*
X21513927Y22023394D01*
X21507807Y22018669D01*
X21501804Y22013795D01*
X21495921Y22008777D01*
X21490163Y22003618D01*
X21484531Y21998319D01*
X21479031Y21992885D01*
X21473664Y21987319D01*
X21468435Y21981624D01*
X21463346Y21975803D01*
X21458400Y21969860D01*
X21453600Y21963798D01*
X21448949Y21957621D01*
X21444450Y21951332D01*
X21440106Y21944936D01*
X21435918Y21938436D01*
X21431890Y21931836D01*
X21428024Y21925140D01*
X21424323Y21918352D01*
X21420787Y21911475D01*
X21417420Y21904515D01*
X21414224Y21897475D01*
X21411200Y21890358D01*
X21408350Y21883171D01*
X21405676Y21875916D01*
X21403179Y21868598D01*
X21400862Y21861221D01*
X21398725Y21853791D01*
X21396769Y21846310D01*
X21394996Y21838784D01*
X21393407Y21831217D01*
X21392002Y21823614D01*
X21390783Y21815978D01*
X21389751Y21808316D01*
X21388905Y21800630D01*
X21388247Y21792926D01*
X21387777Y21785208D01*
X21387494Y21777481D01*
X21387400Y21769750D01*
X21387400Y21452250D01*
X22022400Y22887350D02*
X22022317Y22894255D01*
X22022066Y22901156D01*
X22021649Y22908048D01*
X22021066Y22914929D01*
X22020317Y22921793D01*
X22019401Y22928638D01*
X22018321Y22935458D01*
X22017077Y22942250D01*
X22015668Y22949010D01*
X22014097Y22955734D01*
X22012363Y22962419D01*
X22010469Y22969059D01*
X22008414Y22975652D01*
X22006201Y22982193D01*
X22003831Y22988678D01*
X22001304Y22995105D01*
X21998623Y23001468D01*
X21995789Y23007765D01*
X21992804Y23013992D01*
X21989669Y23020145D01*
X21986386Y23026220D01*
X21982958Y23032214D01*
X21979385Y23038123D01*
X21975671Y23043945D01*
X21971818Y23049675D01*
X21967827Y23055310D01*
X21963701Y23060847D01*
X21959442Y23066282D01*
X21955053Y23071614D01*
X21950537Y23076837D01*
X21945896Y23081950D01*
X21941132Y23086950D01*
X21936250Y23091832D01*
X21931250Y23096596D01*
X21926137Y23101237D01*
X21920914Y23105753D01*
X21915582Y23110142D01*
X21910147Y23114401D01*
X21904610Y23118527D01*
X21898975Y23122518D01*
X21893245Y23126371D01*
X21887423Y23130085D01*
X21881514Y23133658D01*
X21875520Y23137086D01*
X21869445Y23140369D01*
X21863292Y23143504D01*
X21857065Y23146489D01*
X21850768Y23149323D01*
X21844405Y23152004D01*
X21837978Y23154531D01*
X21831493Y23156901D01*
X21824952Y23159114D01*
X21818359Y23161169D01*
X21811719Y23163063D01*
X21805034Y23164797D01*
X21798310Y23166368D01*
X21791550Y23167777D01*
X21784758Y23169021D01*
X21777938Y23170101D01*
X21771093Y23171017D01*
X21764229Y23171766D01*
X21757348Y23172349D01*
X21750456Y23172766D01*
X21743555Y23173017D01*
X21736650Y23173100D01*
X22022400Y22887350D02*
X22022293Y22878473D01*
X22021971Y22869600D01*
X22021434Y22860738D01*
X22020684Y22851892D01*
X22019719Y22843066D01*
X22018542Y22834267D01*
X22017152Y22825498D01*
X22015550Y22816766D01*
X22013738Y22808074D01*
X22011716Y22799430D01*
X22009486Y22790836D01*
X22007049Y22782299D01*
X22004405Y22773824D01*
X22001558Y22765415D01*
X21998508Y22757077D01*
X21995257Y22748815D01*
X21991808Y22740635D01*
X21988162Y22732540D01*
X21984321Y22724536D01*
X21980287Y22716626D01*
X21976064Y22708817D01*
X21971653Y22701113D01*
X21967056Y22693517D01*
X21962278Y22686034D01*
X21957320Y22678670D01*
X21952185Y22671427D01*
X21946877Y22664310D01*
X21941398Y22657325D01*
X21935752Y22650473D01*
X21929942Y22643760D01*
X21923971Y22637190D01*
X21917843Y22630766D01*
X21911561Y22624492D01*
X21905130Y22618371D01*
X21898553Y22612408D01*
X21891833Y22606606D01*
X21884975Y22600968D01*
X21877982Y22595498D01*
X21870859Y22590198D01*
X21863611Y22585072D01*
X21856240Y22580123D01*
X21848752Y22575353D01*
X21841150Y22570766D01*
X21833440Y22566364D01*
X21825626Y22562150D01*
X21817712Y22558126D01*
X21809704Y22554295D01*
X21801604Y22550658D01*
X21793420Y22547218D01*
X21785154Y22543978D01*
X21776813Y22540938D01*
X21768400Y22538100D01*
X21514400Y23077850D02*
X21519660Y23083239D01*
X21525052Y23088498D01*
X21530570Y23093623D01*
X21536213Y23098611D01*
X21541976Y23103459D01*
X21547856Y23108164D01*
X21553851Y23112724D01*
X21559955Y23117135D01*
X21566166Y23121395D01*
X21572479Y23125501D01*
X21578891Y23129451D01*
X21585398Y23133243D01*
X21591996Y23136873D01*
X21598682Y23140341D01*
X21605450Y23143644D01*
X21612297Y23146780D01*
X21619220Y23149746D01*
X21626213Y23152542D01*
X21633272Y23155166D01*
X21640394Y23157615D01*
X21647574Y23159889D01*
X21654807Y23161987D01*
X21662090Y23163906D01*
X21669417Y23165645D01*
X21676785Y23167205D01*
X21684189Y23168583D01*
X21691625Y23169779D01*
X21699087Y23170793D01*
X21706573Y23171623D01*
X21714076Y23172269D01*
X21721593Y23172730D01*
X21729119Y23173008D01*
X21736650Y23173100D01*
X21514400Y23077850D02*
X20879400Y22538100D01*
X20879400Y23173100D01*
D10*
X584200Y10744200D02*
X584200Y9474200D01*
X1219200Y8839200D01*
X2489200Y8839200D01*
X3124200Y9474200D01*
X1219200Y8839200D02*
X584200Y8204200D01*
X584200Y6934200D01*
X1219200Y6299200D01*
X2489200Y6299200D01*
X3124200Y6934200D01*
X3124200Y8204200D01*
X2489200Y8839200D01*
X584200Y13284200D02*
X1219200Y13919200D01*
X584200Y13284200D02*
X584200Y12014200D01*
X1219200Y11379200D01*
X2489200Y11379200D01*
X3124200Y12014200D01*
X3124200Y13284200D01*
X2489200Y13919200D01*
X1219200Y11379200D02*
X584200Y10744200D01*
X2489200Y11379200D02*
X3124200Y10744200D01*
X3124200Y9474200D01*
X584200Y17094200D02*
X584200Y18364200D01*
X584200Y17094200D02*
X1219200Y16459200D01*
X2489200Y16459200D01*
X3124200Y17094200D01*
X1219200Y16459200D02*
X584200Y15824200D01*
X584200Y14554200D01*
X1219200Y13919200D01*
X2489200Y13919200D01*
X3124200Y14554200D01*
X3124200Y15824200D01*
X2489200Y16459200D01*
X584200Y20904200D02*
X1219200Y21539200D01*
X584200Y20904200D02*
X584200Y19634200D01*
X1219200Y18999200D01*
X2489200Y18999200D01*
X3124200Y19634200D01*
X3124200Y20904200D01*
X2489200Y21539200D01*
X1219200Y18999200D02*
X584200Y18364200D01*
X2489200Y18999200D02*
X3124200Y18364200D01*
X3124200Y17094200D01*
X584200Y24714200D02*
X584200Y25984200D01*
X584200Y24714200D02*
X1219200Y24079200D01*
X2489200Y24079200D01*
X3124200Y24714200D01*
X1219200Y24079200D02*
X584200Y23444200D01*
X584200Y22174200D01*
X1219200Y21539200D01*
X2489200Y21539200D01*
X3124200Y22174200D01*
X3124200Y23444200D01*
X2489200Y24079200D01*
X584200Y28524200D02*
X1219200Y29159200D01*
X584200Y28524200D02*
X584200Y27254200D01*
X1219200Y26619200D01*
X2489200Y26619200D01*
X3124200Y27254200D01*
X3124200Y28524200D01*
X2489200Y29159200D01*
X1219200Y26619200D02*
X584200Y25984200D01*
X2489200Y26619200D02*
X3124200Y25984200D01*
X3124200Y24714200D01*
X584200Y32334200D02*
X584200Y33604200D01*
X584200Y32334200D02*
X1219200Y31699200D01*
X2489200Y31699200D01*
X3124200Y32334200D01*
X1219200Y31699200D02*
X584200Y31064200D01*
X584200Y29794200D01*
X1219200Y29159200D01*
X2489200Y29159200D01*
X3124200Y29794200D01*
X3124200Y31064200D01*
X2489200Y31699200D01*
X584200Y36144200D02*
X1219200Y36779200D01*
X584200Y36144200D02*
X584200Y34874200D01*
X1219200Y34239200D01*
X2489200Y34239200D01*
X3124200Y34874200D01*
X3124200Y36144200D01*
X2489200Y36779200D01*
X1219200Y34239200D02*
X584200Y33604200D01*
X2489200Y34239200D02*
X3124200Y33604200D01*
X3124200Y32334200D01*
X584200Y39954200D02*
X584200Y41224200D01*
X584200Y39954200D02*
X1219200Y39319200D01*
X2489200Y39319200D01*
X3124200Y39954200D01*
X1219200Y39319200D02*
X584200Y38684200D01*
X584200Y37414200D01*
X1219200Y36779200D01*
X2489200Y36779200D01*
X3124200Y37414200D01*
X3124200Y38684200D01*
X2489200Y39319200D01*
X2489200Y41859200D02*
X1219200Y41859200D01*
X584200Y41224200D01*
X2489200Y41859200D02*
X3124200Y41224200D01*
X3124200Y39954200D01*
X1219200Y6299200D02*
X584200Y5664200D01*
X584200Y4394200D01*
X1219200Y3759200D01*
X2489200Y3759200D01*
X3124200Y4394200D01*
X3124200Y5664200D01*
X2489200Y6299200D01*
D11*
X4042900Y22233031D02*
X4931900Y22233031D01*
X4042900Y22233031D02*
X4036762Y22232957D01*
X4030628Y22232734D01*
X4024502Y22232364D01*
X4018385Y22231845D01*
X4012284Y22231179D01*
X4006200Y22230366D01*
X4000137Y22229405D01*
X3994100Y22228299D01*
X3988091Y22227047D01*
X3982114Y22225650D01*
X3976172Y22224109D01*
X3970270Y22222425D01*
X3964410Y22220599D01*
X3958595Y22218632D01*
X3952830Y22216525D01*
X3947118Y22214279D01*
X3941461Y22211896D01*
X3935864Y22209377D01*
X3930329Y22206723D01*
X3924860Y22203937D01*
X3919460Y22201019D01*
X3914132Y22197971D01*
X3908879Y22194796D01*
X3903705Y22191494D01*
X3898612Y22188069D01*
X3893603Y22184521D01*
X3888681Y22180854D01*
X3883849Y22177068D01*
X3879110Y22173167D01*
X3874467Y22169153D01*
X3869922Y22165027D01*
X3865478Y22160793D01*
X3861138Y22156453D01*
X3856904Y22152009D01*
X3852778Y22147464D01*
X3848764Y22142821D01*
X3844863Y22138082D01*
X3841077Y22133250D01*
X3837410Y22128328D01*
X3833862Y22123319D01*
X3830437Y22118226D01*
X3827135Y22113052D01*
X3823960Y22107799D01*
X3820912Y22102471D01*
X3817994Y22097071D01*
X3815208Y22091602D01*
X3812554Y22086067D01*
X3810035Y22080470D01*
X3807652Y22074813D01*
X3805406Y22069101D01*
X3803299Y22063336D01*
X3801332Y22057521D01*
X3799506Y22051661D01*
X3797822Y22045759D01*
X3796281Y22039817D01*
X3794884Y22033840D01*
X3793632Y22027831D01*
X3792526Y22021794D01*
X3791565Y22015731D01*
X3790752Y22009647D01*
X3790086Y22003546D01*
X3789567Y21997429D01*
X3789197Y21991303D01*
X3788974Y21985169D01*
X3788900Y21979031D01*
X3788900Y21852031D01*
X3788900Y22831050D02*
X4931900Y22831050D01*
X4931900Y23148550D01*
X4931806Y23156281D01*
X4931523Y23164008D01*
X4931053Y23171726D01*
X4930395Y23179430D01*
X4929549Y23187116D01*
X4928517Y23194778D01*
X4927298Y23202414D01*
X4925893Y23210017D01*
X4924304Y23217584D01*
X4922531Y23225110D01*
X4920575Y23232591D01*
X4918438Y23240021D01*
X4916121Y23247398D01*
X4913624Y23254716D01*
X4910950Y23261971D01*
X4908100Y23269158D01*
X4905076Y23276275D01*
X4901880Y23283315D01*
X4898513Y23290275D01*
X4894977Y23297152D01*
X4891276Y23303940D01*
X4887410Y23310636D01*
X4883382Y23317236D01*
X4879194Y23323736D01*
X4874850Y23330132D01*
X4870351Y23336421D01*
X4865700Y23342598D01*
X4860900Y23348660D01*
X4855954Y23354603D01*
X4850865Y23360424D01*
X4845636Y23366119D01*
X4840269Y23371685D01*
X4834769Y23377119D01*
X4829137Y23382418D01*
X4823379Y23387577D01*
X4817496Y23392595D01*
X4811493Y23397469D01*
X4805373Y23402194D01*
X4799140Y23406769D01*
X4792798Y23411192D01*
X4786349Y23415458D01*
X4779799Y23419566D01*
X4773150Y23423513D01*
X4766407Y23427297D01*
X4759574Y23430916D01*
X4752655Y23434368D01*
X4745655Y23437649D01*
X4738576Y23440760D01*
X4731423Y23443697D01*
X4724201Y23446459D01*
X4716915Y23449045D01*
X4709567Y23451452D01*
X4702163Y23453679D01*
X4694706Y23455726D01*
X4687202Y23457591D01*
X4679655Y23459272D01*
X4672070Y23460769D01*
X4664450Y23462080D01*
X4656800Y23463206D01*
X4649125Y23464145D01*
X4641430Y23464897D01*
X4633719Y23465462D01*
X4625996Y23465838D01*
X4618266Y23466026D01*
X4610534Y23466026D01*
X4602804Y23465838D01*
X4595081Y23465462D01*
X4587370Y23464897D01*
X4579675Y23464145D01*
X4572000Y23463206D01*
X4564350Y23462080D01*
X4556730Y23460769D01*
X4549145Y23459272D01*
X4541598Y23457591D01*
X4534094Y23455726D01*
X4526637Y23453679D01*
X4519233Y23451452D01*
X4511885Y23449045D01*
X4504599Y23446459D01*
X4497377Y23443697D01*
X4490224Y23440760D01*
X4483145Y23437649D01*
X4476145Y23434368D01*
X4469226Y23430916D01*
X4462393Y23427297D01*
X4455650Y23423513D01*
X4449001Y23419566D01*
X4442451Y23415458D01*
X4436002Y23411192D01*
X4429660Y23406769D01*
X4423427Y23402194D01*
X4417307Y23397469D01*
X4411304Y23392595D01*
X4405421Y23387577D01*
X4399663Y23382418D01*
X4394031Y23377119D01*
X4388531Y23371685D01*
X4383164Y23366119D01*
X4377935Y23360424D01*
X4372846Y23354603D01*
X4367900Y23348660D01*
X4363100Y23342598D01*
X4358449Y23336421D01*
X4353950Y23330132D01*
X4349606Y23323736D01*
X4345418Y23317236D01*
X4341390Y23310636D01*
X4337524Y23303940D01*
X4333823Y23297152D01*
X4330287Y23290275D01*
X4326920Y23283315D01*
X4323724Y23276275D01*
X4320700Y23269158D01*
X4317850Y23261971D01*
X4315176Y23254716D01*
X4312679Y23247398D01*
X4310362Y23240021D01*
X4308225Y23232591D01*
X4306269Y23225110D01*
X4304496Y23217584D01*
X4302907Y23210017D01*
X4301502Y23202414D01*
X4300283Y23194778D01*
X4299251Y23187116D01*
X4298405Y23179430D01*
X4297747Y23171726D01*
X4297277Y23164008D01*
X4296994Y23156281D01*
X4296900Y23148550D01*
X4296900Y22831050D01*
X3788900Y23916900D02*
X3788900Y24234400D01*
X3788994Y24242131D01*
X3789277Y24249858D01*
X3789747Y24257576D01*
X3790405Y24265280D01*
X3791251Y24272966D01*
X3792283Y24280628D01*
X3793502Y24288264D01*
X3794907Y24295867D01*
X3796496Y24303434D01*
X3798269Y24310960D01*
X3800225Y24318441D01*
X3802362Y24325871D01*
X3804679Y24333248D01*
X3807176Y24340566D01*
X3809850Y24347821D01*
X3812700Y24355008D01*
X3815724Y24362125D01*
X3818920Y24369165D01*
X3822287Y24376125D01*
X3825823Y24383002D01*
X3829524Y24389790D01*
X3833390Y24396486D01*
X3837418Y24403086D01*
X3841606Y24409586D01*
X3845950Y24415982D01*
X3850449Y24422271D01*
X3855100Y24428448D01*
X3859900Y24434510D01*
X3864846Y24440453D01*
X3869935Y24446274D01*
X3875164Y24451969D01*
X3880531Y24457535D01*
X3886031Y24462969D01*
X3891663Y24468268D01*
X3897421Y24473427D01*
X3903304Y24478445D01*
X3909307Y24483319D01*
X3915427Y24488044D01*
X3921660Y24492619D01*
X3928002Y24497042D01*
X3934451Y24501308D01*
X3941001Y24505416D01*
X3947650Y24509363D01*
X3954393Y24513147D01*
X3961226Y24516766D01*
X3968145Y24520218D01*
X3975145Y24523499D01*
X3982224Y24526610D01*
X3989377Y24529547D01*
X3996599Y24532309D01*
X4003885Y24534895D01*
X4011233Y24537302D01*
X4018637Y24539529D01*
X4026094Y24541576D01*
X4033598Y24543441D01*
X4041145Y24545122D01*
X4048730Y24546619D01*
X4056350Y24547930D01*
X4064000Y24549056D01*
X4071675Y24549995D01*
X4079370Y24550747D01*
X4087081Y24551312D01*
X4094804Y24551688D01*
X4102534Y24551876D01*
X4110266Y24551876D01*
X4117996Y24551688D01*
X4125719Y24551312D01*
X4133430Y24550747D01*
X4141125Y24549995D01*
X4148800Y24549056D01*
X4156450Y24547930D01*
X4164070Y24546619D01*
X4171655Y24545122D01*
X4179202Y24543441D01*
X4186706Y24541576D01*
X4194163Y24539529D01*
X4201567Y24537302D01*
X4208915Y24534895D01*
X4216201Y24532309D01*
X4223423Y24529547D01*
X4230576Y24526610D01*
X4237655Y24523499D01*
X4244655Y24520218D01*
X4251574Y24516766D01*
X4258407Y24513147D01*
X4265150Y24509363D01*
X4271799Y24505416D01*
X4278349Y24501308D01*
X4284798Y24497042D01*
X4291140Y24492619D01*
X4297373Y24488044D01*
X4303493Y24483319D01*
X4309496Y24478445D01*
X4315379Y24473427D01*
X4321137Y24468268D01*
X4326769Y24462969D01*
X4332269Y24457535D01*
X4337636Y24451969D01*
X4342865Y24446274D01*
X4347954Y24440453D01*
X4352900Y24434510D01*
X4357700Y24428448D01*
X4362351Y24422271D01*
X4366850Y24415982D01*
X4371194Y24409586D01*
X4375382Y24403086D01*
X4379410Y24396486D01*
X4383276Y24389790D01*
X4386977Y24383002D01*
X4390513Y24376125D01*
X4393880Y24369165D01*
X4397076Y24362125D01*
X4400100Y24355008D01*
X4402950Y24347821D01*
X4405624Y24340566D01*
X4408121Y24333248D01*
X4410438Y24325871D01*
X4412575Y24318441D01*
X4414531Y24310960D01*
X4416304Y24303434D01*
X4417893Y24295867D01*
X4419298Y24288264D01*
X4420517Y24280628D01*
X4421549Y24272966D01*
X4422395Y24265280D01*
X4423053Y24257576D01*
X4423523Y24249858D01*
X4423806Y24242131D01*
X4423900Y24234400D01*
X4931900Y24297900D02*
X4931900Y23916900D01*
X4931900Y24297900D02*
X4931825Y24304085D01*
X4931599Y24310267D01*
X4931222Y24316441D01*
X4930696Y24322604D01*
X4930019Y24328752D01*
X4929193Y24334883D01*
X4928218Y24340991D01*
X4927095Y24347074D01*
X4925823Y24353127D01*
X4924405Y24359148D01*
X4922840Y24365133D01*
X4921131Y24371077D01*
X4919276Y24376978D01*
X4917279Y24382833D01*
X4915140Y24388637D01*
X4912860Y24394387D01*
X4910441Y24400080D01*
X4907884Y24405712D01*
X4905190Y24411280D01*
X4902362Y24416782D01*
X4899401Y24422212D01*
X4896308Y24427569D01*
X4893085Y24432849D01*
X4889735Y24438049D01*
X4886260Y24443166D01*
X4882661Y24448197D01*
X4878940Y24453138D01*
X4875100Y24457988D01*
X4871144Y24462742D01*
X4867072Y24467399D01*
X4862889Y24471955D01*
X4858595Y24476408D01*
X4854195Y24480755D01*
X4849690Y24484994D01*
X4845083Y24489122D01*
X4840377Y24493136D01*
X4835575Y24497035D01*
X4830679Y24500815D01*
X4825692Y24504476D01*
X4820618Y24508013D01*
X4815459Y24511426D01*
X4810219Y24514713D01*
X4804900Y24517870D01*
X4799506Y24520898D01*
X4794040Y24523793D01*
X4788504Y24526554D01*
X4782904Y24529180D01*
X4777241Y24531668D01*
X4771519Y24534018D01*
X4765741Y24536227D01*
X4759912Y24538296D01*
X4754033Y24540221D01*
X4748110Y24542004D01*
X4742145Y24543641D01*
X4736142Y24545132D01*
X4730104Y24546477D01*
X4724036Y24547675D01*
X4717940Y24548724D01*
X4711820Y24549625D01*
X4705680Y24550376D01*
X4699524Y24550978D01*
X4693355Y24551429D01*
X4687177Y24551731D01*
X4680993Y24551881D01*
X4674807Y24551881D01*
X4668623Y24551731D01*
X4662445Y24551429D01*
X4656276Y24550978D01*
X4650120Y24550376D01*
X4643980Y24549625D01*
X4637860Y24548724D01*
X4631764Y24547675D01*
X4625696Y24546477D01*
X4619658Y24545132D01*
X4613655Y24543641D01*
X4607690Y24542004D01*
X4601767Y24540221D01*
X4595888Y24538296D01*
X4590059Y24536227D01*
X4584281Y24534018D01*
X4578559Y24531668D01*
X4572896Y24529180D01*
X4567296Y24526554D01*
X4561760Y24523793D01*
X4556294Y24520898D01*
X4550900Y24517870D01*
X4545581Y24514713D01*
X4540341Y24511426D01*
X4535182Y24508013D01*
X4530108Y24504476D01*
X4525121Y24500815D01*
X4520225Y24497035D01*
X4515423Y24493136D01*
X4510717Y24489122D01*
X4506110Y24484994D01*
X4501605Y24480755D01*
X4497205Y24476408D01*
X4492911Y24471955D01*
X4488728Y24467399D01*
X4484656Y24462742D01*
X4480700Y24457988D01*
X4476860Y24453138D01*
X4473139Y24448197D01*
X4469540Y24443166D01*
X4466065Y24438049D01*
X4462715Y24432849D01*
X4459492Y24427569D01*
X4456399Y24422212D01*
X4453438Y24416782D01*
X4450610Y24411280D01*
X4447916Y24405712D01*
X4445359Y24400080D01*
X4442940Y24394387D01*
X4440660Y24388637D01*
X4438521Y24382833D01*
X4436524Y24376978D01*
X4434669Y24371077D01*
X4432960Y24365133D01*
X4431395Y24359148D01*
X4429977Y24353127D01*
X4428705Y24347074D01*
X4427582Y24340991D01*
X4426607Y24334883D01*
X4425781Y24328752D01*
X4425104Y24322604D01*
X4424578Y24316441D01*
X4424201Y24310267D01*
X4423975Y24304085D01*
X4423900Y24297900D01*
X4423900Y24043900D01*
M02*
