G04 EAGLE Gerber X2 export*
%TF.Part,Single*%
%TF.FileFunction,Legend,Top,1*%
%TF.FilePolarity,Positive*%
%TF.GenerationSoftware,Autodesk,EAGLE,9.6.2*%
%TF.CreationDate,2022-05-08T12:24:25Z*%
G75*
%MOMM*%
%FSLAX46Y46*%
%LPD*%
%INSilkscreen Top*%
%AMOC8*
5,1,8,0,0,1.08239X$1,22.5*%
G01*
%ADD10C,0.101600*%
%ADD11C,0.152400*%
%ADD12C,0.762000*%
%ADD13R,0.762000X0.508000*%
%ADD14R,0.762000X1.016000*%
%ADD15C,0.127000*%
%ADD16R,0.300000X0.150000*%
%ADD17R,0.300000X0.300000*%
%ADD18R,0.150000X0.300000*%
%ADD19C,0.254000*%
%ADD20C,0.508000*%
%ADD21C,0.200000*%
%ADD22C,0.447213*%


D10*
X20656600Y6586259D02*
X20656600Y6326616D01*
X20656524Y6320342D01*
X20656297Y6314072D01*
X20655918Y6307809D01*
X20655388Y6301557D01*
X20654707Y6295319D01*
X20653875Y6289100D01*
X20652894Y6282903D01*
X20651763Y6276731D01*
X20650483Y6270589D01*
X20649055Y6264479D01*
X20647480Y6258406D01*
X20645759Y6252372D01*
X20643892Y6246382D01*
X20641881Y6240438D01*
X20639727Y6234545D01*
X20637432Y6228706D01*
X20634996Y6222923D01*
X20632420Y6217202D01*
X20629708Y6211544D01*
X20626859Y6205953D01*
X20623877Y6200433D01*
X20620761Y6194987D01*
X20617515Y6189617D01*
X20614140Y6184328D01*
X20610639Y6179121D01*
X20607012Y6174001D01*
X20603263Y6168970D01*
X20599394Y6164031D01*
X20595406Y6159187D01*
X20591302Y6154440D01*
X20587085Y6149794D01*
X20582757Y6145252D01*
X20578320Y6140815D01*
X20573778Y6136487D01*
X20569132Y6132270D01*
X20564385Y6128166D01*
X20559541Y6124178D01*
X20554602Y6120309D01*
X20549571Y6116560D01*
X20544451Y6112933D01*
X20539244Y6109432D01*
X20533955Y6106057D01*
X20528585Y6102811D01*
X20523139Y6099695D01*
X20517619Y6096713D01*
X20512028Y6093864D01*
X20506370Y6091152D01*
X20500649Y6088576D01*
X20494866Y6086140D01*
X20489027Y6083845D01*
X20483134Y6081691D01*
X20477190Y6079680D01*
X20471200Y6077813D01*
X20465166Y6076092D01*
X20459093Y6074517D01*
X20452983Y6073089D01*
X20446841Y6071809D01*
X20440669Y6070678D01*
X20434472Y6069697D01*
X20428253Y6068865D01*
X20422015Y6068184D01*
X20415763Y6067654D01*
X20409500Y6067275D01*
X20403230Y6067048D01*
X20396956Y6066972D01*
X19747847Y6066972D01*
X19741475Y6067050D01*
X19735107Y6067285D01*
X19728746Y6067676D01*
X19722397Y6068222D01*
X19716064Y6068925D01*
X19709749Y6069782D01*
X19703457Y6070795D01*
X19697193Y6071961D01*
X19690958Y6073281D01*
X19684758Y6074753D01*
X19678596Y6076377D01*
X19672476Y6078152D01*
X19666401Y6080077D01*
X19660375Y6082150D01*
X19654402Y6084370D01*
X19648485Y6086736D01*
X19642628Y6089247D01*
X19636834Y6091900D01*
X19631107Y6094695D01*
X19625451Y6097630D01*
X19619868Y6100703D01*
X19614362Y6103912D01*
X19608937Y6107255D01*
X19603595Y6110730D01*
X19598340Y6114335D01*
X19593176Y6118068D01*
X19588104Y6121926D01*
X19583129Y6125908D01*
X19578253Y6130011D01*
X19573479Y6134232D01*
X19568810Y6138569D01*
X19564249Y6143020D01*
X19559798Y6147580D01*
X19555461Y6152249D01*
X19551240Y6157023D01*
X19547137Y6161899D01*
X19543155Y6166874D01*
X19539296Y6171946D01*
X19535563Y6177110D01*
X19531958Y6182365D01*
X19528483Y6187706D01*
X19525140Y6193132D01*
X19521931Y6198637D01*
X19518858Y6204220D01*
X19515923Y6209876D01*
X19513128Y6215603D01*
X19510474Y6221397D01*
X19507963Y6227254D01*
X19505597Y6233171D01*
X19503377Y6239144D01*
X19501304Y6245170D01*
X19499379Y6251245D01*
X19497604Y6257365D01*
X19495980Y6263527D01*
X19494507Y6269727D01*
X19493187Y6275961D01*
X19492021Y6282226D01*
X19491008Y6288518D01*
X19490150Y6294832D01*
X19489448Y6301166D01*
X19488901Y6307515D01*
X19488510Y6313876D01*
X19488275Y6320244D01*
X19488197Y6326616D01*
X19488200Y6326616D02*
X19488200Y6586259D01*
X19747847Y7022791D02*
X19488200Y7347344D01*
X20656600Y7347344D01*
X20656600Y7022791D02*
X20656600Y7671900D01*
X15147963Y11363500D02*
X14888319Y11363500D01*
X14882045Y11363576D01*
X14875775Y11363803D01*
X14869512Y11364182D01*
X14863260Y11364712D01*
X14857022Y11365393D01*
X14850803Y11366225D01*
X14844606Y11367206D01*
X14838434Y11368337D01*
X14832292Y11369617D01*
X14826182Y11371045D01*
X14820109Y11372620D01*
X14814075Y11374341D01*
X14808085Y11376208D01*
X14802141Y11378219D01*
X14796248Y11380373D01*
X14790409Y11382668D01*
X14784626Y11385104D01*
X14778905Y11387680D01*
X14773247Y11390392D01*
X14767656Y11393241D01*
X14762136Y11396223D01*
X14756690Y11399339D01*
X14751320Y11402585D01*
X14746031Y11405960D01*
X14740824Y11409461D01*
X14735704Y11413088D01*
X14730673Y11416837D01*
X14725734Y11420706D01*
X14720890Y11424694D01*
X14716143Y11428798D01*
X14711497Y11433015D01*
X14706955Y11437343D01*
X14702518Y11441780D01*
X14698190Y11446322D01*
X14693973Y11450968D01*
X14689869Y11455715D01*
X14685881Y11460559D01*
X14682012Y11465498D01*
X14678263Y11470529D01*
X14674636Y11475649D01*
X14671135Y11480856D01*
X14667760Y11486145D01*
X14664514Y11491515D01*
X14661398Y11496961D01*
X14658416Y11502481D01*
X14655567Y11508072D01*
X14652855Y11513730D01*
X14650279Y11519451D01*
X14647843Y11525234D01*
X14645548Y11531073D01*
X14643394Y11536966D01*
X14641383Y11542910D01*
X14639516Y11548900D01*
X14637795Y11554934D01*
X14636220Y11561007D01*
X14634792Y11567117D01*
X14633512Y11573259D01*
X14632381Y11579431D01*
X14631400Y11585628D01*
X14630568Y11591847D01*
X14629887Y11598085D01*
X14629357Y11604337D01*
X14628978Y11610600D01*
X14628751Y11616870D01*
X14628675Y11623144D01*
X14628675Y12272253D01*
X14628753Y12278625D01*
X14628988Y12284993D01*
X14629379Y12291354D01*
X14629925Y12297703D01*
X14630628Y12304036D01*
X14631485Y12310351D01*
X14632498Y12316642D01*
X14633664Y12322907D01*
X14634984Y12329142D01*
X14636456Y12335342D01*
X14638080Y12341504D01*
X14639855Y12347624D01*
X14641780Y12353699D01*
X14643853Y12359725D01*
X14646073Y12365698D01*
X14648439Y12371615D01*
X14650950Y12377472D01*
X14653604Y12383266D01*
X14656399Y12388992D01*
X14659333Y12394649D01*
X14662406Y12400232D01*
X14665615Y12405737D01*
X14668958Y12411163D01*
X14672433Y12416504D01*
X14676038Y12421759D01*
X14679771Y12426924D01*
X14683629Y12431995D01*
X14687611Y12436970D01*
X14691714Y12441846D01*
X14695935Y12446620D01*
X14700272Y12451289D01*
X14704723Y12455850D01*
X14709284Y12460300D01*
X14713953Y12464638D01*
X14718726Y12468859D01*
X14723602Y12472962D01*
X14728578Y12476944D01*
X14733649Y12480802D01*
X14738814Y12484535D01*
X14744068Y12488141D01*
X14749410Y12491616D01*
X14754835Y12494959D01*
X14760341Y12498167D01*
X14765923Y12501240D01*
X14771580Y12504175D01*
X14777307Y12506970D01*
X14783100Y12509624D01*
X14788957Y12512135D01*
X14794874Y12514501D01*
X14800847Y12516721D01*
X14806873Y12518794D01*
X14812948Y12520719D01*
X14819068Y12522494D01*
X14825230Y12524118D01*
X14831430Y12525591D01*
X14837665Y12526910D01*
X14843930Y12528077D01*
X14850221Y12529089D01*
X14856536Y12529947D01*
X14862869Y12530649D01*
X14869218Y12531196D01*
X14875579Y12531587D01*
X14881947Y12531822D01*
X14888319Y12531900D01*
X15147963Y12531900D01*
X15584494Y12272253D02*
X15909047Y12531900D01*
X15909047Y11363500D01*
X15584494Y11363500D02*
X16233603Y11363500D01*
X16727491Y11947700D02*
X16727765Y11970684D01*
X16728588Y11993656D01*
X16729959Y12016601D01*
X16731878Y12039507D01*
X16734342Y12062360D01*
X16737352Y12085148D01*
X16740905Y12107858D01*
X16744998Y12130477D01*
X16749631Y12152991D01*
X16754799Y12175388D01*
X16760501Y12197656D01*
X16766733Y12219781D01*
X16773491Y12241751D01*
X16780772Y12263554D01*
X16788571Y12285176D01*
X16796884Y12306607D01*
X16805706Y12327832D01*
X16815032Y12348841D01*
X16824857Y12369622D01*
X16824855Y12369622D02*
X16826816Y12375125D01*
X16828911Y12380578D01*
X16831138Y12385979D01*
X16833496Y12391323D01*
X16835983Y12396609D01*
X16838597Y12401833D01*
X16841338Y12406992D01*
X16844204Y12412082D01*
X16847193Y12417101D01*
X16850302Y12422047D01*
X16853532Y12426915D01*
X16856878Y12431703D01*
X16860340Y12436408D01*
X16863916Y12441027D01*
X16867602Y12445559D01*
X16871398Y12449999D01*
X16875301Y12454346D01*
X16879308Y12458596D01*
X16883418Y12462748D01*
X16887627Y12466799D01*
X16891934Y12470746D01*
X16896335Y12474587D01*
X16900828Y12478320D01*
X16905411Y12481942D01*
X16910081Y12485452D01*
X16914834Y12488847D01*
X16919669Y12492126D01*
X16924582Y12495286D01*
X16929571Y12498326D01*
X16934631Y12501244D01*
X16939762Y12504037D01*
X16944959Y12506705D01*
X16950219Y12509246D01*
X16955539Y12511658D01*
X16960917Y12513941D01*
X16966348Y12516091D01*
X16971830Y12518109D01*
X16977360Y12519993D01*
X16982933Y12521742D01*
X16988548Y12523355D01*
X16994200Y12524830D01*
X16999887Y12526168D01*
X17005604Y12527367D01*
X17011349Y12528427D01*
X17017117Y12529347D01*
X17022907Y12530126D01*
X17028714Y12530764D01*
X17034534Y12531261D01*
X17040365Y12531616D01*
X17046203Y12531829D01*
X17052044Y12531900D01*
X17057885Y12531829D01*
X17063723Y12531616D01*
X17069554Y12531261D01*
X17075374Y12530764D01*
X17081181Y12530126D01*
X17086971Y12529347D01*
X17092740Y12528427D01*
X17098484Y12527367D01*
X17104202Y12526168D01*
X17109888Y12524830D01*
X17115540Y12523354D01*
X17121155Y12521742D01*
X17126729Y12519993D01*
X17132258Y12518109D01*
X17137740Y12516091D01*
X17143172Y12513940D01*
X17148549Y12511658D01*
X17153870Y12509246D01*
X17159130Y12506705D01*
X17164327Y12504037D01*
X17169457Y12501244D01*
X17174518Y12498326D01*
X17179506Y12495286D01*
X17184419Y12492126D01*
X17189254Y12488847D01*
X17194008Y12485452D01*
X17198677Y12481942D01*
X17203260Y12478319D01*
X17207753Y12474586D01*
X17212155Y12470745D01*
X17216461Y12466798D01*
X17220671Y12462748D01*
X17224780Y12458596D01*
X17228787Y12454345D01*
X17232690Y12449999D01*
X17236486Y12445558D01*
X17240173Y12441027D01*
X17243748Y12436407D01*
X17247210Y12431702D01*
X17250557Y12426914D01*
X17253786Y12422046D01*
X17256896Y12417101D01*
X17259884Y12412081D01*
X17262750Y12406991D01*
X17265491Y12401832D01*
X17268106Y12396608D01*
X17270593Y12391322D01*
X17272950Y12385978D01*
X17275177Y12380577D01*
X17277272Y12375124D01*
X17279234Y12369621D01*
X17279234Y12369622D02*
X17289059Y12348841D01*
X17298385Y12327832D01*
X17307207Y12306607D01*
X17315520Y12285176D01*
X17323319Y12263554D01*
X17330600Y12241751D01*
X17337358Y12219781D01*
X17343590Y12197656D01*
X17349292Y12175388D01*
X17354460Y12152991D01*
X17359093Y12130477D01*
X17363186Y12107858D01*
X17366739Y12085148D01*
X17369749Y12062360D01*
X17372213Y12039507D01*
X17374132Y12016601D01*
X17375503Y11993656D01*
X17376326Y11970684D01*
X17376600Y11947700D01*
X16727490Y11947700D02*
X16727764Y11924715D01*
X16728587Y11901744D01*
X16729958Y11878799D01*
X16731877Y11855893D01*
X16734341Y11833039D01*
X16737351Y11810251D01*
X16740904Y11787541D01*
X16744997Y11764922D01*
X16749630Y11742407D01*
X16754798Y11720010D01*
X16760500Y11697742D01*
X16766732Y11675617D01*
X16773490Y11653646D01*
X16780770Y11631844D01*
X16788569Y11610221D01*
X16796882Y11588791D01*
X16805704Y11567565D01*
X16815031Y11546556D01*
X16824856Y11525775D01*
X16826817Y11520272D01*
X16828912Y11514819D01*
X16831139Y11509419D01*
X16833497Y11504074D01*
X16835984Y11498788D01*
X16838599Y11493565D01*
X16841340Y11488406D01*
X16844205Y11483316D01*
X16847194Y11478297D01*
X16850304Y11473351D01*
X16853533Y11468484D01*
X16856879Y11463696D01*
X16860342Y11458990D01*
X16863917Y11454371D01*
X16867604Y11449840D01*
X16871400Y11445399D01*
X16875302Y11441053D01*
X16879310Y11436802D01*
X16883419Y11432651D01*
X16887628Y11428600D01*
X16891935Y11424653D01*
X16896336Y11420812D01*
X16900830Y11417079D01*
X16905412Y11413457D01*
X16910082Y11409947D01*
X16914835Y11406552D01*
X16919670Y11403273D01*
X16924583Y11400113D01*
X16929572Y11397073D01*
X16934633Y11394156D01*
X16939763Y11391362D01*
X16944960Y11388694D01*
X16950220Y11386153D01*
X16955540Y11383741D01*
X16960918Y11381459D01*
X16966349Y11379309D01*
X16971831Y11377291D01*
X16977360Y11375407D01*
X16982934Y11373658D01*
X16988549Y11372045D01*
X16994201Y11370570D01*
X16999887Y11369232D01*
X17005604Y11368033D01*
X17011349Y11366973D01*
X17017118Y11366053D01*
X17022907Y11365274D01*
X17028714Y11364636D01*
X17034534Y11364139D01*
X17040365Y11363784D01*
X17046203Y11363571D01*
X17052044Y11363500D01*
X17279235Y11525775D02*
X17289060Y11546555D01*
X17298386Y11567565D01*
X17307208Y11588790D01*
X17315521Y11610221D01*
X17323320Y11631844D01*
X17330600Y11653646D01*
X17337358Y11675617D01*
X17343590Y11697742D01*
X17349292Y11720010D01*
X17354460Y11742407D01*
X17359093Y11764922D01*
X17363187Y11787541D01*
X17366739Y11810251D01*
X17369749Y11833039D01*
X17372213Y11855893D01*
X17374132Y11878799D01*
X17375503Y11901744D01*
X17376326Y11924715D01*
X17376600Y11947700D01*
X17279233Y11525776D02*
X17277271Y11520273D01*
X17275176Y11514820D01*
X17272949Y11509420D01*
X17270592Y11504075D01*
X17268105Y11498789D01*
X17265490Y11493566D01*
X17262749Y11488407D01*
X17259883Y11483316D01*
X17256895Y11478297D01*
X17253785Y11473352D01*
X17250556Y11468484D01*
X17247209Y11463696D01*
X17243747Y11458991D01*
X17240171Y11454371D01*
X17236485Y11449840D01*
X17232689Y11445400D01*
X17228786Y11441053D01*
X17224779Y11436803D01*
X17220669Y11432651D01*
X17216460Y11428601D01*
X17212153Y11424654D01*
X17207752Y11420813D01*
X17203259Y11417080D01*
X17198676Y11413457D01*
X17194006Y11409947D01*
X17189253Y11406552D01*
X17184418Y11403273D01*
X17179505Y11400113D01*
X17174517Y11397073D01*
X17169456Y11394156D01*
X17164325Y11391362D01*
X17159129Y11388694D01*
X17153869Y11386153D01*
X17148548Y11383741D01*
X17143171Y11381459D01*
X17137739Y11379309D01*
X17132257Y11377291D01*
X17126728Y11375407D01*
X17121154Y11373658D01*
X17115540Y11372045D01*
X17109887Y11370570D01*
X17104201Y11369232D01*
X17098484Y11368033D01*
X17092739Y11366973D01*
X17086970Y11366053D01*
X17081181Y11365274D01*
X17075374Y11364636D01*
X17069554Y11364139D01*
X17063723Y11363784D01*
X17057885Y11363571D01*
X17052044Y11363500D01*
X16792400Y11623144D02*
X17311691Y12272253D01*
X9426600Y16036616D02*
X9426600Y16296259D01*
X9426600Y16036616D02*
X9426524Y16030342D01*
X9426297Y16024072D01*
X9425918Y16017809D01*
X9425388Y16011557D01*
X9424707Y16005319D01*
X9423875Y15999100D01*
X9422894Y15992903D01*
X9421763Y15986731D01*
X9420483Y15980589D01*
X9419055Y15974479D01*
X9417480Y15968406D01*
X9415759Y15962372D01*
X9413892Y15956382D01*
X9411881Y15950438D01*
X9409727Y15944545D01*
X9407432Y15938706D01*
X9404996Y15932923D01*
X9402420Y15927202D01*
X9399708Y15921544D01*
X9396859Y15915953D01*
X9393877Y15910433D01*
X9390761Y15904987D01*
X9387515Y15899617D01*
X9384140Y15894328D01*
X9380639Y15889121D01*
X9377012Y15884001D01*
X9373263Y15878970D01*
X9369394Y15874031D01*
X9365406Y15869187D01*
X9361302Y15864440D01*
X9357085Y15859794D01*
X9352757Y15855252D01*
X9348320Y15850815D01*
X9343778Y15846487D01*
X9339132Y15842270D01*
X9334385Y15838166D01*
X9329541Y15834178D01*
X9324602Y15830309D01*
X9319571Y15826560D01*
X9314451Y15822933D01*
X9309244Y15819432D01*
X9303955Y15816057D01*
X9298585Y15812811D01*
X9293139Y15809695D01*
X9287619Y15806713D01*
X9282028Y15803864D01*
X9276370Y15801152D01*
X9270649Y15798576D01*
X9264866Y15796140D01*
X9259027Y15793845D01*
X9253134Y15791691D01*
X9247190Y15789680D01*
X9241200Y15787813D01*
X9235166Y15786092D01*
X9229093Y15784517D01*
X9222983Y15783089D01*
X9216841Y15781809D01*
X9210669Y15780678D01*
X9204472Y15779697D01*
X9198253Y15778865D01*
X9192015Y15778184D01*
X9185763Y15777654D01*
X9179500Y15777275D01*
X9173230Y15777048D01*
X9166956Y15776972D01*
X8517847Y15776972D01*
X8511475Y15777050D01*
X8505107Y15777285D01*
X8498746Y15777676D01*
X8492397Y15778222D01*
X8486064Y15778925D01*
X8479749Y15779782D01*
X8473457Y15780795D01*
X8467193Y15781961D01*
X8460958Y15783281D01*
X8454758Y15784753D01*
X8448596Y15786377D01*
X8442476Y15788152D01*
X8436401Y15790077D01*
X8430375Y15792150D01*
X8424402Y15794370D01*
X8418485Y15796736D01*
X8412628Y15799247D01*
X8406834Y15801900D01*
X8401107Y15804695D01*
X8395451Y15807630D01*
X8389868Y15810703D01*
X8384362Y15813912D01*
X8378937Y15817255D01*
X8373595Y15820730D01*
X8368340Y15824335D01*
X8363176Y15828068D01*
X8358104Y15831926D01*
X8353129Y15835908D01*
X8348253Y15840011D01*
X8343479Y15844232D01*
X8338810Y15848569D01*
X8334249Y15853020D01*
X8329798Y15857580D01*
X8325461Y15862249D01*
X8321240Y15867023D01*
X8317137Y15871899D01*
X8313155Y15876874D01*
X8309296Y15881946D01*
X8305563Y15887110D01*
X8301958Y15892365D01*
X8298483Y15897706D01*
X8295140Y15903132D01*
X8291931Y15908637D01*
X8288858Y15914220D01*
X8285923Y15919876D01*
X8283128Y15925603D01*
X8280474Y15931397D01*
X8277963Y15937254D01*
X8275597Y15943171D01*
X8273377Y15949144D01*
X8271304Y15955170D01*
X8269379Y15961245D01*
X8267604Y15967365D01*
X8265980Y15973527D01*
X8264507Y15979727D01*
X8263187Y15985961D01*
X8262021Y15992226D01*
X8261008Y15998518D01*
X8260150Y16004832D01*
X8259448Y16011166D01*
X8258901Y16017515D01*
X8258510Y16023876D01*
X8258275Y16030244D01*
X8258197Y16036616D01*
X8258200Y16036616D02*
X8258200Y16296259D01*
X8258200Y17089800D02*
X8258285Y17096858D01*
X8258541Y17103912D01*
X8258967Y17110958D01*
X8259564Y17117992D01*
X8260330Y17125009D01*
X8261265Y17132005D01*
X8262369Y17138977D01*
X8263642Y17145920D01*
X8265082Y17152831D01*
X8266688Y17159704D01*
X8268460Y17166537D01*
X8270396Y17173325D01*
X8272496Y17180064D01*
X8274759Y17186750D01*
X8277182Y17193380D01*
X8279764Y17199949D01*
X8282505Y17206454D01*
X8285402Y17212891D01*
X8288454Y17219256D01*
X8291658Y17225546D01*
X8295014Y17231756D01*
X8298519Y17237883D01*
X8302170Y17243924D01*
X8305967Y17249874D01*
X8309906Y17255732D01*
X8313986Y17261492D01*
X8318204Y17267152D01*
X8322557Y17272709D01*
X8327043Y17278158D01*
X8331660Y17283498D01*
X8336404Y17288725D01*
X8341274Y17293835D01*
X8346265Y17298826D01*
X8351375Y17303696D01*
X8356602Y17308440D01*
X8361942Y17313057D01*
X8367391Y17317543D01*
X8372948Y17321896D01*
X8378608Y17326114D01*
X8384368Y17330194D01*
X8390226Y17334133D01*
X8396176Y17337930D01*
X8402217Y17341581D01*
X8408344Y17345086D01*
X8414554Y17348442D01*
X8420844Y17351646D01*
X8427209Y17354698D01*
X8433646Y17357595D01*
X8440151Y17360336D01*
X8446720Y17362918D01*
X8453350Y17365341D01*
X8460036Y17367604D01*
X8466775Y17369704D01*
X8473563Y17371640D01*
X8480396Y17373412D01*
X8487269Y17375018D01*
X8494180Y17376458D01*
X8501123Y17377731D01*
X8508095Y17378835D01*
X8515091Y17379770D01*
X8522108Y17380536D01*
X8529142Y17381133D01*
X8536188Y17381559D01*
X8543242Y17381815D01*
X8550300Y17381900D01*
X8258200Y17089800D02*
X8258310Y17080725D01*
X8258639Y17071656D01*
X8259187Y17062597D01*
X8259955Y17053554D01*
X8260940Y17044532D01*
X8262144Y17035537D01*
X8263565Y17026573D01*
X8265202Y17017647D01*
X8267054Y17008762D01*
X8269121Y16999925D01*
X8271401Y16991141D01*
X8273893Y16982414D01*
X8276595Y16973750D01*
X8279506Y16965154D01*
X8282623Y16956631D01*
X8285946Y16948186D01*
X8289472Y16939824D01*
X8293200Y16931549D01*
X8297126Y16923367D01*
X8301249Y16915282D01*
X8305567Y16907299D01*
X8310076Y16899423D01*
X8314774Y16891659D01*
X8319659Y16884010D01*
X8324727Y16876481D01*
X8329976Y16869078D01*
X8335402Y16861803D01*
X8341003Y16854662D01*
X8346775Y16847658D01*
X8352714Y16840796D01*
X8358817Y16834080D01*
X8365082Y16827513D01*
X8371503Y16821100D01*
X8378077Y16814843D01*
X8384801Y16808748D01*
X8391670Y16802817D01*
X8398681Y16797054D01*
X8405829Y16791461D01*
X8413110Y16786044D01*
X8420520Y16780804D01*
X8428054Y16775745D01*
X8435709Y16770869D01*
X8443479Y16766180D01*
X8451361Y16761681D01*
X8459349Y16757373D01*
X8467438Y16753260D01*
X8475625Y16749343D01*
X8483904Y16745626D01*
X8492271Y16742110D01*
X8500720Y16738797D01*
X8509247Y16735689D01*
X8517847Y16732789D01*
X8777490Y17284534D02*
X8772113Y17290043D01*
X8766602Y17295419D01*
X8760961Y17300657D01*
X8755193Y17305756D01*
X8749301Y17310712D01*
X8743290Y17315522D01*
X8737163Y17320182D01*
X8730923Y17324691D01*
X8724574Y17329046D01*
X8718120Y17333244D01*
X8711565Y17337281D01*
X8704914Y17341157D01*
X8698169Y17344869D01*
X8691335Y17348413D01*
X8684416Y17351790D01*
X8677416Y17354995D01*
X8670340Y17358028D01*
X8663192Y17360886D01*
X8655975Y17363567D01*
X8648695Y17366071D01*
X8641356Y17368396D01*
X8633962Y17370540D01*
X8626518Y17372501D01*
X8619027Y17374280D01*
X8611496Y17375874D01*
X8603927Y17377283D01*
X8596326Y17378506D01*
X8588697Y17379541D01*
X8581046Y17380390D01*
X8573376Y17381050D01*
X8565691Y17381522D01*
X8557998Y17381806D01*
X8550300Y17381900D01*
X8777491Y17284534D02*
X9426600Y16732791D01*
X9426600Y17381900D01*
X11806600Y15342788D02*
X11806600Y15083144D01*
X11806524Y15076870D01*
X11806297Y15070600D01*
X11805918Y15064337D01*
X11805388Y15058085D01*
X11804707Y15051847D01*
X11803875Y15045628D01*
X11802894Y15039431D01*
X11801763Y15033259D01*
X11800483Y15027117D01*
X11799055Y15021007D01*
X11797480Y15014934D01*
X11795759Y15008900D01*
X11793892Y15002910D01*
X11791881Y14996966D01*
X11789727Y14991073D01*
X11787432Y14985234D01*
X11784996Y14979451D01*
X11782420Y14973730D01*
X11779708Y14968072D01*
X11776859Y14962481D01*
X11773877Y14956961D01*
X11770761Y14951515D01*
X11767515Y14946145D01*
X11764140Y14940856D01*
X11760639Y14935649D01*
X11757012Y14930529D01*
X11753263Y14925498D01*
X11749394Y14920559D01*
X11745406Y14915715D01*
X11741302Y14910968D01*
X11737085Y14906322D01*
X11732757Y14901780D01*
X11728320Y14897343D01*
X11723778Y14893015D01*
X11719132Y14888798D01*
X11714385Y14884694D01*
X11709541Y14880706D01*
X11704602Y14876837D01*
X11699571Y14873088D01*
X11694451Y14869461D01*
X11689244Y14865960D01*
X11683955Y14862585D01*
X11678585Y14859339D01*
X11673139Y14856223D01*
X11667619Y14853241D01*
X11662028Y14850392D01*
X11656370Y14847680D01*
X11650649Y14845104D01*
X11644866Y14842668D01*
X11639027Y14840373D01*
X11633134Y14838219D01*
X11627190Y14836208D01*
X11621200Y14834341D01*
X11615166Y14832620D01*
X11609093Y14831045D01*
X11602983Y14829617D01*
X11596841Y14828337D01*
X11590669Y14827206D01*
X11584472Y14826225D01*
X11578253Y14825393D01*
X11572015Y14824712D01*
X11565763Y14824182D01*
X11559500Y14823803D01*
X11553230Y14823576D01*
X11546956Y14823500D01*
X10897847Y14823500D01*
X10891475Y14823578D01*
X10885107Y14823813D01*
X10878746Y14824204D01*
X10872397Y14824750D01*
X10866064Y14825453D01*
X10859749Y14826310D01*
X10853457Y14827323D01*
X10847193Y14828489D01*
X10840958Y14829809D01*
X10834758Y14831281D01*
X10828596Y14832905D01*
X10822476Y14834680D01*
X10816401Y14836605D01*
X10810375Y14838678D01*
X10804402Y14840898D01*
X10798485Y14843264D01*
X10792628Y14845775D01*
X10786834Y14848428D01*
X10781107Y14851223D01*
X10775451Y14854158D01*
X10769868Y14857231D01*
X10764362Y14860440D01*
X10758937Y14863783D01*
X10753595Y14867258D01*
X10748340Y14870863D01*
X10743176Y14874596D01*
X10738104Y14878454D01*
X10733129Y14882436D01*
X10728253Y14886539D01*
X10723479Y14890760D01*
X10718810Y14895097D01*
X10714249Y14899548D01*
X10709798Y14904108D01*
X10705461Y14908777D01*
X10701240Y14913551D01*
X10697137Y14918427D01*
X10693155Y14923402D01*
X10689296Y14928474D01*
X10685563Y14933638D01*
X10681958Y14938893D01*
X10678483Y14944234D01*
X10675140Y14949660D01*
X10671931Y14955165D01*
X10668858Y14960748D01*
X10665923Y14966404D01*
X10663128Y14972131D01*
X10660474Y14977925D01*
X10657963Y14983782D01*
X10655597Y14989699D01*
X10653377Y14995672D01*
X10651304Y15001698D01*
X10649379Y15007773D01*
X10647604Y15013893D01*
X10645980Y15020055D01*
X10644507Y15026255D01*
X10643187Y15032489D01*
X10642021Y15038754D01*
X10641008Y15045046D01*
X10640150Y15051360D01*
X10639448Y15057694D01*
X10638901Y15064043D01*
X10638510Y15070404D01*
X10638275Y15076772D01*
X10638197Y15083144D01*
X10638200Y15083144D02*
X10638200Y15342788D01*
X11806600Y15779319D02*
X11806600Y16103872D01*
X11806504Y16111775D01*
X11806215Y16119674D01*
X11805734Y16127563D01*
X11805061Y16135438D01*
X11804197Y16143295D01*
X11803141Y16151128D01*
X11801895Y16158933D01*
X11800460Y16166705D01*
X11798835Y16174440D01*
X11797023Y16182134D01*
X11795024Y16189780D01*
X11792839Y16197376D01*
X11790470Y16204917D01*
X11787918Y16212397D01*
X11785185Y16219813D01*
X11782271Y16227161D01*
X11779180Y16234435D01*
X11775913Y16241632D01*
X11772471Y16248747D01*
X11768857Y16255776D01*
X11765073Y16262715D01*
X11761121Y16269560D01*
X11757004Y16276307D01*
X11752723Y16282952D01*
X11748282Y16289490D01*
X11743683Y16295918D01*
X11738929Y16302232D01*
X11734022Y16308429D01*
X11728967Y16314504D01*
X11723764Y16320454D01*
X11718419Y16326276D01*
X11712933Y16331966D01*
X11707310Y16337521D01*
X11701554Y16342937D01*
X11695667Y16348212D01*
X11689654Y16353341D01*
X11683517Y16358323D01*
X11677261Y16363153D01*
X11670890Y16367830D01*
X11664406Y16372350D01*
X11657814Y16376711D01*
X11651118Y16380911D01*
X11644322Y16384946D01*
X11637429Y16388814D01*
X11630445Y16392513D01*
X11623372Y16396041D01*
X11616215Y16399396D01*
X11608979Y16402576D01*
X11601668Y16405578D01*
X11594286Y16408402D01*
X11586837Y16411045D01*
X11579326Y16413505D01*
X11571757Y16415783D01*
X11564135Y16417875D01*
X11556464Y16419781D01*
X11548750Y16421499D01*
X11540995Y16423029D01*
X11533206Y16424370D01*
X11525386Y16425521D01*
X11517541Y16426481D01*
X11509675Y16427250D01*
X11501792Y16427827D01*
X11493897Y16428211D01*
X11485996Y16428404D01*
X11478092Y16428404D01*
X11470191Y16428211D01*
X11462296Y16427827D01*
X11454413Y16427250D01*
X11446547Y16426481D01*
X11438702Y16425521D01*
X11430882Y16424370D01*
X11423093Y16423029D01*
X11415338Y16421499D01*
X11407624Y16419781D01*
X11399953Y16417875D01*
X11392331Y16415783D01*
X11384762Y16413505D01*
X11377251Y16411045D01*
X11369802Y16408402D01*
X11362420Y16405578D01*
X11355109Y16402576D01*
X11347873Y16399396D01*
X11340716Y16396041D01*
X11333643Y16392513D01*
X11326659Y16388814D01*
X11319766Y16384946D01*
X11312970Y16380911D01*
X11306274Y16376711D01*
X11299682Y16372350D01*
X11293198Y16367830D01*
X11286827Y16363153D01*
X11280571Y16358323D01*
X11274434Y16353341D01*
X11268421Y16348212D01*
X11262534Y16342937D01*
X11256778Y16337521D01*
X11251155Y16331966D01*
X11245669Y16326276D01*
X11240324Y16320454D01*
X11235121Y16314504D01*
X11230066Y16308429D01*
X11225159Y16302232D01*
X11220405Y16295918D01*
X11215806Y16289490D01*
X11211365Y16282952D01*
X11207084Y16276307D01*
X11202967Y16269560D01*
X11199015Y16262715D01*
X11195231Y16255776D01*
X11191617Y16248747D01*
X11188175Y16241632D01*
X11184908Y16234435D01*
X11181817Y16227161D01*
X11178903Y16219813D01*
X11176170Y16212397D01*
X11173618Y16204917D01*
X11171249Y16197376D01*
X11169064Y16189780D01*
X11167065Y16182134D01*
X11165253Y16174440D01*
X11163628Y16166705D01*
X11162193Y16158933D01*
X11160947Y16151128D01*
X11159891Y16143295D01*
X11159027Y16135438D01*
X11158354Y16127563D01*
X11157873Y16119674D01*
X11157584Y16111775D01*
X11157488Y16103872D01*
X10638200Y16168784D02*
X10638200Y15779319D01*
X10638200Y16168784D02*
X10638277Y16175107D01*
X10638508Y16181425D01*
X10638893Y16187737D01*
X10639431Y16194037D01*
X10640123Y16200322D01*
X10640967Y16206588D01*
X10641964Y16212832D01*
X10643112Y16219050D01*
X10644412Y16225238D01*
X10645862Y16231393D01*
X10647461Y16237510D01*
X10649209Y16243587D01*
X10651104Y16249620D01*
X10653146Y16255604D01*
X10655332Y16261537D01*
X10657663Y16267415D01*
X10660136Y16273234D01*
X10662750Y16278992D01*
X10665503Y16284684D01*
X10668394Y16290307D01*
X10671422Y16295858D01*
X10674583Y16301334D01*
X10677877Y16306732D01*
X10681301Y16312047D01*
X10684854Y16317278D01*
X10688533Y16322420D01*
X10692337Y16327472D01*
X10696262Y16332429D01*
X10700307Y16337289D01*
X10704468Y16342049D01*
X10708745Y16346707D01*
X10713134Y16351259D01*
X10717632Y16355703D01*
X10722237Y16360036D01*
X10726946Y16364255D01*
X10731757Y16368359D01*
X10736666Y16372344D01*
X10741671Y16376208D01*
X10746768Y16379950D01*
X10751955Y16383566D01*
X10757228Y16387055D01*
X10762585Y16390414D01*
X10768022Y16393642D01*
X10773536Y16396737D01*
X10779124Y16399696D01*
X10784782Y16402519D01*
X10790507Y16405203D01*
X10796296Y16407746D01*
X10802145Y16410148D01*
X10808051Y16412407D01*
X10814010Y16414521D01*
X10820019Y16416490D01*
X10826074Y16418312D01*
X10832171Y16419985D01*
X10838308Y16421510D01*
X10844480Y16422885D01*
X10850683Y16424109D01*
X10856914Y16425182D01*
X10863170Y16426102D01*
X10869446Y16426870D01*
X10875740Y16427485D01*
X10882046Y16427947D01*
X10888361Y16428255D01*
X10894682Y16428409D01*
X10901006Y16428409D01*
X10907327Y16428255D01*
X10913642Y16427947D01*
X10919948Y16427485D01*
X10926242Y16426870D01*
X10932518Y16426102D01*
X10938774Y16425182D01*
X10945005Y16424109D01*
X10951208Y16422885D01*
X10957380Y16421510D01*
X10963517Y16419985D01*
X10969614Y16418312D01*
X10975669Y16416490D01*
X10981678Y16414521D01*
X10987637Y16412407D01*
X10993543Y16410148D01*
X10999392Y16407746D01*
X11005181Y16405203D01*
X11010906Y16402519D01*
X11016564Y16399696D01*
X11022152Y16396737D01*
X11027666Y16393642D01*
X11033103Y16390414D01*
X11038460Y16387055D01*
X11043733Y16383566D01*
X11048920Y16379950D01*
X11054017Y16376208D01*
X11059022Y16372344D01*
X11063931Y16368359D01*
X11068742Y16364255D01*
X11073451Y16360036D01*
X11078056Y16355703D01*
X11082554Y16351259D01*
X11086943Y16346707D01*
X11091220Y16342049D01*
X11095381Y16337289D01*
X11099426Y16332429D01*
X11103351Y16327472D01*
X11107155Y16322420D01*
X11110834Y16317278D01*
X11114387Y16312047D01*
X11117811Y16306732D01*
X11121105Y16301334D01*
X11124266Y16295858D01*
X11127294Y16290307D01*
X11130185Y16284684D01*
X11132938Y16278992D01*
X11135552Y16273234D01*
X11138025Y16267415D01*
X11140356Y16261537D01*
X11142542Y16255604D01*
X11144584Y16249620D01*
X11146479Y16243587D01*
X11148227Y16237510D01*
X11149826Y16231393D01*
X11151276Y16225238D01*
X11152576Y16219050D01*
X11153724Y16212832D01*
X11154721Y16206588D01*
X11155565Y16200322D01*
X11156257Y16194037D01*
X11156795Y16187737D01*
X11157180Y16181425D01*
X11157411Y16175107D01*
X11157488Y16168784D01*
X11157491Y16168784D02*
X11157491Y15909141D01*
X17686600Y16886616D02*
X17686600Y17146259D01*
X17686600Y16886616D02*
X17686524Y16880342D01*
X17686297Y16874072D01*
X17685918Y16867809D01*
X17685388Y16861557D01*
X17684707Y16855319D01*
X17683875Y16849100D01*
X17682894Y16842903D01*
X17681763Y16836731D01*
X17680483Y16830589D01*
X17679055Y16824479D01*
X17677480Y16818406D01*
X17675759Y16812372D01*
X17673892Y16806382D01*
X17671881Y16800438D01*
X17669727Y16794545D01*
X17667432Y16788706D01*
X17664996Y16782923D01*
X17662420Y16777202D01*
X17659708Y16771544D01*
X17656859Y16765953D01*
X17653877Y16760433D01*
X17650761Y16754987D01*
X17647515Y16749617D01*
X17644140Y16744328D01*
X17640639Y16739121D01*
X17637012Y16734001D01*
X17633263Y16728970D01*
X17629394Y16724031D01*
X17625406Y16719187D01*
X17621302Y16714440D01*
X17617085Y16709794D01*
X17612757Y16705252D01*
X17608320Y16700815D01*
X17603778Y16696487D01*
X17599132Y16692270D01*
X17594385Y16688166D01*
X17589541Y16684178D01*
X17584602Y16680309D01*
X17579571Y16676560D01*
X17574451Y16672933D01*
X17569244Y16669432D01*
X17563955Y16666057D01*
X17558585Y16662811D01*
X17553139Y16659695D01*
X17547619Y16656713D01*
X17542028Y16653864D01*
X17536370Y16651152D01*
X17530649Y16648576D01*
X17524866Y16646140D01*
X17519027Y16643845D01*
X17513134Y16641691D01*
X17507190Y16639680D01*
X17501200Y16637813D01*
X17495166Y16636092D01*
X17489093Y16634517D01*
X17482983Y16633089D01*
X17476841Y16631809D01*
X17470669Y16630678D01*
X17464472Y16629697D01*
X17458253Y16628865D01*
X17452015Y16628184D01*
X17445763Y16627654D01*
X17439500Y16627275D01*
X17433230Y16627048D01*
X17426956Y16626972D01*
X16777847Y16626972D01*
X16771475Y16627050D01*
X16765107Y16627285D01*
X16758746Y16627676D01*
X16752397Y16628222D01*
X16746064Y16628925D01*
X16739749Y16629782D01*
X16733457Y16630795D01*
X16727193Y16631961D01*
X16720958Y16633281D01*
X16714758Y16634753D01*
X16708596Y16636377D01*
X16702476Y16638152D01*
X16696401Y16640077D01*
X16690375Y16642150D01*
X16684402Y16644370D01*
X16678485Y16646736D01*
X16672628Y16649247D01*
X16666834Y16651900D01*
X16661107Y16654695D01*
X16655451Y16657630D01*
X16649868Y16660703D01*
X16644362Y16663912D01*
X16638937Y16667255D01*
X16633595Y16670730D01*
X16628340Y16674335D01*
X16623176Y16678068D01*
X16618104Y16681926D01*
X16613129Y16685908D01*
X16608253Y16690011D01*
X16603479Y16694232D01*
X16598810Y16698569D01*
X16594249Y16703020D01*
X16589798Y16707580D01*
X16585461Y16712249D01*
X16581240Y16717023D01*
X16577137Y16721899D01*
X16573155Y16726874D01*
X16569296Y16731946D01*
X16565563Y16737110D01*
X16561958Y16742365D01*
X16558483Y16747706D01*
X16555140Y16753132D01*
X16551931Y16758637D01*
X16548858Y16764220D01*
X16545923Y16769876D01*
X16543128Y16775603D01*
X16540474Y16781397D01*
X16537963Y16787254D01*
X16535597Y16793171D01*
X16533377Y16799144D01*
X16531304Y16805170D01*
X16529379Y16811245D01*
X16527604Y16817365D01*
X16525980Y16823527D01*
X16524507Y16829727D01*
X16523187Y16835961D01*
X16522021Y16842226D01*
X16521008Y16848518D01*
X16520150Y16854832D01*
X16519448Y16861166D01*
X16518901Y16867515D01*
X16518510Y16873876D01*
X16518275Y16880244D01*
X16518197Y16886616D01*
X16518200Y16886616D02*
X16518200Y17146259D01*
X17167313Y17842434D02*
X17167313Y18231900D01*
X17167313Y17842434D02*
X17167237Y17836160D01*
X17167010Y17829890D01*
X17166631Y17823627D01*
X17166101Y17817375D01*
X17165420Y17811137D01*
X17164588Y17804918D01*
X17163607Y17798721D01*
X17162476Y17792549D01*
X17161196Y17786407D01*
X17159768Y17780297D01*
X17158193Y17774224D01*
X17156472Y17768190D01*
X17154605Y17762200D01*
X17152594Y17756256D01*
X17150440Y17750363D01*
X17148145Y17744524D01*
X17145709Y17738741D01*
X17143133Y17733020D01*
X17140421Y17727362D01*
X17137572Y17721771D01*
X17134590Y17716251D01*
X17131474Y17710805D01*
X17128228Y17705435D01*
X17124853Y17700146D01*
X17121352Y17694939D01*
X17117725Y17689819D01*
X17113976Y17684788D01*
X17110107Y17679849D01*
X17106119Y17675005D01*
X17102015Y17670258D01*
X17097798Y17665612D01*
X17093470Y17661070D01*
X17089033Y17656633D01*
X17084491Y17652305D01*
X17079845Y17648088D01*
X17075098Y17643984D01*
X17070254Y17639996D01*
X17065315Y17636127D01*
X17060284Y17632378D01*
X17055164Y17628751D01*
X17049957Y17625250D01*
X17044668Y17621875D01*
X17039298Y17618629D01*
X17033852Y17615513D01*
X17028332Y17612531D01*
X17022741Y17609682D01*
X17017083Y17606970D01*
X17011362Y17604394D01*
X17005579Y17601958D01*
X16999740Y17599663D01*
X16993847Y17597509D01*
X16987903Y17595498D01*
X16981913Y17593631D01*
X16975879Y17591910D01*
X16969806Y17590335D01*
X16963696Y17588907D01*
X16957554Y17587627D01*
X16951382Y17586496D01*
X16945185Y17585515D01*
X16938966Y17584683D01*
X16932728Y17584002D01*
X16926476Y17583472D01*
X16920213Y17583093D01*
X16913943Y17582866D01*
X16907669Y17582790D01*
X16907669Y17582791D02*
X16842756Y17582791D01*
X16834853Y17582887D01*
X16826954Y17583176D01*
X16819065Y17583657D01*
X16811190Y17584330D01*
X16803334Y17585194D01*
X16795501Y17586250D01*
X16787696Y17587496D01*
X16779923Y17588931D01*
X16772188Y17590556D01*
X16764495Y17592368D01*
X16756848Y17594367D01*
X16749253Y17596552D01*
X16741712Y17598921D01*
X16734232Y17601473D01*
X16726816Y17604206D01*
X16719468Y17607119D01*
X16712194Y17610211D01*
X16704997Y17613478D01*
X16697882Y17616920D01*
X16690853Y17620534D01*
X16683914Y17624318D01*
X16677069Y17628270D01*
X16670322Y17632387D01*
X16663678Y17636668D01*
X16657140Y17641108D01*
X16650712Y17645707D01*
X16644398Y17650461D01*
X16638201Y17655368D01*
X16632126Y17660424D01*
X16626176Y17665626D01*
X16620354Y17670972D01*
X16614664Y17676457D01*
X16609109Y17682080D01*
X16603693Y17687836D01*
X16598419Y17693723D01*
X16593289Y17699736D01*
X16588308Y17705873D01*
X16583477Y17712128D01*
X16578800Y17718500D01*
X16574280Y17724984D01*
X16569919Y17731575D01*
X16565720Y17738271D01*
X16561685Y17745068D01*
X16557817Y17751960D01*
X16554117Y17758945D01*
X16550589Y17766017D01*
X16547234Y17773174D01*
X16544055Y17780410D01*
X16541052Y17787721D01*
X16538229Y17795103D01*
X16535586Y17802552D01*
X16533125Y17810063D01*
X16530848Y17817632D01*
X16528756Y17825254D01*
X16526850Y17832924D01*
X16525132Y17840639D01*
X16523602Y17848393D01*
X16522261Y17856182D01*
X16521110Y17864002D01*
X16520150Y17871847D01*
X16519381Y17879714D01*
X16518804Y17887596D01*
X16518420Y17895491D01*
X16518227Y17903392D01*
X16518227Y17911296D01*
X16518420Y17919197D01*
X16518804Y17927092D01*
X16519381Y17934974D01*
X16520150Y17942841D01*
X16521110Y17950686D01*
X16522261Y17958506D01*
X16523602Y17966295D01*
X16525132Y17974049D01*
X16526850Y17981764D01*
X16528756Y17989434D01*
X16530848Y17997056D01*
X16533125Y18004625D01*
X16535586Y18012136D01*
X16538229Y18019585D01*
X16541052Y18026967D01*
X16544055Y18034278D01*
X16547234Y18041514D01*
X16550589Y18048671D01*
X16554117Y18055743D01*
X16557817Y18062728D01*
X16561685Y18069621D01*
X16565720Y18076417D01*
X16569919Y18083113D01*
X16574280Y18089704D01*
X16578800Y18096188D01*
X16583477Y18102560D01*
X16588308Y18108815D01*
X16593289Y18114952D01*
X16598419Y18120965D01*
X16603693Y18126852D01*
X16609109Y18132608D01*
X16614664Y18138231D01*
X16620354Y18143716D01*
X16626176Y18149062D01*
X16632126Y18154264D01*
X16638201Y18159320D01*
X16644398Y18164227D01*
X16650712Y18168981D01*
X16657140Y18173580D01*
X16663678Y18178020D01*
X16670322Y18182301D01*
X16677069Y18186418D01*
X16683914Y18190370D01*
X16690853Y18194154D01*
X16697882Y18197768D01*
X16704997Y18201210D01*
X16712194Y18204477D01*
X16719468Y18207569D01*
X16726816Y18210482D01*
X16734232Y18213215D01*
X16741712Y18215767D01*
X16749253Y18218136D01*
X16756848Y18220321D01*
X16764495Y18222320D01*
X16772188Y18224132D01*
X16779923Y18225757D01*
X16787696Y18227192D01*
X16795501Y18228438D01*
X16803334Y18229494D01*
X16811190Y18230358D01*
X16819065Y18231031D01*
X16826954Y18231512D01*
X16834853Y18231801D01*
X16842756Y18231897D01*
X16842756Y18231900D02*
X17167313Y18231900D01*
X17167313Y18231901D02*
X17179861Y18231749D01*
X17192402Y18231295D01*
X17204928Y18230537D01*
X17217432Y18229477D01*
X17229906Y18228115D01*
X17242344Y18226452D01*
X17254739Y18224489D01*
X17267082Y18222227D01*
X17279367Y18219667D01*
X17291587Y18216811D01*
X17303734Y18213661D01*
X17315801Y18210219D01*
X17327782Y18206485D01*
X17339669Y18202464D01*
X17351455Y18198156D01*
X17363134Y18193564D01*
X17374698Y18188692D01*
X17386142Y18183542D01*
X17397457Y18178117D01*
X17408638Y18172420D01*
X17419678Y18166454D01*
X17430571Y18160224D01*
X17441310Y18153732D01*
X17451889Y18146982D01*
X17462302Y18139979D01*
X17472543Y18132726D01*
X17482605Y18125228D01*
X17492483Y18117489D01*
X17502172Y18109513D01*
X17511665Y18101306D01*
X17520956Y18092871D01*
X17530042Y18084215D01*
X17538915Y18075342D01*
X17547571Y18066256D01*
X17556006Y18056965D01*
X17564213Y18047472D01*
X17572189Y18037783D01*
X17579928Y18027905D01*
X17587426Y18017843D01*
X17594679Y18007602D01*
X17601682Y17997189D01*
X17608432Y17986610D01*
X17614924Y17975871D01*
X17621154Y17964978D01*
X17627120Y17953938D01*
X17632817Y17942757D01*
X17638242Y17931442D01*
X17643392Y17919998D01*
X17648264Y17908434D01*
X17652856Y17896755D01*
X17657164Y17884969D01*
X17661185Y17873082D01*
X17664919Y17861101D01*
X17668361Y17849034D01*
X17671511Y17836887D01*
X17674367Y17824667D01*
X17676927Y17812382D01*
X17679189Y17800039D01*
X17681152Y17787644D01*
X17682815Y17775206D01*
X17684177Y17762732D01*
X17685237Y17750228D01*
X17685995Y17737702D01*
X17686449Y17725161D01*
X17686601Y17712613D01*
D11*
X17387400Y1527700D02*
X14847400Y1527700D01*
X14847400Y-1012300D01*
X17387400Y-1012300D01*
X17387400Y1527700D01*
D12*
X16117400Y-1647300D02*
X16117400Y-7362300D01*
D11*
X14847400Y1527700D02*
X12307400Y1527700D01*
X12307400Y-1012300D01*
X14847400Y-1012300D01*
D12*
X13577400Y-1647300D02*
X13577400Y-7362300D01*
D11*
X12307400Y1527700D02*
X9767400Y1527700D01*
X9767400Y-1012300D01*
X12307400Y-1012300D01*
D12*
X11037400Y-1647300D02*
X11037400Y-7362300D01*
D11*
X9767400Y1527700D02*
X7227400Y1527700D01*
X7227400Y-1012300D01*
X9767400Y-1012300D01*
D12*
X8497400Y-1647300D02*
X8497400Y-7362300D01*
D13*
X16117400Y-1266300D03*
X13577400Y-1266300D03*
X11037400Y-1266300D03*
X8497400Y-1266300D03*
D14*
X16117400Y2035700D03*
X13577400Y2035700D03*
X11037400Y2035700D03*
X8497400Y2035700D03*
D15*
X18085900Y1050331D02*
X18974900Y1050331D01*
X18981038Y1050257D01*
X18987172Y1050034D01*
X18993298Y1049664D01*
X18999415Y1049145D01*
X19005516Y1048479D01*
X19011600Y1047666D01*
X19017663Y1046705D01*
X19023700Y1045599D01*
X19029709Y1044347D01*
X19035686Y1042950D01*
X19041628Y1041409D01*
X19047530Y1039725D01*
X19053390Y1037899D01*
X19059205Y1035932D01*
X19064970Y1033825D01*
X19070682Y1031579D01*
X19076339Y1029196D01*
X19081936Y1026677D01*
X19087471Y1024023D01*
X19092940Y1021237D01*
X19098340Y1018319D01*
X19103668Y1015271D01*
X19108921Y1012096D01*
X19114095Y1008794D01*
X19119188Y1005369D01*
X19124197Y1001821D01*
X19129119Y998154D01*
X19133951Y994368D01*
X19138690Y990467D01*
X19143333Y986453D01*
X19147878Y982327D01*
X19152322Y978093D01*
X19156662Y973753D01*
X19160896Y969309D01*
X19165022Y964764D01*
X19169036Y960121D01*
X19172937Y955382D01*
X19176723Y950550D01*
X19180390Y945628D01*
X19183938Y940619D01*
X19187363Y935526D01*
X19190665Y930352D01*
X19193840Y925099D01*
X19196888Y919771D01*
X19199806Y914371D01*
X19202592Y908902D01*
X19205246Y903367D01*
X19207765Y897770D01*
X19210148Y892113D01*
X19212394Y886401D01*
X19214501Y880636D01*
X19216468Y874821D01*
X19218294Y868961D01*
X19219978Y863059D01*
X19221519Y857117D01*
X19222916Y851140D01*
X19224168Y845131D01*
X19225274Y839094D01*
X19226235Y833031D01*
X19227048Y826947D01*
X19227714Y820846D01*
X19228233Y814729D01*
X19228603Y808603D01*
X19228826Y802469D01*
X19228900Y796331D01*
X19228900Y669331D01*
X19228900Y1648350D02*
X18085900Y1648350D01*
X18085900Y1965850D01*
X18085994Y1973581D01*
X18086277Y1981308D01*
X18086747Y1989026D01*
X18087405Y1996730D01*
X18088251Y2004416D01*
X18089283Y2012078D01*
X18090502Y2019714D01*
X18091907Y2027317D01*
X18093496Y2034884D01*
X18095269Y2042410D01*
X18097225Y2049891D01*
X18099362Y2057321D01*
X18101679Y2064698D01*
X18104176Y2072016D01*
X18106850Y2079271D01*
X18109700Y2086458D01*
X18112724Y2093575D01*
X18115920Y2100615D01*
X18119287Y2107575D01*
X18122823Y2114452D01*
X18126524Y2121240D01*
X18130390Y2127936D01*
X18134418Y2134536D01*
X18138606Y2141036D01*
X18142950Y2147432D01*
X18147449Y2153721D01*
X18152100Y2159898D01*
X18156900Y2165960D01*
X18161846Y2171903D01*
X18166935Y2177724D01*
X18172164Y2183419D01*
X18177531Y2188985D01*
X18183031Y2194419D01*
X18188663Y2199718D01*
X18194421Y2204877D01*
X18200304Y2209895D01*
X18206307Y2214769D01*
X18212427Y2219494D01*
X18218660Y2224069D01*
X18225002Y2228492D01*
X18231451Y2232758D01*
X18238001Y2236866D01*
X18244650Y2240813D01*
X18251393Y2244597D01*
X18258226Y2248216D01*
X18265145Y2251668D01*
X18272145Y2254949D01*
X18279224Y2258060D01*
X18286377Y2260997D01*
X18293599Y2263759D01*
X18300885Y2266345D01*
X18308233Y2268752D01*
X18315637Y2270979D01*
X18323094Y2273026D01*
X18330598Y2274891D01*
X18338145Y2276572D01*
X18345730Y2278069D01*
X18353350Y2279380D01*
X18361000Y2280506D01*
X18368675Y2281445D01*
X18376370Y2282197D01*
X18384081Y2282762D01*
X18391804Y2283138D01*
X18399534Y2283326D01*
X18407266Y2283326D01*
X18414996Y2283138D01*
X18422719Y2282762D01*
X18430430Y2282197D01*
X18438125Y2281445D01*
X18445800Y2280506D01*
X18453450Y2279380D01*
X18461070Y2278069D01*
X18468655Y2276572D01*
X18476202Y2274891D01*
X18483706Y2273026D01*
X18491163Y2270979D01*
X18498567Y2268752D01*
X18505915Y2266345D01*
X18513201Y2263759D01*
X18520423Y2260997D01*
X18527576Y2258060D01*
X18534655Y2254949D01*
X18541655Y2251668D01*
X18548574Y2248216D01*
X18555407Y2244597D01*
X18562150Y2240813D01*
X18568799Y2236866D01*
X18575349Y2232758D01*
X18581798Y2228492D01*
X18588140Y2224069D01*
X18594373Y2219494D01*
X18600493Y2214769D01*
X18606496Y2209895D01*
X18612379Y2204877D01*
X18618137Y2199718D01*
X18623769Y2194419D01*
X18629269Y2188985D01*
X18634636Y2183419D01*
X18639865Y2177724D01*
X18644954Y2171903D01*
X18649900Y2165960D01*
X18654700Y2159898D01*
X18659351Y2153721D01*
X18663850Y2147432D01*
X18668194Y2141036D01*
X18672382Y2134536D01*
X18676410Y2127936D01*
X18680276Y2121240D01*
X18683977Y2114452D01*
X18687513Y2107575D01*
X18690880Y2100615D01*
X18694076Y2093575D01*
X18697100Y2086458D01*
X18699950Y2079271D01*
X18702624Y2072016D01*
X18705121Y2064698D01*
X18707438Y2057321D01*
X18709575Y2049891D01*
X18711531Y2042410D01*
X18713304Y2034884D01*
X18714893Y2027317D01*
X18716298Y2019714D01*
X18717517Y2012078D01*
X18718549Y2004416D01*
X18719395Y1996730D01*
X18720053Y1989026D01*
X18720523Y1981308D01*
X18720806Y1973581D01*
X18720900Y1965850D01*
X18720900Y1648350D01*
X18339900Y2734200D02*
X18085900Y3051700D01*
X19228900Y3051700D01*
X19228900Y2734200D02*
X19228900Y3369200D01*
D16*
X15997400Y11362700D03*
X15997400Y12562700D03*
D17*
X15997400Y11962700D03*
D10*
X13557453Y10641900D02*
X13557453Y9473500D01*
X14076741Y9473500D01*
X14548053Y9473500D02*
X15067341Y9473500D01*
X14548053Y9473500D02*
X14548053Y10641900D01*
X15067341Y10641900D01*
X14937519Y10122609D02*
X14548053Y10122609D01*
X15536394Y10641900D02*
X15536394Y9473500D01*
X15536394Y10641900D02*
X15860947Y10641900D01*
X15868789Y10641805D01*
X15876627Y10641521D01*
X15884456Y10641047D01*
X15892271Y10640385D01*
X15900068Y10639534D01*
X15907842Y10638494D01*
X15915588Y10637267D01*
X15923303Y10635854D01*
X15930981Y10634254D01*
X15938618Y10632469D01*
X15946210Y10630500D01*
X15953752Y10628348D01*
X15961240Y10626015D01*
X15968670Y10623502D01*
X15976036Y10620809D01*
X15983335Y10617940D01*
X15990563Y10614894D01*
X15997715Y10611676D01*
X16004787Y10608285D01*
X16011776Y10604724D01*
X16018676Y10600996D01*
X16025484Y10597101D01*
X16032196Y10593044D01*
X16038808Y10588825D01*
X16045316Y10584448D01*
X16051716Y10579915D01*
X16058005Y10575229D01*
X16064179Y10570392D01*
X16070234Y10565407D01*
X16076167Y10560278D01*
X16081975Y10555006D01*
X16087653Y10549596D01*
X16093199Y10544050D01*
X16098609Y10538372D01*
X16103881Y10532564D01*
X16109010Y10526631D01*
X16113995Y10520576D01*
X16118832Y10514402D01*
X16123518Y10508113D01*
X16128051Y10501713D01*
X16132428Y10495205D01*
X16136647Y10488593D01*
X16140704Y10481881D01*
X16144599Y10475073D01*
X16148327Y10468173D01*
X16151888Y10461184D01*
X16155279Y10454112D01*
X16158497Y10446960D01*
X16161543Y10439732D01*
X16164412Y10432433D01*
X16167105Y10425067D01*
X16169618Y10417637D01*
X16171951Y10410149D01*
X16174103Y10402607D01*
X16176072Y10395015D01*
X16177857Y10387378D01*
X16179457Y10379700D01*
X16180870Y10371985D01*
X16182097Y10364239D01*
X16183137Y10356465D01*
X16183988Y10348668D01*
X16184650Y10340853D01*
X16185124Y10333024D01*
X16185408Y10325186D01*
X16185503Y10317344D01*
X16185503Y9798053D01*
X16185408Y9790211D01*
X16185124Y9782373D01*
X16184650Y9774544D01*
X16183988Y9766729D01*
X16183137Y9758932D01*
X16182097Y9751158D01*
X16180870Y9743412D01*
X16179457Y9735697D01*
X16177857Y9728019D01*
X16176072Y9720382D01*
X16174103Y9712790D01*
X16171951Y9705248D01*
X16169618Y9697760D01*
X16167104Y9690331D01*
X16164412Y9682964D01*
X16161542Y9675665D01*
X16158497Y9668437D01*
X16155278Y9661285D01*
X16151888Y9654213D01*
X16148327Y9647225D01*
X16144598Y9640325D01*
X16140704Y9633517D01*
X16136647Y9626805D01*
X16132428Y9620193D01*
X16128051Y9613685D01*
X16123518Y9607285D01*
X16118832Y9600996D01*
X16113995Y9594822D01*
X16109010Y9588766D01*
X16103880Y9582833D01*
X16098609Y9577026D01*
X16093199Y9571348D01*
X16087653Y9565802D01*
X16081975Y9560392D01*
X16076167Y9555120D01*
X16070234Y9549991D01*
X16064179Y9545006D01*
X16058005Y9540169D01*
X16051716Y9535483D01*
X16045316Y9530950D01*
X16038807Y9526573D01*
X16032196Y9522355D01*
X16025484Y9518297D01*
X16018676Y9514403D01*
X16011775Y9510675D01*
X16004787Y9507114D01*
X15997715Y9503723D01*
X15990563Y9500504D01*
X15983335Y9497459D01*
X15976036Y9494590D01*
X15968669Y9491898D01*
X15961240Y9489384D01*
X15953752Y9487051D01*
X15946210Y9484899D01*
X15938618Y9482930D01*
X15930981Y9481146D01*
X15923303Y9479546D01*
X15915588Y9478132D01*
X15907842Y9476905D01*
X15900068Y9475866D01*
X15892271Y9475015D01*
X15884456Y9474352D01*
X15876627Y9473879D01*
X15868789Y9473595D01*
X15860947Y9473500D01*
X15536394Y9473500D01*
X16717491Y10382253D02*
X17042044Y10641900D01*
X17042044Y9473500D01*
X16717491Y9473500D02*
X17366600Y9473500D01*
D18*
X21027400Y40682700D03*
X19827400Y40682700D03*
D17*
X20427400Y40682700D03*
D10*
X21748200Y38242753D02*
X22916600Y38242753D01*
X22916600Y38762041D01*
X22916600Y39233353D02*
X22916600Y39752641D01*
X22916600Y39233353D02*
X21748200Y39233353D01*
X21748200Y39752641D01*
X22267491Y39622819D02*
X22267491Y39233353D01*
X21748200Y40221694D02*
X22916600Y40221694D01*
X21748200Y40221694D02*
X21748200Y40546247D01*
X21748295Y40554089D01*
X21748579Y40561927D01*
X21749053Y40569756D01*
X21749715Y40577571D01*
X21750566Y40585368D01*
X21751606Y40593142D01*
X21752833Y40600888D01*
X21754246Y40608603D01*
X21755846Y40616281D01*
X21757631Y40623918D01*
X21759600Y40631510D01*
X21761752Y40639052D01*
X21764085Y40646540D01*
X21766598Y40653970D01*
X21769291Y40661336D01*
X21772160Y40668635D01*
X21775206Y40675863D01*
X21778424Y40683015D01*
X21781815Y40690087D01*
X21785376Y40697076D01*
X21789104Y40703976D01*
X21792999Y40710784D01*
X21797056Y40717496D01*
X21801275Y40724108D01*
X21805652Y40730616D01*
X21810185Y40737016D01*
X21814871Y40743305D01*
X21819708Y40749479D01*
X21824693Y40755534D01*
X21829822Y40761467D01*
X21835094Y40767275D01*
X21840504Y40772953D01*
X21846050Y40778499D01*
X21851728Y40783909D01*
X21857536Y40789181D01*
X21863469Y40794310D01*
X21869524Y40799295D01*
X21875698Y40804132D01*
X21881987Y40808818D01*
X21888387Y40813351D01*
X21894895Y40817728D01*
X21901507Y40821947D01*
X21908219Y40826004D01*
X21915027Y40829899D01*
X21921927Y40833627D01*
X21928916Y40837188D01*
X21935988Y40840579D01*
X21943140Y40843797D01*
X21950368Y40846843D01*
X21957667Y40849712D01*
X21965033Y40852405D01*
X21972463Y40854918D01*
X21979951Y40857251D01*
X21987493Y40859403D01*
X21995085Y40861372D01*
X22002722Y40863157D01*
X22010400Y40864757D01*
X22018115Y40866170D01*
X22025861Y40867397D01*
X22033635Y40868437D01*
X22041432Y40869288D01*
X22049247Y40869950D01*
X22057076Y40870424D01*
X22064914Y40870708D01*
X22072756Y40870803D01*
X22592047Y40870803D01*
X22599889Y40870708D01*
X22607727Y40870424D01*
X22615556Y40869950D01*
X22623371Y40869288D01*
X22631168Y40868437D01*
X22638942Y40867397D01*
X22646688Y40866170D01*
X22654403Y40864757D01*
X22662081Y40863157D01*
X22669718Y40861372D01*
X22677310Y40859403D01*
X22684852Y40857251D01*
X22692340Y40854918D01*
X22699769Y40852404D01*
X22707136Y40849712D01*
X22714435Y40846842D01*
X22721663Y40843797D01*
X22728815Y40840578D01*
X22735887Y40837188D01*
X22742875Y40833627D01*
X22749775Y40829898D01*
X22756583Y40826004D01*
X22763295Y40821947D01*
X22769907Y40817728D01*
X22776415Y40813351D01*
X22782815Y40808818D01*
X22789104Y40804132D01*
X22795278Y40799295D01*
X22801334Y40794310D01*
X22807267Y40789180D01*
X22813074Y40783909D01*
X22818752Y40778499D01*
X22824298Y40772953D01*
X22829708Y40767275D01*
X22834980Y40761467D01*
X22840109Y40755534D01*
X22845094Y40749479D01*
X22849931Y40743305D01*
X22854617Y40737016D01*
X22859150Y40730616D01*
X22863527Y40724107D01*
X22867745Y40717496D01*
X22871803Y40710784D01*
X22875697Y40703976D01*
X22879425Y40697075D01*
X22882986Y40690087D01*
X22886377Y40683015D01*
X22889596Y40675863D01*
X22892641Y40668635D01*
X22895510Y40661336D01*
X22898202Y40653969D01*
X22900716Y40646540D01*
X22903049Y40639052D01*
X22905201Y40631510D01*
X22907170Y40623918D01*
X22908954Y40616281D01*
X22910554Y40608603D01*
X22911968Y40600888D01*
X22913195Y40593142D01*
X22914234Y40585368D01*
X22915085Y40577571D01*
X22915748Y40569756D01*
X22916221Y40561927D01*
X22916505Y40554089D01*
X22916600Y40546247D01*
X22916600Y40221694D01*
X21748200Y41759800D02*
X21748285Y41766858D01*
X21748541Y41773912D01*
X21748967Y41780958D01*
X21749564Y41787992D01*
X21750330Y41795009D01*
X21751265Y41802005D01*
X21752369Y41808977D01*
X21753642Y41815920D01*
X21755082Y41822831D01*
X21756688Y41829704D01*
X21758460Y41836537D01*
X21760396Y41843325D01*
X21762496Y41850064D01*
X21764759Y41856750D01*
X21767182Y41863380D01*
X21769764Y41869949D01*
X21772505Y41876454D01*
X21775402Y41882891D01*
X21778454Y41889256D01*
X21781658Y41895546D01*
X21785014Y41901756D01*
X21788519Y41907883D01*
X21792170Y41913924D01*
X21795967Y41919874D01*
X21799906Y41925732D01*
X21803986Y41931492D01*
X21808204Y41937152D01*
X21812557Y41942709D01*
X21817043Y41948158D01*
X21821660Y41953498D01*
X21826404Y41958725D01*
X21831274Y41963835D01*
X21836265Y41968826D01*
X21841375Y41973696D01*
X21846602Y41978440D01*
X21851942Y41983057D01*
X21857391Y41987543D01*
X21862948Y41991896D01*
X21868608Y41996114D01*
X21874368Y42000194D01*
X21880226Y42004133D01*
X21886176Y42007930D01*
X21892217Y42011581D01*
X21898344Y42015086D01*
X21904554Y42018442D01*
X21910844Y42021646D01*
X21917209Y42024698D01*
X21923646Y42027595D01*
X21930151Y42030336D01*
X21936720Y42032918D01*
X21943350Y42035341D01*
X21950036Y42037604D01*
X21956775Y42039704D01*
X21963563Y42041640D01*
X21970396Y42043412D01*
X21977269Y42045018D01*
X21984180Y42046458D01*
X21991123Y42047731D01*
X21998095Y42048835D01*
X22005091Y42049770D01*
X22012108Y42050536D01*
X22019142Y42051133D01*
X22026188Y42051559D01*
X22033242Y42051815D01*
X22040300Y42051900D01*
X21748200Y41759800D02*
X21748310Y41750725D01*
X21748639Y41741656D01*
X21749187Y41732597D01*
X21749955Y41723554D01*
X21750940Y41714532D01*
X21752144Y41705537D01*
X21753565Y41696573D01*
X21755202Y41687647D01*
X21757054Y41678762D01*
X21759121Y41669925D01*
X21761401Y41661141D01*
X21763893Y41652414D01*
X21766595Y41643750D01*
X21769506Y41635154D01*
X21772623Y41626631D01*
X21775946Y41618186D01*
X21779472Y41609824D01*
X21783200Y41601549D01*
X21787126Y41593367D01*
X21791249Y41585282D01*
X21795567Y41577299D01*
X21800076Y41569423D01*
X21804774Y41561659D01*
X21809659Y41554010D01*
X21814727Y41546481D01*
X21819976Y41539078D01*
X21825402Y41531803D01*
X21831003Y41524662D01*
X21836775Y41517658D01*
X21842714Y41510796D01*
X21848817Y41504080D01*
X21855082Y41497513D01*
X21861503Y41491100D01*
X21868077Y41484843D01*
X21874801Y41478748D01*
X21881670Y41472817D01*
X21888681Y41467054D01*
X21895829Y41461461D01*
X21903110Y41456044D01*
X21910520Y41450804D01*
X21918054Y41445745D01*
X21925709Y41440869D01*
X21933479Y41436180D01*
X21941361Y41431681D01*
X21949349Y41427373D01*
X21957438Y41423260D01*
X21965625Y41419343D01*
X21973904Y41415626D01*
X21982271Y41412110D01*
X21990720Y41408797D01*
X21999247Y41405689D01*
X22007847Y41402789D01*
X22267490Y41954534D02*
X22262113Y41960043D01*
X22256602Y41965419D01*
X22250961Y41970657D01*
X22245193Y41975756D01*
X22239301Y41980712D01*
X22233290Y41985522D01*
X22227163Y41990182D01*
X22220923Y41994691D01*
X22214574Y41999046D01*
X22208120Y42003244D01*
X22201565Y42007281D01*
X22194914Y42011157D01*
X22188169Y42014869D01*
X22181335Y42018413D01*
X22174416Y42021790D01*
X22167416Y42024995D01*
X22160340Y42028028D01*
X22153192Y42030886D01*
X22145975Y42033567D01*
X22138695Y42036071D01*
X22131356Y42038396D01*
X22123962Y42040540D01*
X22116518Y42042501D01*
X22109027Y42044280D01*
X22101496Y42045874D01*
X22093927Y42047283D01*
X22086326Y42048506D01*
X22078697Y42049541D01*
X22071046Y42050390D01*
X22063376Y42051050D01*
X22055691Y42051522D01*
X22047998Y42051806D01*
X22040300Y42051900D01*
X22267491Y41954534D02*
X22916600Y41402791D01*
X22916600Y42051900D01*
X9436600Y10912156D02*
X8268200Y10912156D01*
X8268200Y11236709D01*
X8268296Y11244612D01*
X8268585Y11252511D01*
X8269066Y11260400D01*
X8269739Y11268275D01*
X8270603Y11276132D01*
X8271659Y11283965D01*
X8272905Y11291770D01*
X8274340Y11299542D01*
X8275965Y11307277D01*
X8277777Y11314971D01*
X8279776Y11322617D01*
X8281961Y11330213D01*
X8284330Y11337754D01*
X8286882Y11345234D01*
X8289615Y11352650D01*
X8292529Y11359998D01*
X8295620Y11367272D01*
X8298887Y11374469D01*
X8302329Y11381584D01*
X8305943Y11388613D01*
X8309727Y11395552D01*
X8313679Y11402397D01*
X8317796Y11409144D01*
X8322077Y11415789D01*
X8326518Y11422327D01*
X8331117Y11428755D01*
X8335871Y11435069D01*
X8340778Y11441266D01*
X8345833Y11447341D01*
X8351036Y11453291D01*
X8356381Y11459113D01*
X8361867Y11464803D01*
X8367490Y11470358D01*
X8373246Y11475774D01*
X8379133Y11481049D01*
X8385146Y11486178D01*
X8391283Y11491160D01*
X8397539Y11495990D01*
X8403910Y11500667D01*
X8410394Y11505187D01*
X8416986Y11509548D01*
X8423682Y11513748D01*
X8430478Y11517783D01*
X8437371Y11521651D01*
X8444355Y11525350D01*
X8451428Y11528878D01*
X8458585Y11532233D01*
X8465821Y11535413D01*
X8473132Y11538415D01*
X8480514Y11541239D01*
X8487963Y11543882D01*
X8495474Y11546342D01*
X8503043Y11548620D01*
X8510665Y11550712D01*
X8518336Y11552618D01*
X8526050Y11554336D01*
X8533805Y11555866D01*
X8541594Y11557207D01*
X8549414Y11558358D01*
X8557259Y11559318D01*
X8565125Y11560087D01*
X8573008Y11560664D01*
X8580903Y11561048D01*
X8588804Y11561241D01*
X8596708Y11561241D01*
X8604609Y11561048D01*
X8612504Y11560664D01*
X8620387Y11560087D01*
X8628253Y11559318D01*
X8636098Y11558358D01*
X8643918Y11557207D01*
X8651707Y11555866D01*
X8659462Y11554336D01*
X8667176Y11552618D01*
X8674847Y11550712D01*
X8682469Y11548620D01*
X8690038Y11546342D01*
X8697549Y11543882D01*
X8704998Y11541239D01*
X8712380Y11538415D01*
X8719691Y11535413D01*
X8726927Y11532233D01*
X8734084Y11528878D01*
X8741157Y11525350D01*
X8748141Y11521651D01*
X8755034Y11517783D01*
X8761830Y11513748D01*
X8768526Y11509548D01*
X8775118Y11505187D01*
X8781602Y11500667D01*
X8787973Y11495990D01*
X8794229Y11491160D01*
X8800366Y11486178D01*
X8806379Y11481049D01*
X8812266Y11475774D01*
X8818022Y11470358D01*
X8823645Y11464803D01*
X8829131Y11459113D01*
X8834476Y11453291D01*
X8839679Y11447341D01*
X8844734Y11441266D01*
X8849641Y11435069D01*
X8854395Y11428755D01*
X8858994Y11422327D01*
X8863435Y11415789D01*
X8867716Y11409144D01*
X8871833Y11402397D01*
X8875785Y11395552D01*
X8879569Y11388613D01*
X8883183Y11381584D01*
X8886625Y11374469D01*
X8889892Y11367272D01*
X8892983Y11359998D01*
X8895897Y11352650D01*
X8898630Y11345234D01*
X8901182Y11337754D01*
X8903551Y11330213D01*
X8905736Y11322617D01*
X8907735Y11314971D01*
X8909547Y11307277D01*
X8911172Y11299542D01*
X8912607Y11291770D01*
X8913853Y11283965D01*
X8914909Y11276132D01*
X8915773Y11268275D01*
X8916446Y11260400D01*
X8916927Y11252511D01*
X8917216Y11244612D01*
X8917312Y11236709D01*
X8917313Y11236709D02*
X8917313Y10912156D01*
X8917313Y11301622D02*
X9436600Y11561266D01*
X8527847Y12047791D02*
X8268200Y12372344D01*
X9436600Y12372344D01*
X9436600Y12047791D02*
X9436600Y12696900D01*
X15878200Y39938500D02*
X17046600Y39938500D01*
X15878200Y39938500D02*
X15878200Y40263053D01*
X15878296Y40270956D01*
X15878585Y40278855D01*
X15879066Y40286744D01*
X15879739Y40294619D01*
X15880603Y40302476D01*
X15881659Y40310309D01*
X15882905Y40318114D01*
X15884340Y40325886D01*
X15885965Y40333621D01*
X15887777Y40341315D01*
X15889776Y40348961D01*
X15891961Y40356557D01*
X15894330Y40364098D01*
X15896882Y40371578D01*
X15899615Y40378994D01*
X15902529Y40386342D01*
X15905620Y40393616D01*
X15908887Y40400813D01*
X15912329Y40407928D01*
X15915943Y40414957D01*
X15919727Y40421896D01*
X15923679Y40428741D01*
X15927796Y40435488D01*
X15932077Y40442133D01*
X15936518Y40448671D01*
X15941117Y40455099D01*
X15945871Y40461413D01*
X15950778Y40467610D01*
X15955833Y40473685D01*
X15961036Y40479635D01*
X15966381Y40485457D01*
X15971867Y40491147D01*
X15977490Y40496702D01*
X15983246Y40502118D01*
X15989133Y40507393D01*
X15995146Y40512522D01*
X16001283Y40517504D01*
X16007539Y40522334D01*
X16013910Y40527011D01*
X16020394Y40531531D01*
X16026986Y40535892D01*
X16033682Y40540092D01*
X16040478Y40544127D01*
X16047371Y40547995D01*
X16054355Y40551694D01*
X16061428Y40555222D01*
X16068585Y40558577D01*
X16075821Y40561757D01*
X16083132Y40564759D01*
X16090514Y40567583D01*
X16097963Y40570226D01*
X16105474Y40572686D01*
X16113043Y40574964D01*
X16120665Y40577056D01*
X16128336Y40578962D01*
X16136050Y40580680D01*
X16143805Y40582210D01*
X16151594Y40583551D01*
X16159414Y40584702D01*
X16167259Y40585662D01*
X16175125Y40586431D01*
X16183008Y40587008D01*
X16190903Y40587392D01*
X16198804Y40587585D01*
X16206708Y40587585D01*
X16214609Y40587392D01*
X16222504Y40587008D01*
X16230387Y40586431D01*
X16238253Y40585662D01*
X16246098Y40584702D01*
X16253918Y40583551D01*
X16261707Y40582210D01*
X16269462Y40580680D01*
X16277176Y40578962D01*
X16284847Y40577056D01*
X16292469Y40574964D01*
X16300038Y40572686D01*
X16307549Y40570226D01*
X16314998Y40567583D01*
X16322380Y40564759D01*
X16329691Y40561757D01*
X16336927Y40558577D01*
X16344084Y40555222D01*
X16351157Y40551694D01*
X16358141Y40547995D01*
X16365034Y40544127D01*
X16371830Y40540092D01*
X16378526Y40535892D01*
X16385118Y40531531D01*
X16391602Y40527011D01*
X16397973Y40522334D01*
X16404229Y40517504D01*
X16410366Y40512522D01*
X16416379Y40507393D01*
X16422266Y40502118D01*
X16428022Y40496702D01*
X16433645Y40491147D01*
X16439131Y40485457D01*
X16444476Y40479635D01*
X16449679Y40473685D01*
X16454734Y40467610D01*
X16459641Y40461413D01*
X16464395Y40455099D01*
X16468994Y40448671D01*
X16473435Y40442133D01*
X16477716Y40435488D01*
X16481833Y40428741D01*
X16485785Y40421896D01*
X16489569Y40414957D01*
X16493183Y40407928D01*
X16496625Y40400813D01*
X16499892Y40393616D01*
X16502983Y40386342D01*
X16505897Y40378994D01*
X16508630Y40371578D01*
X16511182Y40364098D01*
X16513551Y40356557D01*
X16515736Y40348961D01*
X16517735Y40341315D01*
X16519547Y40333621D01*
X16521172Y40325886D01*
X16522607Y40318114D01*
X16523853Y40310309D01*
X16524909Y40302476D01*
X16525773Y40294619D01*
X16526446Y40286744D01*
X16526927Y40278855D01*
X16527216Y40270956D01*
X16527312Y40263053D01*
X16527313Y40263053D02*
X16527313Y39938500D01*
X16527313Y40327966D02*
X17046600Y40587609D01*
X16170300Y41723244D02*
X16163242Y41723159D01*
X16156188Y41722903D01*
X16149142Y41722477D01*
X16142108Y41721880D01*
X16135091Y41721114D01*
X16128095Y41720179D01*
X16121123Y41719075D01*
X16114180Y41717802D01*
X16107269Y41716362D01*
X16100396Y41714756D01*
X16093563Y41712984D01*
X16086775Y41711048D01*
X16080036Y41708948D01*
X16073350Y41706685D01*
X16066720Y41704262D01*
X16060151Y41701680D01*
X16053646Y41698939D01*
X16047209Y41696042D01*
X16040844Y41692990D01*
X16034554Y41689786D01*
X16028344Y41686430D01*
X16022217Y41682925D01*
X16016176Y41679274D01*
X16010226Y41675477D01*
X16004368Y41671538D01*
X15998608Y41667458D01*
X15992948Y41663240D01*
X15987391Y41658887D01*
X15981942Y41654401D01*
X15976602Y41649784D01*
X15971375Y41645040D01*
X15966265Y41640170D01*
X15961274Y41635179D01*
X15956404Y41630069D01*
X15951660Y41624842D01*
X15947043Y41619502D01*
X15942557Y41614053D01*
X15938204Y41608496D01*
X15933986Y41602836D01*
X15929906Y41597076D01*
X15925967Y41591218D01*
X15922170Y41585268D01*
X15918519Y41579227D01*
X15915014Y41573100D01*
X15911658Y41566890D01*
X15908454Y41560600D01*
X15905402Y41554235D01*
X15902505Y41547798D01*
X15899764Y41541293D01*
X15897182Y41534724D01*
X15894759Y41528094D01*
X15892496Y41521408D01*
X15890396Y41514669D01*
X15888460Y41507881D01*
X15886688Y41501048D01*
X15885082Y41494175D01*
X15883642Y41487264D01*
X15882369Y41480321D01*
X15881265Y41473349D01*
X15880330Y41466353D01*
X15879564Y41459336D01*
X15878967Y41452302D01*
X15878541Y41445256D01*
X15878285Y41438202D01*
X15878200Y41431144D01*
X15878310Y41422069D01*
X15878639Y41413000D01*
X15879187Y41403941D01*
X15879955Y41394898D01*
X15880940Y41385876D01*
X15882144Y41376881D01*
X15883565Y41367917D01*
X15885202Y41358991D01*
X15887054Y41350106D01*
X15889121Y41341269D01*
X15891401Y41332485D01*
X15893893Y41323758D01*
X15896595Y41315094D01*
X15899506Y41306498D01*
X15902623Y41297975D01*
X15905946Y41289530D01*
X15909472Y41281168D01*
X15913200Y41272893D01*
X15917126Y41264711D01*
X15921249Y41256626D01*
X15925567Y41248643D01*
X15930076Y41240767D01*
X15934774Y41233003D01*
X15939659Y41225354D01*
X15944727Y41217825D01*
X15949976Y41210422D01*
X15955402Y41203147D01*
X15961003Y41196006D01*
X15966775Y41189002D01*
X15972714Y41182140D01*
X15978817Y41175424D01*
X15985082Y41168857D01*
X15991503Y41162444D01*
X15998077Y41156187D01*
X16004801Y41150092D01*
X16011670Y41144161D01*
X16018681Y41138398D01*
X16025829Y41132805D01*
X16033110Y41127388D01*
X16040520Y41122148D01*
X16048054Y41117089D01*
X16055709Y41112213D01*
X16063479Y41107524D01*
X16071361Y41103025D01*
X16079349Y41098717D01*
X16087438Y41094604D01*
X16095625Y41090687D01*
X16103904Y41086970D01*
X16112271Y41083454D01*
X16120720Y41080141D01*
X16129247Y41077033D01*
X16137847Y41074133D01*
X16397490Y41625878D02*
X16392113Y41631387D01*
X16386602Y41636763D01*
X16380961Y41642001D01*
X16375193Y41647100D01*
X16369301Y41652056D01*
X16363290Y41656866D01*
X16357163Y41661526D01*
X16350923Y41666035D01*
X16344574Y41670390D01*
X16338120Y41674588D01*
X16331565Y41678625D01*
X16324914Y41682501D01*
X16318169Y41686213D01*
X16311335Y41689757D01*
X16304416Y41693134D01*
X16297416Y41696339D01*
X16290340Y41699372D01*
X16283192Y41702230D01*
X16275975Y41704911D01*
X16268695Y41707415D01*
X16261356Y41709740D01*
X16253962Y41711884D01*
X16246518Y41713845D01*
X16239027Y41715624D01*
X16231496Y41717218D01*
X16223927Y41718627D01*
X16216326Y41719850D01*
X16208697Y41720885D01*
X16201046Y41721734D01*
X16193376Y41722394D01*
X16185691Y41722866D01*
X16177998Y41723150D01*
X16170300Y41723244D01*
X16397491Y41625878D02*
X17046600Y41074134D01*
X17046600Y41723244D01*
X11766600Y11428500D02*
X10598200Y11428500D01*
X10598200Y11753053D01*
X10598296Y11760956D01*
X10598585Y11768855D01*
X10599066Y11776744D01*
X10599739Y11784619D01*
X10600603Y11792476D01*
X10601659Y11800309D01*
X10602905Y11808114D01*
X10604340Y11815886D01*
X10605965Y11823621D01*
X10607777Y11831315D01*
X10609776Y11838961D01*
X10611961Y11846557D01*
X10614330Y11854098D01*
X10616882Y11861578D01*
X10619615Y11868994D01*
X10622529Y11876342D01*
X10625620Y11883616D01*
X10628887Y11890813D01*
X10632329Y11897928D01*
X10635943Y11904957D01*
X10639727Y11911896D01*
X10643679Y11918741D01*
X10647796Y11925488D01*
X10652077Y11932133D01*
X10656518Y11938671D01*
X10661117Y11945099D01*
X10665871Y11951413D01*
X10670778Y11957610D01*
X10675833Y11963685D01*
X10681036Y11969635D01*
X10686381Y11975457D01*
X10691867Y11981147D01*
X10697490Y11986702D01*
X10703246Y11992118D01*
X10709133Y11997393D01*
X10715146Y12002522D01*
X10721283Y12007504D01*
X10727539Y12012334D01*
X10733910Y12017011D01*
X10740394Y12021531D01*
X10746986Y12025892D01*
X10753682Y12030092D01*
X10760478Y12034127D01*
X10767371Y12037995D01*
X10774355Y12041694D01*
X10781428Y12045222D01*
X10788585Y12048577D01*
X10795821Y12051757D01*
X10803132Y12054759D01*
X10810514Y12057583D01*
X10817963Y12060226D01*
X10825474Y12062686D01*
X10833043Y12064964D01*
X10840665Y12067056D01*
X10848336Y12068962D01*
X10856050Y12070680D01*
X10863805Y12072210D01*
X10871594Y12073551D01*
X10879414Y12074702D01*
X10887259Y12075662D01*
X10895125Y12076431D01*
X10903008Y12077008D01*
X10910903Y12077392D01*
X10918804Y12077585D01*
X10926708Y12077585D01*
X10934609Y12077392D01*
X10942504Y12077008D01*
X10950387Y12076431D01*
X10958253Y12075662D01*
X10966098Y12074702D01*
X10973918Y12073551D01*
X10981707Y12072210D01*
X10989462Y12070680D01*
X10997176Y12068962D01*
X11004847Y12067056D01*
X11012469Y12064964D01*
X11020038Y12062686D01*
X11027549Y12060226D01*
X11034998Y12057583D01*
X11042380Y12054759D01*
X11049691Y12051757D01*
X11056927Y12048577D01*
X11064084Y12045222D01*
X11071157Y12041694D01*
X11078141Y12037995D01*
X11085034Y12034127D01*
X11091830Y12030092D01*
X11098526Y12025892D01*
X11105118Y12021531D01*
X11111602Y12017011D01*
X11117973Y12012334D01*
X11124229Y12007504D01*
X11130366Y12002522D01*
X11136379Y11997393D01*
X11142266Y11992118D01*
X11148022Y11986702D01*
X11153645Y11981147D01*
X11159131Y11975457D01*
X11164476Y11969635D01*
X11169679Y11963685D01*
X11174734Y11957610D01*
X11179641Y11951413D01*
X11184395Y11945099D01*
X11188994Y11938671D01*
X11193435Y11932133D01*
X11197716Y11925488D01*
X11201833Y11918741D01*
X11205785Y11911896D01*
X11209569Y11904957D01*
X11213183Y11897928D01*
X11216625Y11890813D01*
X11219892Y11883616D01*
X11222983Y11876342D01*
X11225897Y11868994D01*
X11228630Y11861578D01*
X11231182Y11854098D01*
X11233551Y11846557D01*
X11235736Y11838961D01*
X11237735Y11831315D01*
X11239547Y11823621D01*
X11241172Y11815886D01*
X11242607Y11808114D01*
X11243853Y11800309D01*
X11244909Y11792476D01*
X11245773Y11784619D01*
X11246446Y11776744D01*
X11246927Y11768855D01*
X11247216Y11760956D01*
X11247312Y11753053D01*
X11247313Y11753053D02*
X11247313Y11428500D01*
X11247313Y11817966D02*
X11766600Y12077609D01*
X11766600Y12564134D02*
X11766600Y12888688D01*
X11766504Y12896591D01*
X11766215Y12904490D01*
X11765734Y12912379D01*
X11765061Y12920254D01*
X11764197Y12928111D01*
X11763141Y12935944D01*
X11761895Y12943749D01*
X11760460Y12951521D01*
X11758835Y12959256D01*
X11757023Y12966950D01*
X11755024Y12974596D01*
X11752839Y12982192D01*
X11750470Y12989733D01*
X11747918Y12997213D01*
X11745185Y13004629D01*
X11742271Y13011977D01*
X11739180Y13019251D01*
X11735913Y13026448D01*
X11732471Y13033563D01*
X11728857Y13040592D01*
X11725073Y13047531D01*
X11721121Y13054376D01*
X11717004Y13061123D01*
X11712723Y13067768D01*
X11708282Y13074306D01*
X11703683Y13080734D01*
X11698929Y13087048D01*
X11694022Y13093245D01*
X11688967Y13099320D01*
X11683764Y13105270D01*
X11678419Y13111092D01*
X11672933Y13116782D01*
X11667310Y13122337D01*
X11661554Y13127753D01*
X11655667Y13133028D01*
X11649654Y13138157D01*
X11643517Y13143139D01*
X11637261Y13147969D01*
X11630890Y13152646D01*
X11624406Y13157166D01*
X11617814Y13161527D01*
X11611118Y13165727D01*
X11604322Y13169762D01*
X11597429Y13173630D01*
X11590445Y13177329D01*
X11583372Y13180857D01*
X11576215Y13184212D01*
X11568979Y13187392D01*
X11561668Y13190394D01*
X11554286Y13193218D01*
X11546837Y13195861D01*
X11539326Y13198321D01*
X11531757Y13200599D01*
X11524135Y13202691D01*
X11516464Y13204597D01*
X11508750Y13206315D01*
X11500995Y13207845D01*
X11493206Y13209186D01*
X11485386Y13210337D01*
X11477541Y13211297D01*
X11469675Y13212066D01*
X11461792Y13212643D01*
X11453897Y13213027D01*
X11445996Y13213220D01*
X11438092Y13213220D01*
X11430191Y13213027D01*
X11422296Y13212643D01*
X11414413Y13212066D01*
X11406547Y13211297D01*
X11398702Y13210337D01*
X11390882Y13209186D01*
X11383093Y13207845D01*
X11375338Y13206315D01*
X11367624Y13204597D01*
X11359953Y13202691D01*
X11352331Y13200599D01*
X11344762Y13198321D01*
X11337251Y13195861D01*
X11329802Y13193218D01*
X11322420Y13190394D01*
X11315109Y13187392D01*
X11307873Y13184212D01*
X11300716Y13180857D01*
X11293643Y13177329D01*
X11286659Y13173630D01*
X11279766Y13169762D01*
X11272970Y13165727D01*
X11266274Y13161527D01*
X11259682Y13157166D01*
X11253198Y13152646D01*
X11246827Y13147969D01*
X11240571Y13143139D01*
X11234434Y13138157D01*
X11228421Y13133028D01*
X11222534Y13127753D01*
X11216778Y13122337D01*
X11211155Y13116782D01*
X11205669Y13111092D01*
X11200324Y13105270D01*
X11195121Y13099320D01*
X11190066Y13093245D01*
X11185159Y13087048D01*
X11180405Y13080734D01*
X11175806Y13074306D01*
X11171365Y13067768D01*
X11167084Y13061123D01*
X11162967Y13054376D01*
X11159015Y13047531D01*
X11155231Y13040592D01*
X11151617Y13033563D01*
X11148175Y13026448D01*
X11144908Y13019251D01*
X11141817Y13011977D01*
X11138903Y13004629D01*
X11136170Y12997213D01*
X11133618Y12989733D01*
X11131249Y12982192D01*
X11129064Y12974596D01*
X11127065Y12966950D01*
X11125253Y12959256D01*
X11123628Y12951521D01*
X11122193Y12943749D01*
X11120947Y12935944D01*
X11119891Y12928111D01*
X11119027Y12920254D01*
X11118354Y12912379D01*
X11117873Y12904490D01*
X11117584Y12896591D01*
X11117488Y12888688D01*
X10598200Y12953600D02*
X10598200Y12564134D01*
X10598200Y12953600D02*
X10598277Y12959923D01*
X10598508Y12966241D01*
X10598893Y12972553D01*
X10599431Y12978853D01*
X10600123Y12985138D01*
X10600967Y12991404D01*
X10601964Y12997648D01*
X10603112Y13003866D01*
X10604412Y13010054D01*
X10605862Y13016209D01*
X10607461Y13022326D01*
X10609209Y13028403D01*
X10611104Y13034436D01*
X10613146Y13040420D01*
X10615332Y13046353D01*
X10617663Y13052231D01*
X10620136Y13058050D01*
X10622750Y13063808D01*
X10625503Y13069500D01*
X10628394Y13075123D01*
X10631422Y13080674D01*
X10634583Y13086150D01*
X10637877Y13091548D01*
X10641301Y13096863D01*
X10644854Y13102094D01*
X10648533Y13107236D01*
X10652337Y13112288D01*
X10656262Y13117245D01*
X10660307Y13122105D01*
X10664468Y13126865D01*
X10668745Y13131523D01*
X10673134Y13136075D01*
X10677632Y13140519D01*
X10682237Y13144852D01*
X10686946Y13149071D01*
X10691757Y13153175D01*
X10696666Y13157160D01*
X10701671Y13161024D01*
X10706768Y13164766D01*
X10711955Y13168382D01*
X10717228Y13171871D01*
X10722585Y13175230D01*
X10728022Y13178458D01*
X10733536Y13181553D01*
X10739124Y13184512D01*
X10744782Y13187335D01*
X10750507Y13190019D01*
X10756296Y13192562D01*
X10762145Y13194964D01*
X10768051Y13197223D01*
X10774010Y13199337D01*
X10780019Y13201306D01*
X10786074Y13203128D01*
X10792171Y13204801D01*
X10798308Y13206326D01*
X10804480Y13207701D01*
X10810683Y13208925D01*
X10816914Y13209998D01*
X10823170Y13210918D01*
X10829446Y13211686D01*
X10835740Y13212301D01*
X10842046Y13212763D01*
X10848361Y13213071D01*
X10854682Y13213225D01*
X10861006Y13213225D01*
X10867327Y13213071D01*
X10873642Y13212763D01*
X10879948Y13212301D01*
X10886242Y13211686D01*
X10892518Y13210918D01*
X10898774Y13209998D01*
X10905005Y13208925D01*
X10911208Y13207701D01*
X10917380Y13206326D01*
X10923517Y13204801D01*
X10929614Y13203128D01*
X10935669Y13201306D01*
X10941678Y13199337D01*
X10947637Y13197223D01*
X10953543Y13194964D01*
X10959392Y13192562D01*
X10965181Y13190019D01*
X10970906Y13187335D01*
X10976564Y13184512D01*
X10982152Y13181553D01*
X10987666Y13178458D01*
X10993103Y13175230D01*
X10998460Y13171871D01*
X11003733Y13168382D01*
X11008920Y13164766D01*
X11014017Y13161024D01*
X11019022Y13157160D01*
X11023931Y13153175D01*
X11028742Y13149071D01*
X11033451Y13144852D01*
X11038056Y13140519D01*
X11042554Y13136075D01*
X11046943Y13131523D01*
X11051220Y13126865D01*
X11055381Y13122105D01*
X11059426Y13117245D01*
X11063351Y13112288D01*
X11067155Y13107236D01*
X11070834Y13102094D01*
X11074387Y13096863D01*
X11077811Y13091548D01*
X11081105Y13086150D01*
X11084266Y13080674D01*
X11087294Y13075123D01*
X11090185Y13069500D01*
X11092938Y13063808D01*
X11095552Y13058050D01*
X11098025Y13052231D01*
X11100356Y13046353D01*
X11102542Y13040420D01*
X11104584Y13034436D01*
X11106479Y13028403D01*
X11108227Y13022326D01*
X11109826Y13016209D01*
X11111276Y13010054D01*
X11112576Y13003866D01*
X11113724Y12997648D01*
X11114721Y12991404D01*
X11115565Y12985138D01*
X11116257Y12978853D01*
X11116795Y12972553D01*
X11117180Y12966241D01*
X11117411Y12959923D01*
X11117488Y12953600D01*
X11117491Y12953600D02*
X11117491Y12693956D01*
D19*
X8587400Y5812700D02*
X14587400Y5812700D01*
X14587400Y9312700D02*
X8587400Y9312700D01*
D15*
X10087400Y6812700D02*
X13087400Y6812700D01*
X13087400Y8312700D01*
X10087400Y8312700D01*
X10087400Y6812700D01*
D20*
X7037400Y9562700D03*
D10*
X8522006Y10118100D02*
X8528293Y10118176D01*
X8534575Y10118404D01*
X8540851Y10118783D01*
X8547115Y10119315D01*
X8553365Y10119997D01*
X8559597Y10120830D01*
X8565806Y10121814D01*
X8571990Y10122947D01*
X8578145Y10124229D01*
X8584267Y10125660D01*
X8590353Y10127238D01*
X8596398Y10128963D01*
X8602401Y10130833D01*
X8608356Y10132848D01*
X8614261Y10135006D01*
X8620112Y10137307D01*
X8625906Y10139748D01*
X8631639Y10142328D01*
X8637308Y10145046D01*
X8642910Y10147900D01*
X8648441Y10150889D01*
X8653898Y10154010D01*
X8659278Y10157263D01*
X8664579Y10160644D01*
X8669795Y10164153D01*
X8674926Y10167787D01*
X8679967Y10171543D01*
X8684916Y10175421D01*
X8689770Y10179416D01*
X8694526Y10183528D01*
X8699181Y10187754D01*
X8703733Y10192091D01*
X8708178Y10196536D01*
X8712515Y10201088D01*
X8716741Y10205743D01*
X8720853Y10210499D01*
X8724848Y10215353D01*
X8728726Y10220302D01*
X8732482Y10225343D01*
X8736116Y10230474D01*
X8739625Y10235690D01*
X8743006Y10240991D01*
X8746259Y10246371D01*
X8749380Y10251828D01*
X8752369Y10257359D01*
X8755223Y10262961D01*
X8757941Y10268630D01*
X8760521Y10274363D01*
X8762962Y10280157D01*
X8765263Y10286008D01*
X8767421Y10291913D01*
X8769436Y10297868D01*
X8771306Y10303871D01*
X8773031Y10309916D01*
X8774609Y10316002D01*
X8776040Y10322124D01*
X8777322Y10328279D01*
X8778455Y10334463D01*
X8779439Y10340672D01*
X8780272Y10346904D01*
X8780954Y10353154D01*
X8781486Y10359418D01*
X8781865Y10365694D01*
X8782093Y10371976D01*
X8782169Y10378263D01*
X8522006Y10118100D02*
X8508857Y10118257D01*
X8495716Y10118729D01*
X8482590Y10119515D01*
X8469486Y10120615D01*
X8456413Y10122028D01*
X8443377Y10123754D01*
X8430385Y10125790D01*
X8417447Y10128137D01*
X8404568Y10130793D01*
X8391757Y10133757D01*
X8379020Y10137025D01*
X8366365Y10140598D01*
X8353799Y10144473D01*
X8341329Y10148647D01*
X8328963Y10153118D01*
X8316707Y10157883D01*
X8304569Y10162941D01*
X8292555Y10168287D01*
X8280672Y10173919D01*
X8268928Y10179834D01*
X8257329Y10186029D01*
X8245881Y10192499D01*
X8234591Y10199241D01*
X8223466Y10206251D01*
X8212511Y10213525D01*
X8201734Y10221059D01*
X8191140Y10228849D01*
X8180736Y10236891D01*
X8170526Y10245178D01*
X8160518Y10253708D01*
X8150717Y10262475D01*
X8141129Y10271473D01*
X8131758Y10280699D01*
X8164278Y11028675D02*
X8164354Y11034962D01*
X8164582Y11041244D01*
X8164961Y11047520D01*
X8165493Y11053785D01*
X8166175Y11060034D01*
X8167008Y11066266D01*
X8167992Y11072476D01*
X8169125Y11078660D01*
X8170407Y11084814D01*
X8171838Y11090937D01*
X8173416Y11097022D01*
X8175141Y11103068D01*
X8177011Y11109070D01*
X8179026Y11115026D01*
X8181185Y11120931D01*
X8183485Y11126782D01*
X8185926Y11132576D01*
X8188506Y11138309D01*
X8191224Y11143978D01*
X8194079Y11149580D01*
X8197067Y11155111D01*
X8200189Y11160568D01*
X8203441Y11165948D01*
X8206823Y11171249D01*
X8210332Y11176465D01*
X8213965Y11181596D01*
X8217722Y11186637D01*
X8221599Y11191586D01*
X8225595Y11196440D01*
X8229707Y11201196D01*
X8233933Y11205851D01*
X8238270Y11210403D01*
X8242715Y11214848D01*
X8247267Y11219185D01*
X8251922Y11223411D01*
X8256678Y11227523D01*
X8261532Y11231519D01*
X8266481Y11235396D01*
X8271523Y11239152D01*
X8276653Y11242786D01*
X8281870Y11246295D01*
X8287170Y11249676D01*
X8292551Y11252929D01*
X8298008Y11256050D01*
X8303539Y11259039D01*
X8309141Y11261893D01*
X8314810Y11264611D01*
X8320543Y11267191D01*
X8326337Y11269632D01*
X8332188Y11271932D01*
X8338093Y11274091D01*
X8344049Y11276105D01*
X8350051Y11277976D01*
X8356097Y11279701D01*
X8362182Y11281279D01*
X8368305Y11282709D01*
X8374459Y11283992D01*
X8380643Y11285125D01*
X8386853Y11286108D01*
X8393085Y11286941D01*
X8399335Y11287624D01*
X8405599Y11288155D01*
X8411875Y11288534D01*
X8418158Y11288762D01*
X8424444Y11288838D01*
X8424444Y11288841D02*
X8436069Y11288702D01*
X8447688Y11288287D01*
X8459293Y11287594D01*
X8470878Y11286625D01*
X8482437Y11285381D01*
X8493963Y11283861D01*
X8505450Y11282067D01*
X8516890Y11280000D01*
X8528278Y11277661D01*
X8539608Y11275051D01*
X8550871Y11272172D01*
X8562063Y11269025D01*
X8573177Y11265612D01*
X8584206Y11261936D01*
X8595144Y11257997D01*
X8605986Y11253800D01*
X8616724Y11249345D01*
X8627353Y11244635D01*
X8637867Y11239673D01*
X8648260Y11234463D01*
X8658525Y11229006D01*
X8668658Y11223306D01*
X8678652Y11217366D01*
X8688501Y11211190D01*
X8698201Y11204780D01*
X8707745Y11198142D01*
X8717128Y11191277D01*
X8294359Y10801031D02*
X8288902Y10804336D01*
X8283526Y10807772D01*
X8278235Y10811337D01*
X8273031Y10815029D01*
X8267919Y10818845D01*
X8262899Y10822783D01*
X8257976Y10826842D01*
X8253153Y10831018D01*
X8248432Y10835309D01*
X8243816Y10839713D01*
X8239308Y10844228D01*
X8234910Y10848849D01*
X8230624Y10853576D01*
X8226454Y10858405D01*
X8222402Y10863333D01*
X8218470Y10868357D01*
X8214661Y10873475D01*
X8210976Y10878683D01*
X8207418Y10883979D01*
X8203989Y10889359D01*
X8200691Y10894821D01*
X8197526Y10900360D01*
X8194495Y10905974D01*
X8191601Y10911660D01*
X8188845Y10917414D01*
X8186228Y10923233D01*
X8183753Y10929113D01*
X8181421Y10935051D01*
X8179232Y10941044D01*
X8177189Y10947088D01*
X8175293Y10953180D01*
X8173544Y10959316D01*
X8171943Y10965492D01*
X8170493Y10971705D01*
X8169192Y10977951D01*
X8168043Y10984226D01*
X8167046Y10990528D01*
X8166201Y10996852D01*
X8165509Y11003194D01*
X8164971Y11009551D01*
X8164586Y11015920D01*
X8164355Y11022295D01*
X8164278Y11028675D01*
X8652088Y10605907D02*
X8657545Y10602602D01*
X8662921Y10599166D01*
X8668212Y10595601D01*
X8673416Y10591909D01*
X8678528Y10588093D01*
X8683548Y10584155D01*
X8688471Y10580096D01*
X8693294Y10575920D01*
X8698015Y10571629D01*
X8702631Y10567225D01*
X8707139Y10562710D01*
X8711537Y10558089D01*
X8715823Y10553362D01*
X8719993Y10548533D01*
X8724045Y10543605D01*
X8727977Y10538581D01*
X8731786Y10533463D01*
X8735471Y10528255D01*
X8739029Y10522959D01*
X8742458Y10517579D01*
X8745756Y10512117D01*
X8748921Y10506578D01*
X8751952Y10500964D01*
X8754846Y10495278D01*
X8757602Y10489524D01*
X8760219Y10483705D01*
X8762694Y10477825D01*
X8765026Y10471887D01*
X8767215Y10465894D01*
X8769258Y10459850D01*
X8771154Y10453758D01*
X8772903Y10447622D01*
X8774504Y10441446D01*
X8775954Y10435233D01*
X8777255Y10428987D01*
X8778404Y10422712D01*
X8779401Y10416410D01*
X8780246Y10410086D01*
X8780938Y10403744D01*
X8781476Y10397387D01*
X8781861Y10391018D01*
X8782092Y10384643D01*
X8782169Y10378263D01*
X8652088Y10605906D02*
X8294359Y10801031D01*
X9196253Y11288841D02*
X9456416Y10118100D01*
X9716581Y10898594D01*
X9976747Y10118100D01*
X10236909Y11288841D01*
X10689166Y11028675D02*
X11014369Y11288841D01*
X11014369Y10118100D01*
X10689166Y10118100D02*
X11339575Y10118100D01*
D21*
X9767400Y21972700D02*
X9767400Y28172700D01*
X15967400Y28172700D01*
X15967400Y21972700D01*
X9767400Y21972700D01*
D22*
X9267400Y20772700D03*
D10*
X7281059Y20013409D02*
X6435400Y20013409D01*
X7281059Y20013409D02*
X7288979Y20013505D01*
X7296895Y20013795D01*
X7304801Y20014277D01*
X7312693Y20014951D01*
X7320566Y20015817D01*
X7328416Y20016875D01*
X7336238Y20018124D01*
X7344027Y20019562D01*
X7351778Y20021190D01*
X7359488Y20023007D01*
X7367151Y20025010D01*
X7374763Y20027199D01*
X7382320Y20029574D01*
X7389816Y20032131D01*
X7397248Y20034870D01*
X7404611Y20037790D01*
X7411901Y20040888D01*
X7419114Y20044162D01*
X7426244Y20047611D01*
X7433288Y20051233D01*
X7440242Y20055025D01*
X7447102Y20058985D01*
X7453863Y20063112D01*
X7460521Y20067401D01*
X7467074Y20071852D01*
X7473516Y20076461D01*
X7479843Y20081225D01*
X7486053Y20086142D01*
X7492141Y20091208D01*
X7498104Y20096422D01*
X7503939Y20101779D01*
X7509641Y20107277D01*
X7515208Y20112911D01*
X7520635Y20118680D01*
X7525921Y20124579D01*
X7531061Y20130605D01*
X7536054Y20136755D01*
X7540895Y20143024D01*
X7545581Y20149409D01*
X7550111Y20155907D01*
X7554482Y20162513D01*
X7558690Y20169223D01*
X7562734Y20176034D01*
X7566610Y20182941D01*
X7570318Y20189941D01*
X7573853Y20197029D01*
X7577215Y20204201D01*
X7580402Y20211452D01*
X7583410Y20218779D01*
X7586240Y20226177D01*
X7588889Y20233642D01*
X7591355Y20241169D01*
X7593636Y20248754D01*
X7595733Y20256392D01*
X7597643Y20264079D01*
X7599365Y20271811D01*
X7600899Y20279582D01*
X7602242Y20287388D01*
X7603396Y20295224D01*
X7604358Y20303086D01*
X7605128Y20310969D01*
X7605706Y20318869D01*
X7606092Y20326780D01*
X7606285Y20334699D01*
X7606285Y20342619D01*
X7606092Y20350538D01*
X7605706Y20358449D01*
X7605128Y20366349D01*
X7604358Y20374232D01*
X7603396Y20382094D01*
X7602242Y20389930D01*
X7600899Y20397736D01*
X7599365Y20405507D01*
X7597643Y20413239D01*
X7595733Y20420926D01*
X7593636Y20428564D01*
X7591355Y20436149D01*
X7588889Y20443676D01*
X7586240Y20451141D01*
X7583410Y20458539D01*
X7580402Y20465866D01*
X7577215Y20473117D01*
X7573853Y20480289D01*
X7570318Y20487377D01*
X7566610Y20494377D01*
X7562734Y20501284D01*
X7558690Y20508095D01*
X7554482Y20514805D01*
X7550111Y20521411D01*
X7545581Y20527909D01*
X7540895Y20534294D01*
X7536054Y20540563D01*
X7531061Y20546713D01*
X7525921Y20552739D01*
X7520635Y20558638D01*
X7515208Y20564407D01*
X7509641Y20570041D01*
X7503939Y20575539D01*
X7498104Y20580896D01*
X7492141Y20586110D01*
X7486053Y20591176D01*
X7479843Y20596093D01*
X7473516Y20600857D01*
X7467074Y20605466D01*
X7460521Y20609917D01*
X7453863Y20614206D01*
X7447102Y20618333D01*
X7440242Y20622293D01*
X7433288Y20626085D01*
X7426244Y20629707D01*
X7419114Y20633156D01*
X7411901Y20636430D01*
X7404611Y20639528D01*
X7397248Y20642448D01*
X7389816Y20645187D01*
X7382320Y20647744D01*
X7374763Y20650119D01*
X7367151Y20652308D01*
X7359488Y20654311D01*
X7351778Y20656128D01*
X7344027Y20657756D01*
X7336238Y20659194D01*
X7328416Y20660443D01*
X7320566Y20661501D01*
X7312693Y20662367D01*
X7304801Y20663041D01*
X7296895Y20663523D01*
X7288979Y20663813D01*
X7281059Y20663909D01*
X7281059Y20663913D02*
X6435400Y20663913D01*
X6695603Y21196844D02*
X6435400Y21522094D01*
X7606309Y21522094D01*
X7606309Y21196844D02*
X7606309Y21847347D01*
D15*
X11657400Y18522700D02*
X11657400Y13522700D01*
X8257400Y13522700D02*
X8257400Y18522700D01*
D10*
X8852641Y16777759D02*
X9242841Y16224975D01*
X9633041Y16777759D01*
X9242841Y16224975D02*
X9242841Y15607159D01*
X10062650Y16517625D02*
X10387816Y16777759D01*
X10387816Y15607159D01*
X10712981Y15607159D02*
X10062650Y15607159D01*
M02*
