G04 EAGLE Gerber X2 export*
%TF.Part,Single*%
%TF.FileFunction,Legend,Bot,1*%
%TF.FilePolarity,Positive*%
%TF.GenerationSoftware,Autodesk,EAGLE,9.6.2*%
%TF.CreationDate,2022-05-08T12:24:25Z*%
G75*
%MOMM*%
%FSLAX46Y46*%
%LPD*%
%INSilkscreen Bottom*%
%AMOC8*
5,1,8,0,0,1.08239X$1,22.5*%
G01*
%ADD10C,0.101600*%
%ADD11C,0.203200*%
%ADD12C,0.152400*%
%ADD13C,0.127000*%


D10*
X4688200Y33516259D02*
X4688200Y33256616D01*
X4688276Y33250342D01*
X4688503Y33244072D01*
X4688882Y33237809D01*
X4689412Y33231557D01*
X4690093Y33225319D01*
X4690925Y33219100D01*
X4691906Y33212903D01*
X4693037Y33206731D01*
X4694317Y33200589D01*
X4695745Y33194479D01*
X4697320Y33188406D01*
X4699041Y33182372D01*
X4700908Y33176382D01*
X4702919Y33170438D01*
X4705073Y33164545D01*
X4707368Y33158706D01*
X4709804Y33152923D01*
X4712380Y33147202D01*
X4715092Y33141544D01*
X4717941Y33135953D01*
X4720923Y33130433D01*
X4724039Y33124987D01*
X4727285Y33119617D01*
X4730660Y33114328D01*
X4734161Y33109121D01*
X4737788Y33104001D01*
X4741537Y33098970D01*
X4745406Y33094031D01*
X4749394Y33089187D01*
X4753498Y33084440D01*
X4757715Y33079794D01*
X4762043Y33075252D01*
X4766480Y33070815D01*
X4771022Y33066487D01*
X4775668Y33062270D01*
X4780415Y33058166D01*
X4785259Y33054178D01*
X4790198Y33050309D01*
X4795229Y33046560D01*
X4800349Y33042933D01*
X4805556Y33039432D01*
X4810845Y33036057D01*
X4816215Y33032811D01*
X4821661Y33029695D01*
X4827181Y33026713D01*
X4832772Y33023864D01*
X4838430Y33021152D01*
X4844151Y33018576D01*
X4849934Y33016140D01*
X4855773Y33013845D01*
X4861666Y33011691D01*
X4867610Y33009680D01*
X4873600Y33007813D01*
X4879634Y33006092D01*
X4885707Y33004517D01*
X4891817Y33003089D01*
X4897959Y33001809D01*
X4904131Y33000678D01*
X4910328Y32999697D01*
X4916547Y32998865D01*
X4922785Y32998184D01*
X4929037Y32997654D01*
X4935300Y32997275D01*
X4941570Y32997048D01*
X4947844Y32996972D01*
X5596953Y32996972D01*
X5603325Y32997050D01*
X5609693Y32997285D01*
X5616054Y32997676D01*
X5622403Y32998222D01*
X5628736Y32998925D01*
X5635051Y32999782D01*
X5641342Y33000795D01*
X5647607Y33001961D01*
X5653842Y33003281D01*
X5660042Y33004753D01*
X5666204Y33006377D01*
X5672324Y33008152D01*
X5678399Y33010077D01*
X5684425Y33012150D01*
X5690398Y33014370D01*
X5696315Y33016736D01*
X5702172Y33019247D01*
X5707966Y33021901D01*
X5713692Y33024696D01*
X5719349Y33027630D01*
X5724932Y33030703D01*
X5730437Y33033912D01*
X5735863Y33037255D01*
X5741204Y33040730D01*
X5746459Y33044335D01*
X5751624Y33048068D01*
X5756695Y33051926D01*
X5761670Y33055908D01*
X5766546Y33060011D01*
X5771320Y33064232D01*
X5775989Y33068569D01*
X5780550Y33073020D01*
X5785000Y33077581D01*
X5789338Y33082250D01*
X5793559Y33087023D01*
X5797662Y33091899D01*
X5801644Y33096875D01*
X5805502Y33101946D01*
X5809235Y33107111D01*
X5812841Y33112365D01*
X5816316Y33117707D01*
X5819659Y33123132D01*
X5822867Y33128638D01*
X5825940Y33134220D01*
X5828875Y33139877D01*
X5831670Y33145604D01*
X5834324Y33151397D01*
X5836835Y33157254D01*
X5839201Y33163171D01*
X5841421Y33169144D01*
X5843494Y33175170D01*
X5845419Y33181245D01*
X5847194Y33187365D01*
X5848818Y33193527D01*
X5850291Y33199727D01*
X5851610Y33205962D01*
X5852777Y33212227D01*
X5853789Y33218518D01*
X5854647Y33224833D01*
X5855349Y33231166D01*
X5855896Y33237515D01*
X5856287Y33243876D01*
X5856522Y33250244D01*
X5856600Y33256616D01*
X5856600Y33516259D01*
X4688200Y33952791D02*
X4688200Y34342256D01*
X4688276Y34348530D01*
X4688503Y34354800D01*
X4688882Y34361063D01*
X4689412Y34367315D01*
X4690093Y34373553D01*
X4690925Y34379772D01*
X4691906Y34385969D01*
X4693037Y34392141D01*
X4694317Y34398283D01*
X4695745Y34404393D01*
X4697320Y34410466D01*
X4699041Y34416500D01*
X4700908Y34422490D01*
X4702919Y34428434D01*
X4705073Y34434327D01*
X4707368Y34440166D01*
X4709804Y34445949D01*
X4712380Y34451670D01*
X4715092Y34457328D01*
X4717941Y34462919D01*
X4720923Y34468439D01*
X4724039Y34473885D01*
X4727285Y34479255D01*
X4730660Y34484544D01*
X4734161Y34489751D01*
X4737788Y34494871D01*
X4741537Y34499902D01*
X4745406Y34504841D01*
X4749394Y34509685D01*
X4753498Y34514432D01*
X4757715Y34519078D01*
X4762043Y34523620D01*
X4766480Y34528057D01*
X4771022Y34532385D01*
X4775668Y34536602D01*
X4780415Y34540706D01*
X4785259Y34544694D01*
X4790198Y34548563D01*
X4795229Y34552312D01*
X4800349Y34555939D01*
X4805556Y34559440D01*
X4810845Y34562815D01*
X4816215Y34566061D01*
X4821661Y34569177D01*
X4827181Y34572159D01*
X4832772Y34575008D01*
X4838430Y34577720D01*
X4844151Y34580296D01*
X4849934Y34582732D01*
X4855773Y34585027D01*
X4861666Y34587181D01*
X4867610Y34589192D01*
X4873600Y34591059D01*
X4879634Y34592780D01*
X4885707Y34594355D01*
X4891817Y34595783D01*
X4897959Y34597063D01*
X4904131Y34598194D01*
X4910328Y34599175D01*
X4916547Y34600007D01*
X4922785Y34600688D01*
X4929037Y34601218D01*
X4935300Y34601597D01*
X4941570Y34601824D01*
X4947844Y34601900D01*
X5077666Y34601900D01*
X5083940Y34601824D01*
X5090210Y34601597D01*
X5096473Y34601218D01*
X5102725Y34600688D01*
X5108963Y34600007D01*
X5115182Y34599175D01*
X5121379Y34598194D01*
X5127551Y34597063D01*
X5133693Y34595783D01*
X5139803Y34594355D01*
X5145876Y34592780D01*
X5151910Y34591059D01*
X5157900Y34589192D01*
X5163844Y34587181D01*
X5169737Y34585027D01*
X5175576Y34582732D01*
X5181359Y34580296D01*
X5187080Y34577720D01*
X5192738Y34575008D01*
X5198329Y34572159D01*
X5203849Y34569177D01*
X5209295Y34566061D01*
X5214665Y34562815D01*
X5219954Y34559440D01*
X5225161Y34555939D01*
X5230281Y34552312D01*
X5235312Y34548563D01*
X5240251Y34544694D01*
X5245095Y34540706D01*
X5249842Y34536602D01*
X5254488Y34532385D01*
X5259030Y34528057D01*
X5263467Y34523620D01*
X5267795Y34519078D01*
X5272012Y34514432D01*
X5276116Y34509685D01*
X5280104Y34504841D01*
X5283973Y34499902D01*
X5287722Y34494871D01*
X5291349Y34489751D01*
X5294850Y34484544D01*
X5298225Y34479255D01*
X5301471Y34473885D01*
X5304587Y34468439D01*
X5307569Y34462919D01*
X5310418Y34457328D01*
X5313130Y34451670D01*
X5315706Y34445949D01*
X5318142Y34440166D01*
X5320437Y34434327D01*
X5322591Y34428434D01*
X5324602Y34422490D01*
X5326469Y34416500D01*
X5328190Y34410466D01*
X5329765Y34404393D01*
X5331193Y34398283D01*
X5332473Y34392141D01*
X5333604Y34385969D01*
X5334585Y34379772D01*
X5335417Y34373553D01*
X5336098Y34367315D01*
X5336628Y34361063D01*
X5337007Y34354800D01*
X5337234Y34348530D01*
X5337310Y34342256D01*
X5337309Y34342256D02*
X5337309Y33952791D01*
X5856600Y33952791D01*
X5856600Y34601900D01*
X15578200Y40166616D02*
X15578200Y40426259D01*
X15578200Y40166616D02*
X15578276Y40160342D01*
X15578503Y40154072D01*
X15578882Y40147809D01*
X15579412Y40141557D01*
X15580093Y40135319D01*
X15580925Y40129100D01*
X15581906Y40122903D01*
X15583037Y40116731D01*
X15584317Y40110589D01*
X15585745Y40104479D01*
X15587320Y40098406D01*
X15589041Y40092372D01*
X15590908Y40086382D01*
X15592919Y40080438D01*
X15595073Y40074545D01*
X15597368Y40068706D01*
X15599804Y40062923D01*
X15602380Y40057202D01*
X15605092Y40051544D01*
X15607941Y40045953D01*
X15610923Y40040433D01*
X15614039Y40034987D01*
X15617285Y40029617D01*
X15620660Y40024328D01*
X15624161Y40019121D01*
X15627788Y40014001D01*
X15631537Y40008970D01*
X15635406Y40004031D01*
X15639394Y39999187D01*
X15643498Y39994440D01*
X15647715Y39989794D01*
X15652043Y39985252D01*
X15656480Y39980815D01*
X15661022Y39976487D01*
X15665668Y39972270D01*
X15670415Y39968166D01*
X15675259Y39964178D01*
X15680198Y39960309D01*
X15685229Y39956560D01*
X15690349Y39952933D01*
X15695556Y39949432D01*
X15700845Y39946057D01*
X15706215Y39942811D01*
X15711661Y39939695D01*
X15717181Y39936713D01*
X15722772Y39933864D01*
X15728430Y39931152D01*
X15734151Y39928576D01*
X15739934Y39926140D01*
X15745773Y39923845D01*
X15751666Y39921691D01*
X15757610Y39919680D01*
X15763600Y39917813D01*
X15769634Y39916092D01*
X15775707Y39914517D01*
X15781817Y39913089D01*
X15787959Y39911809D01*
X15794131Y39910678D01*
X15800328Y39909697D01*
X15806547Y39908865D01*
X15812785Y39908184D01*
X15819037Y39907654D01*
X15825300Y39907275D01*
X15831570Y39907048D01*
X15837844Y39906972D01*
X16486953Y39906972D01*
X16493325Y39907050D01*
X16499693Y39907285D01*
X16506054Y39907676D01*
X16512403Y39908222D01*
X16518736Y39908925D01*
X16525051Y39909782D01*
X16531342Y39910795D01*
X16537607Y39911961D01*
X16543842Y39913281D01*
X16550042Y39914753D01*
X16556204Y39916377D01*
X16562324Y39918152D01*
X16568399Y39920077D01*
X16574425Y39922150D01*
X16580398Y39924370D01*
X16586315Y39926736D01*
X16592172Y39929247D01*
X16597966Y39931901D01*
X16603692Y39934696D01*
X16609349Y39937630D01*
X16614932Y39940703D01*
X16620437Y39943912D01*
X16625863Y39947255D01*
X16631204Y39950730D01*
X16636459Y39954335D01*
X16641624Y39958068D01*
X16646695Y39961926D01*
X16651670Y39965908D01*
X16656546Y39970011D01*
X16661320Y39974232D01*
X16665989Y39978569D01*
X16670550Y39983020D01*
X16675000Y39987581D01*
X16679338Y39992250D01*
X16683559Y39997023D01*
X16687662Y40001899D01*
X16691644Y40006875D01*
X16695502Y40011946D01*
X16699235Y40017111D01*
X16702841Y40022365D01*
X16706316Y40027707D01*
X16709659Y40033132D01*
X16712867Y40038638D01*
X16715940Y40044220D01*
X16718875Y40049877D01*
X16721670Y40055604D01*
X16724324Y40061397D01*
X16726835Y40067254D01*
X16729201Y40073171D01*
X16731421Y40079144D01*
X16733494Y40085170D01*
X16735419Y40091245D01*
X16737194Y40097365D01*
X16738818Y40103527D01*
X16740291Y40109727D01*
X16741610Y40115962D01*
X16742777Y40122227D01*
X16743789Y40128518D01*
X16744647Y40134833D01*
X16745349Y40141166D01*
X16745896Y40147515D01*
X16746287Y40153876D01*
X16746522Y40160244D01*
X16746600Y40166616D01*
X16746600Y40426259D01*
X16227309Y40862791D02*
X16227309Y41252256D01*
X16227310Y41252256D02*
X16227234Y41258530D01*
X16227007Y41264800D01*
X16226628Y41271063D01*
X16226098Y41277315D01*
X16225417Y41283553D01*
X16224585Y41289772D01*
X16223604Y41295969D01*
X16222473Y41302141D01*
X16221193Y41308283D01*
X16219765Y41314393D01*
X16218190Y41320466D01*
X16216469Y41326500D01*
X16214602Y41332490D01*
X16212591Y41338434D01*
X16210437Y41344327D01*
X16208142Y41350166D01*
X16205706Y41355949D01*
X16203130Y41361670D01*
X16200418Y41367328D01*
X16197569Y41372919D01*
X16194587Y41378439D01*
X16191471Y41383885D01*
X16188225Y41389255D01*
X16184850Y41394544D01*
X16181349Y41399751D01*
X16177722Y41404871D01*
X16173973Y41409902D01*
X16170104Y41414841D01*
X16166116Y41419685D01*
X16162012Y41424432D01*
X16157795Y41429078D01*
X16153467Y41433620D01*
X16149030Y41438057D01*
X16144488Y41442385D01*
X16139842Y41446602D01*
X16135095Y41450706D01*
X16130251Y41454694D01*
X16125312Y41458563D01*
X16120281Y41462312D01*
X16115161Y41465939D01*
X16109954Y41469440D01*
X16104665Y41472815D01*
X16099295Y41476061D01*
X16093849Y41479177D01*
X16088329Y41482159D01*
X16082738Y41485008D01*
X16077080Y41487720D01*
X16071359Y41490296D01*
X16065576Y41492732D01*
X16059737Y41495027D01*
X16053844Y41497181D01*
X16047900Y41499192D01*
X16041910Y41501059D01*
X16035876Y41502780D01*
X16029803Y41504355D01*
X16023693Y41505783D01*
X16017551Y41507063D01*
X16011379Y41508194D01*
X16005182Y41509175D01*
X15998963Y41510007D01*
X15992725Y41510688D01*
X15986473Y41511218D01*
X15980210Y41511597D01*
X15973940Y41511824D01*
X15967666Y41511900D01*
X15902753Y41511900D01*
X15894850Y41511804D01*
X15886951Y41511515D01*
X15879062Y41511034D01*
X15871187Y41510361D01*
X15863330Y41509497D01*
X15855497Y41508441D01*
X15847692Y41507195D01*
X15839920Y41505760D01*
X15832185Y41504135D01*
X15824491Y41502323D01*
X15816845Y41500324D01*
X15809249Y41498139D01*
X15801708Y41495770D01*
X15794228Y41493218D01*
X15786812Y41490485D01*
X15779464Y41487571D01*
X15772190Y41484480D01*
X15764993Y41481213D01*
X15757878Y41477771D01*
X15750849Y41474157D01*
X15743910Y41470373D01*
X15737065Y41466421D01*
X15730318Y41462304D01*
X15723673Y41458023D01*
X15717135Y41453582D01*
X15710707Y41448983D01*
X15704393Y41444229D01*
X15698196Y41439322D01*
X15692121Y41434267D01*
X15686171Y41429064D01*
X15680349Y41423719D01*
X15674659Y41418233D01*
X15669104Y41412610D01*
X15663688Y41406854D01*
X15658413Y41400967D01*
X15653284Y41394954D01*
X15648302Y41388817D01*
X15643472Y41382561D01*
X15638795Y41376190D01*
X15634275Y41369706D01*
X15629914Y41363114D01*
X15625714Y41356418D01*
X15621679Y41349622D01*
X15617811Y41342729D01*
X15614112Y41335745D01*
X15610584Y41328672D01*
X15607229Y41321515D01*
X15604049Y41314279D01*
X15601047Y41306968D01*
X15598223Y41299586D01*
X15595580Y41292137D01*
X15593120Y41284626D01*
X15590842Y41277057D01*
X15588750Y41269435D01*
X15586844Y41261764D01*
X15585126Y41254050D01*
X15583596Y41246295D01*
X15582255Y41238506D01*
X15581104Y41230686D01*
X15580144Y41222841D01*
X15579375Y41214975D01*
X15578798Y41207092D01*
X15578414Y41199197D01*
X15578221Y41191296D01*
X15578221Y41183392D01*
X15578414Y41175491D01*
X15578798Y41167596D01*
X15579375Y41159713D01*
X15580144Y41151847D01*
X15581104Y41144002D01*
X15582255Y41136182D01*
X15583596Y41128393D01*
X15585126Y41120638D01*
X15586844Y41112924D01*
X15588750Y41105253D01*
X15590842Y41097631D01*
X15593120Y41090062D01*
X15595580Y41082551D01*
X15598223Y41075102D01*
X15601047Y41067720D01*
X15604049Y41060409D01*
X15607229Y41053173D01*
X15610584Y41046016D01*
X15614112Y41038943D01*
X15617811Y41031959D01*
X15621679Y41025066D01*
X15625714Y41018270D01*
X15629914Y41011574D01*
X15634275Y41004982D01*
X15638795Y40998498D01*
X15643472Y40992127D01*
X15648302Y40985871D01*
X15653284Y40979734D01*
X15658413Y40973721D01*
X15663688Y40967834D01*
X15669104Y40962078D01*
X15674659Y40956455D01*
X15680349Y40950969D01*
X15686171Y40945624D01*
X15692121Y40940421D01*
X15698196Y40935366D01*
X15704393Y40930459D01*
X15710707Y40925705D01*
X15717135Y40921106D01*
X15723673Y40916665D01*
X15730318Y40912384D01*
X15737065Y40908267D01*
X15743910Y40904315D01*
X15750849Y40900531D01*
X15757878Y40896917D01*
X15764993Y40893475D01*
X15772190Y40890208D01*
X15779464Y40887117D01*
X15786812Y40884203D01*
X15794228Y40881470D01*
X15801708Y40878918D01*
X15809249Y40876549D01*
X15816845Y40874364D01*
X15824491Y40872365D01*
X15832185Y40870553D01*
X15839920Y40868928D01*
X15847692Y40867493D01*
X15855497Y40866247D01*
X15863330Y40865191D01*
X15871187Y40864327D01*
X15879062Y40863654D01*
X15886951Y40863173D01*
X15894850Y40862884D01*
X15902753Y40862788D01*
X15902753Y40862791D02*
X16227309Y40862791D01*
X16227309Y40862790D02*
X16240053Y40862946D01*
X16252789Y40863416D01*
X16265510Y40864197D01*
X16278208Y40865291D01*
X16290876Y40866695D01*
X16303505Y40868410D01*
X16316088Y40870435D01*
X16328617Y40872768D01*
X16341086Y40875408D01*
X16353486Y40878352D01*
X16365810Y40881601D01*
X16378051Y40885150D01*
X16390201Y40888999D01*
X16402252Y40893145D01*
X16414199Y40897586D01*
X16426032Y40902318D01*
X16437746Y40907340D01*
X16449334Y40912647D01*
X16460787Y40918237D01*
X16472100Y40924107D01*
X16483266Y40930252D01*
X16494277Y40936670D01*
X16505128Y40943356D01*
X16515811Y40950306D01*
X16526320Y40957516D01*
X16536649Y40964982D01*
X16546792Y40972699D01*
X16556743Y40980663D01*
X16566495Y40988868D01*
X16576042Y40997311D01*
X16585380Y41005985D01*
X16594502Y41014886D01*
X16603403Y41024008D01*
X16612077Y41033345D01*
X16620520Y41042893D01*
X16628725Y41052645D01*
X16636689Y41062595D01*
X16644406Y41072738D01*
X16651872Y41083067D01*
X16659083Y41093577D01*
X16666033Y41104260D01*
X16672719Y41115110D01*
X16679136Y41126122D01*
X16685282Y41137287D01*
X16691151Y41148600D01*
X16696742Y41160053D01*
X16702049Y41171641D01*
X16707070Y41183355D01*
X16711803Y41195189D01*
X16716244Y41207135D01*
X16720390Y41219187D01*
X16724239Y41231336D01*
X16727789Y41243577D01*
X16731037Y41255901D01*
X16733982Y41268301D01*
X16736621Y41280770D01*
X16738954Y41293299D01*
X16740979Y41305882D01*
X16742694Y41318511D01*
X16744099Y41331179D01*
X16745193Y41343877D01*
X16745974Y41356598D01*
X16746444Y41369334D01*
X16746600Y41382078D01*
X22523841Y41563500D02*
X22783484Y41563500D01*
X22789758Y41563576D01*
X22796028Y41563803D01*
X22802291Y41564182D01*
X22808543Y41564712D01*
X22814781Y41565393D01*
X22821000Y41566225D01*
X22827197Y41567206D01*
X22833369Y41568337D01*
X22839511Y41569617D01*
X22845621Y41571045D01*
X22851694Y41572620D01*
X22857728Y41574341D01*
X22863718Y41576208D01*
X22869662Y41578219D01*
X22875555Y41580373D01*
X22881394Y41582668D01*
X22887177Y41585104D01*
X22892898Y41587680D01*
X22898556Y41590392D01*
X22904147Y41593241D01*
X22909667Y41596223D01*
X22915113Y41599339D01*
X22920483Y41602585D01*
X22925772Y41605960D01*
X22930979Y41609461D01*
X22936099Y41613088D01*
X22941130Y41616837D01*
X22946069Y41620706D01*
X22950913Y41624694D01*
X22955660Y41628798D01*
X22960306Y41633015D01*
X22964848Y41637343D01*
X22969285Y41641780D01*
X22973613Y41646322D01*
X22977830Y41650968D01*
X22981934Y41655715D01*
X22985922Y41660559D01*
X22989791Y41665498D01*
X22993540Y41670529D01*
X22997167Y41675649D01*
X23000668Y41680856D01*
X23004043Y41686145D01*
X23007289Y41691515D01*
X23010405Y41696961D01*
X23013387Y41702481D01*
X23016236Y41708072D01*
X23018948Y41713730D01*
X23021524Y41719451D01*
X23023960Y41725234D01*
X23026255Y41731073D01*
X23028409Y41736966D01*
X23030420Y41742910D01*
X23032287Y41748900D01*
X23034008Y41754934D01*
X23035583Y41761007D01*
X23037011Y41767117D01*
X23038291Y41773259D01*
X23039422Y41779431D01*
X23040403Y41785628D01*
X23041235Y41791847D01*
X23041916Y41798085D01*
X23042446Y41804337D01*
X23042825Y41810600D01*
X23043052Y41816870D01*
X23043128Y41823144D01*
X23043128Y42472253D01*
X23043052Y42478527D01*
X23042825Y42484797D01*
X23042446Y42491060D01*
X23041916Y42497312D01*
X23041235Y42503550D01*
X23040403Y42509769D01*
X23039422Y42515966D01*
X23038291Y42522138D01*
X23037011Y42528280D01*
X23035583Y42534390D01*
X23034008Y42540463D01*
X23032287Y42546497D01*
X23030420Y42552487D01*
X23028409Y42558431D01*
X23026255Y42564324D01*
X23023960Y42570163D01*
X23021524Y42575946D01*
X23018948Y42581667D01*
X23016236Y42587325D01*
X23013387Y42592916D01*
X23010405Y42598436D01*
X23007289Y42603882D01*
X23004043Y42609252D01*
X23000668Y42614541D01*
X22997167Y42619748D01*
X22993540Y42624868D01*
X22989791Y42629899D01*
X22985922Y42634838D01*
X22981934Y42639682D01*
X22977830Y42644429D01*
X22973613Y42649075D01*
X22969285Y42653617D01*
X22964848Y42658054D01*
X22960306Y42662382D01*
X22955660Y42666599D01*
X22950913Y42670703D01*
X22946069Y42674691D01*
X22941130Y42678560D01*
X22936099Y42682309D01*
X22930979Y42685936D01*
X22925772Y42689437D01*
X22920483Y42692812D01*
X22915113Y42696058D01*
X22909667Y42699174D01*
X22904147Y42702156D01*
X22898556Y42705005D01*
X22892898Y42707717D01*
X22887177Y42710293D01*
X22881394Y42712729D01*
X22875555Y42715024D01*
X22869662Y42717178D01*
X22863718Y42719189D01*
X22857728Y42721056D01*
X22851694Y42722777D01*
X22845621Y42724352D01*
X22839511Y42725780D01*
X22833369Y42727060D01*
X22827197Y42728191D01*
X22821000Y42729172D01*
X22814781Y42730004D01*
X22808543Y42730685D01*
X22802291Y42731215D01*
X22796028Y42731594D01*
X22789758Y42731821D01*
X22783484Y42731897D01*
X22783484Y42731900D02*
X22523841Y42731900D01*
X22087309Y42731900D02*
X22087309Y42602075D01*
X22087309Y42731900D02*
X21438200Y42731900D01*
X21762756Y41563500D01*
X6798200Y33516259D02*
X6798200Y33256616D01*
X6798276Y33250342D01*
X6798503Y33244072D01*
X6798882Y33237809D01*
X6799412Y33231557D01*
X6800093Y33225319D01*
X6800925Y33219100D01*
X6801906Y33212903D01*
X6803037Y33206731D01*
X6804317Y33200589D01*
X6805745Y33194479D01*
X6807320Y33188406D01*
X6809041Y33182372D01*
X6810908Y33176382D01*
X6812919Y33170438D01*
X6815073Y33164545D01*
X6817368Y33158706D01*
X6819804Y33152923D01*
X6822380Y33147202D01*
X6825092Y33141544D01*
X6827941Y33135953D01*
X6830923Y33130433D01*
X6834039Y33124987D01*
X6837285Y33119617D01*
X6840660Y33114328D01*
X6844161Y33109121D01*
X6847788Y33104001D01*
X6851537Y33098970D01*
X6855406Y33094031D01*
X6859394Y33089187D01*
X6863498Y33084440D01*
X6867715Y33079794D01*
X6872043Y33075252D01*
X6876480Y33070815D01*
X6881022Y33066487D01*
X6885668Y33062270D01*
X6890415Y33058166D01*
X6895259Y33054178D01*
X6900198Y33050309D01*
X6905229Y33046560D01*
X6910349Y33042933D01*
X6915556Y33039432D01*
X6920845Y33036057D01*
X6926215Y33032811D01*
X6931661Y33029695D01*
X6937181Y33026713D01*
X6942772Y33023864D01*
X6948430Y33021152D01*
X6954151Y33018576D01*
X6959934Y33016140D01*
X6965773Y33013845D01*
X6971666Y33011691D01*
X6977610Y33009680D01*
X6983600Y33007813D01*
X6989634Y33006092D01*
X6995707Y33004517D01*
X7001817Y33003089D01*
X7007959Y33001809D01*
X7014131Y33000678D01*
X7020328Y32999697D01*
X7026547Y32998865D01*
X7032785Y32998184D01*
X7039037Y32997654D01*
X7045300Y32997275D01*
X7051570Y32997048D01*
X7057844Y32996972D01*
X7706953Y32996972D01*
X7713325Y32997050D01*
X7719693Y32997285D01*
X7726054Y32997676D01*
X7732403Y32998222D01*
X7738736Y32998925D01*
X7745051Y32999782D01*
X7751342Y33000795D01*
X7757607Y33001961D01*
X7763842Y33003281D01*
X7770042Y33004753D01*
X7776204Y33006377D01*
X7782324Y33008152D01*
X7788399Y33010077D01*
X7794425Y33012150D01*
X7800398Y33014370D01*
X7806315Y33016736D01*
X7812172Y33019247D01*
X7817966Y33021901D01*
X7823692Y33024696D01*
X7829349Y33027630D01*
X7834932Y33030703D01*
X7840437Y33033912D01*
X7845863Y33037255D01*
X7851204Y33040730D01*
X7856459Y33044335D01*
X7861624Y33048068D01*
X7866695Y33051926D01*
X7871670Y33055908D01*
X7876546Y33060011D01*
X7881320Y33064232D01*
X7885989Y33068569D01*
X7890550Y33073020D01*
X7895000Y33077581D01*
X7899338Y33082250D01*
X7903559Y33087023D01*
X7907662Y33091899D01*
X7911644Y33096875D01*
X7915502Y33101946D01*
X7919235Y33107111D01*
X7922841Y33112365D01*
X7926316Y33117707D01*
X7929659Y33123132D01*
X7932867Y33128638D01*
X7935940Y33134220D01*
X7938875Y33139877D01*
X7941670Y33145604D01*
X7944324Y33151397D01*
X7946835Y33157254D01*
X7949201Y33163171D01*
X7951421Y33169144D01*
X7953494Y33175170D01*
X7955419Y33181245D01*
X7957194Y33187365D01*
X7958818Y33193527D01*
X7960291Y33199727D01*
X7961610Y33205962D01*
X7962777Y33212227D01*
X7963789Y33218518D01*
X7964647Y33224833D01*
X7965349Y33231166D01*
X7965896Y33237515D01*
X7966287Y33243876D01*
X7966522Y33250244D01*
X7966600Y33256616D01*
X7966600Y33516259D01*
X7122753Y33952791D02*
X7130656Y33952887D01*
X7138555Y33953176D01*
X7146444Y33953657D01*
X7154319Y33954330D01*
X7162175Y33955194D01*
X7170008Y33956250D01*
X7177813Y33957496D01*
X7185586Y33958931D01*
X7193321Y33960556D01*
X7201014Y33962368D01*
X7208661Y33964367D01*
X7216256Y33966552D01*
X7223797Y33968921D01*
X7231277Y33971473D01*
X7238693Y33974206D01*
X7246041Y33977119D01*
X7253315Y33980211D01*
X7260512Y33983478D01*
X7267627Y33986920D01*
X7274656Y33990534D01*
X7281595Y33994318D01*
X7288440Y33998270D01*
X7295187Y34002387D01*
X7301831Y34006668D01*
X7308369Y34011108D01*
X7314797Y34015707D01*
X7321111Y34020461D01*
X7327308Y34025368D01*
X7333383Y34030424D01*
X7339333Y34035626D01*
X7345155Y34040972D01*
X7350845Y34046457D01*
X7356400Y34052080D01*
X7361816Y34057836D01*
X7367090Y34063723D01*
X7372220Y34069736D01*
X7377201Y34075873D01*
X7382032Y34082128D01*
X7386709Y34088500D01*
X7391229Y34094984D01*
X7395590Y34101575D01*
X7399789Y34108271D01*
X7403824Y34115068D01*
X7407692Y34121960D01*
X7411392Y34128945D01*
X7414920Y34136017D01*
X7418275Y34143174D01*
X7421454Y34150410D01*
X7424457Y34157721D01*
X7427280Y34165103D01*
X7429923Y34172552D01*
X7432384Y34180063D01*
X7434661Y34187632D01*
X7436753Y34195254D01*
X7438659Y34202924D01*
X7440377Y34210639D01*
X7441907Y34218393D01*
X7443248Y34226182D01*
X7444399Y34234002D01*
X7445359Y34241847D01*
X7446128Y34249714D01*
X7446705Y34257596D01*
X7447089Y34265491D01*
X7447282Y34273392D01*
X7447282Y34281296D01*
X7447089Y34289197D01*
X7446705Y34297092D01*
X7446128Y34304974D01*
X7445359Y34312841D01*
X7444399Y34320686D01*
X7443248Y34328506D01*
X7441907Y34336295D01*
X7440377Y34344049D01*
X7438659Y34351764D01*
X7436753Y34359434D01*
X7434661Y34367056D01*
X7432384Y34374625D01*
X7429923Y34382136D01*
X7427280Y34389585D01*
X7424457Y34396967D01*
X7421454Y34404278D01*
X7418275Y34411514D01*
X7414920Y34418671D01*
X7411392Y34425743D01*
X7407692Y34432728D01*
X7403824Y34439621D01*
X7399789Y34446417D01*
X7395590Y34453113D01*
X7391229Y34459704D01*
X7386709Y34466188D01*
X7382032Y34472560D01*
X7377201Y34478815D01*
X7372220Y34484952D01*
X7367090Y34490965D01*
X7361816Y34496852D01*
X7356400Y34502608D01*
X7350845Y34508231D01*
X7345155Y34513716D01*
X7339333Y34519062D01*
X7333383Y34524264D01*
X7327308Y34529320D01*
X7321111Y34534227D01*
X7314797Y34538981D01*
X7308369Y34543580D01*
X7301831Y34548020D01*
X7295187Y34552301D01*
X7288440Y34556418D01*
X7281595Y34560370D01*
X7274656Y34564154D01*
X7267627Y34567768D01*
X7260512Y34571210D01*
X7253315Y34574477D01*
X7246041Y34577569D01*
X7238693Y34580482D01*
X7231277Y34583215D01*
X7223797Y34585767D01*
X7216256Y34588136D01*
X7208661Y34590321D01*
X7201014Y34592320D01*
X7193321Y34594132D01*
X7185586Y34595757D01*
X7177813Y34597192D01*
X7170008Y34598438D01*
X7162175Y34599494D01*
X7154319Y34600358D01*
X7146444Y34601031D01*
X7138555Y34601512D01*
X7130656Y34601801D01*
X7122753Y34601897D01*
X7122753Y34601900D02*
X7114850Y34601804D01*
X7106951Y34601515D01*
X7099062Y34601034D01*
X7091187Y34600361D01*
X7083330Y34599497D01*
X7075497Y34598441D01*
X7067692Y34597195D01*
X7059920Y34595760D01*
X7052185Y34594135D01*
X7044491Y34592323D01*
X7036845Y34590324D01*
X7029249Y34588139D01*
X7021708Y34585770D01*
X7014228Y34583218D01*
X7006812Y34580485D01*
X6999464Y34577571D01*
X6992190Y34574480D01*
X6984993Y34571213D01*
X6977878Y34567771D01*
X6970849Y34564157D01*
X6963910Y34560373D01*
X6957065Y34556421D01*
X6950318Y34552304D01*
X6943673Y34548023D01*
X6937135Y34543582D01*
X6930707Y34538983D01*
X6924393Y34534229D01*
X6918196Y34529322D01*
X6912121Y34524267D01*
X6906171Y34519064D01*
X6900349Y34513719D01*
X6894659Y34508233D01*
X6889104Y34502610D01*
X6883688Y34496854D01*
X6878413Y34490967D01*
X6873284Y34484954D01*
X6868302Y34478817D01*
X6863472Y34472561D01*
X6858795Y34466190D01*
X6854275Y34459706D01*
X6849914Y34453114D01*
X6845714Y34446418D01*
X6841679Y34439622D01*
X6837811Y34432729D01*
X6834112Y34425745D01*
X6830584Y34418672D01*
X6827229Y34411515D01*
X6824049Y34404279D01*
X6821047Y34396968D01*
X6818223Y34389586D01*
X6815580Y34382137D01*
X6813120Y34374626D01*
X6810842Y34367057D01*
X6808750Y34359435D01*
X6806844Y34351764D01*
X6805126Y34344050D01*
X6803596Y34336295D01*
X6802255Y34328506D01*
X6801104Y34320686D01*
X6800144Y34312841D01*
X6799375Y34304975D01*
X6798798Y34297092D01*
X6798414Y34289197D01*
X6798221Y34281296D01*
X6798221Y34273392D01*
X6798414Y34265491D01*
X6798798Y34257596D01*
X6799375Y34249713D01*
X6800144Y34241847D01*
X6801104Y34234002D01*
X6802255Y34226182D01*
X6803596Y34218393D01*
X6805126Y34210638D01*
X6806844Y34202924D01*
X6808750Y34195253D01*
X6810842Y34187631D01*
X6813120Y34180062D01*
X6815580Y34172551D01*
X6818223Y34165102D01*
X6821047Y34157720D01*
X6824049Y34150409D01*
X6827229Y34143173D01*
X6830584Y34136016D01*
X6834112Y34128943D01*
X6837811Y34121959D01*
X6841679Y34115066D01*
X6845714Y34108270D01*
X6849914Y34101574D01*
X6854275Y34094982D01*
X6858795Y34088498D01*
X6863472Y34082127D01*
X6868302Y34075871D01*
X6873284Y34069734D01*
X6878413Y34063721D01*
X6883688Y34057834D01*
X6889104Y34052078D01*
X6894659Y34046455D01*
X6900349Y34040969D01*
X6906171Y34035624D01*
X6912121Y34030421D01*
X6918196Y34025366D01*
X6924393Y34020459D01*
X6930707Y34015705D01*
X6937135Y34011106D01*
X6943673Y34006665D01*
X6950318Y34002384D01*
X6957065Y33998267D01*
X6963910Y33994315D01*
X6970849Y33990531D01*
X6977878Y33986917D01*
X6984993Y33983475D01*
X6992190Y33980208D01*
X6999464Y33977117D01*
X7006812Y33974203D01*
X7014228Y33971470D01*
X7021708Y33968918D01*
X7029249Y33966549D01*
X7036845Y33964364D01*
X7044491Y33962365D01*
X7052185Y33960553D01*
X7059920Y33958928D01*
X7067692Y33957493D01*
X7075497Y33956247D01*
X7083330Y33955191D01*
X7091187Y33954327D01*
X7099062Y33953654D01*
X7106951Y33953173D01*
X7114850Y33952884D01*
X7122753Y33952788D01*
X7706953Y34017700D02*
X7713276Y34017777D01*
X7719594Y34018008D01*
X7725906Y34018393D01*
X7732206Y34018931D01*
X7738491Y34019623D01*
X7744757Y34020467D01*
X7751001Y34021464D01*
X7757219Y34022612D01*
X7763407Y34023912D01*
X7769562Y34025362D01*
X7775679Y34026961D01*
X7781756Y34028709D01*
X7787789Y34030604D01*
X7793773Y34032646D01*
X7799706Y34034832D01*
X7805584Y34037163D01*
X7811403Y34039636D01*
X7817161Y34042250D01*
X7822853Y34045003D01*
X7828476Y34047894D01*
X7834027Y34050922D01*
X7839503Y34054083D01*
X7844901Y34057377D01*
X7850216Y34060801D01*
X7855447Y34064354D01*
X7860589Y34068033D01*
X7865641Y34071837D01*
X7870598Y34075762D01*
X7875458Y34079807D01*
X7880218Y34083968D01*
X7884876Y34088245D01*
X7889428Y34092634D01*
X7893872Y34097132D01*
X7898205Y34101737D01*
X7902424Y34106446D01*
X7906528Y34111257D01*
X7910513Y34116166D01*
X7914377Y34121171D01*
X7918119Y34126268D01*
X7921735Y34131455D01*
X7925224Y34136728D01*
X7928583Y34142085D01*
X7931811Y34147522D01*
X7934906Y34153036D01*
X7937865Y34158624D01*
X7940688Y34164282D01*
X7943372Y34170007D01*
X7945915Y34175796D01*
X7948317Y34181645D01*
X7950576Y34187551D01*
X7952690Y34193510D01*
X7954659Y34199519D01*
X7956481Y34205574D01*
X7958154Y34211671D01*
X7959679Y34217808D01*
X7961054Y34223980D01*
X7962278Y34230183D01*
X7963351Y34236414D01*
X7964271Y34242670D01*
X7965039Y34248946D01*
X7965654Y34255240D01*
X7966116Y34261546D01*
X7966424Y34267861D01*
X7966578Y34274182D01*
X7966578Y34280506D01*
X7966424Y34286827D01*
X7966116Y34293142D01*
X7965654Y34299448D01*
X7965039Y34305742D01*
X7964271Y34312018D01*
X7963351Y34318274D01*
X7962278Y34324505D01*
X7961054Y34330708D01*
X7959679Y34336880D01*
X7958154Y34343017D01*
X7956481Y34349114D01*
X7954659Y34355169D01*
X7952690Y34361178D01*
X7950576Y34367137D01*
X7948317Y34373043D01*
X7945915Y34378892D01*
X7943372Y34384681D01*
X7940688Y34390406D01*
X7937865Y34396064D01*
X7934906Y34401652D01*
X7931811Y34407166D01*
X7928583Y34412603D01*
X7925224Y34417960D01*
X7921735Y34423233D01*
X7918119Y34428420D01*
X7914377Y34433517D01*
X7910513Y34438522D01*
X7906528Y34443431D01*
X7902424Y34448242D01*
X7898205Y34452951D01*
X7893872Y34457556D01*
X7889428Y34462054D01*
X7884876Y34466443D01*
X7880218Y34470720D01*
X7875458Y34474881D01*
X7870598Y34478926D01*
X7865641Y34482851D01*
X7860589Y34486655D01*
X7855447Y34490334D01*
X7850216Y34493887D01*
X7844901Y34497311D01*
X7839503Y34500605D01*
X7834027Y34503766D01*
X7828476Y34506794D01*
X7822853Y34509685D01*
X7817161Y34512438D01*
X7811403Y34515052D01*
X7805584Y34517525D01*
X7799706Y34519856D01*
X7793773Y34522042D01*
X7787789Y34524084D01*
X7781756Y34525979D01*
X7775679Y34527727D01*
X7769562Y34529326D01*
X7763407Y34530776D01*
X7757219Y34532076D01*
X7751001Y34533224D01*
X7744757Y34534221D01*
X7738491Y34535065D01*
X7732206Y34535757D01*
X7725906Y34536295D01*
X7719594Y34536680D01*
X7713276Y34536911D01*
X7706953Y34536988D01*
X7706953Y34536991D02*
X7700630Y34536914D01*
X7694311Y34536683D01*
X7688000Y34536298D01*
X7681700Y34535760D01*
X7675415Y34535068D01*
X7669148Y34534224D01*
X7662904Y34533227D01*
X7656686Y34532079D01*
X7650498Y34530779D01*
X7644343Y34529329D01*
X7638226Y34527730D01*
X7632149Y34525982D01*
X7626117Y34524087D01*
X7620132Y34522045D01*
X7614199Y34519858D01*
X7608321Y34517528D01*
X7602502Y34515055D01*
X7596744Y34512441D01*
X7591052Y34509688D01*
X7585428Y34506796D01*
X7579877Y34503769D01*
X7574401Y34500607D01*
X7569004Y34497313D01*
X7563688Y34493889D01*
X7558458Y34490336D01*
X7553315Y34486657D01*
X7548264Y34482854D01*
X7543306Y34478928D01*
X7538446Y34474884D01*
X7533686Y34470722D01*
X7529028Y34466445D01*
X7524476Y34462057D01*
X7520032Y34457558D01*
X7515699Y34452953D01*
X7511480Y34448244D01*
X7507376Y34443433D01*
X7503391Y34438524D01*
X7499526Y34433519D01*
X7495785Y34428422D01*
X7492168Y34423235D01*
X7488680Y34417961D01*
X7485320Y34412605D01*
X7482092Y34407168D01*
X7478997Y34401653D01*
X7476038Y34396066D01*
X7473215Y34390407D01*
X7470532Y34384682D01*
X7467988Y34378893D01*
X7465586Y34373044D01*
X7463327Y34367138D01*
X7461213Y34361179D01*
X7459244Y34355170D01*
X7457422Y34349115D01*
X7455749Y34343017D01*
X7454224Y34336881D01*
X7452849Y34330709D01*
X7451625Y34324505D01*
X7450552Y34318274D01*
X7449632Y34312018D01*
X7448864Y34305742D01*
X7448249Y34299449D01*
X7447787Y34293142D01*
X7447479Y34286827D01*
X7447325Y34280506D01*
X7447325Y34274182D01*
X7447479Y34267861D01*
X7447787Y34261546D01*
X7448249Y34255239D01*
X7448864Y34248946D01*
X7449632Y34242670D01*
X7450552Y34236414D01*
X7451625Y34230183D01*
X7452849Y34223979D01*
X7454224Y34217807D01*
X7455749Y34211671D01*
X7457422Y34205573D01*
X7459244Y34199518D01*
X7461213Y34193509D01*
X7463327Y34187550D01*
X7465586Y34181644D01*
X7467988Y34175795D01*
X7470532Y34170006D01*
X7473215Y34164281D01*
X7476038Y34158622D01*
X7478997Y34153035D01*
X7482092Y34147521D01*
X7485320Y34142083D01*
X7488680Y34136727D01*
X7492168Y34131453D01*
X7495785Y34126266D01*
X7499526Y34121169D01*
X7503391Y34116164D01*
X7507376Y34111255D01*
X7511480Y34106444D01*
X7515699Y34101735D01*
X7520032Y34097130D01*
X7524476Y34092631D01*
X7529028Y34088243D01*
X7533686Y34083966D01*
X7538446Y34079804D01*
X7543306Y34075760D01*
X7548264Y34071834D01*
X7553315Y34068031D01*
X7558458Y34064352D01*
X7563688Y34060799D01*
X7569004Y34057375D01*
X7574401Y34054081D01*
X7579877Y34050919D01*
X7585428Y34047892D01*
X7591052Y34045000D01*
X7596744Y34042247D01*
X7602502Y34039633D01*
X7608321Y34037160D01*
X7614199Y34034830D01*
X7620132Y34032643D01*
X7626117Y34030601D01*
X7632149Y34028706D01*
X7638226Y34026958D01*
X7644343Y34025359D01*
X7650498Y34023909D01*
X7656686Y34022609D01*
X7662904Y34021461D01*
X7669148Y34020464D01*
X7675415Y34019620D01*
X7681700Y34018928D01*
X7688000Y34018390D01*
X7694311Y34018005D01*
X7700630Y34017774D01*
X7706953Y34017697D01*
D11*
X10220400Y35574700D02*
X10220400Y39130700D01*
X10220400Y35574700D02*
X16774400Y35574700D01*
X16774400Y39130700D01*
X10220400Y39130700D01*
D10*
X14356778Y38122700D02*
X14356778Y36954300D01*
X14486600Y36954300D02*
X14226956Y36954300D01*
X14226956Y38122700D02*
X14486600Y38122700D01*
X13510609Y36954300D02*
X13250966Y36954300D01*
X13510609Y36954300D02*
X13516883Y36954376D01*
X13523153Y36954603D01*
X13529416Y36954982D01*
X13535668Y36955512D01*
X13541906Y36956193D01*
X13548125Y36957025D01*
X13554322Y36958006D01*
X13560494Y36959137D01*
X13566636Y36960417D01*
X13572746Y36961845D01*
X13578819Y36963420D01*
X13584853Y36965141D01*
X13590843Y36967008D01*
X13596787Y36969019D01*
X13602680Y36971173D01*
X13608519Y36973468D01*
X13614302Y36975904D01*
X13620023Y36978480D01*
X13625681Y36981192D01*
X13631272Y36984041D01*
X13636792Y36987023D01*
X13642238Y36990139D01*
X13647608Y36993385D01*
X13652897Y36996760D01*
X13658104Y37000261D01*
X13663224Y37003888D01*
X13668255Y37007637D01*
X13673194Y37011506D01*
X13678038Y37015494D01*
X13682785Y37019598D01*
X13687431Y37023815D01*
X13691973Y37028143D01*
X13696410Y37032580D01*
X13700738Y37037122D01*
X13704955Y37041768D01*
X13709059Y37046515D01*
X13713047Y37051359D01*
X13716916Y37056298D01*
X13720665Y37061329D01*
X13724292Y37066449D01*
X13727793Y37071656D01*
X13731168Y37076945D01*
X13734414Y37082315D01*
X13737530Y37087761D01*
X13740512Y37093281D01*
X13743361Y37098872D01*
X13746073Y37104530D01*
X13748649Y37110251D01*
X13751085Y37116034D01*
X13753380Y37121873D01*
X13755534Y37127766D01*
X13757545Y37133710D01*
X13759412Y37139700D01*
X13761133Y37145734D01*
X13762708Y37151807D01*
X13764136Y37157917D01*
X13765416Y37164059D01*
X13766547Y37170231D01*
X13767528Y37176428D01*
X13768360Y37182647D01*
X13769041Y37188885D01*
X13769571Y37195137D01*
X13769950Y37201400D01*
X13770177Y37207670D01*
X13770253Y37213944D01*
X13770253Y37863053D01*
X13770177Y37869327D01*
X13769950Y37875597D01*
X13769571Y37881860D01*
X13769041Y37888112D01*
X13768360Y37894350D01*
X13767528Y37900569D01*
X13766547Y37906766D01*
X13765416Y37912938D01*
X13764136Y37919080D01*
X13762708Y37925190D01*
X13761133Y37931263D01*
X13759412Y37937297D01*
X13757545Y37943287D01*
X13755534Y37949231D01*
X13753380Y37955124D01*
X13751085Y37960963D01*
X13748649Y37966746D01*
X13746073Y37972467D01*
X13743361Y37978125D01*
X13740512Y37983716D01*
X13737530Y37989236D01*
X13734414Y37994682D01*
X13731168Y38000052D01*
X13727793Y38005341D01*
X13724292Y38010548D01*
X13720665Y38015668D01*
X13716916Y38020699D01*
X13713047Y38025638D01*
X13709059Y38030482D01*
X13704955Y38035229D01*
X13700738Y38039875D01*
X13696410Y38044417D01*
X13691973Y38048854D01*
X13687431Y38053182D01*
X13682785Y38057399D01*
X13678038Y38061503D01*
X13673194Y38065491D01*
X13668255Y38069360D01*
X13663224Y38073109D01*
X13658104Y38076736D01*
X13652897Y38080237D01*
X13647608Y38083612D01*
X13642238Y38086858D01*
X13636792Y38089974D01*
X13631272Y38092956D01*
X13625681Y38095805D01*
X13620023Y38098517D01*
X13614302Y38101093D01*
X13608519Y38103529D01*
X13602680Y38105824D01*
X13596787Y38107978D01*
X13590843Y38109989D01*
X13584853Y38111856D01*
X13578819Y38113577D01*
X13572746Y38115152D01*
X13566636Y38116580D01*
X13560494Y38117860D01*
X13554322Y38118991D01*
X13548125Y38119972D01*
X13541906Y38120804D01*
X13535668Y38121485D01*
X13529416Y38122015D01*
X13523153Y38122394D01*
X13516883Y38122621D01*
X13510609Y38122697D01*
X13510609Y38122700D02*
X13250966Y38122700D01*
X12814434Y37863053D02*
X12489881Y38122700D01*
X12489881Y36954300D01*
X12814434Y36954300D02*
X12165325Y36954300D01*
D12*
X23318200Y10745800D02*
X23318200Y9475800D01*
X23953200Y8840800D01*
X25223200Y8840800D01*
X25858200Y9475800D01*
X23953200Y8840800D02*
X23318200Y8205800D01*
X23318200Y6935800D01*
X23953200Y6300800D01*
X25223200Y6300800D01*
X25858200Y6935800D01*
X25858200Y8205800D01*
X25223200Y8840800D01*
X23318200Y13285800D02*
X23953200Y13920800D01*
X23318200Y13285800D02*
X23318200Y12015800D01*
X23953200Y11380800D01*
X25223200Y11380800D01*
X25858200Y12015800D01*
X25858200Y13285800D01*
X25223200Y13920800D01*
X23953200Y11380800D02*
X23318200Y10745800D01*
X25223200Y11380800D02*
X25858200Y10745800D01*
X25858200Y9475800D01*
X23318200Y17095800D02*
X23318200Y18365800D01*
X23318200Y17095800D02*
X23953200Y16460800D01*
X25223200Y16460800D01*
X25858200Y17095800D01*
X23953200Y16460800D02*
X23318200Y15825800D01*
X23318200Y14555800D01*
X23953200Y13920800D01*
X25223200Y13920800D01*
X25858200Y14555800D01*
X25858200Y15825800D01*
X25223200Y16460800D01*
X23318200Y20905800D02*
X23953200Y21540800D01*
X23318200Y20905800D02*
X23318200Y19635800D01*
X23953200Y19000800D01*
X25223200Y19000800D01*
X25858200Y19635800D01*
X25858200Y20905800D01*
X25223200Y21540800D01*
X23953200Y19000800D02*
X23318200Y18365800D01*
X25223200Y19000800D02*
X25858200Y18365800D01*
X25858200Y17095800D01*
X23318200Y24715800D02*
X23318200Y25985800D01*
X23318200Y24715800D02*
X23953200Y24080800D01*
X25223200Y24080800D01*
X25858200Y24715800D01*
X23953200Y24080800D02*
X23318200Y23445800D01*
X23318200Y22175800D01*
X23953200Y21540800D01*
X25223200Y21540800D01*
X25858200Y22175800D01*
X25858200Y23445800D01*
X25223200Y24080800D01*
X23318200Y28525800D02*
X23953200Y29160800D01*
X23318200Y28525800D02*
X23318200Y27255800D01*
X23953200Y26620800D01*
X25223200Y26620800D01*
X25858200Y27255800D01*
X25858200Y28525800D01*
X25223200Y29160800D01*
X23953200Y26620800D02*
X23318200Y25985800D01*
X25223200Y26620800D02*
X25858200Y25985800D01*
X25858200Y24715800D01*
X23318200Y32335800D02*
X23318200Y33605800D01*
X23318200Y32335800D02*
X23953200Y31700800D01*
X25223200Y31700800D01*
X25858200Y32335800D01*
X23953200Y31700800D02*
X23318200Y31065800D01*
X23318200Y29795800D01*
X23953200Y29160800D01*
X25223200Y29160800D01*
X25858200Y29795800D01*
X25858200Y31065800D01*
X25223200Y31700800D01*
X23318200Y36145800D02*
X23953200Y36780800D01*
X23318200Y36145800D02*
X23318200Y34875800D01*
X23953200Y34240800D01*
X25223200Y34240800D01*
X25858200Y34875800D01*
X25858200Y36145800D01*
X25223200Y36780800D01*
X23953200Y34240800D02*
X23318200Y33605800D01*
X25223200Y34240800D02*
X25858200Y33605800D01*
X25858200Y32335800D01*
X23318200Y39955800D02*
X23318200Y41225800D01*
X23318200Y39955800D02*
X23953200Y39320800D01*
X25223200Y39320800D01*
X25858200Y39955800D01*
X23953200Y39320800D02*
X23318200Y38685800D01*
X23318200Y37415800D01*
X23953200Y36780800D01*
X25223200Y36780800D01*
X25858200Y37415800D01*
X25858200Y38685800D01*
X25223200Y39320800D01*
X25223200Y41860800D02*
X23953200Y41860800D01*
X23318200Y41225800D01*
X25223200Y41860800D02*
X25858200Y41225800D01*
X25858200Y39955800D01*
X23953200Y6300800D02*
X23318200Y5665800D01*
X23318200Y4395800D01*
X23953200Y3760800D01*
X25223200Y3760800D01*
X25858200Y4395800D01*
X25858200Y5665800D01*
X25223200Y6300800D01*
D13*
X22022400Y20854231D02*
X21133400Y20854231D01*
X21127262Y20854157D01*
X21121128Y20853934D01*
X21115002Y20853564D01*
X21108885Y20853045D01*
X21102784Y20852379D01*
X21096700Y20851566D01*
X21090637Y20850605D01*
X21084600Y20849499D01*
X21078591Y20848247D01*
X21072614Y20846850D01*
X21066672Y20845309D01*
X21060770Y20843625D01*
X21054910Y20841799D01*
X21049095Y20839832D01*
X21043330Y20837725D01*
X21037618Y20835479D01*
X21031961Y20833096D01*
X21026364Y20830577D01*
X21020829Y20827923D01*
X21015360Y20825137D01*
X21009960Y20822219D01*
X21004632Y20819171D01*
X20999379Y20815996D01*
X20994205Y20812694D01*
X20989112Y20809269D01*
X20984103Y20805721D01*
X20979181Y20802054D01*
X20974349Y20798268D01*
X20969610Y20794367D01*
X20964967Y20790353D01*
X20960422Y20786227D01*
X20955978Y20781993D01*
X20951638Y20777653D01*
X20947404Y20773209D01*
X20943278Y20768664D01*
X20939264Y20764021D01*
X20935363Y20759282D01*
X20931577Y20754450D01*
X20927910Y20749528D01*
X20924362Y20744519D01*
X20920937Y20739426D01*
X20917635Y20734252D01*
X20914460Y20728999D01*
X20911412Y20723671D01*
X20908494Y20718271D01*
X20905708Y20712802D01*
X20903054Y20707267D01*
X20900535Y20701670D01*
X20898152Y20696013D01*
X20895906Y20690301D01*
X20893799Y20684536D01*
X20891832Y20678721D01*
X20890006Y20672861D01*
X20888322Y20666959D01*
X20886781Y20661017D01*
X20885384Y20655040D01*
X20884132Y20649031D01*
X20883026Y20642994D01*
X20882065Y20636931D01*
X20881252Y20630847D01*
X20880586Y20624746D01*
X20880067Y20618629D01*
X20879697Y20612503D01*
X20879474Y20606369D01*
X20879400Y20600231D01*
X20879400Y20473231D01*
X20879400Y21452250D02*
X22022400Y21452250D01*
X22022400Y21769750D01*
X22022306Y21777481D01*
X22022023Y21785208D01*
X22021553Y21792926D01*
X22020895Y21800630D01*
X22020049Y21808316D01*
X22019017Y21815978D01*
X22017798Y21823614D01*
X22016393Y21831217D01*
X22014804Y21838784D01*
X22013031Y21846310D01*
X22011075Y21853791D01*
X22008938Y21861221D01*
X22006621Y21868598D01*
X22004124Y21875916D01*
X22001450Y21883171D01*
X21998600Y21890358D01*
X21995576Y21897475D01*
X21992380Y21904515D01*
X21989013Y21911475D01*
X21985477Y21918352D01*
X21981776Y21925140D01*
X21977910Y21931836D01*
X21973882Y21938436D01*
X21969694Y21944936D01*
X21965350Y21951332D01*
X21960851Y21957621D01*
X21956200Y21963798D01*
X21951400Y21969860D01*
X21946454Y21975803D01*
X21941365Y21981624D01*
X21936136Y21987319D01*
X21930769Y21992885D01*
X21925269Y21998319D01*
X21919637Y22003618D01*
X21913879Y22008777D01*
X21907996Y22013795D01*
X21901993Y22018669D01*
X21895873Y22023394D01*
X21889640Y22027969D01*
X21883298Y22032392D01*
X21876849Y22036658D01*
X21870299Y22040766D01*
X21863650Y22044713D01*
X21856907Y22048497D01*
X21850074Y22052116D01*
X21843155Y22055568D01*
X21836155Y22058849D01*
X21829076Y22061960D01*
X21821923Y22064897D01*
X21814701Y22067659D01*
X21807415Y22070245D01*
X21800067Y22072652D01*
X21792663Y22074879D01*
X21785206Y22076926D01*
X21777702Y22078791D01*
X21770155Y22080472D01*
X21762570Y22081969D01*
X21754950Y22083280D01*
X21747300Y22084406D01*
X21739625Y22085345D01*
X21731930Y22086097D01*
X21724219Y22086662D01*
X21716496Y22087038D01*
X21708766Y22087226D01*
X21701034Y22087226D01*
X21693304Y22087038D01*
X21685581Y22086662D01*
X21677870Y22086097D01*
X21670175Y22085345D01*
X21662500Y22084406D01*
X21654850Y22083280D01*
X21647230Y22081969D01*
X21639645Y22080472D01*
X21632098Y22078791D01*
X21624594Y22076926D01*
X21617137Y22074879D01*
X21609733Y22072652D01*
X21602385Y22070245D01*
X21595099Y22067659D01*
X21587877Y22064897D01*
X21580724Y22061960D01*
X21573645Y22058849D01*
X21566645Y22055568D01*
X21559726Y22052116D01*
X21552893Y22048497D01*
X21546150Y22044713D01*
X21539501Y22040766D01*
X21532951Y22036658D01*
X21526502Y22032392D01*
X21520160Y22027969D01*
X21513927Y22023394D01*
X21507807Y22018669D01*
X21501804Y22013795D01*
X21495921Y22008777D01*
X21490163Y22003618D01*
X21484531Y21998319D01*
X21479031Y21992885D01*
X21473664Y21987319D01*
X21468435Y21981624D01*
X21463346Y21975803D01*
X21458400Y21969860D01*
X21453600Y21963798D01*
X21448949Y21957621D01*
X21444450Y21951332D01*
X21440106Y21944936D01*
X21435918Y21938436D01*
X21431890Y21931836D01*
X21428024Y21925140D01*
X21424323Y21918352D01*
X21420787Y21911475D01*
X21417420Y21904515D01*
X21414224Y21897475D01*
X21411200Y21890358D01*
X21408350Y21883171D01*
X21405676Y21875916D01*
X21403179Y21868598D01*
X21400862Y21861221D01*
X21398725Y21853791D01*
X21396769Y21846310D01*
X21394996Y21838784D01*
X21393407Y21831217D01*
X21392002Y21823614D01*
X21390783Y21815978D01*
X21389751Y21808316D01*
X21388905Y21800630D01*
X21388247Y21792926D01*
X21387777Y21785208D01*
X21387494Y21777481D01*
X21387400Y21769750D01*
X21387400Y21452250D01*
X22022400Y22887350D02*
X22022317Y22894255D01*
X22022066Y22901156D01*
X22021649Y22908048D01*
X22021066Y22914929D01*
X22020317Y22921793D01*
X22019401Y22928638D01*
X22018321Y22935458D01*
X22017077Y22942250D01*
X22015668Y22949010D01*
X22014097Y22955734D01*
X22012363Y22962419D01*
X22010469Y22969059D01*
X22008414Y22975652D01*
X22006201Y22982193D01*
X22003831Y22988678D01*
X22001304Y22995105D01*
X21998623Y23001468D01*
X21995789Y23007765D01*
X21992804Y23013992D01*
X21989669Y23020145D01*
X21986386Y23026220D01*
X21982958Y23032214D01*
X21979385Y23038123D01*
X21975671Y23043945D01*
X21971818Y23049675D01*
X21967827Y23055310D01*
X21963701Y23060847D01*
X21959442Y23066282D01*
X21955053Y23071614D01*
X21950537Y23076837D01*
X21945896Y23081950D01*
X21941132Y23086950D01*
X21936250Y23091832D01*
X21931250Y23096596D01*
X21926137Y23101237D01*
X21920914Y23105753D01*
X21915582Y23110142D01*
X21910147Y23114401D01*
X21904610Y23118527D01*
X21898975Y23122518D01*
X21893245Y23126371D01*
X21887423Y23130085D01*
X21881514Y23133658D01*
X21875520Y23137086D01*
X21869445Y23140369D01*
X21863292Y23143504D01*
X21857065Y23146489D01*
X21850768Y23149323D01*
X21844405Y23152004D01*
X21837978Y23154531D01*
X21831493Y23156901D01*
X21824952Y23159114D01*
X21818359Y23161169D01*
X21811719Y23163063D01*
X21805034Y23164797D01*
X21798310Y23166368D01*
X21791550Y23167777D01*
X21784758Y23169021D01*
X21777938Y23170101D01*
X21771093Y23171017D01*
X21764229Y23171766D01*
X21757348Y23172349D01*
X21750456Y23172766D01*
X21743555Y23173017D01*
X21736650Y23173100D01*
X22022400Y22887350D02*
X22022293Y22878473D01*
X22021971Y22869600D01*
X22021434Y22860738D01*
X22020684Y22851892D01*
X22019719Y22843066D01*
X22018542Y22834267D01*
X22017152Y22825498D01*
X22015550Y22816766D01*
X22013738Y22808074D01*
X22011716Y22799430D01*
X22009486Y22790836D01*
X22007049Y22782299D01*
X22004405Y22773824D01*
X22001558Y22765415D01*
X21998508Y22757077D01*
X21995257Y22748815D01*
X21991808Y22740635D01*
X21988162Y22732540D01*
X21984321Y22724536D01*
X21980287Y22716626D01*
X21976064Y22708817D01*
X21971653Y22701113D01*
X21967056Y22693517D01*
X21962278Y22686034D01*
X21957320Y22678670D01*
X21952185Y22671427D01*
X21946877Y22664310D01*
X21941398Y22657325D01*
X21935752Y22650473D01*
X21929942Y22643760D01*
X21923971Y22637190D01*
X21917843Y22630766D01*
X21911561Y22624492D01*
X21905130Y22618371D01*
X21898553Y22612408D01*
X21891833Y22606606D01*
X21884975Y22600968D01*
X21877982Y22595498D01*
X21870859Y22590198D01*
X21863611Y22585072D01*
X21856240Y22580123D01*
X21848752Y22575353D01*
X21841150Y22570766D01*
X21833440Y22566364D01*
X21825626Y22562150D01*
X21817712Y22558126D01*
X21809704Y22554295D01*
X21801604Y22550658D01*
X21793420Y22547218D01*
X21785154Y22543978D01*
X21776813Y22540938D01*
X21768400Y22538100D01*
X21514400Y23077850D02*
X21519660Y23083239D01*
X21525052Y23088498D01*
X21530570Y23093623D01*
X21536213Y23098611D01*
X21541976Y23103459D01*
X21547856Y23108164D01*
X21553851Y23112724D01*
X21559955Y23117135D01*
X21566166Y23121395D01*
X21572479Y23125501D01*
X21578891Y23129451D01*
X21585398Y23133243D01*
X21591996Y23136873D01*
X21598682Y23140341D01*
X21605450Y23143644D01*
X21612297Y23146780D01*
X21619220Y23149746D01*
X21626213Y23152542D01*
X21633272Y23155166D01*
X21640394Y23157615D01*
X21647574Y23159889D01*
X21654807Y23161987D01*
X21662090Y23163906D01*
X21669417Y23165645D01*
X21676785Y23167205D01*
X21684189Y23168583D01*
X21691625Y23169779D01*
X21699087Y23170793D01*
X21706573Y23171623D01*
X21714076Y23172269D01*
X21721593Y23172730D01*
X21729119Y23173008D01*
X21736650Y23173100D01*
X21514400Y23077850D02*
X20879400Y22538100D01*
X20879400Y23173100D01*
D12*
X584200Y10744200D02*
X584200Y9474200D01*
X1219200Y8839200D01*
X2489200Y8839200D01*
X3124200Y9474200D01*
X1219200Y8839200D02*
X584200Y8204200D01*
X584200Y6934200D01*
X1219200Y6299200D01*
X2489200Y6299200D01*
X3124200Y6934200D01*
X3124200Y8204200D01*
X2489200Y8839200D01*
X584200Y13284200D02*
X1219200Y13919200D01*
X584200Y13284200D02*
X584200Y12014200D01*
X1219200Y11379200D01*
X2489200Y11379200D01*
X3124200Y12014200D01*
X3124200Y13284200D01*
X2489200Y13919200D01*
X1219200Y11379200D02*
X584200Y10744200D01*
X2489200Y11379200D02*
X3124200Y10744200D01*
X3124200Y9474200D01*
X584200Y17094200D02*
X584200Y18364200D01*
X584200Y17094200D02*
X1219200Y16459200D01*
X2489200Y16459200D01*
X3124200Y17094200D01*
X1219200Y16459200D02*
X584200Y15824200D01*
X584200Y14554200D01*
X1219200Y13919200D01*
X2489200Y13919200D01*
X3124200Y14554200D01*
X3124200Y15824200D01*
X2489200Y16459200D01*
X584200Y20904200D02*
X1219200Y21539200D01*
X584200Y20904200D02*
X584200Y19634200D01*
X1219200Y18999200D01*
X2489200Y18999200D01*
X3124200Y19634200D01*
X3124200Y20904200D01*
X2489200Y21539200D01*
X1219200Y18999200D02*
X584200Y18364200D01*
X2489200Y18999200D02*
X3124200Y18364200D01*
X3124200Y17094200D01*
X584200Y24714200D02*
X584200Y25984200D01*
X584200Y24714200D02*
X1219200Y24079200D01*
X2489200Y24079200D01*
X3124200Y24714200D01*
X1219200Y24079200D02*
X584200Y23444200D01*
X584200Y22174200D01*
X1219200Y21539200D01*
X2489200Y21539200D01*
X3124200Y22174200D01*
X3124200Y23444200D01*
X2489200Y24079200D01*
X584200Y28524200D02*
X1219200Y29159200D01*
X584200Y28524200D02*
X584200Y27254200D01*
X1219200Y26619200D01*
X2489200Y26619200D01*
X3124200Y27254200D01*
X3124200Y28524200D01*
X2489200Y29159200D01*
X1219200Y26619200D02*
X584200Y25984200D01*
X2489200Y26619200D02*
X3124200Y25984200D01*
X3124200Y24714200D01*
X584200Y32334200D02*
X584200Y33604200D01*
X584200Y32334200D02*
X1219200Y31699200D01*
X2489200Y31699200D01*
X3124200Y32334200D01*
X1219200Y31699200D02*
X584200Y31064200D01*
X584200Y29794200D01*
X1219200Y29159200D01*
X2489200Y29159200D01*
X3124200Y29794200D01*
X3124200Y31064200D01*
X2489200Y31699200D01*
X584200Y36144200D02*
X1219200Y36779200D01*
X584200Y36144200D02*
X584200Y34874200D01*
X1219200Y34239200D01*
X2489200Y34239200D01*
X3124200Y34874200D01*
X3124200Y36144200D01*
X2489200Y36779200D01*
X1219200Y34239200D02*
X584200Y33604200D01*
X2489200Y34239200D02*
X3124200Y33604200D01*
X3124200Y32334200D01*
X584200Y39954200D02*
X584200Y41224200D01*
X584200Y39954200D02*
X1219200Y39319200D01*
X2489200Y39319200D01*
X3124200Y39954200D01*
X1219200Y39319200D02*
X584200Y38684200D01*
X584200Y37414200D01*
X1219200Y36779200D01*
X2489200Y36779200D01*
X3124200Y37414200D01*
X3124200Y38684200D01*
X2489200Y39319200D01*
X2489200Y41859200D02*
X1219200Y41859200D01*
X584200Y41224200D01*
X2489200Y41859200D02*
X3124200Y41224200D01*
X3124200Y39954200D01*
X1219200Y6299200D02*
X584200Y5664200D01*
X584200Y4394200D01*
X1219200Y3759200D01*
X2489200Y3759200D01*
X3124200Y4394200D01*
X3124200Y5664200D01*
X2489200Y6299200D01*
D13*
X4042900Y22233031D02*
X4931900Y22233031D01*
X4042900Y22233031D02*
X4036762Y22232957D01*
X4030628Y22232734D01*
X4024502Y22232364D01*
X4018385Y22231845D01*
X4012284Y22231179D01*
X4006200Y22230366D01*
X4000137Y22229405D01*
X3994100Y22228299D01*
X3988091Y22227047D01*
X3982114Y22225650D01*
X3976172Y22224109D01*
X3970270Y22222425D01*
X3964410Y22220599D01*
X3958595Y22218632D01*
X3952830Y22216525D01*
X3947118Y22214279D01*
X3941461Y22211896D01*
X3935864Y22209377D01*
X3930329Y22206723D01*
X3924860Y22203937D01*
X3919460Y22201019D01*
X3914132Y22197971D01*
X3908879Y22194796D01*
X3903705Y22191494D01*
X3898612Y22188069D01*
X3893603Y22184521D01*
X3888681Y22180854D01*
X3883849Y22177068D01*
X3879110Y22173167D01*
X3874467Y22169153D01*
X3869922Y22165027D01*
X3865478Y22160793D01*
X3861138Y22156453D01*
X3856904Y22152009D01*
X3852778Y22147464D01*
X3848764Y22142821D01*
X3844863Y22138082D01*
X3841077Y22133250D01*
X3837410Y22128328D01*
X3833862Y22123319D01*
X3830437Y22118226D01*
X3827135Y22113052D01*
X3823960Y22107799D01*
X3820912Y22102471D01*
X3817994Y22097071D01*
X3815208Y22091602D01*
X3812554Y22086067D01*
X3810035Y22080470D01*
X3807652Y22074813D01*
X3805406Y22069101D01*
X3803299Y22063336D01*
X3801332Y22057521D01*
X3799506Y22051661D01*
X3797822Y22045759D01*
X3796281Y22039817D01*
X3794884Y22033840D01*
X3793632Y22027831D01*
X3792526Y22021794D01*
X3791565Y22015731D01*
X3790752Y22009647D01*
X3790086Y22003546D01*
X3789567Y21997429D01*
X3789197Y21991303D01*
X3788974Y21985169D01*
X3788900Y21979031D01*
X3788900Y21852031D01*
X3788900Y22831050D02*
X4931900Y22831050D01*
X4931900Y23148550D01*
X4931806Y23156281D01*
X4931523Y23164008D01*
X4931053Y23171726D01*
X4930395Y23179430D01*
X4929549Y23187116D01*
X4928517Y23194778D01*
X4927298Y23202414D01*
X4925893Y23210017D01*
X4924304Y23217584D01*
X4922531Y23225110D01*
X4920575Y23232591D01*
X4918438Y23240021D01*
X4916121Y23247398D01*
X4913624Y23254716D01*
X4910950Y23261971D01*
X4908100Y23269158D01*
X4905076Y23276275D01*
X4901880Y23283315D01*
X4898513Y23290275D01*
X4894977Y23297152D01*
X4891276Y23303940D01*
X4887410Y23310636D01*
X4883382Y23317236D01*
X4879194Y23323736D01*
X4874850Y23330132D01*
X4870351Y23336421D01*
X4865700Y23342598D01*
X4860900Y23348660D01*
X4855954Y23354603D01*
X4850865Y23360424D01*
X4845636Y23366119D01*
X4840269Y23371685D01*
X4834769Y23377119D01*
X4829137Y23382418D01*
X4823379Y23387577D01*
X4817496Y23392595D01*
X4811493Y23397469D01*
X4805373Y23402194D01*
X4799140Y23406769D01*
X4792798Y23411192D01*
X4786349Y23415458D01*
X4779799Y23419566D01*
X4773150Y23423513D01*
X4766407Y23427297D01*
X4759574Y23430916D01*
X4752655Y23434368D01*
X4745655Y23437649D01*
X4738576Y23440760D01*
X4731423Y23443697D01*
X4724201Y23446459D01*
X4716915Y23449045D01*
X4709567Y23451452D01*
X4702163Y23453679D01*
X4694706Y23455726D01*
X4687202Y23457591D01*
X4679655Y23459272D01*
X4672070Y23460769D01*
X4664450Y23462080D01*
X4656800Y23463206D01*
X4649125Y23464145D01*
X4641430Y23464897D01*
X4633719Y23465462D01*
X4625996Y23465838D01*
X4618266Y23466026D01*
X4610534Y23466026D01*
X4602804Y23465838D01*
X4595081Y23465462D01*
X4587370Y23464897D01*
X4579675Y23464145D01*
X4572000Y23463206D01*
X4564350Y23462080D01*
X4556730Y23460769D01*
X4549145Y23459272D01*
X4541598Y23457591D01*
X4534094Y23455726D01*
X4526637Y23453679D01*
X4519233Y23451452D01*
X4511885Y23449045D01*
X4504599Y23446459D01*
X4497377Y23443697D01*
X4490224Y23440760D01*
X4483145Y23437649D01*
X4476145Y23434368D01*
X4469226Y23430916D01*
X4462393Y23427297D01*
X4455650Y23423513D01*
X4449001Y23419566D01*
X4442451Y23415458D01*
X4436002Y23411192D01*
X4429660Y23406769D01*
X4423427Y23402194D01*
X4417307Y23397469D01*
X4411304Y23392595D01*
X4405421Y23387577D01*
X4399663Y23382418D01*
X4394031Y23377119D01*
X4388531Y23371685D01*
X4383164Y23366119D01*
X4377935Y23360424D01*
X4372846Y23354603D01*
X4367900Y23348660D01*
X4363100Y23342598D01*
X4358449Y23336421D01*
X4353950Y23330132D01*
X4349606Y23323736D01*
X4345418Y23317236D01*
X4341390Y23310636D01*
X4337524Y23303940D01*
X4333823Y23297152D01*
X4330287Y23290275D01*
X4326920Y23283315D01*
X4323724Y23276275D01*
X4320700Y23269158D01*
X4317850Y23261971D01*
X4315176Y23254716D01*
X4312679Y23247398D01*
X4310362Y23240021D01*
X4308225Y23232591D01*
X4306269Y23225110D01*
X4304496Y23217584D01*
X4302907Y23210017D01*
X4301502Y23202414D01*
X4300283Y23194778D01*
X4299251Y23187116D01*
X4298405Y23179430D01*
X4297747Y23171726D01*
X4297277Y23164008D01*
X4296994Y23156281D01*
X4296900Y23148550D01*
X4296900Y22831050D01*
X3788900Y23916900D02*
X3788900Y24234400D01*
X3788994Y24242131D01*
X3789277Y24249858D01*
X3789747Y24257576D01*
X3790405Y24265280D01*
X3791251Y24272966D01*
X3792283Y24280628D01*
X3793502Y24288264D01*
X3794907Y24295867D01*
X3796496Y24303434D01*
X3798269Y24310960D01*
X3800225Y24318441D01*
X3802362Y24325871D01*
X3804679Y24333248D01*
X3807176Y24340566D01*
X3809850Y24347821D01*
X3812700Y24355008D01*
X3815724Y24362125D01*
X3818920Y24369165D01*
X3822287Y24376125D01*
X3825823Y24383002D01*
X3829524Y24389790D01*
X3833390Y24396486D01*
X3837418Y24403086D01*
X3841606Y24409586D01*
X3845950Y24415982D01*
X3850449Y24422271D01*
X3855100Y24428448D01*
X3859900Y24434510D01*
X3864846Y24440453D01*
X3869935Y24446274D01*
X3875164Y24451969D01*
X3880531Y24457535D01*
X3886031Y24462969D01*
X3891663Y24468268D01*
X3897421Y24473427D01*
X3903304Y24478445D01*
X3909307Y24483319D01*
X3915427Y24488044D01*
X3921660Y24492619D01*
X3928002Y24497042D01*
X3934451Y24501308D01*
X3941001Y24505416D01*
X3947650Y24509363D01*
X3954393Y24513147D01*
X3961226Y24516766D01*
X3968145Y24520218D01*
X3975145Y24523499D01*
X3982224Y24526610D01*
X3989377Y24529547D01*
X3996599Y24532309D01*
X4003885Y24534895D01*
X4011233Y24537302D01*
X4018637Y24539529D01*
X4026094Y24541576D01*
X4033598Y24543441D01*
X4041145Y24545122D01*
X4048730Y24546619D01*
X4056350Y24547930D01*
X4064000Y24549056D01*
X4071675Y24549995D01*
X4079370Y24550747D01*
X4087081Y24551312D01*
X4094804Y24551688D01*
X4102534Y24551876D01*
X4110266Y24551876D01*
X4117996Y24551688D01*
X4125719Y24551312D01*
X4133430Y24550747D01*
X4141125Y24549995D01*
X4148800Y24549056D01*
X4156450Y24547930D01*
X4164070Y24546619D01*
X4171655Y24545122D01*
X4179202Y24543441D01*
X4186706Y24541576D01*
X4194163Y24539529D01*
X4201567Y24537302D01*
X4208915Y24534895D01*
X4216201Y24532309D01*
X4223423Y24529547D01*
X4230576Y24526610D01*
X4237655Y24523499D01*
X4244655Y24520218D01*
X4251574Y24516766D01*
X4258407Y24513147D01*
X4265150Y24509363D01*
X4271799Y24505416D01*
X4278349Y24501308D01*
X4284798Y24497042D01*
X4291140Y24492619D01*
X4297373Y24488044D01*
X4303493Y24483319D01*
X4309496Y24478445D01*
X4315379Y24473427D01*
X4321137Y24468268D01*
X4326769Y24462969D01*
X4332269Y24457535D01*
X4337636Y24451969D01*
X4342865Y24446274D01*
X4347954Y24440453D01*
X4352900Y24434510D01*
X4357700Y24428448D01*
X4362351Y24422271D01*
X4366850Y24415982D01*
X4371194Y24409586D01*
X4375382Y24403086D01*
X4379410Y24396486D01*
X4383276Y24389790D01*
X4386977Y24383002D01*
X4390513Y24376125D01*
X4393880Y24369165D01*
X4397076Y24362125D01*
X4400100Y24355008D01*
X4402950Y24347821D01*
X4405624Y24340566D01*
X4408121Y24333248D01*
X4410438Y24325871D01*
X4412575Y24318441D01*
X4414531Y24310960D01*
X4416304Y24303434D01*
X4417893Y24295867D01*
X4419298Y24288264D01*
X4420517Y24280628D01*
X4421549Y24272966D01*
X4422395Y24265280D01*
X4423053Y24257576D01*
X4423523Y24249858D01*
X4423806Y24242131D01*
X4423900Y24234400D01*
X4931900Y24297900D02*
X4931900Y23916900D01*
X4931900Y24297900D02*
X4931825Y24304085D01*
X4931599Y24310267D01*
X4931222Y24316441D01*
X4930696Y24322604D01*
X4930019Y24328752D01*
X4929193Y24334883D01*
X4928218Y24340991D01*
X4927095Y24347074D01*
X4925823Y24353127D01*
X4924405Y24359148D01*
X4922840Y24365133D01*
X4921131Y24371077D01*
X4919276Y24376978D01*
X4917279Y24382833D01*
X4915140Y24388637D01*
X4912860Y24394387D01*
X4910441Y24400080D01*
X4907884Y24405712D01*
X4905190Y24411280D01*
X4902362Y24416782D01*
X4899401Y24422212D01*
X4896308Y24427569D01*
X4893085Y24432849D01*
X4889735Y24438049D01*
X4886260Y24443166D01*
X4882661Y24448197D01*
X4878940Y24453138D01*
X4875100Y24457988D01*
X4871144Y24462742D01*
X4867072Y24467399D01*
X4862889Y24471955D01*
X4858595Y24476408D01*
X4854195Y24480755D01*
X4849690Y24484994D01*
X4845083Y24489122D01*
X4840377Y24493136D01*
X4835575Y24497035D01*
X4830679Y24500815D01*
X4825692Y24504476D01*
X4820618Y24508013D01*
X4815459Y24511426D01*
X4810219Y24514713D01*
X4804900Y24517870D01*
X4799506Y24520898D01*
X4794040Y24523793D01*
X4788504Y24526554D01*
X4782904Y24529180D01*
X4777241Y24531668D01*
X4771519Y24534018D01*
X4765741Y24536227D01*
X4759912Y24538296D01*
X4754033Y24540221D01*
X4748110Y24542004D01*
X4742145Y24543641D01*
X4736142Y24545132D01*
X4730104Y24546477D01*
X4724036Y24547675D01*
X4717940Y24548724D01*
X4711820Y24549625D01*
X4705680Y24550376D01*
X4699524Y24550978D01*
X4693355Y24551429D01*
X4687177Y24551731D01*
X4680993Y24551881D01*
X4674807Y24551881D01*
X4668623Y24551731D01*
X4662445Y24551429D01*
X4656276Y24550978D01*
X4650120Y24550376D01*
X4643980Y24549625D01*
X4637860Y24548724D01*
X4631764Y24547675D01*
X4625696Y24546477D01*
X4619658Y24545132D01*
X4613655Y24543641D01*
X4607690Y24542004D01*
X4601767Y24540221D01*
X4595888Y24538296D01*
X4590059Y24536227D01*
X4584281Y24534018D01*
X4578559Y24531668D01*
X4572896Y24529180D01*
X4567296Y24526554D01*
X4561760Y24523793D01*
X4556294Y24520898D01*
X4550900Y24517870D01*
X4545581Y24514713D01*
X4540341Y24511426D01*
X4535182Y24508013D01*
X4530108Y24504476D01*
X4525121Y24500815D01*
X4520225Y24497035D01*
X4515423Y24493136D01*
X4510717Y24489122D01*
X4506110Y24484994D01*
X4501605Y24480755D01*
X4497205Y24476408D01*
X4492911Y24471955D01*
X4488728Y24467399D01*
X4484656Y24462742D01*
X4480700Y24457988D01*
X4476860Y24453138D01*
X4473139Y24448197D01*
X4469540Y24443166D01*
X4466065Y24438049D01*
X4462715Y24432849D01*
X4459492Y24427569D01*
X4456399Y24422212D01*
X4453438Y24416782D01*
X4450610Y24411280D01*
X4447916Y24405712D01*
X4445359Y24400080D01*
X4442940Y24394387D01*
X4440660Y24388637D01*
X4438521Y24382833D01*
X4436524Y24376978D01*
X4434669Y24371077D01*
X4432960Y24365133D01*
X4431395Y24359148D01*
X4429977Y24353127D01*
X4428705Y24347074D01*
X4427582Y24340991D01*
X4426607Y24334883D01*
X4425781Y24328752D01*
X4425104Y24322604D01*
X4424578Y24316441D01*
X4424201Y24310267D01*
X4423975Y24304085D01*
X4423900Y24297900D01*
X4423900Y24043900D01*
M02*
