G04 EAGLE Gerber X2 export*
%TF.Part,Single*%
%TF.FileFunction,Paste,Top*%
%TF.FilePolarity,Positive*%
%TF.GenerationSoftware,Autodesk,EAGLE,9.6.2*%
%TF.CreationDate,2022-05-08T16:50:48Z*%
G75*
%MOMM*%
%FSLAX46Y46*%
%LPD*%
%INSolderpaste Top*%
%AMOC8*
5,1,8,0,0,1.08239X$1,22.5*%
G01*
%ADD10R,1.500000X1.300000*%
%ADD11R,1.300000X1.500000*%
%ADD12R,1.200000X1.200000*%
%ADD13R,2.000000X2.000000*%
%ADD14R,0.550000X1.500000*%
%ADD15R,1.500000X0.550000*%
%ADD16R,2.950000X1.950000*%
%ADD17C,0.508000*%
%ADD18R,2.000000X1.500000*%
%ADD19R,2.000000X3.800000*%


D10*
X18167400Y7402700D03*
X18167400Y5502700D03*
D11*
X17107400Y13852700D03*
X15207400Y13852700D03*
D10*
X6937400Y17112700D03*
X6937400Y15212700D03*
X13127400Y15092700D03*
X13127400Y16992700D03*
X5018400Y41063700D03*
X5018400Y39163700D03*
X17813400Y37821700D03*
X17813400Y35921700D03*
X19668400Y39044700D03*
X19668400Y37144700D03*
X7128400Y41063700D03*
X7128400Y39163700D03*
X15197400Y17962700D03*
X15197400Y16062700D03*
D12*
X15097400Y11962700D03*
X17197400Y11962700D03*
X17799600Y41751300D03*
X17799600Y39651300D03*
D10*
X6947400Y13062700D03*
X6947400Y11162700D03*
D11*
X21641300Y41481400D03*
X19741300Y41481400D03*
D10*
X13087400Y11062700D03*
X13087400Y12962700D03*
D13*
X7587400Y7562700D03*
X15587400Y7562700D03*
D14*
X10067400Y20872700D03*
X10867400Y20872700D03*
X11667400Y20872700D03*
X12467400Y20872700D03*
X13267400Y20872700D03*
X14067400Y20872700D03*
X14867400Y20872700D03*
X15667400Y20872700D03*
D15*
X17067400Y22272700D03*
X17067400Y23072700D03*
X17067400Y23872700D03*
X17067400Y24672700D03*
X17067400Y25472700D03*
X17067400Y26272700D03*
X17067400Y27072700D03*
X17067400Y27872700D03*
D14*
X15667400Y29272700D03*
X14867400Y29272700D03*
X14067400Y29272700D03*
X13267400Y29272700D03*
X12467400Y29272700D03*
X11667400Y29272700D03*
X10867400Y29272700D03*
X10067400Y29272700D03*
D15*
X8667400Y27872700D03*
X8667400Y27072700D03*
X8667400Y26272700D03*
X8667400Y25472700D03*
X8667400Y24672700D03*
X8667400Y23872700D03*
X8667400Y23072700D03*
X8667400Y22272700D03*
D16*
X9957400Y18172700D03*
X9957400Y13872700D03*
D17*
X4621000Y2445000D03*
X23821000Y1292000D03*
X4017000Y36705000D03*
D18*
X15723000Y36943000D03*
X15723000Y39243000D03*
X15723000Y41543000D03*
D19*
X9423000Y39243000D03*
M02*
