M48
; DRILL file {KiCad (6.0.2)} date Thu May 19 16:25:28 2022
; FORMAT={-:-/ absolute / metric / decimal}
; #@! TF.CreationDate,2022-05-19T16:25:28+02:00
; #@! TF.GenerationSoftware,Kicad,Pcbnew,(6.0.2)
; #@! TF.FileFunction,MixedPlating,1,2
FMAT,2
METRIC
; #@! TA.AperFunction,Plated,PTH,ViaDrill
T1C0.400
; #@! TA.AperFunction,Plated,PTH,ViaDrill
T2C0.700
; #@! TA.AperFunction,Plated,PTH,ComponentDrill
T3C1.000
%
G90
G05
T1
X29.8Y4.4
X30.8Y3.4
X32.0Y35.8
X32.0Y31.6
X32.0Y27.8
X32.0Y23.6
X32.0Y19.6
X32.0Y15.8
X32.0Y11.8
X32.6Y8.2
X35.2Y23.6
X35.2Y19.6
X35.4Y15.8
X35.4Y7.8
X36.4Y35.8
X36.4Y31.6
X36.4Y27.6
X36.4Y12.0
X36.4Y3.8
X39.6Y19.8
X39.6Y12.0
X39.8Y31.8
X39.8Y27.8
X39.8Y23.8
X39.8Y7.8
X39.8Y3.8
X40.8Y35.8
X43.406Y16.111
X44.0Y12.0
X44.0Y8.0
X44.2Y31.6
X44.2Y23.6
X44.2Y3.6
X44.4Y27.8
X44.8Y15.888
X45.2Y35.8
X48.4Y20.4
X48.4Y16.0
X48.4Y3.4
X48.6Y31.8
X48.6Y27.8
X48.6Y12.0
X48.6Y8.0
X49.6Y35.8
X50.6Y20.0
X52.8Y24.0
X52.8Y16.0
X52.8Y12.0
X52.8Y8.0
X53.0Y31.6
X53.189Y19.763
X54.0Y35.8
X55.2Y4.0
X55.398Y23.995
X57.4Y28.4
X58.4Y35.8
T2
X0.8Y29.8
X1.399Y18.0
X1.8Y9.8
X2.4Y19.2
X3.8Y26.8
X5.6Y6.6
X5.8Y5.2
X8.4Y23.6
X9.0Y8.0
X9.2Y1.4
X9.999Y10.468
X10.2Y25.2
X10.8Y12.868
X11.0Y20.0
X11.2Y32.2
X11.4Y15.2
X11.6Y17.0
X11.8Y9.6
X12.2Y13.0
X12.4Y6.6
X12.4Y5.2
X14.0Y31.4
X15.2Y4.0
X15.4Y2.6
X16.4Y28.8
X16.4Y1.699
X17.4Y32.2
X18.2Y30.8
X19.8Y34.2
X21.8Y33.2
X21.8Y29.0
X21.8Y25.2
X21.8Y21.0
X21.8Y17.0
X21.8Y13.0
X21.8Y9.0
X22.0Y5.0
X24.2Y29.0
X24.2Y25.2
X24.2Y21.0
X24.2Y17.0
X24.2Y13.0
X24.2Y9.0
X24.2Y5.0
X24.4Y33.2
T3
X1.575Y6.955
X1.575Y4.415
X1.575Y1.875
X2.275Y34.625
X4.815Y34.625
X7.355Y34.625
X11.075Y34.625
X13.615Y34.625
X16.155Y34.625
T0
M30
