%TF.GenerationSoftware,KiCad,Pcbnew,(6.0.2)*%
%TF.CreationDate,2022-05-19T16:25:25+02:00*%
%TF.ProjectId,AT806_Led-Matrix-Single,41543830-365f-44c6-9564-2d4d61747269,rev?*%
%TF.SameCoordinates,PX64e6140PY76a3180*%
%TF.FileFunction,Legend,Bot*%
%TF.FilePolarity,Positive*%
%FSLAX46Y46*%
G04 Gerber Fmt 4.6, Leading zero omitted, Abs format (unit mm)*
G04 Created by KiCad (PCBNEW (6.0.2)) date 2022-05-19 16:25:25*
%MOMM*%
%LPD*%
G01*
G04 APERTURE LIST*
%ADD10C,0.125000*%
%ADD11C,0.150000*%
%ADD12C,0.120000*%
G04 APERTURE END LIST*
D10*
X2950000Y4780953D02*
X2926190Y4828572D01*
X2926190Y4900000D01*
X2950000Y4971429D01*
X2997619Y5019048D01*
X3045238Y5042858D01*
X3140476Y5066667D01*
X3211904Y5066667D01*
X3307142Y5042858D01*
X3354761Y5019048D01*
X3402380Y4971429D01*
X3426190Y4900000D01*
X3426190Y4852381D01*
X3402380Y4780953D01*
X3378571Y4757143D01*
X3211904Y4757143D01*
X3211904Y4852381D01*
X3426190Y4542858D02*
X2926190Y4542858D01*
X3426190Y4257143D01*
X2926190Y4257143D01*
X3426190Y4019048D02*
X2926190Y4019048D01*
X2926190Y3900000D01*
X2950000Y3828572D01*
X2997619Y3780953D01*
X3045238Y3757143D01*
X3140476Y3733334D01*
X3211904Y3733334D01*
X3307142Y3757143D01*
X3354761Y3780953D01*
X3402380Y3828572D01*
X3426190Y3900000D01*
X3426190Y4019048D01*
D11*
X14052380Y5361905D02*
X13052380Y5361905D01*
X13052380Y5742858D01*
X13100000Y5838096D01*
X13147619Y5885715D01*
X13242857Y5933334D01*
X13385714Y5933334D01*
X13480952Y5885715D01*
X13528571Y5838096D01*
X13576190Y5742858D01*
X13576190Y5361905D01*
X13957142Y6933334D02*
X14004761Y6885715D01*
X14052380Y6742858D01*
X14052380Y6647620D01*
X14004761Y6504762D01*
X13909523Y6409524D01*
X13814285Y6361905D01*
X13623809Y6314286D01*
X13480952Y6314286D01*
X13290476Y6361905D01*
X13195238Y6409524D01*
X13100000Y6504762D01*
X13052380Y6647620D01*
X13052380Y6742858D01*
X13100000Y6885715D01*
X13147619Y6933334D01*
X13052380Y7266667D02*
X13052380Y7885715D01*
X13433333Y7552381D01*
X13433333Y7695239D01*
X13480952Y7790477D01*
X13528571Y7838096D01*
X13623809Y7885715D01*
X13861904Y7885715D01*
X13957142Y7838096D01*
X14004761Y7790477D01*
X14052380Y7695239D01*
X14052380Y7409524D01*
X14004761Y7314286D01*
X13957142Y7266667D01*
D10*
X11607142Y32797620D02*
X11535714Y32773810D01*
X11416666Y32773810D01*
X11369047Y32797620D01*
X11345238Y32821429D01*
X11321428Y32869048D01*
X11321428Y32916667D01*
X11345238Y32964286D01*
X11369047Y32988096D01*
X11416666Y33011905D01*
X11511904Y33035715D01*
X11559523Y33059524D01*
X11583333Y33083334D01*
X11607142Y33130953D01*
X11607142Y33178572D01*
X11583333Y33226191D01*
X11559523Y33250000D01*
X11511904Y33273810D01*
X11392857Y33273810D01*
X11321428Y33250000D01*
X11107142Y32773810D02*
X11107142Y33273810D01*
X10988095Y33273810D01*
X10916666Y33250000D01*
X10869047Y33202381D01*
X10845238Y33154762D01*
X10821428Y33059524D01*
X10821428Y32988096D01*
X10845238Y32892858D01*
X10869047Y32845239D01*
X10916666Y32797620D01*
X10988095Y32773810D01*
X11107142Y32773810D01*
X10630952Y32916667D02*
X10392857Y32916667D01*
X10678571Y32773810D02*
X10511904Y33273810D01*
X10345238Y32773810D01*
D11*
X5652380Y1761905D02*
X4652380Y1761905D01*
X4652380Y2142858D01*
X4700000Y2238096D01*
X4747619Y2285715D01*
X4842857Y2333334D01*
X4985714Y2333334D01*
X5080952Y2285715D01*
X5128571Y2238096D01*
X5176190Y2142858D01*
X5176190Y1761905D01*
X5128571Y3095239D02*
X5176190Y3238096D01*
X5223809Y3285715D01*
X5319047Y3333334D01*
X5461904Y3333334D01*
X5557142Y3285715D01*
X5604761Y3238096D01*
X5652380Y3142858D01*
X5652380Y2761905D01*
X4652380Y2761905D01*
X4652380Y3095239D01*
X4700000Y3190477D01*
X4747619Y3238096D01*
X4842857Y3285715D01*
X4938095Y3285715D01*
X5033333Y3238096D01*
X5080952Y3190477D01*
X5128571Y3095239D01*
X5128571Y2761905D01*
X4985714Y4190477D02*
X5652380Y4190477D01*
X4604761Y3952381D02*
X5319047Y3714286D01*
X5319047Y4333334D01*
D10*
X16795238Y32797620D02*
X16723809Y32773810D01*
X16604761Y32773810D01*
X16557142Y32797620D01*
X16533333Y32821429D01*
X16509523Y32869048D01*
X16509523Y32916667D01*
X16533333Y32964286D01*
X16557142Y32988096D01*
X16604761Y33011905D01*
X16700000Y33035715D01*
X16747619Y33059524D01*
X16771428Y33083334D01*
X16795238Y33130953D01*
X16795238Y33178572D01*
X16771428Y33226191D01*
X16747619Y33250000D01*
X16700000Y33273810D01*
X16580952Y33273810D01*
X16509523Y33250000D01*
X16009523Y32821429D02*
X16033333Y32797620D01*
X16104761Y32773810D01*
X16152380Y32773810D01*
X16223809Y32797620D01*
X16271428Y32845239D01*
X16295238Y32892858D01*
X16319047Y32988096D01*
X16319047Y33059524D01*
X16295238Y33154762D01*
X16271428Y33202381D01*
X16223809Y33250000D01*
X16152380Y33273810D01*
X16104761Y33273810D01*
X16033333Y33250000D01*
X16009523Y33226191D01*
X15557142Y32773810D02*
X15795238Y32773810D01*
X15795238Y33273810D01*
X7780952Y33250000D02*
X7828571Y33273810D01*
X7900000Y33273810D01*
X7971428Y33250000D01*
X8019047Y33202381D01*
X8042857Y33154762D01*
X8066666Y33059524D01*
X8066666Y32988096D01*
X8042857Y32892858D01*
X8019047Y32845239D01*
X7971428Y32797620D01*
X7900000Y32773810D01*
X7852380Y32773810D01*
X7780952Y32797620D01*
X7757142Y32821429D01*
X7757142Y32988096D01*
X7852380Y32988096D01*
X7542857Y32773810D02*
X7542857Y33273810D01*
X7257142Y32773810D01*
X7257142Y33273810D01*
X7019047Y32773810D02*
X7019047Y33273810D01*
X6900000Y33273810D01*
X6828571Y33250000D01*
X6780952Y33202381D01*
X6757142Y33154762D01*
X6733333Y33059524D01*
X6733333Y32988096D01*
X6757142Y32892858D01*
X6780952Y32845239D01*
X6828571Y32797620D01*
X6900000Y32773810D01*
X7019047Y32773810D01*
X3426190Y7333334D02*
X3188095Y7500000D01*
X3426190Y7619048D02*
X2926190Y7619048D01*
X2926190Y7428572D01*
X2950000Y7380953D01*
X2973809Y7357143D01*
X3021428Y7333334D01*
X3092857Y7333334D01*
X3140476Y7357143D01*
X3164285Y7380953D01*
X3188095Y7428572D01*
X3188095Y7619048D01*
X2926190Y7166667D02*
X3426190Y6833334D01*
X2926190Y6833334D02*
X3426190Y7166667D01*
X3426190Y6642858D02*
X2926190Y6642858D01*
X2926190Y6523810D01*
X2950000Y6452381D01*
X2997619Y6404762D01*
X3045238Y6380953D01*
X3140476Y6357143D01*
X3211904Y6357143D01*
X3307142Y6380953D01*
X3354761Y6404762D01*
X3402380Y6452381D01*
X3426190Y6523810D01*
X3426190Y6642858D01*
X5642857Y32964286D02*
X5261904Y32964286D01*
X5452380Y32773810D02*
X5452380Y33154762D01*
X4785714Y33273810D02*
X5023809Y33273810D01*
X5047619Y33035715D01*
X5023809Y33059524D01*
X4976190Y33083334D01*
X4857142Y33083334D01*
X4809523Y33059524D01*
X4785714Y33035715D01*
X4761904Y32988096D01*
X4761904Y32869048D01*
X4785714Y32821429D01*
X4809523Y32797620D01*
X4857142Y32773810D01*
X4976190Y32773810D01*
X5023809Y32797620D01*
X5047619Y32821429D01*
X4619047Y33273810D02*
X4452380Y32773810D01*
X4285714Y33273810D01*
D11*
X13652380Y1761905D02*
X12652380Y1761905D01*
X12652380Y2142858D01*
X12700000Y2238096D01*
X12747619Y2285715D01*
X12842857Y2333334D01*
X12985714Y2333334D01*
X13080952Y2285715D01*
X13128571Y2238096D01*
X13176190Y2142858D01*
X13176190Y1761905D01*
X13557142Y3333334D02*
X13604761Y3285715D01*
X13652380Y3142858D01*
X13652380Y3047620D01*
X13604761Y2904762D01*
X13509523Y2809524D01*
X13414285Y2761905D01*
X13223809Y2714286D01*
X13080952Y2714286D01*
X12890476Y2761905D01*
X12795238Y2809524D01*
X12700000Y2904762D01*
X12652380Y3047620D01*
X12652380Y3142858D01*
X12700000Y3285715D01*
X12747619Y3333334D01*
X12747619Y3714286D02*
X12700000Y3761905D01*
X12652380Y3857143D01*
X12652380Y4095239D01*
X12700000Y4190477D01*
X12747619Y4238096D01*
X12842857Y4285715D01*
X12938095Y4285715D01*
X13080952Y4238096D01*
X13652380Y3666667D01*
X13652380Y4285715D01*
D10*
X2926190Y2430953D02*
X2926190Y2145239D01*
X3426190Y2288096D02*
X2926190Y2288096D01*
X2926190Y2026191D02*
X3426190Y1692858D01*
X2926190Y1692858D02*
X3426190Y2026191D01*
X3426190Y1502381D02*
X2926190Y1502381D01*
X2926190Y1383334D01*
X2950000Y1311905D01*
X2997619Y1264286D01*
X3045238Y1240477D01*
X3140476Y1216667D01*
X3211904Y1216667D01*
X3307142Y1240477D01*
X3354761Y1264286D01*
X3402380Y1311905D01*
X3426190Y1383334D01*
X3426190Y1502381D01*
X3161904Y33273810D02*
X3161904Y32869048D01*
X3138095Y32821429D01*
X3114285Y32797620D01*
X3066666Y32773810D01*
X2971428Y32773810D01*
X2923809Y32797620D01*
X2900000Y32821429D01*
X2876190Y32869048D01*
X2876190Y33273810D01*
X2638095Y32773810D02*
X2638095Y33273810D01*
X2447619Y33273810D01*
X2400000Y33250000D01*
X2376190Y33226191D01*
X2352380Y33178572D01*
X2352380Y33107143D01*
X2376190Y33059524D01*
X2400000Y33035715D01*
X2447619Y33011905D01*
X2638095Y33011905D01*
X2138095Y32773810D02*
X2138095Y33273810D01*
X2019047Y33273810D01*
X1947619Y33250000D01*
X1900000Y33202381D01*
X1876190Y33154762D01*
X1852380Y33059524D01*
X1852380Y32988096D01*
X1876190Y32892858D01*
X1900000Y32845239D01*
X1947619Y32797620D01*
X2019047Y32773810D01*
X2138095Y32773810D01*
X1638095Y32773810D02*
X1638095Y33273810D01*
X13980952Y33250000D02*
X14028571Y33273810D01*
X14100000Y33273810D01*
X14171428Y33250000D01*
X14219047Y33202381D01*
X14242857Y33154762D01*
X14266666Y33059524D01*
X14266666Y32988096D01*
X14242857Y32892858D01*
X14219047Y32845239D01*
X14171428Y32797620D01*
X14100000Y32773810D01*
X14052380Y32773810D01*
X13980952Y32797620D01*
X13957142Y32821429D01*
X13957142Y32988096D01*
X14052380Y32988096D01*
X13742857Y32773810D02*
X13742857Y33273810D01*
X13457142Y32773810D01*
X13457142Y33273810D01*
X13219047Y32773810D02*
X13219047Y33273810D01*
X13100000Y33273810D01*
X13028571Y33250000D01*
X12980952Y33202381D01*
X12957142Y33154762D01*
X12933333Y33059524D01*
X12933333Y32988096D01*
X12957142Y32892858D01*
X12980952Y32845239D01*
X13028571Y32797620D01*
X13100000Y32773810D01*
X13219047Y32773810D01*
%TO.C,TP4*%
X11430952Y8673810D02*
X11145238Y8673810D01*
X11288095Y8173810D02*
X11288095Y8673810D01*
X10978571Y8173810D02*
X10978571Y8673810D01*
X10788095Y8673810D01*
X10740476Y8650000D01*
X10716666Y8626191D01*
X10692857Y8578572D01*
X10692857Y8507143D01*
X10716666Y8459524D01*
X10740476Y8435715D01*
X10788095Y8411905D01*
X10978571Y8411905D01*
X10264285Y8507143D02*
X10264285Y8173810D01*
X10383333Y8697620D02*
X10502380Y8340477D01*
X10192857Y8340477D01*
%TO.C,TP2*%
X11630952Y1473810D02*
X11345238Y1473810D01*
X11488095Y973810D02*
X11488095Y1473810D01*
X11178571Y973810D02*
X11178571Y1473810D01*
X10988095Y1473810D01*
X10940476Y1450000D01*
X10916666Y1426191D01*
X10892857Y1378572D01*
X10892857Y1307143D01*
X10916666Y1259524D01*
X10940476Y1235715D01*
X10988095Y1211905D01*
X11178571Y1211905D01*
X10702380Y1426191D02*
X10678571Y1450000D01*
X10630952Y1473810D01*
X10511904Y1473810D01*
X10464285Y1450000D01*
X10440476Y1426191D01*
X10416666Y1378572D01*
X10416666Y1330953D01*
X10440476Y1259524D01*
X10726190Y973810D01*
X10416666Y973810D01*
%TO.C,TP3*%
X7830952Y8673810D02*
X7545238Y8673810D01*
X7688095Y8173810D02*
X7688095Y8673810D01*
X7378571Y8173810D02*
X7378571Y8673810D01*
X7188095Y8673810D01*
X7140476Y8650000D01*
X7116666Y8626191D01*
X7092857Y8578572D01*
X7092857Y8507143D01*
X7116666Y8459524D01*
X7140476Y8435715D01*
X7188095Y8411905D01*
X7378571Y8411905D01*
X6926190Y8673810D02*
X6616666Y8673810D01*
X6783333Y8483334D01*
X6711904Y8483334D01*
X6664285Y8459524D01*
X6640476Y8435715D01*
X6616666Y8388096D01*
X6616666Y8269048D01*
X6640476Y8221429D01*
X6664285Y8197620D01*
X6711904Y8173810D01*
X6854761Y8173810D01*
X6902380Y8197620D01*
X6926190Y8221429D01*
%TO.C,TP1*%
X7830952Y1473810D02*
X7545238Y1473810D01*
X7688095Y973810D02*
X7688095Y1473810D01*
X7378571Y973810D02*
X7378571Y1473810D01*
X7188095Y1473810D01*
X7140476Y1450000D01*
X7116666Y1426191D01*
X7092857Y1378572D01*
X7092857Y1307143D01*
X7116666Y1259524D01*
X7140476Y1235715D01*
X7188095Y1211905D01*
X7378571Y1211905D01*
X6616666Y973810D02*
X6902380Y973810D01*
X6759523Y973810D02*
X6759523Y1473810D01*
X6807142Y1402381D01*
X6854761Y1354762D01*
X6902380Y1330953D01*
D12*
%TO.C,TP4*%
X12000000Y6600000D02*
G75*
G03*
X12000000Y6600000I-1200000J0D01*
G01*
%TO.C,TP2*%
X12200000Y3000000D02*
G75*
G03*
X12200000Y3000000I-1200000J0D01*
G01*
%TO.C,TP3*%
X8400000Y6600000D02*
G75*
G03*
X8400000Y6600000I-1200000J0D01*
G01*
%TO.C,TP1*%
X8400000Y3000000D02*
G75*
G03*
X8400000Y3000000I-1200000J0D01*
G01*
%TD*%
M02*
