%TF.GenerationSoftware,KiCad,Pcbnew,(6.0.2)*%
%TF.CreationDate,2022-05-19T16:25:25+02:00*%
%TF.ProjectId,AT806_Led-Matrix-Single,41543830-365f-44c6-9564-2d4d61747269,rev?*%
%TF.SameCoordinates,PX64e6140PY76a3180*%
%TF.FileFunction,Copper,L1,Top*%
%TF.FilePolarity,Positive*%
%FSLAX46Y46*%
G04 Gerber Fmt 4.6, Leading zero omitted, Abs format (unit mm)*
G04 Created by KiCad (PCBNEW (6.0.2)) date 2022-05-19 16:25:25*
%MOMM*%
%LPD*%
G01*
G04 APERTURE LIST*
G04 Aperture macros list*
%AMRoundRect*
0 Rectangle with rounded corners*
0 $1 Rounding radius*
0 $2 $3 $4 $5 $6 $7 $8 $9 X,Y pos of 4 corners*
0 Add a 4 corners polygon primitive as box body*
4,1,4,$2,$3,$4,$5,$6,$7,$8,$9,$2,$3,0*
0 Add four circle primitives for the rounded corners*
1,1,$1+$1,$2,$3*
1,1,$1+$1,$4,$5*
1,1,$1+$1,$6,$7*
1,1,$1+$1,$8,$9*
0 Add four rect primitives between the rounded corners*
20,1,$1+$1,$2,$3,$4,$5,0*
20,1,$1+$1,$4,$5,$6,$7,0*
20,1,$1+$1,$6,$7,$8,$9,0*
20,1,$1+$1,$8,$9,$2,$3,0*%
%AMFreePoly0*
4,1,22,0.550000,-0.750000,0.000000,-0.750000,0.000000,-0.745033,-0.079941,-0.743568,-0.215256,-0.701293,-0.333266,-0.622738,-0.424486,-0.514219,-0.481581,-0.384460,-0.499164,-0.250000,-0.500000,-0.250000,-0.500000,0.250000,-0.499164,0.250000,-0.499963,0.256109,-0.478152,0.396186,-0.417904,0.524511,-0.324060,0.630769,-0.204165,0.706417,-0.067858,0.745374,0.000000,0.744959,0.000000,0.750000,
0.550000,0.750000,0.550000,-0.750000,0.550000,-0.750000,$1*%
%AMFreePoly1*
4,1,20,0.000000,0.744959,0.073905,0.744508,0.209726,0.703889,0.328688,0.626782,0.421226,0.519385,0.479903,0.390333,0.500000,0.250000,0.500000,-0.250000,0.499851,-0.262216,0.476331,-0.402017,0.414519,-0.529596,0.319384,-0.634700,0.198574,-0.708877,0.061801,-0.746166,0.000000,-0.745033,0.000000,-0.750000,-0.550000,-0.750000,-0.550000,0.750000,0.000000,0.750000,0.000000,0.744959,
0.000000,0.744959,$1*%
G04 Aperture macros list end*
%TA.AperFunction,SMDPad,CuDef*%
%ADD10RoundRect,0.243750X-0.456250X0.243750X-0.456250X-0.243750X0.456250X-0.243750X0.456250X0.243750X0*%
%TD*%
%TA.AperFunction,SMDPad,CuDef*%
%ADD11RoundRect,0.243750X0.456250X-0.243750X0.456250X0.243750X-0.456250X0.243750X-0.456250X-0.243750X0*%
%TD*%
%TA.AperFunction,SMDPad,CuDef*%
%ADD12RoundRect,0.250000X0.262500X0.450000X-0.262500X0.450000X-0.262500X-0.450000X0.262500X-0.450000X0*%
%TD*%
%TA.AperFunction,SMDPad,CuDef*%
%ADD13RoundRect,0.250000X-0.475000X0.250000X-0.475000X-0.250000X0.475000X-0.250000X0.475000X0.250000X0*%
%TD*%
%TA.AperFunction,SMDPad,CuDef*%
%ADD14FreePoly0,0.000000*%
%TD*%
%TA.AperFunction,SMDPad,CuDef*%
%ADD15R,1.000000X1.500000*%
%TD*%
%TA.AperFunction,SMDPad,CuDef*%
%ADD16FreePoly1,0.000000*%
%TD*%
%TA.AperFunction,SMDPad,CuDef*%
%ADD17RoundRect,0.250000X0.475000X-0.250000X0.475000X0.250000X-0.475000X0.250000X-0.475000X-0.250000X0*%
%TD*%
%TA.AperFunction,SMDPad,CuDef*%
%ADD18RoundRect,0.250000X-0.250000X-0.475000X0.250000X-0.475000X0.250000X0.475000X-0.250000X0.475000X0*%
%TD*%
%TA.AperFunction,ComponentPad*%
%ADD19R,1.700000X1.700000*%
%TD*%
%TA.AperFunction,ComponentPad*%
%ADD20O,1.700000X1.700000*%
%TD*%
%TA.AperFunction,SMDPad,CuDef*%
%ADD21RoundRect,0.250000X-0.262500X-0.450000X0.262500X-0.450000X0.262500X0.450000X-0.262500X0.450000X0*%
%TD*%
%TA.AperFunction,SMDPad,CuDef*%
%ADD22RoundRect,0.150000X-0.875000X-0.150000X0.875000X-0.150000X0.875000X0.150000X-0.875000X0.150000X0*%
%TD*%
%TA.AperFunction,SMDPad,CuDef*%
%ADD23C,0.500000*%
%TD*%
%TA.AperFunction,SMDPad,CuDef*%
%ADD24R,1.500000X2.000000*%
%TD*%
%TA.AperFunction,SMDPad,CuDef*%
%ADD25R,3.800000X2.000000*%
%TD*%
%TA.AperFunction,ViaPad*%
%ADD26C,1.000000*%
%TD*%
%TA.AperFunction,ViaPad*%
%ADD27C,0.800000*%
%TD*%
%TA.AperFunction,Conductor*%
%ADD28C,0.700000*%
%TD*%
%TA.AperFunction,Conductor*%
%ADD29C,0.500000*%
%TD*%
%TA.AperFunction,Conductor*%
%ADD30C,0.300000*%
%TD*%
G04 APERTURE END LIST*
%TO.C,JP1*%
G36*
X5200000Y15500000D02*
G01*
X4700000Y15500000D01*
X4700000Y16100000D01*
X5200000Y16100000D01*
X5200000Y15500000D01*
G37*
%TD*%
D10*
%TO.P,D125,1,K*%
%TO.N,MATRIX_H*%
X53900000Y14950000D03*
%TO.P,D125,2,A*%
%TO.N,MATRIX_D*%
X53900000Y13075000D03*
%TD*%
%TO.P,D45,1,K*%
%TO.N,MATRIX_C*%
X36300000Y18937500D03*
%TO.P,D45,2,A*%
%TO.N,MATRIX_E*%
X36300000Y17062500D03*
%TD*%
%TO.P,D46,1,K*%
%TO.N,MATRIX_C*%
X36300000Y14987500D03*
%TO.P,D46,2,A*%
%TO.N,MATRIX_D*%
X36300000Y13112500D03*
%TD*%
D11*
%TO.P,D7,1,K*%
%TO.N,MATRIX_C*%
X25300000Y9062500D03*
%TO.P,D7,2,A*%
%TO.N,MATRIX_A*%
X25300000Y10937500D03*
%TD*%
D10*
%TO.P,D144,1,K*%
%TO.N,MATRIX_I*%
X56100000Y2937500D03*
%TO.P,D144,2,A*%
%TO.N,MATRIX_A*%
X56100000Y1062500D03*
%TD*%
%TO.P,D105,1,K*%
%TO.N,MATRIX_G*%
X54000000Y34862500D03*
%TO.P,D105,2,A*%
%TO.N,MATRIX_I*%
X54000000Y32987500D03*
%TD*%
%TO.P,D122,1,K*%
%TO.N,MATRIX_H*%
X54000000Y26937500D03*
%TO.P,D122,2,A*%
%TO.N,MATRIX_G*%
X54000000Y25062500D03*
%TD*%
%TO.P,D139,1,K*%
%TO.N,MATRIX_I*%
X58300000Y22737500D03*
%TO.P,D139,2,A*%
%TO.N,MATRIX_F*%
X58300000Y20862500D03*
%TD*%
D12*
%TO.P,R1,1*%
%TO.N,MATRIX_H*%
X20512500Y29000000D03*
%TO.P,R1,2*%
%TO.N,Net-(R1-Pad2)*%
X18687500Y29000000D03*
%TD*%
D11*
%TO.P,D115,1,K*%
%TO.N,MATRIX_F*%
X51700000Y20900000D03*
%TO.P,D115,2,A*%
%TO.N,MATRIX_H*%
X51700000Y22775000D03*
%TD*%
%TO.P,D2,1,K*%
%TO.N,MATRIX_H*%
X25350000Y29062500D03*
%TO.P,D2,2,A*%
%TO.N,MATRIX_A*%
X25350000Y30937500D03*
%TD*%
%TO.P,D118,1,K*%
%TO.N,MATRIX_C*%
X51700000Y9162500D03*
%TO.P,D118,2,A*%
%TO.N,MATRIX_H*%
X51700000Y11037500D03*
%TD*%
%TO.P,D100,1,K*%
%TO.N,MATRIX_E*%
X47300000Y17100000D03*
%TO.P,D100,2,A*%
%TO.N,MATRIX_G*%
X47300000Y18975000D03*
%TD*%
%TO.P,D51,1,K*%
%TO.N,MATRIX_G*%
X38600000Y25062500D03*
%TO.P,D51,2,A*%
%TO.N,MATRIX_D*%
X38600000Y26937500D03*
%TD*%
D10*
%TO.P,D78,1,K*%
%TO.N,MATRIX_E*%
X40750000Y11000000D03*
%TO.P,D78,2,A*%
%TO.N,MATRIX_C*%
X40750000Y9125000D03*
%TD*%
%TO.P,D142,1,K*%
%TO.N,MATRIX_I*%
X58300000Y11000000D03*
%TO.P,D142,2,A*%
%TO.N,MATRIX_C*%
X58300000Y9125000D03*
%TD*%
%TO.P,D41,1,K*%
%TO.N,MATRIX_C*%
X36400000Y34962500D03*
%TO.P,D41,2,A*%
%TO.N,MATRIX_I*%
X36400000Y33087500D03*
%TD*%
%TO.P,D30,1,K*%
%TO.N,MATRIX_B*%
X31900000Y14950000D03*
%TO.P,D30,2,A*%
%TO.N,MATRIX_D*%
X31900000Y13075000D03*
%TD*%
D11*
%TO.P,D102,1,K*%
%TO.N,MATRIX_C*%
X47350000Y9150000D03*
%TO.P,D102,2,A*%
%TO.N,MATRIX_G*%
X47350000Y11025000D03*
%TD*%
D10*
%TO.P,D108,1,K*%
%TO.N,MATRIX_G*%
X49500000Y18900000D03*
%TO.P,D108,2,A*%
%TO.N,MATRIX_E*%
X49500000Y17025000D03*
%TD*%
D11*
%TO.P,D68,1,K*%
%TO.N,MATRIX_F*%
X42900000Y20837500D03*
%TO.P,D68,2,A*%
%TO.N,MATRIX_E*%
X42900000Y22712500D03*
%TD*%
%TO.P,D71,1,K*%
%TO.N,MATRIX_B*%
X38550000Y5125000D03*
%TO.P,D71,2,A*%
%TO.N,MATRIX_E*%
X38550000Y7000000D03*
%TD*%
%TO.P,D1,1,K*%
%TO.N,MATRIX_I*%
X25400000Y33062500D03*
%TO.P,D1,2,A*%
%TO.N,MATRIX_A*%
X25400000Y34937500D03*
%TD*%
D10*
%TO.P,D137,1,K*%
%TO.N,MATRIX_I*%
X58400000Y30700000D03*
%TO.P,D137,2,A*%
%TO.N,MATRIX_H*%
X58400000Y28825000D03*
%TD*%
D13*
%TO.P,C2,1*%
%TO.N,+5V*%
X1600000Y22550000D03*
%TO.P,C2,2*%
%TO.N,GND*%
X1600000Y20650000D03*
%TD*%
D14*
%TO.P,JP1,1,A*%
%TO.N,+5V*%
X4300000Y15800000D03*
D15*
%TO.P,JP1,2,C*%
%TO.N,ATTINY_VCC*%
X5600000Y15800000D03*
D16*
%TO.P,JP1,3,B*%
%TO.N,+3V3*%
X6900000Y15800000D03*
%TD*%
D10*
%TO.P,D92,1,K*%
%TO.N,MATRIX_F*%
X45100000Y18900000D03*
%TO.P,D92,2,A*%
%TO.N,MATRIX_E*%
X45100000Y17025000D03*
%TD*%
%TO.P,D123,1,K*%
%TO.N,MATRIX_H*%
X53900000Y22737500D03*
%TO.P,D123,2,A*%
%TO.N,MATRIX_F*%
X53900000Y20862500D03*
%TD*%
%TO.P,D57,1,K*%
%TO.N,MATRIX_D*%
X40800000Y34900000D03*
%TO.P,D57,2,A*%
%TO.N,MATRIX_I*%
X40800000Y33025000D03*
%TD*%
%TO.P,D141,1,K*%
%TO.N,MATRIX_I*%
X58300000Y14937500D03*
%TO.P,D141,2,A*%
%TO.N,MATRIX_D*%
X58300000Y13062500D03*
%TD*%
%TO.P,D143,1,K*%
%TO.N,MATRIX_I*%
X58350000Y6975000D03*
%TO.P,D143,2,A*%
%TO.N,MATRIX_B*%
X58350000Y5100000D03*
%TD*%
D11*
%TO.P,D8,1,K*%
%TO.N,MATRIX_B*%
X25300000Y5062500D03*
%TO.P,D8,2,A*%
%TO.N,MATRIX_A*%
X25300000Y6937500D03*
%TD*%
D10*
%TO.P,D77,1,K*%
%TO.N,MATRIX_E*%
X40700000Y14937500D03*
%TO.P,D77,2,A*%
%TO.N,MATRIX_D*%
X40700000Y13062500D03*
%TD*%
D11*
%TO.P,D135,1,K*%
%TO.N,MATRIX_B*%
X56100000Y5112500D03*
%TO.P,D135,2,A*%
%TO.N,MATRIX_I*%
X56100000Y6987500D03*
%TD*%
D10*
%TO.P,D29,1,K*%
%TO.N,MATRIX_B*%
X31900000Y18900000D03*
%TO.P,D29,2,A*%
%TO.N,MATRIX_E*%
X31900000Y17025000D03*
%TD*%
%TO.P,D16,1,K*%
%TO.N,MATRIX_A*%
X27500000Y6937500D03*
%TO.P,D16,2,A*%
%TO.N,MATRIX_B*%
X27500000Y5062500D03*
%TD*%
D17*
%TO.P,C1,1*%
%TO.N,+5V*%
X1600000Y24650000D03*
%TO.P,C1,2*%
%TO.N,GND*%
X1600000Y26550000D03*
%TD*%
D11*
%TO.P,D87,1,K*%
%TO.N,MATRIX_B*%
X42900000Y5125000D03*
%TO.P,D87,2,A*%
%TO.N,MATRIX_F*%
X42900000Y7000000D03*
%TD*%
D10*
%TO.P,D128,1,K*%
%TO.N,MATRIX_H*%
X51700000Y2937500D03*
%TO.P,D128,2,A*%
%TO.N,MATRIX_A*%
X51700000Y1062500D03*
%TD*%
D11*
%TO.P,D67,1,K*%
%TO.N,MATRIX_G*%
X43000000Y25000000D03*
%TO.P,D67,2,A*%
%TO.N,MATRIX_E*%
X43000000Y26875000D03*
%TD*%
%TO.P,D72,1,K*%
%TO.N,MATRIX_A*%
X40700000Y1125000D03*
%TO.P,D72,2,A*%
%TO.N,MATRIX_E*%
X40700000Y3000000D03*
%TD*%
D10*
%TO.P,D10,1,K*%
%TO.N,MATRIX_A*%
X27600000Y30937500D03*
%TO.P,D10,2,A*%
%TO.N,MATRIX_H*%
X27600000Y29062500D03*
%TD*%
D11*
%TO.P,D18,1,K*%
%TO.N,MATRIX_H*%
X29800000Y29062500D03*
%TO.P,D18,2,A*%
%TO.N,MATRIX_B*%
X29800000Y30937500D03*
%TD*%
D18*
%TO.P,C6,1*%
%TO.N,+3V3*%
X6450000Y29800000D03*
%TO.P,C6,2*%
%TO.N,GND*%
X8350000Y29800000D03*
%TD*%
D10*
%TO.P,D28,1,K*%
%TO.N,MATRIX_B*%
X31900000Y22837500D03*
%TO.P,D28,2,A*%
%TO.N,MATRIX_F*%
X31900000Y20962500D03*
%TD*%
D19*
%TO.P,J3,1,Pin_1*%
%TO.N,TXD*%
X1575000Y1875000D03*
D20*
%TO.P,J3,2,Pin_2*%
%TO.N,GND*%
X1575000Y4415000D03*
%TO.P,J3,3,Pin_3*%
%TO.N,RXD*%
X1575000Y6955000D03*
%TD*%
D10*
%TO.P,D48,1,K*%
%TO.N,MATRIX_C*%
X29650000Y3012500D03*
%TO.P,D48,2,A*%
%TO.N,MATRIX_A*%
X29650000Y1137500D03*
%TD*%
D11*
%TO.P,D119,1,K*%
%TO.N,MATRIX_B*%
X51700000Y5150000D03*
%TO.P,D119,2,A*%
%TO.N,MATRIX_H*%
X51700000Y7025000D03*
%TD*%
%TO.P,D116,1,K*%
%TO.N,MATRIX_E*%
X51700000Y17100000D03*
%TO.P,D116,2,A*%
%TO.N,MATRIX_H*%
X51700000Y18975000D03*
%TD*%
%TO.P,D103,1,K*%
%TO.N,MATRIX_B*%
X47350000Y5162500D03*
%TO.P,D103,2,A*%
%TO.N,MATRIX_G*%
X47350000Y7037500D03*
%TD*%
D10*
%TO.P,D61,1,K*%
%TO.N,MATRIX_D*%
X40700000Y19000000D03*
%TO.P,D61,2,A*%
%TO.N,MATRIX_E*%
X40700000Y17125000D03*
%TD*%
%TO.P,D60,1,K*%
%TO.N,MATRIX_D*%
X40700000Y22737500D03*
%TO.P,D60,2,A*%
%TO.N,MATRIX_F*%
X40700000Y20862500D03*
%TD*%
D11*
%TO.P,D56,1,K*%
%TO.N,MATRIX_A*%
X36300000Y1125000D03*
%TO.P,D56,2,A*%
%TO.N,MATRIX_D*%
X36300000Y3000000D03*
%TD*%
D19*
%TO.P,J1,1,Pin_1*%
%TO.N,UPDI{slash}RST*%
X2275000Y34625000D03*
D20*
%TO.P,J1,2,Pin_2*%
%TO.N,+5V*%
X4815000Y34625000D03*
%TO.P,J1,3,Pin_3*%
%TO.N,GND*%
X7355000Y34625000D03*
%TD*%
D11*
%TO.P,D113,1,K*%
%TO.N,MATRIX_I*%
X56200000Y32962500D03*
%TO.P,D113,2,A*%
%TO.N,MATRIX_H*%
X56200000Y34837500D03*
%TD*%
%TO.P,D136,1,K*%
%TO.N,MATRIX_A*%
X58200000Y1062500D03*
%TO.P,D136,2,A*%
%TO.N,MATRIX_I*%
X58200000Y2937500D03*
%TD*%
D10*
%TO.P,D140,1,K*%
%TO.N,MATRIX_I*%
X58300000Y19000000D03*
%TO.P,D140,2,A*%
%TO.N,MATRIX_E*%
X58300000Y17125000D03*
%TD*%
D11*
%TO.P,D114,1,K*%
%TO.N,MATRIX_G*%
X51800000Y25100000D03*
%TO.P,D114,2,A*%
%TO.N,MATRIX_H*%
X51800000Y26975000D03*
%TD*%
D10*
%TO.P,D79,1,K*%
%TO.N,MATRIX_E*%
X40750000Y6975000D03*
%TO.P,D79,2,A*%
%TO.N,MATRIX_B*%
X40750000Y5100000D03*
%TD*%
D21*
%TO.P,R8,1*%
%TO.N,Net-(R8-Pad1)*%
X18687500Y21000000D03*
%TO.P,R8,2*%
%TO.N,MATRIX_F*%
X20512500Y21000000D03*
%TD*%
D11*
%TO.P,D117,1,K*%
%TO.N,MATRIX_D*%
X51700000Y13100000D03*
%TO.P,D117,2,A*%
%TO.N,MATRIX_H*%
X51700000Y14975000D03*
%TD*%
D10*
%TO.P,D15,1,K*%
%TO.N,MATRIX_A*%
X27500000Y10937500D03*
%TO.P,D15,2,A*%
%TO.N,MATRIX_C*%
X27500000Y9062500D03*
%TD*%
D11*
%TO.P,D129,1,K*%
%TO.N,MATRIX_H*%
X56200000Y28900000D03*
%TO.P,D129,2,A*%
%TO.N,MATRIX_I*%
X56200000Y30775000D03*
%TD*%
%TO.P,D4,1,K*%
%TO.N,MATRIX_F*%
X25300000Y21062500D03*
%TO.P,D4,2,A*%
%TO.N,MATRIX_A*%
X25300000Y22937500D03*
%TD*%
D19*
%TO.P,J2,1,Pin_1*%
%TO.N,I2C_SDA*%
X11075000Y34625000D03*
D20*
%TO.P,J2,2,Pin_2*%
%TO.N,GND*%
X13615000Y34625000D03*
%TO.P,J2,3,Pin_3*%
%TO.N,I2C_SCL*%
X16155000Y34625000D03*
%TD*%
D11*
%TO.P,D17,1,K*%
%TO.N,MATRIX_I*%
X29800000Y33062500D03*
%TO.P,D17,2,A*%
%TO.N,MATRIX_B*%
X29800000Y34937500D03*
%TD*%
D10*
%TO.P,D126,1,K*%
%TO.N,MATRIX_H*%
X53900000Y11000000D03*
%TO.P,D126,2,A*%
%TO.N,MATRIX_C*%
X53900000Y9125000D03*
%TD*%
%TO.P,D31,1,K*%
%TO.N,MATRIX_B*%
X31900000Y10950000D03*
%TO.P,D31,2,A*%
%TO.N,MATRIX_C*%
X31900000Y9075000D03*
%TD*%
D11*
%TO.P,D65,1,K*%
%TO.N,MATRIX_I*%
X43000000Y32987500D03*
%TO.P,D65,2,A*%
%TO.N,MATRIX_E*%
X43000000Y34862500D03*
%TD*%
D12*
%TO.P,R2,1*%
%TO.N,MATRIX_I*%
X20712500Y32400000D03*
%TO.P,R2,2*%
%TO.N,Net-(R2-Pad2)*%
X18887500Y32400000D03*
%TD*%
D10*
%TO.P,D121,1,K*%
%TO.N,MATRIX_H*%
X58400000Y34862500D03*
%TO.P,D121,2,A*%
%TO.N,MATRIX_I*%
X58400000Y32987500D03*
%TD*%
%TO.P,D124,1,K*%
%TO.N,MATRIX_H*%
X53900000Y18900000D03*
%TO.P,D124,2,A*%
%TO.N,MATRIX_E*%
X53900000Y17025000D03*
%TD*%
%TO.P,D27,1,K*%
%TO.N,MATRIX_B*%
X32000000Y27000000D03*
%TO.P,D27,2,A*%
%TO.N,MATRIX_G*%
X32000000Y25125000D03*
%TD*%
D11*
%TO.P,D35,1,K*%
%TO.N,MATRIX_G*%
X34200000Y25100000D03*
%TO.P,D35,2,A*%
%TO.N,MATRIX_C*%
X34200000Y26975000D03*
%TD*%
D22*
%TO.P,U1,1,VCC*%
%TO.N,ATTINY_VCC*%
X4350000Y12915000D03*
%TO.P,U1,2,PA4*%
%TO.N,Net-(R7-Pad1)*%
X4350000Y11645000D03*
%TO.P,U1,3,PA5*%
%TO.N,Net-(R3-Pad2)*%
X4350000Y10375000D03*
%TO.P,U1,4,PA6*%
%TO.N,Net-(R8-Pad1)*%
X4350000Y9105000D03*
%TO.P,U1,5,PA7*%
%TO.N,Net-(R4-Pad2)*%
X4350000Y7835000D03*
%TO.P,U1,6,PB5*%
%TO.N,CLK_OUT*%
X4350000Y6565000D03*
%TO.P,U1,7,PB4*%
%TO.N,PB4*%
X4350000Y5295000D03*
%TO.P,U1,8,PB3*%
%TO.N,RXD*%
X4350000Y4025000D03*
%TO.P,U1,9,PB2*%
%TO.N,TXD*%
X4350000Y2755000D03*
%TO.P,U1,10,PB1*%
%TO.N,I2C_SCL*%
X4350000Y1485000D03*
%TO.P,U1,11,PB0*%
%TO.N,I2C_SDA*%
X13650000Y1485000D03*
%TO.P,U1,12,PC0*%
%TO.N,Net-(R1-Pad2)*%
X13650000Y2755000D03*
%TO.P,U1,13,PC1*%
%TO.N,Net-(R2-Pad2)*%
X13650000Y4025000D03*
%TO.P,U1,14,PC2*%
%TO.N,PC2*%
X13650000Y5295000D03*
%TO.P,U1,15,PC3*%
%TO.N,PC3*%
X13650000Y6565000D03*
%TO.P,U1,16,~{RESET}/PA0*%
%TO.N,UPDI{slash}RST*%
X13650000Y7835000D03*
%TO.P,U1,17,PA1*%
%TO.N,Net-(R5-Pad2)*%
X13650000Y9105000D03*
%TO.P,U1,18,PA2*%
%TO.N,Net-(R9-Pad1)*%
X13650000Y10375000D03*
%TO.P,U1,19,PA3*%
%TO.N,Net-(R6-Pad2)*%
X13650000Y11645000D03*
%TO.P,U1,20,GND*%
%TO.N,GND*%
X13650000Y12915000D03*
%TD*%
D10*
%TO.P,D109,1,K*%
%TO.N,MATRIX_G*%
X49550000Y14950000D03*
%TO.P,D109,2,A*%
%TO.N,MATRIX_D*%
X49550000Y13075000D03*
%TD*%
D23*
%TO.P,FID1,*%
%TO.N,*%
X60200000Y800000D03*
%TD*%
D10*
%TO.P,D89,1,K*%
%TO.N,MATRIX_F*%
X49600000Y34862500D03*
%TO.P,D89,2,A*%
%TO.N,MATRIX_I*%
X49600000Y32987500D03*
%TD*%
%TO.P,D32,1,K*%
%TO.N,MATRIX_B*%
X25250000Y3037500D03*
%TO.P,D32,2,A*%
%TO.N,MATRIX_A*%
X25250000Y1162500D03*
%TD*%
%TO.P,D95,1,K*%
%TO.N,MATRIX_F*%
X45100000Y7000000D03*
%TO.P,D95,2,A*%
%TO.N,MATRIX_B*%
X45100000Y5125000D03*
%TD*%
D11*
%TO.P,D134,1,K*%
%TO.N,MATRIX_C*%
X56100000Y9150000D03*
%TO.P,D134,2,A*%
%TO.N,MATRIX_I*%
X56100000Y11025000D03*
%TD*%
%TO.P,D38,1,K*%
%TO.N,MATRIX_D*%
X34100000Y13100000D03*
%TO.P,D38,2,A*%
%TO.N,MATRIX_C*%
X34100000Y14975000D03*
%TD*%
%TO.P,D101,1,K*%
%TO.N,MATRIX_D*%
X47350000Y13100000D03*
%TO.P,D101,2,A*%
%TO.N,MATRIX_G*%
X47350000Y14975000D03*
%TD*%
%TO.P,D50,1,K*%
%TO.N,MATRIX_H*%
X38600000Y29000000D03*
%TO.P,D50,2,A*%
%TO.N,MATRIX_D*%
X38600000Y30875000D03*
%TD*%
D10*
%TO.P,D12,1,K*%
%TO.N,MATRIX_A*%
X27500000Y22875000D03*
%TO.P,D12,2,A*%
%TO.N,MATRIX_F*%
X27500000Y21000000D03*
%TD*%
D11*
%TO.P,D23,1,K*%
%TO.N,MATRIX_C*%
X29700000Y9100000D03*
%TO.P,D23,2,A*%
%TO.N,MATRIX_B*%
X29700000Y10975000D03*
%TD*%
D21*
%TO.P,R9,1*%
%TO.N,Net-(R9-Pad1)*%
X18887500Y5000000D03*
%TO.P,R9,2*%
%TO.N,MATRIX_B*%
X20712500Y5000000D03*
%TD*%
D10*
%TO.P,D26,1,K*%
%TO.N,MATRIX_B*%
X32000000Y30900000D03*
%TO.P,D26,2,A*%
%TO.N,MATRIX_H*%
X32000000Y29025000D03*
%TD*%
%TO.P,D9,1,K*%
%TO.N,MATRIX_A*%
X27600000Y34900000D03*
%TO.P,D9,2,A*%
%TO.N,MATRIX_I*%
X27600000Y33025000D03*
%TD*%
%TO.P,D111,1,K*%
%TO.N,MATRIX_G*%
X49550000Y6987500D03*
%TO.P,D111,2,A*%
%TO.N,MATRIX_B*%
X49550000Y5112500D03*
%TD*%
%TO.P,D80,1,K*%
%TO.N,MATRIX_E*%
X38500000Y3000000D03*
%TO.P,D80,2,A*%
%TO.N,MATRIX_A*%
X38500000Y1125000D03*
%TD*%
%TO.P,D138,1,K*%
%TO.N,MATRIX_I*%
X58400000Y26875000D03*
%TO.P,D138,2,A*%
%TO.N,MATRIX_G*%
X58400000Y25000000D03*
%TD*%
%TO.P,D127,1,K*%
%TO.N,MATRIX_H*%
X53900000Y7000000D03*
%TO.P,D127,2,A*%
%TO.N,MATRIX_B*%
X53900000Y5125000D03*
%TD*%
%TO.P,D74,1,K*%
%TO.N,MATRIX_E*%
X45200000Y30800000D03*
%TO.P,D74,2,A*%
%TO.N,MATRIX_H*%
X45200000Y28925000D03*
%TD*%
D11*
%TO.P,D54,1,K*%
%TO.N,MATRIX_C*%
X34100000Y9100000D03*
%TO.P,D54,2,A*%
%TO.N,MATRIX_D*%
X34100000Y10975000D03*
%TD*%
D10*
%TO.P,D43,1,K*%
%TO.N,MATRIX_C*%
X36400000Y26937500D03*
%TO.P,D43,2,A*%
%TO.N,MATRIX_G*%
X36400000Y25062500D03*
%TD*%
D11*
%TO.P,D20,1,K*%
%TO.N,MATRIX_F*%
X29700000Y21037500D03*
%TO.P,D20,2,A*%
%TO.N,MATRIX_B*%
X29700000Y22912500D03*
%TD*%
D23*
%TO.P,REF\u002A\u002A,*%
%TO.N,*%
X12200000Y24400000D03*
X12200000Y24400000D03*
%TD*%
D10*
%TO.P,D90,1,K*%
%TO.N,MATRIX_F*%
X49600000Y30737500D03*
%TO.P,D90,2,A*%
%TO.N,MATRIX_H*%
X49600000Y28862500D03*
%TD*%
%TO.P,D14,1,K*%
%TO.N,MATRIX_A*%
X27500000Y14937500D03*
%TO.P,D14,2,A*%
%TO.N,MATRIX_D*%
X27500000Y13062500D03*
%TD*%
%TO.P,D47,1,K*%
%TO.N,MATRIX_C*%
X31950000Y6950000D03*
%TO.P,D47,2,A*%
%TO.N,MATRIX_B*%
X31950000Y5075000D03*
%TD*%
D11*
%TO.P,D19,1,K*%
%TO.N,MATRIX_G*%
X29800000Y25125000D03*
%TO.P,D19,2,A*%
%TO.N,MATRIX_B*%
X29800000Y27000000D03*
%TD*%
%TO.P,D52,1,K*%
%TO.N,MATRIX_F*%
X38500000Y20937500D03*
%TO.P,D52,2,A*%
%TO.N,MATRIX_D*%
X38500000Y22812500D03*
%TD*%
%TO.P,D120,1,K*%
%TO.N,MATRIX_A*%
X53900000Y1125000D03*
%TO.P,D120,2,A*%
%TO.N,MATRIX_H*%
X53900000Y3000000D03*
%TD*%
%TO.P,D104,1,K*%
%TO.N,MATRIX_A*%
X49500000Y1125000D03*
%TO.P,D104,2,A*%
%TO.N,MATRIX_G*%
X49500000Y3000000D03*
%TD*%
D24*
%TO.P,U2,1,GND*%
%TO.N,GND*%
X8500000Y25150000D03*
D25*
%TO.P,U2,2,VO*%
%TO.N,+3V3*%
X6200000Y18850000D03*
D24*
X6200000Y25150000D03*
%TO.P,U2,3,VI*%
%TO.N,+5V*%
X3900000Y25150000D03*
%TD*%
D11*
%TO.P,D83,1,K*%
%TO.N,MATRIX_G*%
X47400000Y25062500D03*
%TO.P,D83,2,A*%
%TO.N,MATRIX_F*%
X47400000Y26937500D03*
%TD*%
%TO.P,D98,1,K*%
%TO.N,MATRIX_H*%
X51800000Y28862500D03*
%TO.P,D98,2,A*%
%TO.N,MATRIX_G*%
X51800000Y30737500D03*
%TD*%
%TO.P,D53,1,K*%
%TO.N,MATRIX_E*%
X38500000Y17162500D03*
%TO.P,D53,2,A*%
%TO.N,MATRIX_D*%
X38500000Y19037500D03*
%TD*%
%TO.P,D21,1,K*%
%TO.N,MATRIX_E*%
X29700000Y17037500D03*
%TO.P,D21,2,A*%
%TO.N,MATRIX_B*%
X29700000Y18912500D03*
%TD*%
%TO.P,D40,1,K*%
%TO.N,MATRIX_A*%
X31900000Y1125000D03*
%TO.P,D40,2,A*%
%TO.N,MATRIX_C*%
X31900000Y3000000D03*
%TD*%
%TO.P,D49,1,K*%
%TO.N,MATRIX_I*%
X38600000Y33062500D03*
%TO.P,D49,2,A*%
%TO.N,MATRIX_D*%
X38600000Y34937500D03*
%TD*%
D10*
%TO.P,D63,1,K*%
%TO.N,MATRIX_D*%
X36350000Y6950000D03*
%TO.P,D63,2,A*%
%TO.N,MATRIX_B*%
X36350000Y5075000D03*
%TD*%
D11*
%TO.P,D34,1,K*%
%TO.N,MATRIX_H*%
X34200000Y29000000D03*
%TO.P,D34,2,A*%
%TO.N,MATRIX_C*%
X34200000Y30875000D03*
%TD*%
%TO.P,D24,1,K*%
%TO.N,MATRIX_A*%
X27500000Y1175000D03*
%TO.P,D24,2,A*%
%TO.N,MATRIX_B*%
X27500000Y3050000D03*
%TD*%
D10*
%TO.P,D25,1,K*%
%TO.N,MATRIX_B*%
X32000000Y34937500D03*
%TO.P,D25,2,A*%
%TO.N,MATRIX_I*%
X32000000Y33062500D03*
%TD*%
D12*
%TO.P,R3,1*%
%TO.N,MATRIX_E*%
X20512500Y17000000D03*
%TO.P,R3,2*%
%TO.N,Net-(R3-Pad2)*%
X18687500Y17000000D03*
%TD*%
D11*
%TO.P,D86,1,K*%
%TO.N,MATRIX_C*%
X42900000Y9150000D03*
%TO.P,D86,2,A*%
%TO.N,MATRIX_F*%
X42900000Y11025000D03*
%TD*%
D23*
%TO.P,REF\u002A\u002A,*%
%TO.N,*%
X22200000Y35600000D03*
X22200000Y35600000D03*
%TD*%
D10*
%TO.P,D96,1,K*%
%TO.N,MATRIX_F*%
X42900000Y2937500D03*
%TO.P,D96,2,A*%
%TO.N,MATRIX_A*%
X42900000Y1062500D03*
%TD*%
D11*
%TO.P,D36,1,K*%
%TO.N,MATRIX_F*%
X34100000Y20937500D03*
%TO.P,D36,2,A*%
%TO.N,MATRIX_C*%
X34100000Y22812500D03*
%TD*%
D21*
%TO.P,R7,1*%
%TO.N,Net-(R7-Pad1)*%
X18775000Y13000000D03*
%TO.P,R7,2*%
%TO.N,MATRIX_D*%
X20600000Y13000000D03*
%TD*%
D11*
%TO.P,D66,1,K*%
%TO.N,MATRIX_H*%
X43000000Y28900000D03*
%TO.P,D66,2,A*%
%TO.N,MATRIX_E*%
X43000000Y30775000D03*
%TD*%
D13*
%TO.P,C3,1*%
%TO.N,ATTINY_VCC*%
X1800000Y12950000D03*
%TO.P,C3,2*%
%TO.N,GND*%
X1800000Y11050000D03*
%TD*%
D10*
%TO.P,D42,1,K*%
%TO.N,MATRIX_C*%
X36400000Y30837500D03*
%TO.P,D42,2,A*%
%TO.N,MATRIX_H*%
X36400000Y28962500D03*
%TD*%
%TO.P,D62,1,K*%
%TO.N,MATRIX_D*%
X36350000Y11000000D03*
%TO.P,D62,2,A*%
%TO.N,MATRIX_C*%
X36350000Y9125000D03*
%TD*%
D12*
%TO.P,R6,1*%
%TO.N,MATRIX_C*%
X20712500Y8800000D03*
%TO.P,R6,2*%
%TO.N,Net-(R6-Pad2)*%
X18887500Y8800000D03*
%TD*%
D11*
%TO.P,D6,1,K*%
%TO.N,MATRIX_D*%
X25300000Y13062500D03*
%TO.P,D6,2,A*%
%TO.N,MATRIX_A*%
X25300000Y14937500D03*
%TD*%
D10*
%TO.P,D73,1,K*%
%TO.N,MATRIX_E*%
X45200000Y34862500D03*
%TO.P,D73,2,A*%
%TO.N,MATRIX_I*%
X45200000Y32987500D03*
%TD*%
D11*
%TO.P,D33,1,K*%
%TO.N,MATRIX_I*%
X34200000Y33125000D03*
%TO.P,D33,2,A*%
%TO.N,MATRIX_C*%
X34200000Y35000000D03*
%TD*%
D10*
%TO.P,D59,1,K*%
%TO.N,MATRIX_D*%
X40800000Y26900000D03*
%TO.P,D59,2,A*%
%TO.N,MATRIX_G*%
X40800000Y25025000D03*
%TD*%
D11*
%TO.P,D81,1,K*%
%TO.N,MATRIX_I*%
X47400000Y32987500D03*
%TO.P,D81,2,A*%
%TO.N,MATRIX_F*%
X47400000Y34862500D03*
%TD*%
%TO.P,D131,1,K*%
%TO.N,MATRIX_F*%
X56100000Y20900000D03*
%TO.P,D131,2,A*%
%TO.N,MATRIX_I*%
X56100000Y22775000D03*
%TD*%
D10*
%TO.P,D110,1,K*%
%TO.N,MATRIX_G*%
X49550000Y11000000D03*
%TO.P,D110,2,A*%
%TO.N,MATRIX_C*%
X49550000Y9125000D03*
%TD*%
%TO.P,D94,1,K*%
%TO.N,MATRIX_F*%
X45100000Y11000000D03*
%TO.P,D94,2,A*%
%TO.N,MATRIX_C*%
X45100000Y9125000D03*
%TD*%
D11*
%TO.P,D84,1,K*%
%TO.N,MATRIX_E*%
X42900000Y17100000D03*
%TO.P,D84,2,A*%
%TO.N,MATRIX_F*%
X42900000Y18975000D03*
%TD*%
%TO.P,D130,1,K*%
%TO.N,MATRIX_G*%
X56200000Y25062500D03*
%TO.P,D130,2,A*%
%TO.N,MATRIX_I*%
X56200000Y26937500D03*
%TD*%
D10*
%TO.P,D11,1,K*%
%TO.N,MATRIX_A*%
X27600000Y26937500D03*
%TO.P,D11,2,A*%
%TO.N,MATRIX_G*%
X27600000Y25062500D03*
%TD*%
D11*
%TO.P,D55,1,K*%
%TO.N,MATRIX_B*%
X34150000Y5100000D03*
%TO.P,D55,2,A*%
%TO.N,MATRIX_D*%
X34150000Y6975000D03*
%TD*%
D10*
%TO.P,D91,1,K*%
%TO.N,MATRIX_F*%
X49600000Y26900000D03*
%TO.P,D91,2,A*%
%TO.N,MATRIX_G*%
X49600000Y25025000D03*
%TD*%
D11*
%TO.P,D82,1,K*%
%TO.N,MATRIX_H*%
X47400000Y28900000D03*
%TO.P,D82,2,A*%
%TO.N,MATRIX_F*%
X47400000Y30775000D03*
%TD*%
D10*
%TO.P,D106,1,K*%
%TO.N,MATRIX_G*%
X54000000Y30737500D03*
%TO.P,D106,2,A*%
%TO.N,MATRIX_H*%
X54000000Y28862500D03*
%TD*%
D12*
%TO.P,R5,1*%
%TO.N,MATRIX_A*%
X20800000Y1600000D03*
%TO.P,R5,2*%
%TO.N,Net-(R5-Pad2)*%
X18975000Y1600000D03*
%TD*%
D11*
%TO.P,D97,1,K*%
%TO.N,MATRIX_I*%
X51800000Y33062500D03*
%TO.P,D97,2,A*%
%TO.N,MATRIX_G*%
X51800000Y34937500D03*
%TD*%
D10*
%TO.P,D93,1,K*%
%TO.N,MATRIX_F*%
X45150000Y14975000D03*
%TO.P,D93,2,A*%
%TO.N,MATRIX_D*%
X45150000Y13100000D03*
%TD*%
D18*
%TO.P,C5,1*%
%TO.N,+3V3*%
X6450000Y27600000D03*
%TO.P,C5,2*%
%TO.N,GND*%
X8350000Y27600000D03*
%TD*%
D11*
%TO.P,D99,1,K*%
%TO.N,MATRIX_F*%
X47300000Y20837500D03*
%TO.P,D99,2,A*%
%TO.N,MATRIX_G*%
X47300000Y22712500D03*
%TD*%
D10*
%TO.P,D64,1,K*%
%TO.N,MATRIX_D*%
X34100000Y2937500D03*
%TO.P,D64,2,A*%
%TO.N,MATRIX_A*%
X34100000Y1062500D03*
%TD*%
%TO.P,D13,1,K*%
%TO.N,MATRIX_A*%
X27500000Y18937500D03*
%TO.P,D13,2,A*%
%TO.N,MATRIX_E*%
X27500000Y17062500D03*
%TD*%
D11*
%TO.P,D85,1,K*%
%TO.N,MATRIX_D*%
X42900000Y13100000D03*
%TO.P,D85,2,A*%
%TO.N,MATRIX_F*%
X42900000Y14975000D03*
%TD*%
%TO.P,D88,1,K*%
%TO.N,MATRIX_A*%
X45100000Y1125000D03*
%TO.P,D88,2,A*%
%TO.N,MATRIX_F*%
X45100000Y3000000D03*
%TD*%
%TO.P,D39,1,K*%
%TO.N,MATRIX_B*%
X29700000Y5100000D03*
%TO.P,D39,2,A*%
%TO.N,MATRIX_C*%
X29700000Y6975000D03*
%TD*%
%TO.P,D133,1,K*%
%TO.N,MATRIX_D*%
X56100000Y13100000D03*
%TO.P,D133,2,A*%
%TO.N,MATRIX_I*%
X56100000Y14975000D03*
%TD*%
D10*
%TO.P,D112,1,K*%
%TO.N,MATRIX_G*%
X47300000Y3000000D03*
%TO.P,D112,2,A*%
%TO.N,MATRIX_A*%
X47300000Y1125000D03*
%TD*%
D23*
%TO.P,REF\u002A\u002A,*%
%TO.N,*%
X60200000Y35800000D03*
%TD*%
D11*
%TO.P,D70,1,K*%
%TO.N,MATRIX_C*%
X38550000Y9150000D03*
%TO.P,D70,2,A*%
%TO.N,MATRIX_E*%
X38550000Y11025000D03*
%TD*%
D17*
%TO.P,C4,1*%
%TO.N,ATTINY_VCC*%
X1800000Y14700000D03*
%TO.P,C4,2*%
%TO.N,GND*%
X1800000Y16600000D03*
%TD*%
D11*
%TO.P,D132,1,K*%
%TO.N,MATRIX_E*%
X56100000Y17100000D03*
%TO.P,D132,2,A*%
%TO.N,MATRIX_I*%
X56100000Y18975000D03*
%TD*%
D10*
%TO.P,D107,1,K*%
%TO.N,MATRIX_G*%
X49500000Y22737500D03*
%TO.P,D107,2,A*%
%TO.N,MATRIX_F*%
X49500000Y20862500D03*
%TD*%
%TO.P,D44,1,K*%
%TO.N,MATRIX_C*%
X36300000Y22737500D03*
%TO.P,D44,2,A*%
%TO.N,MATRIX_F*%
X36300000Y20862500D03*
%TD*%
%TO.P,D58,1,K*%
%TO.N,MATRIX_D*%
X40800000Y30800000D03*
%TO.P,D58,2,A*%
%TO.N,MATRIX_H*%
X40800000Y28925000D03*
%TD*%
D12*
%TO.P,R4,1*%
%TO.N,MATRIX_G*%
X20512500Y25200000D03*
%TO.P,R4,2*%
%TO.N,Net-(R4-Pad2)*%
X18687500Y25200000D03*
%TD*%
D11*
%TO.P,D5,1,K*%
%TO.N,MATRIX_E*%
X25300000Y17062500D03*
%TO.P,D5,2,A*%
%TO.N,MATRIX_A*%
X25300000Y18937500D03*
%TD*%
D10*
%TO.P,D76,1,K*%
%TO.N,MATRIX_E*%
X45100000Y22737500D03*
%TO.P,D76,2,A*%
%TO.N,MATRIX_F*%
X45100000Y20862500D03*
%TD*%
%TO.P,D75,1,K*%
%TO.N,MATRIX_E*%
X45200000Y26900000D03*
%TO.P,D75,2,A*%
%TO.N,MATRIX_G*%
X45200000Y25025000D03*
%TD*%
D11*
%TO.P,D22,1,K*%
%TO.N,MATRIX_D*%
X29700000Y13100000D03*
%TO.P,D22,2,A*%
%TO.N,MATRIX_B*%
X29700000Y14975000D03*
%TD*%
%TO.P,D3,1,K*%
%TO.N,MATRIX_G*%
X25400000Y25162500D03*
%TO.P,D3,2,A*%
%TO.N,MATRIX_A*%
X25400000Y27037500D03*
%TD*%
%TO.P,D37,1,K*%
%TO.N,MATRIX_E*%
X34100000Y17100000D03*
%TO.P,D37,2,A*%
%TO.N,MATRIX_C*%
X34100000Y18975000D03*
%TD*%
%TO.P,D69,1,K*%
%TO.N,MATRIX_D*%
X38500000Y13112500D03*
%TO.P,D69,2,A*%
%TO.N,MATRIX_E*%
X38500000Y14987500D03*
%TD*%
D26*
%TO.N,+5V*%
X800000Y29800000D03*
X3800000Y26800000D03*
%TO.N,GND*%
X1800000Y9800000D03*
X8400000Y23600000D03*
X2400000Y19200000D03*
X10200000Y25200000D03*
X12200000Y13000000D03*
X1399500Y18000000D03*
%TO.N,MATRIX_I*%
X21800000Y33200000D03*
X24400000Y33200000D03*
D27*
%TO.N,MATRIX_H*%
X57400000Y28400000D03*
D26*
X24200000Y29000000D03*
D27*
X52800000Y16000000D03*
D26*
X21800000Y29000000D03*
D27*
X53188876Y19762633D03*
X58400000Y35800000D03*
X52800000Y12000000D03*
X52800000Y8000000D03*
X55397961Y23995144D03*
X55200000Y4000000D03*
D26*
%TO.N,MATRIX_G*%
X24200000Y25200000D03*
D27*
X52800000Y24000000D03*
X53000000Y31600000D03*
X54000000Y35800000D03*
X48400000Y16000000D03*
X50600255Y19999755D03*
D26*
X21800000Y25200000D03*
D27*
X48400000Y3400000D03*
X48600000Y8000000D03*
X48600000Y12000000D03*
%TO.N,MATRIX_F*%
X44800000Y15888000D03*
X48400000Y20400000D03*
X48600000Y31800000D03*
X49600000Y35800000D03*
X44000000Y12000000D03*
D26*
X21800000Y21000000D03*
D27*
X48600000Y27800000D03*
X44200000Y3600000D03*
D26*
X24200000Y21000000D03*
D27*
X44000000Y8000000D03*
%TO.N,MATRIX_E*%
X44200000Y31600000D03*
D26*
X21800000Y17000000D03*
D27*
X44400000Y27800000D03*
X39800000Y7800000D03*
X45200000Y35800000D03*
X44200000Y23600000D03*
D26*
X24200000Y17000000D03*
D27*
X39600000Y12000000D03*
X43406194Y16110603D03*
X39800000Y3800000D03*
%TO.N,MATRIX_D*%
X36400000Y12000000D03*
X40800000Y35800000D03*
X39800000Y31800000D03*
X39800000Y23800000D03*
D26*
X24200000Y13000000D03*
D27*
X35400000Y7800000D03*
X36400000Y3800000D03*
X39800000Y27800000D03*
X39600000Y19800000D03*
D26*
X21800000Y13000000D03*
D27*
%TO.N,MATRIX_C*%
X35400000Y15800000D03*
X36400000Y31600000D03*
X32600000Y8200000D03*
D26*
X21800000Y9000000D03*
D27*
X35200000Y23600000D03*
X30800000Y3400000D03*
D26*
X24200000Y9000000D03*
D27*
X35200000Y19600000D03*
X36400000Y35800000D03*
X36400000Y27600000D03*
%TO.N,MATRIX_B*%
X32000000Y11800000D03*
X32000000Y35800000D03*
D26*
X24200000Y5000000D03*
D27*
X32000000Y19600000D03*
X29800000Y4400000D03*
X32000000Y31600000D03*
X32000000Y27800000D03*
X32000000Y23600000D03*
X32000000Y15800000D03*
D26*
X22000000Y5000000D03*
%TO.N,Net-(R1-Pad2)*%
X15400000Y2600000D03*
X16400000Y28800000D03*
%TO.N,Net-(R2-Pad2)*%
X17400000Y32200000D03*
X15200000Y4000000D03*
%TO.N,Net-(R3-Pad2)*%
X10799500Y12868490D03*
X11400000Y15200000D03*
%TO.N,Net-(R4-Pad2)*%
X9000000Y8000000D03*
X11000000Y20000000D03*
%TO.N,Net-(R8-Pad1)*%
X9999500Y10468490D03*
X11600000Y17000000D03*
%TO.N,CLK_OUT*%
X5600000Y6600000D03*
%TO.N,PB4*%
X5800000Y5200000D03*
%TO.N,I2C_SCL*%
X9200000Y1400000D03*
X19800000Y34200000D03*
%TO.N,I2C_SDA*%
X16400000Y1699000D03*
X14000000Y31400000D03*
X18200000Y30800000D03*
X11200000Y32200000D03*
%TO.N,PC2*%
X12400000Y5200000D03*
%TO.N,PC3*%
X12400000Y6600000D03*
%TO.N,UPDI{slash}RST*%
X11800000Y9600000D03*
%TD*%
D28*
%TO.N,+5V*%
X1800000Y23600000D02*
X3400000Y23600000D01*
D29*
X3800000Y26800000D02*
X3800000Y25250000D01*
D28*
X3700489Y24950489D02*
X3900000Y25150000D01*
D29*
X3800000Y25250000D02*
X3900000Y25150000D01*
D28*
X3400000Y23600000D02*
X3700489Y23299511D01*
X3700489Y17299511D02*
X3700489Y23299511D01*
X3700489Y23299511D02*
X3700489Y24950489D01*
X4300000Y16700000D02*
X3700489Y17299511D01*
X1800000Y24650000D02*
X1800000Y23600000D01*
D29*
X5260000Y34600000D02*
X800000Y30140000D01*
X800000Y30140000D02*
X800000Y29800000D01*
D28*
X4300000Y15800000D02*
X4300000Y16700000D01*
X1800000Y23600000D02*
X1800000Y22550000D01*
%TO.N,GND*%
X1800000Y19200000D02*
X1800000Y16600000D01*
X8350000Y29800000D02*
X8350000Y27600000D01*
X1800000Y19200000D02*
X2400000Y19200000D01*
X14015000Y33422919D02*
X10392081Y29800000D01*
X6976402Y31200000D02*
X8350000Y29826402D01*
X6976402Y31200000D02*
X7800000Y32023598D01*
X1399500Y18000000D02*
X1399500Y20249500D01*
X8350000Y29826402D02*
X8350000Y29800000D01*
X14015000Y33422919D02*
X14015000Y34225000D01*
X14015000Y34225000D02*
X13615000Y34625000D01*
X8550000Y25200000D02*
X8500000Y25150000D01*
X10392081Y29800000D02*
X8350000Y29800000D01*
X8400000Y23600000D02*
X8400000Y25050000D01*
X1800000Y28000000D02*
X5000000Y31200000D01*
X13650000Y12915000D02*
X12285000Y12915000D01*
X5000000Y31200000D02*
X6976402Y31200000D01*
X1800000Y20650000D02*
X1800000Y19200000D01*
X1800000Y26550000D02*
X1800000Y28000000D01*
X8350000Y25300000D02*
X8500000Y25150000D01*
X1399500Y20249500D02*
X1800000Y20650000D01*
X10200000Y25200000D02*
X8550000Y25200000D01*
X7800000Y32023598D02*
X7800000Y34600000D01*
X12285000Y12915000D02*
X12200000Y13000000D01*
X1800000Y11050000D02*
X1800000Y9800000D01*
X8350000Y27600000D02*
X8350000Y25300000D01*
X8400000Y25050000D02*
X8500000Y25150000D01*
%TO.N,ATTINY_VCC*%
X4915000Y12915000D02*
X5600000Y13600000D01*
X4350000Y12915000D02*
X4915000Y12915000D01*
X4315000Y12950000D02*
X4350000Y12915000D01*
X1800000Y12950000D02*
X4315000Y12950000D01*
X5600000Y13600000D02*
X5600000Y15800000D01*
X1800000Y14700000D02*
X1800000Y12950000D01*
%TO.N,+3V3*%
X6450000Y27600000D02*
X6450000Y25400000D01*
X6450000Y29800000D02*
X6450000Y27600000D01*
X6200000Y17800000D02*
X6900000Y17100000D01*
X6900000Y17100000D02*
X6900000Y15800000D01*
X6200000Y25150000D02*
X6200000Y18850000D01*
X6450000Y25400000D02*
X6200000Y25150000D01*
X6200000Y18850000D02*
X6200000Y17800000D01*
D29*
%TO.N,MATRIX_I*%
X25400000Y33062500D02*
X58325000Y33062500D01*
X60000000Y32400000D02*
X60000000Y27000000D01*
X58400000Y26875000D02*
X59875000Y26875000D01*
X20712500Y33200000D02*
X20512500Y33000000D01*
X59137500Y2937500D02*
X58200000Y2937500D01*
X58350000Y6975000D02*
X56112500Y6975000D01*
X60000000Y11000000D02*
X60000000Y7200000D01*
X58325000Y33062500D02*
X58400000Y32987500D01*
X59775000Y6975000D02*
X60000000Y7200000D01*
X24400000Y33200000D02*
X25262500Y33200000D01*
X58350000Y6975000D02*
X59775000Y6975000D01*
X56100000Y2937500D02*
X58200000Y2937500D01*
X56100000Y22775000D02*
X58262500Y22775000D01*
X58262500Y22775000D02*
X58300000Y22737500D01*
X59875000Y26875000D02*
X60000000Y27000000D01*
X58275000Y18975000D02*
X58300000Y19000000D01*
X58300000Y11000000D02*
X60000000Y11000000D01*
X58300000Y14937500D02*
X59937500Y14937500D01*
X59937500Y14937500D02*
X60000000Y15000000D01*
X59800000Y19000000D02*
X60000000Y18800000D01*
X56200000Y26937500D02*
X58337500Y26937500D01*
X25262500Y33200000D02*
X25400000Y33062500D01*
X58300000Y19000000D02*
X59800000Y19000000D01*
X59862500Y22737500D02*
X60000000Y22600000D01*
X56100000Y11025000D02*
X58275000Y11025000D01*
X60000000Y7200000D02*
X60000000Y3800000D01*
X56275000Y30700000D02*
X56200000Y30775000D01*
X56100000Y18975000D02*
X58275000Y18975000D01*
X56200000Y30775000D02*
X56200000Y32962500D01*
X59412500Y32987500D02*
X60000000Y32400000D01*
X60000000Y27000000D02*
X60000000Y22600000D01*
X58275000Y11025000D02*
X58300000Y11000000D01*
X60000000Y3800000D02*
X59137500Y2937500D01*
X21800000Y33200000D02*
X20712500Y33200000D01*
X60000000Y15000000D02*
X60000000Y11000000D01*
X56100000Y14975000D02*
X58262500Y14975000D01*
X58262500Y14975000D02*
X58300000Y14937500D01*
X58400000Y30700000D02*
X56275000Y30700000D01*
X60000000Y22600000D02*
X60000000Y18800000D01*
X58337500Y26937500D02*
X58400000Y26875000D01*
X60000000Y18800000D02*
X60000000Y15000000D01*
X56112500Y6975000D02*
X56100000Y6987500D01*
X58300000Y22737500D02*
X59862500Y22737500D01*
X58400000Y32987500D02*
X59412500Y32987500D01*
%TO.N,MATRIX_A*%
X27500000Y22875000D02*
X23225000Y22875000D01*
X25400000Y34937500D02*
X27562500Y34937500D01*
X27500000Y10937500D02*
X23237500Y10937500D01*
X23200000Y30900000D02*
X23200000Y26900000D01*
X27600000Y30937500D02*
X23237500Y30937500D01*
X23200000Y22900000D02*
X23200000Y18900000D01*
X23237500Y26937500D02*
X23200000Y26900000D01*
X27600000Y26937500D02*
X23237500Y26937500D01*
X20800000Y1600000D02*
X21237500Y1162500D01*
X58200000Y1062500D02*
X25350000Y1062500D01*
X23200000Y10900000D02*
X23200000Y6900000D01*
X23237500Y1162500D02*
X23937500Y1162500D01*
X23237500Y30937500D02*
X23200000Y30900000D01*
X25300000Y6937500D02*
X27500000Y6937500D01*
X27500000Y18937500D02*
X23237500Y18937500D01*
X23200000Y34400000D02*
X23200000Y30900000D01*
X23237500Y14937500D02*
X23200000Y14900000D01*
X25400000Y34937500D02*
X23737500Y34937500D01*
X23200000Y14900000D02*
X23200000Y10900000D01*
X25300000Y6937500D02*
X23237500Y6937500D01*
X23237500Y6937500D02*
X23200000Y6900000D01*
X23237500Y18937500D02*
X23200000Y18900000D01*
X21237500Y1162500D02*
X23237500Y1162500D01*
X25350000Y1062500D02*
X25250000Y1162500D01*
X23737500Y34937500D02*
X23200000Y34400000D01*
X23200000Y18900000D02*
X23200000Y14900000D01*
X23200000Y26900000D02*
X23200000Y22900000D01*
X23237500Y1862500D02*
X23237500Y1162500D01*
X27562500Y34937500D02*
X27600000Y34900000D01*
X23237500Y10937500D02*
X23200000Y10900000D01*
X23200000Y6900000D02*
X23200000Y1900000D01*
X27500000Y14937500D02*
X23237500Y14937500D01*
X23937500Y1162500D02*
X25250000Y1162500D01*
X23200000Y1900000D02*
X23237500Y1862500D01*
X23225000Y22875000D02*
X23200000Y22900000D01*
%TO.N,MATRIX_H*%
X53837500Y2937500D02*
X53900000Y3000000D01*
X52737500Y26937500D02*
X53037500Y27237500D01*
X52975000Y18975000D02*
X52975000Y19548757D01*
X51700000Y2937500D02*
X53837500Y2937500D01*
X53875000Y14975000D02*
X53900000Y14950000D01*
X51700000Y7025000D02*
X52825000Y7025000D01*
X53037500Y27237500D02*
X53037500Y29062500D01*
X58375000Y34837500D02*
X58400000Y34862500D01*
X52825000Y14975000D02*
X53875000Y14975000D01*
X52637500Y11037500D02*
X52800000Y11200000D01*
X52975000Y19548757D02*
X53188876Y19762633D01*
X24262500Y29062500D02*
X24200000Y29000000D01*
X57300000Y28900000D02*
X58325000Y28900000D01*
X57300000Y28500000D02*
X57400000Y28400000D01*
X51700000Y18975000D02*
X52975000Y18975000D01*
X52825000Y15975000D02*
X52800000Y16000000D01*
X56200000Y28900000D02*
X57300000Y28900000D01*
X51837500Y26937500D02*
X51800000Y26975000D01*
X53900000Y3000000D02*
X54200000Y3000000D01*
X52637500Y11037500D02*
X53862500Y11037500D01*
X52825000Y7025000D02*
X53875000Y7025000D01*
X52975000Y18975000D02*
X53825000Y18975000D01*
X51700000Y14975000D02*
X52825000Y14975000D01*
X51737500Y22737500D02*
X51700000Y22775000D01*
X58325000Y28900000D02*
X58400000Y28825000D01*
X58400000Y34862500D02*
X58400000Y35800000D01*
X21800000Y29000000D02*
X20512500Y29000000D01*
X57300000Y28900000D02*
X57300000Y28500000D01*
X54000000Y26937500D02*
X52737500Y26937500D01*
X56200000Y34837500D02*
X58375000Y34837500D01*
X53900000Y22737500D02*
X51737500Y22737500D01*
X53900000Y22737500D02*
X54140317Y22737500D01*
X25350000Y29062500D02*
X24262500Y29062500D01*
X54200000Y3000000D02*
X55200000Y4000000D01*
X53037500Y29062500D02*
X58162500Y29062500D01*
X53825000Y18975000D02*
X53900000Y18900000D01*
X25350000Y29062500D02*
X53037500Y29062500D01*
X53862500Y11037500D02*
X53900000Y11000000D01*
X52737500Y26937500D02*
X51837500Y26937500D01*
X53875000Y7025000D02*
X53900000Y7000000D01*
X58162500Y29062500D02*
X58400000Y28825000D01*
X54140317Y22737500D02*
X55397961Y23995144D01*
X52800000Y11200000D02*
X52800000Y12000000D01*
X52825000Y7025000D02*
X52825000Y7975000D01*
X52825000Y14975000D02*
X52825000Y15975000D01*
X52825000Y7975000D02*
X52800000Y8000000D01*
X51700000Y11037500D02*
X52637500Y11037500D01*
%TO.N,MATRIX_G*%
X48575000Y11025000D02*
X48575000Y11975000D01*
X51800000Y30737500D02*
X53137500Y30737500D01*
X48375000Y14975000D02*
X48375000Y15975000D01*
X48362500Y22737500D02*
X48437500Y22812500D01*
X47300000Y3000000D02*
X48400000Y3000000D01*
X48437500Y24037500D02*
X52762500Y24037500D01*
X24237500Y25162500D02*
X24200000Y25200000D01*
X49500500Y18900000D02*
X50600255Y19999755D01*
X47350000Y11025000D02*
X48575000Y11025000D01*
X25400000Y25162500D02*
X24237500Y25162500D01*
X49500000Y18900000D02*
X49500500Y18900000D01*
X48562500Y7962500D02*
X48600000Y8000000D01*
X48400000Y3400000D02*
X48400000Y3000000D01*
X47300000Y18975000D02*
X49425000Y18975000D01*
X52762500Y24037500D02*
X52800000Y24000000D01*
X21800000Y25200000D02*
X20512500Y25200000D01*
X47350000Y14975000D02*
X48375000Y14975000D01*
X49500000Y22737500D02*
X48362500Y22737500D01*
X49425000Y18975000D02*
X49500000Y18900000D01*
X48437500Y25162500D02*
X58237500Y25162500D01*
X48362500Y22737500D02*
X47325000Y22737500D01*
X49525000Y11025000D02*
X49550000Y11000000D01*
X54000000Y34862500D02*
X54000000Y35800000D01*
X47325000Y22737500D02*
X47300000Y22712500D01*
X51800000Y34937500D02*
X53925000Y34937500D01*
X58237500Y25162500D02*
X58400000Y25000000D01*
X53137500Y30737500D02*
X53137500Y31462500D01*
X48400000Y3000000D02*
X49500000Y3000000D01*
X48575000Y11025000D02*
X49525000Y11025000D01*
X48562500Y7037500D02*
X49500000Y7037500D01*
X25400000Y25162500D02*
X48437500Y25162500D01*
X48375000Y15975000D02*
X48400000Y16000000D01*
X48437500Y24037500D02*
X48437500Y25162500D01*
X48375000Y14975000D02*
X49525000Y14975000D01*
X53137500Y31462500D02*
X53000000Y31600000D01*
X48562500Y7037500D02*
X48562500Y7962500D01*
X49525000Y14975000D02*
X49550000Y14950000D01*
X47350000Y7037500D02*
X48562500Y7037500D01*
X48437500Y22812500D02*
X48437500Y24037500D01*
X53925000Y34937500D02*
X54000000Y34862500D01*
X49500000Y7037500D02*
X49550000Y6987500D01*
X48575000Y11975000D02*
X48600000Y12000000D01*
X53137500Y30737500D02*
X54000000Y30737500D01*
%TO.N,MATRIX_F*%
X42900000Y14975000D02*
X45150000Y14975000D01*
X43975000Y11975000D02*
X44000000Y12000000D01*
X44137500Y2937500D02*
X45037500Y2937500D01*
X45025000Y18975000D02*
X45100000Y18900000D01*
X49562500Y26937500D02*
X49600000Y26900000D01*
X45150000Y15538000D02*
X44800000Y15888000D01*
X44037500Y21062500D02*
X48337500Y21062500D01*
X44000000Y7000000D02*
X44000000Y8000000D01*
X25300000Y21062500D02*
X24262500Y21062500D01*
X48337500Y21062500D02*
X48337500Y20462500D01*
X48537500Y27737500D02*
X48600000Y27800000D01*
X45150000Y14975000D02*
X45150000Y15538000D01*
X44125000Y18975000D02*
X45025000Y18975000D01*
X49600000Y34862500D02*
X49600000Y35800000D01*
X42900000Y2937500D02*
X44137500Y2937500D01*
X44137500Y3537500D02*
X44200000Y3600000D01*
X48575000Y31775000D02*
X48600000Y31800000D01*
X49562500Y30775000D02*
X49600000Y30737500D01*
X48575000Y30775000D02*
X49562500Y30775000D01*
X48537500Y26937500D02*
X48537500Y27737500D01*
X24262500Y21062500D02*
X24200000Y21000000D01*
X42900000Y7000000D02*
X44000000Y7000000D01*
X42900000Y18975000D02*
X44125000Y18975000D01*
X45037500Y2937500D02*
X45100000Y3000000D01*
X45075000Y11025000D02*
X45100000Y11000000D01*
X48537500Y26937500D02*
X49562500Y26937500D01*
X44125000Y20975000D02*
X44037500Y21062500D01*
X48337500Y20462500D02*
X48400000Y20400000D01*
X47400000Y26937500D02*
X48537500Y26937500D01*
X42900000Y11025000D02*
X43975000Y11025000D01*
X21800000Y21000000D02*
X20512500Y21000000D01*
X47400000Y30775000D02*
X48575000Y30775000D01*
X48575000Y30775000D02*
X48575000Y31775000D01*
X47400000Y34862500D02*
X49600000Y34862500D01*
X44125000Y18975000D02*
X44125000Y20975000D01*
X58100000Y21062500D02*
X58300000Y20862500D01*
X44000000Y7000000D02*
X45100000Y7000000D01*
X43975000Y11025000D02*
X45075000Y11025000D01*
X43975000Y11025000D02*
X43975000Y11975000D01*
X48337500Y21062500D02*
X58100000Y21062500D01*
X25300000Y21062500D02*
X44037500Y21062500D01*
X44137500Y2937500D02*
X44137500Y3537500D01*
%TO.N,MATRIX_E*%
X39600000Y11050000D02*
X39600000Y12000000D01*
X39625000Y11025000D02*
X40725000Y11025000D01*
X39800000Y3000000D02*
X39800000Y3800000D01*
X40725000Y11025000D02*
X40750000Y11000000D01*
X44287500Y23512500D02*
X44200000Y23600000D01*
X44287500Y22712500D02*
X45075000Y22712500D01*
X43000000Y26875000D02*
X44325000Y26875000D01*
X40725000Y7000000D02*
X40750000Y6975000D01*
X38500000Y3000000D02*
X39800000Y3000000D01*
X45175000Y26875000D02*
X45200000Y26900000D01*
X40910603Y16110603D02*
X43406194Y16110603D01*
X45075000Y22712500D02*
X45100000Y22737500D01*
X39800000Y7000000D02*
X40725000Y7000000D01*
X38550000Y7000000D02*
X39800000Y7000000D01*
X40700000Y15900000D02*
X40700000Y17125000D01*
X38550000Y11025000D02*
X39625000Y11025000D01*
X44325000Y26875000D02*
X44325000Y27725000D01*
X44175000Y30775000D02*
X44175000Y31575000D01*
X40700000Y14937500D02*
X40700000Y15900000D01*
X44175000Y31575000D02*
X44200000Y31600000D01*
X44325000Y27725000D02*
X44400000Y27800000D01*
X43000000Y30775000D02*
X44175000Y30775000D01*
X43000000Y34862500D02*
X45200000Y34862500D01*
X25300000Y17062500D02*
X24262500Y17062500D01*
X45200000Y34862500D02*
X45200000Y35800000D01*
X24262500Y17062500D02*
X24200000Y17000000D01*
X45175000Y30775000D02*
X45200000Y30800000D01*
X25300000Y17062500D02*
X58237500Y17062500D01*
X39800000Y3000000D02*
X40700000Y3000000D01*
X39800000Y7000000D02*
X39800000Y7800000D01*
X42900000Y22712500D02*
X44287500Y22712500D01*
X44287500Y22712500D02*
X44287500Y23512500D01*
X44325000Y26875000D02*
X45175000Y26875000D01*
X39625000Y11025000D02*
X39600000Y11050000D01*
X44175000Y30775000D02*
X45175000Y30775000D01*
X40700000Y15900000D02*
X40910603Y16110603D01*
X58237500Y17062500D02*
X58300000Y17125000D01*
X38500000Y14987500D02*
X40287500Y14987500D01*
X21800000Y17000000D02*
X20512500Y17000000D01*
%TO.N,MATRIX_D*%
X40725000Y30875000D02*
X40800000Y30800000D01*
X39787500Y23787500D02*
X39800000Y23800000D01*
X40762500Y34937500D02*
X40800000Y34900000D01*
X39787500Y22812500D02*
X39787500Y23787500D01*
X38500000Y22812500D02*
X39787500Y22812500D01*
X40762500Y26937500D02*
X40800000Y26900000D01*
X38600000Y34937500D02*
X40762500Y34937500D01*
X38500000Y19037500D02*
X39437500Y19037500D01*
X21800000Y13000000D02*
X20600000Y13000000D01*
X39600000Y19200000D02*
X39600000Y19800000D01*
X39737500Y26937500D02*
X40762500Y26937500D01*
X36300000Y12100000D02*
X36400000Y12000000D01*
X36350000Y11000000D02*
X34125000Y11000000D01*
X25300000Y13062500D02*
X58300000Y13062500D01*
X35425000Y6975000D02*
X36325000Y6975000D01*
X25300000Y13062500D02*
X24262500Y13062500D01*
X39787500Y22812500D02*
X40625000Y22812500D01*
X39725000Y30875000D02*
X40725000Y30875000D01*
X35400000Y7000000D02*
X35400000Y7800000D01*
X39725000Y31725000D02*
X39800000Y31800000D01*
X39437500Y19037500D02*
X40662500Y19037500D01*
X36200000Y3800000D02*
X36400000Y3800000D01*
X35337500Y2937500D02*
X36237500Y2937500D01*
X39437500Y19037500D02*
X39600000Y19200000D01*
X39725000Y30875000D02*
X39725000Y31725000D01*
X24262500Y13062500D02*
X24200000Y13000000D01*
X34100000Y12100000D02*
X36300000Y12100000D01*
X40800000Y34900000D02*
X40800000Y35800000D01*
X40662500Y19037500D02*
X40700000Y19000000D01*
X34100000Y12100000D02*
X34100000Y13100000D01*
X34150000Y6975000D02*
X35425000Y6975000D01*
X34100000Y2937500D02*
X35337500Y2937500D01*
X36325000Y6975000D02*
X36350000Y6950000D01*
X34100000Y10975000D02*
X34100000Y12100000D01*
X34125000Y11000000D02*
X34100000Y10975000D01*
X36237500Y2937500D02*
X36300000Y3000000D01*
X39737500Y27737500D02*
X39800000Y27800000D01*
X38600000Y26937500D02*
X39737500Y26937500D01*
X39737500Y26937500D02*
X39737500Y27737500D01*
X35425000Y6975000D02*
X35400000Y7000000D01*
X38600000Y30875000D02*
X39725000Y30875000D01*
X40625000Y22812500D02*
X40700000Y22737500D01*
X35337500Y2937500D02*
X36200000Y3800000D01*
%TO.N,MATRIX_C*%
X36400000Y34962500D02*
X36400000Y35800000D01*
X32200000Y8200000D02*
X32600000Y8200000D01*
X35200000Y22825000D02*
X35200000Y23600000D01*
X34200000Y26975000D02*
X36362500Y26975000D01*
X35337500Y18937500D02*
X34137500Y18937500D01*
X31887500Y3012500D02*
X31900000Y3000000D01*
X35400000Y15000000D02*
X35400000Y15800000D01*
X31950000Y9025000D02*
X31900000Y9075000D01*
X34137500Y18937500D02*
X34100000Y18975000D01*
X35212500Y22812500D02*
X36225000Y22812500D01*
X35337500Y19462500D02*
X35200000Y19600000D01*
X36362500Y26975000D02*
X36400000Y26937500D01*
X58237500Y9062500D02*
X58300000Y9125000D01*
X20912500Y9000000D02*
X20712500Y8800000D01*
X34100000Y22812500D02*
X35212500Y22812500D01*
X35212500Y22812500D02*
X35200000Y22825000D01*
X30800000Y3400000D02*
X30787500Y3387500D01*
X31275000Y6975000D02*
X31950000Y7650000D01*
X35412500Y14987500D02*
X35400000Y15000000D01*
X31950000Y7650000D02*
X31950000Y8450000D01*
X31950000Y6950000D02*
X31950000Y7650000D01*
X36300000Y14987500D02*
X35412500Y14987500D01*
X36400000Y30837500D02*
X36400000Y31600000D01*
X36362500Y30875000D02*
X36400000Y30837500D01*
X25300000Y9062500D02*
X24262500Y9062500D01*
X30787500Y3387500D02*
X30787500Y3012500D01*
X36400000Y26937500D02*
X36400000Y27600000D01*
X34112500Y14987500D02*
X34100000Y14975000D01*
X25300000Y9062500D02*
X58237500Y9062500D01*
X24262500Y9062500D02*
X24200000Y9000000D01*
X29700000Y6975000D02*
X31275000Y6975000D01*
X35337500Y18937500D02*
X35337500Y19462500D01*
X34200000Y35000000D02*
X36362500Y35000000D01*
X21800000Y9000000D02*
X20912500Y9000000D01*
X36225000Y22812500D02*
X36300000Y22737500D01*
X36362500Y35000000D02*
X36400000Y34962500D01*
X36300000Y18937500D02*
X35337500Y18937500D01*
X31950000Y8450000D02*
X32200000Y8200000D01*
X34200000Y30875000D02*
X36362500Y30875000D01*
X35412500Y14987500D02*
X34112500Y14987500D01*
X31950000Y8450000D02*
X31950000Y9025000D01*
X29650000Y3012500D02*
X30787500Y3012500D01*
X30787500Y3012500D02*
X31887500Y3012500D01*
%TO.N,MATRIX_B*%
X25300000Y5062500D02*
X58312500Y5062500D01*
X24262500Y5062500D02*
X24200000Y5000000D01*
X31900000Y10950000D02*
X31900000Y11700000D01*
X25250000Y3037500D02*
X27487500Y3037500D01*
X29700000Y10975000D02*
X31875000Y10975000D01*
X29800000Y27000000D02*
X32000000Y27000000D01*
X31900000Y18900000D02*
X31900000Y19500000D01*
X25300000Y5062500D02*
X24262500Y5062500D01*
X27487500Y3037500D02*
X27500000Y3050000D01*
X29700000Y5100000D02*
X29700000Y4500000D01*
X31875000Y14975000D02*
X31900000Y14950000D01*
X58312500Y5062500D02*
X58350000Y5100000D01*
X31962500Y30937500D02*
X32000000Y30900000D01*
X31875000Y10975000D02*
X31900000Y10950000D01*
X32000000Y34937500D02*
X29800000Y34937500D01*
X22000000Y5000000D02*
X20712500Y5000000D01*
X31900000Y15700000D02*
X32000000Y15800000D01*
X32000000Y34937500D02*
X32000000Y35800000D01*
X27500000Y3050000D02*
X27500000Y5062500D01*
X32000000Y30900000D02*
X32000000Y31600000D01*
X31900000Y19500000D02*
X32000000Y19600000D01*
X31900000Y22837500D02*
X31900000Y23500000D01*
X29800000Y30937500D02*
X31962500Y30937500D01*
X32000000Y27000000D02*
X32000000Y27800000D01*
X29700000Y18912500D02*
X31887500Y18912500D01*
X31887500Y18912500D02*
X31900000Y18900000D01*
X29700000Y14975000D02*
X31875000Y14975000D01*
X29700000Y22912500D02*
X31825000Y22912500D01*
X31825000Y22912500D02*
X31900000Y22837500D01*
X31900000Y11700000D02*
X32000000Y11800000D01*
X31900000Y23500000D02*
X32000000Y23600000D01*
X31900000Y14950000D02*
X31900000Y15700000D01*
X29700000Y4500000D02*
X29800000Y4400000D01*
%TO.N,Net-(R1-Pad2)*%
X18487500Y28800000D02*
X18687500Y29000000D01*
X15245000Y2755000D02*
X15400000Y2600000D01*
X13650000Y2755000D02*
X15245000Y2755000D01*
X16400000Y28800000D02*
X18487500Y28800000D01*
%TO.N,Net-(R2-Pad2)*%
X15175000Y4025000D02*
X15200000Y4000000D01*
X13650000Y4025000D02*
X15175000Y4025000D01*
X17356250Y32200000D02*
X18643750Y32200000D01*
%TO.N,Net-(R3-Pad2)*%
X11400000Y15200000D02*
X16887500Y15200000D01*
X4350000Y10375000D02*
X8306010Y10375000D01*
X8306010Y10375000D02*
X10799500Y12868490D01*
X16887500Y15200000D02*
X18687500Y17000000D01*
%TO.N,Net-(R4-Pad2)*%
X16200000Y25200000D02*
X18687500Y25200000D01*
X8835000Y7835000D02*
X9000000Y8000000D01*
X11000000Y20000000D02*
X16200000Y25200000D01*
X4350000Y7835000D02*
X8835000Y7835000D01*
%TO.N,Net-(R5-Pad2)*%
X13650000Y9105000D02*
X15095000Y9105000D01*
X18975000Y1638509D02*
X18975000Y1600000D01*
X16000000Y4613509D02*
X18975000Y1638509D01*
X15095000Y9105000D02*
X16000000Y8200000D01*
X16000000Y8200000D02*
X16000000Y4613509D01*
%TO.N,Net-(R6-Pad2)*%
X15155000Y11645000D02*
X18000000Y8800000D01*
X18000000Y8800000D02*
X18887500Y8800000D01*
X13650000Y11645000D02*
X15155000Y11645000D01*
%TO.N,Net-(R7-Pad1)*%
X18775000Y13000000D02*
X17575000Y14200000D01*
X10400000Y14200000D02*
X7845000Y11645000D01*
X7845000Y11645000D02*
X4350000Y11645000D01*
X17575000Y14200000D02*
X10400000Y14200000D01*
%TO.N,Net-(R8-Pad1)*%
X15600000Y21000000D02*
X18687500Y21000000D01*
X4350000Y9105000D02*
X8636010Y9105000D01*
X8636010Y9105000D02*
X9999500Y10468490D01*
X11600000Y17000000D02*
X15600000Y21000000D01*
%TO.N,Net-(R9-Pad1)*%
X15225000Y10375000D02*
X16800000Y8800000D01*
X18200000Y5000000D02*
X18887500Y5000000D01*
X13650000Y10375000D02*
X15225000Y10375000D01*
X16800000Y6400000D02*
X18200000Y5000000D01*
X16800000Y8800000D02*
X16800000Y6400000D01*
D30*
%TO.N,CLK_OUT*%
X4350000Y6565000D02*
X5565000Y6565000D01*
X5565000Y6565000D02*
X5600000Y6600000D01*
%TO.N,PB4*%
X5705000Y5295000D02*
X5800000Y5200000D01*
X4350000Y5295000D02*
X5705000Y5295000D01*
%TO.N,RXD*%
X2800000Y5042862D02*
X2800000Y5730000D01*
X3817862Y4025000D02*
X2800000Y5042862D01*
X4350000Y4025000D02*
X3817862Y4025000D01*
X2800000Y5730000D02*
X1575000Y6955000D01*
%TO.N,TXD*%
X4350000Y2755000D02*
X2455000Y2755000D01*
X2455000Y2755000D02*
X1575000Y1875000D01*
%TO.N,I2C_SCL*%
X4435000Y1400000D02*
X4350000Y1485000D01*
X19375000Y34625000D02*
X16155000Y34625000D01*
X19375000Y34625000D02*
X19800000Y34200000D01*
X9200000Y1400000D02*
X4435000Y1400000D01*
%TO.N,I2C_SDA*%
X11200000Y34350000D02*
X11475000Y34625000D01*
X18200000Y30800000D02*
X14600000Y30800000D01*
X13650000Y1485000D02*
X16186000Y1485000D01*
X14600000Y30800000D02*
X14000000Y31400000D01*
X11200000Y32200000D02*
X11200000Y34350000D01*
X11200000Y34500000D02*
X11075000Y34625000D01*
X11200000Y32200000D02*
X11200000Y34500000D01*
X16186000Y1485000D02*
X16400000Y1699000D01*
%TO.N,PC2*%
X12495000Y5295000D02*
X12400000Y5200000D01*
X13650000Y5295000D02*
X12495000Y5295000D01*
%TO.N,PC3*%
X12435000Y6565000D02*
X12400000Y6600000D01*
X13650000Y6565000D02*
X12435000Y6565000D01*
%TO.N,UPDI{slash}RST*%
X13117862Y7835000D02*
X11800000Y9152862D01*
X11800000Y9152862D02*
X11800000Y9600000D01*
X13650000Y7835000D02*
X13117862Y7835000D01*
%TD*%
M02*
