%TF.GenerationSoftware,KiCad,Pcbnew,(6.0.2)*%
%TF.CreationDate,2022-05-10T14:03:59+02:00*%
%TF.ProjectId,AT806_Led-Matrix_backup,41543830-365f-44c6-9564-2d4d61747269,rev?*%
%TF.SameCoordinates,PX64e6140PY76a3180*%
%TF.FileFunction,Soldermask,Top*%
%TF.FilePolarity,Negative*%
%FSLAX46Y46*%
G04 Gerber Fmt 4.6, Leading zero omitted, Abs format (unit mm)*
G04 Created by KiCad (PCBNEW (6.0.2)) date 2022-05-10 14:03:59*
%MOMM*%
%LPD*%
G01*
G04 APERTURE LIST*
G04 Aperture macros list*
%AMRoundRect*
0 Rectangle with rounded corners*
0 $1 Rounding radius*
0 $2 $3 $4 $5 $6 $7 $8 $9 X,Y pos of 4 corners*
0 Add a 4 corners polygon primitive as box body*
4,1,4,$2,$3,$4,$5,$6,$7,$8,$9,$2,$3,0*
0 Add four circle primitives for the rounded corners*
1,1,$1+$1,$2,$3*
1,1,$1+$1,$4,$5*
1,1,$1+$1,$6,$7*
1,1,$1+$1,$8,$9*
0 Add four rect primitives between the rounded corners*
20,1,$1+$1,$2,$3,$4,$5,0*
20,1,$1+$1,$4,$5,$6,$7,0*
20,1,$1+$1,$6,$7,$8,$9,0*
20,1,$1+$1,$8,$9,$2,$3,0*%
%AMFreePoly0*
4,1,22,0.550000,-0.750000,0.000000,-0.750000,0.000000,-0.745033,-0.079941,-0.743568,-0.215256,-0.701293,-0.333266,-0.622738,-0.424486,-0.514219,-0.481581,-0.384460,-0.499164,-0.250000,-0.500000,-0.250000,-0.500000,0.250000,-0.499164,0.250000,-0.499963,0.256109,-0.478152,0.396186,-0.417904,0.524511,-0.324060,0.630769,-0.204165,0.706417,-0.067858,0.745374,0.000000,0.744959,0.000000,0.750000,
0.550000,0.750000,0.550000,-0.750000,0.550000,-0.750000,$1*%
%AMFreePoly1*
4,1,20,0.000000,0.744959,0.073905,0.744508,0.209726,0.703889,0.328688,0.626782,0.421226,0.519385,0.479903,0.390333,0.500000,0.250000,0.500000,-0.250000,0.499851,-0.262216,0.476331,-0.402017,0.414519,-0.529596,0.319384,-0.634700,0.198574,-0.708877,0.061801,-0.746166,0.000000,-0.745033,0.000000,-0.750000,-0.550000,-0.750000,-0.550000,0.750000,0.000000,0.750000,0.000000,0.744959,
0.000000,0.744959,$1*%
G04 Aperture macros list end*
%ADD10C,0.250000*%
%ADD11RoundRect,0.243750X-0.456250X0.243750X-0.456250X-0.243750X0.456250X-0.243750X0.456250X0.243750X0*%
%ADD12RoundRect,0.243750X0.456250X-0.243750X0.456250X0.243750X-0.456250X0.243750X-0.456250X-0.243750X0*%
%ADD13RoundRect,0.250000X0.262500X0.450000X-0.262500X0.450000X-0.262500X-0.450000X0.262500X-0.450000X0*%
%ADD14RoundRect,0.250000X-0.475000X0.250000X-0.475000X-0.250000X0.475000X-0.250000X0.475000X0.250000X0*%
%ADD15FreePoly0,0.000000*%
%ADD16R,1.000000X1.500000*%
%ADD17FreePoly1,0.000000*%
%ADD18RoundRect,0.250000X0.475000X-0.250000X0.475000X0.250000X-0.475000X0.250000X-0.475000X-0.250000X0*%
%ADD19RoundRect,0.250000X-0.250000X-0.475000X0.250000X-0.475000X0.250000X0.475000X-0.250000X0.475000X0*%
%ADD20R,1.700000X1.700000*%
%ADD21O,1.700000X1.700000*%
%ADD22RoundRect,0.250000X-0.262500X-0.450000X0.262500X-0.450000X0.262500X0.450000X-0.262500X0.450000X0*%
%ADD23RoundRect,0.150000X-0.875000X-0.150000X0.875000X-0.150000X0.875000X0.150000X-0.875000X0.150000X0*%
%ADD24C,1.000000*%
%ADD25R,1.500000X2.000000*%
%ADD26R,3.800000X2.000000*%
G04 APERTURE END LIST*
D10*
X7557142Y10195239D02*
X7604761Y10147620D01*
X7652380Y10004762D01*
X7652380Y9909524D01*
X7604761Y9766667D01*
X7509523Y9671429D01*
X7414285Y9623810D01*
X7223809Y9576191D01*
X7080952Y9576191D01*
X6890476Y9623810D01*
X6795238Y9671429D01*
X6700000Y9766667D01*
X6652380Y9909524D01*
X6652380Y10004762D01*
X6700000Y10147620D01*
X6747619Y10195239D01*
X7652380Y11100000D02*
X7652380Y10623810D01*
X6652380Y10623810D01*
X7652380Y11433334D02*
X6652380Y11433334D01*
X7652380Y12004762D02*
X7080952Y11576191D01*
X6652380Y12004762D02*
X7223809Y11433334D01*
X6652380Y13385715D02*
X6652380Y13576191D01*
X6700000Y13671429D01*
X6795238Y13766667D01*
X6985714Y13814286D01*
X7319047Y13814286D01*
X7509523Y13766667D01*
X7604761Y13671429D01*
X7652380Y13576191D01*
X7652380Y13385715D01*
X7604761Y13290477D01*
X7509523Y13195239D01*
X7319047Y13147620D01*
X6985714Y13147620D01*
X6795238Y13195239D01*
X6700000Y13290477D01*
X6652380Y13385715D01*
X6652380Y14242858D02*
X7461904Y14242858D01*
X7557142Y14290477D01*
X7604761Y14338096D01*
X7652380Y14433334D01*
X7652380Y14623810D01*
X7604761Y14719048D01*
X7557142Y14766667D01*
X7461904Y14814286D01*
X6652380Y14814286D01*
X6652380Y15147620D02*
X6652380Y15719048D01*
X7652380Y15433334D02*
X6652380Y15433334D01*
D11*
%TO.C,D125*%
X53900000Y14950000D03*
X53900000Y13075000D03*
%TD*%
%TO.C,D45*%
X36300000Y18937500D03*
X36300000Y17062500D03*
%TD*%
%TO.C,D46*%
X36300000Y14987500D03*
X36300000Y13112500D03*
%TD*%
D12*
%TO.C,D7*%
X25300000Y9062500D03*
X25300000Y10937500D03*
%TD*%
D11*
%TO.C,D144*%
X56100000Y2937500D03*
X56100000Y1062500D03*
%TD*%
%TO.C,D105*%
X54000000Y34862500D03*
X54000000Y32987500D03*
%TD*%
%TO.C,D122*%
X54000000Y26937500D03*
X54000000Y25062500D03*
%TD*%
%TO.C,D139*%
X58300000Y22737500D03*
X58300000Y20862500D03*
%TD*%
D13*
%TO.C,R1*%
X20512500Y29000000D03*
X18687500Y29000000D03*
%TD*%
D12*
%TO.C,D115*%
X51700000Y20900000D03*
X51700000Y22775000D03*
%TD*%
%TO.C,D2*%
X25350000Y29062500D03*
X25350000Y30937500D03*
%TD*%
%TO.C,D118*%
X51700000Y9162500D03*
X51700000Y11037500D03*
%TD*%
%TO.C,D100*%
X47300000Y17100000D03*
X47300000Y18975000D03*
%TD*%
%TO.C,D51*%
X38600000Y25062500D03*
X38600000Y26937500D03*
%TD*%
D11*
%TO.C,D78*%
X40750000Y11000000D03*
X40750000Y9125000D03*
%TD*%
%TO.C,D142*%
X58300000Y11000000D03*
X58300000Y9125000D03*
%TD*%
%TO.C,D41*%
X36400000Y34962500D03*
X36400000Y33087500D03*
%TD*%
%TO.C,D30*%
X31900000Y14950000D03*
X31900000Y13075000D03*
%TD*%
D12*
%TO.C,D102*%
X47350000Y9150000D03*
X47350000Y11025000D03*
%TD*%
D11*
%TO.C,D108*%
X49500000Y18900000D03*
X49500000Y17025000D03*
%TD*%
D12*
%TO.C,D68*%
X42900000Y20837500D03*
X42900000Y22712500D03*
%TD*%
%TO.C,D71*%
X38550000Y5125000D03*
X38550000Y7000000D03*
%TD*%
%TO.C,D1*%
X25400000Y33062500D03*
X25400000Y34937500D03*
%TD*%
D11*
%TO.C,D137*%
X58400000Y30700000D03*
X58400000Y28825000D03*
%TD*%
D14*
%TO.C,C2*%
X1600000Y22550000D03*
X1600000Y20650000D03*
%TD*%
D15*
%TO.C,JP1*%
X4300000Y15800000D03*
D16*
X5600000Y15800000D03*
D17*
X6900000Y15800000D03*
%TD*%
D11*
%TO.C,D92*%
X45100000Y18900000D03*
X45100000Y17025000D03*
%TD*%
%TO.C,D123*%
X53900000Y22737500D03*
X53900000Y20862500D03*
%TD*%
%TO.C,D57*%
X40800000Y34900000D03*
X40800000Y33025000D03*
%TD*%
%TO.C,D141*%
X58300000Y14937500D03*
X58300000Y13062500D03*
%TD*%
%TO.C,D143*%
X58350000Y6975000D03*
X58350000Y5100000D03*
%TD*%
D12*
%TO.C,D8*%
X25300000Y5062500D03*
X25300000Y6937500D03*
%TD*%
D11*
%TO.C,D77*%
X40700000Y14937500D03*
X40700000Y13062500D03*
%TD*%
D12*
%TO.C,D135*%
X56100000Y5112500D03*
X56100000Y6987500D03*
%TD*%
D11*
%TO.C,D29*%
X31900000Y18900000D03*
X31900000Y17025000D03*
%TD*%
%TO.C,D16*%
X27500000Y6937500D03*
X27500000Y5062500D03*
%TD*%
D18*
%TO.C,C1*%
X1600000Y24650000D03*
X1600000Y26550000D03*
%TD*%
D12*
%TO.C,D87*%
X42900000Y5125000D03*
X42900000Y7000000D03*
%TD*%
D11*
%TO.C,D128*%
X51700000Y2937500D03*
X51700000Y1062500D03*
%TD*%
D12*
%TO.C,D67*%
X43000000Y25000000D03*
X43000000Y26875000D03*
%TD*%
%TO.C,D72*%
X40700000Y1125000D03*
X40700000Y3000000D03*
%TD*%
D11*
%TO.C,D10*%
X27600000Y30937500D03*
X27600000Y29062500D03*
%TD*%
D12*
%TO.C,D18*%
X29800000Y29062500D03*
X29800000Y30937500D03*
%TD*%
D19*
%TO.C,C6*%
X6450000Y29800000D03*
X8350000Y29800000D03*
%TD*%
D11*
%TO.C,D28*%
X31900000Y22837500D03*
X31900000Y20962500D03*
%TD*%
D20*
%TO.C,J3*%
X1575000Y1875000D03*
D21*
X1575000Y4415000D03*
X1575000Y6955000D03*
%TD*%
D11*
%TO.C,D48*%
X29650000Y3012500D03*
X29650000Y1137500D03*
%TD*%
D12*
%TO.C,D119*%
X51700000Y5150000D03*
X51700000Y7025000D03*
%TD*%
%TO.C,D116*%
X51700000Y17100000D03*
X51700000Y18975000D03*
%TD*%
%TO.C,D103*%
X47350000Y5162500D03*
X47350000Y7037500D03*
%TD*%
D11*
%TO.C,D61*%
X40700000Y19000000D03*
X40700000Y17125000D03*
%TD*%
%TO.C,D60*%
X40700000Y22737500D03*
X40700000Y20862500D03*
%TD*%
D12*
%TO.C,D56*%
X36300000Y1125000D03*
X36300000Y3000000D03*
%TD*%
D20*
%TO.C,J1*%
X2275000Y34625000D03*
D21*
X4815000Y34625000D03*
X7355000Y34625000D03*
%TD*%
D12*
%TO.C,D113*%
X56200000Y32962500D03*
X56200000Y34837500D03*
%TD*%
%TO.C,D136*%
X58200000Y1062500D03*
X58200000Y2937500D03*
%TD*%
D11*
%TO.C,D140*%
X58300000Y19000000D03*
X58300000Y17125000D03*
%TD*%
D12*
%TO.C,D114*%
X51800000Y25100000D03*
X51800000Y26975000D03*
%TD*%
D11*
%TO.C,D79*%
X40750000Y6975000D03*
X40750000Y5100000D03*
%TD*%
D22*
%TO.C,R8*%
X18687500Y21000000D03*
X20512500Y21000000D03*
%TD*%
D12*
%TO.C,D117*%
X51700000Y13100000D03*
X51700000Y14975000D03*
%TD*%
D11*
%TO.C,D15*%
X27500000Y10937500D03*
X27500000Y9062500D03*
%TD*%
D12*
%TO.C,D129*%
X56200000Y28900000D03*
X56200000Y30775000D03*
%TD*%
%TO.C,D4*%
X25300000Y21062500D03*
X25300000Y22937500D03*
%TD*%
D20*
%TO.C,J2*%
X11075000Y34625000D03*
D21*
X13615000Y34625000D03*
X16155000Y34625000D03*
%TD*%
D12*
%TO.C,D17*%
X29800000Y33062500D03*
X29800000Y34937500D03*
%TD*%
D11*
%TO.C,D126*%
X53900000Y11000000D03*
X53900000Y9125000D03*
%TD*%
%TO.C,D31*%
X31900000Y10950000D03*
X31900000Y9075000D03*
%TD*%
D12*
%TO.C,D65*%
X43000000Y32987500D03*
X43000000Y34862500D03*
%TD*%
D13*
%TO.C,R2*%
X20712500Y32400000D03*
X18887500Y32400000D03*
%TD*%
D11*
%TO.C,D121*%
X58400000Y34862500D03*
X58400000Y32987500D03*
%TD*%
%TO.C,D124*%
X53900000Y18900000D03*
X53900000Y17025000D03*
%TD*%
%TO.C,D27*%
X32000000Y27000000D03*
X32000000Y25125000D03*
%TD*%
D12*
%TO.C,D35*%
X34200000Y25100000D03*
X34200000Y26975000D03*
%TD*%
D23*
%TO.C,U1*%
X4350000Y12915000D03*
X4350000Y11645000D03*
X4350000Y10375000D03*
X4350000Y9105000D03*
X4350000Y7835000D03*
X4350000Y6565000D03*
X4350000Y5295000D03*
X4350000Y4025000D03*
X4350000Y2755000D03*
X4350000Y1485000D03*
X13650000Y1485000D03*
X13650000Y2755000D03*
X13650000Y4025000D03*
X13650000Y5295000D03*
X13650000Y6565000D03*
X13650000Y7835000D03*
X13650000Y9105000D03*
X13650000Y10375000D03*
X13650000Y11645000D03*
X13650000Y12915000D03*
%TD*%
D11*
%TO.C,D109*%
X49550000Y14950000D03*
X49550000Y13075000D03*
%TD*%
D24*
%TO.C,FID1*%
X60200000Y800000D03*
%TD*%
D11*
%TO.C,D89*%
X49600000Y34862500D03*
X49600000Y32987500D03*
%TD*%
%TO.C,D32*%
X25250000Y3037500D03*
X25250000Y1162500D03*
%TD*%
%TO.C,D95*%
X45100000Y7000000D03*
X45100000Y5125000D03*
%TD*%
D12*
%TO.C,D134*%
X56100000Y9150000D03*
X56100000Y11025000D03*
%TD*%
%TO.C,D38*%
X34100000Y13100000D03*
X34100000Y14975000D03*
%TD*%
%TO.C,D101*%
X47350000Y13100000D03*
X47350000Y14975000D03*
%TD*%
%TO.C,D50*%
X38600000Y29000000D03*
X38600000Y30875000D03*
%TD*%
D11*
%TO.C,D12*%
X27500000Y22875000D03*
X27500000Y21000000D03*
%TD*%
D12*
%TO.C,D23*%
X29700000Y9100000D03*
X29700000Y10975000D03*
%TD*%
D22*
%TO.C,R9*%
X18887500Y5000000D03*
X20712500Y5000000D03*
%TD*%
D11*
%TO.C,D26*%
X32000000Y30900000D03*
X32000000Y29025000D03*
%TD*%
%TO.C,D9*%
X27600000Y34900000D03*
X27600000Y33025000D03*
%TD*%
%TO.C,D111*%
X49550000Y6987500D03*
X49550000Y5112500D03*
%TD*%
%TO.C,D80*%
X38500000Y3000000D03*
X38500000Y1125000D03*
%TD*%
%TO.C,D138*%
X58400000Y26875000D03*
X58400000Y25000000D03*
%TD*%
%TO.C,D127*%
X53900000Y7000000D03*
X53900000Y5125000D03*
%TD*%
%TO.C,D74*%
X45200000Y30800000D03*
X45200000Y28925000D03*
%TD*%
D12*
%TO.C,D54*%
X34100000Y9100000D03*
X34100000Y10975000D03*
%TD*%
D11*
%TO.C,D43*%
X36400000Y26937500D03*
X36400000Y25062500D03*
%TD*%
D12*
%TO.C,D20*%
X29700000Y21037500D03*
X29700000Y22912500D03*
%TD*%
D24*
%TO.C,REF\u002A\u002A*%
X12200000Y24400000D03*
X12200000Y24400000D03*
%TD*%
D11*
%TO.C,D90*%
X49600000Y30737500D03*
X49600000Y28862500D03*
%TD*%
%TO.C,D14*%
X27500000Y14937500D03*
X27500000Y13062500D03*
%TD*%
%TO.C,D47*%
X31950000Y6950000D03*
X31950000Y5075000D03*
%TD*%
D12*
%TO.C,D19*%
X29800000Y25125000D03*
X29800000Y27000000D03*
%TD*%
%TO.C,D52*%
X38500000Y20937500D03*
X38500000Y22812500D03*
%TD*%
%TO.C,D120*%
X53900000Y1125000D03*
X53900000Y3000000D03*
%TD*%
%TO.C,D104*%
X49500000Y1125000D03*
X49500000Y3000000D03*
%TD*%
D25*
%TO.C,U2*%
X8500000Y25150000D03*
D26*
X6200000Y18850000D03*
D25*
X6200000Y25150000D03*
X3900000Y25150000D03*
%TD*%
D12*
%TO.C,D83*%
X47400000Y25062500D03*
X47400000Y26937500D03*
%TD*%
%TO.C,D98*%
X51800000Y28862500D03*
X51800000Y30737500D03*
%TD*%
%TO.C,D53*%
X38500000Y17162500D03*
X38500000Y19037500D03*
%TD*%
%TO.C,D21*%
X29700000Y17037500D03*
X29700000Y18912500D03*
%TD*%
%TO.C,D40*%
X31900000Y1125000D03*
X31900000Y3000000D03*
%TD*%
%TO.C,D49*%
X38600000Y33062500D03*
X38600000Y34937500D03*
%TD*%
D11*
%TO.C,D63*%
X36350000Y6950000D03*
X36350000Y5075000D03*
%TD*%
D12*
%TO.C,D34*%
X34200000Y29000000D03*
X34200000Y30875000D03*
%TD*%
%TO.C,D24*%
X27500000Y1175000D03*
X27500000Y3050000D03*
%TD*%
D11*
%TO.C,D25*%
X32000000Y34937500D03*
X32000000Y33062500D03*
%TD*%
D13*
%TO.C,R3*%
X20512500Y17000000D03*
X18687500Y17000000D03*
%TD*%
D12*
%TO.C,D86*%
X42900000Y9150000D03*
X42900000Y11025000D03*
%TD*%
D24*
%TO.C,REF\u002A\u002A*%
X22200000Y35600000D03*
X22200000Y35600000D03*
%TD*%
D11*
%TO.C,D96*%
X42900000Y2937500D03*
X42900000Y1062500D03*
%TD*%
D12*
%TO.C,D36*%
X34100000Y20937500D03*
X34100000Y22812500D03*
%TD*%
D22*
%TO.C,R7*%
X18775000Y13000000D03*
X20600000Y13000000D03*
%TD*%
D12*
%TO.C,D66*%
X43000000Y28900000D03*
X43000000Y30775000D03*
%TD*%
D14*
%TO.C,C3*%
X1800000Y12950000D03*
X1800000Y11050000D03*
%TD*%
D11*
%TO.C,D42*%
X36400000Y30837500D03*
X36400000Y28962500D03*
%TD*%
%TO.C,D62*%
X36350000Y11000000D03*
X36350000Y9125000D03*
%TD*%
D13*
%TO.C,R6*%
X20712500Y8800000D03*
X18887500Y8800000D03*
%TD*%
D12*
%TO.C,D6*%
X25300000Y13062500D03*
X25300000Y14937500D03*
%TD*%
D11*
%TO.C,D73*%
X45200000Y34862500D03*
X45200000Y32987500D03*
%TD*%
D12*
%TO.C,D33*%
X34200000Y33125000D03*
X34200000Y35000000D03*
%TD*%
D11*
%TO.C,D59*%
X40800000Y26900000D03*
X40800000Y25025000D03*
%TD*%
D12*
%TO.C,D81*%
X47400000Y32987500D03*
X47400000Y34862500D03*
%TD*%
%TO.C,D131*%
X56100000Y20900000D03*
X56100000Y22775000D03*
%TD*%
D11*
%TO.C,D110*%
X49550000Y11000000D03*
X49550000Y9125000D03*
%TD*%
%TO.C,D94*%
X45100000Y11000000D03*
X45100000Y9125000D03*
%TD*%
D12*
%TO.C,D84*%
X42900000Y17100000D03*
X42900000Y18975000D03*
%TD*%
%TO.C,D130*%
X56200000Y25062500D03*
X56200000Y26937500D03*
%TD*%
D11*
%TO.C,D11*%
X27600000Y26937500D03*
X27600000Y25062500D03*
%TD*%
D12*
%TO.C,D55*%
X34150000Y5100000D03*
X34150000Y6975000D03*
%TD*%
D11*
%TO.C,D91*%
X49600000Y26900000D03*
X49600000Y25025000D03*
%TD*%
D12*
%TO.C,D82*%
X47400000Y28900000D03*
X47400000Y30775000D03*
%TD*%
D11*
%TO.C,D106*%
X54000000Y30737500D03*
X54000000Y28862500D03*
%TD*%
D13*
%TO.C,R5*%
X20800000Y1600000D03*
X18975000Y1600000D03*
%TD*%
D12*
%TO.C,D97*%
X51800000Y33062500D03*
X51800000Y34937500D03*
%TD*%
D11*
%TO.C,D93*%
X45150000Y14975000D03*
X45150000Y13100000D03*
%TD*%
D19*
%TO.C,C5*%
X6450000Y27600000D03*
X8350000Y27600000D03*
%TD*%
D12*
%TO.C,D99*%
X47300000Y20837500D03*
X47300000Y22712500D03*
%TD*%
D11*
%TO.C,D64*%
X34100000Y2937500D03*
X34100000Y1062500D03*
%TD*%
%TO.C,D13*%
X27500000Y18937500D03*
X27500000Y17062500D03*
%TD*%
D12*
%TO.C,D85*%
X42900000Y13100000D03*
X42900000Y14975000D03*
%TD*%
%TO.C,D88*%
X45100000Y1125000D03*
X45100000Y3000000D03*
%TD*%
%TO.C,D39*%
X29700000Y5100000D03*
X29700000Y6975000D03*
%TD*%
%TO.C,D133*%
X56100000Y13100000D03*
X56100000Y14975000D03*
%TD*%
D11*
%TO.C,D112*%
X47300000Y3000000D03*
X47300000Y1125000D03*
%TD*%
D24*
%TO.C,REF\u002A\u002A*%
X60200000Y35800000D03*
%TD*%
D12*
%TO.C,D70*%
X38550000Y9150000D03*
X38550000Y11025000D03*
%TD*%
D18*
%TO.C,C4*%
X1800000Y14700000D03*
X1800000Y16600000D03*
%TD*%
D12*
%TO.C,D132*%
X56100000Y17100000D03*
X56100000Y18975000D03*
%TD*%
D11*
%TO.C,D107*%
X49500000Y22737500D03*
X49500000Y20862500D03*
%TD*%
%TO.C,D44*%
X36300000Y22737500D03*
X36300000Y20862500D03*
%TD*%
%TO.C,D58*%
X40800000Y30800000D03*
X40800000Y28925000D03*
%TD*%
D13*
%TO.C,R4*%
X20512500Y25200000D03*
X18687500Y25200000D03*
%TD*%
D12*
%TO.C,D5*%
X25300000Y17062500D03*
X25300000Y18937500D03*
%TD*%
D11*
%TO.C,D76*%
X45100000Y22737500D03*
X45100000Y20862500D03*
%TD*%
%TO.C,D75*%
X45200000Y26900000D03*
X45200000Y25025000D03*
%TD*%
D12*
%TO.C,D22*%
X29700000Y13100000D03*
X29700000Y14975000D03*
%TD*%
%TO.C,D3*%
X25400000Y25162500D03*
X25400000Y27037500D03*
%TD*%
%TO.C,D37*%
X34100000Y17100000D03*
X34100000Y18975000D03*
%TD*%
%TO.C,D69*%
X38500000Y13112500D03*
X38500000Y14987500D03*
%TD*%
M02*
