%TF.GenerationSoftware,KiCad,Pcbnew,(6.0.2)*%
%TF.CreationDate,2022-05-10T14:03:58+02:00*%
%TF.ProjectId,AT806_Led-Matrix_backup,41543830-365f-44c6-9564-2d4d61747269,rev?*%
%TF.SameCoordinates,PX64e6140PY76a3180*%
%TF.FileFunction,Copper,L2,Bot*%
%TF.FilePolarity,Positive*%
%FSLAX46Y46*%
G04 Gerber Fmt 4.6, Leading zero omitted, Abs format (unit mm)*
G04 Created by KiCad (PCBNEW (6.0.2)) date 2022-05-10 14:03:58*
%MOMM*%
%LPD*%
G01*
G04 APERTURE LIST*
%TA.AperFunction,ComponentPad*%
%ADD10R,1.700000X1.700000*%
%TD*%
%TA.AperFunction,ComponentPad*%
%ADD11O,1.700000X1.700000*%
%TD*%
%TA.AperFunction,SMDPad,CuDef*%
%ADD12C,2.000000*%
%TD*%
%TA.AperFunction,ViaPad*%
%ADD13C,1.000000*%
%TD*%
%TA.AperFunction,ViaPad*%
%ADD14C,0.800000*%
%TD*%
%TA.AperFunction,Conductor*%
%ADD15C,0.500000*%
%TD*%
%TA.AperFunction,Conductor*%
%ADD16C,0.700000*%
%TD*%
%TA.AperFunction,Conductor*%
%ADD17C,0.300000*%
%TD*%
G04 APERTURE END LIST*
D10*
%TO.P,J3,1,Pin_1*%
%TO.N,TXD*%
X1575000Y1875000D03*
D11*
%TO.P,J3,2,Pin_2*%
%TO.N,GND*%
X1575000Y4415000D03*
%TO.P,J3,3,Pin_3*%
%TO.N,RXD*%
X1575000Y6955000D03*
%TD*%
D10*
%TO.P,J1,1,Pin_1*%
%TO.N,UPDI{slash}RST*%
X2275000Y34625000D03*
D11*
%TO.P,J1,2,Pin_2*%
%TO.N,+5V*%
X4815000Y34625000D03*
%TO.P,J1,3,Pin_3*%
%TO.N,GND*%
X7355000Y34625000D03*
%TD*%
D10*
%TO.P,J2,1,Pin_1*%
%TO.N,I2C_SDA*%
X11075000Y34625000D03*
D11*
%TO.P,J2,2,Pin_2*%
%TO.N,GND*%
X13615000Y34625000D03*
%TO.P,J2,3,Pin_3*%
%TO.N,I2C_SCL*%
X16155000Y34625000D03*
%TD*%
D12*
%TO.P,TP4,1,1*%
%TO.N,PC3*%
X10800000Y6600000D03*
%TD*%
%TO.P,TP2,1,1*%
%TO.N,PC2*%
X11000000Y3000000D03*
%TD*%
%TO.P,TP3,1,1*%
%TO.N,CLK_OUT*%
X7200000Y6600000D03*
%TD*%
%TO.P,TP1,1,1*%
%TO.N,PB4*%
X7200000Y3000000D03*
%TD*%
D13*
%TO.N,+5V*%
X800000Y29800000D03*
X3800000Y26800000D03*
%TO.N,GND*%
X1800000Y9800000D03*
X8400000Y23600000D03*
X2400000Y19200000D03*
X10200000Y25200000D03*
X12200000Y13000000D03*
X1399500Y18000000D03*
%TO.N,MATRIX_I*%
X21800000Y33200000D03*
X24400000Y33200000D03*
D14*
%TO.N,MATRIX_H*%
X57400000Y28400000D03*
D13*
X24200000Y29000000D03*
D14*
X52800000Y16000000D03*
D13*
X21800000Y29000000D03*
D14*
X53188876Y19762633D03*
X58400000Y35800000D03*
X52800000Y12000000D03*
X52800000Y8000000D03*
X55397961Y23995144D03*
X55200000Y4000000D03*
D13*
%TO.N,MATRIX_G*%
X24200000Y25200000D03*
D14*
X52800000Y24000000D03*
X53000000Y31600000D03*
X54000000Y35800000D03*
X48400000Y16000000D03*
X50600255Y19999755D03*
D13*
X21800000Y25200000D03*
D14*
X48400000Y3400000D03*
X48600000Y8000000D03*
X48600000Y12000000D03*
%TO.N,MATRIX_F*%
X44800000Y15888000D03*
X48400000Y20400000D03*
X48600000Y31800000D03*
X49600000Y35800000D03*
X44000000Y12000000D03*
D13*
X21800000Y21000000D03*
D14*
X48600000Y27800000D03*
X44200000Y3600000D03*
D13*
X24200000Y21000000D03*
D14*
X44000000Y8000000D03*
%TO.N,MATRIX_E*%
X44200000Y31600000D03*
D13*
X21800000Y17000000D03*
D14*
X44400000Y27800000D03*
X39800000Y7800000D03*
X45200000Y35800000D03*
X44200000Y23600000D03*
D13*
X24200000Y17000000D03*
D14*
X39600000Y12000000D03*
X43406194Y16110603D03*
X39800000Y3800000D03*
%TO.N,MATRIX_D*%
X36400000Y12000000D03*
X40800000Y35800000D03*
X39800000Y31800000D03*
X39800000Y23800000D03*
D13*
X24200000Y13000000D03*
D14*
X35400000Y7800000D03*
X36400000Y3800000D03*
X39800000Y27800000D03*
X39600000Y19800000D03*
D13*
X21800000Y13000000D03*
D14*
%TO.N,MATRIX_C*%
X35400000Y15800000D03*
X36400000Y31600000D03*
X32600000Y8200000D03*
D13*
X21800000Y9000000D03*
D14*
X35200000Y23600000D03*
X30800000Y3400000D03*
D13*
X24200000Y9000000D03*
D14*
X35200000Y19600000D03*
X36400000Y35800000D03*
X36400000Y27600000D03*
%TO.N,MATRIX_B*%
X32000000Y11800000D03*
X32000000Y35800000D03*
D13*
X24200000Y5000000D03*
D14*
X32000000Y19600000D03*
X29800000Y4400000D03*
X32000000Y31600000D03*
X32000000Y27800000D03*
X32000000Y23600000D03*
X32000000Y15800000D03*
D13*
X22000000Y5000000D03*
%TO.N,Net-(R1-Pad2)*%
X15400000Y2600000D03*
X16400000Y28800000D03*
%TO.N,Net-(R2-Pad2)*%
X17400000Y32200000D03*
X15200000Y4000000D03*
%TO.N,Net-(R3-Pad2)*%
X10799500Y12868490D03*
X11400000Y15200000D03*
%TO.N,Net-(R4-Pad2)*%
X9000000Y8000000D03*
X11000000Y20000000D03*
%TO.N,Net-(R8-Pad1)*%
X9999500Y10468490D03*
X11600000Y17000000D03*
%TO.N,CLK_OUT*%
X5600000Y6600000D03*
%TO.N,PB4*%
X5800000Y5200000D03*
%TO.N,I2C_SCL*%
X9200000Y1400000D03*
X19800000Y34200000D03*
%TO.N,I2C_SDA*%
X16400000Y1699000D03*
X14000000Y31400000D03*
X18200000Y30800000D03*
X11200000Y32200000D03*
%TO.N,PC2*%
X12400000Y5200000D03*
%TO.N,PC3*%
X12400000Y6600000D03*
%TO.N,UPDI{slash}RST*%
X11800000Y9600000D03*
%TD*%
D15*
%TO.N,+5V*%
X800000Y29800000D02*
X3800000Y26800000D01*
D16*
%TO.N,GND*%
X13000000Y13800000D02*
X13000000Y22400000D01*
X6800000Y23600000D02*
X8400000Y23600000D01*
D15*
X3200000Y8400000D02*
X1800000Y9800000D01*
D16*
X6400000Y23200000D02*
X6800000Y23600000D01*
D15*
X3200000Y6040000D02*
X3200000Y8400000D01*
D16*
X1800000Y17599500D02*
X1399500Y18000000D01*
X1800000Y9800000D02*
X1800000Y17599500D01*
X12200000Y13000000D02*
X13000000Y13800000D01*
X13000000Y22400000D02*
X10200000Y25200000D01*
D15*
X1575000Y4415000D02*
X3200000Y6040000D01*
D16*
X2400000Y19200000D02*
X6400000Y23200000D01*
D15*
%TO.N,MATRIX_I*%
X24400000Y33200000D02*
X21800000Y33200000D01*
%TO.N,MATRIX_H*%
X58400000Y28200000D02*
X58400000Y26400000D01*
X58400000Y26000000D02*
X56300000Y23900000D01*
X55600000Y20000000D02*
X55600000Y16000000D01*
X57400000Y28400000D02*
X57600000Y28200000D01*
X56000000Y23600000D02*
X55600000Y23200000D01*
X55600000Y8200000D02*
X55600000Y4400000D01*
X52800000Y16000000D02*
X55600000Y16000000D01*
X55600000Y4400000D02*
X55200000Y4000000D01*
X53188876Y19762633D02*
X55362633Y19762633D01*
X55600000Y16000000D02*
X55600000Y12200000D01*
X56300000Y23900000D02*
X56000000Y23600000D01*
X55400000Y8000000D02*
X55600000Y8200000D01*
X58400000Y26400000D02*
X58400000Y26000000D01*
X52800000Y8000000D02*
X55400000Y8000000D01*
X55400000Y12000000D02*
X55600000Y12200000D01*
X24200000Y29000000D02*
X21800000Y29000000D01*
X57600000Y28200000D02*
X58400000Y28200000D01*
X55600000Y23200000D02*
X55600000Y20000000D01*
X52800000Y12000000D02*
X55400000Y12000000D01*
X55600000Y12200000D02*
X55600000Y8200000D01*
X55397961Y23995144D02*
X56204856Y23995144D01*
X55362633Y19762633D02*
X55400000Y19800000D01*
X58400000Y35800000D02*
X58400000Y28200000D01*
X56204856Y23995144D02*
X56300000Y23900000D01*
%TO.N,MATRIX_G*%
X54000000Y24000000D02*
X54000000Y22400000D01*
X51799755Y19999755D02*
X51800000Y20000000D01*
X49800000Y3800000D02*
X49400000Y3400000D01*
X49800000Y18000000D02*
X49800000Y15800000D01*
X49400000Y3400000D02*
X48400000Y3400000D01*
X54000000Y22200000D02*
X51800000Y20000000D01*
X52800000Y24000000D02*
X54000000Y24000000D01*
X49800000Y8200000D02*
X49800000Y3800000D01*
X49600000Y16000000D02*
X49800000Y15800000D01*
X49800000Y15800000D02*
X49800000Y12000000D01*
X48400000Y16000000D02*
X49600000Y16000000D01*
X24200000Y25200000D02*
X21800000Y25200000D01*
X50600255Y19999755D02*
X51799755Y19999755D01*
X49600000Y8000000D02*
X49800000Y8200000D01*
X54000000Y35800000D02*
X54000000Y31600000D01*
X54000000Y31600000D02*
X54000000Y24000000D01*
X54000000Y22400000D02*
X54000000Y22200000D01*
X48600000Y12000000D02*
X49800000Y12000000D01*
X51800000Y20000000D02*
X49800000Y18000000D01*
X49800000Y12000000D02*
X49800000Y8200000D01*
X53000000Y31600000D02*
X54000000Y31600000D01*
X48600000Y8000000D02*
X49600000Y8000000D01*
%TO.N,MATRIX_F*%
X45000000Y3600000D02*
X45200000Y3800000D01*
X45200000Y8200000D02*
X45200000Y3800000D01*
X44000000Y8000000D02*
X45000000Y8000000D01*
X48400000Y20400000D02*
X48400000Y20200000D01*
X49600000Y27800000D02*
X49600000Y20200000D01*
X45200000Y11800000D02*
X45200000Y8200000D01*
X45200000Y15800000D02*
X45200000Y11800000D01*
X49000000Y19600000D02*
X45200000Y15800000D01*
X48400000Y20200000D02*
X49000000Y19600000D01*
X45000000Y12000000D02*
X45200000Y11800000D01*
X45000000Y8000000D02*
X45200000Y8200000D01*
X49600000Y35800000D02*
X49600000Y31800000D01*
X45112000Y15888000D02*
X45200000Y15800000D01*
X48600000Y27800000D02*
X49600000Y27800000D01*
X44200000Y3600000D02*
X45000000Y3600000D01*
X44000000Y12000000D02*
X45000000Y12000000D01*
X44800000Y15888000D02*
X45112000Y15888000D01*
X49600000Y31800000D02*
X49600000Y27800000D01*
X24200000Y21000000D02*
X21800000Y21000000D01*
X49600000Y20200000D02*
X49000000Y19600000D01*
X48600000Y31800000D02*
X49600000Y31800000D01*
%TO.N,MATRIX_E*%
X45200000Y31800000D02*
X45200000Y27800000D01*
X43406194Y16110603D02*
X43495591Y16200000D01*
X39800000Y7800000D02*
X40600000Y7800000D01*
X45200000Y35800000D02*
X45200000Y31800000D01*
X40800000Y7600000D02*
X40800000Y4000000D01*
X40600000Y3800000D02*
X40800000Y4000000D01*
X44400000Y27800000D02*
X45200000Y27800000D01*
X39600000Y12000000D02*
X40600000Y12000000D01*
X45200000Y23600000D02*
X45200000Y17800000D01*
X44200000Y31600000D02*
X45000000Y31600000D01*
X40800000Y11800000D02*
X40800000Y7600000D01*
X39800000Y3800000D02*
X40600000Y3800000D01*
X40600000Y7800000D02*
X40800000Y7600000D01*
X44200000Y23600000D02*
X45200000Y23600000D01*
X45000000Y31600000D02*
X45200000Y31800000D01*
X40600000Y12000000D02*
X40600000Y13200000D01*
X24200000Y17000000D02*
X21800000Y17000000D01*
X40600000Y13200000D02*
X45200000Y17800000D01*
X45200000Y27800000D02*
X45200000Y23600000D01*
X40600000Y12000000D02*
X40800000Y11800000D01*
%TO.N,MATRIX_D*%
X40800000Y27800000D02*
X40800000Y23600000D01*
X36400000Y8000000D02*
X36400000Y3800000D01*
X40800000Y15200000D02*
X37600000Y12000000D01*
X40800000Y20000000D02*
X40800000Y19000000D01*
X40600000Y19800000D02*
X40800000Y20000000D01*
X36200000Y7800000D02*
X36400000Y8000000D01*
X36400000Y10800000D02*
X36400000Y8000000D01*
X39800000Y23800000D02*
X40600000Y23800000D01*
X40800000Y31800000D02*
X40800000Y27800000D01*
X37600000Y12000000D02*
X36400000Y10800000D01*
X40800000Y19000000D02*
X40800000Y15200000D01*
X24200000Y13000000D02*
X21800000Y13000000D01*
X39600000Y19800000D02*
X40600000Y19800000D01*
X39800000Y31800000D02*
X40800000Y31800000D01*
X39800000Y27800000D02*
X40800000Y27800000D01*
X36400000Y12000000D02*
X37600000Y12000000D01*
X40800000Y23600000D02*
X40800000Y20000000D01*
X40800000Y35800000D02*
X40800000Y31800000D01*
X40600000Y23800000D02*
X40800000Y23600000D01*
X35400000Y7800000D02*
X36200000Y7800000D01*
%TO.N,MATRIX_C*%
X31600000Y3400000D02*
X30800000Y3400000D01*
X32000000Y8800000D02*
X32000000Y8200000D01*
X32600000Y8200000D02*
X32000000Y8200000D01*
X34400000Y23600000D02*
X34200000Y23800000D01*
X34200000Y11000000D02*
X32000000Y8800000D01*
X32000000Y3800000D02*
X31600000Y3400000D01*
X36400000Y31600000D02*
X36400000Y30800000D01*
X32000000Y8200000D02*
X32000000Y6800000D01*
X34200000Y23800000D02*
X34200000Y19600000D01*
X34200000Y15200000D02*
X34200000Y11000000D01*
X36400000Y27000000D02*
X34400000Y25000000D01*
X32000000Y6800000D02*
X32000000Y3800000D01*
X35200000Y23600000D02*
X34400000Y23600000D01*
X36400000Y35800000D02*
X36400000Y31600000D01*
X36400000Y27600000D02*
X36400000Y27000000D01*
X36400000Y30800000D02*
X36400000Y27600000D01*
X34200000Y19600000D02*
X34200000Y19000000D01*
X34200000Y19000000D02*
X34200000Y15800000D01*
X35200000Y19600000D02*
X34200000Y19600000D01*
X34200000Y15800000D02*
X34200000Y15200000D01*
X35400000Y15800000D02*
X34200000Y15800000D01*
X34200000Y24800000D02*
X34200000Y23800000D01*
X34400000Y25000000D02*
X34200000Y24800000D01*
X24200000Y9000000D02*
X21800000Y9000000D01*
%TO.N,MATRIX_B*%
X32000000Y35800000D02*
X32000000Y31600000D01*
X29800000Y10600000D02*
X29800000Y4400000D01*
X24200000Y5000000D02*
X22000000Y5000000D01*
X32000000Y27800000D02*
X32000000Y23600000D01*
X31000000Y11800000D02*
X32000000Y11800000D01*
X32000000Y19600000D02*
X32000000Y15800000D01*
X32000000Y31600000D02*
X32000000Y27800000D01*
X32000000Y15800000D02*
X32000000Y11800000D01*
X29800000Y10600000D02*
X31000000Y11800000D01*
X32000000Y23600000D02*
X32000000Y19600000D01*
%TO.N,Net-(R1-Pad2)*%
X15400000Y2600000D02*
X16400000Y3600000D01*
X16400000Y3600000D02*
X16400000Y28800000D01*
%TO.N,Net-(R2-Pad2)*%
X15200000Y4000000D02*
X15200000Y29200000D01*
X17400000Y32200000D02*
X15200000Y30000000D01*
X15200000Y30000000D02*
X15200000Y29200000D01*
%TO.N,Net-(R3-Pad2)*%
X11400000Y15200000D02*
X10799500Y14599500D01*
X10799500Y14599500D02*
X10799500Y12868490D01*
%TO.N,Net-(R4-Pad2)*%
X9000000Y18000000D02*
X11000000Y20000000D01*
X9000000Y8000000D02*
X9000000Y18000000D01*
%TO.N,Net-(R8-Pad1)*%
X11600000Y17000000D02*
X9800000Y15200000D01*
X9800000Y10667990D02*
X9999500Y10468490D01*
X9800000Y15200000D02*
X9800000Y10667990D01*
D17*
%TO.N,CLK_OUT*%
X5600000Y6600000D02*
X7200000Y6600000D01*
%TO.N,PB4*%
X7200000Y3800000D02*
X7200000Y2400000D01*
X5800000Y5200000D02*
X7200000Y3800000D01*
%TO.N,I2C_SCL*%
X20600000Y27200000D02*
X20600000Y26400000D01*
X18600000Y24400000D02*
X18600000Y1400000D01*
X18600000Y1400000D02*
X17999500Y799500D01*
X10000000Y600000D02*
X9200000Y1400000D01*
X19800000Y34200000D02*
X20600000Y33400000D01*
X17999500Y799500D02*
X17800000Y600000D01*
X17800000Y600000D02*
X10000000Y600000D01*
X20600000Y33400000D02*
X20600000Y27200000D01*
X19000000Y24800000D02*
X18600000Y24400000D01*
X20600000Y26400000D02*
X19000000Y24800000D01*
%TO.N,I2C_SDA*%
X12000000Y31400000D02*
X11200000Y32200000D01*
X17804511Y25604511D02*
X17804511Y3103511D01*
X18200000Y30800000D02*
X19600000Y29400000D01*
X12200000Y31400000D02*
X12000000Y31400000D01*
X19600000Y27400000D02*
X17804511Y25604511D01*
X19600000Y29400000D02*
X19600000Y27400000D01*
X17804511Y3103511D02*
X16400000Y1699000D01*
X14000000Y31400000D02*
X12200000Y31400000D01*
%TO.N,PC2*%
X12400000Y5200000D02*
X11000000Y3800000D01*
X11000000Y3800000D02*
X11000000Y2400000D01*
%TO.N,PC3*%
X12400000Y6600000D02*
X10800000Y6600000D01*
%TO.N,UPDI{slash}RST*%
X13800000Y11600000D02*
X13800000Y23600000D01*
X11800000Y9600000D02*
X13800000Y11600000D01*
X2720000Y29480000D02*
X2720000Y34600000D01*
X13800000Y23600000D02*
X9600000Y27800000D01*
X9600000Y27800000D02*
X4400000Y27800000D01*
X4400000Y27800000D02*
X2720000Y29480000D01*
%TD*%
M02*
